<svg xmlns="http://www.w3.org/2000/svg" xmlns:xlink="http://www.w3.org/1999/xlink" width="288.76" height="239.58" viewBox="0 0 288.76 239.58">
  <defs>
    <clipPath id="clip-path">
      <rect id="Rectangle_2" data-name="Rectangle 2" width="73.633" height="77.547" fill="none"/>
    </clipPath>
    <clipPath id="clip-path-2">
      <rect id="Rectangle_3" data-name="Rectangle 3" width="280" height="25.934" fill="#c5c5c5"/>
    </clipPath>
    <clipPath id="clip-path-3">
      <rect id="Rectangle_4" data-name="Rectangle 4" width="254.793" height="25.659" fill="#c5c5c5"/>
    </clipPath>
  </defs>
  <g id="Group_529" data-name="Group 529" transform="translate(-50 -100)">
    <g id="Group_4" data-name="Group 4" transform="translate(50 100)">
      <g id="Group_3" data-name="Group 3" transform="translate(0 0)" clip-path="url(#clip-path)">
        <path id="Path_27" data-name="Path 27" d="M12.417,77.547a1.151,1.151,0,0,1-1.13-.936L.025,16.827a1.379,1.379,0,0,1,.7-1.471L28.548.132a1.059,1.059,0,0,1,1.245.162l9.683,9.172a.725.725,0,1,1-1,1.052L29,1.539,1.416,16.628,12.6,75.748,56.852,27.472,42.8,14.241a.725.725,0,0,1,1-1.055l14.051,13.3a1.41,1.41,0,0,1,.071,1.968L13.26,77.174a1.139,1.139,0,0,1-.843.373" transform="translate(0 0)" fill="#c5c5c5"/>
        <path id="Path_28" data-name="Path 28" d="M47.665,70.078a1.584,1.584,0,0,1-1.32-.712L16.509,23.587a2.1,2.1,0,0,1,.347-2.716L37.832,1.741A1.928,1.928,0,0,1,40,1.46L65.19,14.492a2.133,2.133,0,0,1,1.05,2.569l-17.37,52.8-1,.2a1.553,1.553,0,0,1-.2.013M19.306,22.564l27.959,42.9L63.283,16.771l-24-12.422ZM38.669,4.034h0Z" transform="translate(7.283 0.561)" fill="#d6be28"/>
      </g>
    </g>
    <g id="Group_6" data-name="Group 6" transform="translate(50 205.041)">
      <g id="Group_5" data-name="Group 5" transform="translate(0 0)" clip-path="url(#clip-path-2)">
        <path id="Path_29" data-name="Path 29" d="M18.252,22.221a3.675,3.675,0,0,1-.019.393,1.965,1.965,0,0,1-.059.315,1.17,1.17,0,0,1-.108.256,1.724,1.724,0,0,1-.256.3,6.524,6.524,0,0,1-.815.609,9.943,9.943,0,0,1-1.581.835,13.3,13.3,0,0,1-2.191.708,11.792,11.792,0,0,1-2.731.294A10.9,10.9,0,0,1,6.15,25.1a8.87,8.87,0,0,1-3.31-2.446,11.235,11.235,0,0,1-2.1-3.969A18.035,18.035,0,0,1,0,13.3a18.311,18.311,0,0,1,.786-5.57A12.342,12.342,0,0,1,3,3.546,9.56,9.56,0,0,1,6.415.914,10.454,10.454,0,0,1,10.826,0a11.2,11.2,0,0,1,2.21.216A13.282,13.282,0,0,1,15.01.767a9.59,9.59,0,0,1,1.621.766,5.631,5.631,0,0,1,.982.7,2.409,2.409,0,0,1,.334.384,1.107,1.107,0,0,1,.108.265,2.255,2.255,0,0,1,.059.334,4.186,4.186,0,0,1,.019.422,3.374,3.374,0,0,1-.03.482,1.255,1.255,0,0,1-.1.353.623.623,0,0,1-.167.226.368.368,0,0,1-.236.078,1.469,1.469,0,0,1-.776-.4,12.082,12.082,0,0,0-1.316-.894,10.378,10.378,0,0,0-1.994-.894,8.7,8.7,0,0,0-2.809-.4A7.48,7.48,0,0,0,7.426,2.9,7.062,7.062,0,0,0,4.863,5.01a10.391,10.391,0,0,0-1.67,3.438,16.708,16.708,0,0,0-.6,4.7,16.722,16.722,0,0,0,.551,4.5,9.538,9.538,0,0,0,1.591,3.31,6.825,6.825,0,0,0,2.574,2.053,8.207,8.207,0,0,0,3.477.708,8.682,8.682,0,0,0,2.78-.4,11.243,11.243,0,0,0,2.033-.894,14.915,14.915,0,0,0,1.385-.894,1.642,1.642,0,0,1,.835-.4.362.362,0,0,1,.2.05.343.343,0,0,1,.128.176,1.607,1.607,0,0,1,.078.344,4.056,4.056,0,0,1,.03.53" transform="translate(0 0)" fill="#c5c5c5"/>
        <path id="Path_30" data-name="Path 30" d="M48.147,24.743a2.322,2.322,0,0,1-.04.452.962.962,0,0,1-.127.334.611.611,0,0,1-.207.206.493.493,0,0,1-.255.069H35.612a1.26,1.26,0,0,1-.727-.265,1.118,1.118,0,0,1-.374-.973V1.619a1.118,1.118,0,0,1,.374-.973,1.26,1.26,0,0,1,.727-.265H47.342A.5.5,0,0,1,47.6.449a.546.546,0,0,1,.2.207A1.136,1.136,0,0,1,47.911,1a2.54,2.54,0,0,1,.04.481,2.271,2.271,0,0,1-.04.452,1,1,0,0,1-.117.325.568.568,0,0,1-.2.2.5.5,0,0,1-.256.068H36.909v8.939h9a.532.532,0,0,1,.275.069.562.562,0,0,1,.2.2.994.994,0,0,1,.118.334,2.6,2.6,0,0,1,.04.482,2.173,2.173,0,0,1-.04.442.872.872,0,0,1-.118.3.511.511,0,0,1-.2.177.613.613,0,0,1-.275.058h-9V23.663h10.61a.5.5,0,0,1,.255.068.652.652,0,0,1,.207.2.867.867,0,0,1,.127.334,2.6,2.6,0,0,1,.04.482" transform="translate(-11.368 -0.125)" fill="#c5c5c5"/>
        <path id="Path_31" data-name="Path 31" d="M82.09,24.626a1.418,1.418,0,0,1-.108.589,1.133,1.133,0,0,1-.275.383.956.956,0,0,1-.374.207,1.414,1.414,0,0,1-.383.059h-.492a2.458,2.458,0,0,1-.717-.1,1.854,1.854,0,0,1-.628-.343,3.569,3.569,0,0,1-.61-.659,11.437,11.437,0,0,1-.677-1.061L68.868,7.828Q68.2,6.669,67.522,5.441T66.235,3.054h-.019q.019,1.434.019,2.937v19.4a.416.416,0,0,1-.058.216.408.408,0,0,1-.2.157,1.663,1.663,0,0,1-.363.1,4.265,4.265,0,0,1-1.149,0,1.646,1.646,0,0,1-.374-.1.405.405,0,0,1-.2-.157.416.416,0,0,1-.059-.216V1.6a1.117,1.117,0,0,1,.374-.972,1.256,1.256,0,0,1,.727-.266h.982a3.278,3.278,0,0,1,.786.079,1.629,1.629,0,0,1,.569.265,2.315,2.315,0,0,1,.5.53,9.292,9.292,0,0,1,.541.874l6.856,12.162q.649,1.139,1.229,2.19t1.129,2.063q.55,1.012,1.09,1.994T79.693,22.5h.019q-.019-1.651-.019-3.438V.833a.41.41,0,0,1,.059-.216.462.462,0,0,1,.2-.167,1.154,1.154,0,0,1,.363-.1,4.537,4.537,0,0,1,.579-.03,4.4,4.4,0,0,1,.55.03,1.178,1.178,0,0,1,.374.1.541.541,0,0,1,.206.167.366.366,0,0,1,.069.216Z" transform="translate(-21.027 -0.106)" fill="#c5c5c5"/>
        <path id="Path_32" data-name="Path 32" d="M115.873,1.481a2.323,2.323,0,0,1-.04.452.988.988,0,0,1-.117.324.562.562,0,0,1-.2.2.5.5,0,0,1-.255.069H107.68V25.412a.41.41,0,0,1-.059.216.4.4,0,0,1-.2.157,1.649,1.649,0,0,1-.373.1,4.2,4.2,0,0,1-1.14,0,1.659,1.659,0,0,1-.373-.1.4.4,0,0,1-.2-.157.41.41,0,0,1-.059-.216V2.523H97.7a.479.479,0,0,1-.265-.069.591.591,0,0,1-.186-.2.973.973,0,0,1-.118-.324,2.323,2.323,0,0,1-.04-.452A2.6,2.6,0,0,1,97.13,1a1.09,1.09,0,0,1,.118-.343A.569.569,0,0,1,97.434.45.485.485,0,0,1,97.7.381h17.565a.5.5,0,0,1,.255.069.542.542,0,0,1,.2.207,1.107,1.107,0,0,1,.117.343,2.6,2.6,0,0,1,.04.482" transform="translate(-31.98 -0.125)" fill="#c5c5c5"/>
        <path id="Path_33" data-name="Path 33" d="M144.768,24.743a2.321,2.321,0,0,1-.04.452.962.962,0,0,1-.127.334.611.611,0,0,1-.207.206.493.493,0,0,1-.255.069H132.233a1.261,1.261,0,0,1-.727-.265,1.118,1.118,0,0,1-.374-.973V1.619a1.118,1.118,0,0,1,.374-.973,1.261,1.261,0,0,1,.727-.265h11.729a.5.5,0,0,1,.256.068.547.547,0,0,1,.2.207,1.117,1.117,0,0,1,.117.344,2.54,2.54,0,0,1,.04.481,2.271,2.271,0,0,1-.04.452.987.987,0,0,1-.117.325.568.568,0,0,1-.2.2.5.5,0,0,1-.256.068H133.53v8.939h9a.532.532,0,0,1,.275.069.562.562,0,0,1,.2.2.994.994,0,0,1,.118.334,2.6,2.6,0,0,1,.04.482,2.172,2.172,0,0,1-.04.442.872.872,0,0,1-.118.3.511.511,0,0,1-.2.177.613.613,0,0,1-.275.058h-9V23.663h10.61a.5.5,0,0,1,.255.068.652.652,0,0,1,.207.2.867.867,0,0,1,.127.334,2.6,2.6,0,0,1,.04.482" transform="translate(-43.193 -0.125)" fill="#c5c5c5"/>
        <path id="Path_34" data-name="Path 34" d="M176.373,25.372a.528.528,0,0,1-.049.235.393.393,0,0,1-.187.167,1.34,1.34,0,0,1-.383.108,4.032,4.032,0,0,1-.619.04,4.483,4.483,0,0,1-.56-.03,1.05,1.05,0,0,1-.383-.118.742.742,0,0,1-.255-.235,1.607,1.607,0,0,1-.177-.384l-2.377-6.169q-.412-1.041-.884-1.965a6.423,6.423,0,0,0-1.139-1.6,4.855,4.855,0,0,0-1.611-1.071,5.86,5.86,0,0,0-2.26-.393h-2.632V25.411a.415.415,0,0,1-.059.216.409.409,0,0,1-.2.158,1.7,1.7,0,0,1-.363.1,4.194,4.194,0,0,1-1.149,0,1.7,1.7,0,0,1-.374-.1.409.409,0,0,1-.2-.158.415.415,0,0,1-.059-.216V1.619a1.118,1.118,0,0,1,.374-.973,1.261,1.261,0,0,1,.727-.265h4.774q.944,0,1.562.049t1.13.128a8.611,8.611,0,0,1,2.534.825,5.944,5.944,0,0,1,1.788,1.4A5.556,5.556,0,0,1,174.4,4.674a7.255,7.255,0,0,1,.344,2.269,6.688,6.688,0,0,1-.353,2.25,5.5,5.5,0,0,1-1,1.748,6.426,6.426,0,0,1-1.552,1.306,10.208,10.208,0,0,1-1.984.923,5.166,5.166,0,0,1,1.169.727,5.674,5.674,0,0,1,.963,1.041,9.741,9.741,0,0,1,.835,1.4q.393.8.786,1.778l2.377,5.934q.256.687.324.943a1.608,1.608,0,0,1,.069.374M172.149,7.2a4.994,4.994,0,0,0-.727-2.76,4.092,4.092,0,0,0-2.436-1.621,7.553,7.553,0,0,0-1.237-.226q-.669-.068-1.749-.069h-3.143v9.332h3.654a7.837,7.837,0,0,0,2.534-.363A5.009,5.009,0,0,0,170.8,10.5a3.8,3.8,0,0,0,1.022-1.473,5.062,5.062,0,0,0,.324-1.827" transform="translate(-52.852 -0.125)" fill="#c5c5c5"/>
        <path id="Path_35" data-name="Path 35" d="M252.4,25.411a.408.408,0,0,1-.059.216.4.4,0,0,1-.207.158,1.922,1.922,0,0,1-.373.1,3.5,3.5,0,0,1-.579.04,3.394,3.394,0,0,1-.551-.04,1.688,1.688,0,0,1-.373-.1.4.4,0,0,1-.2-.158.408.408,0,0,1-.059-.216V2.483h-.04l-10,23.065a.5.5,0,0,1-.118.148.678.678,0,0,1-.216.118,1.914,1.914,0,0,1-.324.078,2.912,2.912,0,0,1-.443.03,3.263,3.263,0,0,1-.471-.03,1.638,1.638,0,0,1-.324-.078.683.683,0,0,1-.207-.118.293.293,0,0,1-.1-.148L228.251,2.483h-.019V25.411a.378.378,0,0,1-.266.374,1.922,1.922,0,0,1-.373.1,3.652,3.652,0,0,1-.6.04,3.344,3.344,0,0,1-.56-.04,1.694,1.694,0,0,1-.363-.1.348.348,0,0,1-.186-.158.473.473,0,0,1-.049-.216V1.618a1.117,1.117,0,0,1,.373-.972,1.263,1.263,0,0,1,.727-.265h1.3a3.1,3.1,0,0,1,.864.108,2.106,2.106,0,0,1,.658.315,1.945,1.945,0,0,1,.482.5,4.007,4.007,0,0,1,.353.668l8.389,20.2h.1L247.82,2.051a4.247,4.247,0,0,1,.422-.8,2.435,2.435,0,0,1,.471-.52,1.471,1.471,0,0,1,.53-.275,2.321,2.321,0,0,1,.619-.078H251.3a1.29,1.29,0,0,1,.374.059.881.881,0,0,1,.353.206,1.205,1.205,0,0,1,.266.384,1.416,1.416,0,0,1,.108.589Z" transform="translate(-74.386 -0.125)" fill="#c5c5c5"/>
        <path id="Path_36" data-name="Path 36" d="M278.916,25.353a.385.385,0,0,1-.255.374,1.7,1.7,0,0,1-.363.1,3.491,3.491,0,0,1-.579.04,3.533,3.533,0,0,1-.57-.04,1.689,1.689,0,0,1-.373-.1.4.4,0,0,1-.2-.158.408.408,0,0,1-.059-.216V.716A.368.368,0,0,1,276.587.5.472.472,0,0,1,276.8.342a1.875,1.875,0,0,1,.373-.1,3.2,3.2,0,0,1,.541-.04,3.49,3.49,0,0,1,.579.04,1.665,1.665,0,0,1,.363.1.409.409,0,0,1,.2.157.412.412,0,0,1,.059.217Z" transform="translate(-91.08 -0.067)" fill="#c5c5c5"/>
        <path id="Path_37" data-name="Path 37" d="M309.419,24.626a1.418,1.418,0,0,1-.108.589,1.132,1.132,0,0,1-.275.383.956.956,0,0,1-.374.207,1.413,1.413,0,0,1-.383.059h-.492a2.458,2.458,0,0,1-.717-.1,1.854,1.854,0,0,1-.628-.343,3.571,3.571,0,0,1-.61-.659,11.3,11.3,0,0,1-.677-1.061L296.2,7.828q-.668-1.159-1.346-2.387t-1.287-2.387h-.019q.019,1.434.019,2.937v19.4a.415.415,0,0,1-.058.216.408.408,0,0,1-.2.157,1.662,1.662,0,0,1-.363.1,4.265,4.265,0,0,1-1.149,0,1.645,1.645,0,0,1-.374-.1.405.405,0,0,1-.2-.157.416.416,0,0,1-.059-.216V1.6a1.117,1.117,0,0,1,.374-.972,1.256,1.256,0,0,1,.727-.266h.982a3.279,3.279,0,0,1,.786.079,1.629,1.629,0,0,1,.569.265,2.315,2.315,0,0,1,.5.53,9.276,9.276,0,0,1,.54.874L302.5,14.273q.649,1.139,1.229,2.19t1.129,2.063q.549,1.012,1.09,1.994t1.071,1.984h.019q-.019-1.651-.019-3.438V.833a.41.41,0,0,1,.059-.216.462.462,0,0,1,.2-.167,1.154,1.154,0,0,1,.363-.1,4.537,4.537,0,0,1,.579-.03,4.4,4.4,0,0,1,.55.03,1.178,1.178,0,0,1,.374.1.541.541,0,0,1,.206.167.366.366,0,0,1,.069.216Z" transform="translate(-95.905 -0.106)" fill="#c5c5c5"/>
        <path id="Path_38" data-name="Path 38" d="M346.08,24.941a1.2,1.2,0,0,1,.109.482.366.366,0,0,1-.138.285.79.79,0,0,1-.392.127,6.412,6.412,0,0,1-.678.03,5.845,5.845,0,0,1-.659-.03,1.424,1.424,0,0,1-.383-.089.466.466,0,0,1-.207-.157,1.353,1.353,0,0,1-.127-.236l-2.436-6.778H330.009l-2.338,6.739a.653.653,0,0,1-.118.235.624.624,0,0,1-.216.167,1.346,1.346,0,0,1-.383.108,3.949,3.949,0,0,1-.619.04,4.887,4.887,0,0,1-.687-.04.868.868,0,0,1-.4-.137.353.353,0,0,1-.138-.275,1.178,1.178,0,0,1,.108-.471l8.9-24.185a.672.672,0,0,1,.176-.266.809.809,0,0,1,.3-.167,2.484,2.484,0,0,1,.452-.089,5.531,5.531,0,0,1,.6-.03,5.739,5.739,0,0,1,.619.03,2.464,2.464,0,0,1,.451.089.72.72,0,0,1,.3.167.742.742,0,0,1,.167.266ZM335.529,2.9h-.019l-4.794,13.675h9.725Z" transform="translate(-107.083 -0.067)" fill="#c5c5c5"/>
        <path id="Path_39" data-name="Path 39" d="M389.829,25.411a.408.408,0,0,1-.059.216.4.4,0,0,1-.207.158,1.922,1.922,0,0,1-.373.1,3.5,3.5,0,0,1-.579.04,3.4,3.4,0,0,1-.551-.04,1.69,1.69,0,0,1-.373-.1.4.4,0,0,1-.2-.158.408.408,0,0,1-.059-.216V2.483h-.04l-10,23.065a.5.5,0,0,1-.118.148.671.671,0,0,1-.216.118,1.915,1.915,0,0,1-.324.078,2.912,2.912,0,0,1-.443.03,3.271,3.271,0,0,1-.471-.03,1.637,1.637,0,0,1-.324-.078.691.691,0,0,1-.207-.118.293.293,0,0,1-.1-.148L365.683,2.483h-.02V25.411a.408.408,0,0,1-.059.216.4.4,0,0,1-.206.158,1.931,1.931,0,0,1-.374.1,3.637,3.637,0,0,1-.6.04,3.344,3.344,0,0,1-.56-.04,1.683,1.683,0,0,1-.363-.1.352.352,0,0,1-.187-.158.481.481,0,0,1-.049-.216V1.618a1.117,1.117,0,0,1,.374-.972,1.261,1.261,0,0,1,.727-.265h1.3a3.1,3.1,0,0,1,.864.108,2.11,2.11,0,0,1,.659.315,1.956,1.956,0,0,1,.482.5,4.007,4.007,0,0,1,.353.668l8.389,20.2h.1l8.743-20.119a4.249,4.249,0,0,1,.422-.8,2.454,2.454,0,0,1,.471-.52,1.472,1.472,0,0,1,.531-.275,2.324,2.324,0,0,1,.619-.078h1.434A1.29,1.29,0,0,1,389.1.44a.881.881,0,0,1,.353.206,1.2,1.2,0,0,1,.266.384,1.416,1.416,0,0,1,.108.589Z" transform="translate(-119.653 -0.125)" fill="#c5c5c5"/>
        <path id="Path_40" data-name="Path 40" d="M416.347,25.353a.408.408,0,0,1-.059.216.4.4,0,0,1-.2.158,1.692,1.692,0,0,1-.363.1,3.49,3.49,0,0,1-.579.04,3.538,3.538,0,0,1-.57-.04,1.69,1.69,0,0,1-.373-.1.4.4,0,0,1-.2-.158.408.408,0,0,1-.059-.216V.716A.372.372,0,0,1,414.018.5a.471.471,0,0,1,.217-.157,1.875,1.875,0,0,1,.373-.1,3.208,3.208,0,0,1,.54-.04,3.49,3.49,0,0,1,.579.04,1.654,1.654,0,0,1,.363.1.405.405,0,0,1,.2.157.412.412,0,0,1,.059.217Z" transform="translate(-136.347 -0.067)" fill="#c5c5c5"/>
      </g>
    </g>
    <g id="Group_8" data-name="Group 8" transform="translate(50 253.738)">
      <g id="Group_7" data-name="Group 7" transform="translate(0.001 -0.001)" clip-path="url(#clip-path-3)">
        <path id="Path_41" data-name="Path 41" d="M240.216,22a3.2,3.2,0,0,1-.02.377,1.73,1.73,0,0,1-.062.3,1.032,1.032,0,0,1-.113.245,1.644,1.644,0,0,1-.267.292,6.641,6.641,0,0,1-.852.585,10.683,10.683,0,0,1-1.652.8,14.753,14.753,0,0,1-2.288.679,13.359,13.359,0,0,1-2.851.282,12.256,12.256,0,0,1-4.534-.8,9.243,9.243,0,0,1-3.457-2.347,10.523,10.523,0,0,1-2.195-3.809,16.014,16.014,0,0,1-.77-5.166,16.25,16.25,0,0,1,.821-5.346,11.588,11.588,0,0,1,2.308-4.017,9.939,9.939,0,0,1,3.57-2.526,11.758,11.758,0,0,1,4.607-.877,12.644,12.644,0,0,1,2.308.208,14.868,14.868,0,0,1,2.061.528,10.392,10.392,0,0,1,1.693.736,5.857,5.857,0,0,1,1.025.669,2.4,2.4,0,0,1,.349.367.976.976,0,0,1,.113.255,1.91,1.91,0,0,1,.062.32,3.523,3.523,0,0,1,.02.406,3.02,3.02,0,0,1-.03.462,1.144,1.144,0,0,1-.1.339.589.589,0,0,1-.175.217.4.4,0,0,1-.245.076,1.593,1.593,0,0,1-.811-.386,12.731,12.731,0,0,0-1.375-.858,11.345,11.345,0,0,0-2.082-.858,9.854,9.854,0,0,0-2.933-.387,8.389,8.389,0,0,0-3.426.689,7.284,7.284,0,0,0-2.678,2.027,9.665,9.665,0,0,0-1.744,3.3,14.807,14.807,0,0,0-.626,4.507,14.827,14.827,0,0,0,.575,4.318,8.887,8.887,0,0,0,1.662,3.177,7.064,7.064,0,0,0,2.688,1.97,9.217,9.217,0,0,0,3.631.679,9.8,9.8,0,0,0,2.9-.386,12.235,12.235,0,0,0,2.123-.858,15.681,15.681,0,0,0,1.447-.858,1.784,1.784,0,0,1,.872-.387.406.406,0,0,1,.205.048.334.334,0,0,1,.133.17,1.4,1.4,0,0,1,.082.33,3.512,3.512,0,0,1,.031.509" transform="translate(-72.844 -0.222)" fill="#c5c5c5"/>
        <path id="Path_42" data-name="Path 42" d="M270.51,24.33a2.192,2.192,0,0,1-.041.453,1.151,1.151,0,0,1-.123.33.525.525,0,0,1-.205.207.6.6,0,0,1-.288.066h-11.51a1.387,1.387,0,0,1-.758-.255,1.03,1.03,0,0,1-.39-.934V1.363a.373.373,0,0,1,.061-.207.422.422,0,0,1,.205-.151,1.875,1.875,0,0,1,.39-.094,3.959,3.959,0,0,1,.6-.038,3.9,3.9,0,0,1,.6.038,1.869,1.869,0,0,1,.38.094.422.422,0,0,1,.205.151.368.368,0,0,1,.062.207v21.93h10.155a.605.605,0,0,1,.288.066.573.573,0,0,1,.205.188.922.922,0,0,1,.123.321,2.342,2.342,0,0,1,.041.462" transform="translate(-84.715 -0.287)" fill="#c5c5c5"/>
        <path id="Path_43" data-name="Path 43" d="M285.948,25.009a.369.369,0,0,1-.062.208.421.421,0,0,1-.2.15,1.871,1.871,0,0,1-.38.095,4,4,0,0,1-.6.038,4.059,4.059,0,0,1-.6-.038,1.868,1.868,0,0,1-.39-.095.421.421,0,0,1-.205-.15.373.373,0,0,1-.061-.208V1.363a.331.331,0,0,1,.072-.207.48.48,0,0,1,.225-.151,2.112,2.112,0,0,1,.39-.095A3.682,3.682,0,0,1,284.7.873a4,4,0,0,1,.6.038,1.871,1.871,0,0,1,.38.095.418.418,0,0,1,.2.151.366.366,0,0,1,.062.207Z" transform="translate(-93.361 -0.287)" fill="#c5c5c5"/>
        <path id="Path_44" data-name="Path 44" d="M317.8,24.311a1.272,1.272,0,0,1-.113.565,1.1,1.1,0,0,1-.288.368,1.037,1.037,0,0,1-.39.2,1.586,1.586,0,0,1-.4.056H316.1a2.774,2.774,0,0,1-.748-.095,2,2,0,0,1-.657-.329,3.542,3.542,0,0,1-.636-.632,10.959,10.959,0,0,1-.708-1.019L303.993,8.188q-.7-1.112-1.406-2.291t-1.343-2.291h-.021q.02,1.377.021,2.819v18.62a.374.374,0,0,1-.062.208.42.42,0,0,1-.205.15,1.865,1.865,0,0,1-.38.095,3.911,3.911,0,0,1-.606.038,3.956,3.956,0,0,1-.595-.038,1.848,1.848,0,0,1-.39-.095.413.413,0,0,1-.205-.15.369.369,0,0,1-.062-.208V2.211a1.032,1.032,0,0,1,.39-.934,1.39,1.39,0,0,1,.759-.254h1.026a3.749,3.749,0,0,1,.821.075,1.768,1.768,0,0,1,.595.255,2.331,2.331,0,0,1,.523.509,8.97,8.97,0,0,1,.565.839l7.16,11.672q.677,1.094,1.283,2.1t1.179,1.98q.575.971,1.139,1.913t1.118,1.9h.021q-.022-1.583-.021-3.3V1.476a.375.375,0,0,1,.061-.207.475.475,0,0,1,.205-.161,1.309,1.309,0,0,1,.38-.094,5.3,5.3,0,0,1,.606-.028,5.111,5.111,0,0,1,.574.028,1.33,1.33,0,0,1,.39.094.572.572,0,0,1,.216.161.337.337,0,0,1,.071.207Z" transform="translate(-98.399 -0.325)" fill="#c5c5c5"/>
        <path id="Path_45" data-name="Path 45" d="M341.23,25.009a.369.369,0,0,1-.062.208.422.422,0,0,1-.2.15,1.873,1.873,0,0,1-.38.095,4,4,0,0,1-.6.038,4.059,4.059,0,0,1-.6-.038,1.87,1.87,0,0,1-.39-.095.421.421,0,0,1-.205-.15.373.373,0,0,1-.061-.208V1.363a.331.331,0,0,1,.072-.207.479.479,0,0,1,.225-.151,2.114,2.114,0,0,1,.39-.095,3.682,3.682,0,0,1,.565-.038,4,4,0,0,1,.6.038,1.873,1.873,0,0,1,.38.095.419.419,0,0,1,.2.151.367.367,0,0,1,.062.207Z" transform="translate(-111.57 -0.287)" fill="#c5c5c5"/>
        <path id="Path_46" data-name="Path 46" d="M370.574,22a3.215,3.215,0,0,1-.02.377,1.73,1.73,0,0,1-.062.3,1.031,1.031,0,0,1-.113.245,1.64,1.64,0,0,1-.267.292,6.644,6.644,0,0,1-.852.585,10.682,10.682,0,0,1-1.652.8,14.754,14.754,0,0,1-2.287.679,13.359,13.359,0,0,1-2.852.282,12.256,12.256,0,0,1-4.534-.8,9.243,9.243,0,0,1-3.457-2.347,10.523,10.523,0,0,1-2.195-3.809,16.012,16.012,0,0,1-.77-5.166,16.25,16.25,0,0,1,.821-5.346,11.588,11.588,0,0,1,2.308-4.017,9.938,9.938,0,0,1,3.57-2.526,11.757,11.757,0,0,1,4.607-.877,12.644,12.644,0,0,1,2.308.208,14.868,14.868,0,0,1,2.061.528,10.391,10.391,0,0,1,1.693.736,5.858,5.858,0,0,1,1.025.669,2.4,2.4,0,0,1,.349.367.978.978,0,0,1,.113.255,1.913,1.913,0,0,1,.062.32,3.53,3.53,0,0,1,.02.406,3.012,3.012,0,0,1-.03.462,1.144,1.144,0,0,1-.1.339.588.588,0,0,1-.175.217.4.4,0,0,1-.245.076,1.594,1.594,0,0,1-.811-.386,12.737,12.737,0,0,0-1.375-.858,11.347,11.347,0,0,0-2.082-.858,9.854,9.854,0,0,0-2.933-.387,8.388,8.388,0,0,0-3.426.689,7.284,7.284,0,0,0-2.678,2.027,9.665,9.665,0,0,0-1.744,3.3,14.805,14.805,0,0,0-.626,4.507,14.827,14.827,0,0,0,.575,4.318,8.888,8.888,0,0,0,1.662,3.177,7.064,7.064,0,0,0,2.688,1.97,9.217,9.217,0,0,0,3.631.679,9.8,9.8,0,0,0,2.9-.386,12.236,12.236,0,0,0,2.123-.858,15.681,15.681,0,0,0,1.447-.858,1.784,1.784,0,0,1,.872-.387.406.406,0,0,1,.205.048.334.334,0,0,1,.133.17,1.4,1.4,0,0,1,.082.33,3.515,3.515,0,0,1,.031.509" transform="translate(-115.782 -0.222)" fill="#c5c5c5"/>
        <path id="Path_47" data-name="Path 47" d="M18.684,12.514a18.055,18.055,0,0,1-.805,5.649,10.691,10.691,0,0,1-2.377,4.1,10.026,10.026,0,0,1-3.88,2.5A16.066,16.066,0,0,1,6.11,25.6H1.1a1.258,1.258,0,0,1-.727-.266A1.116,1.116,0,0,1,0,24.361V1.413A1.117,1.117,0,0,1,.373.441,1.261,1.261,0,0,1,1.1.176H6.444a14.893,14.893,0,0,1,5.472.884,10.074,10.074,0,0,1,3.733,2.5,10.643,10.643,0,0,1,2.269,3.89,15.745,15.745,0,0,1,.767,5.059m-2.574.118a14.471,14.471,0,0,0-.56-4.116,8.872,8.872,0,0,0-1.729-3.271,7.992,7.992,0,0,0-2.957-2.151,11.526,11.526,0,0,0-4.558-.776H2.4V23.458H6.326a13.2,13.2,0,0,0,4.391-.639,7.169,7.169,0,0,0,3-1.974,8.615,8.615,0,0,0,1.8-3.369,17.251,17.251,0,0,0,.6-4.843" transform="translate(0 -0.058)" fill="#c5c5c5"/>
        <path id="Path_48" data-name="Path 48" d="M50.051,24.538a2.323,2.323,0,0,1-.04.452.975.975,0,0,1-.127.334.611.611,0,0,1-.207.206.5.5,0,0,1-.255.069H37.516a1.26,1.26,0,0,1-.727-.265,1.118,1.118,0,0,1-.374-.973V1.414A1.118,1.118,0,0,1,36.79.441a1.26,1.26,0,0,1,.727-.265H49.246A.5.5,0,0,1,49.5.244a.546.546,0,0,1,.2.207,1.154,1.154,0,0,1,.117.344,2.54,2.54,0,0,1,.04.481,2.271,2.271,0,0,1-.04.452,1.018,1.018,0,0,1-.117.325.568.568,0,0,1-.2.2.5.5,0,0,1-.256.068H38.813v8.939h9a.532.532,0,0,1,.275.069.562.562,0,0,1,.2.2,1.024,1.024,0,0,1,.118.334,2.6,2.6,0,0,1,.04.482,2.173,2.173,0,0,1-.04.442.9.9,0,0,1-.118.3.511.511,0,0,1-.2.177.613.613,0,0,1-.275.058h-9V23.458h10.61a.5.5,0,0,1,.255.068.652.652,0,0,1,.207.2.878.878,0,0,1,.127.334,2.605,2.605,0,0,1,.04.482" transform="translate(-11.995 -0.058)" fill="#c5c5c5"/>
        <path id="Path_49" data-name="Path 49" d="M83.994,24.42a1.418,1.418,0,0,1-.108.589,1.133,1.133,0,0,1-.275.383.957.957,0,0,1-.374.207,1.414,1.414,0,0,1-.383.059h-.492a2.457,2.457,0,0,1-.717-.1,1.854,1.854,0,0,1-.628-.343,3.568,3.568,0,0,1-.61-.659,11.432,11.432,0,0,1-.677-1.061L70.772,7.622Q70.1,6.463,69.426,5.235T68.139,2.848h-.019q.019,1.434.019,2.937v19.4a.416.416,0,0,1-.058.216.411.411,0,0,1-.2.157,1.673,1.673,0,0,1-.363.1,4.265,4.265,0,0,1-1.149,0,1.646,1.646,0,0,1-.374-.1.405.405,0,0,1-.2-.157.416.416,0,0,1-.059-.216V1.394a1.117,1.117,0,0,1,.374-.972,1.256,1.256,0,0,1,.727-.266h.982a3.278,3.278,0,0,1,.786.079A1.634,1.634,0,0,1,69.18.5a2.344,2.344,0,0,1,.5.53,9.3,9.3,0,0,1,.541.874l6.856,12.162q.649,1.139,1.229,2.19t1.129,2.063q.55,1.012,1.09,1.994T81.6,22.3h.019Q81.6,20.648,81.6,18.86V.627a.41.41,0,0,1,.059-.216.462.462,0,0,1,.2-.167,1.154,1.154,0,0,1,.363-.1A4.537,4.537,0,0,1,82.8.117a4.4,4.4,0,0,1,.55.03,1.178,1.178,0,0,1,.374.1.541.541,0,0,1,.206.167.366.366,0,0,1,.069.216Z" transform="translate(-21.654 -0.038)" fill="#c5c5c5"/>
        <path id="Path_50" data-name="Path 50" d="M117.777,1.275a2.323,2.323,0,0,1-.04.452.988.988,0,0,1-.117.324.562.562,0,0,1-.2.2.5.5,0,0,1-.256.069h-7.584V25.206a.41.41,0,0,1-.059.216.4.4,0,0,1-.2.157,1.649,1.649,0,0,1-.373.1,4.2,4.2,0,0,1-1.14,0,1.658,1.658,0,0,1-.373-.1.4.4,0,0,1-.2-.157.41.41,0,0,1-.059-.216V2.317H99.6a.479.479,0,0,1-.265-.069.591.591,0,0,1-.186-.2.973.973,0,0,1-.118-.324,2.324,2.324,0,0,1-.04-.452,2.606,2.606,0,0,1,.04-.482,1.089,1.089,0,0,1,.118-.343.569.569,0,0,1,.186-.207A.485.485,0,0,1,99.6.175h17.565a.5.5,0,0,1,.256.069.542.542,0,0,1,.2.207,1.107,1.107,0,0,1,.117.343,2.6,2.6,0,0,1,.04.482" transform="translate(-32.607 -0.057)" fill="#c5c5c5"/>
        <path id="Path_51" data-name="Path 51" d="M149.659,24.736a1.186,1.186,0,0,1,.109.482.366.366,0,0,1-.138.285.79.79,0,0,1-.392.127,6.411,6.411,0,0,1-.678.03,5.845,5.845,0,0,1-.659-.03,1.424,1.424,0,0,1-.383-.089.466.466,0,0,1-.207-.157,1.308,1.308,0,0,1-.127-.236l-2.437-6.778H133.588l-2.338,6.739a.653.653,0,0,1-.118.235.625.625,0,0,1-.216.167,1.347,1.347,0,0,1-.383.108,3.948,3.948,0,0,1-.619.04,4.888,4.888,0,0,1-.687-.04.869.869,0,0,1-.4-.137.353.353,0,0,1-.137-.275,1.176,1.176,0,0,1,.108-.471l8.9-24.185a.672.672,0,0,1,.176-.266.808.808,0,0,1,.3-.167,2.485,2.485,0,0,1,.452-.089,5.53,5.53,0,0,1,.6-.03,5.741,5.741,0,0,1,.619.03,2.465,2.465,0,0,1,.451.089.72.72,0,0,1,.3.167.741.741,0,0,1,.167.266ZM139.109,2.692h-.02l-4.794,13.675h9.725Z" transform="translate(-42.386 0)" fill="#c5c5c5"/>
        <path id="Path_52" data-name="Path 52" d="M179.6,24.441a2.443,2.443,0,0,1-.04.471,1.257,1.257,0,0,1-.117.344.53.53,0,0,1-.2.216.54.54,0,0,1-.275.069H167.945a1.258,1.258,0,0,1-.727-.266,1.117,1.117,0,0,1-.374-.972V.51A.416.416,0,0,1,166.9.294a.4.4,0,0,1,.2-.157,1.656,1.656,0,0,1,.374-.1,4.265,4.265,0,0,1,1.149,0,1.662,1.662,0,0,1,.363.1.4.4,0,0,1,.2.157.416.416,0,0,1,.059.216V23.36h9.725a.54.54,0,0,1,.275.068.568.568,0,0,1,.2.2.994.994,0,0,1,.117.334,2.606,2.606,0,0,1,.04.482" transform="translate(-54.955 0)" fill="#c5c5c5"/>
      </g>
    </g>
    <path id="Path_218" data-name="Path 218" d="M12.44-5.76a26.549,26.549,0,0,0,3.88-3.3c.46-.46,1.04-.52,1.04-.94,0-.48-1.36-1.56-1.94-1.56-.3,0-.44.36-1.02.52C13.22-10.7,10.68-10,8.96-9.5c.08-1.3.16-2.42.24-3,.08-.6.48-.84.48-1.3,0-.44-1.3-1.2-2.02-1.2a4.812,4.812,0,0,0-1.48.26l.02.38c.98.14,1.58.26,1.62.76.06.8,0,2.8-.04,4.44A33.692,33.692,0,0,1,2.96-7.92c-.5,0-.82-.4-1.22-1l-.32.12a2.253,2.253,0,0,0,.12,1.06A3.163,3.163,0,0,0,3.36-6.36c.56,0,.58-.28,1.3-.6.84-.36,2.14-.82,3.1-1.14-.04,1.32-.1,3.3-.06,4.68C7.74-.78,8.94-.6,12.08-.6a24.626,24.626,0,0,0,3.98-.34c.54-.08.92-.26.92-.62,0-.52-.8-.76-1.34-.76a19.878,19.878,0,0,1-4.16.44c-2.44,0-2.64-.16-2.68-1.8-.02-1.18.04-3.06.12-4.82,1.8-.6,4.86-1.58,5.96-1.76.28-.04.36.1.22.34a20.627,20.627,0,0,1-3,3.82Zm12.68-7.48a13.467,13.467,0,0,1,3.48,3.02c.52.62.78.84,1.1.84a.683.683,0,0,0,.7-.74c0-1.54-2.76-2.9-5.04-3.54ZM27.1-2.22c-.64,0-1.28-.64-1.88-1.3l-.32.2a4.28,4.28,0,0,0,.42,1.3A3.9,3.9,0,0,0,27.7-.48c.44,0,.66-.5,1.06-.74,4.38-2.8,8.1-6,10.5-10.26l-.46-.3C35.96-7.52,28.64-2.22,27.1-2.22ZM56.3-11.7A17.3,17.3,0,0,1,53.52-7a27.6,27.6,0,0,0-4.56-2.2,28.508,28.508,0,0,0,2.02-2.4,1.488,1.488,0,0,0,.74.34,6.171,6.171,0,0,0,1.1-.24c.7-.16,2.56-.46,3.26-.52C56.3-12.02,56.4-11.96,56.3-11.7Zm-4.78-.66c.2-.3.4-.62.58-.92.28-.52.58-.7.58-1.04,0-.38-1-.96-1.8-1.14a4.223,4.223,0,0,0-1.2-.08l-.1.38c.7.3,1.22.6,1.22.96,0,1.16-3.4,5.74-6.48,7.96l.32.42a18.683,18.683,0,0,0,3.94-3,16.951,16.951,0,0,1,4.22,2.7A27.93,27.93,0,0,1,44.44.46l.28.46a24.409,24.409,0,0,0,8.98-6.2c1.52,1.56,1.88,2.44,2.44,2.42a.628.628,0,0,0,.66-.72c0-.76-1.02-1.78-2.24-2.7a30.533,30.533,0,0,0,3.04-4.6c.24-.5.92-.64.92-1.02,0-.52-1.2-1.38-1.7-1.38-.34,0-.46.36-1.02.46a33.638,33.638,0,0,1-4.08.46Zm13.3,4.02A3.549,3.549,0,0,0,65-7.22c.28.68,1.22,1.66,1.78,1.66.58,0,.8-.3,1.94-.42,1.5-.18,7.12-.48,8.38-.48,1.22,0,1.92.04,2.62.04.68,0,.88-.22.88-.58,0-.54-.9-.88-1.66-.88-.52,0-1.08.12-2.42.22-.92.04-7.92.5-9.7.5-.84,0-1.16-.62-1.6-1.3ZM98.74-2.98c.28,0,.48-.1.54-.32-.66-.6-1.66-1.36-1.66-1.36l-.9,1.08h-2.2v-2.5h4c.28,0,.46-.1.52-.32-.6-.54-1.52-1.24-1.52-1.24l-.82.98H95.14a23.993,23.993,0,0,0,1.92-2.4c.44.02.68-.12.76-.34l-1.92-.62a31.1,31.1,0,0,1-1.26,3.36H89.02l.16.58h4.04v2.5H88.76l.16.6h4.3V1.2h.2a1.334,1.334,0,0,0,1.1-.4V-2.98ZM90.32-9.82A5.907,5.907,0,0,1,91.54-7.1c1.18,1,2.4-1.42-.98-2.86ZM100.24-14H94.58v-1.94c.48-.06.68-.26.72-.54l-2.06-.22V-14H84.86l.16.58h8.22v2.5h-5.4L86.4-11.6V1.58h.22c.56,0,1.08-.34,1.08-.5V-10.34h12.64V-.5c0,.3-.1.46-.48.46-.48,0-2.68-.18-2.68-.18V.1a4.427,4.427,0,0,1,1.84.52,1.29,1.29,0,0,1,.46.94c1.94-.2,2.16-.86,2.16-1.9V-10.1a1.646,1.646,0,0,0,.88-.38l-1.68-1.28-.7.84H94.58v-2.5h8.06c.28,0,.46-.1.5-.32-.7-.64-1.86-1.52-1.86-1.52Zm10.28.02c.66,1.04,1.22,1.62,2.24,1.62a41.267,41.267,0,0,0,6.12-.76c.64-.12.86-.3.86-.6,0-.48-.66-.78-1.52-.78-.42,0-.68.32-1.86.58a17.858,17.858,0,0,1-3.6.46,3.079,3.079,0,0,1-1.94-.78Zm-3.1,4.1a3.092,3.092,0,0,0,.14.98c.22.56,1.12,1.36,1.58,1.34a7.951,7.951,0,0,0,1.6-.42c.6-.16,2.46-.46,4.12-.66a1.175,1.175,0,0,1,.34.8c0,1.08-1.12,5.64-5.94,8.78l.4.42a13.224,13.224,0,0,0,6.78-8.08c.22-.6.68-.68.68-1.08,0-.32-.46-.68-1-.98,1.84-.18,3.52-.22,4.42-.22.98,0,1.74.12,2.06.12.44,0,.56-.18.56-.5,0-.58-1.14-1.02-1.96-1.02-.3,0-.62.22-2.02.36-3.68.32-8.76,1.08-10.12,1.08-.52,0-.92-.52-1.3-1.06Zm12.86-4.4a9.021,9.021,0,0,1,1.76,1.76c.4.52.58.96.88.98a.5.5,0,0,0,.5-.5,1.573,1.573,0,0,0-.66-1.22,7.755,7.755,0,0,0-2.18-1.36Zm1.54-1.6a8.944,8.944,0,0,1,1.76,1.64c.42.5.58.96.92.96.32.02.48-.18.48-.5a1.583,1.583,0,0,0-.72-1.24,8.5,8.5,0,0,0-2.18-1.18Zm8.1,2.64a13.466,13.466,0,0,1,3.48,3.02c.52.62.78.84,1.1.84a.683.683,0,0,0,.7-.74c0-1.54-2.76-2.9-5.04-3.54ZM131.9-2.22c-.64,0-1.28-.64-1.88-1.3l-.32.2a4.28,4.28,0,0,0,.42,1.3A3.905,3.905,0,0,0,132.5-.48c.44,0,.66-.5,1.06-.74,4.38-2.8,8.1-6,10.5-10.26l-.46-.3C140.76-7.52,133.44-2.22,131.9-2.22Zm29.2-9.48A17.3,17.3,0,0,1,158.32-7a27.6,27.6,0,0,0-4.56-2.2,28.51,28.51,0,0,0,2.02-2.4,1.488,1.488,0,0,0,.74.34,6.171,6.171,0,0,0,1.1-.24c.7-.16,2.56-.46,3.26-.52C161.1-12.02,161.2-11.96,161.1-11.7Zm-4.78-.66c.2-.3.4-.62.58-.92.28-.52.58-.7.58-1.04,0-.38-1-.96-1.8-1.14a4.223,4.223,0,0,0-1.2-.08l-.1.38c.7.3,1.22.6,1.22.96,0,1.16-3.4,5.74-6.48,7.96l.32.42a18.683,18.683,0,0,0,3.94-3,16.951,16.951,0,0,1,4.22,2.7A27.929,27.929,0,0,1,149.24.46l.28.46a24.409,24.409,0,0,0,8.98-6.2c1.52,1.56,1.88,2.44,2.44,2.42a.628.628,0,0,0,.66-.72c0-.76-1.02-1.78-2.24-2.7a30.533,30.533,0,0,0,3.04-4.6c.24-.5.92-.64.92-1.02,0-.52-1.2-1.38-1.7-1.38-.34,0-.46.36-1.02.46a33.638,33.638,0,0,1-4.08.46Zm19.86-.62c1.02.1,1.56.28,1.58.78.12,1.92,0,7.3-.1,8.44-.06.8-.28.9-.28,1.28s.8,1.34,1.24,1.34c.4,0,.66-.56,1.12-.84a23.409,23.409,0,0,0,7.38-6.34l-.42-.34a23.337,23.337,0,0,1-7.54,5.4c-.2.06-.32.02-.32-.26,0-1.5.16-6.94.26-7.86.06-.62.46-.62.46-1.06,0-.48-1.3-1.2-2.1-1.2a3.629,3.629,0,0,0-1.32.24Zm-2.46,3.12c0,2.42-2.02,6.58-5.2,9.06l.34.42a13.328,13.328,0,0,0,6.16-8.54c.1-.5.48-.64.48-1.06,0-.6-1.42-1.36-2.12-1.42a3.353,3.353,0,0,0-1.16.14v.42C172.7-10.72,173.72-10.48,173.72-9.86Zm22.44-5.18c.7.3,1.22.62,1.22.96,0,1.16-2.94,5.24-6.06,7.48l.3.42a18.484,18.484,0,0,0,5.92-5.2,1.643,1.643,0,0,0,.86.48,6.642,6.642,0,0,0,1.12-.26c.72-.14,2.76-.46,3.2-.46.18,0,.26.06.16.3-1.56,3.96-6.26,9.12-11.4,11.8l.3.44a25.1,25.1,0,0,0,12.44-11.44c.28-.52.94-.64.94-1.04,0-.52-1.26-1.34-1.74-1.34-.34,0-.48.34-1.02.46a38.553,38.553,0,0,1-3.98.38,2.55,2.55,0,0,1-.38-.02c.24-.34.46-.72.68-1.08.3-.5.58-.7.58-1.04,0-.36-1.06-.96-1.84-1.14a6.467,6.467,0,0,0-1.2-.08ZM223.82-8.1c.06-1.24.14-3.26.18-4.44.04-.64.38-.76.38-1.18s-1.32-1.2-2.08-1.2a3.9,3.9,0,0,0-1.36.38l.02.4a4.017,4.017,0,0,1,1.2.26.894.894,0,0,1,.44.82,45.67,45.67,0,0,1-.06,4.9c-.24,4.1-2.12,6.78-6.02,8.84l.26.44C221.3-.58,223.6-3.46,223.82-8.1Zm-8.3-4.96c.34.14.36.3.4.78.08.74.12,2.7.12,3.62-.04,1.64-.2,2.42-.2,2.96,0,.74.34,1.36.78,1.36.36,0,.64-.24.64-1,0-.82-.04-5.22.02-6.08.06-.74.3-.94.3-1.32,0-.5-1.22-1.22-1.96-1.22a4.377,4.377,0,0,0-1.14.22v.4A4.334,4.334,0,0,1,215.52-13.06Zm30.06,1.78c0-.52-1.1-.82-1.84-.82-.48,0-.6.28-1.76.52a33.12,33.12,0,0,1-4.56.56c-.6,0-1.1-.34-1.86-1.1l-.36.2a5.107,5.107,0,0,0,.5,1.14,2.252,2.252,0,0,0,1.5.96c.72,0,4.44-.46,7.72-.84C245.36-10.72,245.58-10.96,245.58-11.28Zm-13.12,7.7c.22.44,1.16,1.4,1.76,1.4a8.745,8.745,0,0,0,1.56-.46,40.495,40.495,0,0,1,8.1-.86,26.554,26.554,0,0,1,4.44.54c.38,0,.6-.18.6-.52,0-.7-1.58-1.46-2.4-1.46a11.59,11.59,0,0,1-1.36.24c-4,.14-10.12.92-11,.92a2.05,2.05,0,0,1-1.56-1.04l-.4.14A3.046,3.046,0,0,0,232.46-3.58Zm27.2-4.6c.48.98.48,1.8,1.08,1.8a.625.625,0,0,0,.66-.68,2.592,2.592,0,0,0-1.06-1.92,6.811,6.811,0,0,0-1.48-1.06l-.24.22A8.746,8.746,0,0,1,259.66-8.18Zm6.22.64c.22-.46.56-.62.56-.94,0-.5-.96-1.38-1.7-1.5a3.688,3.688,0,0,0-.94,0l-.1.3c.78.32,1.06.56,1.06.88,0,1.52-3.02,6.68-8.32,9.44l.24.36A16.425,16.425,0,0,0,265.88-7.54Zm-9.72.46c.56,1.08.58,1.86,1.22,1.86.42,0,.62-.3.62-.72a2.942,2.942,0,0,0-1.26-2.04A6.667,6.667,0,0,0,255.34-9l-.24.22A9.163,9.163,0,0,1,256.16-7.08Zm23.6-7.96c.7.3,1.22.62,1.22.96,0,1.16-2.94,5.24-6.06,7.48l.3.42a18.484,18.484,0,0,0,5.92-5.2,1.642,1.642,0,0,0,.86.48,6.642,6.642,0,0,0,1.12-.26c.72-.14,2.76-.46,3.2-.46.18,0,.26.06.16.3-1.56,3.96-6.26,9.12-11.4,11.8l.3.44a25.1,25.1,0,0,0,12.44-11.44c.28-.52.94-.64.94-1.04,0-.52-1.26-1.34-1.74-1.34-.34,0-.48.34-1.02.46a38.553,38.553,0,0,1-3.98.38,2.55,2.55,0,0,1-.38-.02c.24-.34.46-.72.68-1.08.3-.5.58-.7.58-1.04,0-.36-1.06-.96-1.84-1.14a6.467,6.467,0,0,0-1.2-.08Z" transform="translate(50 338)" fill="#fff"/>
  </g>
</svg>
