<svg xmlns="http://www.w3.org/2000/svg" width="23.226" height="13.029" viewBox="0 0 23.226 13.029">
  <g id="ic_back" opacity="0.8">
    <path id="Path_11205" data-name="Path 11205" d="M1.172,0A.721.721,0,0,0,.989.063a1.27,1.27,0,0,0-.4.312,2.059,2.059,0,0,0-.4.744A4.432,4.432,0,0,0,0,2.478,4.523,4.523,0,0,0,.183,3.847a2.19,2.19,0,0,0,.4.764,1.364,1.364,0,0,0,.4.332.754.754,0,0,0,.183.072H20.392V0Z" transform="translate(0 3.87)" fill="#ccc"/>
    <path id="Path_11206" data-name="Path 11206" d="M8.965.468A6.612,6.612,0,1,1,6.548,0q.311,0,.619.029t.612.088q.3.059.6.147t.585.2" transform="translate(10.19)" fill="#fff"/>
  </g>
</svg>
