<svg id="Component_9_4" data-name="Component 9 – 4" xmlns="http://www.w3.org/2000/svg" width="452.826" height="250.177" viewBox="0 0 452.826 250.177">
  <g id="Group_835" data-name="Group 835">
    <g id="Group_1809" data-name="Group 1809">
      <path id="Path_4759" data-name="Path 4759" d="M440.05,147.211,392.1,88.607l-4.914-6-16.35-9.439-4.088-2.357-32.7-18.881L268.628,14.155,264.539,11.8,248.191,2.356,244.1,0l-4.061,2.356L223.8,11.8l-56.85,33.041-61.315-35.4-4.084-2.355L97.481,9.434,36.548,44.848l-4.063,2.363L4.06,63.732,0,66.086l4.085,2.359,98.1,56.641,4.088,2.363,28.634,16.524,122.9,70.961c-13.986,10.476-12.67,25.617,4,35.242l28.43-16.525,16.348,9.445,4.088,2.357,4.06-2.357,16.244-9.445,12.184-7.076,4.057-2.359,52.815-30.7,12.185-7.071L428.459,177l4.063-2.357,16.245-9.445,4.06-2.362ZM391.471,89.785l46.7,57.107-2.179.751-46.725-57.1ZM362.683,73.167l-16.24,9.44-38.58,22.42L283.341,90.869l54.824-31.862ZM191.815,120.384l8.12-4.721L244.9,141.619l4.087,2.355,16.352,9.45-8.121,4.715ZM256.2,158.726l-2.031,1.181-65.4-37.76,2.035-1.179ZM121.367,95l2.045,1.177,5.11,2.95-2.028,1.183-23.505-13.57,2.031-1.181,2.041,1.181,2.045,1.176Zm-11.242-7.672,14.251-1.182-1.99,8.262Zm-8.178-4.721L88.92,75.088l.167-.616,1.988-8.259.248-1.11-1.886.168L75.182,66.448l-1.078.082-.769-.443L49.918,52.565l32-18.59,52.032,30.039ZM86.624,74.94l2.044,1.175,11.241,6.491L97.88,83.79,71.314,68.445l2.028-1.18,1.021.591ZM75.378,67.265l14.256-1.179-2,8.263Zm55.185,31.862-6.88-3.967.145-.63,1.993-8.26.25-1.108-1.889.16L109.927,86.5l-1.085.088-2.805-1.626L146.646,61.37l32.7,18.875-40.609,23.6Zm90.807,24.2,54.843-31.869,2.041,1.174-54.842,31.876Zm27.593,15.929L224.437,125.1l54.841-31.872L303.8,107.387Zm88.177-80.838L282.317,90.279l-2.043-1.185L335.1,57.236ZM268.633,15.336l63.374,36.593L329.98,53.1,266.6,16.515Zm-40.748-1.181L244.233,23.6l16.243-9.444,4.09,2.36,65.419,37.771,4.09,2.36L279.25,88.508l-1.038.6-2.006,1.17-1.017.59-54.84,31.872L204,113.3l-4.089-2.362L167.189,92.046l16.242-9.44,4.084-2.369-4.092-2.361L150.726,59Zm-30.036,96.771-2.028,1.18-30.656-17.7,2.029-1.182ZM162.884,47.2l-16.246,9.442-4.077,2.37-7.616,4.424L82.914,33.394,110.851,17.16ZM101.568,11.8l8.262,4.769L48.9,51.976l-8.261-4.765Zm5.7,111.522L134.657,107.4c.682.424,1.3.85,1.9,1.267L109.316,124.5Zm3.066,1.767L137.491,109.3c12.4,9.265,12.476,22.3.179,31.565Zm151.489,123.9c-15.145-9.306-16.134-23.55-3.01-33.47l30.4,17.552Zm28.4-16.509-30.464-17.592c.616-.427,1.205-.866,1.858-1.273l30.635,17.685Zm36.663-1.18-16.348-9.438-16.246,9.438-32.7-18.88L138.67,141.447c12.848-9.611,12.774-23.112.089-32.879l4.063-2.361,20.3-11.8,32.721,18.9-8.121,4.719-4.062,2.36,4.091,2.364,65.4,37.757,4.086,2.359L261.3,160.5l8.126-4.723,32.7,18.88-24.366,14.163,4.089,2.361,36.787,21.236,20.44,11.8Zm-22.744-59-2.028,1.187-30.636-17.691c.717-.395,1.464-.755,2.2-1.083Zm-29.382-18.139c17.1-7.645,41.68-7.1,57.813,1.619l-27.412,15.932Zm68.37,67.7-19.417-11.21,51.8-30.1,19.414,11.211Zm69.073-36.595-2.038-1.18,14.211-8.258L426.422,177Zm20.184-34.215-20.306,11.794,16.347,9.443-4.06,2.364-16.242,9.434-12.184,7.081-20.439-11.8L322.69,210.055l-36.784-21.237,24.368-14.163-4.089-2.36,28.446-16.529c-16.668-9.622-42.813-10.339-61.145-2.35l-4.087-2.36-16.35-9.437,54.839-31.87,4.065-2.362,38.575-22.423L366.881,94.4l16.245-9.439,4.294,5.255,47.946,58.606,6.113,7.472Z" fill="#d2c7b7"/>
      <path id="Path_4760" data-name="Path 4760" d="M149.671,49.273l38.914,22.461a6.766,6.766,0,0,0,6.114.008l13.642-7.927c1.669-.976,1.662-2.572-.019-3.544L169.408,37.8a6.784,6.784,0,0,0-6.117,0l-13.64,7.932c-1.671.965-1.66,2.567.021,3.54m1-2.95,13.642-7.929a4.485,4.485,0,0,1,4.076,0L207.3,60.861a1.246,1.246,0,0,1,.014,2.359l-13.642,7.927a4.5,4.5,0,0,1-4.074,0L150.687,48.68a1.245,1.245,0,0,1-.015-2.358" transform="translate(-55.586 -13.886)" fill="#d2c7b7"/>
      <path id="Path_4761" data-name="Path 4761" d="M564.217,307.725a1.258,1.258,0,0,0-.006,2.37l8.175,4.72a4.523,4.523,0,0,0,4.095-.008l20.306-11.8a1.251,1.251,0,0,0-.017-2.36l-8.172-4.721a4.588,4.588,0,0,0-4.076,0Zm23.364-11.208,8.176,4.716a.625.625,0,0,1,.006,1.181l-20.306,11.8a2.258,2.258,0,0,1-2.059.011l-8.174-4.719c-.557-.321-.557-.86.015-1.19l20.306-11.808a2.283,2.283,0,0,1,2.036.006" transform="translate(-211.018 -110.662)" fill="#d2c7b7"/>
    </g>
  </g>
</svg>
