<svg id="Group_51" data-name="Group 51" xmlns="http://www.w3.org/2000/svg" xmlns:xlink="http://www.w3.org/1999/xlink" width="14.871" height="23.415" viewBox="0 0 14.871 23.415">
  <defs>
    <clipPath id="clip-path">
      <rect id="Rectangle_92" data-name="Rectangle 92" width="14.871" height="23.415" fill="#fff"/>
    </clipPath>
  </defs>
  <g id="Group_50" data-name="Group 50" transform="translate(0 0)" clip-path="url(#clip-path)">
    <path id="Path_3318" data-name="Path 3318" d="M7.436,0C3.331,0-.037,3.8,0,7.9c.035,3.1,1.755,6.224,3.192,8.844a59.034,59.034,0,0,0,4.244,6.671,60.464,60.464,0,0,0,4.289-6.734c1.449-2.648,3.106-5.77,3.145-8.782C14.922,3.8,11.542,0,7.436,0m0,10.627a3.156,3.156,0,1,1,3.156-3.158,3.155,3.155,0,0,1-3.156,3.158" transform="translate(0 0)" fill="#fff"/>
  </g>
</svg>
