<svg xmlns="http://www.w3.org/2000/svg" width="18.451" height="18.451" viewBox="0 0 18.451 18.451">
  <path id="Path_2991" data-name="Path 2991" d="M2054.816,1582.165l.886-.886a1.523,1.523,0,0,0,.216-2.04l-2.7-2.7s-.88-.977-1.7-.155l-1.579,1.579s-.369.63-1.768-.511a24.989,24.989,0,0,1-2.49-2.265h0l-.038-.038-.038-.038h0a25.037,25.037,0,0,1-2.264-2.49c-1.141-1.4-.511-1.768-.511-1.768l1.579-1.579c.822-.822-.155-1.7-.155-1.7l-2.7-2.7a1.523,1.523,0,0,0-2.04.216l-.886.886a2.947,2.947,0,0,0-.853,1.682c-.013,1.792.152,5.728,4.879,10.467h0l.011.011.011.011h0c4.738,4.727,8.675,4.892,10.467,4.879A2.946,2.946,0,0,0,2054.816,1582.165Z" transform="translate(-2037.767 -1564.567)" fill="#fff"/>
</svg>
