<svg xmlns="http://www.w3.org/2000/svg" xmlns:xlink="http://www.w3.org/1999/xlink" width="45.057" height="119.95" viewBox="0 0 45.057 119.95">
  <defs>
    <clipPath id="clip-path">
      <rect id="Rectangle_49" data-name="Rectangle 49" width="45.057" height="119.95" transform="translate(0 13)" fill="none"/>
    </clipPath>
  </defs>
  <g id="Group_622" data-name="Group 622" transform="translate(0 -13)">
    <g id="Group_284" data-name="Group 284" clip-path="url(#clip-path)">
      <path id="Path_1748" data-name="Path 1748" d="M8.682,37.376C9.568,23.711,24.079.141,40,6.3,38.424,5.59,30.743.573,29.194.329c-8.4-1.91-15.94,4.853-20.808,10.975-12.377,14.454-10.978,39.282,3.7,46.717l8.8,5.117c-5.61-2.7-13.325-12.3-12.2-25.763" transform="translate(0 13)" fill="#d6322c"/>
      <path id="Path_1749" data-name="Path 1749" d="M31.615,10.618c10.146-5.859,18.4-1.154,18.433,10.509.063,22.359-17.352,46.3-18.269,47.562-.921-.2-18.418-3.986-18.482-26.344-.033-11.663,8.168-25.868,18.318-31.727" transform="translate(-4.991 9.96)" fill="#f45d57"/>
      <path id="Path_1750" data-name="Path 1750" d="M37.379,46.809c4.925-2.843,8.9-9.74,8.889-15.4s-4.021-7.942-8.947-5.1-8.909,9.738-8.892,15.4,4.025,7.945,8.95,5.1" transform="translate(-10.671 3.583)" fill="#fff"/>
      <path id="Path_1752" data-name="Path 1752" d="M35.789,183.437a3.123,3.123,0,1,1,3.123,3.123,3.12,3.12,0,0,1-3.123-3.123m0-12.5a3.123,3.123,0,1,1,3.123,3.123,3.12,3.12,0,0,1-3.123-3.123m0-12.493a3.123,3.123,0,1,1,3.123,3.123,3.12,3.12,0,0,1-3.123-3.123m0-12.5a3.123,3.123,0,1,1,3.123,3.123,3.12,3.12,0,0,1-3.123-3.123" transform="translate(-13.434 -53.61)" fill="#e34640"/>
    </g>
  </g>
</svg>
