<svg xmlns="http://www.w3.org/2000/svg" xmlns:xlink="http://www.w3.org/1999/xlink" width="25.886" height="83.564" viewBox="0 0 25.886 83.564">
  <defs>
    <clipPath id="clip-path">
      <rect id="Rectangle_49" data-name="Rectangle 49" width="25.886" height="83.564" fill="none"/>
    </clipPath>
  </defs>
  <g id="Group_284" data-name="Group 284" clip-path="url(#clip-path)">
    <path id="Path_1748" data-name="Path 1748" d="M4.988,21.473C5.5,13.623,13.834.081,22.981,3.618,22.075,3.212,17.662.329,16.772.189,11.945-.908,7.614,2.978,4.818,6.494c-7.111,8.3-6.307,22.569,2.124,26.84L12,36.275c-3.223-1.554-7.656-7.065-7.012-14.8" transform="translate(0 0)" fill="#d6322c"/>
    <path id="Path_1749" data-name="Path 1749" d="M23.821,9.546c5.829-3.366,10.571-.663,10.59,6.038.036,12.846-9.969,26.6-10.5,27.325-.529-.115-10.582-2.29-10.618-15.135-.019-6.7,4.693-14.862,10.524-18.228" transform="translate(-8.525 -5.192)" fill="#f45d57"/>
    <path id="Path_1750" data-name="Path 1750" d="M33.571,37.567a11.259,11.259,0,0,0,5.107-8.848c-.009-3.251-2.31-4.563-5.14-2.929a11.259,11.259,0,0,0-5.109,8.846c.009,3.252,2.313,4.564,5.142,2.931" transform="translate(-18.227 -16.085)" fill="#fff"/>
    <path id="Path_1751" data-name="Path 1751" d="M37.583,126.414a1.809,1.809,0,0,1-1.27-.528,1.623,1.623,0,0,1-.223-.272,1.693,1.693,0,0,1-.165-.309,1.84,1.84,0,0,1-.1-.337,1.77,1.77,0,0,1,.1-1.037,1.686,1.686,0,0,1,.165-.308,1.767,1.767,0,0,1,.223-.273,1.8,1.8,0,0,1,1.618-.488,1.566,1.566,0,0,1,.337.1,1.679,1.679,0,0,1,.309.165,1.623,1.623,0,0,1,.273.222,1.767,1.767,0,0,1,.223.273,1.708,1.708,0,0,1,.165.308,1.958,1.958,0,0,1,.1.338,1.724,1.724,0,0,1,0,.7,1.868,1.868,0,0,1-.1.337,1.715,1.715,0,0,1-.165.309,1.623,1.623,0,0,1-.223.272,1.605,1.605,0,0,1-.273.222,1.7,1.7,0,0,1-.309.165,1.836,1.836,0,0,1-.337.1,1.879,1.879,0,0,1-.348.036" transform="translate(-22.945 -78.748)" fill="#e34640"/>
    <path id="Path_1752" data-name="Path 1752" d="M35.789,166.157a1.794,1.794,0,1,1,1.794,1.794,1.793,1.793,0,0,1-1.794-1.794m0-7.181a1.794,1.794,0,1,1,1.794,1.794,1.793,1.793,0,0,1-1.794-1.794m0-7.177a1.794,1.794,0,1,1,1.794,1.794,1.793,1.793,0,0,1-1.794-1.794m0-7.181a1.794,1.794,0,1,1,1.794,1.794,1.792,1.792,0,0,1-1.794-1.794" transform="translate(-22.945 -91.568)" fill="#e34640"/>
    <path id="Path_1753" data-name="Path 1753" d="M37.583,226.436a1.916,1.916,0,0,1-.352-.036,1.846,1.846,0,0,1-.338-.1,1.711,1.711,0,0,1-.308-.165,1.781,1.781,0,0,1-.273-.223,1.8,1.8,0,0,1-.223-.273,1.7,1.7,0,0,1-.165-.309,1.7,1.7,0,0,1-.136-.685,1.78,1.78,0,0,1,.8-1.493,1.71,1.71,0,0,1,.308-.165,1.849,1.849,0,0,1,.338-.1,1.767,1.767,0,0,1,.7,0,1.836,1.836,0,0,1,.337.1,1.7,1.7,0,0,1,.309.165,1.79,1.79,0,0,1,.8,1.493,1.917,1.917,0,0,1-.036.348,1.951,1.951,0,0,1-.1.337,1.724,1.724,0,0,1-.165.309,1.8,1.8,0,0,1-.223.273,1.78,1.78,0,0,1-.273.223,1.7,1.7,0,0,1-.309.165,1.834,1.834,0,0,1-.337.1,1.91,1.91,0,0,1-.348.036" transform="translate(-22.945 -142.872)" fill="#e34640"/>
  </g>
</svg>
