<svg id="Group_622" data-name="Group 622" xmlns="http://www.w3.org/2000/svg" xmlns:xlink="http://www.w3.org/1999/xlink" width="31.219" height="100.778" viewBox="0 0 31.219 100.778">
  <defs>
    <clipPath id="clip-path">
      <rect id="Rectangle_49" data-name="Rectangle 49" width="31.219" height="100.778" fill="none"/>
    </clipPath>
  </defs>
  <g id="Group_284" data-name="Group 284" clip-path="url(#clip-path)">
    <path id="Path_1748" data-name="Path 1748" d="M6.015,25.9C6.629,16.429,16.684.1,27.715,4.364,26.623,3.873,21.3.4,20.228.228,14.406-1.1,9.183,3.591,5.81,7.832-2.765,17.847-1.8,35.05,8.372,40.2l6.1,3.545c-3.887-1.874-9.233-8.52-8.456-17.85" transform="translate(0 0)" fill="#d6322c"/>
    <path id="Path_1749" data-name="Path 1749" d="M25.989,9.844c7.03-4.059,12.749-.8,12.772,7.281C38.8,32.617,26.738,49.206,26.1,50.08c-.638-.138-12.761-2.762-12.806-18.253C13.274,23.746,18.956,13.9,25.989,9.844" transform="translate(-7.542 -4.593)" fill="#f45d57"/>
    <path id="Path_1750" data-name="Path 1750" d="M34.631,40.138a13.578,13.578,0,0,0,6.159-10.67c-.011-3.921-2.786-5.5-6.2-3.532A13.578,13.578,0,0,0,28.429,36.6c.011,3.922,2.789,5.5,6.2,3.534" transform="translate(-16.125 -14.23)" fill="#fff"/>
    <path id="Path_1751" data-name="Path 1751" d="M37.953,127.153a2.182,2.182,0,0,1-1.532-.637,1.958,1.958,0,0,1-.268-.328,2.041,2.041,0,0,1-.2-.373,2.219,2.219,0,0,1-.126-.406,2.135,2.135,0,0,1,.126-1.251,2.034,2.034,0,0,1,.2-.372,2.131,2.131,0,0,1,.268-.329,2.176,2.176,0,0,1,1.952-.589,1.888,1.888,0,0,1,.407.121,2.025,2.025,0,0,1,.372.2,1.956,1.956,0,0,1,.329.268,2.131,2.131,0,0,1,.268.329,2.06,2.06,0,0,1,.2.372,2.362,2.362,0,0,1,.126.407,2.079,2.079,0,0,1,0,.844,2.252,2.252,0,0,1-.126.406,2.068,2.068,0,0,1-.2.373,1.958,1.958,0,0,1-.268.328,1.936,1.936,0,0,1-.329.268,2.052,2.052,0,0,1-.372.2,2.214,2.214,0,0,1-.407.126,2.267,2.267,0,0,1-.42.044" transform="translate(-20.3 -69.667)" fill="#e34640"/>
    <path id="Path_1752" data-name="Path 1752" d="M35.789,170.964a2.164,2.164,0,1,1,2.164,2.164,2.162,2.162,0,0,1-2.164-2.164m0-8.66a2.164,2.164,0,1,1,2.164,2.164,2.162,2.162,0,0,1-2.164-2.164m0-8.656a2.164,2.164,0,1,1,2.164,2.164,2.162,2.162,0,0,1-2.164-2.164m0-8.66a2.164,2.164,0,1,1,2.164,2.164,2.162,2.162,0,0,1-2.164-2.164" transform="translate(-20.3 -81.009)" fill="#e34640"/>
    <path id="Path_1753" data-name="Path 1753" d="M37.953,227.176a2.311,2.311,0,0,1-.424-.043,2.226,2.226,0,0,1-.407-.126,2.062,2.062,0,0,1-.372-.2,2.147,2.147,0,0,1-.329-.268,2.173,2.173,0,0,1-.268-.329,2.052,2.052,0,0,1-.2-.372,2.049,2.049,0,0,1-.164-.827,2.147,2.147,0,0,1,.961-1.8,2.063,2.063,0,0,1,.372-.2,2.229,2.229,0,0,1,.407-.126,2.131,2.131,0,0,1,.844,0,2.214,2.214,0,0,1,.407.126,2.052,2.052,0,0,1,.372.2,2.158,2.158,0,0,1,.965,1.8,2.311,2.311,0,0,1-.043.42,2.353,2.353,0,0,1-.126.406,2.079,2.079,0,0,1-.2.372,2.173,2.173,0,0,1-.268.329,2.147,2.147,0,0,1-.329.268,2.051,2.051,0,0,1-.372.2,2.212,2.212,0,0,1-.407.126,2.3,2.3,0,0,1-.42.043" transform="translate(-20.3 -126.398)" fill="#e34640"/>
  </g>
</svg>
