<svg id="Component_15_3" data-name="Component 15 – 3" xmlns="http://www.w3.org/2000/svg" xmlns:xlink="http://www.w3.org/1999/xlink" width="85" height="94" viewBox="0 0 85 94">
  <defs>
    <clipPath id="clip-path">
      <rect id="Rectangle_828" data-name="Rectangle 828" width="85" height="94" transform="translate(0 0)" fill="none"/>
    </clipPath>
  </defs>
  <g id="Group_2584" data-name="Group 2584" transform="translate(0 -0.002)">
    <g id="Group_2584-2" data-name="Group 2584" transform="translate(0 0.002)" clip-path="url(#clip-path)">
      <path id="Path_9867" data-name="Path 9867" d="M77.987,18.358,49.513,1.885a14,14,0,0,0-14.026,0L7.013,18.358A14.06,14.06,0,0,0,0,30.53V63.476A14.067,14.067,0,0,0,5.126,74.339a8.968,8.968,0,0,0,1.2.881c.226.148.455.292.691.428L35.487,92.121c.209.121.421.234.634.343h0a6.3,6.3,0,0,0,1.138.52,14,14,0,0,0,9.93.209c-2.719.6-4.721-1.558-4.721-5.5V55.681c0-4.707,2.856-10.175,6.379-12.213L78.49,26.319c3.523-2.038,6.379.125,6.379,4.832V63.165a16.226,16.226,0,0,1-4.456,10.705A14.068,14.068,0,0,0,85,63.476V30.53a14.061,14.061,0,0,0-7.013-12.172M50.138,27.021a16.853,16.853,0,0,1-15.277,0c-4.219-2.441-4.219-6.4,0-8.838a16.853,16.853,0,0,1,15.277,0c4.219,2.441,4.219,6.4,0,8.838M10.431,46.538a10.463,10.463,0,0,1-4.722-8.2c0-3.017,2.114-4.24,4.722-2.732a10.463,10.463,0,0,1,4.722,8.2c0,3.017-2.114,4.241-4.722,2.732M15.153,67.8c0,3.017-2.114,4.241-4.722,2.732a10.463,10.463,0,0,1-4.722-8.2c0-3.017,2.114-4.241,4.722-2.732a10.463,10.463,0,0,1,4.722,8.2m17.016-8.688a10.463,10.463,0,0,1-4.722-8.2c0-3.017,2.114-4.241,4.722-2.732a10.463,10.463,0,0,1,4.722,8.2c0,3.017-2.114,4.241-4.722,2.732m4.722,21.265c0,3.017-2.114,4.241-4.722,2.732a10.463,10.463,0,0,1-4.722-8.2c0-3.018,2.114-4.241,4.722-2.732a10.463,10.463,0,0,1,4.722,8.2" transform="translate(0 -0.002)" fill="#fff"/>
      <path id="Path_9868" data-name="Path 9868" d="M593.609,297.9a16.852,16.852,0,0,0-15.277,0c-4.219,2.44-4.219,6.4,0,8.838a16.853,16.853,0,0,0,15.277,0c4.219-2.44,4.219-6.4,0-8.838" transform="translate(-543.471 -279.719)" fill="red"/>
      <path id="Path_9869" data-name="Path 9869" d="M108.312,633.753c-2.608-1.509-4.722-.285-4.722,2.732a10.464,10.464,0,0,0,4.722,8.2c2.608,1.509,4.722.285,4.722-2.732a10.463,10.463,0,0,0-4.722-8.2" transform="translate(-97.881 -598.145)"/>
      <path id="Path_9870" data-name="Path 9870" d="M502.761,861.488c-2.608-1.509-4.722-.286-4.722,2.731a10.463,10.463,0,0,0,4.722,8.2c2.608,1.509,4.722.286,4.722-2.732a10.462,10.462,0,0,0-4.722-8.2" transform="translate(-470.592 -813.304)"/>
      <path id="Path_9871" data-name="Path 9871" d="M108.312,1068.289c-2.608-1.509-4.722-.286-4.722,2.731a10.463,10.463,0,0,0,4.722,8.2c2.608,1.51,4.722.286,4.722-2.731a10.462,10.462,0,0,0-4.722-8.2" transform="translate(-97.881 -1008.685)"/>
      <path id="Path_9872" data-name="Path 9872" d="M502.761,1296.024c-2.608-1.509-4.722-.285-4.722,2.732a10.462,10.462,0,0,0,4.722,8.2c2.608,1.508,4.722.286,4.722-2.732a10.465,10.465,0,0,0-4.722-8.2" transform="translate(-470.592 -1223.843)"/>
      <path id="Path_9873" data-name="Path 9873" d="M813.006,468.265c0-4.707-2.855-6.87-6.379-4.832l-29.643,17.149c-3.523,2.038-6.378,7.506-6.378,12.213v32.014c0,3.94,2,6.1,4.72,5.5a5.818,5.818,0,0,0,1.658-.667l29.643-17.149a9.429,9.429,0,0,0,1.923-1.507,16.227,16.227,0,0,0,4.456-10.705Zm-10.331,4.522c2.608-1.509,4.722-.286,4.722,2.732a10.464,10.464,0,0,1-4.722,8.2c-2.608,1.509-4.722.286-4.722-2.732a10.462,10.462,0,0,1,4.722-8.2m0,24c2.608-1.509,4.722-.286,4.722,2.731a10.463,10.463,0,0,1-4.722,8.2c-2.608,1.509-4.722.286-4.722-2.732a10.462,10.462,0,0,1,4.722-8.2m-11.119-5.277c2.608-1.509,4.722-.286,4.722,2.732a10.463,10.463,0,0,1-4.722,8.2c-2.608,1.509-4.722.285-4.722-2.732a10.463,10.463,0,0,1,4.722-8.2m-10.619-6.143c2.608-1.509,4.722-.286,4.722,2.732a10.462,10.462,0,0,1-4.722,8.2c-2.608,1.509-4.722.286-4.722-2.732a10.462,10.462,0,0,1,4.722-8.2m0,24c2.608-1.509,4.722-.286,4.722,2.732a10.463,10.463,0,0,1-4.722,8.2c-2.608,1.509-4.722.285-4.722-2.732a10.462,10.462,0,0,1,4.722-8.2" transform="translate(-728.138 -437.116)" fill="#f0f0f0"/>
      <path id="Path_9874" data-name="Path 9874" d="M877.1,873.549a10.463,10.463,0,0,0,4.722-8.2c0-3.018-2.114-4.241-4.722-2.732a10.463,10.463,0,0,0-4.722,8.2c0,3.017,2.114,4.24,4.722,2.732" transform="translate(-824.303 -814.374)"/>
      <path id="Path_9875" data-name="Path 9875" d="M1069.8,984.8a10.463,10.463,0,0,0,4.723-8.2c0-3.017-2.115-4.241-4.723-2.732a10.46,10.46,0,0,0-4.722,8.2c0,3.018,2.113,4.24,4.722,2.732" transform="translate(-1006.377 -919.48)"/>
      <path id="Path_9876" data-name="Path 9876" d="M1271.553,645.813a10.464,10.464,0,0,0,4.721-8.2c0-3.017-2.114-4.24-4.721-2.732a10.462,10.462,0,0,0-4.723,8.2c0,3.017,2.114,4.241,4.723,2.732" transform="translate(-1197.014 -599.215)"/>
      <path id="Path_9877" data-name="Path 9877" d="M877.1,1308.083a10.463,10.463,0,0,0,4.722-8.2c0-3.017-2.114-4.24-4.722-2.732a10.464,10.464,0,0,0-4.722,8.2c0,3.017,2.114,4.242,4.722,2.732" transform="translate(-824.303 -1224.913)"/>
      <path id="Path_9878" data-name="Path 9878" d="M1271.553,1080.35a10.467,10.467,0,0,0,4.721-8.2c0-3.017-2.114-4.24-4.721-2.731a10.461,10.461,0,0,0-4.723,8.2c0,3.017,2.114,4.241,4.723,2.732" transform="translate(-1197.014 -1009.755)"/>
    </g>
  </g>
</svg>
