<svg xmlns="http://www.w3.org/2000/svg" xmlns:xlink="http://www.w3.org/1999/xlink" width="47" height="47" viewBox="0 0 47 47">
  <defs>
    <clipPath id="clip-path">
      <rect id="Rectangle_898" data-name="Rectangle 898" width="23.188" height="16.483" fill="#377474"/>
    </clipPath>
  </defs>
  <g id="Group_3186" data-name="Group 3186" transform="translate(-9 -9)">
    <g id="Group_3185" data-name="Group 3185">
      <rect id="Rectangle_842" data-name="Rectangle 842" width="47" height="47" rx="7" transform="translate(9 9)" fill="#f7f7f7"/>
    </g>
    <g id="Group_2907" data-name="Group 2907" transform="translate(21 24)">
      <g id="Group_2900" data-name="Group 2900" clip-path="url(#clip-path)">
        <path id="Path_11290" data-name="Path 11290" d="M21.474.024A1.973,1.973,0,0,0,21.232,0H1.971l9.763,10.371ZM22.9.952,12.344,12.168a.838.838,0,0,1-1.22,0L.4.78A1.965,1.965,0,0,0,0,1.956V14.527a1.955,1.955,0,0,0,1.956,1.956H21.232a1.955,1.955,0,0,0,1.956-1.956V1.956a1.956,1.956,0,0,0-.286-1" transform="translate(0)" fill="#377474"/>
      </g>
    </g>
  </g>
</svg>
