<svg xmlns="http://www.w3.org/2000/svg" xmlns:xlink="http://www.w3.org/1999/xlink" width="47" height="47" viewBox="0 0 47 47">
  <defs>
    <clipPath id="clip-path">
      <rect id="Rectangle_843" data-name="Rectangle 843" width="29.691" height="25" transform="translate(0 0)" fill="#377474"/>
    </clipPath>
  </defs>
  <g id="Group_3183" data-name="Group 3183" transform="translate(-9 -9)">
    <g id="Group_3182" data-name="Group 3182">
      <rect id="Rectangle_842" data-name="Rectangle 842" width="47" height="47" rx="7" transform="translate(9 9)" fill="#f7f7f7"/>
    </g>
    <g id="Group_2653" data-name="Group 2653" transform="translate(17.654 20.001)">
      <g id="Group_2654" data-name="Group 2654" transform="translate(0 -0.001)" clip-path="url(#clip-path)">
        <path id="Path_10304" data-name="Path 10304" d="M5.6,7.42a.571.571,0,0,1-.429-.092l-2.2-1.52a.573.573,0,0,1,.652-.943l2.2,1.52A.573.573,0,0,1,5.6,7.42M3.817,11.77a.573.573,0,0,0-.543-.6L.6,11.03a.573.573,0,1,0-.059,1.145l2.671.138a.573.573,0,0,0,.6-.543M9.5,3.546a.573.573,0,0,0,.295-.755L8.719.342A.573.573,0,0,0,7.669.8L8.743,3.252a.573.573,0,0,0,.755.295m6.908-.1a2.16,2.16,0,0,1,.542.542l.01.014,9.831,14.128,2.143.539.045.011a.876.876,0,0,1,.266.123c.8.55.508,2.346-.643,4.013s-2.73,2.571-3.526,2.021a.879.879,0,0,1-.221-.221l0-.006-1.274-1.83L6.931,18.6l-.109-.028a2.152,2.152,0,0,1-.653-.3c-1.955-1.35-1.247-5.762,1.58-9.854s6.7-6.314,8.658-4.964m-.657.951c-.542-.375-1.578-.19-2.769.493A14.2,14.2,0,0,0,8.7,9.069,14.2,14.2,0,0,0,6.307,14.55c-.217,1.356-.023,2.39.519,2.765S8.4,17.5,9.6,16.822a14.2,14.2,0,0,0,4.28-4.177,14.2,14.2,0,0,0,2.393-5.481c.217-1.356.023-2.39-.519-2.765" transform="translate(0 0.001)" fill="#377474"/>
      </g>
    </g>
  </g>
</svg>
