<svg xmlns="http://www.w3.org/2000/svg" xmlns:xlink="http://www.w3.org/1999/xlink" width="249.858" height="203.234" viewBox="0 0 249.858 203.234">
  <defs>
    <clipPath id="clip-path">
      <rect id="Rectangle_524" data-name="Rectangle 524" width="244.636" height="106.18" fill="none"/>
    </clipPath>
    <clipPath id="clip-path-2">
      <rect id="Rectangle_525" data-name="Rectangle 525" width="204.94" height="106.18" fill="none"/>
    </clipPath>
  </defs>
  <g id="Group_3229" data-name="Group 3229" transform="translate(-1446.625 -1479.533)">
    <path id="Path_10004" data-name="Path 10004" d="M512.209,263.126a1.708,1.708,0,0,1-1.708-1.708V180.14a1.708,1.708,0,1,1,3.416,0v81.278a1.708,1.708,0,0,1-1.708,1.708" transform="translate(1182.565 1307.525)" fill="#9d8769"/>
    <g id="Group_3228" data-name="Group 3228">
      <path id="Path_10370" data-name="Path 10370" d="M512.209,263.126a1.708,1.708,0,0,1-1.708-1.708V180.14a1.708,1.708,0,1,1,3.416,0v81.278a1.708,1.708,0,0,1-1.708,1.708" transform="translate(1174.053 1407.266)" fill="#9d8769"/>
      <g id="Component_11_4" data-name="Component 11 – 4" transform="translate(1446.625 1479.533)">
        <g id="Group_1779" data-name="Group 1779" transform="matrix(-0.999, -0.052, 0.052, -0.999, 244.301, 118.837)">
          <path id="Path_6151" data-name="Path 6151" d="M0,0,12.806,1.57,5.043,11.876Z" transform="translate(2.269 83.354)" fill="#fff"/>
          <path id="Path_6152" data-name="Path 6152" d="M0,0,12.552,2.987,3.689,12.364Z" transform="translate(13.74 70.625)" fill="#cda443"/>
          <path id="Path_6153" data-name="Path 6153" d="M0,0,12.33,3.8,2.874,12.579Z" transform="translate(27.009 57.785)" fill="#708dc9"/>
          <path id="Path_6154" data-name="Path 6154" d="M0,0,11.8,5.217,1.383,12.828Z" transform="translate(41.336 44.744)" fill="#ab5e62"/>
          <path id="Path_6155" data-name="Path 6155" d="M0,0,11.206,6.4.064,12.9Z" transform="translate(59.273 32.882)" fill="#fff"/>
          <path id="Path_6156" data-name="Path 6156" d="M1.231,0,11.738,7.488,0,12.844Z" transform="translate(76.406 22.274)" fill="#cda443"/>
          <path id="Path_6157" data-name="Path 6157" d="M1.854,0,11.985,7.99,0,12.769Z" transform="translate(95.597 13.586)" fill="#708dc9"/>
          <path id="Path_6158" data-name="Path 6158" d="M3.742,0l8.823,9.415L0,12.348Z" transform="translate(114.526 7.488)" fill="#ab5e62"/>
          <path id="Path_6159" data-name="Path 6159" d="M4.831,0l7.945,10.166L0,11.964Z" transform="translate(133.446 2.973)" fill="#fff"/>
          <path id="Path_6160" data-name="Path 6160" d="M6.111,0,12.9,10.973,0,11.363Z" transform="translate(153.673 0.196)" fill="#cda443"/>
          <path id="Path_6161" data-name="Path 6161" d="M0,10.821,7.027,0l5.857,11.5Z" transform="translate(172.667 0)" fill="#708dc9"/>
          <path id="Path_6162" data-name="Path 6162" d="M7.488,0l5.355,11.739L0,10.507Z" transform="translate(192.096 1.293)" fill="#ab5e62"/>
          <g id="Group_1455" data-name="Group 1455" transform="translate(0 0)">
            <g id="Group_1454" data-name="Group 1454" clip-path="url(#clip-path)">
              <path id="Path_6163" data-name="Path 6163" d="M173.447,0a204.479,204.479,0,0,0-67.428,11.416C47.436,31.786,14.449,72.483,0,94.928l.638.411c14.4-22.363,47.263-62.91,105.631-83.206C166.416-8.78,218.614,3.786,244.375,13.139l.26-.715A210.9,210.9,0,0,0,173.447,0" transform="translate(0 10.84)" fill="#a8835e"/>
            </g>
          </g>
        </g>
        <g id="Group_1777" data-name="Group 1777" transform="translate(-1448.658 -1064.689)">
          <g id="Group_1800" data-name="Group 1800" transform="matrix(-0.857, -0.515, 0.515, -0.857, 1634.295, 1267.923)">
            <path id="Path_6164" data-name="Path 6164" d="M0,0,12.806,1.57,5.043,11.876Z" transform="translate(2.269 83.354)" fill="#fff"/>
            <path id="Path_6165" data-name="Path 6165" d="M0,0,12.552,2.987,3.689,12.364Z" transform="translate(13.74 70.625)" fill="#cda443"/>
            <path id="Path_6166" data-name="Path 6166" d="M0,0,12.33,3.8,2.874,12.579Z" transform="translate(27.009 57.785)" fill="#708dc9"/>
            <path id="Path_6167" data-name="Path 6167" d="M0,0,11.8,5.217,1.383,12.828Z" transform="translate(41.336 44.744)" fill="#ab5e62"/>
            <path id="Path_6168" data-name="Path 6168" d="M0,0,11.206,6.4.064,12.9Z" transform="translate(59.273 32.882)" fill="#fff"/>
            <path id="Path_6169" data-name="Path 6169" d="M1.231,0,11.739,7.488,0,12.844Z" transform="translate(76.406 22.274)" fill="#cda443"/>
            <path id="Path_6170" data-name="Path 6170" d="M1.854,0,11.986,7.99,0,12.768Z" transform="translate(95.596 13.586)" fill="#708dc9"/>
            <path id="Path_6171" data-name="Path 6171" d="M3.742,0l8.823,9.415L0,12.348Z" transform="translate(114.526 7.488)" fill="#ab5e62"/>
            <path id="Path_6172" data-name="Path 6172" d="M4.832,0l7.945,10.166L0,11.964Z" transform="translate(133.445 2.973)" fill="#fff"/>
            <path id="Path_6173" data-name="Path 6173" d="M6.112,0,12.9,10.973,0,11.363Z" transform="translate(153.672 0.196)" fill="#cda443"/>
            <path id="Path_6174" data-name="Path 6174" d="M0,10.821,7.028,0l5.857,11.5Z" transform="translate(172.666 0)" fill="#708dc9"/>
            <path id="Path_6175" data-name="Path 6175" d="M0,10.508,7.488,0l5.356,11.739Z" transform="translate(192.097 1.292)" fill="#ab5e62"/>
            <g id="Group_1458" data-name="Group 1458" transform="translate(0 0)">
              <g id="Group_1457" data-name="Group 1457" clip-path="url(#clip-path-2)">
                <path id="Path_6176" data-name="Path 6176" d="M173.192,0a203.554,203.554,0,0,0-67.172,11.365C47.436,31.736,14.449,72.433,0,94.878l.639.412c14.4-22.363,47.262-62.91,105.63-83.206a204.639,204.639,0,0,1,98.378-8.964l.112-.75A213.855,213.855,0,0,0,173.192,0" transform="translate(0 10.891)" fill="#a8835e"/>
              </g>
            </g>
          </g>
        </g>
      </g>
    </g>
  </g>
</svg>
