<svg xmlns="http://www.w3.org/2000/svg" xmlns:xlink="http://www.w3.org/1999/xlink" width="47" height="47" viewBox="0 0 47 47">
  <defs>
    <clipPath id="clip-path">
      <rect id="Rectangle_840" data-name="Rectangle 840" width="26.758" height="25.377" fill="#377474"/>
    </clipPath>
  </defs>
  <g id="Group_3184" data-name="Group 3184" transform="translate(-9 -9)">
    <rect id="Rectangle_842" data-name="Rectangle 842" width="47" height="47" rx="7" transform="translate(9 9)" fill="#f7f7f7"/>
    <g id="Group_2906" data-name="Group 2906" transform="translate(19 20)">
      <g id="Group_2651" data-name="Group 2651" clip-path="url(#clip-path)">
        <path id="Path_10298" data-name="Path 10298" d="M168.324,3.813A3.813,3.813,0,1,1,164.511,0a3.813,3.813,0,0,1,3.813,3.813" transform="translate(-151.178)" fill="#377474"/>
        <path id="Path_10299" data-name="Path 10299" d="M147.051,134.179a4.527,4.527,0,0,0,.084.868.3.3,0,0,1-.3.362h-4.262a.3.3,0,0,1-.3-.362,4.527,4.527,0,0,0-2.463-4.936.3.3,0,0,1-.119-.441,5.645,5.645,0,0,1,1.968-1.835.546.546,0,0,1,.562.024,4.591,4.591,0,0,0,5.048,0,.546.546,0,0,1,.562-.024,5.634,5.634,0,0,1,1.945,1.8.3.3,0,0,1-.122.445,4.529,4.529,0,0,0-2.611,4.1" transform="translate(-131.374 -120.2)" fill="#377474"/>
        <path id="Path_10300" data-name="Path 10300" d="M52.4,175.43a3.813,3.813,0,1,1-3.813-3.813A3.813,3.813,0,0,1,52.4,175.43" transform="translate(-42.121 -161.45)" fill="#377474"/>
        <path id="Path_10301" data-name="Path 10301" d="M13.021,306.484c-.11-3.136-1.189-5.8-3.425-7.032a.546.546,0,0,0-.562.023,4.591,4.591,0,0,1-5.047,0,.546.546,0,0,0-.562-.023C1.188,300.685.11,303.348,0,306.484a.521.521,0,0,0,.519.542H12.5a.521.521,0,0,0,.519-.542" transform="translate(0.001 -281.648)" fill="#377474"/>
        <path id="Path_10302" data-name="Path 10302" d="M284.248,175.43a3.813,3.813,0,1,1-3.813-3.813,3.813,3.813,0,0,1,3.813,3.813" transform="translate(-260.234 -161.45)" fill="#377474"/>
        <path id="Path_10303" data-name="Path 10303" d="M244.869,306.484c-.11-3.136-1.189-5.8-3.425-7.032a.546.546,0,0,0-.562.023,4.591,4.591,0,0,1-5.047,0,.546.546,0,0,0-.562-.023c-2.236,1.234-3.315,3.9-3.425,7.032a.521.521,0,0,0,.519.542H244.35a.521.521,0,0,0,.519-.542" transform="translate(-218.112 -281.648)" fill="#377474"/>
      </g>
    </g>
  </g>
</svg>
