<svg id="Group_2669" data-name="Group 2669" xmlns="http://www.w3.org/2000/svg" xmlns:xlink="http://www.w3.org/1999/xlink" width="28.354" height="26.892" viewBox="0 0 28.354 26.892">
  <defs>
    <clipPath id="clip-path">
      <rect id="Rectangle_840" data-name="Rectangle 840" width="28.354" height="26.892" fill="#fff"/>
    </clipPath>
  </defs>
  <g id="Group_2651" data-name="Group 2651" clip-path="url(#clip-path)">
    <path id="Path_10298" data-name="Path 10298" d="M168.779,4.04A4.041,4.041,0,1,1,164.739,0a4.041,4.041,0,0,1,4.04,4.04" transform="translate(-150.61)" fill="#fff"/>
    <path id="Path_10299" data-name="Path 10299" d="M147.493,134.562a4.8,4.8,0,0,0,.089.92.321.321,0,0,1-.314.384h-4.517a.321.321,0,0,1-.314-.384,4.8,4.8,0,0,0-2.61-5.23.321.321,0,0,1-.126-.468,5.982,5.982,0,0,1,2.086-1.944.579.579,0,0,1,.6.025,4.865,4.865,0,0,0,5.349,0,.579.579,0,0,1,.6-.025,5.97,5.97,0,0,1,2.061,1.908.321.321,0,0,1-.13.471,4.8,4.8,0,0,0-2.766,4.343" transform="translate(-130.88 -119.748)" fill="#fff"/>
    <path id="Path_10300" data-name="Path 10300" d="M52.855,175.658a4.041,4.041,0,1,1-4.04-4.04,4.04,4.04,0,0,1,4.04,4.04" transform="translate(-41.963 -160.843)" fill="#fff"/>
    <path id="Path_10301" data-name="Path 10301" d="M13.8,306.908c-.117-3.323-1.259-6.145-3.629-7.452a.579.579,0,0,0-.6.025,4.864,4.864,0,0,1-5.349,0,.579.579,0,0,0-.6-.025C1.259,300.763.116,303.584,0,306.908a.552.552,0,0,0,.55.574h12.7a.552.552,0,0,0,.55-.574" transform="translate(0.001 -280.59)" fill="#fff"/>
    <path id="Path_10302" data-name="Path 10302" d="M284.7,175.658a4.041,4.041,0,1,1-4.04-4.04,4.04,4.04,0,0,1,4.04,4.04" transform="translate(-259.256 -160.843)" fill="#fff"/>
    <path id="Path_10303" data-name="Path 10303" d="M245.646,306.908c-.117-3.323-1.259-6.145-3.629-7.452a.579.579,0,0,0-.6.025,4.864,4.864,0,0,1-5.349,0,.579.579,0,0,0-.6-.025c-2.369,1.307-3.512,4.129-3.629,7.452a.552.552,0,0,0,.55.574h12.7a.552.552,0,0,0,.55-.574" transform="translate(-217.292 -280.59)" fill="#fff"/>
  </g>
</svg>
