<svg xmlns="http://www.w3.org/2000/svg" width="89.187" height="82.146" viewBox="0 0 89.187 82.146">
  <g id="Group_3184" data-name="Group 3184" transform="translate(-272 -427.687)">
    <g id="Group_2358" data-name="Group 2358" transform="translate(272 461.111)">
      <path id="Path_9361" data-name="Path 9361" d="M46.3,87.129l1.227,4.184,2.032,4.046-1.374.406-2.716-3.707-1.042-4.621Z" transform="translate(-29.675 -72.562)" fill="#facdcb"/>
      <g id="Group_2359" data-name="Group 2359" transform="translate(0 0)">
        <g id="Group_2362" data-name="Group 2362">
          <g id="Group_2363" data-name="Group 2363">
            <path id="Path_9362" data-name="Path 9362" d="M34.656,169.719a3.586,3.586,0,0,0-.069.971,1.1,1.1,0,0,0,.309.933,1.284,1.284,0,0,0,.728.446,5.294,5.294,0,0,1,1.071.666,3.811,3.811,0,0,0,.748.3,2.4,2.4,0,0,0,.9.168,1.972,1.972,0,0,0,.864-.327,1.192,1.192,0,0,0,.415-.366.931.931,0,0,0-.216-1.092,3.1,3.1,0,0,0-1.037-.589,2.19,2.19,0,0,1-.979-.668c-.3-.428-.511-1.014-1.133-1.031-.334-.009-.643,0-.889.018a.725.725,0,0,0-.714.572" transform="translate(-23.102 -127.334)" fill="#fcb154"/>
            <path id="Path_9363" data-name="Path 9363" d="M35.856,158.745c.1,1.2.1,2.953.1,2.953s.135.185.738.2.764-.185.764-.185l.5-4.076s-1.542.789-2.1,1.107" transform="translate(-23.95 -119.66)" fill="#f9c3c0"/>
            <path id="Path_9364" data-name="Path 9364" d="M36.033,169.71a.3.3,0,0,1-.029.145c-.116.255.1.54.306.672a1.255,1.255,0,0,0,1.25.032.581.581,0,0,0,.126-.09c.278-.278.015-.545-.152-.769a.212.212,0,0,0-.061-.056.164.164,0,0,0-.088-.009q-.55.044-1.1.075c-.138.008-.251-.049-.251,0" transform="translate(-24.028 -127.672)" fill="#f9c3c0"/>
            <path id="Path_9365" data-name="Path 9365" d="M36,168.21a.3.3,0,0,0,.029-.145s0-.375-.01-.9a2.8,2.8,0,0,0,.826.131,2.87,2.87,0,0,0,.8-.13l-.11.89c.166.223.423.487.147.763a.577.577,0,0,1-.126.09,1.254,1.254,0,0,1-1.249-.032c-.2-.132-.422-.417-.306-.672" transform="translate(-24.028 -126.027)" fill="#ed5053"/>
            <path id="Path_9366" data-name="Path 9366" d="M19.179,178.3a3.587,3.587,0,0,0-.069.971,1.1,1.1,0,0,0,.309.932,1.284,1.284,0,0,0,.728.446,5.285,5.285,0,0,1,1.071.666,3.811,3.811,0,0,0,.748.3,2.4,2.4,0,0,0,.9.168,1.972,1.972,0,0,0,.864-.327,1.193,1.193,0,0,0,.415-.366A.931.931,0,0,0,23.931,180a3.1,3.1,0,0,0-1.037-.589,2.19,2.19,0,0,1-.979-.668c-.3-.428-.511-1.014-1.133-1.031-.334-.009-.643,0-.889.018a.725.725,0,0,0-.714.572" transform="translate(-12.763 -133.065)" fill="#fcb154"/>
            <path id="Path_9367" data-name="Path 9367" d="M20.051,167.624c.1,1.2.1,2.953.1,2.953s.135.185.738.2.764-.185.764-.185l.5-4.076s-1.542.789-2.1,1.107" transform="translate(-13.393 -125.591)" fill="#f9c3c0"/>
            <path id="Path_9368" data-name="Path 9368" d="M20.228,178.59a.3.3,0,0,1-.029.145c-.116.255.1.54.306.672a1.256,1.256,0,0,0,1.25.032.581.581,0,0,0,.126-.09c.278-.278.015-.545-.152-.769a.208.208,0,0,0-.061-.057.161.161,0,0,0-.088-.009q-.55.044-1.1.075c-.138.008-.251-.049-.251,0" transform="translate(-13.471 -133.603)" fill="#f9c3c0"/>
            <path id="Path_9369" data-name="Path 9369" d="M20.2,177.089a.3.3,0,0,0,.029-.145s0-.374-.01-.895a2.8,2.8,0,0,0,.826.131,2.87,2.87,0,0,0,.8-.13l-.11.89c.166.223.423.487.147.763a.6.6,0,0,1-.126.09,1.256,1.256,0,0,1-1.249-.032c-.2-.132-.422-.417-.306-.672" transform="translate(-13.471 -131.958)" fill="#ed5053"/>
            <path id="Path_9370" data-name="Path 9370" d="M44.78,76.778l.7,2.2a7.623,7.623,0,0,1-2.932.644.743.743,0,0,1-.3-.038.76.76,0,0,1-.356-.476,8.361,8.361,0,0,1-.4-4.349,1.082,1.082,0,0,1,.28-.642c1.49-1.327,2.733,1.786,3.011,2.659" transform="translate(-27.631 -63.655)" fill="#fcc47e"/>
            <path id="Path_9371" data-name="Path 9371" d="M19.369,125.549l-.348-9.61-.068-2.631s1.5,1.118,5.156,1.239a7.618,7.618,0,0,0,4.512-1l-.867,9.584-.777,6.839a2.165,2.165,0,0,1-1.329.32,2.263,2.263,0,0,1-1.492-.5l.408-3.245-.523-8.451-1.408,6.45-1.076,7.984A2.187,2.187,0,0,1,20.2,133a2.319,2.319,0,0,1-1.386-.439Z" transform="translate(-12.566 -90.049)" fill="#ed5053"/>
            <path id="Path_9372" data-name="Path 9372" d="M18.281,86.646s-.244-2.455-.324-4.079c-.157-3.172-.089-8.032-.089-8.032a1.518,1.518,0,0,1,1.051-1.742A10.225,10.225,0,0,1,27,72.318c.829.285.861,1.222.845,1.923-.027,1.18.023,2.364.025,3.547,0,2.623.327,5.241.24,7.887-.04,1.232-.455,1.447-1.569,1.746a11.9,11.9,0,0,1-3.14.3c-3.651-.018-5.122-1.076-5.122-1.076" transform="translate(-11.916 -62.251)" fill="#fcb154"/>
            <path id="Path_9373" data-name="Path 9373" d="M30.321,64.743c-.755-.007-1.16.378-1.163.715l-.406,2.253c.031.391.752.714,1.612.722s1.532-.3,1.5-.694l-.347-2.362c-.027-.343-.442-.627-1.2-.634" transform="translate(-19.205 -57.609)" fill="#f9c3c0"/>
            <path id="Path_9374" data-name="Path 9374" d="M27.332,48.067c-2.385-.151-3.185,1.372-3.359,3.276.457,2.27,1.566,3.372,2.5,3.683,1.137.379,2.56.745,3.623-1.147a6.762,6.762,0,0,0,.576-3.95c-.193-.7-.954-1.712-3.339-1.862" transform="translate(-16.013 -46.464)" fill="#facdcb"/>
            <path id="Path_9375" data-name="Path 9375" d="M27.181,47.2c-.47.036-.966,0-1.417.011-1.463.039-3.09.234-3.8,1.759-.139.3-.468.613-.424.972a.828.828,0,0,0,.231.477c.127.129.329.247.322.448-.375.187-.937-.3-1.215-.515a3.749,3.749,0,0,1-1.4-3.6c.583-2.942,4.259-4.385,6.827-2.914A3.51,3.51,0,0,1,27.9,46.97a.159.159,0,0,1-.019.07.167.167,0,0,1-.1.058,3.039,3.039,0,0,1-.6.1" transform="translate(-12.972 -43.258)" fill="#2a424b"/>
            <path id="Path_9376" data-name="Path 9376" d="M24.3,59.679a.621.621,0,0,0-.679-.666c-.6.038-.745.39-.628.992a1.117,1.117,0,0,0,1.051.909c.418.012.256-1.235.256-1.235" transform="translate(-15.332 -53.781)" fill="#facdcb"/>
            <path id="Path_9377" data-name="Path 9377" d="M9.463,87.129l-.8,4.466L6.845,95.959l1.609.568L10.7,92.263l1.073-5.134Z" transform="translate(-4.572 -72.563)" fill="#facdcb"/>
            <path id="Path_9378" data-name="Path 9378" d="M12.393,79.158l-.7,2.2A7.617,7.617,0,0,0,14.624,82a.743.743,0,0,0,.3-.039.759.759,0,0,0,.356-.476,8.356,8.356,0,0,0,.4-4.349,1.081,1.081,0,0,0-.28-.642c-1.49-1.327-2.733,1.786-3.011,2.659" transform="translate(-7.81 -65.245)" fill="#fcc47e"/>
            <path id="Path_9379" data-name="Path 9379" d="M1.553,114.6a4.558,4.558,0,0,0-1.46.82c-.05.038-.107.091-.091.152.043.158.422.08.514.032.067-.035.126-.086.195-.119a.825.825,0,0,1,.33-.056,2.729,2.729,0,0,1-.138.75,2.927,2.927,0,0,1-.277.452l-.3.429a.316.316,0,0,0-.082.248.212.212,0,0,0,.206.137c.076,0,.247-.11.308-.047s-.04.266-.063.342a.263.263,0,0,0,0,.21c.05.081.167.083.259.059a.824.824,0,0,0,.4-.243c-.052.125.09.241.21.224.252-.036.446-.347.632-.493a.361.361,0,0,0,.029.137c.094.182.357-.023.437-.116a2.03,2.03,0,0,0,.49-1.2,4.631,4.631,0,0,1,.04-.76,7.84,7.84,0,0,1,.691-1.268,7.13,7.13,0,0,0-1.609-.568c-.159.4-.3.762-.72.875" transform="translate(0.001 -90.327)" fill="#facdcb"/>
            <path id="Path_9380" data-name="Path 9380" d="M57.706,112.635a3.731,3.731,0,0,1,1.2.672c.042.031.088.075.075.125-.035.13-.346.065-.421.026-.055-.029-.1-.071-.159-.1a.67.67,0,0,0-.27-.046,2.225,2.225,0,0,0,.113.615,2.4,2.4,0,0,0,.227.371l.246.352a.257.257,0,0,1,.068.2.174.174,0,0,1-.169.113c-.061,0-.2-.09-.252-.039s.033.218.051.281a.216.216,0,0,1,0,.173c-.041.066-.137.068-.213.048a.674.674,0,0,1-.33-.2c.043.1-.074.2-.172.184-.207-.03-.365-.284-.518-.4a.294.294,0,0,1-.024.112c-.077.149-.292-.019-.358-.095a1.662,1.662,0,0,1-.4-.982,3.818,3.818,0,0,0-.033-.623,4.715,4.715,0,0,0-.622-1.1,6.211,6.211,0,0,1,1.374-.405c.13.325.248.625.59.718" transform="translate(-37.234 -89.12)" fill="#facdcb"/>
          </g>
        </g>
      </g>
    </g>
    <g id="Group_2359-2" data-name="Group 2359" transform="translate(329.786 427.687)">
      <path id="Path_9381" data-name="Path 9381" d="M123.577,128.017a3.588,3.588,0,0,1,.756.613,1.1,1.1,0,0,1,.471.862,1.283,1.283,0,0,1-.171.836,5.314,5.314,0,0,0-.245,1.237,3.792,3.792,0,0,1-.29.752,2.41,2.41,0,0,1-.494.774,1.969,1.969,0,0,1-.829.408,1.19,1.19,0,0,1-.55.053.93.93,0,0,1-.65-.9,3.1,3.1,0,0,1,.277-1.16,2.187,2.187,0,0,0,.18-1.171c-.105-.514-.391-1.066.02-1.532.221-.25.44-.468.62-.638a.725.725,0,0,1,.905-.131" transform="translate(-106.748 -85.443)" fill="#2a424b"/>
      <path id="Path_9382" data-name="Path 9382" d="M115.106,122.209c.806.889,2.09,2.088,2.09,2.088s.042.225-.357.677-.657.432-.657.432l-3.321-2.416s1.629-.588,2.246-.782" transform="translate(-100.927 -81.632)" fill="#f9c3c0"/>
      <path id="Path_9383" data-name="Path 9383" d="M123.834,128.487a.293.293,0,0,0,.126.078c.265.09.324.444.282.683a1.255,1.255,0,0,1-.829.935.582.582,0,0,1-.152.031c-.393.013-.408-.361-.458-.636a.215.215,0,0,1,0-.084.165.165,0,0,1,.053-.07q.407-.372.806-.753c.1-.1.136-.217.172-.183" transform="translate(-107.566 -85.822)" fill="#f9c3c0"/>
      <path id="Path_9384" data-name="Path 9384" d="M159.122,101.743a3.587,3.587,0,0,1,.962-.145,1.1,1.1,0,0,1,.954.234,1.284,1.284,0,0,1,.5.69,5.305,5.305,0,0,0,.748,1.016,3.792,3.792,0,0,1,.359.722,2.4,2.4,0,0,1,.238.887,1.973,1.973,0,0,1-.258.887,1.191,1.191,0,0,1-.332.443.931.931,0,0,1-1.106-.13,3.1,3.1,0,0,1-.669-.987,2.187,2.187,0,0,0-.742-.923c-.451-.269-1.051-.43-1.118-1.049-.036-.332-.049-.641-.053-.888a.725.725,0,0,1,.514-.757" transform="translate(-131.485 -67.856)" fill="#2a424b"/>
      <path id="Path_9385" data-name="Path 9385" d="M148.718,103.278c1.2,0,2.951-.133,2.951-.133s.195.121.259.72-.124.777-.124.777l-4.024.822s.665-1.6.938-2.185" transform="translate(-124.252 -68.898)" fill="#f9c3c0"/>
      <path id="Path_9386" data-name="Path 9386" d="M159.457,102.973a.294.294,0,0,0,.142-.04c.245-.135.547.06.694.252a1.256,1.256,0,0,1,.131,1.243.6.6,0,0,1-.08.132c-.255.3-.542.057-.778-.091a.209.209,0,0,1-.061-.057.163.163,0,0,1-.016-.087c0-.368,0-.735-.012-1.1,0-.138-.068-.246-.019-.25" transform="translate(-132.04 -68.726)" fill="#f9c3c0"/>
      <path id="Path_9387" data-name="Path 9387" d="M139.989,23.529l3.175-1.264,1.9-5.962,1.693.333-1.693,7.053-4.1,2.024Z" transform="translate(-119.049 -10.89)" fill="#f9c3c0"/>
      <path id="Path_9388" data-name="Path 9388" d="M92.628,21.56l-3.175-4.444-1.991-3.056,1.215-1.368,2.794,3.195,2.779,4.333Z" transform="translate(-83.962 -8.478)" fill="#f9c3c0"/>
      <path id="Path_9389" data-name="Path 9389" d="M106.623,71.347l-.308,2.926s3.337,1.643,8.522.36a11.444,11.444,0,0,0-.409-2.67Z" transform="translate(-96.555 -47.658)" fill="#facdcb"/>
      <path id="Path_9390" data-name="Path 9390" d="M104.976,84.262a79.421,79.421,0,0,0,5.508,6.889c1.832.616,7.925-1.355,7.925-1.355l-.021-2.934-6.3.477L110.3,79.429a35.6,35.6,0,0,1-5.021.58,29.75,29.75,0,0,1-4.683-.58A66.358,66.358,0,0,0,98.347,90.3c1.6,2.312,6.447,6.089,6.447,6.089l1.89-2.054L102.7,88.612Z" transform="translate(-91.233 -53.056)" fill="#165b9e"/>
      <path id="Path_9391" data-name="Path 9391" d="M110.678,48.221l.05.013c.257.069.6.113.734-.1a.494.494,0,0,0,.056-.237c.144-2.255-.285-4.407-.285-6.638a1.555,1.555,0,0,1,.127-.873,1.82,1.82,0,0,1,.6-.542c.617-.41,1.249-.8,1.859-1.217a8.634,8.634,0,0,0,1.371-1.122,10.074,10.074,0,0,1-1.1-3.481c-1.016.608-2.277.581-3.418.9-.523.144-1.023.362-1.545.509a11.894,11.894,0,0,1-3.57.258,1.347,1.347,0,0,1-.35-.041,1.36,1.36,0,0,1-.413-.239c-.415-.31-.876-.6-1.262-.944a4.188,4.188,0,0,1-.674-.915.2.2,0,0,0-.11-.1.228.228,0,0,0-.126.015c-.713.233-3.016,1.449-3.083,2.269a.546.546,0,0,0,.188.371,6.788,6.788,0,0,1,1.84,4.986c0,1.034-.063,2.068-.128,3.1-.048.771-.462,1.631-.225,2.409.153.5.89.583,1.467.583a31.075,31.075,0,0,1,8,1.036" transform="translate(-92.028 -22.342)" fill="#fff"/>
      <path id="Path_9392" data-name="Path 9392" d="M117.117,32.989c.755-.007,1.16.378,1.163.715l.406,2.253c-.031.391-.752.714-1.612.722s-1.532-.3-1.5-.694l.347-2.362c.027-.343.442-.627,1.2-.634" transform="translate(-102.739 -22.036)" fill="#f9c3c0"/>
      <path id="Path_9393" data-name="Path 9393" d="M112.709,16.313c2.385-.151,3.185,1.372,3.359,3.276-.457,2.27-1.566,3.372-2.5,3.683-1.137.379-2.56.745-3.623-1.147a6.762,6.762,0,0,1-.576-3.95c.193-.7.954-1.712,3.339-1.862" transform="translate(-98.533 -10.89)" fill="#f9c3c0"/>
      <path id="Path_9394" data-name="Path 9394" d="M107.808,14.971c.2-.037.4-.1.607-.132a3.916,3.916,0,0,1,1.656.3,2.167,2.167,0,0,0,1.652,0l.732.647a.365.365,0,0,0,.235.121c.068,0,.135-.042.2-.025a.207.207,0,0,1,.12.116c.221.424-.066.995.186,1.4.137.22.314.428.25.7s-.413.415-.489.682c.243-.077.481-.187.719-.285a3.6,3.6,0,0,0,.542-.258c.7-.433.567-1.02.892-1.634.077-.145.274-.218.331-.367a1.976,1.976,0,0,0-.017-.627.686.686,0,0,1,.048-.347c.08-.153.268-.231.336-.39a.5.5,0,0,1-.236-.291,8.462,8.462,0,0,0-.562-1.194,3.025,3.025,0,0,0-1.031-.831,10.581,10.581,0,0,0-1.11-.83,4.388,4.388,0,0,0-2.813-.455.849.849,0,0,1-.405.014c-.209-.066-.438-.3-.6-.148a.419.419,0,0,0-.087.195c-.181.632-1.108,1-1.7,1.023a.446.446,0,0,0-.34.1c-.2.244.31.656.086.878-.18.178-.613-.063-.687.179a.289.289,0,0,0,.022.181,3.412,3.412,0,0,0,.36.725,1.2,1.2,0,0,0,.621.541,1.034,1.034,0,0,0,.482.007" transform="translate(-96.555 -7.407)" fill="#2a424b"/>
      <path id="Path_9395" data-name="Path 9395" d="M126.638,27.925a.621.621,0,0,1,.679-.666c.6.038.745.39.628.992a1.117,1.117,0,0,1-1.051.909c-.417.012-.255-1.235-.255-1.235" transform="translate(-110.109 -18.207)" fill="#f9c3c0"/>
      <path id="Path_9396" data-name="Path 9396" d="M79.166,7.316c.116.082.214.046.335.073s.206.13.314.213a1.081,1.081,0,0,0,.8.238c.25-.038.489-.163.735-.225a.358.358,0,0,0,.178-.086.369.369,0,0,0,.079-.176.874.874,0,0,0-.145-.857.989.989,0,0,0-.335-.173l-.818-.3a1.46,1.46,0,0,0-.426-.108,1.212,1.212,0,0,0-.736.28.93.93,0,0,0-.282.283c-.14.249.081.683.3.837" transform="translate(-78.193 -3.952)" fill="#f49895"/>
      <path id="Path_9397" data-name="Path 9397" d="M80.645.161l-.469.2c-.221.1.139.6.208.733.081.158.072.467.312.48a3.294,3.294,0,0,0,1.7-.132c.026-.012.053-.029.06-.056a.094.094,0,0,0-.015-.062,3.468,3.468,0,0,0-.7-.777,4.723,4.723,0,0,0-.589-.5.147.147,0,0,0-.185-.027l-.32.139" transform="translate(-79.048 -0.001)" fill="#f6aba8"/>
      <path id="Path_9398" data-name="Path 9398" d="M78.326,1.937a.4.4,0,0,0,.091.361,2.612,2.612,0,0,0,1.295,1.15.537.537,0,0,0,.23.046.2.2,0,0,0,.177-.133c.023-.094-.049-.182-.12-.248-.169-.158-.358-.291-.527-.448-.216-.2-.255-.247-.011-.387.1-.055.087-.2.051-.3a1.243,1.243,0,0,0-.276-.448.088.088,0,0,0-.048-.032.089.089,0,0,0-.041.008c-.261.1-.733.179-.821.431" transform="translate(-77.85 -1.001)" fill="#f6aba8"/>
      <path id="Path_9399" data-name="Path 9399" d="M77.251,3.535a.4.4,0,0,0,.137.346,2.612,2.612,0,0,0,1.435.97.536.536,0,0,0,.234.016.2.2,0,0,0,.158-.156c.01-.1-.073-.174-.151-.23-.188-.134-.393-.241-.582-.374-.241-.17-.285-.211-.061-.383.088-.067.061-.206.011-.305a1.257,1.257,0,0,0-.333-.408.086.086,0,0,0-.052-.025.088.088,0,0,0-.04.014c-.245.131-.7.274-.757.535" transform="translate(-77.138 -1.995)" fill="#f6aba8"/>
      <path id="Path_9400" data-name="Path 9400" d="M76.923,5.387a.364.364,0,0,0,.151.3,2.369,2.369,0,0,0,1.371.768.486.486,0,0,0,.213,0,.179.179,0,0,0,.131-.153c0-.088-.079-.152-.155-.2-.18-.107-.374-.188-.554-.294-.23-.135-.273-.169-.084-.341.074-.067.039-.191-.014-.277a1.138,1.138,0,0,0-.332-.344.06.06,0,0,0-.084,0c-.212.137-.615.3-.644.541" transform="translate(-76.921 -3.227)" fill="#f6aba8"/>
      <path id="Path_9401" data-name="Path 9401" d="M80.383,2.759l-.026-.029a6.968,6.968,0,0,0-.615-.559A.23.23,0,0,0,79.5,2.1a7.431,7.431,0,0,0-.786.145c-.224.068-.411.2-.625.287a4.642,4.642,0,0,1-.9.54c-.107.04-.233.086-.265.2-.037.131.094.25.223.293.442.146.77-.206,1.179-.3a.266.266,0,0,1,.11-.007.289.289,0,0,1,.109.057c.132.1.272.185.235.361a1.232,1.232,0,0,0-.065.44,2.353,2.353,0,0,0,.361.833c.295.494,1.341,2.033,1.341,2.033l1.215-1.368a9.283,9.283,0,0,1-.989-1.372c-.027-.124.065-.338.064-.476a1.674,1.674,0,0,0-.073-.472,1.414,1.414,0,0,0-.256-.528" transform="translate(-76.921 -1.394)" fill="#f9c3c0"/>
      <path id="Path_9402" data-name="Path 9402" d="M158.629,8.439c-.066.127-.17.138-.265.218a.84.84,0,0,0-.183.332,1.079,1.079,0,0,1-.607.578c-.24.08-.51.077-.757.134a.362.362,0,0,1-.2,0,.371.371,0,0,1-.15-.121.875.875,0,0,1-.26-.829.989.989,0,0,1,.219-.306l.593-.638a1.449,1.449,0,0,1,.33-.29,1.212,1.212,0,0,1,.783-.086.926.926,0,0,1,.379.124c.238.159.239.645.116.881" transform="translate(-129.86 -4.95)" fill="#f49895"/>
      <path id="Path_9403" data-name="Path 9403" d="M155.348,2.709l.51-.032c.241-.015.149.6.149.747,0,.177.148.449-.06.569a3.294,3.294,0,0,1-1.577.657.1.1,0,0,1-.079-.023.094.094,0,0,1-.015-.062,3.458,3.458,0,0,1,.274-1.012,4.634,4.634,0,0,1,.3-.715A.146.146,0,0,1,155,2.731l.348-.022" transform="translate(-128.592 -1.789)" fill="#f6aba8"/>
      <path id="Path_9404" data-name="Path 9404" d="M159.463,3.133a.4.4,0,0,1,.083.363,2.612,2.612,0,0,1-.63,1.614.525.525,0,0,1-.184.146.2.2,0,0,1-.219-.038.282.282,0,0,1-.006-.276c.078-.217.186-.422.266-.638.1-.277.115-.336-.167-.349-.111-.006-.167-.135-.182-.245a1.255,1.255,0,0,1,.042-.525.065.065,0,0,1,.069-.061c.277-.032.734-.174.927.01" transform="translate(-131.356 -2.032)" fill="#f6aba8"/>
      <path id="Path_9405" data-name="Path 9405" d="M160.877,4.153a.4.4,0,0,1,.035.371,2.611,2.611,0,0,1-.837,1.516.534.534,0,0,1-.2.121.2.2,0,0,1-.212-.067.282.282,0,0,1,.031-.274c.106-.2.24-.393.348-.6.137-.261.158-.318-.119-.369-.109-.02-.148-.156-.148-.267a1.261,1.261,0,0,1,.111-.515.086.086,0,0,1,.035-.045.087.087,0,0,1,.041-.006c.279.005.75-.076.918.132" transform="translate(-132.172 -2.678)" fill="#f6aba8"/>
      <path id="Path_9406" data-name="Path 9406" d="M161.982,5.569a.364.364,0,0,1,0,.338,2.371,2.371,0,0,1-.872,1.307.48.48,0,0,1-.191.094.179.179,0,0,1-.187-.076.254.254,0,0,1,.048-.245c.112-.177.247-.338.36-.514.144-.225.167-.275-.08-.342-.1-.026-.122-.152-.114-.253a1.138,1.138,0,0,1,.139-.457.079.079,0,0,1,.035-.039.081.081,0,0,1,.038,0c.251.026.684-.012.819.189" transform="translate(-132.895 -3.593)" fill="#f6aba8"/>
      <path id="Path_9407" data-name="Path 9407" d="M154.1,6.044c0-.013.006-.025.01-.038a6.888,6.888,0,0,1,.293-.778.23.23,0,0,1,.184-.177,7.5,7.5,0,0,1,.766-.228c.231-.042.459-.006.687-.029a4.654,4.654,0,0,0,1.043.074c.114-.013.247-.03.325.054.092.1.03.266-.065.362-.327.331-.78.167-1.186.271a.268.268,0,0,0-.1.044.293.293,0,0,0-.071.1c-.073.148-.158.288-.046.429a1.242,1.242,0,0,1,.258.362,2.367,2.367,0,0,1,.057.907c-.038.574-.084,1.552-.084,1.552l-1.693-.333a5.4,5.4,0,0,0,.059-1.136c-.032-.123-.211-.271-.274-.4a1.655,1.655,0,0,1-.15-.454,1.417,1.417,0,0,1-.013-.587" transform="translate(-128.457 -3.203)" fill="#f9c3c0"/>
    </g>
  </g>
</svg>
