<svg id="Group_820" data-name="Group 820" xmlns="http://www.w3.org/2000/svg" xmlns:xlink="http://www.w3.org/1999/xlink" width="31.737" height="86.189" viewBox="0 0 31.737 86.189">
  <defs>
    <clipPath id="clip-path">
      <rect id="Rectangle_160" data-name="Rectangle 160" width="31.737" height="86.189" fill="none"/>
    </clipPath>
  </defs>
  <g id="Group_547" data-name="Group 547" clip-path="url(#clip-path)">
    <path id="Path_2063" data-name="Path 2063" d="M66.941,83.644c0,.438-.642.794-1.434.794s-1.435-.356-1.435-.794.642-.794,1.435-.794,1.434.356,1.434.794" transform="translate(-47.888 -61.922)" fill="#617f88"/>
    <path id="Path_2064" data-name="Path 2064" d="M64.073,149.667V85.994c0,.439.642.794,1.434.794s1.434-.355,1.434-.794v63.673c0,.438-.642.794-1.434.794s-1.434-.356-1.434-.794" transform="translate(-47.888 -64.272)" fill="#2a424b"/>
    <path id="Path_2065" data-name="Path 2065" d="M66.941,83.644c0,.438-.642.794-1.434.794s-1.435-.356-1.435-.794.642-.794,1.435-.794,1.434.356,1.434.794" transform="translate(-47.888 -61.922)" fill="#617f88"/>
    <path id="Path_2066" data-name="Path 2066" d="M13.861,136.46,26.544,86c0,.438.642.794,1.434.794s1.434-.356,1.434-.794L16.73,136.46c0,.439-.642.794-1.434.794s-1.434-.356-1.434-.794" transform="translate(-10.36 -64.273)" fill="#2a424b"/>
    <path id="Path_2067" data-name="Path 2067" d="M66.941,83.644c0,.438-.642.794-1.434.794s-1.435-.356-1.435-.794.642-.794,1.435-.794,1.434.356,1.434.794" transform="translate(-47.888 -61.922)" fill="#617f88"/>
    <path id="Path_2068" data-name="Path 2068" d="M76.756,136.46,64.073,86c0,.438.642.794,1.434.794s1.434-.356,1.434-.794L79.625,136.46c0,.439-.642.794-1.434.794s-1.434-.356-1.434-.794" transform="translate(-47.888 -64.273)" fill="#2a424b"/>
    <path id="Path_2069" data-name="Path 2069" d="M66.941,53.232c0,.439-.642.794-1.434.794s-1.435-.356-1.435-.794.642-.794,1.435-.794,1.434.356,1.434.794" transform="translate(-47.888 -39.192)" fill="#617f88"/>
    <path id="Path_2070" data-name="Path 2070" d="M64.073,63.081v-7.5c0,.439.642.794,1.434.794s1.434-.356,1.434-.794v7.5c0,.439-.642.794-1.434.794s-1.434-.356-1.434-.794" transform="translate(-47.888 -41.542)" fill="#2a424b"/>
    <path id="Path_2071" data-name="Path 2071" d="M52.787,40.2l4.177-2.412a.692.692,0,0,0,0-1.2L50.15,32.66a1.384,1.384,0,0,0-1.384,0l-4.177,2.412a.692.692,0,0,0,0,1.2L51.4,40.2a1.384,1.384,0,0,0,1.384,0" transform="translate(-33.067 -24.272)" fill="#2a424b"/>
    <path id="Path_2072" data-name="Path 2072" d="M57.312,46.643a.686.686,0,0,1-.346.6l-4.177,2.412a1.385,1.385,0,0,1-1.384,0L44.59,45.722a.685.685,0,0,1-.346-.6v1.134a.685.685,0,0,0,.346.6L51.4,50.787a1.385,1.385,0,0,0,1.384,0l4.177-2.412a.686.686,0,0,0,.346-.6Z" transform="translate(-33.068 -33.723)" fill="#617f88"/>
    <path id="Path_2073" data-name="Path 2073" d="M36.418,27.692a.605.605,0,0,1-.309.531l.493-.284a.6.6,0,0,0,.308-.53V22.361l-.491.283Z" transform="translate(-26.988 -16.713)" fill="#2a424b"/>
    <path id="Path_2074" data-name="Path 2074" d="M10.256,4.668,2.315.083a.6.6,0,0,0-.608,0L1.214.366a.6.6,0,0,1,.61,0L9.765,4.951a1.114,1.114,0,0,1,.572.98l.493-.284a1.127,1.127,0,0,0-.574-.98" transform="translate(-0.907 0)" fill="#2a424b"/>
    <path id="Path_2075" data-name="Path 2075" d="M8.859,5.793.917,1.208A.611.611,0,0,0,0,1.737V6.773a1.145,1.145,0,0,0,.573.992L8.514,12.35a.611.611,0,0,0,.916-.529V6.785a1.145,1.145,0,0,0-.573-.992" transform="translate(0 -0.841)" fill="#617f88"/>
    <path id="Path_2076" data-name="Path 2076" d="M63.716,12.291a5.683,5.683,0,0,1,2.579,4.466c0,1.642-1.167,2.3-2.6,1.479a5.682,5.682,0,0,1-2.578-4.466c0-1.642,1.167-2.3,2.6-1.479" transform="translate(-45.682 -8.921)" fill="#617f88"/>
    <path id="Path_2077" data-name="Path 2077" d="M72.429,7.807l-4.642,2.68a1.809,1.809,0,0,0,.757-1.66A5.682,5.682,0,0,0,65.965,4.36a1.829,1.829,0,0,0-1.835-.183L68.773,1.5a1.829,1.829,0,0,1,1.834.184,5.683,5.683,0,0,1,2.578,4.466,1.81,1.81,0,0,1-.757,1.661" transform="translate(-47.931 -0.991)" fill="#2a424b"/>
    <path id="Path_2078" data-name="Path 2078" d="M82.633,41.078a.753.753,0,0,1-.385.661l6.273-3.583a.75.75,0,0,0,.383-.66V31.263l-6.271,3.582Z" transform="translate(-61.472 -23.366)" fill="#2a424b"/>
    <path id="Path_2079" data-name="Path 2079" d="M55.75,9.255l-9.878-5.7a.753.753,0,0,0-.757,0L38.843,7.132a.752.752,0,0,1,.758,0l9.878,5.7a1.385,1.385,0,0,1,.712,1.22l6.273-3.583a1.4,1.4,0,0,0-.714-1.219" transform="translate(-29.031 -2.578)" fill="#2a424b"/>
    <path id="Path_2080" data-name="Path 2080" d="M48.351,23.437l-9.878-5.7a.76.76,0,0,0-1.139.658l0,6.219a1.424,1.424,0,0,0,.712,1.233l9.878,5.7a.76.76,0,0,0,1.139-.658l0-6.219a1.424,1.424,0,0,0-.712-1.233" transform="translate(-27.902 -13.177)" fill="#617f88"/>
    <path id="Path_2081" data-name="Path 2081" d="M71.512,39.881a.867.867,0,0,1,.394.682c0,.251-.178.352-.4.226a.868.868,0,0,1-.394-.682c0-.251.178-.352.4-.226" transform="translate(-53.152 -29.767)" fill="#2a424b"/>
    <path id="Path_2082" data-name="Path 2082" d="M77.649,42.873a.868.868,0,0,1,.394.682c0,.251-.178.352-.4.226a.868.868,0,0,1-.394-.682c0-.251.178-.352.4-.226" transform="translate(-57.739 -32.003)" fill="#2a424b"/>
    <path id="Path_2083" data-name="Path 2083" d="M71.512,45.266a.867.867,0,0,1,.394.682c0,.251-.178.352-.4.226a.868.868,0,0,1-.394-.682c0-.251.178-.352.4-.226" transform="translate(-53.152 -33.791)" fill="#2a424b"/>
    <path id="Path_2084" data-name="Path 2084" d="M47.439,29.579l-5.447-3.145a.419.419,0,0,0-.628.363v3.593a.786.786,0,0,0,.393.68L47.2,34.214a.419.419,0,0,0,.628-.363V30.259a.785.785,0,0,0-.393-.68" transform="translate(-30.915 -19.714)" fill="#ebf1f1"/>
    <path id="Path_2085" data-name="Path 2085" d="M80.922,29.365c0,.3-.443.548-.989.548s-.989-.245-.989-.548.443-.548.989-.548.989.245.989.548" transform="translate(-59.003 -21.538)" fill="#dee9e9"/>
    <path id="Path_2086" data-name="Path 2086" d="M78.944,31.673v-.688c0,.3.443.548.989.548s.989-.245.989-.548v.688c0,.3-.443.548-.989.548s-.989-.245-.989-.548" transform="translate(-59.003 -23.158)" fill="#617f88"/>
    <path id="Path_2087" data-name="Path 2087" d="M71.19,52.707a2.836,2.836,0,0,1,1.287,2.229c0,.819-.582,1.15-1.3.738a2.837,2.837,0,0,1-1.287-2.229c0-.819.582-1.15,1.3-.738" transform="translate(-52.24 -39.261)" fill="#2a424b"/>
    <path id="Path_2088" data-name="Path 2088" d="M73.9,53.875l.29.5-.582-.336Z" transform="translate(-55.015 -40.266)" fill="#617f88"/>
    <path id="Path_2089" data-name="Path 2089" d="M73.608,61.863l.582.336-.292.167Z" transform="translate(-55.015 -46.237)" fill="#617f88"/>
    <path id="Path_2090" data-name="Path 2090" d="M78.241,59.712l.29.5-.292.166Z" transform="translate(-58.476 -44.629)" fill="#617f88"/>
    <path id="Path_2091" data-name="Path 2091" d="M70.643,55.865l0,.669-.29-.5Z" transform="translate(-52.58 -41.754)" fill="#617f88"/>
    <path id="Path_2092" data-name="Path 2092" d="M73.561,56.682a1.074,1.074,0,0,1,.487.844c0,.31-.221.435-.491.279a1.073,1.073,0,0,1-.487-.844c0-.31.22-.435.49-.279" transform="translate(-54.613 -42.314)" fill="#617f88"/>
  </g>
</svg>
