<svg id="Group_2764" data-name="Group 2764" xmlns="http://www.w3.org/2000/svg" xmlns:xlink="http://www.w3.org/1999/xlink" width="65.659" height="96.357" viewBox="0 0 65.659 96.357">
  <defs>
    <clipPath id="clip-path">
      <rect id="Rectangle_791" data-name="Rectangle 791" width="65.659" height="96.357" fill="none"/>
    </clipPath>
  </defs>
  <g id="Group_2357" data-name="Group 2357" clip-path="url(#clip-path)">
    <path id="Path_9257" data-name="Path 9257" d="M93.654,35.585A1.573,1.573,0,0,0,91,35.473c-.634.937-.875,2.033-.352,4.225L94,50.359l1.351,4.262,2.743.172L96.8,48.014s-1.929-7.331-2.071-8.678a9.465,9.465,0,0,0-1.079-3.752" transform="translate(-55.599 -21.411)" fill="#91b1b3"/>
    <path id="Path_9258" data-name="Path 9258" d="M57.836,188.485l-.444,1.252a2.574,2.574,0,0,0-.14,1.06l.077.983A1.536,1.536,0,0,0,58.3,193.1a3.529,3.529,0,0,0,1.283.255,7.556,7.556,0,0,0,5.124,2c1.582.035,1.673-1.735.862-2.7A4.07,4.07,0,0,0,64,191.624a5.12,5.12,0,0,1-2.937-3.2,15.289,15.289,0,0,0-3.226.062" transform="translate(-35.222 -115.898)" fill="#2a424b"/>
    <path id="Path_9259" data-name="Path 9259" d="M79.088,175.466l-.444,1.252a2.583,2.583,0,0,0-.14,1.061l.077.983a1.536,1.536,0,0,0,.968,1.318,3.529,3.529,0,0,0,1.283.255,7.556,7.556,0,0,0,5.124,2c1.582.035,1.673-1.735.862-2.7a4.069,4.069,0,0,0-1.567-1.029,5.121,5.121,0,0,1-2.937-3.2,15.288,15.288,0,0,0-3.226.062" transform="translate(-48.298 -107.887)" fill="#2a424b"/>
    <path id="Path_9260" data-name="Path 9260" d="M58.629,111.788,58.1,94.694l.31-3.971s1.849,1.686,7.374,1.869c4.545.15,6.816-1.506,6.816-1.506l-1.309,17.056-1.173,16.342a3.27,3.27,0,0,1-2.007.484,3.416,3.416,0,0,1-2.254-.749l.519-14.405-.648-12.566-2.173,13.035-1.625,18.073a3.3,3.3,0,0,1-2.049.693,3.5,3.5,0,0,1-2.094-.664Z" transform="translate(-35.557 -55.821)" fill="#2a424b"/>
    <path id="Path_9261" data-name="Path 9261" d="M58.22,55.316l-.17-6.65.056-13.055a2.573,2.573,0,0,1,1.788-2.805c3.187-1.232,6.922-2.765,12.723-.576.794.3,1.054,1.187,1.3,1.934a7.067,7.067,0,0,1,.324,2.8l-.144,1.62q-.269,4.636-.54,9.272c-.114,1.959-.317,3.89-.566,5.842-.11.859-.126,2.187-.126,2.187s-1.847,1.405-7.109,1.3c-5.732-.117-7.532-1.865-7.532-1.865" transform="translate(-35.717 -19.151)" fill="#bfd4d5"/>
    <path id="Path_9262" data-name="Path 9262" d="M76.567,23.407c-1-.031-1.546.514-1.562,1L74.4,27.651c.028.566.974,1.053,2.111,1.089s2.036-.394,2.008-.96l-.385-3.423c-.025-.5-.566-.919-1.564-.95" transform="translate(-45.776 -14.401)" fill="#f3b7ba"/>
    <path id="Path_9263" data-name="Path 9263" d="M73.575,2.71c-2.843-.067-3.694,2.042-3.775,4.631a4.514,4.514,0,0,0,3.209,4.847c1.375.448,3.089.863,4.228-1.762a10.342,10.342,0,0,0,.426-5.384c-.274-.938-1.245-2.265-4.088-2.332" transform="translate(-42.945 -1.667)" fill="#f9c3c0"/>
    <path id="Path_9264" data-name="Path 9264" d="M74.4,3.338a6.63,6.63,0,0,1-3.47,2.426c-.692.241-.726,1.145-.726,1.145a1.642,1.642,0,0,0-1.469,1.639c-1.229-1.037-3.237-5.9.208-7.443,0,0,1.811-2.348,5.863-.195a3.172,3.172,0,0,1,1.323,4.577A3.349,3.349,0,0,0,74.4,3.338" transform="translate(-41.242 0)" fill="#2a424b"/>
    <path id="Path_9265" data-name="Path 9265" d="M72.006,16.863s-.019-.964-.85-.864c-.709.085-.707.544-.528,1.353s.658,1.206,1.155,1.2.223-1.688.223-1.688" transform="translate(-43.395 -9.84)" fill="#f9c3c0"/>
    <path id="Path_9266" data-name="Path 9266" d="M78.35,32.615c-.04,1.261-1.5,2.239-3.271,2.183s-3.168-1.123-3.128-2.384a1.75,1.75,0,0,1,.327-.948,12.054,12.054,0,0,1,5.557-.155,1.857,1.857,0,0,1,.515,1.3" transform="translate(-44.27 -19.111)" fill="#f3b7ba"/>
    <path id="Path_9267" data-name="Path 9267" d="M58.933,37.6a1.727,1.727,0,0,0-2.865-.545c-.839.916-1.276,2.069-1.058,4.534l1.126,11.837,6.082,5.511,1.94-2.041-4.792-4.928s.079-8.634.14-10.119a10.39,10.39,0,0,0-.572-4.248" transform="translate(-33.813 -22.46)" fill="#91b1b3"/>
    <path id="Path_9268" data-name="Path 9268" d="M114.295,190.625c-.678.093-1.1.749-1.024,1.8a5.465,5.465,0,0,0,2.5,4.031,2.146,2.146,0,0,0,.746.253,1.821,1.821,0,0,1-1.1-.253,5.465,5.465,0,0,1-2.5-4.031c-.084-1.22.495-1.907,1.374-1.8" transform="translate(-69.474 -117.282)" fill="#2a424b"/>
    <path id="Path_9269" data-name="Path 9269" d="M118.265,196.246a.1.1,0,0,0,.067-.117l-1.614-5.933a.1.1,0,0,0-.184.05l1.615,5.933a.1.1,0,0,0,.117.067" transform="translate(-71.7 -116.981)" fill="#384249"/>
    <path id="Path_9270" data-name="Path 9270" d="M117.719,197.692a.081.081,0,0,0,.047-.142l-4.525-3.871a.081.081,0,0,0-.105.123l4.525,3.871a.08.08,0,0,0,.059.019" transform="translate(-69.593 -119.156)" fill="#384249"/>
    <path id="Path_9271" data-name="Path 9271" d="M118.165,198.544a.081.081,0,1,0,0-.162l-4-.007a.081.081,0,0,0,0,.162Z" transform="translate(-70.198 -122.057)" fill="#384249"/>
    <path id="Path_9272" data-name="Path 9272" d="M115.7,197.027a.081.081,0,0,0,.057-.024l2.845-2.845a.081.081,0,1,0-.115-.115l-2.845,2.845a.081.081,0,0,0,.057.139" transform="translate(-71.141 -119.378)" fill="#384249"/>
    <path id="Path_9273" data-name="Path 9273" d="M118.718,197.705l-.328.189a.633.633,0,0,0,.265-.581,1.99,1.99,0,0,0-.9-1.563.64.64,0,0,0-.642-.064l.328-.189a.641.641,0,0,1,.642.064,1.989,1.989,0,0,1,.9,1.563.634.634,0,0,1-.265.581" transform="translate(-72.057 -120.25)" fill="#4b6561"/>
    <path id="Path_9274" data-name="Path 9274" d="M116.419,196.569a1.989,1.989,0,0,0,.9,1.563c.5.289.906.057.908-.518a1.99,1.99,0,0,0-.9-1.563c-.5-.289-.907-.057-.908.518" transform="translate(-71.631 -120.551)" fill="#b0bec3"/>
    <path id="Path_9275" data-name="Path 9275" d="M118.206,195.332l-.357.206a2.237,2.237,0,0,0,.936-2.053,7.029,7.029,0,0,0-3.188-5.523,2.261,2.261,0,0,0-2.269-.227l.358-.207a2.262,2.262,0,0,1,2.268.227,7.027,7.027,0,0,1,3.188,5.523,2.239,2.239,0,0,1-.936,2.053" transform="translate(-69.729 -115.254)" fill="#2a424b"/>
    <path id="Path_9276" data-name="Path 9276" d="M114.093,188.293a7.026,7.026,0,0,1,3.188,5.522c-.006,2.03-1.442,2.849-3.209,1.829a7.028,7.028,0,0,1-3.188-5.523c.006-2.03,1.443-2.848,3.209-1.829m-2.3,2.445a5.41,5.41,0,0,0,2.478,3.991c1.264.679,2.2-.006,2.1-1.53a5.41,5.41,0,0,0-2.478-3.991c-1.263-.679-2.2.005-2.1,1.53" transform="translate(-68.226 -115.584)" fill="#617f88"/>
    <path id="Path_9277" data-name="Path 9277" d="M156.523,215.007c-.678.093-1.1.749-1.024,1.8a5.465,5.465,0,0,0,2.5,4.031,2.146,2.146,0,0,0,.746.253,1.821,1.821,0,0,1-1.1-.253,5.466,5.466,0,0,1-2.5-4.031c-.084-1.22.5-1.907,1.374-1.8" transform="translate(-95.456 -132.284)" fill="#2a424b"/>
    <path id="Path_9278" data-name="Path 9278" d="M160.5,220.627a.1.1,0,0,0,.067-.117l-1.614-5.934a.1.1,0,1,0-.184.05l1.614,5.933a.1.1,0,0,0,.117.067" transform="translate(-97.684 -131.983)" fill="#384249"/>
    <path id="Path_9279" data-name="Path 9279" d="M159.948,222.073a.081.081,0,0,0,.047-.142l-4.525-3.871a.081.081,0,1,0-.105.123l4.525,3.871a.08.08,0,0,0,.059.019" transform="translate(-95.576 -134.157)" fill="#384249"/>
    <path id="Path_9280" data-name="Path 9280" d="M160.4,222.925a.081.081,0,1,0,0-.162l-4-.008h0a.081.081,0,0,0,0,.162Z" transform="translate(-96.181 -137.058)" fill="#384249"/>
    <path id="Path_9281" data-name="Path 9281" d="M157.932,221.408a.081.081,0,0,0,.057-.024l2.845-2.845a.081.081,0,1,0-.115-.115l-2.845,2.845a.081.081,0,0,0,.057.138" transform="translate(-97.124 -134.379)" fill="#384249"/>
    <path id="Path_9282" data-name="Path 9282" d="M160.948,222.086l-.328.189a.633.633,0,0,0,.265-.581,1.99,1.99,0,0,0-.9-1.563.64.64,0,0,0-.642-.064l.328-.189a.641.641,0,0,1,.642.064,1.988,1.988,0,0,1,.9,1.563.633.633,0,0,1-.265.581" transform="translate(-98.041 -135.251)" fill="#4b6561"/>
    <path id="Path_9283" data-name="Path 9283" d="M158.648,220.951a1.991,1.991,0,0,0,.9,1.563c.5.289.907.057.908-.518a1.99,1.99,0,0,0-.9-1.563c-.5-.289-.907-.057-.908.518" transform="translate(-97.614 -135.553)" fill="#b0bec3"/>
    <path id="Path_9284" data-name="Path 9284" d="M160.436,219.714l-.357.206a2.238,2.238,0,0,0,.936-2.053,7.028,7.028,0,0,0-3.188-5.523,2.261,2.261,0,0,0-2.269-.227l.358-.207a2.263,2.263,0,0,1,2.269.227,7.027,7.027,0,0,1,3.188,5.523,2.238,2.238,0,0,1-.936,2.053" transform="translate(-95.712 -130.256)" fill="#2a424b"/>
    <path id="Path_9285" data-name="Path 9285" d="M156.322,212.674a7.026,7.026,0,0,1,3.188,5.522c-.006,2.03-1.442,2.849-3.209,1.829a7.028,7.028,0,0,1-3.188-5.523c.006-2.03,1.443-2.848,3.209-1.829m-2.3,2.445a5.41,5.41,0,0,0,2.478,3.991c1.264.679,2.2-.006,2.1-1.53a5.41,5.41,0,0,0-2.478-3.991c-1.263-.679-2.2.005-2.1,1.53" transform="translate(-94.209 -130.585)" fill="#617f88"/>
    <path id="Path_9286" data-name="Path 9286" d="M134.1,184.634a.515.515,0,0,1-.26-.071l-16.176-9.45a.516.516,0,0,1-.159-.746l10.187-14.224a.516.516,0,0,1,.92.174l5.989,23.674a.516.516,0,0,1-.5.643m-15.427-10.126,14.624,8.544-5.414-21.4Z" transform="translate(-72.239 -98.401)" fill="#b0bec3"/>
    <path id="Path_9287" data-name="Path 9287" d="M131.759,229.276a.516.516,0,0,1-.274-.954l10.853-6.779a.516.516,0,1,1,.547.875L132.032,229.2a.513.513,0,0,1-.273.078" transform="translate(-80.752 -136.264)" fill="#b0bec3"/>
    <path id="Path_9288" data-name="Path 9288" d="M89.676,204.293a.516.516,0,0,1-.274-.954l10.853-6.779a.516.516,0,1,1,.547.875l-10.853,6.779a.51.51,0,0,1-.273.078" transform="translate(-54.859 -120.892)" fill="#b0bec3"/>
    <path id="Path_9289" data-name="Path 9289" d="M138.705,175.768a2.494,2.494,0,0,1-1.265-.344l-11.586-6.8a2.5,2.5,0,0,1,.041-4.335l5.6-3.147a2.5,2.5,0,0,1,3.367.89l5.989,9.948a2.5,2.5,0,0,1-2.143,3.79Z" transform="translate(-78.215 -100.489)" fill="#b0bec3"/>
    <path id="Path_9290" data-name="Path 9290" d="M125.6,127.555a.516.516,0,0,1-.474-.312l-9.53-22.17a.516.516,0,0,1,.948-.408l9.531,22.17a.516.516,0,0,1-.474.72" transform="translate(-71.099 -64.207)" fill="#b0bec3"/>
    <path id="Path_9291" data-name="Path 9291" d="M80.747,134.435c0-2.5,3.666-4.533,8.187-4.533a12.393,12.393,0,0,1,5.574,1.215l-.006,0,5.086,12.542L88.258,150.2c-1.5-.822-2.431-1.962-2.431-3.223l-4.532-10.914c-.063-.09-.121-.182-.174-.275a2.733,2.733,0,0,1-.374-1.357" transform="translate(-49.683 -79.927)" fill="#9cdbdc"/>
    <path id="Path_9292" data-name="Path 9292" d="M116.19,143.325l-11.324,6.538L87.084,139.6l11.324-6.538Z" transform="translate(-53.582 -81.869)" fill="#d8f0f4"/>
    <path id="Path_9293" data-name="Path 9293" d="M131.053,190.552a12.385,12.385,0,0,1-5.574-1.215l1.256-3.277a12.394,12.394,0,0,0,5.574,1.215c3.43,0,6.361-1.17,7.579-2.826l-.358.868a6.222,6.222,0,0,0-.311,1.071l-.5,1.207c-1.157,1.726-4.151,2.958-7.671,2.958" transform="translate(-77.206 -113.488)" fill="#9cdbdc"/>
    <path id="Path_9294" data-name="Path 9294" d="M138.88,167.492a12.4,12.4,0,0,1-5.574-1.214l11.331-6.542c1.5.822,2.431,1.962,2.431,3.223,0,2.5-3.666,4.533-8.187,4.533" transform="translate(-82.022 -98.283)" fill="#d8f0f4"/>
    <path id="Path_9295" data-name="Path 9295" d="M88.951,129.893a12.4,12.4,0,0,1,5.574,1.214l-11.331,6.542c-1.5-.822-2.431-1.962-2.431-3.223,0-2.5,3.666-4.533,8.187-4.533" transform="translate(-49.693 -79.921)" fill="#d8f0f4"/>
    <path id="Path_9296" data-name="Path 9296" d="M94.228,172.161c-1.5-.822-2.431-1.962-2.431-3.223l-1.356-3.345a5.769,5.769,0,0,0,1.668,1.321Z" transform="translate(-55.647 -101.887)" fill="#9cdbdc"/>
    <path id="Path_9297" data-name="Path 9297" d="M107.844,176.57l-1.256,3.277L96.9,174.269l-2.126-5.244Z" transform="translate(-58.314 -103.999)" fill="#9cdbdc"/>
    <path id="Path_9298" data-name="Path 9298" d="M108.4,145.26a8.025,8.025,0,0,0-2.575-.429c-2.1.023-4.46.318-5.733,1.985a4.7,4.7,0,0,0-.39,4.608,8.7,8.7,0,0,0,3.16,3.589,15.417,15.417,0,0,0,5.55,2.419,8.554,8.554,0,0,0,3.721.093,4.566,4.566,0,0,0,2.984-2.093,5.927,5.927,0,0,0,.437-4.141c-.4-1.3-1.99-2.385-2.936-3.279a11.9,11.9,0,0,0-3.115-2.319,10.82,10.82,0,0,0-1.1-.432" transform="translate(-61.088 -89.112)" fill="#617f88"/>
    <path id="Path_9299" data-name="Path 9299" d="M133.183,166.638a1.951,1.951,0,0,0,.371-.346,3.55,3.55,0,0,0,.861-2.731,3.017,3.017,0,0,0-.873-1.778.292.292,0,0,1-.092-.11.3.3,0,0,1,.015-.18,1.018,1.018,0,0,0-.152-.906.8.8,0,0,0-.869-.237c-.078.028-.151.069-.23.094-.352.114-.649-.09-.99-.12a3.283,3.283,0,0,0-1.291.145,3.362,3.362,0,0,0-2.153,2.241,5.415,5.415,0,0,0-.163,1.427,4.079,4.079,0,0,0,.066.931c.059.263.228.4.187.7a2.917,2.917,0,0,0-.068.5.782.782,0,0,0,.879.711,1.247,1.247,0,0,0,.662-.272,2.682,2.682,0,0,0,1.078.392c.125.019.252.032.379.039a3.677,3.677,0,0,0,2.383-.5" transform="translate(-78.521 -98.635)" fill="#facdcb"/>
    <path id="Path_9300" data-name="Path 9300" d="M127.335,150.377q1.3,1.18,2.606,2.362a.533.533,0,0,1,.2.278c.038.21-.172.373-.355.481a46.614,46.614,0,0,1-4.717,2.423.894.894,0,0,1-.664.1.8.8,0,0,1-.367-.373,5.248,5.248,0,0,1,0-4.592,3.707,3.707,0,0,1,.637-1.084,1.493,1.493,0,0,1,1.274-.569,3.607,3.607,0,0,1,1.39.969" transform="translate(-75.99 -91.917)" fill="#dee9e9"/>
    <path id="Path_9301" data-name="Path 9301" d="M106.168,144.306a7.162,7.162,0,0,0-1.13.071,8.081,8.081,0,0,1-1.347.013,9.863,9.863,0,0,0-1.9.347,4.58,4.58,0,0,0-3.1,1.815,5.331,5.331,0,0,0-.307,4.7,8.864,8.864,0,0,0,2.877,3.691,13.379,13.379,0,0,0,5.015,2.519,5.29,5.29,0,0,0,3.279.066.638.638,0,0,0,.341-.274.914.914,0,0,0,.048-.473q-.248-3.4-.5-6.809c-.086-1.183,1-2.09,1.012-3.259a1.3,1.3,0,0,0-.372-.981,2.064,2.064,0,0,0-.525-.322q-.6-.286-1.21-.544a7,7,0,0,0-1.616-.511,4.494,4.494,0,0,0-.57-.05" transform="translate(-60.29 -88.788)" fill="#fff"/>
    <path id="Path_9302" data-name="Path 9302" d="M130.434,134.022c.406-1.151,2.256-1.215,3.2-.653l3.152,1.872a3.651,3.651,0,0,0-3.77.449c-3.131,1.954-5.669,6.9-5.669,11.051v3.1l-2.016-1.2c-.473-.281-1.295-.625-1.506-1.183a4.78,4.78,0,0,1-.177-1.9,1.737,1.737,0,0,1,.9-1.408,2.568,2.568,0,0,1-.673-2,1.83,1.83,0,0,1,.425-.927c.246-.285.607-.308.851-.522.219-.194.024-.723.042-1.053a2.852,2.852,0,0,1,.3-1.147,2.379,2.379,0,0,1,1.77-1.291.206.206,0,0,0,.138-.052.2.2,0,0,0,.033-.119,2.707,2.707,0,0,1,2.919-2.518,1.489,1.489,0,0,1,.08-.5" transform="translate(-76.065 -81.848)" fill="#9cdbdc"/>
    <path id="Path_9303" data-name="Path 9303" d="M138.542,137.3a4.281,4.281,0,0,1,5.07.669c5.119,4.107,3.455,10.834,3.455,10.834,0,2.5-3.666,4.533-8.187,4.533a12.394,12.394,0,0,1-5.574-1.215v-3.1c0-4.156,1.216-9.469,5.236-11.72" transform="translate(-82.022 -84.129)" fill="#9cdbdc"/>
    <path id="Path_9304" data-name="Path 9304" d="M87.084,150.054l17.781,10.266-.249.65-1.506,3.928-13.068-7.545L87.467,151l-.384-.945h0" transform="translate(-53.581 -92.326)" fill="#9cdbdc"/>
    <path id="Path_9305" data-name="Path 9305" d="M134.064,174.53c3.776,0,6.956-1.416,7.9-3.34.15-.305-1.7,4.185-2.434,5.959a6.931,6.931,0,0,0-.346,1.232c-.473,2.254-3.933,4-8.132,4a12.39,12.39,0,0,1-5.574-1.215l3.012-7.854a12.4,12.4,0,0,0,5.574,1.214" transform="translate(-77.205 -105.321)" fill="#9cdbdc"/>
    <path id="Path_9306" data-name="Path 9306" d="M104.932,201.473a.515.515,0,0,1-.26-.071L88.5,191.952a.516.516,0,0,1-.159-.746l10.187-14.224a.516.516,0,0,1,.92.174l5.989,23.675a.516.516,0,0,1-.5.642M89.505,191.347l14.624,8.545-5.414-21.4Z" transform="translate(-54.293 -108.762)" fill="#b0bec3"/>
    <path id="Path_9307" data-name="Path 9307" d="M95.93,131.194a.516.516,0,0,1-.474-.312L86,108.889c-1.692-.841-2.658-2.073-2.658-3.4,0-2.5,3.36-4.465,7.648-4.465a10.857,10.857,0,0,1,5.526,1.356.516.516,0,1,1-.534.883,9.962,9.962,0,0,0-4.992-1.207c-3.586,0-6.616,1.572-6.616,3.433,0,.958.817,1.889,2.241,2.554a.515.515,0,0,1,.256.264l9.531,22.17a.516.516,0,0,1-.474.72" transform="translate(-51.281 -62.157)" fill="#b0bec3"/>
    <path id="Path_9308" data-name="Path 9308" d="M113.674,175.32a2.015,2.015,0,0,1,.914,1.582c0,.582-.414.816-.92.524a2.013,2.013,0,0,1-.913-1.583c0-.582.413-.816.919-.524" transform="translate(-69.377 -107.794)" fill="#617f88"/>
    <path id="Path_9309" data-name="Path 9309" d="M115.115,176.942l-.365.211a.641.641,0,0,0,.268-.588,2.013,2.013,0,0,0-.914-1.583.648.648,0,0,0-.65-.065l.365-.211a.649.649,0,0,1,.65.065,2.014,2.014,0,0,1,.914,1.583.641.641,0,0,1-.268.588" transform="translate(-69.807 -107.457)" fill="#2a424b"/>
    <path id="Path_9310" data-name="Path 9310" d="M89.636,119.321a2.014,2.014,0,0,1,.914,1.582c0,.582-.414.816-.92.524a2.014,2.014,0,0,1-.913-1.583c0-.582.413-.816.919-.524" transform="translate(-54.587 -73.339)" fill="#617f88"/>
    <path id="Path_9311" data-name="Path 9311" d="M91.078,120.944l-.365.211a.641.641,0,0,0,.268-.588,2.014,2.014,0,0,0-.913-1.583.65.65,0,0,0-.651-.065l.366-.211a.648.648,0,0,1,.65.065,2.014,2.014,0,0,1,.914,1.583.641.641,0,0,1-.268.588" transform="translate(-55.017 -73.002)" fill="#2a424b"/>
    <path id="Path_9312" data-name="Path 9312" d="M114.768,103.06a2.014,2.014,0,0,1,.914,1.582c0,.582-.414.816-.92.524a2.014,2.014,0,0,1-.913-1.583c0-.582.413-.816.919-.524" transform="translate(-70.05 -63.334)" fill="#617f88"/>
    <path id="Path_9313" data-name="Path 9313" d="M116.21,104.683l-.365.211a.641.641,0,0,0,.268-.588,2.012,2.012,0,0,0-.914-1.583.649.649,0,0,0-.65-.065l.366-.211a.648.648,0,0,1,.65.065,2.014,2.014,0,0,1,.914,1.583.641.641,0,0,1-.268.588" transform="translate(-70.481 -62.997)" fill="#2a424b"/>
    <path id="Path_9314" data-name="Path 9314" d="M85.128,207.465c-.678.093-1.1.749-1.024,1.8a5.467,5.467,0,0,0,2.5,4.031,2.142,2.142,0,0,0,.745.253,1.821,1.821,0,0,1-1.1-.253,5.466,5.466,0,0,1-2.5-4.031c-.084-1.22.495-1.907,1.374-1.8" transform="translate(-51.528 -127.643)" fill="#2a424b"/>
    <path id="Path_9315" data-name="Path 9315" d="M89.1,213.085a.1.1,0,0,0,.067-.117l-1.614-5.934a.1.1,0,1,0-.184.05l1.614,5.933a.1.1,0,0,0,.117.067" transform="translate(-53.755 -127.342)" fill="#384249"/>
    <path id="Path_9316" data-name="Path 9316" d="M88.552,214.531a.08.08,0,0,0,.055-.028.081.081,0,0,0-.009-.114l-4.525-3.871a.081.081,0,0,0-.105.124l4.525,3.871a.08.08,0,0,0,.059.019" transform="translate(-51.647 -129.516)" fill="#384249"/>
    <path id="Path_9317" data-name="Path 9317" d="M89,215.383a.081.081,0,1,0,0-.162l-4-.007h0a.081.081,0,0,0,0,.162l4,.007Z" transform="translate(-52.252 -132.418)" fill="#384249"/>
    <path id="Path_9318" data-name="Path 9318" d="M86.536,213.865a.081.081,0,0,0,.057-.024L89.439,211a.081.081,0,1,0-.115-.115l-2.845,2.845a.081.081,0,0,0,.057.139" transform="translate(-53.195 -129.738)" fill="#384249"/>
    <path id="Path_9319" data-name="Path 9319" d="M89.552,214.544l-.328.189a.633.633,0,0,0,.265-.581,1.99,1.99,0,0,0-.9-1.563.64.64,0,0,0-.642-.064l.328-.189a.641.641,0,0,1,.642.064,1.988,1.988,0,0,1,.9,1.563.633.633,0,0,1-.265.581" transform="translate(-54.112 -130.61)" fill="#4b6561"/>
    <path id="Path_9320" data-name="Path 9320" d="M87.253,213.408a1.989,1.989,0,0,0,.9,1.563c.5.289.906.057.908-.518a1.99,1.99,0,0,0-.9-1.563c-.5-.289-.907-.057-.908.518" transform="translate(-53.686 -130.912)" fill="#b0bec3"/>
    <path id="Path_9321" data-name="Path 9321" d="M89.04,212.171l-.357.206a2.237,2.237,0,0,0,.936-2.053A7.028,7.028,0,0,0,86.43,204.8a2.261,2.261,0,0,0-2.269-.227l.358-.207a2.263,2.263,0,0,1,2.269.227,7.027,7.027,0,0,1,3.188,5.523,2.238,2.238,0,0,1-.936,2.053" transform="translate(-51.783 -125.615)" fill="#2a424b"/>
    <path id="Path_9322" data-name="Path 9322" d="M84.926,205.132a7.026,7.026,0,0,1,3.188,5.522c-.006,2.03-1.442,2.849-3.209,1.829a7.028,7.028,0,0,1-3.188-5.523c.006-2.03,1.443-2.848,3.209-1.829m-2.3,2.445a5.41,5.41,0,0,0,2.478,3.991c1.264.679,2.2-.006,2.1-1.53a5.41,5.41,0,0,0-2.478-3.99c-1.263-.679-2.2.005-2.1,1.53" transform="translate(-50.279 -125.945)" fill="#617f88"/>
    <path id="Path_9323" data-name="Path 9323" d="M127.358,231.846c-.678.093-1.1.749-1.024,1.8a5.465,5.465,0,0,0,2.5,4.031,2.146,2.146,0,0,0,.746.253,1.821,1.821,0,0,1-1.1-.253,5.465,5.465,0,0,1-2.5-4.031c-.084-1.22.495-1.907,1.374-1.8" transform="translate(-77.511 -142.645)" fill="#2a424b"/>
    <path id="Path_9324" data-name="Path 9324" d="M131.329,237.466a.1.1,0,0,0,.067-.117l-1.614-5.933a.1.1,0,0,0-.184.05l1.614,5.933a.1.1,0,0,0,.117.067" transform="translate(-79.738 -142.344)" fill="#384249"/>
    <path id="Path_9325" data-name="Path 9325" d="M130.782,238.912a.081.081,0,0,0,.047-.142L126.3,234.9a.081.081,0,1,0-.105.123l4.525,3.871a.08.08,0,0,0,.059.019" transform="translate(-77.631 -144.518)" fill="#384249"/>
    <path id="Path_9326" data-name="Path 9326" d="M131.228,239.764a.081.081,0,1,0,0-.162l-4-.008a.081.081,0,0,0,0,.162Z" transform="translate(-78.235 -147.419)" fill="#384249"/>
    <path id="Path_9327" data-name="Path 9327" d="M128.766,238.247a.081.081,0,0,0,.057-.024l2.845-2.845a.081.081,0,0,0-.115-.115l-2.845,2.845a.081.081,0,0,0,.057.139" transform="translate(-79.179 -144.74)" fill="#384249"/>
    <path id="Path_9328" data-name="Path 9328" d="M131.781,238.925l-.328.189a.632.632,0,0,0,.265-.581,1.99,1.99,0,0,0-.9-1.563.64.64,0,0,0-.642-.064l.328-.189a.641.641,0,0,1,.642.064,1.989,1.989,0,0,1,.9,1.563.634.634,0,0,1-.265.581" transform="translate(-80.094 -145.612)" fill="#4b6561"/>
    <path id="Path_9329" data-name="Path 9329" d="M129.482,237.79a1.988,1.988,0,0,0,.9,1.563c.5.289.906.057.908-.518a1.99,1.99,0,0,0-.9-1.563c-.5-.289-.907-.057-.908.518" transform="translate(-79.669 -145.914)" fill="#b0bec3"/>
    <path id="Path_9330" data-name="Path 9330" d="M131.27,236.553l-.357.206a2.238,2.238,0,0,0,.936-2.053,7.029,7.029,0,0,0-3.188-5.523,2.26,2.26,0,0,0-2.269-.227l.358-.207a2.262,2.262,0,0,1,2.268.227,7.026,7.026,0,0,1,3.189,5.523,2.239,2.239,0,0,1-.936,2.053" transform="translate(-77.767 -140.617)" fill="#2a424b"/>
    <path id="Path_9331" data-name="Path 9331" d="M127.156,229.513a7.026,7.026,0,0,1,3.188,5.522c-.006,2.03-1.442,2.849-3.209,1.829a7.028,7.028,0,0,1-3.188-5.523c.006-2.03,1.443-2.848,3.209-1.829m-2.3,2.445a5.41,5.41,0,0,0,2.478,3.991c1.264.679,2.2-.006,2.1-1.53a5.41,5.41,0,0,0-2.478-3.99c-1.263-.679-2.2.005-2.1,1.53" transform="translate(-76.263 -140.946)" fill="#617f88"/>
    <path id="Path_9332" data-name="Path 9332" d="M77.705,91.63s.859.537,1.2.779a9.883,9.883,0,0,1,1.084.883c.481.451,1.971,1.733,1.615,2.5a.667.667,0,0,1-.7.365.61.61,0,0,1-1.012.512.682.682,0,0,1-.879.335.734.734,0,0,0-.218-.09.713.713,0,0,0-.219.033,1.084,1.084,0,0,1-1-.488c-.352-.451-.658-.955-.991-1.422-.4-.557-.4-1.212-.841-1.723l-1.914-1.777L75.776,89.5Z" transform="translate(-45.431 -55.067)" fill="#f9c3c0"/>
    <path id="Path_9333" data-name="Path 9333" d="M106.38,88.389s.38.841.52,1.2a13.253,13.253,0,0,1,.644,2.305c.078.4.15.689-.188.978a.327.327,0,0,0-.08.089.494.494,0,0,0-.034.121.5.5,0,0,1-.465.38.944.944,0,0,0-.309.01.543.543,0,0,0-.133.085.724.724,0,0,1-.606.179,1.011,1.011,0,0,0-.6-.04c-.184.036-.5.143-.653-.016a.291.291,0,0,1-.062-.167A6.383,6.383,0,0,0,103.993,92a.251.251,0,0,0-.064-.1c-.2-.158-.442.393-.639.235a1.451,1.451,0,0,1-.009-1.609c.4-.58.924-1.046.766-1.842l-.9-2.358,2.743.173Z" transform="translate(-63.401 -53.113)" fill="#f9c3c0"/>
    <path id="Path_9334" data-name="Path 9334" d="M2.444,113.407l-.567-.063a2.288,2.288,0,0,0-.9.018.779.779,0,0,0-.585.618.759.759,0,0,0,.309.636,1.927,1.927,0,0,0,.665.307,9.127,9.127,0,0,0,2.079.367.8.8,0,0,0,.483-.077.775.775,0,0,0,.272-.424,10.2,10.2,0,0,0,.41-2.781,3.829,3.829,0,0,0-.19-1.795c-.342-.756-1.521-1.6-1.9-.614-.127.327-.334,3.779-.072,3.809" transform="translate(-0.241 -67.16)" fill="#f9c3c0"/>
    <path id="Path_9335" data-name="Path 9335" d="M2.478,120.189a1.181,1.181,0,0,1-.547-.279.673.673,0,0,0-.135-.132.434.434,0,0,0-.134-.044,3.393,3.393,0,0,0-.893-.062.924.924,0,0,0-.515.152.677.677,0,0,0-.229.4,1.077,1.077,0,0,0,.139.794,2.045,2.045,0,0,0,1.151.742,7.3,7.3,0,0,0,1.317.3,1.523,1.523,0,0,0,1.069-.152,1.382,1.382,0,0,0,.4-.516c.154-.294.435-.891-.08-.944a8.678,8.678,0,0,1-1.543-.259" transform="translate(0 -73.629)" fill="#4fbfc0"/>
    <path id="Path_9336" data-name="Path 9336" d="M42.285,114.5l.567-.064a2.287,2.287,0,0,1,.9.018.779.779,0,0,1,.585.618.759.759,0,0,1-.309.636,1.927,1.927,0,0,1-.665.307,9.124,9.124,0,0,1-2.079.367.8.8,0,0,1-.483-.077.773.773,0,0,1-.272-.424,10.2,10.2,0,0,1-.41-2.781,3.829,3.829,0,0,1,.19-1.795c.342-.756,1.521-1.6,1.9-.614.128.327.335,3.779.072,3.809" transform="translate(-24.671 -67.831)" fill="#f9c3c0"/>
    <path id="Path_9337" data-name="Path 9337" d="M42.128,121.28a1.177,1.177,0,0,0,.547-.279.673.673,0,0,1,.135-.132.434.434,0,0,1,.134-.044,3.393,3.393,0,0,1,.893-.062.924.924,0,0,1,.515.152.677.677,0,0,1,.229.4,1.077,1.077,0,0,1-.139.794,2.045,2.045,0,0,1-1.151.742,7.3,7.3,0,0,1-1.317.3A1.523,1.523,0,0,1,40.906,123a1.379,1.379,0,0,1-.4-.516c-.154-.294-.435-.891.08-.944a8.678,8.678,0,0,0,1.543-.259" transform="translate(-24.789 -74.3)" fill="#4fbfc0"/>
    <path id="Path_9338" data-name="Path 9338" d="M13.956,220.274a.816.816,0,0,0-.161.222,3.249,3.249,0,0,0-.458,1.88,2.15,2.15,0,0,0,.1.654,1.449,1.449,0,0,0,.788.77,7.243,7.243,0,0,0,1.063.264c.233.066.359.272.554.415a5.915,5.915,0,0,0,3.425,1.146,1.656,1.656,0,0,0,.911-.239.874.874,0,0,0,.405-.81c-.06-.421-.473-.684-.84-.9a12.177,12.177,0,0,1-2.049-1.536,5.764,5.764,0,0,1-1.258-1.973,11.324,11.324,0,0,0-2.084,0c-.2.017-.3.026-.4.1" transform="translate(-8.203 -135.437)" fill="#2a424b"/>
    <path id="Path_9339" data-name="Path 9339" d="M30.112,211.933a.815.815,0,0,0-.122.246,3.249,3.249,0,0,0-.143,1.93,2.137,2.137,0,0,0,.205.629,1.449,1.449,0,0,0,.9.63,7.256,7.256,0,0,0,1.092.086c.241.027.4.209.614.318a5.918,5.918,0,0,0,3.567.567,1.652,1.652,0,0,0,.859-.385.874.874,0,0,0,.267-.866c-.128-.405-.579-.6-.976-.749a12.176,12.176,0,0,1-2.274-1.178,5.759,5.759,0,0,1-1.565-1.74,11.34,11.34,0,0,0-2.056.344c-.2.05-.3.075-.373.168" transform="translate(-18.312 -130.084)" fill="#2a424b"/>
    <path id="Path_9340" data-name="Path 9340" d="M33.122,117.246s-.524,18.8-.788,20.467-.357,14.442-.449,16.787a7.374,7.374,0,0,1-4.539.082c-.093-4.989-.843-12.093-.438-16.941-.12-1.395-.106-8.887.028-11.626.044-3.2.2-6.547.2-6.547l2.182-2.334Z" transform="translate(-16.483 -72.071)" fill="#2a424b"/>
    <path id="Path_9341" data-name="Path 9341" d="M17.39,117.841s-1.5,19.649-1.8,21.505-.615,14.977-.8,17.59a9.049,9.049,0,0,1-4.436.028c-.147-4.085-1.335-13.306-.32-18.526-.255-4.422-1.009-15.122-1.063-17.616a14.026,14.026,0,0,1,1.059-4.153Z" transform="translate(-5.517 -71.784)" fill="#2a424b"/>
    <path id="Path_9342" data-name="Path 9342" d="M35.174,68.206a10.615,10.615,0,0,1,1.575.42c.793.337,1.537.687,2.163,3.14a58.384,58.384,0,0,1,.807,8.427l-3.756.741S33.693,71.766,33.9,70.41a3.843,3.843,0,0,1,1.271-2.2" transform="translate(-20.851 -41.966)" fill="#cedee0"/>
    <path id="Path_9343" data-name="Path 9343" d="M36.688,56.291a.882.882,0,0,0,.295.233,1.585,1.585,0,0,1-1.8.148.978.978,0,0,1,.22-.486c.272-.389.612-1.142,1.008-1.379a1.7,1.7,0,0,1,.04.616,1.826,1.826,0,0,0,.242.868" transform="translate(-21.645 -33.723)" fill="#2a424b"/>
    <path id="Path_9344" data-name="Path 9344" d="M8.07,90.114l1.751-8.693L9.39,70.428a2.31,2.31,0,0,1,1.365-2.588c2.584-1.17,4.982-2.279,9.866-.362.669.263.652,3.049.621,3.911a17.981,17.981,0,0,1,.709,3.447c-.215,2.11-.183,3.917-.482,6.727.3,3.382.329,8.754.329,8.754s-.918.7-5.272.676a42.872,42.872,0,0,1-8.455-.879" transform="translate(-4.965 -40.879)" fill="#fca167"/>
    <path id="Path_9345" data-name="Path 9345" d="M25.245,58.257c-.928-.051-1.45.444-1.475.9l-.637,3c.014.527.883,1,1.94,1.06s1.9-.322,1.889-.849l-.283-3.194c-.012-.462-.506-.867-1.434-.918" transform="translate(-14.233 -35.843)" fill="#f9c3c0"/>
    <path id="Path_9346" data-name="Path 9346" d="M23.645,37.313c-2.8-.33-3.836,1.674-4.156,4.223.4,3.074,1.638,4.615,2.719,5.083,1.316.57,2.97,1.138,4.338-1.348a10.257,10.257,0,0,0,.919-5.277c-.184-.951-1.02-2.351-3.82-2.681" transform="translate(-11.991 -22.936)" fill="#f9c3c0"/>
    <path id="Path_9347" data-name="Path 9347" d="M24.291,38.156c.025.015-.939.863-1,.906a8.881,8.881,0,0,1-3.176,1.275,2.611,2.611,0,0,0-.7.244c-.777.452-.683,1.154-.5,1.938.056.234.686,2.081,1.005,1.994a3.692,3.692,0,0,1-2.106.151c.446-1.328-.461-2.22-.859-3.389a7.868,7.868,0,0,1-.055-2.637,3.3,3.3,0,0,1,2.2-3.192s2.005-2.151,5.807.35a3.146,3.146,0,0,1,.883,4.641,3.32,3.32,0,0,0-1.508-2.281" transform="translate(-10.35 -21.28)" fill="#2a424b"/>
    <path id="Path_9348" data-name="Path 9348" d="M20.788,51.253s.071-.954-.759-.932c-.708.019-.9.484-.8,1.3A1.379,1.379,0,0,0,20.411,52.9c.492.039.377-1.645.377-1.645" transform="translate(-11.815 -30.962)" fill="#f9c3c0"/>
    <path id="Path_9349" data-name="Path 9349" d="M25.9,70.79s-3.442-1.228-3.863-3.531a1.568,1.568,0,0,1,.085-.5,9.247,9.247,0,0,1,4.63-.048,1.567,1.567,0,0,1,.1.55A5.17,5.17,0,0,1,25.9,70.79" transform="translate(-13.56 -40.88)" fill="#f9c3c0"/>
    <path id="Path_9350" data-name="Path 9350" d="M8.083,76.419a1.325,1.325,0,0,0-2.217-.292c-.6.739-.886,1.64-.611,3.518l1.892,8.825L15.3,90.277l.255-1.5-5.678-2.4s-1.149-5.591-1.168-6.731a7.968,7.968,0,0,0-.625-3.228" transform="translate(-3.168 -46.547)" fill="#f9c3c0"/>
    <path id="Path_9351" data-name="Path 9351" d="M8.847,70.079a10.615,10.615,0,0,0-1.575.42c-.793.337-1.537.687-2.163,3.14S6.162,83.06,6.162,83.06l4.034-.487S9.738,73.957,9.53,72.6a12.629,12.629,0,0,0-.683-2.521" transform="translate(-3.058 -43.119)" fill="#dee9e9"/>
    <path id="Path_9352" data-name="Path 9352" d="M31.029,66.041a1.639,1.639,0,0,1,1.2.407c.828.833-.31,1.633-.99,2.029-.539.313-1.262.431-1.762.773a6.658,6.658,0,0,0-1.236,1.489,1,1,0,0,1-.253.258c-.574.354-1.667-.961-2.032-1.321-.567-.562-.832-1.747.138-2.089,1.042-.367,3.352-1.547,4.931-1.545" transform="translate(-15.66 -40.634)" fill="#4fbfc0"/>
    <path id="Path_9353" data-name="Path 9353" d="M9.3,55.5c.148-.7,1.074-1.61,3.224-1.855s2.9,1.229,3.158,3.1a2.41,2.41,0,0,1-.512,2.241c-.158.192-.632.5-.541.7.25.538.7,1.5.7,1.5.061.332-.486.769-1.221.976s-1.382.1-1.443-.228l-.334-1.826c-1.015.141-2.07.3-2.611-.868A7.288,7.288,0,0,1,9.3,55.5" transform="translate(-5.667 -32.99)" fill="#f3b7ba"/>
    <path id="Path_9354" data-name="Path 9354" d="M16.01,56.275c-.092.143-.307.219-.409.37-.063.094-.078.213-.133.312a1.142,1.142,0,0,1-.719.484,2.035,2.035,0,0,1-.424.113c-.246.007-.472-.183-.716-.151-.193.026-.374.189-.558.128s-.251-.278-.426-.314a1.24,1.24,0,0,0-.229.007c-.235,0-.129-.166-.088-.3a1.244,1.244,0,0,0,.052-.531c-.073-.522-.3-1.064-.769-1.094a.4.4,0,0,0-.43.338,1.357,1.357,0,0,0-.035.33.735.735,0,0,1,.006.137.02.02,0,0,1-.006.011c-.059.046-.068-.087-.072-.11-.02-.141-.2-.19-.287-.3-.133-.169-.044-.462-.215-.594-.068-.052-.162-.062-.227-.117-.108-.089-.108-.267-.216-.357a.51.51,0,0,0-.366-.051.7.7,0,0,1-.345-.05.841.841,0,0,1-.347-.76,1.4,1.4,0,0,0,.008-.175,2.211,2.211,0,0,0-.066-.269.578.578,0,0,1,.166-.518,1.609,1.609,0,0,0,.23-.293,2.247,2.247,0,0,1,.863-.87.15.15,0,0,0,.056-.038.219.219,0,0,0,.026-.077c.033-.125.17-.187.292-.228a.487.487,0,0,0,.317-.2c.033-.069.03-.152.066-.22a.314.314,0,0,1,.252-.145c.1-.011.2,0,.3,0a3.535,3.535,0,0,0,.587-.125,2.083,2.083,0,0,1,1.5.374c.044.03.229,0,.289.01a1.869,1.869,0,0,1,.3.062,1.759,1.759,0,0,1,.572.271c.332.255.75.452.918.867a1.971,1.971,0,0,0,.112.279.279.279,0,0,0,.241.153.4.4,0,0,1,.106-.008.14.14,0,0,1,.085.177.5.5,0,0,1-.122.181.293.293,0,0,0-.09.2c.009.174.277.256.267.43s-.2.233-.062.413c.057.074.1.053.08.164a2.391,2.391,0,0,1-.145.326.9.9,0,0,0-.075.406c.011.1,0,.2.011.3.01.122.064.2,0,.324a1.089,1.089,0,0,0-.128.219c-.034.133.064.268.046.4a.262.262,0,0,1-.04.109" transform="translate(-5.525 -31.126)" fill="#2a424b"/>
    <path id="Path_9355" data-name="Path 9355" d="M20.166,82.791a6.883,6.883,0,0,1-3.115.709,6.655,6.655,0,0,1-3.133-1.011,2.671,2.671,0,0,1-1.291-2.237c-.024-2.033-.373-4.064-.35-6.1s1.6-2.774,3.213-3.4a9.65,9.65,0,0,1,2.827-.674c1.913-.12,1.924,3.392,2.19,4.755a30.651,30.651,0,0,1,.889,6.309,1.532,1.532,0,0,1-.048.489,1.245,1.245,0,0,1-.272.432,3.485,3.485,0,0,1-.911.723" transform="translate(-7.553 -43.119)" fill="#4fbfc0"/>
    <path id="Path_9356" data-name="Path 9356" d="M4.1,80.669a1.378,1.378,0,0,1-.345.161,4.571,4.571,0,0,0-1.206.433,1.566,1.566,0,0,0-.7,1.2C1.7,85.082,5.508,83.5,6.227,82.253a16.8,16.8,0,0,0,2.107-4.8,1.849,1.849,0,0,0-.766-1.808,1.134,1.134,0,0,0-1.678.509c-.384,1.253-.616,3.755-1.794,4.512" transform="translate(-1.135 -46.44)" fill="#4fbfc0"/>
    <path id="Path_9357" data-name="Path 9357" d="M27.848,77.827s-.294-.592-.429-.831a6.31,6.31,0,0,0-.5-.754,6.427,6.427,0,0,0-1.159-1.165l-.079-.06a12.568,12.568,0,0,0-1.217-.742c-.1-.062-.24-.2-.384-.129-.007,0-.121.083-.1.092-.005,0-.246-.136-.366-.047-.1.071-.142.191-.032.363a.3.3,0,0,0-.278-.015.214.214,0,0,0-.06.279c.028.066.3.483.3.483s-.127-.132-.229-.082c-.541.26.627,1.248.824,1.374a2.049,2.049,0,0,1,.359.252,1.967,1.967,0,0,1,.323.532,3.541,3.541,0,0,0,.846,1.084c.329.285.739.309,1.038.619l3.68,6.307a2.084,2.084,0,0,0,2.507.275,2.868,2.868,0,0,0-.1-2.475Z" transform="translate(-14.254 -45.609)" fill="#facdcb"/>
    <path id="Path_9358" data-name="Path 9358" d="M16.549,106.857a31.985,31.985,0,0,0-3.43-.384,17.137,17.137,0,0,0-4.912.026,1.856,1.856,0,0,1-.886.059,1.418,1.418,0,0,1-.651-.437c-.71-.766-1.127-1.96-.345-2.718a8.886,8.886,0,0,1,3.757-1.773,12.98,12.98,0,0,1,2.516-.224l2.366-.056c.425-.01,1.95-.293,2.271-.042.376.3.215.834.5,1.171a8.406,8.406,0,0,0,2.209,1.178,2.956,2.956,0,0,1,1.178.909,2.71,2.71,0,0,1-.385,2.76.693.693,0,0,1-.2.238.656.656,0,0,1-.393.068,9.853,9.853,0,0,1-2-.424c-.527-.141-1.059-.255-1.6-.349" transform="translate(-3.632 -62.269)" fill="#2a424b"/>
    <path id="Path_9359" data-name="Path 9359" d="M33.262,114.559s.525.239.747.326a5.627,5.627,0,0,0,2.177.384l.087,0A10.969,10.969,0,0,0,37.5,115.1c.1-.016.27,0,.33-.124,0-.006.036-.122.02-.119.005,0,.241-.043.274-.17.026-.1-.01-.207-.179-.263,0,0,.157-.026.2-.143a.187.187,0,0,0-.113-.221c-.055-.029-.467-.163-.467-.163s.159.019.2-.07c.222-.474-1.111-.5-1.314-.475a1.793,1.793,0,0,1-.382.028,1.716,1.716,0,0,1-.511-.182,3.092,3.092,0,0,0-1.168-.267c-.379-.011-.669.2-1.042.152l-1.441-.26-.235,1.5Z" transform="translate(-19.489 -69.417)" fill="#f9c3c0"/>
    <path id="Path_9360" data-name="Path 9360" d="M9.208,102.936l.471,3.205,8.152,1.807.255-1.5-5.678-2.4s-.369-.272-.62-1.582Z" transform="translate(-5.666 -63.047)" fill="#f9c3c0"/>
  </g>
</svg>
