<svg id="Group_1438" data-name="Group 1438" xmlns="http://www.w3.org/2000/svg" xmlns:xlink="http://www.w3.org/1999/xlink" width="23.57" height="76.035" viewBox="0 0 23.57 76.035">
  <defs>
    <clipPath id="clip-path">
      <rect id="Rectangle_520" data-name="Rectangle 520" width="23.57" height="76.035" fill="none"/>
    </clipPath>
    <clipPath id="clip-path-2">
      <rect id="Rectangle_519" data-name="Rectangle 519" width="23.57" height="76.034" fill="none"/>
    </clipPath>
    <clipPath id="clip-path-3">
      <rect id="Rectangle_518" data-name="Rectangle 518" width="7.331" height="8.983" fill="none"/>
    </clipPath>
  </defs>
  <g id="Group_1443" data-name="Group 1443" clip-path="url(#clip-path)">
    <g id="Group_1442" data-name="Group 1442" transform="translate(0 0)">
      <g id="Group_1441" data-name="Group 1441" clip-path="url(#clip-path-2)">
        <path id="Path_5982" data-name="Path 5982" d="M3.287,24.577c.586,1.768.274,9.366-.115,9.559-.846.418-1.826,1.543-2.551.993A29.059,29.059,0,0,1,.433,24.145c.113-.473,2.351-1.089,2.854.431" transform="translate(0 -3.033)" fill="#a1a2d0"/>
        <path id="Path_5983" data-name="Path 5983" d="M4.338,35.9c.417.928-.186,1.272-1.06,2.276S1.935,40.2,1.173,39.532-.173,37.418.949,36.7c2.919-1.856,2.919-1.856,3.389-.808" transform="translate(-0.042 -4.521)" fill="#ffb8b7"/>
        <path id="Path_5984" data-name="Path 5984" d="M5.7,18.553c-.877,1.887-2.959,6.469-3.721,7.685-.925-.282-.561-3.029-1.487-3.311a82.491,82.491,0,0,1,2.41-8.365c.641-1.706,3.671,2.11,2.8,3.991" transform="translate(-0.064 -1.816)" fill="#a1a2d0"/>
        <path id="Path_5985" data-name="Path 5985" d="M6.212,84.07c1.551-1.53,2.107-2.841,1.55-3.873-1.53-2.839-3.626.419-5.221,1.726-6.479,5.308,1.9,3.895,3.67,2.147" transform="translate(-0.016 -10.157)" fill="#31424c"/>
        <path id="Path_5986" data-name="Path 5986" d="M2.515,56.878c.84,5.805,2.531,14.023,2.259,18.4a5.036,5.036,0,0,1-.516,2.185c-.239.451-.309,1.126.112,1.2,3.473.609,3.172-2.216,3.612-4.583.377-4.135,2.294-12.314-.227-19.026-.284-.838-5.659-1.078-5.239,1.823" transform="translate(-0.32 -7.001)" fill="#ffb8b7"/>
        <path id="Path_5987" data-name="Path 5987" d="M5.006,76.97a10.456,10.456,0,0,1-.516,3.38c-.239.451-.309,1.126.112,1.2,3.473.61,3.172-2.215,3.612-4.583a2.084,2.084,0,0,1-1.673.826,2.062,2.062,0,0,1-1.534-.822" transform="translate(-0.552 -9.887)" fill="#b9baba"/>
        <path id="Path_5988" data-name="Path 5988" d="M22.242,81.909c.578-2.1.4-3.513-.594-4.129-2.745-1.693-2.93,2.176-3.659,4.1-2.957,7.836,3.592,2.424,4.252.024" transform="translate(-2.213 -9.938)" fill="#31424c"/>
        <path id="Path_5989" data-name="Path 5989" d="M5.155,60.36c3.63,4.608,9.2,10.879,11.157,14.807a5.022,5.022,0,0,1,.646,2.149c.019.51.3,1.13.7.984,3.313-1.209,1.639-3.5.837-5.776-1.742-3.769-4.17-11.81-9.71-16.362-.666-.584-5.439,1.9-3.626,4.2" transform="translate(-0.61 -7.204)" fill="#ffc9b7"/>
        <path id="Path_5990" data-name="Path 5990" d="M3.822,59.676C2.511,55.883,2.049,43.28,3.195,41.8c.483-.622,5.8,1.772,6.471,1.816C10.322,48.046,9.075,56,8.33,59.653c-.21.912-3.537,2.83-4.508.023" transform="translate(-0.327 -5.357)" fill="#ffb8b7"/>
        <path id="Path_5991" data-name="Path 5991" d="M9.906,64.22c-1.3-3.8-1.706-16.4-.554-17.874.485-.621,5.79,1.8,6.463,1.842.639,4.43-.641,12.38-1.4,16.029-.214.911-3.548,2.816-4.508,0" transform="translate(-1.114 -5.941)" fill="#ffc9b7"/>
        <path id="Path_5992" data-name="Path 5992" d="M1.9,66.15c.715,1.288,3.321,3.474,6.547,4.367,3.43.951,10.4-.488,10.463-2a159.879,159.879,0,0,0-3-37.569L3.073,26.89c.4,2.239-1.026,8.181-1.174,9.019-1.292,7.3-.793,22.8,0,30.242" transform="translate(-0.142 -3.454)" fill="#c4bead"/>
        <path id="Path_5993" data-name="Path 5993" d="M6.116,5.154c0,1.762-1.98,13.613-1.423,14.17,1.534,1.534,13.584,19.686,14.018-.11.134-6.14-3.26-8.321-3.26-12.389,0-1.108,1.026-6.187-3.8-6.775-4.268-.521-5.53,3.178-5.53,5.1" transform="translate(-0.59 0)" fill="#60350c"/>
        <path id="Path_5994" data-name="Path 5994" d="M3.061,16.514C3.41,18.676,2.79,22.646,3,22.871l.788,2.071A7.363,7.363,0,0,0,7.674,27.1,12.59,12.59,0,0,0,16.3,28.131c-.634-4.7-1-.517-.261-4.946l1.657-2.145a7.758,7.758,0,0,0-4.208-6.808l-.656-.349L7.815,11.2a3.541,3.541,0,0,0-1.546-.422c-2.382,0-3.45,4.229-3.207,5.731" transform="translate(-0.38 -1.385)" fill="#f5f5ed"/>
        <path id="Path_5995" data-name="Path 5995" d="M8.733,11l4.413,2.582.449-5L8.956,6.669Z" transform="translate(-1.122 -0.857)" fill="#ffb8b7"/>
        <path id="Path_5996" data-name="Path 5996" d="M7.693,10.93a7.782,7.782,0,0,0,.881,1.454,5.319,5.319,0,0,0,3.59,2.254,12.356,12.356,0,0,0,2.715.093c-1.42-.894-2.361-1.4-3.257-1.894a12.318,12.318,0,0,0-3.81-1.882l-.119-.025" transform="translate(-0.988 -1.404)" fill="#ffb8b7"/>
        <g id="Group_1440" data-name="Group 1440" transform="translate(9.61 20.007)" opacity="0.26">
          <g id="Group_1439" data-name="Group 1439">
            <g id="Group_1438-2" data-name="Group 1438" clip-path="url(#clip-path-3)">
              <path id="Path_5997" data-name="Path 5997" d="M11.07,27.31c.43-.672,2.368.2,3.924-1.75,1.08,1.374,3.4-4.011,3.362-2.245l-1.8,4.389c-.837,4.412.031-1.072.563,3.639a19.556,19.556,0,0,1-2.143.6c-.144-.954-4.426-3.809-3.9-4.629" transform="translate(-11.026 -22.956)" fill="#112232"/>
            </g>
          </g>
        </g>
        <path id="Path_5998" data-name="Path 5998" d="M7.29,5.856c-.24,2.5,1.74,4.671,3,4.853,1.883.273,3.623-1.7,3.863-4.195s-1.1-4.672-3-4.854-3.623,1.7-3.863,4.2" transform="translate(-0.934 -0.212)" fill="#ffc9b7"/>
        <path id="Path_5999" data-name="Path 5999" d="M14.315,7.878a1.007,1.007,0,0,0,.636,1.031c.4.058.77-.361.82-.892a.873.873,0,0,0-.636-1.031c-.4-.038-.77.361-.82.892" transform="translate(-1.838 -0.897)" fill="#ffc9b7"/>
        <path id="Path_6000" data-name="Path 6000" d="M14.156,6.149c.609-.732-.315-4.72-2.78-4.956a3.345,3.345,0,0,0-3.5,2.032,9.43,9.43,0,0,0-.465,1.754c1.28-1.651,6.169-1.318,6.748,1.17" transform="translate(-0.949 -0.151)" fill="#60350c"/>
        <path id="Path_6001" data-name="Path 6001" d="M17.12,76.238a12.571,12.571,0,0,1,1.427,3.5c.018.51.3,1.13.7.984,3.313-1.209,1.639-3.505.837-5.776a1.683,1.683,0,0,1-2.96,1.289" transform="translate(-2.199 -9.628)" fill="#b9baba"/>
        <path id="Path_6002" data-name="Path 6002" d="M8.259,17.3l-.465-6.4a3.172,3.172,0,0,0-1.525-.128c-2.382,0-3.45,4.23-3.207,5.731.349,2.161-.27,6.132-.061,6.357l.119,5.268s.455,1.591,3.13,2.236" transform="translate(-0.38 -1.381)" fill="#b1bfdd"/>
        <path id="Path_6003" data-name="Path 6003" d="M9.647,31.352c4.119,2.062,7.58.024,8.534-.191-.634-4.7-2.025-3.108-1.286-7.537l1.657-2.144a7.758,7.758,0,0,0-4.208-6.808l-.578-.465-2.379,3.479" transform="translate(-1.239 -1.825)" fill="#b1bfdd"/>
        <path id="Path_6004" data-name="Path 6004" d="M13.028,36.833l7.7-4.62c.511-.284,1.3.372,1.486.56l-.884,6.407a.647.647,0,0,1-.313.553l-1.971,1.447L12.655,37.26a.923.923,0,0,1,.373-.427" transform="translate(-1.626 -4.129)" fill="#dec6aa"/>
        <path id="Path_6005" data-name="Path 6005" d="M19.036,41.933l-5.456,4c-.1-.112-1.015-.756-1.015-1.206V38.383a.925.925,0,0,1,.078-.369Z" transform="translate(-1.614 -4.883)" fill="#bda991"/>
        <path id="Path_6006" data-name="Path 6006" d="M13.682,38.271v6.89a.141.141,0,0,0,.213.121l8.23-4.907a.647.647,0,0,0,.313-.553V33.075a.329.329,0,0,0-.5-.282l-7.806,4.682a.927.927,0,0,0-.451.8" transform="translate(-1.758 -4.207)" fill="#c7b299" fill-rule="evenodd"/>
        <path id="Path_6007" data-name="Path 6007" d="M13.679,38.255v2.037c0,1.7.328,2.015,1.865,1.06L21.5,37.719c.816-.453.973-.858.933-1.3V33.059a.329.329,0,0,0-.5-.282L14.13,37.459a.927.927,0,0,0-.451.8" transform="translate(-1.757 -4.205)" fill="#dec6aa" fill-rule="evenodd"/>
        <path id="Path_6008" data-name="Path 6008" d="M18.951,39.544V41l.157.091L19.6,40.6l.158-1.354-.158-.092Z" transform="translate(-2.434 -5.03)" fill="#d3ccba" fill-rule="evenodd"/>
        <path id="Path_6009" data-name="Path 6009" d="M19.131,39.649V41.1l.648-.4V39.26Z" transform="translate(-2.458 -5.044)" fill="#e4dace" fill-rule="evenodd"/>
        <path id="Path_6010" data-name="Path 6010" d="M14.679,35.142h-2a97.134,97.134,0,0,1,.507-11.371c.487-4.018,1.331-6.349,2.656-7.337a1.87,1.87,0,0,1,2.018-.152c1.59.8,2.687,3.625,3.2,5.239a31.374,31.374,0,0,1,1.376,9.235h-2a29.391,29.391,0,0,0-1.384-8.942c-.9-2.7-1.779-3.577-2.065-3.734-.481.405-1.3,1.713-1.814,5.932A95.306,95.306,0,0,0,14.679,35.142Z" transform="translate(-1.757 -2.191)" fill="#c7b299"/>
        <path id="Path_6011" data-name="Path 6011" d="M13.387,35.266c-.263-1.418-1.284-2.149-3.187-1.212-2.09,1.027.965,1.007-.677,2.9-.993,1.142,1.15,2.752,2.017,1.886.987-.987,2.159-1.893,1.848-3.57" transform="translate(-1.19 -4.321)" fill="#ffb8b7"/>
        <path id="Path_6012" data-name="Path 6012" d="M24.768,29.163c-1.492-3.708-10.831,3.306-12.2,3.94,0,0,.194,2.612,1.093,2.9,2.219-.613,7.77-2.272,10.812-4.009,1.175-.67.616-2.042.3-2.832" transform="translate(-1.614 -3.608)" fill="#b1bfdd"/>
        <path id="Path_6013" data-name="Path 6013" d="M16.892,24.034c3.287,5.457,3.661,5.056,5.344,7.039,1.341-.463,1.385-3.138,2.726-3.6-2.945-4.552-4.225-8.553-7.378-9.715-1.379-.508-2.812,2.758-.692,6.277" transform="translate(-2.032 -2.275)" fill="#b1bfdd"/>
      </g>
    </g>
  </g>
</svg>
