<svg xmlns="http://www.w3.org/2000/svg" xmlns:xlink="http://www.w3.org/1999/xlink" width="27.4" height="23.071" viewBox="0 0 27.4 23.071">
  <defs>
    <clipPath id="clip-path">
      <rect id="Rectangle_843" data-name="Rectangle 843" width="27.4" height="23.071" transform="translate(0 0)" fill="#fff"/>
    </clipPath>
  </defs>
  <g id="Group_2679" data-name="Group 2679" transform="translate(0 0.001)">
    <g id="Group_2654" data-name="Group 2654" transform="translate(0 -0.001)" clip-path="url(#clip-path)">
      <path id="Path_10304" data-name="Path 10304" d="M5.167,6.847a.527.527,0,0,1-.4-.085l-2.03-1.4a.529.529,0,0,1,.6-.871l2.031,1.4a.529.529,0,0,1-.206.956M3.522,10.862a.529.529,0,0,0-.5-.556L.557,10.179A.529.529,0,0,0,.5,11.235l2.465.127a.528.528,0,0,0,.556-.5M8.766,3.273a.529.529,0,0,0,.272-.7L8.046.315A.529.529,0,0,0,7.077.74L8.069,3a.529.529,0,0,0,.7.272m6.375-.091a1.993,1.993,0,0,1,.5.5l.009.013,9.072,13.037,1.977.5.041.01a.809.809,0,0,1,.245.114c.735.507.469,2.165-.594,3.7s-2.519,2.373-3.253,1.865a.812.812,0,0,1-.2-.2l0-.005-1.175-1.689L6.4,17.161l-.1-.025a1.986,1.986,0,0,1-.6-.279c-1.8-1.246-1.151-5.318,1.458-9.094s6.186-5.827,7.99-4.581m-.607.878c-.5-.346-1.456-.176-2.556.455a13.1,13.1,0,0,0-3.95,3.855A13.1,13.1,0,0,0,5.82,13.427c-.2,1.252-.022,2.206.479,2.551s1.456.176,2.556-.455a13.1,13.1,0,0,0,3.95-3.855,13.1,13.1,0,0,0,2.208-5.058c.2-1.252.022-2.206-.479-2.551" transform="translate(0 0.001)" fill="#fff"/>
    </g>
  </g>
</svg>
