<svg id="Group_1422" data-name="Group 1422" xmlns="http://www.w3.org/2000/svg" xmlns:xlink="http://www.w3.org/1999/xlink" width="42.126" height="54.696" viewBox="0 0 42.126 54.696">
  <defs>
    <clipPath id="clip-path">
      <rect id="Rectangle_513" data-name="Rectangle 513" width="42.126" height="54.696" fill="none"/>
    </clipPath>
    <clipPath id="clip-path-3">
      <rect id="Rectangle_511" data-name="Rectangle 511" width="4.125" height="16.161" fill="none"/>
    </clipPath>
  </defs>
  <g id="Group_1427" data-name="Group 1427" clip-path="url(#clip-path)">
    <g id="Group_1426" data-name="Group 1426" transform="translate(0 0)">
      <g id="Group_1425" data-name="Group 1425" clip-path="url(#clip-path)">
        <path id="Path_5694" data-name="Path 5694" d="M21.959,43.373a3.82,3.82,0,0,0-1.561,4.14c.411,2.008,1.653,2.662,2.911,2.2,11.279-4.156,11.746-2.265,19.169-6.409L41.326,36.1c-7.755,1.53-13.6,5.079-19.367,7.276" transform="translate(-5.631 -10.014)" fill="#31424c"/>
        <path id="Path_5695" data-name="Path 5695" d="M37.4,44.789c-.827.384-2.168.229-2.259,2.1-.137,2.817.753,4.859,1.724,4.924,6.942.472,6.211.18,9.093-.388a7.226,7.226,0,0,0,4.525-4.393,11.622,11.622,0,0,0-.7-5.912c-.141-.4-4.846,1.511-5.21,1.569-2.991.469-2.619,1.106-7.177,2.1" transform="translate(-9.744 -11.393)" fill="#4a4a59"/>
        <path id="Path_5696" data-name="Path 5696" d="M39.953,15.91c-.874,1.742-2.939,5.976-3.747,7.077-1.183-.382-1.715-2.793-2.9-3.175,1.387-2.46,1.637-5.568,2.732-7.631.8-1.5,4.783,1.994,3.913,3.729" transform="translate(-9.24 -3.278)" fill="#3b172d"/>
        <path id="Path_5697" data-name="Path 5697" d="M5.9,60.308c-.14,1.423.38,1.669,1.1,2.289a2.782,2.782,0,0,0,3.663-.014c4.945-5.283,3.056-2.791,11.27-11.349,0,0-3.56-5.817-4.368-4.727-4.155,5.605-5.768,8.412-11.666,13.8" transform="translate(-1.63 -12.865)" fill="#31424c"/>
        <path id="Path_5698" data-name="Path 5698" d="M36.741,14.486c.356,1.918,1.165,7.419,1.442,8.552l.74,4.223s-1.564,1.548,2.585,3.353c4.205,1.829,7.461-.516,8.435-.706-.647-4.169-1.392-3.538-.636-7.468l1.84-3.831a6.464,6.464,0,0,0-3.765-6.149l-.67-.31L41.6,9.775c-.509-.239-.949.525-1.476.507-2.432,0-3.625,2.871-3.378,4.2" transform="translate(-10.184 -2.699)" fill="#fff"/>
        <path id="Path_5699" data-name="Path 5699" d="M43.274,8.312l4.535,2.133.417-4.038-4.738-1.7Z" transform="translate(-12.005 -1.307)" fill="#ffb8b7"/>
        <path id="Path_5700" data-name="Path 5700" d="M43.274,9.695a14.358,14.358,0,0,0,.145,2.068,1.79,1.79,0,0,0,2.586,1.315,5.455,5.455,0,0,0,1.908-1.411s-4.208-1.954-4.64-1.972" transform="translate(-12.005 -2.69)" fill="#ffb8b7"/>
        <path id="Path_5701" data-name="Path 5701" d="M35.814,24.763c-.457,1.753-4.671,4.45-5.068,4.457A1.863,1.863,0,0,1,28.891,28a8.858,8.858,0,0,1,3.215-5.385c1.694-1.5,4.1.639,3.708,2.146" transform="translate(-8.015 -6.133)" fill="#3b172d"/>
        <path id="Path_5702" data-name="Path 5702" d="M44.2,24.149l3.97-12.057c5.2,2.112,4.954,3.688,5.332,5.559a2.751,2.751,0,0,1-.345,1.961l.069,5.9c-.756,3.93,1.021,4.809-.011,10.657a62.486,62.486,0,0,1-8.857-.957" transform="translate(-12.262 -3.355)" fill="#7a2d23"/>
        <path id="Path_5703" data-name="Path 5703" d="M38.877,33.335c-2.617-1.189-1.912-1.749-1.913-1.874l.517-6.24a33.532,33.532,0,0,1-1.073-9.206c0-.853-.269-3.347.172-4.054.255-.409.955-1.688,2.243-1.688a5.386,5.386,0,0,0,2.525-.577L39.708,23.507" transform="translate(-10.078 -2.69)" fill="#7a2d23"/>
        <g id="Group_1424" data-name="Group 1424" transform="translate(36.967 16.737)" opacity="0.07">
          <g id="Group_1423" data-name="Group 1423">
            <g id="Group_1422-2" data-name="Group 1422" clip-path="url(#clip-path-3)">
              <path id="Path_5704" data-name="Path 5704" d="M51.834,24.075c.958,1.218,2.721-2.043,2.687-.476l-1.6,3.894c.664,3.542,2.946,5.45,2.227,11.75a18.624,18.624,0,0,0-3.734.082c-.128-.848.422-3.275.363-4.13-.186-2.721-1.322-9.39.059-11.12" transform="translate(-51.16 -23.164)" fill="#112232"/>
            </g>
          </g>
        </g>
        <path id="Path_5705" data-name="Path 5705" d="M27.616,30.018c.283,1.168,1.219.553,2.483.246s2.378-.186,2.095-1.355a2.362,2.362,0,0,0-4.578,1.108" transform="translate(-7.645 -7.568)" fill="#ffb8b7"/>
        <path id="Path_5706" data-name="Path 5706" d="M50.4,23.209c.216,2.2,3.04,5.583,3.4,7.075,1.18.073,1.005-3.124,2.186-3.051-.043-2.472-.767-3.194-.767-7.126,0-1.311-5.039.911-4.823,3.1" transform="translate(-13.981 -5.47)" fill="#7a2d23"/>
        <path id="Path_5707" data-name="Path 5707" d="M53.354,28.186c-1.721.345-9.2,3.273-9.154,3.708a2.651,2.651,0,0,0,1.5,2.135c1.908-.379,6.322-.546,8.367-2.643.321-.329.77-3.5-.71-3.2" transform="translate(-12.262 -7.814)" fill="#7a2d23"/>
        <path id="Path_5708" data-name="Path 5708" d="M16.2,61.887c0,.8.85,1.481,1.383,2.215.815,1.123,2.833,1.393,3.309.958,8.717-7.984,7.549-5.179,14.5-14.22,0,0-7.044-4.752-7.735-3.637-2.263,3.649-5.74,9.535-11.459,14.684" transform="translate(-4.494 -13.049)" fill="#4a4a59"/>
        <path id="Path_5709" data-name="Path 5709" d="M24.013,37.887l7.73-3.98a.516.516,0,0,1,.513,0l13.36,7.233c0,.3.038.723-.225.861l-7.646,4.415a.4.4,0,0,1-.333-.05L24.126,38.7c-.15-.087-.113-.461-.113-.809" transform="translate(-6.661 -9.388)" fill="#cbd1cc"/>
        <path id="Path_5710" data-name="Path 5710" d="M24.128,37.456l7.617-4.4a.516.516,0,0,1,.513,0L45.5,40.706a.229.229,0,0,1,0,.4l-7.647,4.415a.443.443,0,0,1-.444,0L24.128,37.846a.225.225,0,0,1,0-.39" transform="translate(-6.662 -9.152)" fill="#dae5e7"/>
        <path id="Path_5711" data-name="Path 5711" d="M37.756,38.393,39.825,37.2a.14.14,0,0,1,.139,0l3.6,2.077a.062.062,0,0,1,0,.108l-2.076,1.2a.12.12,0,0,1-.121,0L37.756,38.5a.062.062,0,0,1,0-.106" transform="translate(-10.466 -10.315)" fill="#cbd1cc"/>
        <path id="Path_5712" data-name="Path 5712" d="M45.776,44.963l.517-.228a.033.033,0,0,1,.035,0l.546.244c0,.036,0,.079-.024.1l-.5.286a.027.027,0,0,1-.03,0l-.521-.3c-.048-.028-.03-.079-.027-.1" transform="translate(-12.698 -12.41)" fill="#d3ccba"/>
        <path id="Path_5713" data-name="Path 5713" d="M45.785,44.92l.511-.295a.035.035,0,0,1,.034,0l.539.31a.016.016,0,0,1,0,.027l-.513.3a.027.027,0,0,1-.03,0l-.541-.311a.015.015,0,0,1,0-.026" transform="translate(-12.7 -12.379)" fill="#f1eae3"/>
        <path id="Path_5714" data-name="Path 5714" d="M44.617,44.3l.517-.228a.033.033,0,0,1,.035,0l.546.244c0,.036,0,.079-.025.1l-.5.286a.027.027,0,0,1-.03,0l-.521-.3c-.048-.028-.03-.079-.027-.1" transform="translate(-12.376 -12.225)" fill="#d3ccba"/>
        <path id="Path_5715" data-name="Path 5715" d="M44.626,44.254l.511-.295a.035.035,0,0,1,.034,0l.539.31a.016.016,0,0,1,0,.027l-.513.3a.027.027,0,0,1-.03,0l-.541-.311a.015.015,0,0,1,0-.026" transform="translate(-12.378 -12.194)" fill="#f1eae3"/>
        <path id="Path_5716" data-name="Path 5716" d="M43.459,43.633l.517-.228a.037.037,0,0,1,.035,0l.546.244c0,.036,0,.079-.025.1l-.5.286a.027.027,0,0,1-.03,0l-.521-.3c-.048-.028-.03-.079-.027-.1" transform="translate(-12.055 -12.04)" fill="#d3ccba"/>
        <path id="Path_5717" data-name="Path 5717" d="M43.468,43.589l.511-.295a.035.035,0,0,1,.034,0l.539.31a.016.016,0,0,1,0,.027l-.513.3a.027.027,0,0,1-.03,0l-.541-.311a.015.015,0,0,1,0-.026" transform="translate(-12.057 -12.01)" fill="#f1eae3"/>
        <path id="Path_5718" data-name="Path 5718" d="M42.3,42.966l.517-.228a.033.033,0,0,1,.035,0l.546.244c0,.036,0,.079-.024.1l-.5.286a.027.027,0,0,1-.03,0l-.521-.3c-.048-.028-.03-.079-.027-.1" transform="translate(-11.733 -11.856)" fill="#d3ccba"/>
        <path id="Path_5719" data-name="Path 5719" d="M42.309,42.923l.511-.295a.035.035,0,0,1,.034,0l.539.31a.016.016,0,0,1,0,.027l-.513.3a.027.027,0,0,1-.03,0l-.541-.311a.015.015,0,0,1,0-.026" transform="translate(-11.735 -11.825)" fill="#f1eae3"/>
        <path id="Path_5720" data-name="Path 5720" d="M41.142,42.3l.517-.228a.033.033,0,0,1,.035,0l.546.244c0,.036,0,.079-.024.1l-.5.286a.027.027,0,0,1-.03,0l-.521-.3c-.048-.028-.03-.079-.027-.1" transform="translate(-11.412 -11.671)" fill="#d3ccba"/>
        <path id="Path_5721" data-name="Path 5721" d="M41.15,42.258l.511-.295a.035.035,0,0,1,.034,0l.539.31a.016.016,0,0,1,0,.027l-.513.3a.027.027,0,0,1-.03,0l-.541-.311a.015.015,0,0,1,0-.026" transform="translate(-11.414 -11.641)" fill="#f1eae3"/>
        <path id="Path_5722" data-name="Path 5722" d="M39.983,41.636l.517-.228a.037.037,0,0,1,.035,0l.546.244c0,.036,0,.079-.024.1l-.5.286a.027.027,0,0,1-.03,0l-.521-.3c-.048-.028-.03-.079-.027-.1" transform="translate(-11.091 -11.486)" fill="#d3ccba"/>
        <path id="Path_5723" data-name="Path 5723" d="M39.992,41.592,40.5,41.3a.032.032,0,0,1,.034,0l.539.31a.016.016,0,0,1,0,.027l-.513.3a.027.027,0,0,1-.03,0l-.541-.311a.015.015,0,0,1,0-.026" transform="translate(-11.093 -11.456)" fill="#f1eae3"/>
        <path id="Path_5724" data-name="Path 5724" d="M38.824,40.971l.517-.228a.037.037,0,0,1,.035,0l.546.244c0,.036,0,.079-.025.1l-.5.286a.027.027,0,0,1-.03,0l-.521-.3c-.048-.028-.03-.079-.027-.1" transform="translate(-10.769 -11.302)" fill="#d3ccba"/>
        <path id="Path_5725" data-name="Path 5725" d="M38.833,40.927l.511-.295a.035.035,0,0,1,.034,0l.539.31a.016.016,0,0,1,0,.027l-.513.3a.027.027,0,0,1-.03,0l-.541-.311a.015.015,0,0,1,0-.026" transform="translate(-10.771 -11.271)" fill="#f1eae3"/>
        <path id="Path_5726" data-name="Path 5726" d="M37.666,40.3l.517-.228a.033.033,0,0,1,.035,0l.546.244c0,.036,0,.079-.024.1l-.5.286a.027.027,0,0,1-.03,0l-.521-.3c-.048-.028-.03-.079-.027-.1" transform="translate(-10.448 -11.117)" fill="#d3ccba"/>
        <path id="Path_5727" data-name="Path 5727" d="M37.675,40.261l.511-.295a.035.035,0,0,1,.034,0l.539.31a.016.016,0,0,1,0,.027l-.513.3a.027.027,0,0,1-.03,0l-.541-.311a.015.015,0,0,1,0-.026" transform="translate(-10.45 -11.087)" fill="#f1eae3"/>
        <path id="Path_5728" data-name="Path 5728" d="M36.507,39.639l.517-.228a.033.033,0,0,1,.035,0l.546.244c0,.036,0,.079-.025.1l-.5.286a.027.027,0,0,1-.03,0l-.521-.3c-.048-.028-.03-.079-.027-.1" transform="translate(-10.126 -10.933)" fill="#d3ccba"/>
        <path id="Path_5729" data-name="Path 5729" d="M36.516,39.6l.51-.295a.037.037,0,0,1,.035,0l.539.31a.016.016,0,0,1,0,.027l-.513.3a.027.027,0,0,1-.03,0l-.541-.311a.015.015,0,0,1,0-.026" transform="translate(-10.128 -10.902)" fill="#f1eae3"/>
        <path id="Path_5730" data-name="Path 5730" d="M35.348,38.973l.517-.228a.033.033,0,0,1,.035,0l.546.244c0,.036,0,.079-.025.1l-.5.286a.027.027,0,0,1-.03,0l-.521-.3c-.048-.028-.03-.079-.027-.1" transform="translate(-9.805 -10.748)" fill="#d3ccba"/>
        <path id="Path_5731" data-name="Path 5731" d="M35.357,38.93l.511-.295a.035.035,0,0,1,.034,0l.539.31a.016.016,0,0,1,0,.027l-.513.3a.027.027,0,0,1-.03,0l-.541-.311a.015.015,0,0,1,0-.026" transform="translate(-9.807 -10.717)" fill="#f1eae3"/>
        <path id="Path_5732" data-name="Path 5732" d="M34.19,38.308l.517-.228a.033.033,0,0,1,.035,0l.546.244c0,.036,0,.079-.024.1l-.5.286a.027.027,0,0,1-.03,0l-.521-.3c-.048-.028-.03-.079-.027-.1" transform="translate(-9.484 -10.563)" fill="#d3ccba"/>
        <path id="Path_5733" data-name="Path 5733" d="M34.2,38.265l.511-.295a.035.035,0,0,1,.034,0l.539.31a.016.016,0,0,1,0,.027l-.513.3a.027.027,0,0,1-.03,0l-.541-.311a.015.015,0,0,1,0-.026" transform="translate(-9.486 -10.533)" fill="#f1eae3"/>
        <path id="Path_5734" data-name="Path 5734" d="M33.031,37.642l.518-.228a.032.032,0,0,1,.034,0l.546.244c0,.036,0,.079-.025.1l-.5.286a.027.027,0,0,1-.03,0l-.521-.3c-.048-.028-.03-.079-.027-.1" transform="translate(-9.162 -10.379)" fill="#d3ccba"/>
        <path id="Path_5735" data-name="Path 5735" d="M33.04,37.6l.511-.295a.032.032,0,0,1,.034,0l.539.31a.016.016,0,0,1,0,.027l-.513.3a.027.027,0,0,1-.03,0l-.541-.311a.015.015,0,0,1,0-.026" transform="translate(-9.164 -10.348)" fill="#f1eae3"/>
        <path id="Path_5736" data-name="Path 5736" d="M44.716,45.572l.517-.228a.033.033,0,0,1,.035,0l.546.244c0,.036,0,.079-.024.1l-.5.286a.027.027,0,0,1-.03,0l-.521-.3c-.048-.028-.03-.079-.027-.1" transform="translate(-12.404 -12.578)" fill="#d3ccba"/>
        <path id="Path_5737" data-name="Path 5737" d="M44.725,45.53l.511-.295a.035.035,0,0,1,.034,0l.539.31a.016.016,0,0,1,0,.027l-.513.3a.027.027,0,0,1-.03,0l-.541-.311a.015.015,0,0,1,0-.026" transform="translate(-12.406 -12.548)" fill="#f1eae3"/>
        <path id="Path_5738" data-name="Path 5738" d="M43.557,44.907l.517-.228a.033.033,0,0,1,.035,0l.546.244c0,.036,0,.079-.025.1l-.5.286a.027.027,0,0,1-.03,0l-.521-.3c-.048-.028-.03-.079-.027-.1" transform="translate(-12.082 -12.394)" fill="#d3ccba"/>
        <path id="Path_5739" data-name="Path 5739" d="M43.566,44.864l.511-.295a.035.035,0,0,1,.034,0l.539.31a.016.016,0,0,1,0,.027l-.513.3a.027.027,0,0,1-.03,0l-.541-.311a.015.015,0,0,1,0-.026" transform="translate(-12.084 -12.364)" fill="#f1eae3"/>
        <path id="Path_5740" data-name="Path 5740" d="M42.4,44.241l.517-.228a.033.033,0,0,1,.035,0l.546.244c0,.036,0,.079-.025.1l-.5.286a.027.027,0,0,1-.03,0l-.521-.3c-.048-.028-.03-.079-.027-.1" transform="translate(-11.761 -12.209)" fill="#d3ccba"/>
        <path id="Path_5741" data-name="Path 5741" d="M42.408,44.2l.511-.295a.032.032,0,0,1,.034,0l.539.31a.016.016,0,0,1,0,.027l-.513.3a.027.027,0,0,1-.03,0l-.541-.311a.015.015,0,0,1,0-.026" transform="translate(-11.763 -12.179)" fill="#f1eae3"/>
        <path id="Path_5742" data-name="Path 5742" d="M41.24,43.577l.517-.228a.037.037,0,0,1,.035,0l.546.244c0,.036,0,.079-.024.1l-.5.286a.027.027,0,0,1-.03,0l-.521-.3c-.048-.028-.03-.079-.027-.1" transform="translate(-11.439 -12.025)" fill="#d3ccba"/>
        <path id="Path_5743" data-name="Path 5743" d="M41.249,43.533l.511-.295a.032.032,0,0,1,.034,0l.539.31a.016.016,0,0,1,0,.027l-.513.3a.027.027,0,0,1-.03,0l-.541-.311a.015.015,0,0,1,0-.026" transform="translate(-11.441 -11.994)" fill="#f1eae3"/>
        <path id="Path_5744" data-name="Path 5744" d="M40.081,42.911l.517-.228a.037.037,0,0,1,.035,0l.547.244c0,.036,0,.079-.025.1l-.5.286a.027.027,0,0,1-.03,0l-.521-.3c-.048-.028-.03-.079-.027-.1" transform="translate(-11.118 -11.84)" fill="#d3ccba"/>
        <path id="Path_5745" data-name="Path 5745" d="M40.09,42.867l.511-.295a.035.035,0,0,1,.034,0l.539.31a.016.016,0,0,1,0,.027l-.513.3a.027.027,0,0,1-.03,0l-.541-.311a.015.015,0,0,1,0-.026" transform="translate(-11.12 -11.81)" fill="#f1eae3"/>
        <path id="Path_5746" data-name="Path 5746" d="M38.923,42.246l.517-.228a.037.037,0,0,1,.035,0l.546.244c0,.036,0,.079-.024.1l-.5.286a.027.027,0,0,1-.03,0l-.521-.3c-.048-.028-.03-.079-.027-.1" transform="translate(-10.797 -11.656)" fill="#d3ccba"/>
        <path id="Path_5747" data-name="Path 5747" d="M38.932,42.2l.511-.295a.035.035,0,0,1,.034,0l.539.31a.016.016,0,0,1,0,.027l-.513.3a.027.027,0,0,1-.03,0l-.541-.311a.015.015,0,0,1,0-.026" transform="translate(-10.799 -11.625)" fill="#f1eae3"/>
        <path id="Path_5748" data-name="Path 5748" d="M37.764,41.579l.517-.228a.033.033,0,0,1,.035,0l.546.244c0,.036,0,.079-.024.1l-.5.286a.027.027,0,0,1-.03,0l-.521-.3c-.048-.028-.03-.079-.027-.1" transform="translate(-10.475 -11.471)" fill="#d3ccba"/>
        <path id="Path_5749" data-name="Path 5749" d="M37.773,41.536l.511-.295a.035.035,0,0,1,.034,0l.539.31a.016.016,0,0,1,0,.027l-.513.3a.027.027,0,0,1-.03,0l-.541-.311a.015.015,0,0,1,0-.026" transform="translate(-10.477 -11.44)" fill="#f1eae3"/>
        <path id="Path_5750" data-name="Path 5750" d="M36.606,40.914l.517-.228a.033.033,0,0,1,.035,0l.546.244c0,.036,0,.079-.025.1l-.5.286a.027.027,0,0,1-.03,0l-.521-.3c-.048-.028-.03-.079-.027-.1" transform="translate(-10.154 -11.286)" fill="#d3ccba"/>
        <path id="Path_5751" data-name="Path 5751" d="M36.615,40.871l.511-.295a.035.035,0,0,1,.034,0l.539.31a.016.016,0,0,1,0,.027l-.513.3a.027.027,0,0,1-.03,0l-.541-.311a.015.015,0,0,1,0-.026" transform="translate(-10.156 -11.256)" fill="#f1eae3"/>
        <path id="Path_5752" data-name="Path 5752" d="M35.447,40.248l.517-.228a.033.033,0,0,1,.035,0l.546.244c0,.036,0,.079-.025.1l-.5.286a.027.027,0,0,1-.03,0l-.521-.3c-.048-.028-.03-.079-.027-.1" transform="translate(-9.832 -11.101)" fill="#d3ccba"/>
        <path id="Path_5753" data-name="Path 5753" d="M35.456,40.2l.511-.295a.032.032,0,0,1,.034,0l.539.31a.016.016,0,0,1,0,.027l-.513.3a.027.027,0,0,1-.03,0l-.541-.311a.015.015,0,0,1,0-.026" transform="translate(-9.834 -11.071)" fill="#f1eae3"/>
        <path id="Path_5754" data-name="Path 5754" d="M34.288,39.583l.517-.228a.033.033,0,0,1,.035,0l.546.244c0,.036,0,.079-.024.1l-.5.286a.027.027,0,0,1-.03,0l-.521-.3c-.048-.028-.03-.079-.027-.1" transform="translate(-9.511 -10.917)" fill="#d3ccba"/>
        <path id="Path_5755" data-name="Path 5755" d="M34.3,39.54l.511-.295a.032.032,0,0,1,.034,0l.539.31a.016.016,0,0,1,0,.027l-.513.3a.027.027,0,0,1-.03,0l-.541-.311a.015.015,0,0,1,0-.026" transform="translate(-9.513 -10.886)" fill="#f1eae3"/>
        <path id="Path_5756" data-name="Path 5756" d="M33.13,38.918l.517-.228a.037.037,0,0,1,.035,0l.546.244c0,.036,0,.079-.024.1l-.5.286a.027.027,0,0,1-.03,0l-.521-.3c-.048-.028-.03-.079-.027-.1" transform="translate(-9.189 -10.732)" fill="#d3ccba"/>
        <path id="Path_5757" data-name="Path 5757" d="M33.139,38.874l.511-.295a.035.035,0,0,1,.034,0l.539.31a.016.016,0,0,1,0,.027l-.513.3a.027.027,0,0,1-.03,0l-.541-.311a.015.015,0,0,1,0-.026" transform="translate(-9.191 -10.702)" fill="#f1eae3"/>
        <path id="Path_5758" data-name="Path 5758" d="M31.971,38.253l.517-.228a.037.037,0,0,1,.035,0l.546.244c0,.036,0,.079-.025.1l-.5.286a.027.027,0,0,1-.03,0l-.521-.3c-.048-.028-.03-.079-.027-.1" transform="translate(-8.868 -10.548)" fill="#d3ccba"/>
        <path id="Path_5759" data-name="Path 5759" d="M31.98,38.209l.511-.295a.035.035,0,0,1,.034,0l.539.31a.016.016,0,0,1,0,.027l-.513.3a.027.027,0,0,1-.03,0l-.541-.311a.015.015,0,0,1,0-.026" transform="translate(-8.87 -10.517)" fill="#f1eae3"/>
        <path id="Path_5760" data-name="Path 5760" d="M43.656,46.182l.517-.228a.033.033,0,0,1,.035,0l.546.244c0,.036,0,.079-.025.1l-.5.286a.027.027,0,0,1-.03,0l-.521-.3c-.048-.028-.03-.079-.027-.1" transform="translate(-12.11 -12.748)" fill="#d3ccba"/>
        <path id="Path_5761" data-name="Path 5761" d="M43.665,46.139l.51-.295a.037.037,0,0,1,.035,0l.539.31a.016.016,0,0,1,0,.027l-.513.3a.027.027,0,0,1-.03,0l-.541-.311a.015.015,0,0,1,0-.026" transform="translate(-12.112 -12.717)" fill="#f1eae3"/>
        <path id="Path_5762" data-name="Path 5762" d="M42.5,45.516l.517-.228a.033.033,0,0,1,.035,0l.546.244c0,.036,0,.079-.025.1l-.5.286a.027.027,0,0,1-.03,0l-.521-.3c-.048-.028-.03-.079-.027-.1" transform="translate(-11.788 -12.563)" fill="#d3ccba"/>
        <path id="Path_5763" data-name="Path 5763" d="M42.506,45.474l.511-.295a.035.035,0,0,1,.034,0l.539.31a.016.016,0,0,1,0,.027l-.513.3a.027.027,0,0,1-.03,0l-.541-.311a.015.015,0,0,1,0-.026" transform="translate(-11.79 -12.533)" fill="#f1eae3"/>
        <path id="Path_5764" data-name="Path 5764" d="M41.339,44.851l.517-.228a.033.033,0,0,1,.035,0l.546.244c0,.036,0,.079-.024.1l-.5.286a.027.027,0,0,1-.03,0l-.521-.3c-.048-.028-.03-.079-.027-.1" transform="translate(-11.467 -12.378)" fill="#d3ccba"/>
        <path id="Path_5765" data-name="Path 5765" d="M41.348,44.808l.511-.295a.035.035,0,0,1,.034,0l.539.31a.016.016,0,0,1,0,.027l-.513.3a.027.027,0,0,1-.03,0l-.541-.311a.015.015,0,0,1,0-.026" transform="translate(-11.469 -12.348)" fill="#f1eae3"/>
        <path id="Path_5766" data-name="Path 5766" d="M40.18,44.185l.518-.228a.032.032,0,0,1,.034,0l.546.244c0,.036,0,.079-.025.1l-.5.286a.027.027,0,0,1-.03,0l-.521-.3c-.048-.028-.03-.079-.027-.1" transform="translate(-11.145 -12.194)" fill="#d3ccba"/>
        <path id="Path_5767" data-name="Path 5767" d="M40.189,44.143l.511-.295a.035.035,0,0,1,.034,0l.539.31a.016.016,0,0,1,0,.027l-.513.3a.027.027,0,0,1-.03,0l-.541-.311a.015.015,0,0,1,0-.026" transform="translate(-11.147 -12.164)" fill="#f1eae3"/>
        <path id="Path_5768" data-name="Path 5768" d="M39.021,43.52l.517-.228a.033.033,0,0,1,.035,0l.546.244c0,.036,0,.079-.025.1l-.5.286a.027.027,0,0,1-.03,0l-.521-.3c-.048-.028-.03-.079-.027-.1" transform="translate(-10.824 -12.009)" fill="#d3ccba"/>
        <path id="Path_5769" data-name="Path 5769" d="M39.03,43.477l.511-.295a.032.032,0,0,1,.034,0l.539.31a.016.016,0,0,1,0,.027l-.513.3a.027.027,0,0,1-.03,0L39.03,43.5a.015.015,0,0,1,0-.026" transform="translate(-10.826 -11.979)" fill="#f1eae3"/>
        <path id="Path_5770" data-name="Path 5770" d="M37.863,42.855l.517-.228a.037.037,0,0,1,.035,0l.546.244c0,.036,0,.079-.024.1l-.5.286a.027.027,0,0,1-.03,0l-.521-.3c-.048-.028-.03-.079-.027-.1" transform="translate(-10.502 -11.825)" fill="#d3ccba"/>
        <path id="Path_5771" data-name="Path 5771" d="M37.872,42.812l.511-.295a.032.032,0,0,1,.034,0l.539.31a.016.016,0,0,1,0,.027l-.513.3a.027.027,0,0,1-.03,0l-.541-.311a.015.015,0,0,1,0-.026" transform="translate(-10.505 -11.794)" fill="#f1eae3"/>
        <path id="Path_5772" data-name="Path 5772" d="M36.7,42.19l.517-.228a.037.037,0,0,1,.035,0l.546.244c0,.036,0,.079-.024.1l-.5.286a.027.027,0,0,1-.03,0l-.521-.3c-.048-.028-.03-.079-.027-.1" transform="translate(-10.181 -11.64)" fill="#d3ccba"/>
        <path id="Path_5773" data-name="Path 5773" d="M36.713,42.146l.511-.295a.035.035,0,0,1,.034,0l.539.31a.016.016,0,0,1,0,.027l-.513.3a.027.027,0,0,1-.03,0l-.541-.311a.015.015,0,0,1,0-.026" transform="translate(-10.183 -11.61)" fill="#f1eae3"/>
        <path id="Path_5774" data-name="Path 5774" d="M35.546,41.523l.517-.228a.033.033,0,0,1,.035,0l.546.244c0,.036,0,.079-.024.1l-.5.286a.027.027,0,0,1-.03,0l-.521-.3c-.048-.028-.03-.079-.027-.1" transform="translate(-9.86 -11.455)" fill="#d3ccba"/>
        <path id="Path_5775" data-name="Path 5775" d="M35.554,41.48l.511-.295a.035.035,0,0,1,.034,0l.539.31a.016.016,0,0,1,0,.027l-.513.3a.027.027,0,0,1-.03,0l-.541-.311a.015.015,0,0,1,0-.026" transform="translate(-9.861 -11.425)" fill="#f1eae3"/>
        <path id="Path_5776" data-name="Path 5776" d="M34.387,40.858l.517-.228a.033.033,0,0,1,.035,0l.546.244c0,.036,0,.079-.024.1l-.5.286a.027.027,0,0,1-.03,0l-.521-.3c-.048-.028-.03-.079-.027-.1" transform="translate(-9.538 -11.271)" fill="#d3ccba"/>
        <path id="Path_5777" data-name="Path 5777" d="M34.4,40.815l.511-.295a.035.035,0,0,1,.034,0l.539.31a.016.016,0,0,1,0,.027l-.513.3a.027.027,0,0,1-.03,0l-.541-.311a.015.015,0,0,1,0-.026" transform="translate(-9.54 -11.24)" fill="#f1eae3"/>
        <path id="Path_5778" data-name="Path 5778" d="M33.228,40.192l.517-.228a.033.033,0,0,1,.035,0l.546.244c0,.036,0,.079-.024.1l-.5.286a.027.027,0,0,1-.03,0l-.521-.3c-.048-.028-.03-.079-.027-.1" transform="translate(-9.217 -11.086)" fill="#d3ccba"/>
        <path id="Path_5779" data-name="Path 5779" d="M33.237,40.149l.511-.295a.035.035,0,0,1,.034,0l.539.31a.016.016,0,0,1,0,.027l-.513.3a.027.027,0,0,1-.03,0l-.541-.311a.015.015,0,0,1,0-.026" transform="translate(-9.219 -11.056)" fill="#f1eae3"/>
        <path id="Path_5780" data-name="Path 5780" d="M32.07,39.527l.517-.228a.033.033,0,0,1,.035,0l.546.244c0,.036,0,.079-.025.1l-.5.286a.027.027,0,0,1-.03,0l-.521-.3c-.048-.028-.03-.079-.027-.1" transform="translate(-8.895 -10.901)" fill="#d3ccba"/>
        <path id="Path_5781" data-name="Path 5781" d="M32.079,39.484l.511-.295a.032.032,0,0,1,.034,0l.539.31a.016.016,0,0,1,0,.027l-.513.3a.027.027,0,0,1-.03,0l-.541-.311a.015.015,0,0,1,0-.026" transform="translate(-8.897 -10.871)" fill="#f1eae3"/>
        <path id="Path_5782" data-name="Path 5782" d="M30.911,38.862l.517-.228a.037.037,0,0,1,.035,0l.546.244c0,.036,0,.079-.025.1l-.5.286a.027.027,0,0,1-.03,0l-.521-.3c-.048-.028-.03-.079-.027-.1" transform="translate(-8.574 -10.717)" fill="#d3ccba"/>
        <path id="Path_5783" data-name="Path 5783" d="M30.92,38.818l.511-.295a.032.032,0,0,1,.034,0l.539.31a.016.016,0,0,1,0,.027l-.513.3a.027.027,0,0,1-.03,0l-.541-.311a.015.015,0,0,1,0-.026" transform="translate(-8.576 -10.686)" fill="#f1eae3"/>
        <path id="Path_5784" data-name="Path 5784" d="M42.6,46.792l.517-.228a.033.033,0,0,1,.035,0l.546.244c0,.036,0,.079-.024.1l-.5.286a.027.027,0,0,1-.03,0l-.521-.3c-.048-.028-.03-.079-.027-.1" transform="translate(-11.816 -12.917)" fill="#d3ccba"/>
        <path id="Path_5785" data-name="Path 5785" d="M42.605,46.749l.511-.295a.035.035,0,0,1,.034,0l.539.31a.016.016,0,0,1,0,.027l-.513.3a.027.027,0,0,1-.03,0l-.541-.311a.015.015,0,0,1,0-.026" transform="translate(-11.818 -12.887)" fill="#f1eae3"/>
        <path id="Path_5786" data-name="Path 5786" d="M41.437,46.126l.517-.228a.033.033,0,0,1,.035,0l.546.244c0,.036,0,.079-.024.1l-.5.286a.027.027,0,0,1-.03,0l-.521-.3c-.048-.028-.03-.079-.027-.1" transform="translate(-11.494 -12.732)" fill="#d3ccba"/>
        <path id="Path_5787" data-name="Path 5787" d="M41.446,46.083l.511-.295a.035.035,0,0,1,.034,0l.539.31a.016.016,0,0,1,0,.027l-.513.3a.027.027,0,0,1-.03,0l-.541-.311a.015.015,0,0,1,0-.026" transform="translate(-11.496 -12.702)" fill="#f1eae3"/>
        <path id="Path_5788" data-name="Path 5788" d="M40.279,45.46l.517-.228a.033.033,0,0,1,.035,0l.546.244c0,.036,0,.079-.024.1l-.5.286a.027.027,0,0,1-.03,0l-.521-.3c-.048-.028-.03-.079-.027-.1" transform="translate(-11.173 -12.547)" fill="#d3ccba"/>
        <path id="Path_5789" data-name="Path 5789" d="M40.288,45.418l.511-.295a.032.032,0,0,1,.034,0l.539.31a.016.016,0,0,1,0,.027l-.513.3a.027.027,0,0,1-.03,0l-.541-.311a.015.015,0,0,1,0-.026" transform="translate(-11.175 -12.517)" fill="#f1eae3"/>
        <path id="Path_5790" data-name="Path 5790" d="M39.12,44.8l.517-.228a.037.037,0,0,1,.035,0l.546.244c0,.036,0,.079-.025.1l-.5.286a.027.027,0,0,1-.03,0l-.521-.3c-.048-.028-.03-.079-.027-.1" transform="translate(-10.851 -12.363)" fill="#d3ccba"/>
        <path id="Path_5791" data-name="Path 5791" d="M39.129,44.752l.511-.295a.035.035,0,0,1,.034,0l.539.31a.016.016,0,0,1,0,.027l-.513.3a.027.027,0,0,1-.03,0l-.541-.311a.015.015,0,0,1,0-.026" transform="translate(-10.853 -12.333)" fill="#f1eae3"/>
        <path id="Path_5792" data-name="Path 5792" d="M37.962,44.13l.517-.228a.037.037,0,0,1,.035,0l.546.244c0,.036,0,.079-.024.1l-.5.286a.029.029,0,0,1-.03,0l-.521-.3c-.048-.028-.03-.079-.027-.1" transform="translate(-10.53 -12.178)" fill="#d3ccba"/>
        <path id="Path_5793" data-name="Path 5793" d="M37.97,44.087l.511-.295a.035.035,0,0,1,.034,0l.539.31a.016.016,0,0,1,0,.027l-.513.3a.027.027,0,0,1-.03,0l-.541-.311a.015.015,0,0,1,0-.026" transform="translate(-10.532 -12.148)" fill="#f1eae3"/>
        <path id="Path_5794" data-name="Path 5794" d="M36.8,43.464l.517-.228a.033.033,0,0,1,.035,0l.546.244c0,.036,0,.079-.024.1l-.5.286a.027.027,0,0,1-.03,0l-.521-.3c-.048-.028-.03-.079-.027-.1" transform="translate(-10.208 -11.994)" fill="#d3ccba"/>
        <path id="Path_5795" data-name="Path 5795" d="M36.812,43.421l.511-.295a.035.035,0,0,1,.034,0l.539.31a.016.016,0,0,1,0,.027l-.513.3a.027.027,0,0,1-.03,0l-.541-.311a.015.015,0,0,1,0-.026" transform="translate(-10.21 -11.963)" fill="#f1eae3"/>
        <path id="Path_5796" data-name="Path 5796" d="M35.644,42.8l.517-.228a.033.033,0,0,1,.035,0l.546.244c0,.036,0,.079-.025.1l-.5.286a.027.027,0,0,1-.03,0l-.521-.3c-.048-.028-.03-.079-.027-.1" transform="translate(-9.887 -11.809)" fill="#d3ccba"/>
        <path id="Path_5797" data-name="Path 5797" d="M35.653,42.756l.511-.295a.032.032,0,0,1,.034,0l.539.31a.016.016,0,0,1,0,.027l-.513.3a.027.027,0,0,1-.03,0l-.541-.311a.015.015,0,0,1,0-.026" transform="translate(-9.889 -11.779)" fill="#f1eae3"/>
        <path id="Path_5798" data-name="Path 5798" d="M34.486,42.133,35,41.905a.033.033,0,0,1,.035,0l.546.244c0,.036,0,.079-.025.1l-.5.286a.027.027,0,0,1-.03,0l-.521-.3c-.048-.028-.03-.079-.027-.1" transform="translate(-9.566 -11.624)" fill="#d3ccba"/>
        <path id="Path_5799" data-name="Path 5799" d="M34.494,42.09,35,41.8a.035.035,0,0,1,.034,0l.539.31a.016.016,0,0,1,0,.027l-.513.3a.027.027,0,0,1-.03,0l-.541-.311a.015.015,0,0,1,0-.026" transform="translate(-9.567 -11.594)" fill="#f1eae3"/>
        <path id="Path_5800" data-name="Path 5800" d="M33.327,41.467l.517-.228a.033.033,0,0,1,.035,0l.546.244c0,.036,0,.079-.024.1l-.5.286a.027.027,0,0,1-.03,0l-.521-.3c-.048-.028-.03-.079-.027-.1" transform="translate(-9.244 -11.44)" fill="#d3ccba"/>
        <path id="Path_5801" data-name="Path 5801" d="M33.336,41.425l.511-.295a.032.032,0,0,1,.034,0l.539.31a.016.016,0,0,1,0,.027l-.513.3a.027.027,0,0,1-.03,0l-.541-.311a.015.015,0,0,1,0-.026" transform="translate(-9.246 -11.409)" fill="#f1eae3"/>
        <path id="Path_5802" data-name="Path 5802" d="M32.168,40.8l.517-.228a.033.033,0,0,1,.035,0l.546.244c0,.036,0,.079-.025.1l-.5.286a.027.027,0,0,1-.03,0l-.521-.3c-.048-.028-.03-.079-.027-.1" transform="translate(-8.923 -11.255)" fill="#d3ccba"/>
        <path id="Path_5803" data-name="Path 5803" d="M32.177,40.759l.51-.295a.033.033,0,0,1,.035,0l.539.31a.016.016,0,0,1,0,.027l-.513.3a.027.027,0,0,1-.03,0l-.541-.311a.015.015,0,0,1,0-.026" transform="translate(-8.925 -11.225)" fill="#f1eae3"/>
        <path id="Path_5804" data-name="Path 5804" d="M31.01,40.137l.517-.228a.037.037,0,0,1,.035,0l.546.244c0,.036,0,.079-.025.1l-.5.286a.027.027,0,0,1-.03,0l-.521-.3c-.048-.028-.03-.079-.027-.1" transform="translate(-8.601 -11.071)" fill="#d3ccba"/>
        <path id="Path_5805" data-name="Path 5805" d="M31.018,40.093l.512-.295a.034.034,0,0,1,.033,0l.539.31a.016.016,0,0,1,0,.027l-.512.3a.027.027,0,0,1-.03,0l-.542-.311a.015.015,0,0,1,0-.026" transform="translate(-8.603 -11.04)" fill="#f1eae3"/>
        <path id="Path_5806" data-name="Path 5806" d="M29.851,39.471l.517-.228a.033.033,0,0,1,.035,0l.546.244c0,.036,0,.079-.024.1l-.5.286a.027.027,0,0,1-.03,0l-.521-.3c-.048-.028-.03-.079-.027-.1" transform="translate(-8.28 -10.886)" fill="#d3ccba"/>
        <path id="Path_5807" data-name="Path 5807" d="M29.86,39.428l.511-.295a.035.035,0,0,1,.034,0l.539.31a.016.016,0,0,1,0,.027l-.513.3a.027.027,0,0,1-.03,0l-.541-.311a.015.015,0,0,1,0-.026" transform="translate(-8.282 -10.856)" fill="#f1eae3"/>
        <path id="Path_5808" data-name="Path 5808" d="M41.536,47.4l.517-.228a.033.033,0,0,1,.035,0l.546.244c0,.036,0,.079-.024.1l-.5.286a.027.027,0,0,1-.03,0l-.521-.3c-.048-.028-.03-.079-.027-.1" transform="translate(-11.521 -13.086)" fill="#d3ccba"/>
        <path id="Path_5809" data-name="Path 5809" d="M41.545,47.358l.511-.295a.035.035,0,0,1,.034,0l.539.31a.016.016,0,0,1,0,.027l-.513.3a.027.027,0,0,1-.03,0l-.541-.311a.015.015,0,0,1,0-.026" transform="translate(-11.524 -13.056)" fill="#f1eae3"/>
        <path id="Path_5810" data-name="Path 5810" d="M40.377,46.736l.517-.228a.033.033,0,0,1,.035,0l.546.244c0,.036,0,.079-.024.1l-.5.286a.027.027,0,0,1-.03,0l-.521-.3c-.048-.028-.03-.079-.027-.1" transform="translate(-11.2 -12.901)" fill="#d3ccba"/>
        <path id="Path_5811" data-name="Path 5811" d="M40.386,46.693,40.9,46.4a.035.035,0,0,1,.034,0l.539.31a.016.016,0,0,1,0,.027l-.513.3a.027.027,0,0,1-.03,0l-.541-.311a.015.015,0,0,1,0-.026" transform="translate(-11.202 -12.871)" fill="#f1eae3"/>
        <path id="Path_5812" data-name="Path 5812" d="M39.219,46.07l.517-.228a.033.033,0,0,1,.035,0l.546.244c0,.036,0,.079-.025.1l-.5.286a.027.027,0,0,1-.03,0l-.521-.3c-.048-.028-.03-.079-.027-.1" transform="translate(-10.879 -12.717)" fill="#d3ccba"/>
        <path id="Path_5813" data-name="Path 5813" d="M39.227,46.027l.512-.295a.035.035,0,0,1,.034,0l.538.31a.016.016,0,0,1,0,.027l-.512.3a.029.029,0,0,1-.03,0l-.541-.311a.015.015,0,0,1,0-.026" transform="translate(-10.88 -12.686)" fill="#f1eae3"/>
        <path id="Path_5814" data-name="Path 5814" d="M38.06,45.405l.517-.228a.033.033,0,0,1,.035,0l.546.244c0,.036,0,.079-.025.1l-.5.286a.027.027,0,0,1-.03,0l-.521-.3c-.048-.028-.03-.079-.027-.1" transform="translate(-10.557 -12.532)" fill="#d3ccba"/>
        <path id="Path_5815" data-name="Path 5815" d="M38.069,45.362l.511-.295a.032.032,0,0,1,.034,0l.539.31a.016.016,0,0,1,0,.027l-.513.3a.027.027,0,0,1-.03,0l-.541-.311a.015.015,0,0,1,0-.026" transform="translate(-10.559 -12.502)" fill="#f1eae3"/>
        <path id="Path_5816" data-name="Path 5816" d="M36.9,44.74l.517-.228a.037.037,0,0,1,.035,0l.546.244c0,.036,0,.079-.025.1l-.5.286a.027.027,0,0,1-.03,0l-.521-.3c-.048-.028-.03-.079-.027-.1" transform="translate(-10.236 -12.348)" fill="#d3ccba"/>
        <path id="Path_5817" data-name="Path 5817" d="M36.91,44.7l.511-.295a.032.032,0,0,1,.034,0l.539.31a.016.016,0,0,1,0,.027l-.513.3a.027.027,0,0,1-.03,0l-.541-.311a.015.015,0,0,1,0-.026" transform="translate(-10.238 -12.317)" fill="#f1eae3"/>
        <path id="Path_5818" data-name="Path 5818" d="M35.743,44.074l.517-.228a.037.037,0,0,1,.035,0l.546.244c0,.036,0,.079-.025.1l-.5.286a.027.027,0,0,1-.03,0l-.521-.3c-.048-.028-.03-.079-.027-.1" transform="translate(-9.914 -12.163)" fill="#d3ccba"/>
        <path id="Path_5819" data-name="Path 5819" d="M35.752,44.031l.51-.295a.033.033,0,0,1,.035,0l.539.31a.016.016,0,0,1,0,.027l-.513.3a.027.027,0,0,1-.03,0l-.541-.311a.015.015,0,0,1,0-.026" transform="translate(-9.916 -12.132)" fill="#f1eae3"/>
        <path id="Path_5820" data-name="Path 5820" d="M34.584,43.408l.517-.228a.033.033,0,0,1,.035,0l.546.244c0,.036,0,.079-.025.1l-.5.286a.027.027,0,0,1-.03,0l-.521-.3c-.048-.028-.03-.079-.027-.1" transform="translate(-9.593 -11.978)" fill="#d3ccba"/>
        <path id="Path_5821" data-name="Path 5821" d="M34.593,43.365l.511-.295a.035.035,0,0,1,.034,0l.539.31a.016.016,0,0,1,0,.027l-.513.3a.027.027,0,0,1-.03,0l-.541-.311a.015.015,0,0,1,0-.026" transform="translate(-9.595 -11.948)" fill="#f1eae3"/>
        <path id="Path_5822" data-name="Path 5822" d="M33.426,42.742l.517-.228a.033.033,0,0,1,.035,0l.546.244c0,.036,0,.079-.024.1l-.5.286a.027.027,0,0,1-.03,0l-.521-.3c-.048-.028-.03-.079-.027-.1" transform="translate(-9.272 -11.793)" fill="#d3ccba"/>
        <path id="Path_5823" data-name="Path 5823" d="M33.434,42.7l.511-.295a.035.035,0,0,1,.034,0l.539.31a.016.016,0,0,1,0,.027l-.513.3a.027.027,0,0,1-.03,0l-.541-.311a.015.015,0,0,1,0-.026" transform="translate(-9.273 -11.763)" fill="#f1eae3"/>
        <path id="Path_5824" data-name="Path 5824" d="M32.267,42.077l.517-.228a.033.033,0,0,1,.035,0l.546.244c0,.036,0,.079-.024.1l-.5.286a.027.027,0,0,1-.03,0l-.521-.3c-.048-.028-.03-.079-.027-.1" transform="translate(-8.95 -11.609)" fill="#d3ccba"/>
        <path id="Path_5825" data-name="Path 5825" d="M32.276,42.034l.511-.295a.035.035,0,0,1,.034,0l.539.31a.016.016,0,0,1,0,.027l-.513.3a.027.027,0,0,1-.03,0l-.541-.311a.015.015,0,0,1,0-.026" transform="translate(-8.952 -11.579)" fill="#f1eae3"/>
        <path id="Path_5826" data-name="Path 5826" d="M31.108,41.411l.517-.228a.033.033,0,0,1,.035,0l.546.244c0,.036,0,.079-.025.1l-.5.286a.027.027,0,0,1-.03,0l-.521-.3c-.048-.028-.03-.079-.027-.1" transform="translate(-8.628 -11.424)" fill="#d3ccba"/>
        <path id="Path_5827" data-name="Path 5827" d="M31.117,41.369l.511-.295a.032.032,0,0,1,.034,0l.539.31a.016.016,0,0,1,0,.027l-.513.3a.027.027,0,0,1-.03,0l-.541-.311a.015.015,0,0,1,0-.026" transform="translate(-8.631 -11.394)" fill="#f1eae3"/>
        <path id="Path_5828" data-name="Path 5828" d="M29.95,40.747l.517-.228a.037.037,0,0,1,.035,0l.546.244c0,.036,0,.079-.024.1l-.5.286a.027.027,0,0,1-.03,0l-.521-.3c-.048-.028-.03-.079-.027-.1" transform="translate(-8.307 -11.24)" fill="#d3ccba"/>
        <path id="Path_5829" data-name="Path 5829" d="M29.959,40.7l.511-.295a.031.031,0,0,1,.033,0l.54.31a.016.016,0,0,1,0,.027l-.513.3a.027.027,0,0,1-.03,0l-.541-.311a.015.015,0,0,1,0-.026" transform="translate(-8.309 -11.209)" fill="#f1eae3"/>
        <path id="Path_5830" data-name="Path 5830" d="M28.791,40.081l.517-.228a.037.037,0,0,1,.035,0l.546.244c0,.036,0,.079-.024.1l-.5.286a.027.027,0,0,1-.03,0l-.521-.3c-.048-.028-.03-.079-.027-.1" transform="translate(-7.986 -11.055)" fill="#d3ccba"/>
        <path id="Path_5831" data-name="Path 5831" d="M28.8,40.038l.511-.295a.032.032,0,0,1,.034,0l.539.31a.016.016,0,0,1,0,.027l-.513.3a.027.027,0,0,1-.03,0l-.541-.311a.015.015,0,0,1,0-.026" transform="translate(-7.988 -11.025)" fill="#f1eae3"/>
        <path id="Path_5832" data-name="Path 5832" d="M40.476,48.012l.517-.228a.037.037,0,0,1,.035,0l.546.244c0,.036,0,.079-.024.1l-.5.286a.027.027,0,0,1-.03,0l-.521-.3c-.048-.028-.03-.079-.027-.1" transform="translate(-11.227 -13.255)" fill="#d3ccba"/>
        <path id="Path_5833" data-name="Path 5833" d="M40.485,47.968,41,47.673a.035.035,0,0,1,.034,0l.539.31a.016.016,0,0,1,0,.027l-.513.3a.027.027,0,0,1-.03,0l-.541-.311a.015.015,0,0,1,0-.026" transform="translate(-11.229 -13.225)" fill="#f1eae3"/>
        <path id="Path_5834" data-name="Path 5834" d="M39.317,47.345l.517-.228a.033.033,0,0,1,.035,0l.546.244c0,.036,0,.079-.025.1l-.5.286a.027.027,0,0,1-.03,0l-.521-.3c-.048-.028-.03-.079-.027-.1" transform="translate(-10.906 -13.07)" fill="#d3ccba"/>
        <path id="Path_5835" data-name="Path 5835" d="M39.326,47.3l.511-.295a.032.032,0,0,1,.034,0l.539.31a.016.016,0,0,1,0,.027l-.513.3a.027.027,0,0,1-.03,0l-.541-.311a.015.015,0,0,1,0-.026" transform="translate(-10.908 -13.04)" fill="#f1eae3"/>
        <path id="Path_5836" data-name="Path 5836" d="M38.159,46.68l.517-.228a.033.033,0,0,1,.035,0l.546.244c0,.036,0,.079-.025.1l-.5.286a.027.027,0,0,1-.03,0l-.521-.3c-.048-.028-.03-.079-.027-.1" transform="translate(-10.585 -12.886)" fill="#d3ccba"/>
        <path id="Path_5837" data-name="Path 5837" d="M38.168,46.637l.511-.295a.035.035,0,0,1,.034,0l.539.31a.016.016,0,0,1,0,.027l-.513.3a.027.027,0,0,1-.03,0l-.541-.311a.015.015,0,0,1,0-.026" transform="translate(-10.587 -12.856)" fill="#f1eae3"/>
        <path id="Path_5838" data-name="Path 5838" d="M37,46.015l.517-.228a.037.037,0,0,1,.035,0l.546.244c0,.036,0,.079-.024.1l-.5.286a.027.027,0,0,1-.03,0l-.521-.3c-.048-.028-.03-.079-.027-.1" transform="translate(-10.263 -12.701)" fill="#d3ccba"/>
        <path id="Path_5839" data-name="Path 5839" d="M37.009,45.971l.511-.295a.035.035,0,0,1,.034,0l.539.31a.016.016,0,0,1,0,.027l-.513.3a.027.027,0,0,1-.03,0L37.009,46a.015.015,0,0,1,0-.026" transform="translate(-10.265 -12.671)" fill="#f1eae3"/>
        <path id="Path_5840" data-name="Path 5840" d="M35.841,45.349l.518-.228a.032.032,0,0,1,.034,0l.546.244c0,.036,0,.079-.025.1l-.5.286a.027.027,0,0,1-.03,0l-.521-.3c-.048-.028-.03-.079-.027-.1" transform="translate(-9.942 -12.517)" fill="#d3ccba"/>
        <path id="Path_5841" data-name="Path 5841" d="M35.85,45.306l.511-.295a.035.035,0,0,1,.034,0l.539.31a.016.016,0,0,1,0,.027l-.513.3a.027.027,0,0,1-.03,0l-.541-.311a.015.015,0,0,1,0-.026" transform="translate(-9.944 -12.486)" fill="#f1eae3"/>
        <path id="Path_5842" data-name="Path 5842" d="M34.683,44.683l.517-.228a.033.033,0,0,1,.035,0l.546.244c0,.036,0,.079-.025.1l-.5.286a.027.027,0,0,1-.03,0l-.521-.3c-.048-.028-.03-.079-.027-.1" transform="translate(-9.62 -12.332)" fill="#d3ccba"/>
        <path id="Path_5843" data-name="Path 5843" d="M34.692,44.64l.511-.295a.035.035,0,0,1,.034,0l.539.31a.016.016,0,0,1,0,.027l-.513.3a.027.027,0,0,1-.03,0l-.541-.311a.015.015,0,0,1,0-.026" transform="translate(-9.622 -12.302)" fill="#f1eae3"/>
        <path id="Path_5844" data-name="Path 5844" d="M33.524,44.018l.517-.228a.037.037,0,0,1,.035,0l.546.244c0,.036,0,.079-.024.1l-.5.286a.027.027,0,0,1-.03,0l-.521-.3c-.048-.028-.03-.079-.027-.1" transform="translate(-9.299 -12.147)" fill="#d3ccba"/>
        <path id="Path_5845" data-name="Path 5845" d="M33.533,43.975l.511-.295a.032.032,0,0,1,.034,0l.539.31a.016.016,0,0,1,0,.027l-.513.3a.027.027,0,0,1-.03,0L33.533,44a.015.015,0,0,1,0-.026" transform="translate(-9.301 -12.117)" fill="#f1eae3"/>
        <path id="Path_5846" data-name="Path 5846" d="M32.366,43.352l.517-.228a.033.033,0,0,1,.035,0l.546.244c0,.036,0,.079-.024.1l-.5.286a.027.027,0,0,1-.03,0l-.521-.3c-.048-.028-.03-.079-.027-.1" transform="translate(-8.977 -11.963)" fill="#d3ccba"/>
        <path id="Path_5847" data-name="Path 5847" d="M32.374,43.309l.511-.295a.035.035,0,0,1,.034,0l.539.31a.016.016,0,0,1,0,.027l-.513.3a.027.027,0,0,1-.03,0l-.541-.311a.015.015,0,0,1,0-.026" transform="translate(-8.979 -11.932)" fill="#f1eae3"/>
        <path id="Path_5848" data-name="Path 5848" d="M31.207,42.686l.517-.228a.033.033,0,0,1,.035,0l.546.244c0,.036,0,.079-.024.1l-.5.286a.027.027,0,0,1-.03,0l-.521-.3c-.048-.028-.03-.079-.027-.1" transform="translate(-8.656 -11.778)" fill="#d3ccba"/>
        <path id="Path_5849" data-name="Path 5849" d="M31.216,42.644l.511-.295a.032.032,0,0,1,.034,0l.539.31a.016.016,0,0,1,0,.027l-.513.3a.027.027,0,0,1-.03,0l-.541-.311a.015.015,0,0,1,0-.026" transform="translate(-8.658 -11.748)" fill="#f1eae3"/>
        <path id="Path_5850" data-name="Path 5850" d="M30.048,42.022l.517-.228a.037.037,0,0,1,.035,0l.546.244c0,.036,0,.079-.024.1l-.5.286a.027.027,0,0,1-.03,0l-.521-.3c-.048-.028-.03-.079-.027-.1" transform="translate(-8.334 -11.594)" fill="#d3ccba"/>
        <path id="Path_5851" data-name="Path 5851" d="M30.057,41.978l.511-.295a.035.035,0,0,1,.034,0l.539.31a.016.016,0,0,1,0,.027l-.513.3a.027.027,0,0,1-.03,0L30.057,42a.015.015,0,0,1,0-.026" transform="translate(-8.336 -11.563)" fill="#f1eae3"/>
        <path id="Path_5852" data-name="Path 5852" d="M28.89,41.355l.517-.228a.033.033,0,0,1,.035,0l.546.244c0,.036,0,.079-.024.1l-.5.286a.027.027,0,0,1-.03,0l-.521-.3c-.048-.028-.03-.079-.027-.1" transform="translate(-8.013 -11.409)" fill="#d3ccba"/>
        <path id="Path_5853" data-name="Path 5853" d="M28.9,41.313l.511-.295a.035.035,0,0,1,.034,0l.539.31a.016.016,0,0,1,0,.027l-.513.3a.027.027,0,0,1-.03,0l-.541-.311a.015.015,0,0,1,0-.026" transform="translate(-8.015 -11.379)" fill="#f1eae3"/>
        <path id="Path_5854" data-name="Path 5854" d="M27.731,40.69l.517-.228a.033.033,0,0,1,.035,0l.546.244c0,.036,0,.079-.025.1l-.5.286a.027.027,0,0,1-.03,0l-.521-.3c-.048-.028-.03-.079-.027-.1" transform="translate(-7.692 -11.224)" fill="#d3ccba"/>
        <path id="Path_5855" data-name="Path 5855" d="M27.74,40.647l.511-.295a.035.035,0,0,1,.034,0l.539.31a.016.016,0,0,1,0,.027l-.513.3a.027.027,0,0,1-.03,0l-.541-.311a.015.015,0,0,1,0-.026" transform="translate(-7.694 -11.194)" fill="#f1eae3"/>
        <path id="Path_5856" data-name="Path 5856" d="M45.427,36.92c.6,1.28-.906,1.5-2.531,2.257s-2.754,1.783-3.353.5.23-2.934,1.856-3.7,3.429-.343,4.029.936" transform="translate(-10.916 -9.878)" fill="#ffb8b7"/>
        <path id="Path_5857" data-name="Path 5857" d="M24.048,36.049l-.533-9.943a.854.854,0,0,1,.813-.092l12.889,7.441a.766.766,0,0,1,.383.641l.283,9.587a.457.457,0,0,1-.281.492.316.316,0,0,1-.286-.025Z" transform="translate(-6.524 -7.198)" fill="#cbd1cc"/>
        <path id="Path_5858" data-name="Path 5858" d="M23.525,35.981,23.242,26.4a.225.225,0,0,1,.338-.2l13.18,7.609a.654.654,0,0,1,.327.547l.276,9.314a.388.388,0,0,1-.582.348L23.873,36.562a.7.7,0,0,1-.348-.582" transform="translate(-6.448 -7.259)" fill="#dae5e7"/>
        <path id="Path_5859" data-name="Path 5859" d="M14.071,69.234c3.756,3.4,4.337,3.041,5.157,2.22,1.933-1.934-1.009-3.984-2.57-6.074-5.533-7.411-5.752.989-2.587,3.854" transform="translate(-3.334 -17.312)" fill="#b9baba"/>
        <path id="Path_5860" data-name="Path 5860" d="M2.573,66.979c4.14,3.591,4.713,1.951,5.455,1.059,1.374-1.655-1.4-3.028-3.185-5.25-6.324-7.876-5.759,1.166-2.27,4.192" transform="translate(0 -16.547)" fill="#b9baba"/>
        <path id="Path_5861" data-name="Path 5861" d="M40.758,2.2A3.462,3.462,0,0,1,44.042.016c3.546-.241,3.966,2.289,4.085,3,.488,2.911-3.078,5.96-5.151,4.555-.579-.392-2.107-.918-2.438-2.446a4.6,4.6,0,0,1,.22-2.922" transform="translate(-11.207 0)" fill="#604f56"/>
        <path id="Path_5862" data-name="Path 5862" d="M41.11,6.533c.262,2.212,2.386,3.724,3.509,3.645,1.684-.118,2.823-2.152,2.562-4.364S45.348,1.972,43.671,2.17,40.848,4.322,41.11,6.533" transform="translate(-11.395 -0.598)" fill="#ffc9b7"/>
        <path id="Path_5863" data-name="Path 5863" d="M48.814,7.87a.892.892,0,0,0,.745.774c.358-.025.6-.457.544-.926s-.389-.817-.745-.775a.775.775,0,0,0-.544.927" transform="translate(-13.54 -1.925)" fill="#ffc9b7"/>
        <path id="Path_5864" data-name="Path 5864" d="M48.532,4.479c.133.038-2.385,1.066-3.808-.076a4.436,4.436,0,0,1-1.6-2.3C44.7-1.088,47.71,4.244,48.532,4.479" transform="translate(-11.962 -0.302)" fill="#604f56"/>
      </g>
    </g>
  </g>
</svg>
