<svg xmlns="http://www.w3.org/2000/svg" xmlns:xlink="http://www.w3.org/1999/xlink" width="65.445" height="38.357" viewBox="0 0 65.445 38.357">
  <defs>
    <clipPath id="clip-path">
      <rect id="Rectangle_846" data-name="Rectangle 846" width="65.445" height="38.357" fill="#47a2b9"/>
    </clipPath>
  </defs>
  <g id="Group_2687" data-name="Group 2687" clip-path="url(#clip-path)">
    <path id="Path_10327" data-name="Path 10327" d="M29.241,32.978a.291.291,0,0,1,.071-.083.238.238,0,0,1,.079-.041.505.505,0,0,1,.086-.017l.093-.012-.17-.015-.17-.016-.169-.017-.169-.018a.289.289,0,0,0,.026.087.222.222,0,0,0,.06.074.256.256,0,0,0,.1.048.514.514,0,0,0,.159.007m17.677-1.268a.059.059,0,0,0-.015.014.047.047,0,0,0-.007.016.061.061,0,0,0,0,.017.1.1,0,0,0,0,.019l.008,0,.008,0,.008,0,.008,0-.01-.016a.081.081,0,0,1-.006-.015.036.036,0,0,1,0-.013.017.017,0,0,1,.006-.01m-.094,2.816-.1.028-.1.028-.1.027-.1.028a.22.22,0,0,0,.021.052.2.2,0,0,0,.045.052.471.471,0,0,0,.085.057,1.321,1.321,0,0,0,.144.064.329.329,0,0,0,.127-.015.115.115,0,0,0,.085-.139.141.141,0,0,0-.01-.026.492.492,0,0,0-.109-.155M23.918,32.156,23,32.717q.294.072.59.139t.594.13q.3.064.6.124t.6.115Zm21.928,3.262a.451.451,0,0,1,.127-.035.539.539,0,0,1,.063,0,.447.447,0,0,1,.062,0l-.008-.006-.008,0-.008-.005-.009-.006a1.028,1.028,0,0,0-.087-.124c-.03-.038-.06-.074-.085-.108a.342.342,0,0,1-.053-.1.14.14,0,0,1,.007-.1.64.64,0,0,0,.306.087.12.12,0,0,0,.1-.09c.017-.047.024-.1.041-.152a.154.154,0,0,1,.124-.1l-.007-.006-.006-.006-.005-.006-.005-.006-.134.038-.134.038L46,34.763l-.136.037.026.014.026.018.026.023a.276.276,0,0,1,.028.03.178.178,0,0,0-.056-.019.681.681,0,0,0-.071-.009l-.072-.007a.335.335,0,0,1-.057-.009l-.03.008-.03.007-.03.007-.03.008c.019.028.041.056.057.083a.291.291,0,0,1,.039.083.119.119,0,0,1,0,.083.2.2,0,0,1-.073.083.09.09,0,0,1,.054.035.415.415,0,0,1,.032.06.265.265,0,0,0,.047.068.283.283,0,0,0,.1.063m-10.819,1,.051-.026.047-.021.043-.017.041-.014H35.13a.212.212,0,0,1-.023.024.253.253,0,0,1-.054.041.2.2,0,0,1-.03.014m7.684-3.612a.5.5,0,0,0-.116.033.365.365,0,0,0-.088.052.244.244,0,0,0-.057.065.163.163,0,0,0-.022.071q.572-.121,1.134-.259t1.114-.289q.55-.153,1.089-.322t1.063-.353l-.377-.526-.128.138a.641.641,0,0,1-.008-.093.693.693,0,0,1,0-.078c0-.024.006-.046.008-.068a.429.429,0,0,0,0-.065l.12.165.007-.007a.357.357,0,0,0,.114.114,1.1,1.1,0,0,0,.184.105.341.341,0,0,0,.15.041c.033,0,.045-.03.016-.083l.141.141a.3.3,0,0,1-.075-.09.127.127,0,0,1-.017-.078.054.054,0,0,1,.041-.044.161.161,0,0,1,.1.012.056.056,0,0,0,.03.06.376.376,0,0,0,.1.041l.126.037a.825.825,0,0,1,.12.041q.273-.1.542-.21t.534-.218q.264-.111.525-.227t.516-.235l-.206-.138c-.067-.045-.128-.09-.186-.135s-.112-.09-.16-.132a1.367,1.367,0,0,1-.127-.131.192.192,0,0,1-.017-.2.3.3,0,0,1,.144-.107c.06-.027.128-.048.18-.073s.09-.052.094-.092l-.024-.048q-.848.42-1.75.79t-1.855.686q-.951.319-1.944.585t-2.021.48a.646.646,0,0,1,.292.146,1.908,1.908,0,0,1,.206.222.991.991,0,0,0,.206.2.43.43,0,0,0,.283.069m3.776-1.764.2-.03c.056.038.078.063.078.08s-.022.025-.054.027a.447.447,0,0,1-.112-.012.33.33,0,0,1-.1-.035Zm-.286.593-.019-.074c.012.016.022.03.03.041s.015.023.021.033l.021.033c.008.012.017.025.03.041a.172.172,0,0,1-.028-.014.159.159,0,0,1-.023-.018.182.182,0,0,1-.019-.021.176.176,0,0,1-.015-.024m-5.937,1.792c-.175,0-.35,0-.522-.007s-.343-.012-.51-.024-.33-.03-.486-.054a3.632,3.632,0,0,1-.454-.1.172.172,0,0,1-.069-.162.245.245,0,0,1,.106-.138.755.755,0,0,1,.206-.1.925.925,0,0,1,.229-.044.516.516,0,0,0-.216-.083.681.681,0,0,0-.2.008c-.068.011-.139.028-.216.039a1.038,1.038,0,0,1-.255.008l.108-.009.088-.009.072-.01.058-.011q-.314.035-.63.066t-.634.057q-.317.026-.636.047t-.639.038v0l0,0-.044,0-.044,0-.044,0-.044,0,.022.019h0l-.006,0-.006-.007-.007-.008-.128.006-.128.005-.128,0-.128,0c-.041.034-.08.065-.118.094s-.075.057-.111.083l-.106.078-.1.077.416-.332q-.588.021-1.18.026t-1.182-.006q-.591-.011-1.181-.039t-1.179-.071c-.007.028-.016.06-.027.09a.818.818,0,0,1-.041.1.681.681,0,0,1-.159.206v0h0l-.009.008-.009.008-.009.008-.01.008-.013-.012-.015-.012-.016-.011-.017-.011a1.7,1.7,0,0,0-.33-.007,1.417,1.417,0,0,0-.242.045c-.076.02-.153.044-.248.066a2.639,2.639,0,0,1-.344.06l.088.054a.055.055,0,0,1-.049.026.293.293,0,0,1-.083-.007c-.028-.006-.057-.013-.085-.021l-.06-.017a.179.179,0,0,0,.106-.033.059.059,0,0,0,.013-.052.094.094,0,0,1,0-.053c.009-.016.03-.03.076-.039l-.674-.133.3-.075a.641.641,0,0,0-.068-.041l-.064-.03-.073-.03c-.027-.012-.058-.022-.094-.036l.2-.054c.05-.035.065-.057.06-.073s-.035-.025-.075-.032-.088-.012-.136-.019a.406.406,0,0,1-.124-.036,1,1,0,0,1-.12.026.415.415,0,0,1-.1,0c-.027,0-.045-.011-.05-.025s0-.036.034-.065l.083-.034q-.3-.039-.594-.083t-.591-.09q-.295-.048-.588-.1t-.585-.107l-.034.012-.034.013-.034.014-.033.015a.371.371,0,0,0,.274.134,2.424,2.424,0,0,0,.387,0,1.644,1.644,0,0,1,.371.012.28.28,0,0,1,.228.165.564.564,0,0,0-.134.087,1.21,1.21,0,0,0-.1.1.826.826,0,0,1-.094.092.406.406,0,0,1-.124.069.206.206,0,0,0-.024-.083.255.255,0,0,0-.063-.078.321.321,0,0,0-.1-.058.474.474,0,0,0-.146-.026c-.1.035-.13.072-.124.108a.237.237,0,0,0,.077.107c.033.033.06.064.044.087s-.078.041-.224.05c.009.016.018.032.026.048s.015.033.021.05.012.033.018.05.011.033.016.05l.524.09q.262.044.527.083t.529.077l.531.07v0l-.1-.024h.041l.03,0a.076.076,0,0,1,.019.007.028.028,0,0,1,.01.01l.041.01.406.048.406.044.407.041q.2.02.408.037l.007,0a.81.81,0,0,0,.151-.013.755.755,0,0,0,.137-.038.62.62,0,0,0,.116-.06.432.432,0,0,0,.088-.074.649.649,0,0,1,.069,0h.138a.589.589,0,0,0,.071-.007.139.139,0,0,0,.049.039.269.269,0,0,1,.064.048.06.06,0,0,1,.01.069.287.287,0,0,1-.113.1.354.354,0,0,0-.051-.03.11.11,0,0,0-.041-.011.079.079,0,0,0-.038.008.18.18,0,0,0-.041.026l.165.012.165.012.165.011.165.01.01-.005.01-.005.01-.006.01-.006.012.008.01.007.009.007.008.006.2.011.2.009.2.009.2.008.155-.063a1.291,1.291,0,0,1,.155-.052.288.288,0,0,1,.12-.011.06.06,0,0,1,.053.06.209.209,0,0,1-.03.016l-.03.01-.03.006-.03,0a.181.181,0,0,1,.033.007.053.053,0,0,1,.019.011.027.027,0,0,1,.008.014.039.039,0,0,1,0,.017l.371.009.371.006.371,0h.371l-.017-.007-.018-.007-.02-.008-.022-.009.109.032q.85,0,1.7-.036t1.688-.1q.84-.065,1.672-.162t1.65-.224m-3.209-.458a.046.046,0,0,1-.017.02A.1.1,0,0,1,37,33a.236.236,0,0,1-.038.007h-.046l-.159-.025.078-.006c.024,0,.045,0,.066,0h.066a.709.709,0,0,0,.078-.006m-9.952.072.026-.008.025,0h.023a.055.055,0,0,1,.02.006ZM53.94,28l-.138.026a.3.3,0,0,0,.06.016.1.1,0,0,0,.041,0,.05.05,0,0,0,.025-.015A.054.054,0,0,0,53.94,28m-1.537.934a.159.159,0,0,0,.028.038.222.222,0,0,0,.038.03.336.336,0,0,0,.047.025.406.406,0,0,0,.053.019l.049-.03.049-.03.049-.03.049-.031-.014-.009-.012-.008-.01-.007L52.72,28.9a.112.112,0,0,1-.057.014c-.021,0-.045,0-.071,0a.427.427,0,0,0-.086,0,.336.336,0,0,0-.1.032m5.44-11.006.057-.019-.015,0-.015,0-.014,0h-.014v.009m-.193-1.2,0,0,0,0,0,0,0,0-.005,0,0,0,0,0,0,0M57.515,22l-.21-.182-.018.049-.018.049-.018.049-.019.048a.105.105,0,0,1,.032-.025.139.139,0,0,1,.051-.014.37.37,0,0,1,.08,0,1,1,0,0,1,.12.024m1.671-4.216a9.586,9.586,0,0,0-.292-1.466,10.494,10.494,0,0,0-.521-1.436,11.673,11.673,0,0,0-.743-1.4,13.5,13.5,0,0,0-.96-1.349l-.94.575q.347.465.639.941t.529.965a10.285,10.285,0,0,1,.418.986,9.54,9.54,0,0,1,.3,1,1.143,1.143,0,0,1,.117.033,1.012,1.012,0,0,1,.109.045.349.349,0,0,1,.078.048c.018.016.026.03.021.045l.005-.191a1.873,1.873,0,0,1,.2-.03l.234-.026.206-.021a.651.651,0,0,0,.109-.018.119.119,0,0,0-.017.07.383.383,0,0,0,.012.057.1.1,0,0,1,0,.058.165.165,0,0,1-.056.071l-.34.048.15-.13-.311.09c0,.024-.005.053-.01.087a.65.65,0,0,1-.024.108.458.458,0,0,1-.16.227.386.386,0,0,0-.041-.026c-.016-.009-.032-.017-.049-.024l-.058-.022c-.021-.007-.041-.014-.067-.02.007.035.014.072.02.108s.013.072.019.108.012.072.017.108l.016.108a.537.537,0,0,0,.055-.023.429.429,0,0,0,.049-.027.363.363,0,0,0,.041-.03.277.277,0,0,0,.033-.033l.062,0h.124a.565.565,0,0,0,.064-.006.152.152,0,0,0,.049.033.3.3,0,0,1,.064.041.05.05,0,0,1,.018.057.2.2,0,0,1-.09.083.314.314,0,0,0-.068-.03.078.078,0,0,0-.05,0,.143.143,0,0,0-.047.033c-.017.016-.036.038-.06.065a.6.6,0,0,1,.193,0c.054.008.1.021.15.03a.435.435,0,0,0,.157,0,.659.659,0,0,0,.212-.086c.041.021.059.035.064.047s0,.021-.017.033a.434.434,0,0,0-.05.041.124.124,0,0,0-.035.073.417.417,0,0,1-.074.041.658.658,0,0,1-.083.03c-.028.008-.057.016-.087.022l-.09.018.57.184a.265.265,0,0,0,.108-.083.2.2,0,0,0,.033-.083.408.408,0,0,1,.02-.083.16.16,0,0,1,.068-.075m-1.209-2.821-.168,0,.053-.019a.218.218,0,0,1-.109.006.124.124,0,0,1-.055-.033.192.192,0,0,0-.044-.038.111.111,0,0,0-.075-.007.4.4,0,0,1,.133-.01.408.408,0,0,1,.108.026.676.676,0,0,1,.087.041c.026.014.049.028.07.038m-.69-.1-.049.008-.045.006-.041,0h-.039a.138.138,0,0,1,.03-.015.139.139,0,0,1,.036-.01.228.228,0,0,1,.047,0,.417.417,0,0,1,.06.008M53.441,28.153l-.038-.006-.041,0-.041,0-.038,0a.2.2,0,0,1-.036.041.1.1,0,0,0-.03.05.075.075,0,0,0,.03.065.576.576,0,0,0,.15.09.292.292,0,0,1-.041-.083.125.125,0,0,1,0-.065.1.1,0,0,1,.03-.049.155.155,0,0,1,.057-.032m-.64.764.012-.008.012-.007.012-.007.012-.008-.015-.011-.013-.012-.012-.013-.01-.014c0,.007,0,.015.006.022a.128.128,0,0,1,0,.021.076.076,0,0,1,0,.019.039.039,0,0,1-.006.016m-.189-.206a.026.026,0,0,0,.015-.032.119.119,0,0,0-.03-.044.65.65,0,0,0-.054-.047l-.055-.041-.019,0-.02,0-.02,0-.021,0a.043.043,0,0,0,0,.027.117.117,0,0,0,.027.036.467.467,0,0,0,.064.05c.03.019.066.041.113.067m.144-.083a.08.08,0,0,1-.021-.033.023.023,0,0,1,.005-.022.071.071,0,0,1,.023-.015l.03-.013-.037,0-.036,0-.036,0h-.036l.028.016.027.017.027.018.026.019m-.784-.536-.051.035-.051.035-.051.035-.052.035-.009.006.526.694H52.3a1.07,1.07,0,0,1,.118-.088.156.156,0,0,1,.071-.025.487.487,0,0,1,.078,0,.92.92,0,0,0,.139,0,.022.022,0,0,0,0-.01A.054.054,0,0,0,52.7,28.8l-.015-.015-.024-.018-.02,0h-.03a0,0,0,0,0,0,0h0a1.309,1.309,0,0,0-.144-.107c-.058-.041-.12-.083-.172-.124a.361.361,0,0,1-.108-.118c-.016-.037-.006-.069.045-.095l.033.015.028.014.025.013.022.012a.155.155,0,0,0-.014-.1.236.236,0,0,0-.076-.08.665.665,0,0,0-.124-.064c-.047-.019-.1-.038-.152-.055m.987-.126.05.065,0,0,0,0,0,0,0,0L53.008,28l-.016-.014-.017-.014-.018-.014m-.413-.277-.041.03-.041.031-.041.031-.041.03-.037.026-.037.026-.038.026-.037.026.024.015.024.014.024.013.021.012a.583.583,0,0,0,.135.031,1,1,0,0,0,.175.008.5.5,0,0,0,.158-.03.117.117,0,0,0,.08-.078l-.08-.052-.083-.053-.083-.054c-.028-.019-.052-.037-.077-.055m.664.888-.083-.072,0,0,0,0,0,0,0,0h-.055l.041.033a.258.258,0,0,0,.041.024.106.106,0,0,0,.037.01.056.056,0,0,0,.033-.008m5.639-6.989c0-.012.007-.024.01-.035l.01-.035.009-.035.01-.035c-.017.006-.037.01-.055.016a.117.117,0,0,0-.045.019.028.028,0,0,0,0,.037.245.245,0,0,0,.065.068M9.259,10.88l-.012.014-.012.014-.012.014-.012.015H9.22v.037a.058.058,0,0,0,.028-.011.042.042,0,0,0,.014-.02.076.076,0,0,0,0-.027.215.215,0,0,0,0-.032M4.482,24.3l.008-.025-.1-.165c-.032-.055-.063-.11-.094-.165s-.061-.11-.09-.165l-.088-.165c-.017.011-.036.022-.056.033L4,23.679c-.02.012-.041.023-.058.035a.49.49,0,0,0-.048.035.127.127,0,0,0-.108,0,1.041,1.041,0,0,0-.126.069.7.7,0,0,1-.14.07.233.233,0,0,1-.15,0c-.028.047-.014.062.023.06a.706.706,0,0,0,.157-.036,1.473,1.473,0,0,1,.167-.045c.044-.007.068,0,.054.035l-.365.192a.484.484,0,0,0-.017.1.24.24,0,0,0,.019.111.169.169,0,0,0,.09.083.42.42,0,0,0,.2.021.307.307,0,0,1,.113-.093.388.388,0,0,1,.118-.03c.041,0,.083-.008.13-.017a.475.475,0,0,0,.146-.054.5.5,0,0,1-.18.05c-.036,0-.05-.016-.049-.038a.145.145,0,0,1,.045-.078.339.339,0,0,1,.1-.072.766.766,0,0,1,.126.03.874.874,0,0,1,.127.052.344.344,0,0,1,.09.061c.02.021.027.041.015.06M9.57,10.822l-.132.021a.284.284,0,0,0,.052.014.115.115,0,0,0,.038,0,.061.061,0,0,0,.026-.013.065.065,0,0,0,.017-.021M49.945,30.452a.623.623,0,0,1-.124-.06.1.1,0,0,1-.041-.045.3.3,0,0,0-.026-.052.348.348,0,0,0-.083-.079c-.05,0-.078.009-.088.031a.106.106,0,0,0,.017.09.51.51,0,0,0,.094.116.816.816,0,0,0,.145.109l.09-.041.088-.044.087-.044.087-.044a.163.163,0,0,1,0-.02.126.126,0,0,1,0-.041.117.117,0,0,1,.007-.02l.023.01.021.009.02.008.02.008.09-.044.09-.044.088-.044.087-.045a.188.188,0,0,1,.016-.035.152.152,0,0,1,.024-.03.124.124,0,0,1,.033-.023.177.177,0,0,1,.045-.015c-.036-.041-.068-.073-.1-.1A.806.806,0,0,1,50.6,29.9a.115.115,0,0,1-.026-.06.119.119,0,0,1,.021-.068.629.629,0,0,1,.108.1.307.307,0,0,1,.048.083.663.663,0,0,1,.021.069.217.217,0,0,0,.026.062l.083-.044L50.961,30l.083-.045.083-.045-.01-.01-.01-.01-.01-.01-.012-.01c-.048.06-.115.057-.19.025a1.321,1.321,0,0,1-.24-.158,1.206,1.206,0,0,0-.228-.15c-.066-.027-.12-.021-.15.049a.157.157,0,0,0-.024-.071c-.014-.027-.033-.057-.05-.087a.432.432,0,0,1-.041-.09.1.1,0,0,1,.005-.078.194.194,0,0,1,.165.072,1.382,1.382,0,0,1,.12.165.318.318,0,0,0,.129.124.188.188,0,0,0,.189-.051l-.5-.377.074-.03.077-.033.075-.03.067-.024.013-.03-.03-.023a.3.3,0,0,0-.03-.02l-.03-.017-.028-.016-.163.09-.165.09-.165.09-.165.088.062.053a.609.609,0,0,1,.053.05.106.106,0,0,1,.027.046.038.038,0,0,1-.015.041l-.21-.144-.1.053-.1.052-.1.052-.1.052a.089.089,0,0,1,.006.014l0,.014,0,.013a.062.062,0,0,1,0,.012,1.154,1.154,0,0,0,.09.124c.033.041.068.08.1.12a1.3,1.3,0,0,1,.094.124.548.548,0,0,1,.066.132,1.662,1.662,0,0,1,.15.094.138.138,0,0,1,.047.044c.007.012.008.024.018.045a.466.466,0,0,0,.063.1m.071-1.073.041.016.022.137-.041-.017ZM3.975,23.328l-.035.014-.034.017a.3.3,0,0,0-.03.02.188.188,0,0,0-.026.025l.051-.014.041-.009.033-.006.025,0-.006-.012-.006-.012-.006-.012-.006-.012M.268,16.243l-.014.066-.014.066-.014.066c0,.022-.009.044-.013.066l.159-.026a.106.106,0,0,0,.024-.06.112.112,0,0,0-.015-.06.279.279,0,0,0-.045-.06.711.711,0,0,0-.067-.06M4.019,23.42c-.013.015-.03.033-.045.049a.189.189,0,0,0-.034.045c0,.012,0,.021.018.023a.4.4,0,0,0,.112-.017l-.013-.025-.013-.025-.013-.025-.012-.025m-2.792-7.1-.138.023a.233.233,0,0,0,.053.014.1.1,0,0,0,.039,0,.067.067,0,0,0,.028-.014.076.076,0,0,0,.019-.023m-.849.491L.2,16.62l0,.02,0,.02,0,.02,0,.02a.547.547,0,0,1,.05.048.455.455,0,0,0,.048.046.144.144,0,0,0,.047.024.068.068,0,0,0,.051,0M5.463,25.7l-.021,0a.033.033,0,0,1-.014-.007.016.016,0,0,1,0-.013.051.051,0,0,1,.006-.019q-.114-.15-.222-.3T5,25.055q-.1-.15-.2-.3t-.192-.3a.774.774,0,0,1-.1.141.818.818,0,0,1-.071.07.829.829,0,0,1-.09.066.4.4,0,0,0-.156-.09,1.351,1.351,0,0,0-.289-.06,3.419,3.419,0,0,0-.446-.018c-.177,0-.383.015-.623.039l.011,0,.026-.009.033-.009a.123.123,0,0,1,.03,0,.987.987,0,0,0-.093-.068.653.653,0,0,0-.074-.041c-.024-.012-.049-.021-.078-.033s-.063-.024-.1-.041l.2-.049c.052-.031.07-.052.066-.067s-.03-.023-.068-.03-.083-.011-.128-.018a.362.362,0,0,1-.115-.033,1.186,1.186,0,0,1-.12.024.456.456,0,0,1-.1,0c-.026,0-.041-.01-.045-.023s.009-.033.041-.06l.191-.073a.171.171,0,0,0,.066-.064.074.074,0,0,0,0-.062.189.189,0,0,0-.043-.06.9.9,0,0,0-.07-.062l.051-.012L2.56,23.8l.06-.014.063-.016.11-.026c.035-.007.067-.013.1-.017s.054-.006.083-.007a.374.374,0,0,1,.064,0,.07.07,0,0,1-.03-.007.024.024,0,0,1-.014-.017A.051.051,0,0,1,3,23.67a.217.217,0,0,1,.028-.043l.805-.15c0-.03-.038-.034-.094-.028a2.074,2.074,0,0,0-.206.041,1.393,1.393,0,0,1-.206.037c-.057,0-.1-.006-.1-.041L3.42,23.4c.06-.028.115-.05.169-.072a1.756,1.756,0,0,1,.328-.1,11.616,11.616,0,0,1-.937-2.747,10.445,10.445,0,0,1-.192-2.729A10.677,10.677,0,0,1,3.3,15.1a12.176,12.176,0,0,1,1.175-2.538.168.168,0,0,1,0-.067.135.135,0,0,1,.023-.054.2.2,0,0,1,.041-.041.374.374,0,0,1,.057-.033l.074-.116.076-.116.078-.116L4.9,11.9l0,0,0,0,0,0,0,0H4.865a.1.1,0,0,0-.026.008.105.105,0,0,0-.026.016.164.164,0,0,0-.025.026l.005.022.028.028-.021,0-.007-.025-.174-.18-.184.047.15-.1a.134.134,0,0,1,.068.02.423.423,0,0,1,.057.045.372.372,0,0,0,.064.047.216.216,0,0,0,.088.027c0-.023,0-.047.006-.07a.131.131,0,0,0-.012-.065.121.121,0,0,0-.06-.054.449.449,0,0,0-.137-.036c0-.012.018-.016.045-.017s.06,0,.1,0a.5.5,0,0,0,.1,0c.028,0,.048-.015.052-.034l-.014-.017a.107.107,0,0,1-.018-.038.067.067,0,0,1,0-.022.227.227,0,0,1,.019.025.1.1,0,0,1,.011.021.06.06,0,0,1,0,.017.04.04,0,0,1,0,.014.165.165,0,0,0,.024.021l.03.018.033.016.037.014A15.9,15.9,0,0,1,6.545,9.9,19.135,19.135,0,0,1,8.34,8.265a23.1,23.1,0,0,1,2.117-1.509,27.8,27.8,0,0,1,2.434-1.371,36.506,36.506,0,0,1,7.789-2.8,47.3,47.3,0,0,1,8.5-1.221,51.519,51.519,0,0,1,8.7.27A46.393,46.393,0,0,1,46.3,3.4l1.709-.949q-1.733-.561-3.533-.992T40.839.726Q39,.424,37.134.249T33.391.023a.228.228,0,0,0,.03.049.288.288,0,0,0,.05.047.306.306,0,0,0,.071.038.336.336,0,0,0,.09.021l-.165.008L33.48.2,33.5.2l.016.008.017.007.018.006.018.006.019.007.02.008-.016,0L33.571.235l-.02-.007L33.53.219A.473.473,0,0,0,33.392.2c-.041,0-.077,0-.115,0a.392.392,0,0,1-.124-.015.584.584,0,0,1-.16-.08L32.977.083,32.958.059,32.939.035,32.915.009h-.254a.089.089,0,0,1,.024.033.273.273,0,0,0,.024.041.148.148,0,0,0,.049.041.354.354,0,0,0,.1.035.22.22,0,0,1,.1.1.058.058,0,0,1-.03.067.224.224,0,0,1-.191.012l-.146-.09c-.049-.03-.1-.058-.145-.086L32.306.083C32.26.056,32.216.029,32.171,0c-1.848-.01-3.7.071-5.522.243a51.528,51.528,0,0,0-5.409.8,45,45,0,0,0-5.187,1.373A37.515,37.515,0,0,0,11.2,4.4q-.327.163-.646.33t-.627.337q-.309.171-.61.347t-.589.349a.233.233,0,0,1,.058.03.511.511,0,0,1,.057.046.547.547,0,0,1,.048.05.246.246,0,0,1,.03.041.563.563,0,0,0-.07-.052.676.676,0,0,0-.071-.041.57.57,0,0,0-.064-.026A.282.282,0,0,0,8.671,5.8q-1.062.657-2,1.363A22.3,22.3,0,0,0,4.919,8.625a19.08,19.08,0,0,0-1.5,1.559,16.431,16.431,0,0,0-1.241,1.641l.036.017.033.013a.152.152,0,0,0,.03.007.08.08,0,0,0,.024,0l.039-.05a.088.088,0,0,1,0,.021.041.041,0,0,1-.007.015.043.043,0,0,1-.012.009l-.015,0-.09.115a.178.178,0,0,1-.03-.019.148.148,0,0,1-.021-.021.131.131,0,0,1-.015-.022.16.16,0,0,1-.01-.023q-.322.493-.6,1t-.5,1.019q-.227.516-.405,1.04T.325,16l.095.028c.031.008.062.015.092.02a.756.756,0,0,0,.085.011.576.576,0,0,0,.075,0,.124.124,0,0,0-.041.068c-.01.03-.018.064-.03.1a.179.179,0,0,1-.057.083.165.165,0,0,1-.12.026c.108.03.15.054.157.075s-.019.041-.046.06-.057.041-.054.072.036.065.133.113a.168.168,0,0,1-.014-.1.116.116,0,0,1,.041-.069.216.216,0,0,1,.09-.041.463.463,0,0,1,.124-.009l0,.041a.056.056,0,0,0,.05-.061.763.763,0,0,0-.015-.11.135.135,0,0,1,.012-.1c.018-.025.057-.038.129-.03a.077.077,0,0,1,.053-.012.149.149,0,0,1,.055.021.378.378,0,0,1,.054.041c.018.016.035.033.052.05,0-.017.006-.035.009-.051a.178.178,0,0,1,.01-.041.025.025,0,0,1,.021-.017.075.075,0,0,1,.041.019l.3.3a.855.855,0,0,1-.178.124,1.184,1.184,0,0,1-.177.072c-.06.02-.12.037-.183.059a1.359,1.359,0,0,0-.2.083A.155.155,0,0,1,.852,16.8a.079.079,0,0,1-.02-.024.062.062,0,0,1-.006-.023.133.133,0,0,1,0-.018.9.9,0,0,1-.152.088c-.058.028-.12.056-.176.086a.579.579,0,0,0-.143.1.16.16,0,0,0-.052.127.152.152,0,0,1-.033.008.362.362,0,0,1-.047,0H.166a.414.414,0,0,1-.06-.005,11.352,11.352,0,0,0-.065,2.507A11.841,11.841,0,0,0,.549,22.2a13.451,13.451,0,0,0,1.105,2.544,16.424,16.424,0,0,0,1.736,2.5l2.289-1.272L5.624,25.9l-.054-.069-.054-.07-.053-.07M14.345,4.468a.1.1,0,0,0-.037-.03.351.351,0,0,0-.053-.023L14.2,4.4l-.056-.017c0-.021.011-.03.028-.03a.14.14,0,0,1,.063.019.388.388,0,0,1,.068.047.2.2,0,0,1,.045.052M19.4,2.019a.016.016,0,0,0-.008.019.063.063,0,0,0,.017.024l.03.025.03.023a.29.29,0,0,0,.06,0A.25.25,0,0,0,19.59,2.1a.09.09,0,0,0,.042-.031.046.046,0,0,0,0-.048l.066.057.2-.113c.059.05.073.078.065.1s-.038.026-.07.033a.155.155,0,0,0-.076.027c-.012.015,0,.038.046.083l.169-.024L20,2.383a.166.166,0,0,0-.06-.078.336.336,0,0,0-.1-.051.119.119,0,0,0-.076-.008c-.016.007-.021.024,0,.055.067.049.106.078.129.1s.028.028.026.036-.012.014-.019.027a.1.1,0,0,0,0,.07.143.143,0,0,0-.047-.035.406.406,0,0,0-.072-.03.3.3,0,0,0-.071-.014.057.057,0,0,0-.046.012.148.148,0,0,1-.03,0h-.022l-.015,0a.029.029,0,0,0-.009.007c.037-.038.026-.078-.008-.12a.972.972,0,0,0-.14-.124.4.4,0,0,1-.113-.116c-.016-.035,0-.068.072-.094m-1.007-.037a.238.238,0,0,0,.124,0c.035-.008.065-.023.1-.033a.313.313,0,0,1,.132-.009.716.716,0,0,1,.216.073l.2.337a.138.138,0,0,1,.03-.013.154.154,0,0,0,.03-.011.028.028,0,0,0,.017-.018.049.049,0,0,0-.008-.035l.335.217.021-.018c0,.009,0,.021.01.036a.4.4,0,0,0,.041.047c.015.016.03.032.041.047a.069.069,0,0,1,.02.036.914.914,0,0,0-.1-.017.825.825,0,0,0-.1,0,.934.934,0,0,0-.1.008.948.948,0,0,0-.1.021.392.392,0,0,1,.047.086.056.056,0,0,1,0,.047.15.15,0,0,1-.032.036.345.345,0,0,0-.048.053.255.255,0,0,1-.112-.078.058.058,0,0,1,0-.06.1.1,0,0,0,.015-.064c0-.025-.023-.054-.073-.093a.039.039,0,0,0-.02.008.037.037,0,0,0-.01.015.059.059,0,0,0,0,.017v.015a.23.23,0,0,1-.094-.032.166.166,0,0,1-.049-.051c-.013-.019-.023-.041-.036-.06a.2.2,0,0,0-.055-.056l.236-.019-.2-.236a1.79,1.79,0,0,1-.192-.041.113.113,0,0,1-.056-.03.225.225,0,0,0-.05-.043.98.98,0,0,0-.172-.083m-.3-.005a.23.23,0,0,1,.1.03.163.163,0,0,1,.047.051.233.233,0,0,0,.047.058.257.257,0,0,0,.1.049.1.1,0,0,0-.057.013.035.035,0,0,0-.016.035.088.088,0,0,0,.03.047.275.275,0,0,0,.076.05.051.051,0,0,0,.034-.016.041.041,0,0,0,.009-.028.143.143,0,0,0,0-.032.182.182,0,0,1,0-.03.319.319,0,0,1,.065.045c.019.017.035.033.052.05a.355.355,0,0,0,.052.044.17.17,0,0,0,.065.026c0,.017-.018.027-.041.037a.651.651,0,0,0-.068.028c-.019.011-.03.025-.023.047s.035.051.094.093a.223.223,0,0,1,.141-.005.089.089,0,0,1,.052.064.666.666,0,0,1,.014.09.106.106,0,0,0,.027.066.161.161,0,0,0-.03-.013.156.156,0,0,0-.028-.005.121.121,0,0,0-.045,0l-.035.045a.042.042,0,0,1,0-.014.037.037,0,0,1,.006-.013.055.055,0,0,1,.012-.01l.017-.008a.229.229,0,0,0,.035-.049.047.047,0,0,0,0-.048.145.145,0,0,0-.068-.048.911.911,0,0,0-.165-.048l-.371.038a.177.177,0,0,0,.073-.041.586.586,0,0,1,.051-.045.15.15,0,0,1,.083-.025.6.6,0,0,1,.165.022l-.165-.159a.386.386,0,0,0-.129.007.262.262,0,0,0-.09.041.37.37,0,0,0-.066.063c-.019.023-.037.047-.054.071a.9.9,0,0,1-.1-.2.343.343,0,0,1-.02-.15A.3.3,0,0,1,18,2.083a.769.769,0,0,1,.087-.113m-.417.8-.055-.006h.026l.014,0,.015,0m-.723.255h0v.017Zm-1.361-.144a.05.05,0,0,1,.008.035.025.025,0,0,1-.017.017.126.126,0,0,1-.03.006l-.03,0a.145.145,0,0,0-.008-.035.136.136,0,0,1-.008-.038c0-.01,0-.017.017-.017a.168.168,0,0,1,.067.03M13.051,3.8a.038.038,0,0,1-.008.014l-.012.01-.015.007-.018,0,.007-.009.011-.009.015-.009.02-.008m.07-.045.3.139c-.034.009-.045.021-.041.036a.117.117,0,0,0,.033.05.268.268,0,0,1,.046.06.062.062,0,0,1-.006.068.276.276,0,0,1-.1-.079.386.386,0,0,1-.041-.083.3.3,0,0,0-.055-.09.483.483,0,0,0-.138-.1m1.021.232a.185.185,0,0,0-.06.1.385.385,0,0,0,0,.117c0,.041.009.083.01.124a.3.3,0,0,1-.022.124l-.338-.135c.12.02.173,0,.194-.027a.188.188,0,0,0,0-.132.179.179,0,0,1,.007-.136c.026-.035.086-.054.214-.041m-1.714.248.033.045-.2-.052Zm.233.286-.116-.03a.182.182,0,0,1,.06,0l.03.009a.168.168,0,0,1,.027.014m-.888-.049.033.012,0,.1-.033-.011ZM6.494,9.538a.116.116,0,0,0-.036-.03A.307.307,0,0,0,6.4,9.485l-.06-.019c-.019-.006-.041-.012-.057-.018a.029.029,0,0,1,.025-.033h0a.133.133,0,0,1,.064.021.388.388,0,0,1,.068.05.2.2,0,0,1,.045.055M9.255,6.329l-.066.017L9.2,6.34l.014,0,.018,0a.075.075,0,0,0,.022,0m-.974.145.014.008.011.009a.038.038,0,0,1,.007.009.025.025,0,0,1,0,.009ZM7.864,7.845a.053.053,0,0,1,.007.037.03.03,0,0,1-.019.018.106.106,0,0,1-.03.007.15.15,0,0,0-.03,0,.159.159,0,0,0-.007-.037.154.154,0,0,1-.007-.041.016.016,0,0,1,.014-.018h0a.173.173,0,0,1,.068.03M5.2,8.831a.046.046,0,0,1-.009.014.054.054,0,0,1-.013.011l-.016.007-.019,0,.008-.01.012-.01.016-.009L5.2,8.831m.074-.047.308.148c-.036.01-.048.023-.047.039a.123.123,0,0,0,.032.053.274.274,0,0,1,.044.064.069.069,0,0,1-.009.073.257.257,0,0,1-.1-.083.4.4,0,0,1-.041-.09.308.308,0,0,0-.052-.1.461.461,0,0,0-.137-.108m1.045.248a.209.209,0,0,0-.068.108.429.429,0,0,0-.009.124c0,.043.006.088,0,.133a.339.339,0,0,1-.03.133l-.345-.143c.124.021.18.005.2-.03a.21.21,0,0,0,.007-.141.2.2,0,0,1,.014-.145c.028-.037.092-.057.223-.041m-1.785.264.03.048-.206-.056Zm.227.3-.12-.03h.032l.03.005a.2.2,0,0,1,.03.009.174.174,0,0,1,.028.014m.724,1.21a.194.194,0,0,1-.006.037.093.093,0,0,1-.023.041.082.082,0,0,1-.055.023.246.246,0,0,1-.1-.02.243.243,0,0,1,.046-.041.09.09,0,0,1,.034-.012.208.208,0,0,0,.041-.006.288.288,0,0,0,.066-.023m-2.364.717.01.013a.033.033,0,0,1,0,.012.018.018,0,0,1,0,.012.024.024,0,0,1-.009.01Zm.844.578a.114.114,0,0,0-.05.007l-.047.019a.135.135,0,0,1-.053.01.145.145,0,0,1-.068-.02c-.041-.044-.054-.066-.047-.075s.032,0,.065,0,.073.025.111.036a.239.239,0,0,0,.09.017m-.434.033-.007.113-.07-.026Zm-.454.893a.1.1,0,0,1-.009.037.078.078,0,0,1-.022.027.121.121,0,0,1-.035.018.27.27,0,0,1-.048.012c-.035-.023-.049-.041-.05-.056s.011-.026.03-.034a.219.219,0,0,1,.135,0m-.333.272.02.06-.009-.017a.1.1,0,0,1-.006-.016.078.078,0,0,1,0-.014.066.066,0,0,1,0-.013m.165,1.572a.228.228,0,0,1,.066.047.477.477,0,0,1,.067.08.177.177,0,0,1,.033.078.038.038,0,0,1-.033.041h0l-.1-.2c-.037,0-.051.012-.056.026a.087.087,0,0,0,0,.041c0,.012,0,.019-.018.015a.569.569,0,0,1-.113-.052Zm-.033.254.012.014.012.016.012.018.012.021Zm-.654.258.016.012.015.016.014.02a.206.206,0,0,1,.013.025Zm-.1,7.735.03-.018.041-.027.054-.035L2.306,23l.25-.03a.187.187,0,0,1-.03.128,1.465,1.465,0,0,0-.07.139c-.015.041-.013.075.027.09a.539.539,0,0,0,.261-.018.414.414,0,0,1-.071.078,1.319,1.319,0,0,1-.109.087c-.041.03-.085.06-.13.09l-.132.09A.122.122,0,0,1,2.3,23.63a.179.179,0,0,1,0-.021.1.1,0,0,1,0-.045c-.245.015-.335-.006-.342-.047s.068-.1.15-.16a.877.877,0,0,0,.2-.169c.026-.046-.013-.076-.191-.074m38.72-18.6.114-.083-.229.06.03.006.03.006.03.006.03.006M13.015,8.894l.026-.019.026-.019.026-.019.026-.019-.01-.006L13.1,8.805,13.09,8.8l-.011-.007a.165.165,0,0,0-.039.018.068.068,0,0,0-.022.023.06.06,0,0,0-.007.028.115.115,0,0,0,0,.033m8.111-4.563v.021l-.033-.012q-.8.216-1.584.467t-1.544.536q-.762.289-1.5.609t-1.444.684q-.861.439-1.638.912t-1.479.983q-.7.509-1.316,1.046T9.442,10.682a.191.191,0,0,1,.036.016.314.314,0,0,1,.037.024l.036.03.034.03c0-.016,0-.033.006-.048A.152.152,0,0,1,9.6,10.7a.022.022,0,0,1,.02-.016.074.074,0,0,1,.041.018l.307.279a.751.751,0,0,1-.165.116,1.074,1.074,0,0,1-.168.068c-.057.018-.115.035-.174.054a1.272,1.272,0,0,0-.185.077.15.15,0,0,1-.041-.021.071.071,0,0,1-.02-.023.057.057,0,0,1-.007-.021.116.116,0,0,1,0-.017.83.83,0,0,1-.142.083c-.054.026-.113.052-.165.08a.531.531,0,0,0-.133.093.14.14,0,0,0-.044.12l-.013,0-.016,0-.019,0H8.654c-.041.05-.079.1-.118.15l-.115.15-.112.152c-.037.051-.073.1-.109.153a.1.1,0,0,1,0,.041.069.069,0,0,1-.015.031.094.094,0,0,1-.03.024.216.216,0,0,1-.041.018l-.06.087c-.02.029-.039.058-.057.087l-.057.087-.056.087.06.073,0,.038-.066-.1a10.761,10.761,0,0,0-1.28,2.8,9.271,9.271,0,0,0-.361,2.942,9.592,9.592,0,0,0,.619,3.006A11.907,11.907,0,0,0,8.514,24.4l1.13-.63q-.072-.1-.141-.2t-.134-.2q-.066-.1-.129-.2t-.124-.2c-.021-.007-.041-.014-.06-.021a.149.149,0,0,1-.047-.028.055.055,0,0,1-.017-.041.145.145,0,0,1,.027-.068l0-.006,0-.006,0-.006,0-.006-.307.1a.088.088,0,0,0,.007.087.2.2,0,0,0,.083.06.869.869,0,0,0,.131.044c.048.013.1.024.148.035-.165.036-.305.06-.428.074a2.219,2.219,0,0,1-.323.017,1.652,1.652,0,0,1-.259-.027c-.08-.015-.156-.035-.236-.057a.136.136,0,0,1,.072-.072.564.564,0,0,1,.113-.033.948.948,0,0,0,.126-.033.278.278,0,0,0,.112-.072.035.035,0,0,0,.024.039.161.161,0,0,0,.074.01.41.41,0,0,0,.1-.018.483.483,0,0,0,.111-.053.041.041,0,0,0-.032-.023.265.265,0,0,0-.06-.005.485.485,0,0,0-.069,0,.413.413,0,0,1-.061,0,.642.642,0,0,1,.1-.045c.036-.013.074-.025.11-.037a.884.884,0,0,0,.1-.037A.15.15,0,0,0,8.7,22.7a.112.112,0,0,1,.067.019c.017.012.03.026.047.039a.126.126,0,0,0,.064.028A.3.3,0,0,0,9,22.776l-.027-.045-.027-.045-.026-.041L8.892,22.6l-.012,0-.012,0-.012,0-.011,0-.022-.144v0l0,0v-.007l-.511.138a.78.78,0,0,1-.1.131.151.151,0,0,1-.068.039.573.573,0,0,0-.1.035,1.115,1.115,0,0,0-.186.12c.032-.035.03-.06.014-.083s-.044-.044-.064-.068a.075.075,0,0,1-.012-.09.467.467,0,0,1,.171-.15l.731-.141a.089.089,0,0,1-.025-.02.122.122,0,0,0-.021-.02.077.077,0,0,0-.038-.011.328.328,0,0,0-.075.006l.178-.085L8.7,22.225l-.018-.033-.024-.036-.017-.033c-.062.021-.124.045-.186.07s-.12.047-.177.063a.484.484,0,0,1-.158.023A.192.192,0,0,1,8,22.228a.078.078,0,0,0,.041,0,.242.242,0,0,0,.051-.012l.054-.02.05-.02a.067.067,0,0,0,0-.041.083.083,0,0,0-.024-.041.127.127,0,0,0-.06-.03.282.282,0,0,0-.1,0l.124-.046-.226-.134a.5.5,0,0,1,.21-.045.079.079,0,0,1,.065.047.092.092,0,0,0,.053.051.33.33,0,0,0,.174-.033L8.37,21.8l.117.006a9.965,9.965,0,0,1-.529-1.425,9.021,9.021,0,0,1-.289-1.426,8.7,8.7,0,0,1,.126-2.813.679.679,0,0,1-.076-.07.2.2,0,0,1-.046-.078.128.128,0,0,1,.011-.09.338.338,0,0,1,.094-.108l.094,0c.007-.026.014-.052.021-.078s.015-.052.022-.078l.023-.078.023-.078a.468.468,0,0,1-.087,0,.414.414,0,0,1-.09-.015.444.444,0,0,1-.092-.038.62.62,0,0,1-.1-.064.132.132,0,0,0,.057.018.2.2,0,0,0,.058,0,.424.424,0,0,0,.055-.016l.05-.017a.154.154,0,0,0-.027-.06.325.325,0,0,0-.064-.068.377.377,0,0,0-.1-.058.415.415,0,0,0-.134-.027l.128-.037-.4-.254a.418.418,0,0,1,.24-.015.273.273,0,0,1,.12.083.321.321,0,0,0,.108.088.3.3,0,0,0,.206,0l-.143-.177.392.092A10.178,10.178,0,0,1,8.9,13.287,11.865,11.865,0,0,1,9.959,11.74a14.292,14.292,0,0,1,1.361-1.461,17.361,17.361,0,0,1,1.654-1.361.088.088,0,0,1-.019-.065.072.072,0,0,1,.036-.045.229.229,0,0,1,.076-.026.527.527,0,0,1,.1-.007l.193-.135c.065-.045.131-.09.2-.133l.2-.132.2-.131c-.026-.015-.058-.03-.094-.047a1.058,1.058,0,0,0-.115-.045.994.994,0,0,0-.12-.033.456.456,0,0,0-.108-.009c.051-.015.046-.038.017-.062a.838.838,0,0,0-.13-.076c-.047-.025-.087-.047-.09-.062s.034-.023.139-.019a.106.106,0,0,0,.049.1.622.622,0,0,0,.149.08c.06.025.124.048.18.073a.528.528,0,0,1,.144.085q.223-.143.454-.282t.468-.276q.238-.136.483-.27t.5-.263a29.347,29.347,0,0,1,5.231-2.046,37.332,37.332,0,0,1,5.714-1.16,43.012,43.012,0,0,1,11.894.192l.017,0,.017,0,.018,0,.019,0,.093-.02c.03-.006.057-.01.083-.013s.049,0,.071-.006a.379.379,0,0,1,.057,0,.087.087,0,0,1-.027-.006.027.027,0,0,1-.015-.014.037.037,0,0,1,0-.023A.115.115,0,0,1,39.074,4l.684-.117c-.006-.023-.041-.027-.088-.022s-.11.019-.173.032a1.246,1.246,0,0,1-.175.028c-.05,0-.085,0-.094-.032l.2-.087c.06-.026.116-.048.174-.066a1.421,1.421,0,0,1,.18-.047A1.868,1.868,0,0,1,40,3.659a.036.036,0,0,1,0,.05.219.219,0,0,1-.07.031c-.03.009-.063.019-.093.031a.181.181,0,0,0-.075.052c.108-.03.15-.03.16-.019s-.012.036-.033.06-.041.048-.023.057.068,0,.189-.03c.03.014.041.028.035.044a.124.124,0,0,1-.052.05c-.027.017-.06.035-.09.054a.505.505,0,0,0-.083.055.12.12,0,0,0-.095,0,.661.661,0,0,0-.1.054.523.523,0,0,1-.111.054.226.226,0,0,1-.13,0,.038.038,0,0,0,0,.009.028.028,0,0,0,0,.008.02.02,0,0,0,0,.007.016.016,0,0,0,0,.006l.019,0,.019,0,.019,0,.019,0c.028-.005.06-.014.094-.024s.067-.019.1-.026a.24.24,0,0,1,.073-.009c.017,0,.026.011.021.03l-.114.06.113.021.112.021.112.021.112.022,0,0,.03,0,.033.006.034.008.035.009.058.012.058.012.059.012.058.012.011-.079c.05-.01.115-.019.186-.027l.221-.022L41.1,4.3a.679.679,0,0,0,.1-.015.105.105,0,0,0-.023.06.284.284,0,0,0,.006.05.08.08,0,0,1-.006.05.173.173,0,0,1-.06.06l-.218.028q.294.063.585.13t.582.139q.289.071.578.147t.573.156l.891-.5a40.89,40.89,0,0,0-5.655-1.214A45.374,45.374,0,0,0,26.77,3.25,39.991,39.991,0,0,0,21.13,4.326M7.517,18.744c-.017,0-.045,0-.073.006s-.058.006-.08.007-.036,0-.034-.01.021-.022.064-.045a.31.31,0,0,1,.073-.006.062.062,0,0,1,.034.01.032.032,0,0,1,.011.019.046.046,0,0,0,0,.019M7.3,17.409a.025.025,0,0,1,0-.008.028.028,0,0,1,0-.008.039.039,0,0,1,0-.009l.009-.01Zm1.436-5.432a.27.27,0,0,1-.111-.041c-.01-.011,0-.021.012-.032s.024-.024.019-.041-.03-.037-.09-.064c.026.014.054.028.083.041a.583.583,0,0,1,.071.041.1.1,0,0,1,.038.044.046.046,0,0,1-.019.048m1.513-.716v.055l-.068-.118Zm.293-1.244-.059-.068.016.011.015.015a.2.2,0,0,1,.014.019l.014.024m.61-.243L11.105,9.7l.012.013.012.015.012.017.012.02m.107-.072-.1-.183c-.035,0-.049.012-.053.024a.081.081,0,0,0,0,.038c0,.011,0,.018-.017.014a.581.581,0,0,1-.111-.049l.143-.077a.239.239,0,0,1,.066.045.508.508,0,0,1,.068.074.173.173,0,0,1,.035.073c0,.021-.007.036-.033.041m1.919-1.226a.174.174,0,0,1,.033.071.093.093,0,0,1-.054.106.208.208,0,0,1-.086.019.258.258,0,0,1-.118-.12.151.151,0,0,1,.007-.109c.014-.035.033-.071.046-.108a.16.16,0,0,0,0-.117l.1.251Zm-.2-.664.036.014.03.013.021.009.008,0-.035-.008-.027-.009L13,7.821l-.014-.012M16.616,6.76a.274.274,0,0,1-.11-.038c-.01-.01,0-.02.01-.03s.022-.022.016-.038-.03-.035-.09-.06l.083.041a.578.578,0,0,1,.071.041.094.094,0,0,1,.039.041.041.041,0,0,1-.016.045m-.245-.33h.014l.017,0,.019.007.021.009a.007.007,0,0,1-.006,0h-.013L16.4,6.452l-.03-.017m1.682-.346v.052l-.071-.115ZM20.8,4.764a.075.075,0,0,1-.024-.017.118.118,0,0,1-.019-.021.3.3,0,0,1-.017-.027l-.017-.031.015.022.017.023.019.024.024.026m17.97-1.009a.234.234,0,0,1-.048.062.88.88,0,0,1-.083.069c-.03.024-.064.048-.1.072l-.1.07-.01-.017a.121.121,0,0,1-.007-.017.112.112,0,0,1,0-.017.127.127,0,0,1,0-.018c-.214.012-.3-.006-.31-.038s.041-.078.1-.126a.55.55,0,0,0,.147-.133c.015-.036-.025-.06-.18-.06l.023-.014.033-.021.041-.028.048-.033.216-.023a.123.123,0,0,1,0,.1.779.779,0,0,0-.037.11.056.056,0,0,0,.035.071h.005a.515.515,0,0,0,.227-.014m3.067.637a.01.01,0,0,1,0-.007l.007-.009.012-.01.015-.012a.006.006,0,1,1,.007.01.056.056,0,0,1-.014.012l-.03.017m.289-.041c.023-.014.045-.03.066-.043a.587.587,0,0,1,.066-.038.242.242,0,0,1,.071-.021.2.2,0,0,1,.083.007.124.124,0,0,1-.06.06.091.091,0,0,1-.054,0,.159.159,0,0,0-.068-.008.213.213,0,0,0-.1.049m1.594.27h.062l-.33.078ZM8.073,15.116l.012-.033.012-.033.012-.033.012-.033a.226.226,0,0,0-.051.032.094.094,0,0,0-.027.035.042.042,0,0,0,0,.035.071.071,0,0,0,.03.03m.5,6.864-.008-.017-.008-.018-.008-.018-.008-.018a.181.181,0,0,0-.034.03.032.032,0,0,0-.009.024c0,.007.008.012.02.015a.172.172,0,0,0,.054,0m49.447-.134-.286-.3c-.057-.011-.1-.02-.138-.03s-.063-.015-.083-.022a.271.271,0,0,1-.046-.018.128.128,0,0,1-.026-.018l-.015.045-.015.045-.015.045-.016.045.052.046c.017.016.033.03.051.043a.349.349,0,0,0,.053.035.221.221,0,0,0,.06.021c0,.021-.012.034-.034.046a.531.531,0,0,0-.068.036.041.041,0,0,0-.015.057l0,0a.408.408,0,0,0,.13.116.216.216,0,0,1,.155-.007.152.152,0,0,1,.075.08.975.975,0,0,1,.041.111.182.182,0,0,0,.049.085.237.237,0,0,0-.038-.016.165.165,0,0,0-.032-.007h-.027l-.023.006-.027.057a.055.055,0,0,1,0-.017.04.04,0,0,1,.014-.03.067.067,0,0,1,.016-.01.21.21,0,0,0,.026-.062.073.073,0,0,0-.015-.06.225.225,0,0,0-.09-.06,1.16,1.16,0,0,0-.2-.06l-.33.041c-.017.041-.033.08-.05.12l-.052.12-.054.12-.056.12.059.06.039.028a.3.3,0,0,1,.038.03.089.089,0,0,1,.024.028.018.018,0,0,1,0,.023c.016.019.027.035.035.047s.011.018.01.02-.007,0-.017-.012-.026-.027-.047-.05l-.053.009a.357.357,0,0,1-.066-.041.051.051,0,0,1-.021-.03A.03.03,0,0,1,57,22.666a.164.164,0,0,1,.037-.024l-.045-.058-.024.05-.025.049-.025.049-.025.049a.154.154,0,0,1,.062.1.1.1,0,0,1-.033.071c-.019.021-.044.041-.062.063a.093.093,0,0,0-.026.075l.02.019a.115.115,0,0,1,.014.018.033.033,0,0,1,0,.015.018.018,0,0,1-.007.013l-.014-.018a.136.136,0,0,1-.009-.017.1.1,0,0,1-.006-.016.1.1,0,0,1,0-.015l-.065-.06q-.116.216-.243.432t-.268.429q-.14.213-.293.425t-.318.422h0c0,.005,0,.012,0,.019a.053.053,0,0,1,0,.02.015.015,0,0,1-.008.013.031.031,0,0,1-.023,0l-.008-.009q-.289.364-.615.722t-.692.707q-.366.35-.77.69t-.849.672c.052.023.107.044.161.062s.108.035.161.048a1.294,1.294,0,0,0,.148.028.591.591,0,0,0,.124,0,.106.106,0,0,0-.022.076c0,.033,0,.073,0,.109a.149.149,0,0,1-.032.094.133.133,0,0,1-.118.03l.049.015.041.014.032.013.026.012,0,0,0,0,0,0,0,0,.062.012a.375.375,0,0,1,.052.015.251.251,0,0,1,.047.024.366.366,0,0,1,.047.036l.027,0,.03,0H53.6l.009.045c.038-.007.041-.035.032-.071a1.12,1.12,0,0,0-.052-.124.168.168,0,0,1-.02-.113c.012-.028.047-.044.126-.035a.064.064,0,0,1,.052-.014.183.183,0,0,1,.065.024.629.629,0,0,1,.071.047l.071.057a.4.4,0,0,0-.008-.058.193.193,0,0,1,0-.046.017.017,0,0,1,.017-.019.106.106,0,0,1,.051.021l.12.1q.424-.33.812-.672t.738-.69q.35-.348.666-.7t.589-.722a.292.292,0,0,1,0-.08c0-.027.009-.053.013-.083a.308.308,0,0,0,0-.083.227.227,0,0,0-.032-.09l.12.2c.028-.038.057-.075.083-.113s.055-.075.083-.113l.08-.113.079-.113-.106-.054a.4.4,0,0,1-.074-.046c-.014-.013-.015-.024,0-.03a.467.467,0,0,1,.131-.006.125.125,0,0,0,.006.03.133.133,0,0,0,.013.028.207.207,0,0,0,.019.026l.025.025q.206-.3.39-.606t.343-.611q.16-.306.3-.615t.251-.619c-.028,0-.057,0-.085,0a.543.543,0,0,0-.083,0,.782.782,0,0,0-.162.034.675.675,0,0,1,.076.108.085.085,0,0,1,.013.06.132.132,0,0,1-.026.046.317.317,0,0,0-.039.067.4.4,0,0,1-.146-.1.083.083,0,0,1-.014-.074.138.138,0,0,0,0-.08.274.274,0,0,0-.107-.116.032.032,0,0,0-.02.01.034.034,0,0,0-.007.019.093.093,0,0,0,0,.021.074.074,0,0,0,0,.019.29.29,0,0,1-.113-.041.28.28,0,0,1-.068-.064c-.019-.024-.036-.049-.057-.074a.325.325,0,0,0-.076-.07Zm-3.738,5.233,0-.055c0,.006,0,.012,0,.017a.084.084,0,0,1,0,.014.062.062,0,0,1,0,.012.043.043,0,0,1,0,.01m.49-.067-.083-.083.021.014.02.018.021.023a.306.306,0,0,1,.021.03m.594-.3-.072-.079.017.016.018.018.018.021.019.024m.1-.087-.165-.221c-.038,0-.05.014-.051.03a.131.131,0,0,0,.015.047c.005.013.006.021-.014.017a.824.824,0,0,1-.135-.06l.132-.094a.363.363,0,0,1,.085.053.8.8,0,0,1,.1.09.293.293,0,0,1,.06.088c.009.025,0,.041-.025.049m.52-.425a.425.425,0,0,1-.111-.06c-.014-.014-.009-.022,0-.027a.248.248,0,0,1,.052-.01c.017,0,.03,0,.03-.01Zm.5-1.019c-.022-.013-.047-.025-.072-.037s-.052-.024-.078-.034l-.077-.03-.068-.025a.889.889,0,0,0,.1.012.351.351,0,0,0,.075,0,.123.123,0,0,0,.048-.017.053.053,0,0,0,.022-.03.105.105,0,0,0,.013.041c.007.016.017.033.026.048a.166.166,0,0,1,.018.041.022.022,0,0,1-.01.027m.3-.844.041.016.037.015.026.011.01,0-.041-.009-.033-.011-.025-.013-.019-.014m.686-1.829a.08.08,0,0,1-.008-.016.031.031,0,0,1,0-.012.024.024,0,0,1,0-.009l.007-.007a.312.312,0,0,0,0-.034.025.025,0,0,1,.007-.023.058.058,0,0,1,.038-.006.565.565,0,0,1,.087.017c.01.015.01.024,0,.03a.076.076,0,0,1-.037.008h-.052a.11.11,0,0,0-.041.008Zm.812.376-.048-.033,0,0Zm-.028-.052,0-.052,0,.016a.077.077,0,0,1,0,.014.055.055,0,0,1,0,.012.041.041,0,0,1,0,.01m.092,0a.294.294,0,0,1-.118-.07c-.012-.017,0-.03.008-.041a.055.055,0,0,0,.022-.045c0-.019-.022-.041-.076-.076a.46.46,0,0,1,.108.074.113.113,0,0,1,.033.057.338.338,0,0,1,0,.05.1.1,0,0,0,.019.053m-7.776,6.29a.316.316,0,0,0-.028.074.2.2,0,0,0,0,.088.342.342,0,0,0,.052.11.914.914,0,0,0,.124.141.705.705,0,0,0,.147-.049c.05-.021.1-.045.156-.062a.463.463,0,0,1,.169-.025.394.394,0,0,1,.187.062,1.023,1.023,0,0,0-.035-.115,1.169,1.169,0,0,0-.05-.12c-.02-.041-.041-.083-.06-.126s-.045-.086-.07-.13l-.038-.066-.039-.067-.041-.068L51,28.7l-.043.026-.044.026-.044.026-.044.026.008,0,.009,0,.009,0,.008,0-.054.03a.471.471,0,0,1-.051.023l-.049.017-.047.013-.009,0-.009,0-.009,0-.009,0a.186.186,0,0,1,0,.048.219.219,0,0,1-.009.043.356.356,0,0,1-.016.041l-.02.041.025.019Zm.558.033.023.137-.041-.015Zm7.7-10.351a.248.248,0,0,1,.047-.1.516.516,0,0,1,.09-.09.994.994,0,0,1,.124-.083c.045-.026.093-.05.143-.073l.023.011v-.1l-.017.009-.018.01-.02.011-.022.012L59,18.449l-.191.037-.212.041-.235.041.053-.022-.279-.1.139-.045-.323.028a.981.981,0,0,0,.12-.072.11.11,0,0,0,.034-.034.071.071,0,0,1,.02-.026.451.451,0,0,1,.08-.047c.068-.055.093-.092.088-.118s-.037-.039-.085-.047-.11-.011-.173-.015a.967.967,0,0,1-.175-.023q.03.4.024.8t-.051.8q-.045.4-.127.8t-.2.8a.413.413,0,0,1,.055.007.625.625,0,0,1,.066.017c.024.007.051.017.08.028s.06.026.095.041l.314.422a.106.106,0,0,1,.03-.016.141.141,0,0,0,.03-.014.027.027,0,0,0,.014-.023.085.085,0,0,0-.019-.044l.433.272.018-.023a.036.036,0,0,0,0,.021.127.127,0,0,0,.018.026l.027.03a.367.367,0,0,0,.032.03l.012-.035.012-.035.012-.035.012-.035h-.015l-.013,0-.009,0a.021.021,0,0,0-.006.007l-.035,0h-.024a.038.038,0,0,0-.015.005.021.021,0,0,0-.008.008c.03-.047.007-.1-.041-.15a1.526,1.526,0,0,0-.19-.156.676.676,0,0,1-.158-.145c-.027-.045-.019-.085.054-.12a.019.019,0,0,0,0,.024.1.1,0,0,0,.025.03.4.4,0,0,0,.039.03l.038.028a.294.294,0,0,0,.066,0,.216.216,0,0,0,.066-.017.075.075,0,0,0,.041-.037.067.067,0,0,0-.009-.06l.09.071.193-.142.028.024.023.021.018.018.014.016q.076-.275.136-.552t.1-.552q.041-.275.067-.552t.033-.551a.726.726,0,0,1-.06-.1c-.017-.035-.033-.07-.049-.1a.36.36,0,0,0-.06-.085.208.208,0,0,0-.09-.054.208.208,0,0,1-.088.058.4.4,0,0,1-.1.021c-.034,0-.067,0-.095,0a.2.2,0,0,0-.063.009c-.007-.011,0-.023.009-.035a.178.178,0,0,1,.052-.034.285.285,0,0,1,.066-.022.094.094,0,0,1,.052,0m-.053,2.893.009.006.008.006.008.006.008.006.007-.021.007-.021.007-.021.007-.021a.192.192,0,0,0-.045-.009.051.051,0,0,0-.03.006.022.022,0,0,0-.008.023.115.115,0,0,0,.021.041m-35.3,14.442a.187.187,0,0,0-.041.058.15.15,0,0,0-.012.063.172.172,0,0,0,.015.064.228.228,0,0,0,.041.06.286.286,0,0,0,.033.03.363.363,0,0,0,.089.049.423.423,0,0,0,.055.017c-.012-.012-.024-.024-.036-.035a.271.271,0,0,0-.041-.03.231.231,0,0,0-.046-.021.249.249,0,0,0-.055-.011c.054-.011.108-.024.16-.038l.156-.044c.052-.014.1-.03.156-.044s.106-.027.161-.038c0-.071-.03-.106-.068-.12a.284.284,0,0,0-.15,0c-.06.012-.13.03-.2.041a.542.542,0,0,1-.217,0m33.816-3.91.08-.052.08-.053.08-.053.08-.053-.341.054.009.05c0,.015,0,.03.006.041s0,.025,0,.035,0,.02,0,.03M48.6,34.766l.1-.006-.5-.3a.366.366,0,0,0-.062.02.1.1,0,0,0-.041.03.056.056,0,0,0-.009.043.157.157,0,0,0,.03.062.661.661,0,0,0-.139-.117.856.856,0,0,0-.165-.083.368.368,0,0,0-.141-.026c-.038,0-.063.019-.069.051a.175.175,0,0,0,.041.039.313.313,0,0,0,.053.026l.06.02.063.021a1.724,1.724,0,0,0-.3-.008.6.6,0,0,0-.226.052.151.151,0,0,0-.094.129.363.363,0,0,0,.1.223l-.289-.318a.541.541,0,0,1,0,.137c0,.039-.011.073-.014.107a.314.314,0,0,0,.009.113.557.557,0,0,0,.072.152.186.186,0,0,1-.03-.032l-.026-.035a.3.3,0,0,0-.087-.08c-.074-.023-.112-.019-.13,0a.107.107,0,0,0-.012.087.3.3,0,0,1,.005.1c-.007.026-.028.041-.08.032l-.013-.1a.162.162,0,0,0-.066-.037.109.109,0,0,0-.057,0,.16.16,0,0,0-.046.022.345.345,0,0,0-.033.027.1.1,0,0,0,0,.073.364.364,0,0,0,.057.107.413.413,0,0,0,.109.1.382.382,0,0,0,.161.057l-.2.013.017.014.019.013.021.012.022.012.022.008.023.009.024.011.025.013-.019-.008-.023-.009-.026-.012-.027-.013a.516.516,0,0,0-.187-.03c-.027,0-.052,0-.078,0a.687.687,0,0,1-.077,0,.531.531,0,0,1,.069.06.314.314,0,0,1,.047.058.121.121,0,0,1,.019.051.044.044,0,0,1-.012.038c-.128.075-.248.155-.362.233s-.226.155-.338.224a2.5,2.5,0,0,1-.344.183,1.528,1.528,0,0,1-.38.108,1.2,1.2,0,0,1-.464-.1,1.613,1.613,0,0,1-.347-.215c-.1-.08-.194-.163-.285-.232a.86.86,0,0,0-.281-.154h-.117a.346.346,0,0,1-.06,0c-.019,0-.041,0-.064-.006a.547.547,0,0,1,.064-.009.483.483,0,0,1,.06,0,.463.463,0,0,1,.059.006.54.54,0,0,1,.057.013,2.018,2.018,0,0,0,.24-.02c.076-.01.15-.023.227-.034a2.341,2.341,0,0,1,.24-.024,1.814,1.814,0,0,1,.276.01,1.082,1.082,0,0,1,.134-.1.139.139,0,0,1,.078-.022c.025,0,.053.006.1.009a1.05,1.05,0,0,0,.194-.007.173.173,0,0,1-.065.093.142.142,0,0,1-.083.015.943.943,0,0,0-.108,0,.362.362,0,0,0-.14.038.231.231,0,0,0,.13.11.586.586,0,0,0,.206.036.786.786,0,0,0,.221-.03.455.455,0,0,0,.173-.086.6.6,0,0,1-.083-.1c-.014-.026-.015-.041-.008-.053a.059.059,0,0,1,.045-.018.628.628,0,0,1,.079,0l-.106-.073-.1-.072-.1-.07-.1-.069c-.033,0-.067.007-.1.007a.789.789,0,0,1-.22-.025,1.021,1.021,0,0,1-.129-.041.431.431,0,0,0,.022-.038.3.3,0,0,0,.016-.035.235.235,0,0,0,.01-.033.183.183,0,0,0,0-.03q-.22.053-.442.1l-.445.1-.448.094-.45.09.062.032.057.03.053.028.05.024a.8.8,0,0,1-.2.088.456.456,0,0,1-.169.013.439.439,0,0,1-.145-.045.727.727,0,0,1-.13-.087q-.861.16-1.738.289t-1.766.227q-.889.1-1.787.165t-1.8.1a.659.659,0,0,1,.083.03.776.776,0,0,0,.083.03.433.433,0,0,0,.092.017.439.439,0,0,0,.111-.007.093.093,0,0,1,.041.124l0,.008a.683.683,0,0,1-.12.146.35.35,0,0,0-.094.127c-.007.035.02.06.112.073l.173-.189c.066.019.124.034.174.05a.672.672,0,0,1,.13.053.3.3,0,0,1,.093.079.406.406,0,0,1,.064.127.326.326,0,0,1-.127.066c-.018,0-.017-.017-.014-.041a.132.132,0,0,0,0-.065c-.007-.017-.028-.025-.078-.011l-.222.245a.209.209,0,0,0-.078,0c-.035,0-.072.005-.1,0s-.041-.007-.033-.023a.4.4,0,0,1,.12-.083c-.038.021-.083.041-.13.062s-.09.041-.124.057-.052.033-.049.045.03.022.09.027l-.316.06-.066.064-.124-.038a.15.15,0,0,0,.03-.057c0-.018.008-.036.014-.057a.272.272,0,0,1,.036-.074.647.647,0,0,1,.094-.107.223.223,0,0,1,.065-.028.306.306,0,0,1,.064-.008c.021,0,.042,0,.062,0a.58.58,0,0,0,.06,0,.126.126,0,0,0,.007-.083.086.086,0,0,0-.041-.048.208.208,0,0,0-.072-.022.531.531,0,0,0-.085,0,.082.082,0,0,1,0,.083.225.225,0,0,1-.078.068c-.037.023-.083.046-.133.074a1.513,1.513,0,0,0-.163.1.35.35,0,0,1-.12-.019.49.49,0,0,1-.09-.044c-.027-.016-.052-.032-.077-.044a.17.17,0,0,0-.079-.019.208.208,0,0,1,.013-.071.374.374,0,0,1,.041-.078.564.564,0,0,1,.064-.08.717.717,0,0,1,.086-.076l-.092-.078a.219.219,0,0,1,.03.017l.026.018.022.019.019.019c.019-.014.041-.028.062-.041a.6.6,0,0,1,.068-.037.582.582,0,0,1,.074-.03c.026-.009.053-.018.08-.025a.289.289,0,0,1-.108-.008c-.028-.007-.05-.018-.078-.026a.3.3,0,0,0-.106-.011.916.916,0,0,0-.194.038c.107-.016.121,0,.092.028a1.358,1.358,0,0,1-.173.116.531.531,0,0,0-.147.111c-.012.026.028.035.17.012a.651.651,0,0,1-.215.12A.114.114,0,0,1,34.245,37a.135.135,0,0,1-.032-.1.321.321,0,0,1,.03-.124.228.228,0,0,0,.083-.019.545.545,0,0,0,.083-.044l.083-.054a.76.76,0,0,1,.09-.049.522.522,0,0,0-.2.024.589.589,0,0,0-.165.083.51.51,0,0,0-.115.112.233.233,0,0,0-.047.111l-.38.008.007.017L33.43,36.9c.077-.05.148-.1.21-.134s.117-.071.16-.094a.43.43,0,0,1,.1-.041c.02,0,.026,0,.017.023l.137-.189.215.048a.311.311,0,0,0,.062-.07.047.047,0,0,0,.007-.043.053.053,0,0,0-.032-.024.291.291,0,0,0-.056-.013l-.322,0h-.637q-.161,0-.322,0l-.033.03-.034.03-.035.03-.036.03.106.009a.567.567,0,0,0,.1,0,.15.15,0,0,0,.076-.026.1.1,0,0,0,.038-.072l.4.265a.486.486,0,0,1-.083.045c-.03.014-.066.027-.1.041s-.07.026-.1.041a.793.793,0,0,0-.094.046l.258.186h-.09c-.03,0-.06,0-.09,0a.685.685,0,0,0-.083.012.532.532,0,0,0-.076.02.2.2,0,0,1-.021-.073.124.124,0,0,1,.011-.06.151.151,0,0,1,.036-.049.322.322,0,0,1,.056-.041l-.408-.294-.05.041-.051.041-.052.041-.052.041-.282-.06.264-.165a.185.185,0,0,0-.049-.051.3.3,0,0,0-.071-.035.53.53,0,0,0-.088-.024c-.032-.006-.066-.01-.1-.014q-.878-.022-1.754-.074t-1.747-.133q-.869-.082-1.735-.193T25.277,35.7l-.016.009-.016.009-.018.01-.02.01c-.071.014-.134.03-.195.047s-.116.033-.17.047a.917.917,0,0,1-.157.027.5.5,0,0,1-.156-.012c.1-.083.139-.138.141-.177s-.035-.062-.09-.078a1.832,1.832,0,0,0-.2-.036.667.667,0,0,1-.189-.049l-.035-.007L24.12,35.5l-.035-.007-.035-.007-.126.041a.778.778,0,0,1-.1.027.333.333,0,0,1-.088.006.447.447,0,0,1-.1-.02c.028-.013.054-.024.08-.033l.071-.024.064-.016c.02,0,.041-.007.06-.01l-.045-.008-.045-.008-.045-.008-.045-.009-.066.033-.07.033-.07.033-.066.033a1.25,1.25,0,0,1,.337.085,1.132,1.132,0,0,1,.23.133c.067.049.129.1.2.15a1.156,1.156,0,0,0,.24.133.191.191,0,0,0-.08.011.462.462,0,0,0-.085.041.936.936,0,0,0-.083.056c-.027.019-.054.041-.078.057l.038-.007.039-.007.041-.006c.013,0,.027,0,.041,0,.075-.047.124-.075.157-.093a.233.233,0,0,1,.073-.028c.02,0,.041,0,.075-.008a1.192,1.192,0,0,0,.16-.033.431.431,0,0,1-.1.078.213.213,0,0,1-.074.023.8.8,0,0,0-.085.013.606.606,0,0,0-.132.048.043.043,0,0,0,0,.018.036.036,0,0,0,.007.014.051.051,0,0,0,.012.012l.016.009.035-.009,0,0,0,0,0,0,0,0a.327.327,0,0,0,.106,0,.867.867,0,0,0,.138-.028,1.206,1.206,0,0,0,.146-.051.935.935,0,0,0,.132-.068c-.022-.053-.018-.083,0-.1a.211.211,0,0,1,.1-.032.7.7,0,0,0,.145-.032.252.252,0,0,0,.129-.1.671.671,0,0,1,.243-.074.289.289,0,0,1,.157.026.113.113,0,0,1,.064.076.074.074,0,0,1-.036.076c-.09.047-.18.1-.265.143l-.254.142c-.083.047-.165.092-.245.136s-.16.085-.24.124l.021.03.022.028c.007.009.015.018.024.026l.026.024a.772.772,0,0,0-.248.092,1.14,1.14,0,0,0-.161.12.677.677,0,0,1-.14.1.345.345,0,0,1-.187.033l-.891-.549-.03.008-.027,0H23.14a.055.055,0,0,1-.02-.006l.083-.019-.076-.047a.712.712,0,0,1-.4.12.214.214,0,0,1-.15-.124.371.371,0,0,0-.148-.162.548.548,0,0,0-.387.009c.02-.02.041-.041.064-.06a.315.315,0,0,0,.05-.057.055.055,0,0,0,.009-.052.094.094,0,0,0-.059-.044.916.916,0,0,1-.335.124.263.263,0,0,1-.183-.043,1.468,1.468,0,0,1-.124-.108.269.269,0,0,0-.158-.071c0-.02.019-.03.045-.036a.932.932,0,0,1,.1-.012.54.54,0,0,0,.12-.022.19.19,0,0,0,.1-.066.225.225,0,0,0-.128-.024c-.054,0-.114.007-.167.009a.258.258,0,0,1-.127-.016c-.027-.016-.034-.045-.007-.1a.08.08,0,0,0,.026,0L21.3,35.6l.025-.009a.092.092,0,0,1,.026,0c-.085-.009-.124-.022-.134-.036s.013-.03.051-.049.092-.038.148-.06a1.346,1.346,0,0,0,.156-.068l-.168-.128c-.1.017-.206.033-.307.047s-.2.025-.289.034-.183.014-.267.016a2.065,2.065,0,0,1-.237-.008c-.023-.033-.012-.071.02-.11a.609.609,0,0,1,.151-.12,1.627,1.627,0,0,1,.214-.1,1.453,1.453,0,0,1,.206-.068.217.217,0,0,0-.137-.03.766.766,0,0,0-.169.037c-.06.019-.126.041-.194.062a1.205,1.205,0,0,1-.212.045c.1-.025.173-.044.231-.06a.852.852,0,0,0,.137-.052.645.645,0,0,0,.1-.064c.035-.026.074-.058.127-.1l-.078-.06h-.02l-.392.1-.083.028c-.026.009-.053.019-.078.03s-.049.019-.072.03-.044.019-.064.03l0,.03L19.858,35a.1.1,0,0,1,.018-.019l.03-.021.039-.022.047-.024v-.043l-.828.2-.284.173.066.03h-.111l-1.155.705q.978.311,1.986.581t2.039.5q1.032.23,2.085.42t2.122.338l-.14-.09.566-.107-.234.079c-.022.021-.025.036-.014.046a.108.108,0,0,0,.062.017.586.586,0,0,0,.1,0,.67.67,0,0,0,.09-.015l.041-.018v0l-.008,0-.014,0-.018,0-.224.1Q27.2,38,28.294,38.1t2.2.165q1.1.06,2.2.08t2.2-.007l-.021-.03-.022-.03-.023-.03-.023-.03-.138.111c0-.02-.017-.03-.041-.035a.642.642,0,0,0-.074-.009c-.023,0-.041-.007-.041-.02s.012-.033.053-.068a1.712,1.712,0,0,1,.242-.075c.132-.035.3-.079.483-.124s.368-.09.533-.127.306-.07.392-.087a.75.75,0,0,1,.116.052.458.458,0,0,1,.09.063.241.241,0,0,1,.055.072.139.139,0,0,1,.014.077h-.087a.765.765,0,0,0-.287-.15.406.406,0,0,0-.245.015.63.63,0,0,0-.217.15,1.718,1.718,0,0,0-.2.255l.3-.01.3-.012.3-.013.295-.015-.012-.013a.143.143,0,0,1,0-.033.079.079,0,0,1,.01-.033.121.121,0,0,1,.03-.033.272.272,0,0,1,.058-.033,1.143,1.143,0,0,1,.242-.1,1.363,1.363,0,0,1,.2-.038c.065-.008.131-.014.2-.028a1.224,1.224,0,0,0,.235-.068.21.21,0,0,1,.1.005.128.128,0,0,1,.072.049.063.063,0,0,1-.009.075.319.319,0,0,1-.137.086c0-.041-.052-.041-.12-.025s-.159.049-.237.076a.429.429,0,0,1-.169.041c-.025-.008-.007-.045.083-.135-.041.02-.08.039-.111.057a.9.9,0,0,0-.08.05.427.427,0,0,0-.054.045.193.193,0,0,0-.032.041q1.758-.1,3.488-.32t3.4-.54q1.671-.324,3.279-.757t3.119-.968l-1.454-.87-.034,0h-.033a.158.158,0,0,1-.034-.007.184.184,0,0,1-.035-.015m-27.674.722H20.79l-.05-.025Zm-1.762-.133.067-.016.054-.012.054-.012.067-.016a.106.106,0,0,1-.023.017.2.2,0,0,1-.03.014l-.035.011-.039.008Zm1.642.875a.449.449,0,0,1-.083-.03.045.045,0,0,1-.024-.024.157.157,0,0,0-.012-.03.164.164,0,0,0-.046-.047h.076a.369.369,0,0,1,.085.014c.025.008.041.02.045.039s-.008.043-.041.077M24.944,37l-.037-.083-.178.05.139-.132.038.083.3-.083-.053.038-.064.041a.62.62,0,0,1-.072.041L24.943,37l.057.124.041-.026,0,.117.055.12a.307.307,0,0,1-.021-.03.211.211,0,0,1-.016-.03.2.2,0,0,1-.011-.03c0-.01,0-.02-.006-.03L25,37.125l-.36.213c-.045-.014-.063-.033-.06-.056a.145.145,0,0,1,.057-.083,1.141,1.141,0,0,1,.134-.1c.053-.033.113-.068.172-.1m.269.545a.08.08,0,0,1,.041.008.037.037,0,0,1,.017.021.093.093,0,0,1,0,.026.091.091,0,0,0,0,.024H25.2a.24.24,0,0,1-.057-.008c-.014,0-.02-.012-.013-.023a.182.182,0,0,1,.066-.045m.949,0a.592.592,0,0,1-.168.041c-.011,0,.013-.021.041-.041a.3.3,0,0,0,.076-.068c.011-.02,0-.035-.068-.035a.529.529,0,0,1-.116.1,1.1,1.1,0,0,1-.175.1,1.08,1.08,0,0,1-.2.071.6.6,0,0,1-.194.017l.706-.346a.612.612,0,0,1,.083.006.324.324,0,0,1,.09.023c.024.012.037.027.028.048s-.039.047-.1.083m1.488-.949c-.009-.009-.01-.015,0-.021a.073.073,0,0,1,.033-.013l.054-.012a.509.509,0,0,0,.06-.015Zm7.75,1.017v-.038l.005.009a.031.031,0,0,1,0,.018.035.035,0,0,1-.007.01m.452-.17-.058.028c-.014.008-.028.017-.041.026a.246.246,0,0,0-.03.025.136.136,0,0,0-.02.024l-.168-.055c.039-.017.076-.036.111-.054a.873.873,0,0,1,.094-.041.115.115,0,0,1,.071-.007.069.069,0,0,1,.041.055M62.313,27.56a.138.138,0,0,0,.033.023.3.3,0,0,0,.041.018.469.469,0,0,0,.047.013l.045.009L62.5,27.6l.017-.023.017-.023.018-.023a.547.547,0,0,0-.058-.005.481.481,0,0,0-.06,0,.391.391,0,0,0-.124.032M60.083,10.281l-.24.12a.99.99,0,0,1,.3-.018c.045.01.047.035.045.067a.145.145,0,0,0,.023.108.392.392,0,0,0,.233.106l-.094-.016a.228.228,0,0,1,.106.074c.009.019,0,.035-.03.05a.763.763,0,0,1-.111.041,1.364,1.364,0,0,0-.137.05.422.422,0,0,0,.262.106,2.4,2.4,0,0,0,.34,0,1.64,1.64,0,0,1,.328.01.319.319,0,0,1,.227.13.383.383,0,0,0-.1.068.709.709,0,0,0-.069.076.531.531,0,0,1-.068.072.284.284,0,0,1-.1.054.176.176,0,0,0-.034-.065.276.276,0,0,0-.068-.06.386.386,0,0,0-.1-.045.512.512,0,0,0-.132-.02c-.083.027-.1.055-.09.083a.271.271,0,0,0,.085.083c.035.026.064.05.053.068s-.062.032-.188.038a.621.621,0,0,1,.064.086l.051.087a.863.863,0,0,0,.053.085.516.516,0,0,0,.07.08l-1.749-1a16.214,16.214,0,0,1,1.619,2.059A13.378,13.378,0,0,1,61.8,15.025a11.468,11.468,0,0,1,.692,2.252,10.486,10.486,0,0,1,.193,2.31l.054-.009.055-.012.057-.014.06-.018a.2.2,0,0,1,.13.007.071.071,0,0,1,.039.066.145.145,0,0,1-.033.083.186.186,0,0,1-.085.06.622.622,0,0,1,.231-.083.406.406,0,0,1,.165.017c.049.014.095.033.146.046a.406.406,0,0,0,.175.007c.057.032.065.07.05.111a.457.457,0,0,1-.09.12.234.234,0,0,0-.068.1c0,.03.026.051.111.06l.131-.157.165.041a.738.738,0,0,1,.124.045.334.334,0,0,1,.095.066.408.408,0,0,1,.074.105.259.259,0,0,1-.106.054c-.016,0-.018-.014-.018-.033a.1.1,0,0,0-.006-.054c-.009-.014-.028-.021-.072-.009l-.17.2a.216.216,0,0,0-.071,0c-.03,0-.064,0-.09,0s-.041-.006-.033-.019a.278.278,0,0,1,.1-.068,1.2,1.2,0,0,1-.109.051c-.039.017-.076.033-.1.047s-.041.027-.038.037.03.018.085.023l-.277.05-.052.053-.116-.03a.1.1,0,0,0,.019-.047c0-.015,0-.03.005-.047a.176.176,0,0,1,.023-.06.426.426,0,0,1,.071-.09.191.191,0,0,1,.055-.023.3.3,0,0,1,.057-.007h.057l.054,0a.1.1,0,0,0,0-.068.094.094,0,0,0-.044-.041.242.242,0,0,0-.068-.019.486.486,0,0,0-.078,0,.064.064,0,0,1,.012.069.157.157,0,0,1-.062.056c-.03.019-.068.038-.111.06a1.14,1.14,0,0,0-.134.083.369.369,0,0,1-.112-.015.531.531,0,0,1-.088-.037c-.027-.014-.051-.027-.075-.037a.185.185,0,0,0-.074-.016.175.175,0,0,1,.015-.1.364.364,0,0,1,.073-.107A.539.539,0,0,1,62.9,20a.661.661,0,0,1,.173-.066.31.31,0,0,1-.1-.006c-.026-.006-.047-.014-.072-.02a.315.315,0,0,0-.09-.012.68.68,0,0,0-.15.022v0a.16.16,0,0,1,.049,0c.009,0,.012.008.009.014a.075.075,0,0,1-.021.024.508.508,0,0,1-.043.03,10.461,10.461,0,0,1-.235,1.6,11.07,11.07,0,0,1-.492,1.609,12.206,12.206,0,0,1-.762,1.587,13.909,13.909,0,0,1-1.038,1.559c.027.021.052.044.078.065a.435.435,0,0,0,.083.056.245.245,0,0,0,.1.027.36.36,0,0,0,.135-.023l-.206-.2.656.154a.423.423,0,0,0-.191.023.142.142,0,0,0-.086.075.068.068,0,0,0,.035.08.314.314,0,0,0,.172.035,1.937,1.937,0,0,1,.2-.088.146.146,0,0,1,.09-.008c.025.007.051.021.1.036a1.057,1.057,0,0,0,.218.041.121.121,0,0,0-.071.031.112.112,0,0,0-.035.062.1.1,0,0,0,.014.071.151.151,0,0,0,.074.058.22.22,0,0,0,.018.033.16.16,0,0,0,.022.026.141.141,0,0,0,.025.019.164.164,0,0,0,.027.014.659.659,0,0,0-.36-.058,1.173,1.173,0,0,0-.273.085.661.661,0,0,1-.27.06.638.638,0,0,1-.347-.133.169.169,0,0,0,.066.02.182.182,0,0,0,.06-.005.381.381,0,0,0,.053-.019l.047-.019a.271.271,0,0,0-.047-.066.552.552,0,0,0-.09-.077.563.563,0,0,0-.124-.065.477.477,0,0,0-.15-.03l.124-.041-.229-.13q-.413.53-.893,1.047t-1.031,1.023q-.551.5-1.17.993t-1.309.972q-.738.5-1.529.96t-1.637.88q-.846.42-1.737.8t-1.827.714c.108.06.21.124.31.186s.2.129.3.194.2.13.3.193.216.124.336.183l.028.009.03.013.032.017.035.022-.124-.062a.2.2,0,0,0-.114,0,.217.217,0,0,0-.083.051.591.591,0,0,0-.065.075.812.812,0,0,1-.056.069.7.7,0,0,0-.232-.232.419.419,0,0,0-.218-.045c-.075,0-.155.012-.248.01a.89.89,0,0,1-.322-.068.231.231,0,0,0,.063.195,1.094,1.094,0,0,0,.248.23,1.476,1.476,0,0,0,.362.185,1,1,0,0,0,.4.058l-.1-.2.528-.045a.056.056,0,0,1,0,.038.08.08,0,0,1-.021.033.165.165,0,0,1-.036.027.363.363,0,0,1-.041.023.427.427,0,0,1,.21-.016.629.629,0,0,1,.2.073,1.436,1.436,0,0,1,.194.132c.064.051.128.106.192.161q.81-.308,1.592-.645t1.526-.7q.745-.366,1.456-.761t1.38-.818a.576.576,0,0,0-.131-.12,1.918,1.918,0,0,1-.16-.124.268.268,0,0,1-.093-.146.228.228,0,0,1,.069-.186l.908-.034a.479.479,0,0,1-.062-.041c-.018-.014-.038-.028-.057-.041a.257.257,0,0,0-.071-.03.367.367,0,0,0-.1-.011l.424-.263-.074-.035a.272.272,0,0,0,.1.009.9.9,0,0,0,.115-.019c.039-.008.077-.017.113-.022a.309.309,0,0,1,.1,0,.3.3,0,0,0,.012.06.436.436,0,0,0,.025.063.684.684,0,0,0,.038.065c.015.022.031.045.05.068q.519-.368,1-.747t.924-.766q.442-.387.847-.784t.769-.8c-.039-.013-.078-.026-.117-.041l-.118-.041c-.041-.015-.08-.031-.12-.047l-.124-.05c-.024-.054-.015-.083.013-.1a.3.3,0,0,1,.124-.024.566.566,0,0,0,.141-.02.092.092,0,0,0,.071-.09.221.221,0,0,0,.083.071.384.384,0,0,0,.12.038.321.321,0,0,0,.124-.005.173.173,0,0,0,.095-.057.233.233,0,0,0-.077-.047.487.487,0,0,0-.093-.026c-.032-.006-.065-.01-.1-.014s-.06-.007-.086-.012a.215.215,0,0,1,.09-.047c.036-.012.076-.021.113-.03a.364.364,0,0,0,.094-.034.052.052,0,0,0,.03-.058.279.279,0,0,1,.051.015.4.4,0,0,1,.049.023l.047.028c.016.01.03.021.047.03l.053-.063.053-.063.053-.063.052-.063c-.025,0-.053,0-.083,0l-.086,0a.667.667,0,0,0-.08.009.229.229,0,0,0-.065.022l-.243-.273-.574.09a.578.578,0,0,1,.021.191.052.052,0,0,1-.05.046.273.273,0,0,0-.1.03.325.325,0,0,0-.118.146c0-.049-.035-.093-.088-.136s-.12-.086-.182-.132a.371.371,0,0,1-.133-.153.2.2,0,0,1,.057-.2l.884-.032a.475.475,0,0,1-.062-.041.657.657,0,0,0-.057-.039.271.271,0,0,0-.07-.03.4.4,0,0,0-.1-.011l.408-.25-.073-.034a.27.27,0,0,0,.1.009.928.928,0,0,0,.112-.018c.038-.008.075-.016.11-.021a.313.313,0,0,1,.1,0,.331.331,0,0,0,.03.1.6.6,0,0,0,.068.11,1.062,1.062,0,0,0,.106.118,1.877,1.877,0,0,0,.145.124l.1,0c.029,0,.055,0,.079,0a.418.418,0,0,1,.066,0l.056.007A15.355,15.355,0,0,0,63.7,25.847a13.584,13.584,0,0,0,.786-1.554,12.31,12.31,0,0,0,.548-1.568,11.529,11.529,0,0,0,.318-1.572c-.045.014-.094.03-.137.045a.74.74,0,0,1-.111.03c-.028,0-.045,0-.041-.016a.249.249,0,0,1,.068-.1,1.3,1.3,0,0,0-.121.063.441.441,0,0,0-.073.053.14.14,0,0,0-.034.045.069.069,0,0,0,0,.039l-.041.01-.038.012-.036.014-.035.016-.1-.093a.1.1,0,0,1-.006-.027.061.061,0,0,1,0-.027.082.082,0,0,1,.023-.028.222.222,0,0,1,.048-.028.951.951,0,0,1,.18-.075,1.022,1.022,0,0,1,.158-.032c.051-.007.1-.011.152-.017a1.217,1.217,0,0,0,.163-.03,11.338,11.338,0,0,0,0-2.615,12.056,12.056,0,0,0-.583-2.558,13.865,13.865,0,0,0-1.138-2.468,16.73,16.73,0,0,0-1.663-2.347l-.19-.033.017-.05.124.021q-.1-.12-.206-.24t-.213-.237q-.108-.118-.218-.235t-.224-.233L61.053,10l.021.008-.086-.09-.086-.09-.087-.09c-.029-.03-.059-.06-.09-.09l-.941.575.075.019.076.015.077.01c.026,0,.052,0,.078,0m-2.57,21.013a.213.213,0,0,0,.018.035.168.168,0,0,0,.022.027.145.145,0,0,0,.025.02.174.174,0,0,0,.028.014.652.652,0,0,0-.368-.06,1.21,1.21,0,0,0-.282.09.686.686,0,0,1-.277.064.634.634,0,0,1-.353-.14.167.167,0,0,0,.067.021.172.172,0,0,0,.06-.006.373.373,0,0,0,.054-.019c.017-.007.033-.015.049-.02a.266.266,0,0,0-.047-.07.533.533,0,0,0-.09-.083.564.564,0,0,0-.126-.068.477.477,0,0,0-.153-.032l.127-.045-.51-.3a.4.4,0,0,1,.255-.019.424.424,0,0,1,.156.1.524.524,0,0,0,.144.1.3.3,0,0,0,.219-.006l-.206-.21.669.161a.428.428,0,0,0-.2.024.151.151,0,0,0-.09.08.07.07,0,0,0,.034.083.316.316,0,0,0,.175.037,1.969,1.969,0,0,1,.206-.093.148.148,0,0,1,.093-.008c.026.007.052.021.1.038a1.022,1.022,0,0,0,.222.045.125.125,0,0,0-.11.1.111.111,0,0,0,.012.075.151.151,0,0,0,.074.06m5.921-10.574.006.007a.023.023,0,0,1,0,.007.025.025,0,0,1,0,.008.018.018,0,0,1,0,.009Zm-1,2.472,0,0h0ZM64.5,21.109h-.079a.736.736,0,0,0-.356-.134.376.376,0,0,0-.261.09.936.936,0,0,0-.2.258c-.062.108-.12.234-.183.371-.038-.034-.074-.07-.108-.107s-.068-.075-.1-.113l-.1-.115c-.034-.038-.071-.075-.108-.112l-.11.092c0-.017-.02-.025-.041-.03a.633.633,0,0,0-.068-.008c-.021,0-.038-.006-.041-.017s.007-.027.039-.056a1.441,1.441,0,0,1,.21-.062c.114-.03.264-.065.42-.1s.322-.073.466-.1l.344-.072a.83.83,0,0,1,.112.041.5.5,0,0,1,.09.052.257.257,0,0,1,.06.06.115.115,0,0,1,.022.064m-.665-.5-.048.024-.035.022a.192.192,0,0,0-.024.021.1.1,0,0,0-.015.019l-.16-.046c.033-.014.065-.03.094-.045a.629.629,0,0,1,.08-.035.108.108,0,0,1,.064-.005.074.074,0,0,1,.045.045M60.806,9.914a.043.043,0,0,1,.006.01.01.01,0,0,1,0,.008.013.013,0,0,1-.009,0h-.021ZM23.351,35.538l.026,0,.025,0,.025,0,.024,0a.083.083,0,0,0,.03-.027.037.037,0,0,0,0-.032.1.1,0,0,0-.028-.039.389.389,0,0,0-.066-.047l-.635.295-.028-.03-.03-.03-.03-.03-.03-.03a.23.23,0,0,0,.021.038.035.035,0,0,1,.006.035c-.006.012-.021.024-.055.038a1.093,1.093,0,0,1-.16.046.259.259,0,0,1,0,.071c0,.025-.012.05-.019.075a.548.548,0,0,0-.016.073.158.158,0,0,0,0,.065l.025.019c.018.009.036.017.055.025a.518.518,0,0,0,.127.032.551.551,0,0,0,.074,0l-.023-.053a.177.177,0,0,0,.128.033.539.539,0,0,0,.148-.041l.15-.06a.385.385,0,0,1,.132-.03.213.213,0,0,0,.033-.033.1.1,0,0,0,.019-.083.2.2,0,0,0-.022-.057l-.047.023-.041.021-.034.019-.03.017h.134l-.03.028h-.146l-.041.03-.041.035c-.015.012-.03.026-.05.041l-.065.051-.189-.1.131-.054-.27-.023a.654.654,0,0,1,.09-.06.574.574,0,0,1,.088-.039.566.566,0,0,1,.083-.022.791.791,0,0,1,.083-.01.2.2,0,0,1,.074-.044.977.977,0,0,1,.114-.034l.132-.03c.045-.01.09-.019.128-.03l.006-.013.006-.013.006-.014.005-.015m-.567-.1-.044.019a.276.276,0,0,0-.035.018l-.027.017-.02.016a.582.582,0,0,0,.065.008c.024,0,.047,0,.072,0a.517.517,0,0,0,.08,0c.028,0,.058-.006.09-.012a.062.062,0,0,0-.012-.035.076.076,0,0,0-.032-.025.162.162,0,0,0-.056-.012.4.4,0,0,0-.083.006m-.066.813a.857.857,0,0,1,.13-.006.542.542,0,0,1,.1.012.442.442,0,0,1,.072.022.5.5,0,0,1,.057.026l-.14-.085a.443.443,0,0,1,.021-.039.4.4,0,0,1,.024-.034A.364.364,0,0,1,23,36.12l.028-.027Zm.51-.857-.026.019-.026.019-.026.018-.026.018.03-.009.03-.009.032-.01.033-.012,0-.008,0-.008-.006-.008-.006-.008m-.649-.186a.062.062,0,0,0,.035.041.179.179,0,0,0,.072.015.577.577,0,0,0,.1-.006c.037,0,.077-.012.118-.02l-.066-.014-.066-.014L22.7,35.2l-.066-.015-.015.006-.015.006-.015.006-.015.007m-1.91-.513-.035-.009-.035-.009-.035-.009-.035-.009a.234.234,0,0,1-.094.01.476.476,0,0,1-.087-.018.86.86,0,0,0-.087-.022.277.277,0,0,0-.094,0l.041-.005.038-.006.035-.007.032-.007-.07-.019-.07-.019-.07-.019-.07-.019-.433.265.066.05-.057.023c-.021.008-.045.016-.067.023a.381.381,0,0,1-.064.014.1.1,0,0,1-.049,0,.208.208,0,0,0,.137.016,1.38,1.38,0,0,0,.172-.041,1.111,1.111,0,0,1,.155-.036c.041,0,.074,0,.085.03l.3-.072c.033-.011.068-.021.1-.03l.1-.027.1-.022c.032-.007.062-.012.092-.016m1.745,1.328v-.01l-.238-.18.055.048.057.05.061.049a.732.732,0,0,0,.068.044" transform="translate(0 0)" fill="#47a2b9"/>
    <path id="Path_10330" data-name="Path 10330" d="M93.755,30.613a1.605,1.605,0,0,1,.448-.169,2.263,2.263,0,0,1,.521-.053,2.376,2.376,0,0,1,.527.065,1.842,1.842,0,0,1,.471.179l7.474,4.191a3.641,3.641,0,0,1,.6.416,2.623,2.623,0,0,1,.437.476,1.872,1.872,0,0,1,.261.522,1.5,1.5,0,0,1,.065.538l-.138,1.85a.508.508,0,0,1-.153.306,1.069,1.069,0,0,1-.353.229,1.814,1.814,0,0,1-.49.123,2.22,2.22,0,0,1-.566-.011,2.758,2.758,0,0,1-.592-.158,1.94,1.94,0,0,1-.462-.256,1.106,1.106,0,0,1-.293-.325.641.641,0,0,1-.09-.368l.156-1.816a.281.281,0,0,0-.008-.1.337.337,0,0,0-.047-.1.469.469,0,0,0-.09-.094.811.811,0,0,0-.125-.09l-7.5-4.235a1.053,1.053,0,0,1-.321-.269.542.542,0,0,1-.118-.3.484.484,0,0,1,.09-.3.859.859,0,0,1,.292-.261m-7.977-4.8a1.6,1.6,0,0,1,.448-.163,2.254,2.254,0,0,1,.5-.046,2.325,2.325,0,0,1,.51.065,1.852,1.852,0,0,1,.456.179,1.068,1.068,0,0,1,.316.256.525.525,0,0,1,.12.288.452.452,0,0,1-.081.286.841.841,0,0,1-.29.252l-2.289,1.3a1.629,1.629,0,0,1-.453.168,2.316,2.316,0,0,1-.522.052,2.367,2.367,0,0,1-.521-.065,1.788,1.788,0,0,1-.463-.179.981.981,0,0,1-.311-.261.51.51,0,0,1-.108-.295.48.48,0,0,1,.09-.292.889.889,0,0,1,.3-.254ZM90.2,28.3a1.594,1.594,0,0,1,.448-.165,2.208,2.208,0,0,1,.509-.047,2.372,2.372,0,0,1,.515.065,1.861,1.861,0,0,1,.463.179,1.088,1.088,0,0,1,.321.261.541.541,0,0,1,.125.291.462.462,0,0,1-.078.29.827.827,0,0,1-.288.255l-2.293,1.314a1.628,1.628,0,0,1-.456.169A2.355,2.355,0,0,1,88.42,30.9a1.786,1.786,0,0,1-.468-.179,1.014,1.014,0,0,1-.316-.269.535.535,0,0,1-.113-.3.5.5,0,0,1,.09-.3.871.871,0,0,1,.3-.261Zm15.965-4.365a2.764,2.764,0,0,1,.6.039,2.181,2.181,0,0,1,.507.153,1.328,1.328,0,0,1,.373.242.674.674,0,0,1,.2.307.431.431,0,0,1-.012.31.671.671,0,0,1-.223.269,1.328,1.328,0,0,1-.4.2,2.151,2.151,0,0,1-.538.09l-.787.035,9.891,5.392a1.136,1.136,0,0,1,.336.269.589.589,0,0,1,.137.3.466.466,0,0,1-.065.3.778.778,0,0,1-.276.261,1.55,1.55,0,0,1-.448.173,2.317,2.317,0,0,1-.527.058,2.466,2.466,0,0,1-.538-.059,1.867,1.867,0,0,1-.485-.179l-3.974-2.179-3.51,2.071,1.694.939a3.6,3.6,0,0,1,.6.416,2.693,2.693,0,0,1,.441.479,1.957,1.957,0,0,1,.269.514,1.451,1.451,0,0,1,.073.522l-.09.951a.457.457,0,0,1-.125.292.939.939,0,0,1-.318.223,1.619,1.619,0,0,1-.456.125,2.077,2.077,0,0,1-.538,0,2.354,2.354,0,0,1-.55-.112,1.675,1.675,0,0,1-.434-.215.962.962,0,0,1-.278-.29.571.571,0,0,1-.082-.337l.072-.964a.276.276,0,0,0-.009-.1.335.335,0,0,0-.048-.1.529.529,0,0,0-.09-.09.776.776,0,0,0-.125-.09L98.647,29.8l-.026.382a.512.512,0,0,1-.142.29.979.979,0,0,1-.319.219,1.737,1.737,0,0,1-.448.125,2.239,2.239,0,0,1-.525.013,2.293,2.293,0,0,1-.509-.1,1.594,1.594,0,0,1-.405-.2.862.862,0,0,1-.261-.261.477.477,0,0,1-.07-.306l.385-3.833-2.7.116a1.741,1.741,0,0,1-.437-.039,1.342,1.342,0,0,1-.359-.13.711.711,0,0,1-.239-.2.358.358,0,0,1-.073-.245.463.463,0,0,1,.1-.269.84.84,0,0,1,.255-.22,1.557,1.557,0,0,1,.383-.154,2.4,2.4,0,0,1,.479-.073l2.568-.1.169-1.774-5.683,3.22a1.531,1.531,0,0,1-.424.158,2.207,2.207,0,0,1-.485.051,2.265,2.265,0,0,1-.485-.055,1.6,1.6,0,0,1-.424-.159.963.963,0,0,1-.3-.246.486.486,0,0,1-.107-.276.447.447,0,0,1,.084-.273.831.831,0,0,1,.278-.239l3.5-1.972-.782-.433a1.027,1.027,0,0,1-.316-.256.533.533,0,0,1-.12-.292.464.464,0,0,1,.082-.292.843.843,0,0,1,.3-.256,1.6,1.6,0,0,1,.448-.161,2.46,2.46,0,0,1,.525-.049,2.516,2.516,0,0,1,.531.061,1.807,1.807,0,0,1,.466.17l.782.43,3.437-1.935a1.456,1.456,0,0,1,.411-.15,2.056,2.056,0,0,1,.469-.042,2.189,2.189,0,0,1,.476.065,1.809,1.809,0,0,1,.432.163.95.95,0,0,1,.289.228.479.479,0,0,1,.115.261.4.4,0,0,1-.07.261.758.758,0,0,1-.261.23l-.509.289a.985.985,0,0,1,.155.125.654.654,0,0,1,.106.136.489.489,0,0,1,.055.143.406.406,0,0,1,0,.147l-.179,2.126Zm-3.2,2.151a1.57,1.57,0,0,1-.142-.09.945.945,0,0,1-.108-.09.622.622,0,0,1-.08-.1.576.576,0,0,1-.056-.1l-3.537.149L98.821,27.9c.052.008.106.018.16.031s.108.028.161.045.1.036.151.056a1.354,1.354,0,0,1,.13.065l1.206.668,3.507-2.035Zm1.583,4.848,3.508-2.062L106,27.741l-3.51,2.048Z" transform="translate(-67.711 -11.773)" fill="#47a2b9"/>
  </g>
</svg>
