<svg xmlns="http://www.w3.org/2000/svg" xmlns:xlink="http://www.w3.org/1999/xlink" width="75.43" height="115.749" viewBox="0 0 75.43 115.749">
  <defs>
    <clipPath id="clip-path">
      <rect id="Rectangle_293" data-name="Rectangle 293" width="75.43" height="115.749" fill="none"/>
    </clipPath>
    <clipPath id="clip-path-3">
      <rect id="Rectangle_287" data-name="Rectangle 287" width="18.525" height="10.696" fill="none"/>
    </clipPath>
    <clipPath id="clip-path-6">
      <path id="Path_4808" data-name="Path 4808" d="M150.432,164.132l0-.006Zm-16.1-7.427a.553.553,0,0,0-.049.084.075.075,0,0,0,0,.01.491.491,0,0,0-.03.079v0a.562.562,0,0,0-.018.128c0,.011,0,.022,0,.033a.627.627,0,0,0,.016.134h0a.64.64,0,0,0,.047.129.207.207,0,0,0,.016.032.81.81,0,0,0,.081.127l8.326,10.378a.817.817,0,0,0,.1.1c.01.01.021.017.032.026s.031.027.048.039l.026.015a.822.822,0,0,0,.079.044.669.669,0,0,0,.061.031.8.8,0,0,0,.09.032c.016,0,.03.012.046.015l.015,0c.029.006.058.01.087.013a.64.64,0,0,0,.064.008.805.805,0,0,0,.092,0c.019,0,.039,0,.059,0a.824.824,0,0,0,.1-.02c.015,0,.03,0,.045-.01a.667.667,0,0,0,.136-.06l6.385-3.685a.611.611,0,0,0,.2-.178l.059-.083a.609.609,0,0,1-.192.17l-6.384,3.687a.751.751,0,0,1-.136.059.4.4,0,0,1-.052.011.675.675,0,0,1-.095.02.328.328,0,0,1-.041,0h-.02a.741.741,0,0,1-.089,0c-.022,0-.043-.005-.064-.008s-.058-.008-.087-.014-.04-.012-.059-.018-.062-.02-.092-.033l-.058-.028c-.029-.015-.057-.031-.083-.048a.809.809,0,0,1-.069-.05c-.012-.009-.024-.018-.036-.029a.819.819,0,0,1-.1-.1l-8.325-10.378a.756.756,0,0,1-.081-.126c-.005-.011-.012-.022-.016-.034a.678.678,0,0,1-.046-.126v-.005a.6.6,0,0,1-.015-.134c0-.01,0-.021,0-.031a.585.585,0,0,1,.018-.129c0-.014.01-.027.015-.04s.011-.034.018-.05a.565.565,0,0,1,.041-.072Zm.055-.079.008-.011-.008.011" transform="translate(-134.23 -156.616)" fill="none"/>
    </clipPath>
    <linearGradient id="linear-gradient" x1="-2.296" y1="3.504" x2="-2.279" y2="3.504" gradientUnits="objectBoundingBox">
      <stop offset="0" stop-color="#30674b"/>
      <stop offset="0.336" stop-color="#30674b"/>
      <stop offset="0.686" stop-color="#3a8a5f"/>
      <stop offset="1" stop-color="#3a8a5f"/>
    </linearGradient>
  </defs>
  <g id="Group_851" data-name="Group 851" clip-path="url(#clip-path)">
    <g id="Group_846" data-name="Group 846">
      <g id="Group_845" data-name="Group 845" clip-path="url(#clip-path)">
        <g id="Group_838" data-name="Group 838" transform="translate(27.422 59.049)" opacity="0.08">
          <g id="Group_837" data-name="Group 837">
            <g id="Group_836" data-name="Group 836" clip-path="url(#clip-path-3)">
              <path id="Path_4762" data-name="Path 4762" d="M80.92,176.209c3.867,2.233,9.716,2.475,13.065.542s2.929-5.312-.937-7.543-9.717-2.475-13.066-.542-2.929,5.311.939,7.544" transform="translate(-77.72 -167.36)" fill="#212a3d"/>
            </g>
          </g>
        </g>
        <g id="Group_841" data-name="Group 841" transform="translate(0.569 73.321)" opacity="0.08">
          <g id="Group_840" data-name="Group 840">
            <g id="Group_839" data-name="Group 839" clip-path="url(#clip-path-3)">
              <path id="Path_4763" data-name="Path 4763" d="M4.812,216.66c3.867,2.233,9.717,2.475,13.065.542s2.929-5.311-.937-7.543-9.717-2.475-13.066-.543-2.928,5.312.939,7.544" transform="translate(-1.613 -207.811)" fill="#212a3d"/>
            </g>
          </g>
        </g>
        <path id="Path_4764" data-name="Path 4764" d="M64.61,80.388a3.942,3.942,0,0,1-2.031,1.14c-.909.328-2.45,2.354-1.4,3.356s2.923-.666,3.428-.843.43-1.507,1.364-2.029-.884-2.246-1.364-1.624" transform="translate(-39.366 -51.939)" fill="#ebcab5"/>
        <path id="Path_4765" data-name="Path 4765" d="M56.339,88.153s1.436-1.962,1.861-2.37.724-.307.724-.307-.05,1.141.624.98,2.366-.15,2.165.365c.169.982-1.631,1.782-1.631,1.782l-2.266.891-.942.535-1.158-1.247Z" transform="translate(-36.057 -55.311)" fill="#f7dbc5"/>
        <path id="Path_4766" data-name="Path 4766" d="M62.921,93.472a.386.386,0,0,1-.1-.012.35.35,0,0,1-.241-.432l.228-.808.172-.488a.348.348,0,0,1,.657.233l-.165.466-.222.788a.347.347,0,0,1-.335.254" transform="translate(-40.495 -59.216)" fill="#ebcab5"/>
        <path id="Path_4767" data-name="Path 4767" d="M64.606,92.861a.357.357,0,0,1-.1-.013.348.348,0,0,1-.24-.43l.228-.809.147-.634a.349.349,0,0,1,.68.158l-.152.65-.233.825a.348.348,0,0,1-.335.254" transform="translate(-41.586 -58.702)" fill="#ebcab5"/>
        <path id="Path_4768" data-name="Path 4768" d="M66.263,93.467a.358.358,0,0,1-.126-.023.349.349,0,0,1-.2-.451l.35-.91a.349.349,0,0,1,.651.251l-.351.91a.348.348,0,0,1-.325.223" transform="translate(-42.658 -59.45)" fill="#ebcab5"/>
        <path id="Path_4769" data-name="Path 4769" d="M68.089,93.9a.349.349,0,0,1-.349-.348v-.436a.349.349,0,0,1,.7,0v.436a.349.349,0,0,1-.349.348" transform="translate(-43.84 -60.04)" fill="#ebcab5"/>
        <path id="Path_4770" data-name="Path 4770" d="M63.888,84.584s-1.465,1.779-1.061,2.108,1.445-1.031,1.743-1.161a1.773,1.773,0,0,0,1.112-.278Z" transform="translate(-40.615 -54.741)" fill="#ebcab5"/>
        <path id="Path_4771" data-name="Path 4771" d="M8.167,213.055c1.783-.048,3.535-2.14,3.573.221-.229,2.475-3.276,1.866-3.889,3.428-.073,1.066-3.442.874-3.43-.02s-.278-2.4.312-2.723c1.141.229,2.3-1.7,3.434-.906" transform="translate(-2.821 -137.301)" fill="#725f59"/>
        <path id="Path_4772" data-name="Path 4772" d="M3.91,124.474c-1.065,2.154.324,12.365.771,15.512-1.229,4.136-.741,16.238-.774,17.534.012,2.059,4.506.764,4.7-.795.017-.61.077-12.856.972-16.267s2.386-7.814,2.114-13.33c-2.819.152-5.58-.127-7.779-2.654" transform="translate(-2.276 -80.556)" fill="#29617d"/>
        <path id="Path_4773" data-name="Path 4773" d="M.622,67.269C-.5,67.826.288,74.833.073,75.547s3.385,1.274,4,.918-.62-9.324-1.088-9.481a2.6,2.6,0,0,0-2.363.284" transform="translate(0 -43.242)" fill="#edcc43"/>
        <path id="Path_4774" data-name="Path 4774" d="M28.312,219.115a20.991,20.991,0,0,1-2.966.786c3.548.062-1.7,1.686-2.982.454a2.759,2.759,0,0,0-.7,2.454c-.09,1.447,2.189,1.544,3.191.62-.158-1.382,3.27-.315,4.475-1.477,1.842-2,1.5-4.018-1.014-2.838" transform="translate(-13.985 -141.579)" fill="#725f59"/>
        <path id="Path_4775" data-name="Path 4775" d="M15.855,122.244c-5.025-.3-7.914.946-11.79-2.012-2.264,5.706,1.212,7.84,3.434,8.1,1.25,1.844,2.331,8.431,2.305,11.215A141.795,141.795,0,0,0,9.778,157.1c.153.874,5.367.333,5.255-.839s-.546-13.686-.32-16.58c.719-2.707,2.029-16.4,1.141-17.437" transform="translate(-2.155 -77.811)" fill="#29617d"/>
        <path id="Path_4776" data-name="Path 4776" d="M14.313,87.953c-.478-4.184.324-11.025-.631-14.012-.259-.81.517-1.593-1.079-2.942s-3.934-2.256-7.136-3.313-3.9-.077-4.235,1.5c-.8,3.91.282,5,.849,8.359a39.355,39.355,0,0,1,.408,8.034c.024,3.72,10.2,5.193,11.824,2.37" transform="translate(-0.612 -43.52)" fill="#edcc43"/>
        <path id="Path_4777" data-name="Path 4777" d="M12.085,38.711c2.319.032,3.667,1.078,4.076,2.289a5.769,5.769,0,0,1,0,3.1,3.725,3.725,0,0,1-.82,3.165c-.469.779-1.365.328-1.669.227s-.505,1.7-.174,2.987c.485,1.294-5.214-.076-4.831-1.333a26.822,26.822,0,0,0,.63-2.959c-.042-.442-1.984-2.9-1.338-4.87s1.806-2.641,4.125-2.61" transform="translate(-5.066 -25.052)" fill="#f7dbc5"/>
        <path id="Path_4778" data-name="Path 4778" d="M8.979,37.562c1.9-.547,5.181.254,5.884,2.589.451,1.5-1.035,2.445-2.214,3.459-.151.131.167,1.814-.434.562-.351-.165-.8.757-.862,1.307C9.291,47.023,8.647,46.2,7.1,45.33c-1.376-1.031-1.419-3.755-1-4.846a4.137,4.137,0,0,1,2.881-2.922" transform="translate(-3.794 -24.202)" fill="#38312c"/>
        <path id="Path_4779" data-name="Path 4779" d="M22.019,58.093a2.151,2.151,0,0,1-1.28-1.136c-.349-.861,1.164-1.289,1.105-.5Z" transform="translate(-13.388 -36.27)" fill="#f7dbc5"/>
        <path id="Path_4780" data-name="Path 4780" d="M14.157,38.958a.7.7,0,0,1-.1-.016,1.649,1.649,0,0,0-.238-.258c-.021-.019-.044-.036-.065-.054a.076.076,0,0,1,0-.01c.026,0,.05.008.077.01a1.617,1.617,0,0,0,.194,0,.406.406,0,0,1,.014.062.546.546,0,0,0-.01-.062.625.625,0,0,0,.2-.036.813.813,0,0,0,.162-.079.836.836,0,0,1-.168.057.671.671,0,0,1-.211.007.043.043,0,0,0,0-.01.914.914,0,0,0-.158-.3,4.585,4.585,0,0,0-.35-.4.612.612,0,0,0,.056-.048.6.6,0,0,1,.021.109.627.627,0,0,0-.015-.114h0a.37.37,0,0,0,.059-.067.161.161,0,0,0,.009-.2.43.43,0,0,0-.155-.105.442.442,0,0,1,.135.119c.042.067,0,.138-.074.2a.575.575,0,0,0-.147-.194,4.011,4.011,0,0,0-.758-.488.243.243,0,0,0-.141-.158.353.353,0,0,0-.092-.034c0-.006.008-.01.011-.016a.117.117,0,0,0-.073-.136.363.363,0,0,0-.055-.026.335.335,0,0,1,.052.031c.028.019.082.066.054.122,0,.006-.012.011-.016.017l-.03-.007-.059-.011.057.017.025.01a.35.35,0,0,1-.08.068c-.059-.016-.116-.031-.172-.044a.7.7,0,0,0-.143-.137.844.844,0,0,0,.295-.162.212.212,0,0,0,.068-.158.2.2,0,0,1-.084.14.611.611,0,0,1-.191.087l.02-.025-.024.025a1.311,1.311,0,0,1-.152.037l-.016,0a1.027,1.027,0,0,0-.1-.05l0,0a.9.9,0,0,0,.216-.167.63.63,0,0,0,.07-.1.565.565,0,0,1-.087.083.838.838,0,0,1-.231.116l-.068.022c-.053-.023-.111-.046-.167-.067a.809.809,0,0,0,.141-.142c.037-.055.058-.086.058-.086l-.063.081a.822.822,0,0,1-.157.139l-.024-.01a.655.655,0,0,0,.06-.174.744.744,0,0,0,.007-.113.642.642,0,0,1-.03.107.541.541,0,0,1-.065.115v0a.386.386,0,0,0-.105-.412A.3.3,0,0,0,11.165,36a.281.281,0,0,1,.166.078.336.336,0,0,1,.05.369c-.009.018-.02.032-.029.049l-.035-.01a2.164,2.164,0,0,0-.43-.17c-.047-.042-.1-.089-.173-.142a1.316,1.316,0,0,0-.359-.193c-.03-.008-.061-.015-.093-.022-.031-.031-.06-.059-.083-.082l-.08-.08.071.089c.014.019.035.043.054.066a.991.991,0,0,0-.121-.013c-.007,0-.012-.009-.019-.012a.644.644,0,0,0-.43-.022,1.552,1.552,0,0,0-.269.1.718.718,0,0,0-.008-.138c-.008-.061-.014-.1-.014-.1s0,.036,0,.1a.748.748,0,0,1-.014.152c-.029.013-.056.025-.086.037s-.052.012-.077.02H9.175a1.037,1.037,0,0,0-.143-.047,1.264,1.264,0,0,0-.73.1,1.492,1.492,0,0,0-.23.033.694.694,0,0,0-.078.025.709.709,0,0,0-.135.007,1.5,1.5,0,0,0-.636.2,1.866,1.866,0,0,0-.189.141.474.474,0,0,0-.35.058.589.589,0,0,0-.173.181c0-.017,0-.032.008-.049a.9.9,0,0,1,.113-.254,1.37,1.37,0,0,1,.135-.218.313.313,0,0,1,.206-.125.358.358,0,0,0-.071.005.4.4,0,0,0-.168.086,1.364,1.364,0,0,0-.179.192,1.028,1.028,0,0,0-.18.26,1.472,1.472,0,0,0-.121.5.952.952,0,0,0-.1.267,1.358,1.358,0,0,1-.084-.287.473.473,0,0,1,.1-.367c.08-.074.141-.12.141-.12s-.065.037-.158.1A.521.521,0,0,0,6,37.153a1.578,1.578,0,0,0,.057.348.67.67,0,0,1-.078-.252.653.653,0,0,1,.01-.181.656.656,0,0,0-.034.182,1.032,1.032,0,0,0,.092.4c.018.041.038.078.057.117a2.518,2.518,0,0,0-.449.218,1.743,1.743,0,0,0-.138.112.837.837,0,0,0-.4.172.385.385,0,0,0-.12.268.372.372,0,0,1,.137-.25.7.7,0,0,1,.313-.121c-.016.017-.03.036-.045.055a1.432,1.432,0,0,0-.178.1.631.631,0,0,0-.275.406.5.5,0,0,0,0,.122.458.458,0,0,0-.067.085.476.476,0,0,0-.058.186c-.017.025-.032.053-.047.08-.008.012-.014.025-.022.037-.017.031-.038.058-.053.09s-.034.053-.047.082a1.118,1.118,0,0,0-.1.472c0,.014-.007.027-.008.041a2.188,2.188,0,0,0-.165.2,1.154,1.154,0,0,0-.115.279,1.065,1.065,0,0,0,.141.873l-.09.038.093-.034a.881.881,0,0,0,.1.13.448.448,0,0,1-.168.107.55.55,0,0,0,.083-.032.517.517,0,0,0,.093-.064l.013.012a2.114,2.114,0,0,0,.11.844.79.79,0,0,0,.077.164,3.507,3.507,0,0,0,.029.638,2.148,2.148,0,0,0,.14.461l-.038.034.041-.027a1.2,1.2,0,0,0,.11.207,1.188,1.188,0,0,0,.145.185L5.2,44l-.047-.075a1.077,1.077,0,0,1-.115-.2,1.2,1.2,0,0,1-.082-.236.768.768,0,0,0,.064-.061,2.767,2.767,0,0,0,.18.378l.076.143L5.2,43.8c-.031-.082-.1-.186-.144-.32a.568.568,0,0,0,.046.069,1.278,1.278,0,0,0,.141.149c0,.09,0,.147,0,.147l.019-.129h0c.032.063.054.1.054.1s-.011-.028-.026-.078l.014.013.089.065-.08-.075c-.01-.009-.022-.024-.033-.036s-.008-.025-.012-.041v0a.781.781,0,0,0,.1.028.606.606,0,0,1-.1-.053c.012-.078.027-.175.045-.283a1.379,1.379,0,0,0,.105.358c.016.035.03.064.042.088.012.043.025.082.032.111s.012.039.016.053l0,.041.032.217.019-.215.016-.091a.058.058,0,0,0,0,.011,3.041,3.041,0,0,0,.1.405.848.848,0,0,0,.036.1c0,.013,0,.02,0,.02a.057.057,0,0,0,.005-.011c.015.035.03.067.039.091.021.046.032.073.032.073s0-.029-.006-.08c0-.034-.006-.079-.008-.128l.014.03a1.036,1.036,0,0,1-.015-.108c.013-.03.028-.064.044-.1s.025-.055.038-.085L5.9,44.2l-.013.08.025-.047a.79.79,0,0,0,.075.149.417.417,0,0,0,.044.054l-.018.073.036-.052a.486.486,0,0,0,.142.1l-.047-.054A.431.431,0,0,1,6.09,44.4l.034-.049.04.16s0-.08.011-.195c0,.006.008.014.012.02.041.059.072.1.089.128a1.085,1.085,0,0,0,.042.219l.025.081s0-.031,0-.086c0-.006,0-.016,0-.024l.022.11.041-.291.011.012-.01-.022.079-.558c.023.067.047.129.072.187,0,.012,0,.024,0,.037H6.518l.021.121a.75.75,0,0,1-.024.107c-.029.107-.047.179-.047.179l.1-.105.048.276c0,.02,0,.032,0,.032l0-.01.023.137.127-.524.048-.08c.01-.013.017-.03.027-.044a4.18,4.18,0,0,1-.125.47l.143-.156a3.644,3.644,0,0,0,.3-.375l.008-.013c-.024.3-.066.545-.066.545l.108-.193-.057.244s.177-.217.37-.458a3.01,3.01,0,0,1-.116.382l.137-.114A1.327,1.327,0,0,0,7.7,44.4a.029.029,0,0,1,0,.009l-.062.179.143-.128a1.184,1.184,0,0,0,.23-.27,2.622,2.622,0,0,1-.12.347l.143-.116a2.357,2.357,0,0,0,.295-.3l1.238-.472,1.052-1.4c.02.129.047.267.078.4.022.079.047.156.075.231a1.244,1.244,0,0,1-.153.282c-.094.111-.162.181-.162.181s.075-.062.181-.165a1.292,1.292,0,0,0,.162-.228A1.27,1.27,0,0,0,11,43.32a.767.767,0,0,0,.17.168l.068.056c.006,0-.061-.079-.123-.205l0-.054c0-.041,0-.095.012-.154,0,.011,0,.022.007.032,0-.01,0-.021,0-.032l.025.032s-.009-.046-.02-.117c0-.013,0-.023.006-.037.005-.029.012-.064.019-.095a3.79,3.79,0,0,0,.2.464l.008.016a1.607,1.607,0,0,0,.062.2,1.347,1.347,0,0,0,.092.207l.038.077-.026-.083c-.012-.046-.037-.109-.052-.186l0-.015a1.863,1.863,0,0,0,.32.524,1.106,1.106,0,0,0,.206.185l.088.058-.079-.069a1.01,1.01,0,0,1-.176-.2,1.864,1.864,0,0,1-.26-.61l.058.145s-.016-.092-.041-.23a.833.833,0,0,1-.02-.143,1.012,1.012,0,0,0,.056.107c0,.01.005.024.008.033l.023.08s0-.021-.007-.053c.067.217.134.383.134.383s-.013-.086-.027-.215l.052.062-.04-.068c-.005-.011-.011-.028-.016-.043-.007-.08-.014-.17-.018-.265a.441.441,0,0,1,.02.041l.029.056-.017-.062a1.032,1.032,0,0,1-.036-.161v0c0-.08,0-.159-.01-.234.007.016.014.038.02.052l.01.023.007.105.005-.076.02.05s-.006-.04-.017-.11l.035-.514v.045c0,.174,0,.334,0,.475a1.9,1.9,0,0,0,.035.333l.02.126s0-.046-.007-.127c0-.031,0-.072-.006-.113l.029-.08c.026-.073.061-.178.117-.3l.179-.427c.006-.017.01-.034.016-.051.007.024.014.046.021.066-.009.055-.018.109-.027.161-.026.1-.043.159-.043.159l.028-.067c-.005.034-.011.07-.017.1-.052.3-.088.5-.088.5s.072-.189.179-.474c.018-.048.038-.1.057-.154l.01.024c-.011.061-.017.1-.017.1s.01-.029.024-.077h0v0l.079-.244c.023-.064.046-.139.067-.218a1.675,1.675,0,0,0,.055.181c-.019.156-.029.25-.029.25s.016-.053.044-.144c-.023.107-.038.176-.038.176l.065-.18.043.091-.034-.121c.015-.04.031-.086.049-.137,0,0,0-.011.006-.016.007.033.014.068.022.1a2.051,2.051,0,0,0,.1.323l.026.071c0,.011,0,.022,0,.022l0-.018.016.044s-.005-.032-.012-.076.015-.107.028-.2c.018.034.036.064.052.091l.1.161s-.03-.063-.08-.173c-.019-.045-.041-.1-.063-.163,0-.033.009-.063.015-.1a2.053,2.053,0,0,0,.034-.278c.023-.048.053-.11.084-.178l-.028.17s.018-.047.048-.126l-.048.157.186-.442a2.258,2.258,0,0,0,.091-.236c.007.012.014.024.022.035-.008.026-.016.053-.023.077-.03.054-.048.085-.048.085l.041-.062-.041.138.073-.19.016-.024a.405.405,0,0,0,.032.035,2.9,2.9,0,0,1-.1.3l-.043.12s.025-.038.067-.107.092-.145.144-.248l.005,0,0,0c.007-.016.016-.028.024-.044.021-.039.041-.086.06-.13l0,.009a.063.063,0,0,1,0-.011c.006-.013.012-.025.018-.04,0,.024,0,.051,0,.074a3.026,3.026,0,0,1-.043.333l-.019.126.009-.036c-.01.081-.026.159-.035.239.047-.25.1-.5.167-.743-.006.113-.014.184-.014.184s.036-.141.069-.358c0-.03.007-.062.011-.095s.011-.064.015-.1L13.629,41c0,.08,0,.157,0,.228,0,.207,0,.344,0,.344l.093-.33a.169.169,0,0,0,0-.017c0,.032,0,.068,0,.1a1.461,1.461,0,0,1-.03.264c-.011.064-.016.1-.016.1s.01-.035.029-.1c.008-.037.024-.085.039-.139,0,.074-.005.121-.005.121l.079-.249.035.084-.029-.1c0-.018.011-.034.016-.052a.791.791,0,0,1,.038.1c-.015.082-.025.129-.025.129s.013-.054.035-.147c.008-.041.022-.093.037-.148,0,.041,0,.066,0,.066s0-.034,0-.09c0-.008,0-.02.006-.029a1.33,1.33,0,0,1,.017.222c.009.2.015.329.015.329l.08-.321a4.6,4.6,0,0,0,.109-.737c-.006-.138-.006-.279-.012-.411,0-.008.006-.013.007-.021a1.023,1.023,0,0,0,.032-.334c.008-.033.014-.072.022-.119a.614.614,0,0,0,.078.014.763.763,0,0,1-.076-.027.481.481,0,0,0,.007-.056,1.117,1.117,0,0,0-.174-.6.737.737,0,0,1,.1.145.681.681,0,0,1,.073.187c.01.048.016.075.016.075s0-.028,0-.077a.673.673,0,0,0-.042-.2.882.882,0,0,0-.114-.219.6.6,0,0,0,.079,0,.546.546,0,0,0,.132-.023l.049-.011-.051.006a.578.578,0,0,1-.131.006M4.9,39.2l.024-.025c-.011.018-.02.035-.031.053,0-.009,0-.019.007-.028m-.057.28a.009.009,0,0,1,0,0v0A.957.957,0,0,1,5,39.2c0,.016,0,.031-.006.048a1.447,1.447,0,0,0-.116.2c-.012.021-.025.041-.036.062,0-.011,0-.022,0-.033m.267.559c.006.015.013.03.019.046l0,.032-.027.051-.013.017c-.008-.025-.016-.05-.023-.078a.121.121,0,0,1,0-.016c.014-.017.028-.036.042-.052m-.028-.655c0-.014,0-.027.008-.041a.315.315,0,0,1,.029-.029l-.034.067,0,0m.086,1.5A.823.823,0,0,1,5.2,40.8l.031.32c-.033-.025-.071-.054-.111-.091.017-.048.032-.1.05-.144M5.074,40.2c-.019.024-.036.044-.056.071-.014-.024-.03-.047-.043-.074.022-.031.046-.055.069-.084.009.032.019.059.03.087m-.172.886c.011-.047.025-.091.04-.135.007-.017.016-.034.023-.05a.072.072,0,0,1,.01.012s.009.007.013.013c-.014.076-.029.154-.041.237-.015-.022-.03-.049-.045-.077m.043.1s0,.01,0,.014,0,.02-.007.03a.622.622,0,0,1-.044-.1c0-.006,0-.012,0-.02a.856.856,0,0,0,.05.072m.033-.311.013-.028a.153.153,0,0,1,.018-.016c-.005.023-.01.045-.015.069-.006-.008-.01-.018-.016-.025M4.8,41.7s0,0,0,.008V41.7Zm-.018-1.12,0,.011,0,0Zm-.125-.921a1.775,1.775,0,0,1,.123-.307,1.789,1.789,0,0,0-.014.185,1.091,1.091,0,0,0-.023.171c-.023.028-.046.058-.068.089-.02.016-.04.031-.059.048.013-.062.022-.123.04-.185m.071,1.948c0,.012,0,.024,0,.036l-.007-.006c0-.011,0-.023,0-.033l0,0m0-.014c0-.009,0-.019,0-.028,0,.01,0,.02,0,.029h0m.005.08c0,.032,0,.063,0,.095-.007-.03-.01-.062-.014-.092a.082.082,0,0,1,0-.011l.01.008m-.125-1.547c.032-.051.068-.1.1-.147,0,.038,0,.075-.006.113a.024.024,0,0,1,0,.007,1.52,1.52,0,0,0-.088.142c-.008-.032-.011-.068-.016-.1l.006-.012m.061.851c-.005.025-.01.05-.014.074,0-.025,0-.051,0-.076s.01-.042.015-.064l0,.006c0,.02,0,.04,0,.059m-.076.356.007-.007.027-.033a.046.046,0,0,0,.007.011,1.38,1.38,0,0,0,0,.2c-.019-.032-.036-.067-.053-.1,0-.024.006-.047.008-.07m0-.824,0-.006v.007a.125.125,0,0,0,0,.017c0-.006,0-.012,0-.018m.007.777c0-.012,0-.024,0-.035a.134.134,0,0,0,.008.015l-.013.019m.027-.139c0,.017.007.034.01.048s0,.013,0,.02l-.017-.02s0-.009,0-.013,0-.019,0-.029l.009-.007m-.006-.018v0h0m.014.093s0,.007,0,.011l-.011-.023.012.012m-.056-1.04h0c.006.025.011.054.017.078,0,0,0,0,0,.008s-.016.038-.024.056c0-.047,0-.093,0-.14m-.041.222a.923.923,0,0,0-.04.091c0-.021,0-.041,0-.062.007-.036.02-.071.03-.107,0,.027.008.052.01.077m-.207.012a1.084,1.084,0,0,1,.118-.25c.022-.023.041-.048.061-.072a1.411,1.411,0,0,0-.056.2,1.116,1.116,0,0,0-.064.254.874.874,0,0,0,.041.338,1.233,1.233,0,0,0,.04.347l-.041.025a1.016,1.016,0,0,1-.1-.838m.108.319c0,.008,0,.014,0,.021v.019a.761.761,0,0,1,0-.106c0,.022,0,.045.006.066m.085.642-.006.006a1.007,1.007,0,0,1-.086-.123c.012-.005.028-.014.04-.021s0,.018.007.028a1.061,1.061,0,0,0,.046.1v.011m.01-.1-.009-.02c0-.012,0-.026-.007-.038l.022-.012c0,.024,0,.047-.007.071m.008-.086c-.01.007-.017.01-.026.015a1.092,1.092,0,0,1-.019-.168c.017.028.033.058.05.081v.005c0,.022,0,.044-.006.067m0-.21a1.673,1.673,0,0,1-.033-.2.086.086,0,0,1,0-.014,1.167,1.167,0,0,1,.054-.178c.006.031.016.057.024.087,0,.065,0,.125,0,.188s-.024.108-.032.162c-.006-.017-.012-.032-.017-.05m.173,1.365c0,.018,0,.039,0,.059a.773.773,0,0,1-.055-.141,2.005,2.005,0,0,1-.075-.776,1,1,0,0,0,.066.089c0,.011,0,.021.007.032a2.587,2.587,0,0,0,.025.557c.011.052.024.1.038.148,0,.012,0,.02,0,.032m.029-.33s-.006.059-.015.15a.023.023,0,0,1,0-.008,2.539,2.539,0,0,1-.016-.305c.012.036.026.069.038.1s.006.042.008.064Zm.013-1-.006.006c.011-.04.023-.079.037-.117h0c-.011.037-.02.074-.031.111m.028-.368c0-.02,0-.041,0-.062l0,0c0,.01.007.018.011.028l-.016.029m.03,1.373c0-.006,0-.014-.006-.02,0-.09-.006-.18-.005-.273l.005,0c.006.046.011.095.02.139-.006.048-.01.1-.014.149m-.007-1.537c0-.011.008-.024.014-.036.023-.041.047-.076.07-.114l0,.006,0-.007c.022-.036.043-.073.065-.106.015.025.029.045.045.067a2.159,2.159,0,0,0-.17.268c-.008-.026-.018-.051-.024-.078m.054,1.132-.007-.007a1.785,1.785,0,0,1,.011-.245c0-.015,0-.03.006-.046.014.024.022.038.022.038s-.008-.016-.022-.042c0-.01,0-.021,0-.031.015.016.028.031.04.042-.021.095-.038.191-.053.291m.042-.311c-.008-.008-.018-.024-.027-.035a1.162,1.162,0,0,1,.013-.117.791.791,0,0,0,.044.085c-.006.026-.012.054-.018.082L4.9,41.308m.044,2.156c-.011-.045-.019-.091-.027-.139a.719.719,0,0,1,.01-.085c.022.052.044.1.069.15a.759.759,0,0,1-.052.073m.121-.091a.067.067,0,0,1,.008-.012c0,.012,0,.024,0,.035,0-.008-.008-.015-.011-.023m0-.243c0,.042,0,.085,0,.129-.007.017-.014.032-.022.048-.017-.049-.034-.1-.047-.149-.007-.033-.009-.068-.014-.1.015-.02.03-.048.045-.07A.092.092,0,0,1,5.036,43l.044.06c0,.026-.008.048-.011.074m.012-.078-.039-.059-.009-.015q.015-.021.029-.044c.017.025.028.04.031.044,0,.025-.009.049-.012.074m.012-.074c0-.006-.014-.022-.029-.048.015-.025.031-.047.047-.074-.008.037-.012.081-.018.122m.132.66.01.006c0,.005.005.011.007.016s-.011-.016-.017-.022m-.012-1.984c.011-.031.02-.056.028-.078,0,.026-.005.053-.008.08Zm.031,1.9a1.3,1.3,0,0,1-.01-.381c0,.007.007.016.01.024,0,.133,0,.258,0,.362v0M5.251,41.5l-.243-.076c0-.016,0-.034.006-.049h0a.082.082,0,0,1,.007.01l-.006-.011q.012-.047.024-.091l.058.052-.056-.058c.022-.082.046-.157.07-.23a1.177,1.177,0,0,0,.118.085l.03.312c0,.019,0,.038-.007.058m.013-1.856-.034.019h0l.048-.05Zm.007-1.207c-.011.031-.018.061-.026.091a.644.644,0,0,0-.1.133,1.209,1.209,0,0,0-.113.091l-.014.018a.539.539,0,0,0-.068.062.449.449,0,0,1,.017-.1.587.587,0,0,1,.291-.346c.016-.007.031-.011.047-.018-.012.025-.027.046-.037.071m.5-.1c-.069.026-.147.058-.243.1a.935.935,0,0,1,.159-.08l.09-.036Zm.111-.329c-.038.016-.078.035-.118.055H5.742l-.018,0a2.4,2.4,0,0,1,.359-.155l0,.013c-.061.024-.128.052-.2.083m.185,6.277a.914.914,0,0,1,0-.172l.015.029c0,.017.008.035.012.052l-.022.092m.181-6.915,0,.007c0-.007,0-.013,0-.019a.068.068,0,0,1,0,.012m.019.34-.014.005s0-.005,0-.008l.008,0-.005-.015a.051.051,0,0,1,0-.01c0-.009.011-.017.015-.026,0,.02,0,.038-.008.057m1.905-1.52-.015.007H8.138l.03-.006m-1.438.487a.32.32,0,0,1,.181-.031c-.008.009-.016.019-.025.027l-.076.034a.485.485,0,0,0-.109.043.44.44,0,0,0-.107.077c-.03.02-.059.042-.089.065a.6.6,0,0,1,.224-.215m-.255.925-.053.045a1.305,1.305,0,0,1-.024-.135s0-.01,0-.015l.091-.005c-.006.037-.012.073-.016.11m.048-.249c0-.017,0-.038-.008-.057a.417.417,0,0,1,.033-.03l-.025.087m-.02-.3c.006-.014.013-.027.019-.042.043-.059.072-.1.072-.1l-.05.05a.758.758,0,0,1,.061-.09,1.512,1.512,0,0,1,.235-.148,1.459,1.459,0,0,0-.143.194,1.163,1.163,0,0,0-.194.131m.134.227c.008-.03.017-.06.026-.09.011,0,.022-.012.033-.016a1.075,1.075,0,0,0-.059.106m.361-.4a.791.791,0,0,0-.094.066h0a.358.358,0,0,0-.14.013h0c0-.009.011-.018.017-.026a.805.805,0,0,1,.263-.1L7,36.882m.076-.072a.76.76,0,0,0-.251.054,1.612,1.612,0,0,1,.161-.2.467.467,0,0,1,.124.052c.013.007.022.02.034.03-.022.021-.046.042-.067.066m.52-.4c-.03.017-.06.037-.088.056s-.07.054-.1.08a.36.36,0,0,0-.06.031.863.863,0,0,0-.069.057.579.579,0,0,0-.078-.044l.071-.02.141-.032-.143.026-.082.02-.006,0a.726.726,0,0,0-.077-.025c.049-.041.1-.082.15-.117a1.473,1.473,0,0,1,.613-.218.451.451,0,0,1,.056,0,1.475,1.475,0,0,0-.324.2m.49-.2H8.13c-.018.009-.036.016-.053.025a.8.8,0,0,0-.126.021.721.721,0,0,1,.133-.049m.243.219c-.078.014-.156.031-.233.053l.024-.009a2.54,2.54,0,0,1,.275-.067l.012,0-.078.025m.113-.035-.048.006a2.492,2.492,0,0,0-.28.05c-.036.009-.076.023-.115.035.045-.036.09-.073.138-.107s.08-.05.12-.076a.413.413,0,0,1,.052.008.563.563,0,0,1,.171.068.093.093,0,0,0-.021.009l-.016.005m.134.139-.1.054c.007-.009.013-.018.021-.028a.6.6,0,0,1,.088-.04l-.007.014m.075-.239a1.329,1.329,0,0,0-.124.074.116.116,0,0,0-.019,0,.617.617,0,0,0-.187-.107h0l.03-.018.15.036-.143-.041a1.608,1.608,0,0,1,.2-.087c.014,0,.03,0,.044,0,.06,0,.112.007.163.012,0,.013,0,.026.006.045a1.393,1.393,0,0,0-.119.084m.132-.091c0-.016-.008-.026-.011-.038l.074.007c-.021.011-.042.019-.063.031m.082-.041c-.031,0-.062-.01-.1-.013-.008-.025-.015-.043-.012-.044a.143.143,0,0,0,.006.043c-.044-.006-.089-.012-.139-.016a.994.994,0,0,1,.322-.05l-.031.058c-.016.007-.031.016-.047.023m.082-.081a.6.6,0,0,1,.08,0,.436.436,0,0,1,.045.01.857.857,0,0,0-.143.04c.007-.019.014-.037.018-.049m.138.292a.065.065,0,0,1-.015,0l.039-.025,0,.036-.027-.008m.125-.1,0,0h0m1.064-.259c.025.034.052.067.079.109l.011.017a.364.364,0,0,0-.069-.027.605.605,0,0,0-.094-.109l.074.01m.107.155c.011.018.022.037.031.056l-.058,0v0a.769.769,0,0,0-.052-.1.565.565,0,0,1,.08.048m-.773-.113c-.011.006-.022.012-.033.02l-.007,0,.04-.017m.022.143-.038-.011.012-.012.026.024m-.075.025.053.013-.078.014c.007-.009.017-.018.024-.026m-.066-.113a.151.151,0,0,1,.025.012.269.269,0,0,0-.031.027.317.317,0,0,0-.036-.018l.042-.021m-.055.028.043.016,0,0-.057-.01.017-.009m-.022.094c-.018-.008-.037-.01-.056-.016a.138.138,0,0,0,0-.021.123.123,0,0,1,.025,0c.017.01.029.015.037.02l-.011.016m.012-.016L9.4,36.2l.034,0-.01.013m.024.317.074-.011.024,0,0,0,.005.018Zm.191-.283-.114.006,0,0,.1,0,.034,0Zm.255.318-.2-.017c-.006-.013-.011-.027-.017-.04l.215.005.02.034a.219.219,0,0,0-.019.017m.054-.183-.024,0h0l.043,0H9.945m-.115-.152a.462.462,0,0,0-.058-.015l-.008,0a1.152,1.152,0,0,0-.1-.08.018.018,0,0,1,0-.006.586.586,0,0,1,.111-.062c.065.045.139.1.217.155-.054,0-.106.005-.159.011m.322.127h.018l.02.016-.038-.016m.108-.147c-.04,0-.08,0-.121,0,.005-.025.01-.042.01-.042s-.008.017-.017.042l-.066,0c-.095-.063-.184-.117-.266-.165a1.587,1.587,0,0,1,.211-.052c.011,0,.022,0,.032.009a.477.477,0,0,1,.221.2h0m.022.153.059,0c.007.019.014.036.02.055l-.08-.058m.173.246h0Zm-.029-.165c-.006-.024-.01-.048-.017-.073l.059,0a.551.551,0,0,1,.009.072l-.051,0m.051-.233a1.01,1.01,0,0,0-.087-.121c-.023-.028-.044-.049-.066-.071l.019,0a1.282,1.282,0,0,1,.358.166c.064.042.115.08.16.114a2.419,2.419,0,0,0-.366-.072.18.18,0,0,1-.019-.018m.092.236c0-.007,0-.015,0-.022a.206.206,0,0,1,0,.022Zm.4.357-.045,0,.06-.013c.017.006.035.008.051.014-.021,0-.044,0-.066,0m.112,6.46a1.06,1.06,0,0,1-.076-.324l.048.068a1.907,1.907,0,0,0,.035.271c0-.006,0-.01-.007-.015m.08-6.615c-.014-.014-.03-.026-.046-.039.034,0,.068.011.1.017-.019.007-.036.016-.056.022m.047.023s0,0-.008,0l.021-.01-.013.014m.1-.124a3.113,3.113,0,0,0-.392-.068c.007-.018.012-.031.013-.028s-.006.01-.015.028a.508.508,0,0,0-.272-.047s0,0,0-.009l-.025.007a.313.313,0,0,0-.019-.044c.064.007.128.014.192.019.179.041.355.085.524.129l-.008.012m.072.164.011.026-.029-.009.041-.066c.024.005.046.015.07.021l-.093.028m.124-.107-.026-.019c.051.017.1.034.15.051l-.017.006c-.036-.014-.072-.027-.107-.038m.122.148.024-.013a.049.049,0,0,1,.01.01l-.033,0m1.713,4.54-.008.02,0,0c.006-.012.011-.026.017-.038,0,.007,0,.016,0,.023M12.2,37.235l.068.035,0,.008-.064-.043m.372.31.042.029-.026-.014-.016-.015m.905.759.022,0c.006.015.017.03.021.044v.008h0c-.014-.018-.027-.033-.041-.049m.068.065c0-.01,0-.017,0-.029s-.01-.026-.014-.04l.036,0a1.136,1.136,0,0,1,.064.119Zm.126.142h0l-.048-.013,0,0Zm.033-.051v0a1.172,1.172,0,0,0-.078-.167h0c.014.027.032.053.042.08s.024.062.034.091Zm-.08-.174a1.255,1.255,0,0,0-.091-.139,1.034,1.034,0,0,1,.095.139Zm-.071-.006-.035,0a.492.492,0,0,0-.058-.11,1.075,1.075,0,0,1,.093.113m-.141-.348.023-.014,0,0a.431.431,0,0,1,.053.1c-.025-.03-.051-.058-.079-.087m.072.341-.039-.006c-.016-.019-.032-.037-.048-.054-.014-.034-.029-.067-.046-.1a.59.59,0,0,1,.132.161m-.135-.4c-.038-.035-.075-.069-.116-.1-.073-.056-.149-.107-.224-.154l.034.012a1,1,0,0,1,.342.225l-.035.017m-.387.01-.034-.026.04.02Zm-.936-.87h0m.52,5.171a.169.169,0,0,1,0-.027c0,.012,0,.024,0,.036l0,.026,0-.006c0-.009,0-.02,0-.029m.216-.361c.006-.033.013-.065.018-.1,0,.045.007.089.011.133l-.037.159c0-.063,0-.128.008-.195m.58-.647,0,0v0Zm-.037.022c0,.026-.007.046-.01.068l-.01-.014h0l.02-.053m.025.121a.011.011,0,0,1,0,.005.168.168,0,0,0-.008.019c-.019.038-.037.071-.053.1.017-.04.036-.083.057-.128m.034-.218v0c0-.015.006-.025.01-.039l.009-.033v0c-.006.023-.012.047-.018.07m.691-1.5c0-.009,0-.015,0-.024.012.032.026.064.036.1l-.027-.016-.01-.055m-.074-.169a.056.056,0,0,1,0-.01l0,.01Zm-.242-.812h0v0s0,0,0,0v0m.09-.331a.926.926,0,0,1,.171.282l0,.007c-.038,0-.078-.009-.119-.016l-.158-.091a.818.818,0,0,0-.032-.113,1.02,1.02,0,0,0-.186-.32.429.429,0,0,0-.048-.13l0,0v0a4.352,4.352,0,0,1,.372.386m-1.193-1.121a3.92,3.92,0,0,1,.736.422.56.56,0,0,1,.155.181.562.562,0,0,1-.079.052,3.049,3.049,0,0,0-.315-.274,2.7,2.7,0,0,0-.525-.3.264.264,0,0,0,.028-.08m-.247-.266a.354.354,0,0,1,.089.044.223.223,0,0,1,.1.115c-.082-.033-.165-.062-.248-.087a.379.379,0,0,0,.058-.072m.2.241a.218.218,0,0,1-.036.08c-.079-.034-.154-.063-.226-.088-.023-.028-.044-.055-.07-.084a2.631,2.631,0,0,1,.331.091m-.382-.078c.014.014.024.028.038.042-.009,0-.019-.008-.029-.01l-.02-.006s0-.012,0-.017.01,0,.014-.009m-.018.011a.051.051,0,0,0,0,.013l-.018,0,.014-.008m-.037-.045-.044.019c0-.01-.009-.019-.013-.03l.058.011m-.416-.177h-.005l.037-.01h0l-.033.009m.011-.152.011-.005.085.037-.027,0c-.023-.012-.045-.026-.068-.037m.036.139h0l.051-.014h0c-.014.005-.032.008-.048.013m.023.023v0l.035-.013.02-.011c.034.017.069.031.1.049-.054-.01-.105-.017-.155-.024m.149.157-.016-.005,0,0,.021.01M11.889,37l-.043-.012.054,0,.024.011.007.007L11.889,37m.03,5.767c-.011.052-.018.1-.026.144.016-.119.034-.262.054-.415.018-.054.035-.115.056-.183-.023.164-.06.318-.084.454m.009-5.969.017-.01h0a.673.673,0,0,1,.148.123h0a1.777,1.777,0,0,0-.163-.113m.35,5.276s0-.006,0-.011c.006-.026.012-.052.016-.079-.005.03-.01.06-.014.09m.049.542c0-.007,0-.019,0-.028s.011-.03.018-.047c0,.028-.01.053-.014.075m.466.108,0-.019c-.007-.069-.026-.163-.031-.274q.021.043.04.08c0,.092,0,.162-.007.212m-.032-.509c0-.034,0-.073,0-.119.005-.01.009-.02.014-.033l.024-.052c0,.008,0,.019,0,.028l0,.132.018-.077a2.068,2.068,0,0,1,0,.279v0c-.016-.05-.03-.1-.044-.159m.128-.172c.006-.094.01-.191.011-.292,0-.011.008-.019.012-.031-.012.182-.02.3-.021.317a.02.02,0,0,1,0,.006m.09-.266a2.31,2.31,0,0,1-.077.231l.109-.348,0-.009h0c-.012.042-.023.086-.035.125m.273-.338v0a.31.31,0,0,1-.019-.037l.05-.143.014.016-.01.068-.033.094m.02.041c.016-.026.035-.059.054-.09-.009.043-.018.088-.029.126-.009-.012-.016-.02-.025-.036m.613-.143c0,.008,0,.012,0,.019s-.016-.045-.035-.113a.075.075,0,0,1,0-.015c.023-.065.043-.142.062-.225,0,.05.006.095.01.132-.015.077-.031.146-.038.2M14.14,40.1a1.411,1.411,0,0,0-.033-.227c-.011-.065-.021-.119-.03-.168l.032.013a1.109,1.109,0,0,1,.031.382m.033-.354v-.007h0Zm0-.065a.34.34,0,0,1,0,.038h0a1.146,1.146,0,0,0-.061-.221,2.418,2.418,0,0,0-.15-.3.994.994,0,0,1,.212.489" transform="translate(-2.73 -23.151)" fill="#38312c"/>
        <path id="Path_4781" data-name="Path 4781" d="M29.1,81.332a39.7,39.7,0,0,0,2.349,6.606c1.311,2.328-1.159,4.9-2.227,2.905-.239-1.1-3.422-5.96-3.307-9.531s3.185.02,3.185.02" transform="translate(-16.77 -51.6)" fill="#f7dbc5"/>
        <path id="Path_4782" data-name="Path 4782" d="M27.946,77.416c-1.456-.944-3.266.42-3.284,2.586s1.587,5.232,1.917,6.624c1.715-.2,3.859-1.96,4.673-2.742-1.164-2.807-1.849-5.525-3.306-6.467" transform="translate(-15.96 -49.905)" fill="#edcc43"/>
        <path id="Path_4783" data-name="Path 4783" d="M43.574,93.971c-.78.465-5.11,3.056-5.915,3.526s-1.221,2.566-1.067,2.925,1.458.6,2.515-.308,4.428-4.1,5.37-4.639-.122-1.97-.9-1.5" transform="translate(-23.661 -60.757)" fill="#f7dbc5"/>
        <path id="Path_4784" data-name="Path 4784" d="M79.209,31.94c-1.061.2-2.68,1.036-2.831,1.881-.14.782-1.617,8.687-1.92,10.637-1.193,1.032-2.742,2.3-2.763,3.85-.327.391-.574.692-.647.81a3.519,3.519,0,0,1,1.194.873,1.862,1.862,0,0,0,.294.319,5.5,5.5,0,0,1,.507.668c.033.055.2-.062.44-.29a2.835,2.835,0,0,0,2.479-2.034,5.884,5.884,0,0,0,.258-.971c.9-1.045,1.64-1.933,1.64-1.933s2.41-14.011,1.349-13.809" transform="translate(-45.981 -20.669)" fill="#cdd6cc"/>
        <path id="Path_4785" data-name="Path 4785" d="M115.792,171.776s.594,2.985,1.082,5.62-4.605,2.612-4.155-.065l.45-2.676,0-2.8Z" transform="translate(-72.931 -111.169)" fill="#333"/>
        <path id="Path_4786" data-name="Path 4786" d="M85.674,168.709c-.528,1.6-2.86,2.489-4.3,3.59s-.651,1.317.64,1.681,4.389-.6,4.519-1.292,1.643-1.023,1.784-.552,1.951.2,1.889-.466-.125-1.341-.187-2.012c-1.811.266-2.957.577-3.371.121.321-.706-.271-.844-.969-1.069" transform="translate(-52.161 -109.184)" fill="#333"/>
        <path id="Path_4787" data-name="Path 4787" d="M98.755,25.534a4.51,4.51,0,0,1-.25,2.011c-.325,3.278,3.989.124,4.989-1.082a5.338,5.338,0,0,1,.164-4.549l-4.9,3.62" transform="translate(-63.739 -14.182)" fill="#debaa7"/>
        <path id="Path_4788" data-name="Path 4788" d="M95.066,32.841l.652.124s.052,2.218.494,2.434c.137.025,4.182-1.731,4.182-1.731L94.208,46.8Z" transform="translate(-60.969 -21.254)" fill="#f0f0f0"/>
        <path id="Path_4789" data-name="Path 4789" d="M84.392,83.459a27.073,27.073,0,0,0,.375,11.8c.42,1.325,1.028,6.69,1.824,8.167,1.7,9.418.716,9.806,1,10.636-.611.738,4.307,1.392,4.676.263.01-1.657-.657-7.761-1.606-14.267.365-1.787,1.783-9.228,2.92-10.4-.7-8.043-6.382-3.9-9.187-6.194" transform="translate(-54.314 -54.013)" fill="#64646d"/>
        <path id="Path_4790" data-name="Path 4790" d="M85.408,79.387c-.631,4.047,2.318,7.523,2.54,8.313.841,3.011,3.122,9.357,3.6,11.25s2.812,11.281,3.093,14.626c.413.316,3.665.2,4.322-.38-1-7.613-1.4-12.168-2.547-15.36.052-1.087-.263-7.8.364-8.927,1.5-1.96.6-5.828-.038-7.978-.871-2.93-7.413,1.5-11.336-1.544" transform="translate(-55.217 -51.377)" fill="#64646d"/>
        <path id="Path_4791" data-name="Path 4791" d="M95.507,46.176l-1.3,3.893v4.191l2.62-6.195-.365-1.778Z" transform="translate(-60.969 -29.884)" fill="#383a63"/>
        <path id="Path_4792" data-name="Path 4792" d="M97.86,40.167c-.1.4.143.986-.007,1.561.222.1.674.364.956.112s1.353-1.476.839-1.595a4.615,4.615,0,0,1-1.522-.942c-.236.376-.162.463-.266.863" transform="translate(-63.316 -25.437)" fill="#454a6d"/>
        <path id="Path_4793" data-name="Path 4793" d="M104.223,31.745c-.062-.117,0,0-.116.1-.318.282-4.165,2.744-4.218,2.81a11.152,11.152,0,0,0,1.979,1.941,26.72,26.72,0,0,0,2.7-3.764s-.115-.941-.341-1.091" transform="translate(-64.645 -20.513)" fill="#fff"/>
        <path id="Path_4794" data-name="Path 4794" d="M97.991,32.09c.449-.712-1.274.284-1.274.284a7.178,7.178,0,0,0,.181,2.958c.271-1.027.857-.585.888-.585a3.789,3.789,0,0,1,.206-2.657" transform="translate(-62.543 -20.602)" fill="#fff"/>
        <path id="Path_4795" data-name="Path 4795" d="M97.668,35.241c-.245-.543-3.484-2.8-4.569-3.478a58.644,58.644,0,0,1-5.646,6.975,22.608,22.608,0,0,1,.723-7.554c.015-.057.036-.109.054-.162a2.41,2.41,0,0,0-.695-.034c-3.366.6-2.386,2.912-3.057,5.161C82.6,43.559,81.362,49.666,82.8,49.662c-.051.666-.218,1.028.839,1.3,3.718.951,10.994,2.27,11.748-.8C93.334,41.823,98.6,37.3,97.668,35.241" transform="translate(-53.181 -20.044)" fill="#cdd6cc"/>
        <path id="Path_4796" data-name="Path 4796" d="M109.327,98.479a13,13,0,0,0-2.849,2.221c-.5.427-1.007,1.116-.646,1.422s.6-.272,1.241-.779.507.779.507.779a5.036,5.036,0,0,0-1.1,1.61c-.211.723,1.941-.54,2.523-.354.885-.226,1.319-.877,1.367-3.048-.12-.941,1.111-2.1,1.111-2.1s-1.177-2.011-2.152.251" transform="translate(-68.413 -63.038)" fill="#f7dbc5"/>
        <path id="Path_4797" data-name="Path 4797" d="M118.623,42.187c-.555-1.617-4.089-.964-3.524,2.085s1.614,7.432,1.614,7.432-1.294,6.978-2.065,8.725c.056,1.9,2.944,3.024,3.488,2.179,1.47-1.028,1.9-5.9,2.029-7.493.533-2.422.646-3.809.37-4.916s-.993-5.337-1.911-8.012" transform="translate(-74.197 -26.747)" fill="#cdd6cc"/>
        <path id="Path_4798" data-name="Path 4798" d="M114.965,96.641s-.573,1.108-.386,1.4a17.109,17.109,0,0,0,2.5,1.359c.258.147.8-1.377.8-1.377Z" transform="translate(-74.129 -62.544)" fill="#cdd6cc"/>
        <path id="Path_4799" data-name="Path 4799" d="M94.156,31.12l-.991,2.574s.972.27,1.042.644a50.216,50.216,0,0,0,.36,5.022c.055-.68.245-7.254.777-8.321-.241-.139-1.188.08-1.188.08" transform="translate(-60.294 -20.058)" fill="#dee3dd"/>
        <path id="Path_4800" data-name="Path 4800" d="M102.211,32.841s-5.659,7.4-5.959,8.077c.688-.414,4.567-3.974,4.836-3.967-.048-.164-.294-.966-.294-.966s1.266.476,1.416.843a15.143,15.143,0,0,0,.916-3.142c.043-.163-.741-.845-.741-.845Z" transform="translate(-62.292 -21.254)" fill="#dee3dd"/>
        <path id="Path_4801" data-name="Path 4801" d="M106.067,54.038c-.066.186-.132.37-.2.55a.247.247,0,0,0,.186.336c.828.192,1.664.532,2.491.815a.316.316,0,0,0,.393-.17c.067-.172.133-.341.2-.5a12.785,12.785,0,0,0-3.072-1.027" transform="translate(-68.505 -34.972)" fill="#dee3dd"/>
        <path id="Path_4802" data-name="Path 4802" d="M89.151,50.348l.131-.488-1.513-.4L87.6,50.2l1.263.337a.248.248,0,0,0,.29-.192" transform="translate(-56.691 -32.007)" fill="#dee3dd"/>
        <path id="Path_4803" data-name="Path 4803" d="M95.913,3.349c-3.149,0-4.145,2.611-4.337,4.151a7.1,7.1,0,0,0,.354,2.913,3.806,3.806,0,0,0,2.185,3.749,1.207,1.207,0,0,0,1.289.229c.41-.171,2.767-1.126,3.049-1.835.343-.868,2.287-2.421,2.345-4.855.069-2.811-1.734-4.352-4.884-4.352" transform="translate(-59.234 -2.167)" fill="#ebcab5"/>
        <path id="Path_4804" data-name="Path 4804" d="M98.716.845a5,5,0,0,0-5.789,3.335C96.4,1.512,100.053,5.4,99.57,7.972a6.789,6.789,0,0,1,.227,2.621c.645-1.507,1.881-2.45,2.217-4.217a4.631,4.631,0,0,0-3.3-5.532" transform="translate(-60.14 -0.464)" fill="#4f5059"/>
        <path id="Path_4805" data-name="Path 4805" d="M110.973,21.159s.642-1.105,1.06-.4a2.244,2.244,0,0,1,0,2.076c-.258.469-1.06-.134-1.06-.134Z" transform="translate(-71.819 -13.282)" fill="#ebcab5"/>
        <path id="Path_4806" data-name="Path 4806" d="M100.249,8.743a1.216,1.216,0,0,1-.217-.115,1.613,1.613,0,0,1-.324-.288c0-.025-.019-.1-.04-.223,0-.005,0-.012,0-.017-.013-.131-.029-.265-.047-.4l.093.04.055.021.14.1-.068-.075.068.026-.12-.085-.1-.106.1-.109.016.007-.014-.008.454-.482L99.737,2.61l-.711-1.458L98.482.981c-.028-.045-.053-.088-.088-.135A2.44,2.44,0,0,0,98.179.6l.037.009c.1.027.2.059.3.092.092.058.177.115.248.17a.919.919,0,0,1,.263.285l-.054-.095A1.452,1.452,0,0,0,98.78.847c-.033-.03-.072-.061-.11-.092.095.036.185.074.261.111a1.021,1.021,0,0,1,.29.188,1.037,1.037,0,0,0-.277-.212,3.77,3.77,0,0,0-.458-.225,3.667,3.667,0,0,0-.426-.254,2.705,2.705,0,0,0-.34-.14.206.206,0,0,0-.039-.075L97.646.1c-.017-.014-.037-.028-.056-.042a.461.461,0,0,0-.42-.008.929.929,0,0,0-.638.107c-.007,0-.013.009-.019.013a1.136,1.136,0,0,0-.228-.034,1.427,1.427,0,0,0-.565.011.58.58,0,0,0-.388.3,4.4,4.4,0,0,0-.521.032,1.448,1.448,0,0,0-.9.437,2.655,2.655,0,0,0-1.128.712,1.267,1.267,0,0,0-.253.455,3.1,3.1,0,0,0-.4.485,3.589,3.589,0,0,0-.34.676,1.293,1.293,0,0,0-.148.271,2.971,2.971,0,0,0-.228,1.133,4.017,4.017,0,0,0-.069.933c0,.008,0,.015,0,.024a6.682,6.682,0,0,0,0,1.166,5.677,5.677,0,0,0,.115.8l.071.294s-.008-.109-.021-.3a5.7,5.7,0,0,1,.019-.789c.006-.087.016-.18.028-.273a3.223,3.223,0,0,0,.2.684l.117.24s-.025-.093-.069-.255a3.14,3.14,0,0,1-.065-.667c0,.01.006.024.01.034a.932.932,0,0,0,.086.19l.038.062-.026-.068a.917.917,0,0,1-.049-.2,1.814,1.814,0,0,1,.07-.7,5.143,5.143,0,0,1,.378-.936,2.829,2.829,0,0,1,.648-.887,10.669,10.669,0,0,1,.9-.717,4.154,4.154,0,0,1,.534-.336c0,.028,0,.054,0,.082a5.676,5.676,0,0,0,.144,1.155A4.741,4.741,0,0,0,95.4,6.09a4.633,4.633,0,0,0,.456.511l.181.184L95.9,6.568a4.3,4.3,0,0,1-.341-.578,4.19,4.19,0,0,1-.271-.629c.084.141.174.278.268.408l.29.352c.107.106.218.2.326.306a1.588,1.588,0,0,0,.136.121,4.125,4.125,0,0,0,.549.5,3.485,3.485,0,0,0,.6.372l.162.066c.074.053.149.1.223.149l.057.081-.04-.07c.1.065.207.126.309.181a5.475,5.475,0,0,1,.083.6l-.01.025.01-.019a2.834,2.834,0,0,1,.008.328.9.9,0,0,1-.1.41.337.337,0,0,1-.115.115A.355.355,0,0,0,98.2,9.2a.983.983,0,0,0,.241-.4,3.717,3.717,0,0,0,.156-.652c.024.014.049.025.072.038,0,.011,0,.023,0,.034-.019.149-.031.235-.031.235s.021-.084.056-.231c0-.007,0-.017.005-.025a.867.867,0,0,0,.374.1.747.747,0,0,0,.125-.01,3.04,3.04,0,0,0,.2.28c.026.032.052.06.078.089.017.066.037.134.051.2a5.079,5.079,0,0,1,.108.558c.022.137.035.215.035.215s.005-.079.015-.217.032-.315.025-.534a.773.773,0,0,0,.173.1.929.929,0,0,0,.228.061.878.878,0,0,1-.2-.105.809.809,0,0,1-.2-.206c0-.073,0-.146,0-.225a1.518,1.518,0,0,0,.315.173,1.244,1.244,0,0,0,.24.07M91.769,3.72c-.032.061-.063.122-.092.184a2.007,2.007,0,0,1,.116-.265c-.008.027-.018.054-.025.081m1.466-2.343-.259.221c-.079.08-.147.172-.219.257-.017.018-.032.038-.047.058-.055.047-.108.1-.161.15a1.239,1.239,0,0,1,.255-.419,2.316,2.316,0,0,1,.871-.566,3.789,3.789,0,0,0-.441.3m.912-.542c-.053.016-.1.033-.156.05a1.4,1.4,0,0,1,.827-.32c.047,0,.094,0,.141,0a5.113,5.113,0,0,0-.813.274m4.763,6.943-.051-.026c-.034-.024-.066-.049-.1-.078,0-.024,0-.047,0-.072.048.058.1.112.144.167l0,.01M98.67,7.6h0l-.009-.013c0-.014,0-.029,0-.043,0,.017.007.038.008.055ZM96.786.446,96.8.431l.03.028Zm1.2.38.041-.1-.5-.211L97.512.51a1.73,1.73,0,0,1,.282.012,1.47,1.47,0,0,1,.174.129,1.272,1.272,0,0,1,.211.233Zm-.475-.15L97.256.594l.023-.025h0l.186.085.048.023m.858.187c.031.038.052.072.077.108L98.181.885a1.278,1.278,0,0,0-.2-.254c-.03-.032-.066-.064-.1-.1.068.011.139.024.21.041a2.383,2.383,0,0,1,.28.286M98.024.443l.059.027L98.021.451,98,.435l.023.008M97.8.361l.088.056a2.293,2.293,0,0,0-.233-.043A1.5,1.5,0,0,0,97.5.292a1.968,1.968,0,0,1,.3.069M97.575.078a.355.355,0,0,1,.13.14C97.685.211,97.663.2,97.643.2a1.629,1.629,0,0,0-.349-.129.347.347,0,0,1,.281.011m-.438.058.018,0-.03,0,.013-.007m.023.155a1.033,1.033,0,0,1,.157.023,1.431,1.431,0,0,1,.158.049h0a.566.566,0,0,0-.226.043c-.065-.025-.131-.049-.2-.074A.421.421,0,0,1,97.16.291m-.049.2-.022.023.078.049L97.121.552a.337.337,0,0,0-.038-.016c-.025-.03-.05-.06-.079-.088l.106.046m-.12-.36c-.022.013-.044.028-.065.042a.835.835,0,0,0-.219.048l-.037-.01a.773.773,0,0,1,.32-.081M96.55.288l.019.005-.007,0a.8.8,0,0,0-.155.138l-.031,0A1.519,1.519,0,0,1,96.55.288M96.39.247a2.182,2.182,0,0,0-.2.174L96,.417c-.125.008-.266.014-.414.032h-.093a2.087,2.087,0,0,1,.376-.168A1.1,1.1,0,0,1,96.39.247M95.732.2A.954.954,0,0,1,95.91.178c-.024.007-.049.009-.073.017a2.328,2.328,0,0,0-.459.23A.538.538,0,0,1,95.732.2m2.95,7.694-.049-.031c0-.029.007-.055.011-.085l.04.015c0,.035,0,.068,0,.1m.069-.076.119.043.106.048c.037.072.074.14.113.207a3.933,3.933,0,0,1-.351-.186c.006-.036.01-.074.013-.112m.324.431a.763.763,0,0,1-.3-.148c.139.05.264.088.372.118.01.015.02.029.029.046a.582.582,0,0,1-.1-.016m.608.062c0-.011,0-.022,0-.034l.024.061-.022-.027" transform="translate(-59.102 0)" fill="#4f5059"/>
        <g id="Group_844" data-name="Group 844" transform="translate(56.905 105.054)" opacity="0.08">
          <g id="Group_843" data-name="Group 843">
            <g id="Group_842" data-name="Group 842" clip-path="url(#clip-path-3)">
              <path id="Path_4807" data-name="Path 4807" d="M176.611,306.6c-3.867,2.233-9.717,2.475-13.065.542s-2.93-5.312.937-7.543,9.717-2.475,13.066-.542,2.928,5.311-.939,7.544" transform="translate(-161.285 -297.75)" fill="#212a3d"/>
            </g>
          </g>
        </g>
      </g>
    </g>
    <g id="Group_848" data-name="Group 848" transform="translate(47.36 55.258)">
      <g id="Group_847" data-name="Group 847" clip-path="url(#clip-path-6)">
        <rect id="Rectangle_291" data-name="Rectangle 291" width="19.833" height="18.198" transform="matrix(0.861, -0.509, 0.509, 0.861, -5.064, 2.994)" fill="url(#linear-gradient)"/>
      </g>
    </g>
    <g id="Group_850" data-name="Group 850">
      <g id="Group_849" data-name="Group 849" clip-path="url(#clip-path)">
        <path id="Path_4809" data-name="Path 4809" d="M134.7,149.173l6.385-3.686a.874.874,0,0,1,1.078.236l8.326,10.377a.606.606,0,0,1-.138.937l-6.384,3.686a.875.875,0,0,1-1.078-.236l-8.325-10.378a.6.6,0,0,1,.137-.936" transform="translate(-86.983 -94.092)" fill="#499c72"/>
        <path id="Path_4810" data-name="Path 4810" d="M137.6,152.467l7.984,9.953,6.548-3.781-7.984-9.954Z" transform="translate(-89.048 -96.226)" fill="#fff"/>
        <path id="Path_4811" data-name="Path 4811" d="M142.354,157.225l.092-.053.015-.01.131.163.028.008.146-.085.013.017.079.1.013.015-.146.085a.21.21,0,0,1-.255-.068l-.131-.163Z" transform="translate(-92.118 -101.711)" fill="#333"/>
        <path id="Path_4812" data-name="Path 4812" d="M152.3,151.7l-.131-.163.017-.009.09-.053.017-.009.131.163a.147.147,0,0,1-.02.227l-.146.084-.013-.015-.079-.1-.013-.016.146-.085Z" transform="translate(-98.472 -98.026)" fill="#333"/>
        <path id="Path_4813" data-name="Path 4813" d="M141.656,151.732a.06.06,0,0,0-.009.094l.167.208a.088.088,0,0,0,.107.029l2.941-1.7a.06.06,0,0,0,.007-.094l-.166-.208a.086.086,0,0,0-.105-.028Z" transform="translate(-91.659 -97.093)" fill="#b1b1b1"/>
        <path id="Path_4814" data-name="Path 4814" d="M141.521,151.763l.083.1.083.1a.145.145,0,0,0,.175.046l2.942-1.7a.1.1,0,0,0,.013-.155l-.167-.208a.146.146,0,0,0-.176-.047l-2.941,1.7a.1.1,0,0,0-.013.156m.03-.135,2.942-1.7a.112.112,0,0,1,.139.037l.167.207a.079.079,0,0,1-.01.124l-2.941,1.7a.116.116,0,0,1-.141-.038l-.166-.207a.08.08,0,0,1,.011-.125" transform="translate(-91.57 -97.009)" fill="#b1b1b1"/>
        <path id="Path_4815" data-name="Path 4815" d="M141.586,151.8l.166.208a.116.116,0,0,0,.141.038l2.941-1.7a.08.08,0,0,0,.009-.125l-.167-.207a.113.113,0,0,0-.139-.036l-2.941,1.7a.08.08,0,0,0-.011.125m.027-.1,2.941-1.7a.086.086,0,0,1,.105.028l.166.208a.06.06,0,0,1-.007.093l-2.941,1.7a.088.088,0,0,1-.107-.029l-.167-.208a.06.06,0,0,1,.009-.094" transform="translate(-91.615 -97.052)" fill="#cacaca"/>
        <path id="Path_4816" data-name="Path 4816" d="M141.2,155.264l.1-.058.079.1-.1.057a.034.034,0,0,0,0,.051l.4.494-.092.053-.4-.494a.13.13,0,0,1,.017-.2" transform="translate(-91.348 -100.445)" fill="#b1b1b1"/>
        <path id="Path_4817" data-name="Path 4817" d="M150.695,150a.049.049,0,0,0-.058-.016l-.1.057-.079-.1.1-.058a.187.187,0,0,1,.227.061l.4.494-.09.053Z" transform="translate(-97.374 -96.993)" fill="#b1b1b1"/>
        <path id="Path_4818" data-name="Path 4818" d="M146.7,152.584l-3.037,1.753-.079-.1,3.036-1.753Z" transform="translate(-92.925 -98.685)" fill="#b1b1b1"/>
        <path id="Path_4819" data-name="Path 4819" d="M186.226,236.152h0l-.85-11.694-.875-21.7s3.921.631,5.442-1.325c-.11,4.871,1.935,7.094.358,9.379s-.805,9.845-.858,10.706c1.843,6.01-.793,6.44-.913,14.792,0,.2.237,1.293.231,1.327a12.3,12.3,0,0,1,.372,1.465c0,3.574-4.123-.814-4.123-.814a1.884,1.884,0,0,0,1.216-2.137" transform="translate(-119.404 -130.363)" fill="#f7dbc5"/>
        <path id="Path_4820" data-name="Path 4820" d="M189.57,307.184c0,.5-1.917.581-2.4.227-.423-.313-1.6-2.78-2.144-3.1s-.592-1.626-.27-1.312,1.358,1.176,2.217,1.9c.95-.769,2.4-.9,2.432-.428.463.518.163,2.214.163,2.71" transform="translate(-119.441 -196.064)" fill="#4e826a"/>
        <path id="Path_4821" data-name="Path 4821" d="M169.049,212.337a6.23,6.23,0,0,1,.355-3.256,20.965,20.965,0,0,0,6.269-.061c5.573,1.778,3.01,6.662.795,8.309-1.473,2.141-.924,8.47-1.024,11.134.141.318.058.7.3,1.347,1.335,6.217-.356,12.393.254,14.457.218.9.576,1.9.225,2.286-.455.5-6.992.538-7.233.114s-.078-1.149.79-1.435c.722-.22,3.38-.625,3.38-.625.056-2.42-2.134-13.58-1.972-15.615l-.008-.021c-.683-2.016-2.219-6.69-2.128-16.635" transform="translate(-109.299 -135.273)" fill="#f7dbc5"/>
        <path id="Path_4822" data-name="Path 4822" d="M165.961,202.649c.627-3.1.76-2.53,1.454-3.865,2.172,1.357,8.233,0,10.072-1.643a4.016,4.016,0,0,0,.586,3.181c2.189,3.438.909,8.712.922,10.585s.66,16.381.724,17.281-.95,1.094-2.5,1.81a38.947,38.947,0,0,1-8.847,2.3c-2.174-.048-3.353.144-3.534-.942s.5-25.6,1.126-28.706" transform="translate(-106.657 -127.585)" fill="#284570"/>
        <path id="Path_4823" data-name="Path 4823" d="M174.668,311.416c.1.379.315,2.339,0,2.615a4.72,4.72,0,0,1-3.095,0,20.374,20.374,0,0,0-4.105-.786,1.606,1.606,0,0,1-1.3-1.3c-.157-.551.483-.63,1.062-.708l1.494-.2s-.766.36-.766.773.787.787,2.459.669,2.144-.02,2.636-.57,1.466-1.049,1.613-.49" transform="translate(-107.525 -201.294)" fill="#4e826a"/>
        <path id="Path_4824" data-name="Path 4824" d="M176.849,156.916c-.164.012-.324.014-.48.013a28.9,28.9,0,0,1,5.8-2.526,9.362,9.362,0,0,1,1.256-.351c1.51,1.948-4.719,2.734-6.576,2.863" transform="translate(-114.142 -99.699)" fill="#f7dbc5"/>
        <path id="Path_4825" data-name="Path 4825" d="M178.984,123.889c-2.281.032-3.606,1.127-4.009,2.394a6.42,6.42,0,0,0,0,3.248,4.063,4.063,0,0,0,.807,3.311c.46.815,1.342.344,1.641.239s-.1.01.3-.106a6.165,6.165,0,0,1-.427,3.839,31.519,31.519,0,0,0,4.767-1.78,11.619,11.619,0,0,1-.462-2.98c.041-.463,2.076-3.369,1.441-5.434s-1.777-2.763-4.057-2.731" transform="translate(-113.101 -80.177)" fill="#f7dbc5"/>
        <path id="Path_4826" data-name="Path 4826" d="M181.043,122.684c-1.877-.571-5.13.265-5.826,2.708s3.254,3.475,3.476,5.574c2.041,1.616,3.178.856,4.713-.056,1.364-1.079,1.532-3.855,1.114-5a5.529,5.529,0,0,0-3.477-3.23" transform="translate(-113.343 -79.287)" fill="#7b716f"/>
        <path id="Path_4827" data-name="Path 4827" d="M176.258,154.165c3.17-1.019,3.863-.074,4.193,1.45.793,3.769-1,4.909-1.559,8.153a8.514,8.514,0,0,0,.719,5.809c1.767,3.087-6.469,4.242-11.668,3.4-1.237-.741-.673-.416.342-4.009a20.776,20.776,0,0,0,.374-8.852,3.113,3.113,0,0,1,1.106-3.625c1.58-1.3,3.323-1.309,6.493-2.328" transform="translate(-108.231 -99.497)" fill="#e9eef5"/>
        <path id="Path_4828" data-name="Path 4828" d="M176.666,125.552l.037-.259c.014-.081.04-.178.066-.291a3.793,3.793,0,0,1,.127-.362,3.481,3.481,0,0,1,.65-1.032l-.066.092a2.465,2.465,0,0,0-.143.291,2.316,2.316,0,0,0-.1.3c-.005.019-.008.04-.013.059-.037.068-.073.138-.108.212a2.9,2.9,0,0,0-.112.284,1.574,1.574,0,0,0-.045.168l-.018.164a1.934,1.934,0,0,0,.035.6,5.562,5.562,0,0,0-.1.611,2.412,2.412,0,0,0,.1,1.027,1.656,1.656,0,0,0,.113.228,2.461,2.461,0,0,0,.161.19c.068.044.133.094.2.133l.122.044c-.016.117-.031.233-.043.349,0,.02,0,.04,0,.06a.248.248,0,0,1-.025.013l-.077.031.08-.024.021-.008a7.486,7.486,0,0,0,.011,1.585,1.747,1.747,0,0,0,.016.647c.008.028.02.052.03.078a1.63,1.63,0,0,0,.329.824,2.5,2.5,0,0,0,.443.46c.007.013.008.028.013.04a1.922,1.922,0,0,0-.064.213,1.754,1.754,0,0,1,.072-.192.8.8,0,0,1-.043.642,1.453,1.453,0,0,1-.1.167c-.02-.026-.039-.052-.054-.073l-.065-.128.06.132c.014.023.032.05.053.078-.009.013-.019.026-.028.038l-.022-.041s.008.016.02.043c-.028.038-.055.077-.086.113a.414.414,0,0,1-.173-.1.848.848,0,0,1-.213-.327c-.032-.093-.05-.146-.05-.146l.044.148a.889.889,0,0,0,.2.345.455.455,0,0,0,.163.107c-.018.022-.037.043-.056.064-.023-.024-.04-.042-.041-.039s.017.016.038.042l-.005.006c-.063-.068-.092-.123-.1-.117s.028.048.086.12a.385.385,0,0,1-.222-.2l-.052-.126.047.129a.409.409,0,0,0,.216.22c-.027.028-.055.054-.082.081l-.025-.028-.093-.125.088.129.024.03c-.016.017-.032.033-.049.049l.054-.043a.532.532,0,0,0,.289.2.449.449,0,0,0,.37-.113.327.327,0,0,0,.056,0l0,.008.025.03a.336.336,0,0,1-.278.159.73.73,0,0,1-.388-.149c-.086-.059-.133-.1-.133-.1s.045.041.129.1a.745.745,0,0,0,.391.168.345.345,0,0,0,.266-.11.447.447,0,0,0,.035-.047c.014.015.031.031.048.046a.371.371,0,0,0,.035.152.788.788,0,0,0,.046.1l.066.084a.7.7,0,0,0,.126.113.276.276,0,0,1-.037.025l-.077.026h-.072a.2.2,0,0,1-.053,0l-.019-.015a1.047,1.047,0,0,1-.131-.163,1.16,1.16,0,0,0,.108.168l-.017,0-.092-.025.091.027.019.006.006.008a.535.535,0,0,0,.221.16.5.5,0,0,1-.276-.027.946.946,0,0,1-.139-.076l-.048-.029.048.031a1.091,1.091,0,0,0,.137.081.513.513,0,0,0,.312.032.47.47,0,0,0,.245.008.7.7,0,0,0,.141-.054,1.756,1.756,0,0,0,.184.047c-.021,0-.042,0-.063-.005a.838.838,0,0,0,.16.025h0a.284.284,0,0,0,.1.06.977.977,0,0,0,.3.054,1,1,0,0,1-.286-.083.205.205,0,0,1-.029-.017l.078.011a3.627,3.627,0,0,0,.384.019.636.636,0,0,0,.082.086.769.769,0,0,0,.461.192.762.762,0,0,1-.406-.254c-.007-.006-.011-.017-.017-.024.057,0,.11,0,.162-.008,0,.006.006.016.011.023a.552.552,0,0,0,.2.174,1.167,1.167,0,0,0,.486.09,1.179,1.179,0,0,1-.448-.166.434.434,0,0,1-.118-.132l.055-.008.057.014a1.586,1.586,0,0,0,.33.019l.124,0-.123-.019a1.1,1.1,0,0,1-.189-.042c.028-.006.053-.011.076-.018a.773.773,0,0,0,.44-.058.65.65,0,0,0,.2-.14,1.244,1.244,0,0,0,.359.274,1.028,1.028,0,0,0,.144.059.3.3,0,0,1-.086.005.559.559,0,0,1-.175-.049.874.874,0,0,1-.14-.082.862.862,0,0,0,.138.088.592.592,0,0,0,.176.059.322.322,0,0,0,.129-.01.992.992,0,0,0,.785-.08,1.133,1.133,0,0,0,.151-.121h.036a.622.622,0,0,0,.146.043.25.25,0,0,0,.232-.061.425.425,0,0,0,.1-.281.173.173,0,0,0,.029-.013,2.688,2.688,0,0,0,.469.08,2.072,2.072,0,0,0,.239,0,.419.419,0,0,1-.25.249l-.178.043.186.029a.843.843,0,0,0,.1-.009.283.283,0,0,0,.124-.032.49.49,0,0,0,.249-.235c.014-.028.022-.058.034-.086.027-.007.053-.013.08-.021a.917.917,0,0,0,.393-.259,1.116,1.116,0,0,1,.031.419.55.55,0,0,1-.156.318.909.909,0,0,1-.436.2l-.169.023.17-.018a.913.913,0,0,0,.449-.188.58.58,0,0,0,.174-.329,1.2,1.2,0,0,0-.021-.452s0-.01,0-.015a.923.923,0,0,0,.087-.14,1.222,1.222,0,0,0,.211.032,1.229,1.229,0,0,1-.2-.049c0-.008.01-.014.014-.022a2,2,0,0,0,.073-.192c.008,0,.013,0,.022,0a.455.455,0,0,0,.152-.019h0a.443.443,0,0,1-.008.092.966.966,0,0,1-.053.184.92.92,0,0,0,.114-.158.5.5,0,0,0,.031-.069c.06.035.119.068.178.1a.978.978,0,0,1-.323.249l-.188.09.207-.022a1.067,1.067,0,0,0,.544-.22c.04.013.081.028.12.038a.768.768,0,0,0,.648-.1.851.851,0,0,0,.174-.181s-.017.013-.051.037a.575.575,0,0,1-.151.08.63.63,0,0,1-.543-.08l-.023-.015.006-.012a.693.693,0,0,0,.418-.3,2.038,2.038,0,0,0,.218-.385c.02-.05.036-.089.048-.116a.6.6,0,0,0,.189-.14.407.407,0,0,0,.052-.081.514.514,0,0,0,.152-.166.5.5,0,0,1-.131.14l-.014.006a.437.437,0,0,0,.026-.076.494.494,0,0,0,.057-.143c0-.012,0-.025,0-.037l.017-.013a.736.736,0,0,0,.187-.409,2.007,2.007,0,0,0-.156-.974,2.952,2.952,0,0,0-.162-.357,1.245,1.245,0,0,0,.377-.469.945.945,0,0,0,.066-.548,1.43,1.43,0,0,0-.252-.5,7.85,7.85,0,0,0-.6-.683c-.015-.075-.029-.149-.045-.224-.073-.332-.138-.655-.218-.985a8.367,8.367,0,0,0-.3-.944,5.661,5.661,0,0,0-.848-1.529c-.047-.057-.095-.1-.142-.155-.043-.067-.087-.135-.133-.2-.027-.048-.054-.1-.086-.144a2.1,2.1,0,0,0-.168-.246,2.375,2.375,0,0,0-.593-.565,6.722,6.722,0,0,0-.97-.74,2.054,2.054,0,0,0-1.564-.245,1.3,1.3,0,0,0-.213.087,2.25,2.25,0,0,0-.992.348,1.84,1.84,0,0,0-.5-.02,2.955,2.955,0,0,0-.936.221,2.271,2.271,0,0,0-1.114.721,3.717,3.717,0,0,0-.934,1.382c-.055.13-.083.259-.119.368s-.046.212-.059.294c-.02.166-.03.26-.03.26m8.932,6.985-.007.007h-.012l.007-.009.011,0m0,0,.039.007H185.6l.007-.006m.011-.018v0l-.013,0Zm.039-.051-.022.011c0-.007.011-.013.016-.019l.006.008m.046.065c-.028,0-.054-.008-.081-.012l0,0a.339.339,0,0,0,.065,0l.013.019m.105.213-.038-.018.03-.018a.326.326,0,0,1,.008.035m.1-2.45-.007-.007,0,0,.006.01m.082.812c-.006.031-.011.062-.019.092l-.066-.035c0-.041,0-.081,0-.122.029.022.057.044.086.064m.05.091c0,.014,0,.028,0,.042l-.028-.018c.006-.021.011-.043.016-.065.006.013.011.027.016.041m.066.488c-.016-.022-.033-.041-.05-.061.014-.083.025-.166.036-.25a.048.048,0,0,1,.007.007c0,.007,0,.014.006.021a2.167,2.167,0,0,1,0,.283m.037-.752c.007.034.016.067.022.1l-.012-.019c-.007-.034-.015-.066-.023-.1,0,0,0-.008,0-.012s.009.018.013.027m.027-.334c0-.006-.008-.011-.012-.017a.071.071,0,0,1,0-.015v0c.006.011.011.023.016.034m0,1.186,0-.006a.06.06,0,0,1,0-.011v.017m.01.605.038-.008c-.012.012-.023.023-.035.034a.048.048,0,0,1,0-.01.122.122,0,0,1,0-.012l0,0m.287.147a.7.7,0,0,0-.021-.128l.047-.006c0,.01.006.021.008.03,0,.035.007.068.01.1,0,.014-.025.01-.044.006Zm.2-.307c-.015.006-.03.014-.045.019l.01-.014.035-.006m-.021-.016,0,0h.013l-.015,0m-.066-.047a.846.846,0,0,0,.09-.1.548.548,0,0,0,.038-.049l.008,0a1.072,1.072,0,0,1-.084.164l-.053-.008m.192-3.555a1.342,1.342,0,0,1,.141.325.785.785,0,0,1-.033.458,1.658,1.658,0,0,0-.026-.178c-.023-.2-.048-.4-.082-.605m.051,2.515.024.045-.026,0a.474.474,0,0,0,0-.05m.05-.38-.021-.043c.005-.03.01-.061.014-.092,0,.046.005.09.007.136m-.006.465c-.006.1-.015.2-.028.294a.6.6,0,0,0-.051-.181.607.607,0,0,0,.032-.14l.028-.007.019.036m-.077.426a1.145,1.145,0,0,1-.091.148l-.071.1-.034.034a.97.97,0,0,0,0-.192.722.722,0,0,0,.158-.328.014.014,0,0,0,0-.005.552.552,0,0,1,.033.239m-.5.557,0,0a.454.454,0,0,1-.037.037h-.017a.213.213,0,0,0,0-.022l.048-.02m-.042-.012v-.007l.008,0-.009,0m.04-.114c.006-.014.01-.029.016-.044l.012.016c-.008.01-.018.019-.028.028m.031.18a.8.8,0,0,1-.056.085l-.055.008h.05c-.008.009-.017.016-.025.025l-.047.013c.007-.015.014-.03.021-.047a.749.749,0,0,0,.088-.08l.024,0m-.087.012v0h0l0,0m.228-.12.01-.031h0a.153.153,0,0,0,.089-.073.8.8,0,0,0,.087-.009.582.582,0,0,1-.14.128c-.017,0-.033-.01-.05-.014m.015.1-.007,0,0-.006h.009m.031-.043.015,0-.02.017c-.008,0-.016,0-.024,0l.029-.016m.059-.037-.007.006h0l.008-.006m.142-.857a.877.877,0,0,1-.02.127.439.439,0,0,1-.054.082c.013-.063.025-.127.035-.192.007-.014.012-.028.018-.043.007.01.016.017.022.026m-.034-.97c.009-.015.016-.032.024-.047l0,0c.024.035.045.073.066.109,0,.041,0,.083,0,.123l-.089-.183m-.013-.1v-.012l0,.006,0,.006m-.02,1.347c-.01.019-.022.038-.032.056,0-.012.005-.025.008-.038s.016-.011.024-.018m-.054-.517c0-.014,0-.027,0-.041a1.942,1.942,0,0,0,.031-.237l.006.007c0,.042,0,.084,0,.127,0,.059,0,.118,0,.176-.012-.012-.025-.022-.037-.032m.017.123h.007l.007.009c0,.016,0,.031,0,.047h-.032c0-.022,0-.043,0-.065.007,0,.014.006.02.007m-.01.111c-.006.013-.013.023-.019.036l0-.075.03,0c-.005.013-.01.028-.015.04m-.029.476a.056.056,0,0,0,.008-.008.841.841,0,0,1,0,.188l-.028.028,0,0h-.046c0-.012,0-.024,0-.035.013-.031.027-.062.038-.095s.017-.053.026-.08m-.041-.04c0-.025.01-.05.014-.077l.01-.007c-.007.029-.016.056-.024.084m.017.311a.146.146,0,0,1-.059.043h0c.017-.012.032-.028.048-.042h.01m0-.007.008-.007s0,.006,0,.007Zm-.048,0a.29.29,0,0,0,.005-.036l.031,0a.415.415,0,0,1-.037.034m.072-.52v0c.008-.011.014-.022.021-.033,0,.023-.008.047-.012.07,0-.011-.006-.021-.009-.032m.11.487c-.006.009-.011.02-.017.029a.79.79,0,0,1-.086.007.2.2,0,0,0,.017-.037.7.7,0,0,0,.086,0m-.208.3-.014,0,.008-.018s0,.009.006.014m-.008-.831c.011-.025.02-.052.03-.078.008.024.014.048.022.072-.012.018-.024.033-.036.049,0-.014-.01-.028-.016-.043m0,.719-.007,0h0v0h.007m-.012-1.066.017.012c0,.009,0,.017,0,.025v0c0-.013-.011-.026-.015-.04m0,.813c0,.007,0,.014-.006.021l-.011.025h-.009a.433.433,0,0,0,.025-.055v.009m-.077.122.017-.022.017,0a.423.423,0,0,1-.023.036l-.011-.017m.016.115.017,0v0c0,.008-.008.014-.011.022l-.018,0,.011-.026m.008-.147.022-.032h.008c-.005.011-.008.023-.014.034l-.016,0m.024.1a.029.029,0,0,1,0,.007h0l0,0,0,0m.015-.055h0v.006l-.005,0,.007-.011m.013.192-.041.027a.045.045,0,0,0,0-.01.447.447,0,0,0,.024-.045l.01,0,.012.026m-.028.265-.039-.016-.026-.019c.011-.016.022-.034.03-.049l0-.01.01,0a.616.616,0,0,1,.02.1m-.072-.041-.029-.023,0-.013a.371.371,0,0,0,.057-.014v0a.426.426,0,0,1-.032.048m-.03-.025-.009-.008.013,0,0,.011m.028.029-.073.1a.188.188,0,0,1,.011-.019c.015-.046.026-.08.035-.107.008.008.017.015.027.024m-.1.129-.028.024a1.269,1.269,0,0,0-.021-.167l.032-.017a.473.473,0,0,0,.077-.006l.011.011-.039.1c-.008.015-.02.033-.032.05m.011-.18.021-.017.012.013-.032,0m.021-.017a.576.576,0,0,0,.082-.083h.008c.009.022.017.044.024.066a.351.351,0,0,1-.06.021.1.1,0,0,1,0-.01l0,.01-.041.01-.012-.013m.085-.245a.061.061,0,0,1,0,.01h0l.007-.008m-.031-.079a.119.119,0,0,0,.016-.014l.013.02-.029-.006m-.029.246-.035.014s.006-.01.01-.014h.027v0m.029-.078c0,.008.008.017.012.025l-.03.039-.031,0a.75.75,0,0,0,.048-.068m-.011-.282v0l0,0,.035.006c-.006.01-.013.019-.019.028h0l-.018-.027m.012-.014a.7.7,0,0,0,.067-.066.483.483,0,0,1-.033.071l-.034,0m.037-.117c.01-.045.017-.091.024-.137l.025-.01c0,.019.008.037.012.056a.645.645,0,0,1-.042.077l-.019.013m.044-.5c0-.038-.006-.077-.011-.115.01,0,.021.007.031.008h0l0,.006c-.007.034-.014.068-.024.1m-.033-.254c.011.029.023.057.034.085l.011.032-.026-.008c0-.023,0-.045-.009-.067s-.007-.028-.01-.041m.024-.084c.008.007.017.012.025.018s.024.021.037.03,0,.018,0,.026a.578.578,0,0,1-.047-.039l-.013-.035m.06-.4.058.06c0,.04,0,.08.006.12s0,.1-.011.147a1.393,1.393,0,0,0-.053-.328m.014-1.213c.072.1.146.2.221.3-.038.047-.078.094-.12.138-.025-.1-.053-.192-.084-.281-.006-.054-.011-.107-.017-.159m.266.374c.006.062.011.124.014.186a1.669,1.669,0,0,1-.056.179c-.027-.04-.054-.079-.082-.117-.007-.032-.013-.063-.02-.094.05-.048.1-.1.144-.153m.023.369c0,.029,0,.056,0,.084h0l-.005,0c-.007-.011-.012-.023-.019-.033.008-.018.017-.035.025-.054m0,1.623a.67.67,0,0,1-.087.215c-.03,0-.059,0-.087,0,.02-.019.041-.037.06-.057l.077-.106c.013-.017.025-.036.037-.055m-.047.234-.006.017-.008,0,.014-.019m.114-.017a1.258,1.258,0,0,0,.171-.058s.006,0,.01-.006a.441.441,0,0,1-.142.2.77.77,0,0,1-.1.068.6.6,0,0,1-.1,0h0a1.146,1.146,0,0,0,.091-.181l.014,0-.013,0,.006-.015.071-.009m-.224.231,0,.008c-.027,0-.055,0-.084,0l.02-.017c.022,0,.046.005.068.007m-.02.031c-.008.01-.017.018-.025.028l-.08.023c0-.011-.009-.022-.012-.032l.021-.016.013,0c.03,0,.056,0,.083,0m-.074.081c-.006.006-.012.009-.018.014s0-.007,0-.012l.02,0m-.07.087v0l.011,0,.03-.022c0,.008,0,.015.006.023l-.046.007m-.008-.027c0-.012-.007-.025-.011-.037l0-.013.041,0,.006.024a.332.332,0,0,1-.034.026l-.007,0m-.012-.04,0-.008h.007l0,.009m-.012-.032a.033.033,0,0,0,0-.009l.041-.026,0,.009-.009.018-.032.007m.006.232a.5.5,0,0,1-.125.34.489.489,0,0,1-.1.08,1.087,1.087,0,0,0,.028-.29c.007-.009.016-.017.022-.026l.031-.031c.029-.044.056-.082.079-.118l.025.021.044.02v0m-.233-.1v-.008a.818.818,0,0,0,.062-.056l.04-.014a.46.46,0,0,1-.072.062c-.009.007-.018.011-.028.017m-.006-1.19.016.013c.005.044.01.088.013.133v0c-.007-.031-.016-.061-.024-.091s0-.035,0-.053m.093-.822-.067.016c.009-.021.018-.041.026-.062l.04.04v.006m.016.059c0,.081-.009.15-.012.2q-.043-.1-.087-.207c0-.01.007-.02.012-.029l.073-.016c0,.017.009.033.014.05m.056.178c-.018.018-.037.036-.056.052,0-.008-.007-.016-.011-.025,0-.05.008-.116.014-.194.017.056.035.112.053.167m.021-1.407,0,0,0-.018,0,0c0,.005,0,.012,0,.017m.064,1.676-.079-.059c-.015-.041-.031-.082-.047-.123.019-.014.037-.03.055-.046.019.059.039.117.057.175,0,.017.008.035.014.052m.014-2.818-.008-.005c0-.011,0-.021,0-.031,0,.012.007.025.009.036m0,.852c.065.123.131.25.193.382.018.048.032.1.047.152-.081-.119-.16-.233-.231-.341,0-.044-.008-.09-.01-.132,0-.02,0-.04,0-.061m.093-.43c-.023-.03-.047-.058-.071-.085,0-.052,0-.105.006-.159l.012.008c.018.078.036.157.053.235m.119.6c-.07-.149-.139-.288-.2-.42,0-.028,0-.055.005-.084a1.44,1.44,0,0,1,.143.207c.019.1.039.2.056.3m.364.9c-.026-.049-.053-.1-.081-.144-.013-.111-.028-.224-.045-.337a.9.9,0,0,0,.105-.64,1.366,1.366,0,0,0-.278-.551c-.018-.105-.037-.209-.058-.314a6.318,6.318,0,0,1,.505.55,1.339,1.339,0,0,1,.25.465.882.882,0,0,1-.049.511,1.211,1.211,0,0,1-.35.46m-.091.523c0-.046,0-.092-.005-.138-.006-.085-.013-.171-.021-.255l.007,0c.014.138.025.276.031.411v.018l-.012-.031m0,.266c0,.011.005.021.007.032s0,.036,0,.053c0,0-.005-.01-.007-.016,0-.023,0-.046,0-.069m-.034-.693c0-.006,0-.012,0-.018s0-.037,0-.056c0,.023.006.047.008.07l-.007,0m.161,1.947v0l.014-.007-.015.01m-.047-.994c0-.019,0-.039,0-.059a1.129,1.129,0,0,0-.032-.288c0-.056,0-.112,0-.169,0-.146-.013-.294-.026-.444l0,0a2.672,2.672,0,0,1,.163.335,1.921,1.921,0,0,1,.178.932.681.681,0,0,1-.149.369,1.183,1.183,0,0,0-.04-.364,2.83,2.83,0,0,0-.105-.308m.018.746a.253.253,0,0,1-.009.038.19.19,0,0,1-.032.02,1.147,1.147,0,0,1-.164.063l-.056.009a2.184,2.184,0,0,0,.085-.3c.014-.045.03-.089.042-.136s.035-.081.05-.124c.007.017.015.032.021.048a.862.862,0,0,1,.064.381m-.008.266-.014.007a.262.262,0,0,0,.021-.023c0,.006,0,.011-.007.016m-.025.021,0,0,.018-.011,0,0-.02.013m-.428.267-.062.012-.007-.033a.743.743,0,0,0,.059-.051.935.935,0,0,0,.354-.128.287.287,0,0,0,.035-.026.4.4,0,0,0,.054-.028c-.006.009-.011.019-.017.028a.584.584,0,0,1-.161.132l.005-.014-.007.015a.887.887,0,0,1-.253.094m-.414.674c.006-.016.01-.033.016-.049a.508.508,0,0,0,.143-.1.55.55,0,0,0,.147-.356l.024,0,.024,0c.01,0,.017,0,.013-.01,0-.037,0-.077-.007-.118,0-.01,0-.02-.007-.03l.062-.01a.9.9,0,0,0,.24-.074l-.052.111a1.946,1.946,0,0,1-.229.371.683.683,0,0,1-.375.259m-.037-1.068h0l.013,0,.017.022-.03-.018m-.014.165.015-.017c0,.011-.007.021-.011.031a.067.067,0,0,1,0-.014m-.022-.062,0-.009a.166.166,0,0,0,.016.011l-.016.008,0-.01m-.012-.306-.031-.043.05.05a.121.121,0,0,1,0,.016l-.017-.023m-.056.133.027-.01.025.014v0l-.022.018-.028-.018a.038.038,0,0,0,0-.008m-.016-.061c0-.009,0-.019.006-.029l.009.012c.007.009.015.018.022.028l-.013.005-.025-.016m-.062-.115.026.032c0,.006,0,.011,0,.017l-.023-.049m-.046-.279a.957.957,0,0,0,.084-.169c.016.009.033.019.049.029-.007.081-.012.163-.023.242-.036-.037-.073-.069-.11-.1m0-.065c0-.048.007-.1.009-.144l.042.019a1,1,0,0,1-.05.124m-.08,1.471c.006-.007.013-.013.019-.019,0,.015,0,.028,0,.043l-.023-.024m-.109-.116c.008,0,.017,0,.025-.008a.678.678,0,0,0,.087.036l0,.009s0,.008-.008.011c-.022,0-.044,0-.067-.005l-.04-.043m-.034-.04h0m-.109-.137.017-.018a.888.888,0,0,0,.089.006c.017,0,.036-.007.054-.009l0,0a.644.644,0,0,1,.051.1l-.013.009c-.025.005-.05.007-.076.011a1.261,1.261,0,0,1-.113-.086l-.012-.014m0,0a.152.152,0,0,0,.01-.014h.007l-.016.016v0m-.276.524a.869.869,0,0,0,.022-.092c.037.026.073.053.109.077a.412.412,0,0,1-.115.017c-.006,0-.011,0-.016,0m-7.569-4.772c-.021.064-.037.131-.055.2,0-.057.012-.114.019-.172a.377.377,0,0,0,.036-.024Zm-.02-.025-.013.01c.007-.064.014-.127.019-.189s.025-.139.037-.208l.054.086c0,.024,0,.049.008.074-.02.055-.038.11-.056.167a.409.409,0,0,1-.049.061m.217,1.9a.47.47,0,0,1,.03-.049c0,.068,0,.134.007.2-.019-.034-.037-.069-.055-.1Zm.241-.064a.364.364,0,0,0-.013.046c-.013-.048-.027-.095-.038-.143a.8.8,0,0,1-.022-.089l.013-.02.086-.119.07.138-.01.014a1.331,1.331,0,0,0-.085.173m.042.427c-.007.041-.014.081-.019.122a.913.913,0,0,1,0-.176l.023.054m.064-.371c.005-.014.015-.025.022-.039-.023.089-.044.18-.061.271l-.011-.03c0-.009-.007-.018-.011-.027a.914.914,0,0,1,.061-.176m.215,1.67c.011-.021.021-.042.034-.064.007.024.017.046.026.068s-.006.018-.008.027l-.051-.031m.046.048c-.007.025-.012.048-.019.073l0,0c0-.008,0-.017-.007-.025-.009-.024-.019-.045-.029-.069a.029.029,0,0,0,0-.007l.054.032m-.036-.878v.014l-.008-.008-.033-.071a.77.77,0,0,1,.02-.081c.007.035.015.07.024.1,0,.014,0,.028,0,.041m-.005.2c0,.018-.008.034-.01.053l-.022-.028a.674.674,0,0,1-.018-.171c.018.049.033.1.05.146m.079.771c0,.008,0,.015-.006.023h0l.007-.023m.121-.041v0h0a.1.1,0,0,0-.006-.012l.007.009m.049.815a.442.442,0,0,0,.017.044c-.022.023-.043.046-.066.066a.315.315,0,0,1-.04-.012c.031-.031.06-.064.089-.1m0-1.055.006-.019c.01.016.02.031.03.046l.006.013-.042-.041m-.006.318-.011-.021c0-.007,0-.013,0-.02l.016.022,0,.018m-.008.908a1.272,1.272,0,0,1-.077.149.487.487,0,0,1-.136-.025.832.832,0,0,0,.213-.123m-.215.063a1.815,1.815,0,0,0,.135-.127c.012,0,.024.01.038.014a.825.825,0,0,1-.174.113m.079-.156-.079-.03a.449.449,0,0,0,.138-.152.579.579,0,0,0,.045-.118.815.815,0,0,0,.024.145c-.041.054-.083.106-.128.155m.215-.75c.02.024.04.048.061.071,0,.026,0,.053.006.08-.026-.038-.052-.076-.076-.114,0-.012.006-.025.009-.037m.279,1.693c-.01-.009-.021-.017-.03-.027a.428.428,0,0,1,0-.129c0-.026.012-.055.018-.083h.011a.683.683,0,0,0,.108.065.655.655,0,0,1-.062.187l-.041-.012m.039.016-.008.011c-.01-.008-.018-.017-.028-.025l.036.014m.33-.575s0-.008,0-.013h0c.017-.025.031-.054.046-.081l.057.045-.049.043a.223.223,0,0,0-.052.007m.044,0-.011.01-.028.016c0-.008,0-.017,0-.026a.194.194,0,0,1,.044,0m-.069-.082c-.005-.018-.012-.035-.018-.052h.036l.006,0c-.008.017-.016.033-.024.048m-.073-.052a1.03,1.03,0,0,1,.042.113c0,.009-.009.02-.014.029s-.03.041-.045.061a.425.425,0,0,1-.109.007c0-.048-.006-.1-.01-.151l.032-.067c.037,0,.073.008.1.008m-.1-.026.036-.074.017,0c.015.029.025.06.038.091l-.091-.013m0,.3.03-.008a.692.692,0,0,1-.07.067c0-.03.006-.058.006-.09a.483.483,0,0,0,.081,0l0,0-.044.026m.133-.319.042.037h-.029c0-.012-.008-.024-.012-.036m.01.6h-.008a.517.517,0,0,1-.192-.045c0-.008,0-.017.006-.025.005-.029,0-.063.007-.093a.793.793,0,0,0,.144-.14l.06-.015a.924.924,0,0,1-.018.318m-.338-1s0-.008.005-.013c.02.025.038.052.058.078s.013.07.02.1l-.08.075a.908.908,0,0,1-.128.011c.045-.082.087-.168.124-.256m-.054-.292c0-.006.006-.011.008-.017s.005.018.008.028l-.016-.011m-.044.169,0-.015,0,0-.006.012m.005.148c-.016.039-.031.078-.048.116,0-.019,0-.038.006-.057s.014-.015.02-.024l.022-.035m.183.409h.006c-.024.066-.048.132-.068.193a.59.59,0,0,1-.091-.054,1.161,1.161,0,0,1,.086-.085l.067-.056m-.08.441a1.475,1.475,0,0,1,.069-.2.345.345,0,0,0,.064.02c0,.037,0,.071-.005.107a.44.44,0,0,1-.127.073m.125-.026c0,.026,0,.056,0,.082,0,.008,0,.015,0,.023a.644.644,0,0,1-.095-.051.488.488,0,0,0,.1-.054m0-.3c0,.038.007.077.008.114a.318.318,0,0,1-.055-.014c.014-.031.031-.066.047-.1m.2.481a.82.82,0,0,1-.069.174H179.3a1.166,1.166,0,0,1-.183-.042h0a.635.635,0,0,0,.066-.184.549.549,0,0,0,.195.054h0m-.362-.17-.026-.02-.105-.1a.329.329,0,0,1,.086-.156.862.862,0,0,0,.1.064,1.6,1.6,0,0,0-.051.207m-.06-.527a.409.409,0,0,1-.054-.042v0a.9.9,0,0,0,.094,0l-.042.04m.862.621c.008-.017.011-.038.017-.056.009.016.015.032.025.048l0,.005-.025.015a.316.316,0,0,1-.036.015.2.2,0,0,0,.015-.027m.629-.211a2.358,2.358,0,0,0-.044.24.623.623,0,0,1-.074-.151h0c.012-.013.033-.022.04-.04v0a.745.745,0,0,0,.075-.045m-.057-.084c.009-.025.018-.051.026-.077l.042,0a.511.511,0,0,1-.068.074m-.063.17v0l.009-.023.03-.013c-.007.015-.024.024-.035.036h0m.163-.766a.888.888,0,0,1,.006.266l-.022,0a.39.39,0,0,0,0-.083c0-.035-.008-.069-.01-.1s.019-.05.029-.075m.426.923a.391.391,0,0,1-.129.2.364.364,0,0,1-.121.059.993.993,0,0,1-.1-.078,1.766,1.766,0,0,1,.13-.409,1.173,1.173,0,0,0,.176.058l.078.01v.008c0,.022-.007.042-.012.063a.907.907,0,0,1-.113.028l-.046-.035-.033-.025.032.026.041.034h0l-.071.008.071,0h.016a.283.283,0,0,0,.038.025c.012.007.029.016.044.024m-.042-.03a.211.211,0,0,1-.032-.02c.026,0,.055,0,.091-.009,0,.017-.009.034-.014.05-.016-.008-.032-.014-.044-.022m0-.172a1.092,1.092,0,0,1-.177-.035l.018-.042c.034-.074.071-.148.108-.221a.47.47,0,0,0,.124.037,1.651,1.651,0,0,1,0,.26h-.076m.194-.018c.007-.048.016-.095.019-.144a.98.98,0,0,0,.1.065.234.234,0,0,1-.043.041.283.283,0,0,1-.079.038m.09.032a.741.741,0,0,1-.1.056.215.215,0,0,0,0-.03.331.331,0,0,0,.1-.027m-.005-.327a.271.271,0,0,0,.056-.065l.07.034c0,.021,0,.04,0,.061a.544.544,0,0,1-.021.067.776.776,0,0,1-.108-.1m.162.306c.009.037.016.074.028.109a.515.515,0,0,1-.09.076.481.481,0,0,1-.122-.03c-.027-.012-.052-.022-.074-.034a.835.835,0,0,0,.119-.043.242.242,0,0,0,.058-.029s.006-.007.009-.01a.68.68,0,0,0,.072-.041m.04.138c.006.017.015.032.022.048a.607.607,0,0,1-.084,0,.462.462,0,0,0,.062-.048m-.06.105a.689.689,0,0,1-.111-.006l.032-.011a.607.607,0,0,0,.078.017m-.155-.012a.671.671,0,0,1-.117-.035c.007-.02.012-.04.018-.06.022.017.048.03.078.05a.56.56,0,0,0,.067.027.35.35,0,0,1-.046.018m-.083,0a.428.428,0,0,1-.048-.006c0-.006.007-.011.009-.018s.025.017.038.024m1.885-.145.059.029a.81.81,0,0,1-.237.182,1.182,1.182,0,0,1-.328.111l-.1.02a.536.536,0,0,0-.028-.133.988.988,0,0,0,.1-.167,1.037,1.037,0,0,0,.1-.355l.069.019c.013.008.024.017.04.025a.405.405,0,0,0,.133.036.464.464,0,0,0,.2.072.5.5,0,0,0,.064-.006.3.3,0,0,1,.035.031l.025.026c0,.01.006.019.01.029a.909.909,0,0,1-.081.1l-.064-.023m.178.018c0,.014.006.029.01.043l-.042-.012c.011-.011.022-.019.032-.031m.341.24s0,.009,0,.013l-.006,0a.12.12,0,0,0,.006-.016m.308-.779-.017.007a1.377,1.377,0,0,1-.1-.127v0a.51.51,0,0,0,.111.031c.008.025.017.049.025.074-.007,0-.012.012-.019.017m.012.022c.006,0,.01-.009.016-.013s0,.015.007.023l-.011.014-.022-.021.01,0m-.106-.191c.01-.02.02-.041.028-.062h.006l.019.049a.241.241,0,0,1-.053.014m.53.358h0a.258.258,0,0,1-.054.015.234.234,0,0,0,.026-.033c.009.006.018.012.028.017m-.02-.028,0-.008a.089.089,0,0,1,.006.014l-.01-.005m-.016-.052,0,.007c-.005.011-.008.022-.014.032l-.012-.006c0-.012,0-.023,0-.035l.02,0m-.02,0c0-.012,0-.025,0-.036l.017.036Zm-.008.066c0-.007,0-.013,0-.021l.008.006a.088.088,0,0,1-.01.015m-1.086-.482,0,0,0-.016.007.014m-.79.94c-.006-.009-.011-.02-.017-.029a.463.463,0,0,0-.034-.041l0,0a.929.929,0,0,0,.1-.152c.009,0,.019,0,.028-.005-.008.04-.019.078-.03.116a.816.816,0,0,1-.05.116m-.029.053a.531.531,0,0,1-.148.16c0-.014.009-.026.011-.041a1.269,1.269,0,0,0,.006-.144.486.486,0,0,0,.074-.061c.01.012.022.023.032.035a.5.5,0,0,1,.025.05m-.108-.225c-.009-.009-.02-.017-.029-.026s0-.011,0-.017l.047.005c-.006.011-.01.026-.017.037m-.261-.254a.443.443,0,0,1-.049.006l-.107-.078-.038-.028c-.006-.009-.01-.019-.016-.028s.016-.041.023-.063a1.7,1.7,0,0,1,.232.081l.046.063h-.012c0,.007,0,.014,0,.022a.548.548,0,0,1-.078.024m.066.046a.349.349,0,0,1-.011.036l-.038-.029a.393.393,0,0,0,.05-.007m.139.288a.279.279,0,0,1-.174.1.233.233,0,0,1-.08,0,.637.637,0,0,0,.182-.152c.012-.01.024-.018.035-.029l.029.024c0,.018.006.038.008.056m-.555-.173c.027-.044.053-.091.077-.139.046.016.088.031.124.041l.093.029.08.055a.5.5,0,0,1-.039.058.729.729,0,0,1-.335-.043m.106-.351c0-.007,0-.014-.008-.021l.013,0-.006.017m-.116.287a.767.767,0,0,1,0-.085.172.172,0,0,0,.01-.017l.03.011c-.014.031-.028.062-.043.091m-2.895-1.25c.013.023.025.044.039.066l-.049-.039c0-.009.006-.018.01-.027m1.537-9.584c-.042.034-.081.067-.116.1s-.07.067-.1.1c-.084.014-.174.032-.27.054l.013-.014a1.186,1.186,0,0,0-.107-.087.428.428,0,0,0-.138-.073c-.028-.011-.059-.022-.091-.031h-.01l.034-.008a4.166,4.166,0,0,1,.785-.039m3.564.2-.155-.1a1.925,1.925,0,0,0-.429-.218c-.024-.012-.048-.02-.072-.029a2.513,2.513,0,0,0-.255-.094,3.144,3.144,0,0,0-.976-.254,2.059,2.059,0,0,1,1.255.261,6.541,6.541,0,0,1,.633.437m.981,9.976-.013,0c-.013-.011-.024-.019-.034-.029l.007-.006.023,0c.006.011.011.023.017.033m0-.185.029.03-.009.01-.02-.04m.071.146.009,0,.022.01-.024.008-.008-.017Zm.143.492a.867.867,0,0,1-.1.059c-.024-.014-.048-.029-.072-.045a.378.378,0,0,0,.037-.012.553.553,0,0,0,.05-.029c.023-.007.045-.017.068-.026l.021.054m.113-.114,0,0,0,0v0m-.059.083c-.006-.016-.011-.032-.017-.047l.061-.032.013.011c0,.008,0,.016,0,.023-.019.015-.036.031-.056.045m-.01.173c-.02-.011-.042-.018-.062-.029.018-.007.036-.016.053-.025l.015.04-.007.013m-.3.329a1.871,1.871,0,0,0,.024-.3.9.9,0,0,0,.165-.036c.032.015.065.028.1.041a.7.7,0,0,1-.287.292m.021-.367c0-.018,0-.036,0-.054.021.012.043.022.065.033-.021.007-.041.015-.062.02m-.024-.322c.046.007.092.014.144.017h.03c.006.014.013.028.02.042a.555.555,0,0,1-.076.068c-.034.014-.067.027-.1.037,0-.054-.011-.11-.018-.164m-.034-.232c.012-.007.023-.017.034-.025l.029.028-.061.014,0-.017m-.031-.163.043.029.012.008.008.016a.419.419,0,0,1-.05.006c0-.02-.008-.04-.012-.059m-.005-.026c.005-.007.009-.014.014-.022h0c.013.024.026.049.038.073h0l-.046-.024c0-.008,0-.017-.005-.025m-.94,1.231a.4.4,0,0,0,.042,0,.441.441,0,0,0,.358-.191.653.653,0,0,0,.085-.2l.025-.008a.189.189,0,0,0,.084-.054,1.39,1.39,0,0,1,.107.442,1.607,1.607,0,0,1-.258.03,2.511,2.511,0,0,1-.442-.021Zm-.11-.366a.891.891,0,0,0,.117-.006.532.532,0,0,0,.132-.043c.024.008.047.017.071.023a.257.257,0,0,1-.012.069.274.274,0,0,1-.18.175.793.793,0,0,1-.081.022l0-.007c0-.044-.011-.087-.018-.131s-.016-.067-.023-.1m-.047-.2.008-.008c.036.026.072.051.11.074-.033.009-.065.014-.1.02-.006-.029-.012-.058-.019-.086m-.277.951a.2.2,0,0,0,.076-.044l0,0,0-.015a.569.569,0,0,0,.006-.068.316.316,0,0,0,.052-.016.266.266,0,0,0,.117-.126h.008a.32.32,0,0,1-.038.2.2.2,0,0,1-.174.074c-.018,0-.034,0-.05,0m-.105-.018a.432.432,0,0,0,.035-.038l.029-.034c0,.006,0,.011,0,.017.028,0,.055-.007.065-.031a.181.181,0,0,1-.125.087h0m-.843.149a.43.43,0,0,0,.09-.264.491.491,0,0,0,0-.072l.1-.01a1.2,1.2,0,0,0,.344-.08.862.862,0,0,0,.293-.192l.062.026a1.174,1.174,0,0,1,.028.2c-.023.01-.047.019-.072.028a1.39,1.39,0,0,1-.4.029,1.433,1.433,0,0,0,.41.1l.057,0v.007a.938.938,0,0,1-.081.076,1.3,1.3,0,0,1-.134-.042s.041.024.115.057h0l-.052.011.035,0a.934.934,0,0,1-.141.089.9.9,0,0,1-.649.033m-.322-.167a.151.151,0,0,0,.088-.043.221.221,0,0,0,.045-.067.336.336,0,0,0,.1-.046.625.625,0,0,0,.122-.111.472.472,0,0,1,.024.168.386.386,0,0,1-.081.255,1.062,1.062,0,0,1-.223-.1c-.025-.016-.049-.036-.073-.054m-.29-.322a.709.709,0,0,0,.107-.038.342.342,0,0,0,.16.047.309.309,0,0,0,.171-.043c0,.04,0,.083,0,.12a.465.465,0,0,1-.014.064.208.208,0,0,1-.184.023.477.477,0,0,1-.191-.155.517.517,0,0,0,.181.186.256.256,0,0,0,.168.015.216.216,0,0,1-.03.051.145.145,0,0,1-.09.046,1.093,1.093,0,0,1-.278-.314m-.012-.16a1.028,1.028,0,0,1-.084-.065c0-.011-.007-.022-.01-.033a.812.812,0,0,0,.275,0c-.031.022-.063.043-.094.062s-.058.024-.086.037m-.054.023c-.008-.022-.016-.043-.023-.066.013.016.03.034.05.054l-.028.012m-.84.366a.4.4,0,0,0,.09-.039.461.461,0,0,0,.183-.229.386.386,0,0,0,.08.01.761.761,0,0,0,.32.061,1.886,1.886,0,0,1-.344.124,1.846,1.846,0,0,0,.4-.09,1.258,1.258,0,0,0,.11.146.608.608,0,0,1-.2.109.8.8,0,0,1-.644-.092m-.175.056a1.074,1.074,0,0,0,.358.134l-.081.01-.083-.025a1.006,1.006,0,0,1-.193-.092c0-.009,0-.018,0-.027m-.095-.76-.043-.01,0-.006a.3.3,0,0,0,.071-.043c.006,0,.01-.011.014-.015a.682.682,0,0,1-.045.074m-.239.8c0-.014,0-.029,0-.045.018.013.034.026.051.037a.891.891,0,0,0,.163.085.424.424,0,0,0,.024.051c-.057,0-.116,0-.179,0-.02-.04-.041-.083-.063-.124m0-.321a.118.118,0,0,0,.007-.015.919.919,0,0,0,.146.169l.021.016c0,.006,0,.012,0,.019a1.257,1.257,0,0,1-.175-.188m-.287.41c.02-.018.04-.037.059-.057s.047-.061.07-.092a1.176,1.176,0,0,0,.079.15h0l-.042,0-.077.006h-.007l-.082-.011m-.28-.057a.284.284,0,0,0,.152-.091.578.578,0,0,0,.122-.281c.02.027.041.052.063.077s.022.07.034.1a1.17,1.17,0,0,1-.081.144c-.01.014-.02.028-.031.041a.328.328,0,0,1-.077.049h0c-.058-.012-.116-.024-.176-.038a.014.014,0,0,0,0,0m-.042-.141a1,1,0,0,0,.193-.286.275.275,0,0,0,.037-.014l.026-.016c.014.022.029.042.044.062a.568.568,0,0,1-.116.293.281.281,0,0,1-.149.093l-.027-.051s.007.019.019.051h0a.271.271,0,0,1-.025-.134m0-.335a.439.439,0,0,1-.185.064.965.965,0,0,0,.026-.324l.047-.012c.037-.017.079-.036.124-.06a1.738,1.738,0,0,1,.041.176l-.029.084-.011,0h.01l-.023.07m-.014.046a1.315,1.315,0,0,0-.035.147c-.018.026-.034.052-.054.075a.494.494,0,0,1-.16.005,1.113,1.113,0,0,0,.07-.169s0-.008,0-.013a.44.44,0,0,0,.176-.046m-.095.39c.019-.014.04-.025.058-.041a.349.349,0,0,0,.013.063l-.071-.022m-.208-.083c.013-.017.026-.036.041-.053h0a.642.642,0,0,0,.133.013.7.7,0,0,1-.089.079c-.029-.011-.057-.025-.085-.038m-.024-.011-.028-.013a.747.747,0,0,1-.134-.084c0-.005.007-.009.01-.013h0a1.208,1.208,0,0,0,.181.059c-.01.018-.022.034-.033.049m-.126.156a.557.557,0,0,0,.062-.046l.043.016c-.011,0-.021.013-.031.017a.445.445,0,0,1-.074.013m-.128-.156a1.16,1.16,0,0,0,.165.1.505.505,0,0,1-.105.07.456.456,0,0,1-.3-.12.2.2,0,0,0,.049,0l.073,0,.079-.026a.225.225,0,0,0,.041-.027m-.108-.368a.239.239,0,0,0,.05.012.3.3,0,0,0,.058-.008c0,.025-.01.052-.01.075a.469.469,0,0,0,.013.108.529.529,0,0,1-.112-.187m-.019-.155a.062.062,0,0,1,0-.008l.1.1.029.024s0,.008,0,.013a.235.235,0,0,1-.061.011.26.26,0,0,1-.056-.011.392.392,0,0,1-.014-.13m-.035-.333c.007-.024.015-.047.02-.072l.016-.024a.421.421,0,0,0,.048.035l-.049.051-.035.009m-.015.054h0M178.8,133c0-.011.011-.022.016-.034v.008L178.8,133m0-.43c-.018.03-.041.055-.06.083a1.206,1.206,0,0,1,.008-.34c.022.013.041.024.062.036l.046.059c0,.008,0,.017,0,.026v0l-.009.044c-.015.03-.03.06-.048.089m-.013.156c0,.016-.011.03-.016.046,0-.01-.006-.02-.01-.03l.031-.038c0,.008,0,.016-.006.023m-.1.7c.014-.019.03-.037.042-.058,0,.011-.006.02-.007.031s0,.042,0,.063c-.014-.012-.029-.024-.04-.036m-.051-.057a.306.306,0,0,0,.048,0,.332.332,0,0,1-.02.031l-.026-.028,0,0m-.027-.037a.868.868,0,0,0,.088-.086c.028-.032.055-.067.081-.1h0c0,.007,0,.015-.006.022a.8.8,0,0,1-.065.164l-.006,0a.29.29,0,0,1-.09,0l0,0m0,0h0Zm-.128-.038a.588.588,0,0,1-.165-.158c.014-.007.029-.013.043-.021a.545.545,0,0,0,.071-.011c.01,0,.019-.008.029-.011a.558.558,0,0,0,.156.044c-.01.017-.017.037-.028.053a.368.368,0,0,1-.105.1m-.4-.1a.47.47,0,0,0,.223-.052.622.622,0,0,0,.156.165.313.313,0,0,1-.029.017.272.272,0,0,1-.143-.008.713.713,0,0,1-.206-.122m.18.136a.124.124,0,0,1-.024-.006.78.78,0,0,1-.18-.13h.012a.758.758,0,0,0,.193.137m-.221-.137a.816.816,0,0,0,.188.155.26.26,0,0,0,.2.021l.015-.009a.315.315,0,0,0,.071-.022l.011,0a.409.409,0,0,1-.319.106.515.515,0,0,1-.286-.18c.033-.026.066-.052.1-.08a.043.043,0,0,0,.01,0h.009m.079-.095a.474.474,0,0,0,.135.025.4.4,0,0,1-.206.044l0,0c.025-.022.049-.043.073-.066m.1-.1c.006.012.011.024.018.039l.027.047a.49.49,0,0,1-.114-.01c.024-.024.047-.05.07-.077m.042-.046a.539.539,0,0,0,.115.1c-.008.005-.016.013-.024.018a.49.49,0,0,1-.077.014l-.032-.052-.02-.038.039-.042m.207-.321c.013.041.025.066.022.066l-.018-.074a.95.95,0,0,0,.07-.362c.009-.024.017-.047.026-.071.038.027.077.056.115.08a1.577,1.577,0,0,0-.009.278.587.587,0,0,1-.048.133.508.508,0,0,1-.134.156.416.416,0,0,1-.069.042l.024-.011a.472.472,0,0,0,.047-.03l.074.035a1.629,1.629,0,0,1-.121.125c-.017.015-.035.028-.052.042a.5.5,0,0,1-.125-.1,1.716,1.716,0,0,0,.105-.143c-.008.066-.012.106-.012.106s.008-.046.023-.122l.006-.009a.8.8,0,0,0,.074-.143m-.489-1.824c.064.1.128.188.194.273a1.054,1.054,0,0,0,.216.594c.03.038.061.072.093.1-.012.025-.022.051-.033.076l-.007,0c-.137-.315-.325-.6-.461-.873,0-.054,0-.111,0-.171m0-.284c.035.051.072.1.109.152a.888.888,0,0,0,.043.182c.013.038.03.072.046.107,0,.011,0,.022,0,.033s0,.015,0,.023c-.066-.092-.131-.187-.192-.289,0-.067,0-.136,0-.208m0-.407.042-.06.038.094c.016.056.032.111.049.167a1.064,1.064,0,0,0-.022.244c-.037-.052-.071-.106-.1-.162,0-.09,0-.185,0-.283m-.132.461c.041.07.082.139.125.2,0,.061,0,.116.005.171a1.626,1.626,0,0,1-.129-.367v-.009m-.008-.147.006-.031.025-.061c.029.051.06.1.092.15,0,.075.005.147.007.215-.044-.073-.086-.151-.128-.23,0-.014,0-.028,0-.043m-.051-1.174c-.035-.112-.069-.224-.1-.338a.067.067,0,0,0,0-.008,3.566,3.566,0,0,1,.153-.63l.015.068a.084.084,0,0,0,0,.01c-.012.069-.024.137-.032.209,0,.036,0,.071,0,.107a.074.074,0,0,1-.018,0l.018,0c0,.021,0,.041,0,.065l.008.1.019.079c.012.046.022.092.033.139-.034.065-.067.132-.1.2m-.119-.15c.024.082.048.164.075.244-.024.056-.048.114-.069.173a2.347,2.347,0,0,1-.006-.417m-.065.466c0,.037.01.074.017.112,0,.01-.006.019-.008.028,0-.047-.007-.093-.009-.14m-.019-.879a1.056,1.056,0,0,0,.014.125c-.011.056-.023.112-.033.169,0-.1.01-.2.019-.294m-.134-1.878c0,.037-.005.077-.007.116-.01-.044-.021-.087-.029-.134,0-.022-.007-.046-.01-.068l.045.072s0,.01,0,.014m.177.894c-.017.1-.032.2-.046.3l-.12-.047c-.068-.041-.131-.092-.2-.138a2.287,2.287,0,0,1-.155-.191,1.632,1.632,0,0,1-.106-.227,2.37,2.37,0,0,1-.073-1.011c.021-.166.05-.331.085-.494a2.832,2.832,0,0,0,.181.463c.031.166.068.322.109.463a3.263,3.263,0,0,0,.149.4,1.686,1.686,0,0,0,.17.483" transform="translate(-114.334 -78.842)" fill="#7b716f"/>
        <path id="Path_4829" data-name="Path 4829" d="M181.464,153.189s.014-.008.041-.019l-.041.019" transform="translate(-117.439 -99.128)" fill="#7b716f"/>
        <path id="Path_4830" data-name="Path 4830" d="M182.206,144.163a2.158,2.158,0,0,0,1.267-1.188c.345-.9-1.153-1.35-1.095-.518Z" transform="translate(-117.919 -91.911)" fill="#f7dbc5"/>
        <path id="Path_4831" data-name="Path 4831" d="M173.972,130.515a1.752,1.752,0,0,0,.261-.053.94.94,0,0,0,.517-.513,2.8,2.8,0,0,0,.222-.8l.026-.074c.018-.058.036-.12.053-.182.05.165.1.32.131.464a2.123,2.123,0,0,1,.074.691,1.009,1.009,0,0,1-.04.194l-.022.068.038-.061a1.07,1.07,0,0,0,.091-.185,2.256,2.256,0,0,0,.111-.735c.006-.307-.023-.663-.023-1.021,0-.1.006-.195.016-.289a3.135,3.135,0,0,0,.326.361,6.412,6.412,0,0,0,.091,1.036c.038.225.087.455.139.685a4.3,4.3,0,0,0-.288,1.083,2.786,2.786,0,0,0-.057.814,1.69,1.69,0,0,0,.274.746c.017.044.036.088.054.132a.369.369,0,0,1-.213.034.268.268,0,0,1-.12-.045.247.247,0,0,1-.077-.057l-.059-.055.057.057a.249.249,0,0,0,.074.061.284.284,0,0,0,.121.05.376.376,0,0,0,.223-.026q.094.219.2.43c-.037.043-.076.083-.115.12s-.081.074-.123.106l-.08.025-.258.059.262-.048.046-.011a1.213,1.213,0,0,1-.258.157.447.447,0,0,1-.14.036l-.031-.04a.255.255,0,0,1-.049-.085l-.033-.077.022.081a.282.282,0,0,0,.038.095l.016.028a.174.174,0,0,1-.153-.073.487.487,0,0,1-.06-.241c0-.06,0-.093,0-.093s-.005.032-.015.092a.506.506,0,0,0,.033.266.232.232,0,0,0,.165.122.452.452,0,0,0,.1,0l.006,0a.392.392,0,0,0,.377.008,1.149,1.149,0,0,0-.081.424.564.564,0,0,0,.152.361.9.9,0,0,0,.245.176,1.417,1.417,0,0,0,.177.077l.064.025-.062-.028a1.335,1.335,0,0,1-.173-.084.614.614,0,0,1-.361-.528,1.121,1.121,0,0,1,.126-.469,1.68,1.68,0,0,0,.313-.211l.029.052c.016.079.03.151.043.221a.643.643,0,0,1-.069.072.475.475,0,0,1-.2.087.7.7,0,0,1-.192.006.7.7,0,0,0,.194.006.516.516,0,0,0,.211-.079.7.7,0,0,0,.061-.056c.014.077.026.147.035.212.005.044.009.08.013.117-.067,0-.106,0-.106,0h.107l.029.27s0-.1,0-.271l.161,0,.036,0a.019.019,0,0,0,0,.006.019.019,0,0,1,0-.006c.051,0,.108-.007.169-.014a.64.64,0,0,0,.253-.043v0a.633.633,0,0,0,.291-.162.557.557,0,0,0,.087-.521,2.349,2.349,0,0,0-.177-.471c.04-.045.077-.1.116-.15l.025-.009a.669.669,0,0,0,.042.129,1.5,1.5,0,0,0,.111.174l.136.125c.058.032.111.063.16.088l-.056.054.06-.052a.665.665,0,0,0,.1.046l.247.074-.242-.085a.653.653,0,0,1-.092-.047,1.263,1.263,0,0,0,.153-.164,1.135,1.135,0,0,0,.122-.209.659.659,0,0,0,.154-.122,1.269,1.269,0,0,0,.294-.7c.005-.041,0-.08.008-.121l.112.163-.111-.186a3.582,3.582,0,0,0-.175-1.382c-.019-.056-.043-.115-.068-.171.008-.034.018-.068.025-.1l.047.025a1.686,1.686,0,0,0,.34.142,1.158,1.158,0,0,0,.275.071l.243.043-.24-.055a1.114,1.114,0,0,1-.269-.083,1.632,1.632,0,0,1-.328-.155l-.056-.034c.014-.068.029-.135.042-.2a1.353,1.353,0,0,0,.729-.008c1.076-.356,1.62-2.371,1.826-3.325a2.472,2.472,0,0,0-1.636-3.17,2.671,2.671,0,0,0-.611-.108v-.393l-.334.027-.962.058a4.13,4.13,0,0,0-1.527.383,2.5,2.5,0,0,0-.39.234c-.121.095-.242.19-.359.289-.1.111-.2.22-.294.336a3.887,3.887,0,0,0-.251.365,3.509,3.509,0,0,0-.5,1.6,5.768,5.768,0,0,0,0,.776c0,.02,0,.04,0,.06a2.209,2.209,0,0,0,.022.23c.01.108.021.213.031.312l.118.943.04.358s.011-.131.03-.36c0-.04.006-.086.009-.131a3.573,3.573,0,0,1,.091,1.267.786.786,0,0,1-.309.533.727.727,0,0,1-.166.086l-.063.029M176,133.688l0,.008a.507.507,0,0,1-.354.14c.014,0,.028,0,.042-.007a1.311,1.311,0,0,0,.315-.14m.626-.387c-.008.051-.018.1-.03.147l-.039-.065c.023-.026.046-.055.069-.083m.335-.343.087,0a.891.891,0,0,0,.128-.012l.018.037c.014.026.026.053.04.079l-.108.126c-.06.059-.117.112-.171.159-.042-.089-.087-.179-.135-.27a1.452,1.452,0,0,0,.215-.341c.006-.013.01-.029.016-.042l.123.246a.833.833,0,0,1-.125.016l-.087.007m.242-1.37c-.011-.116-.023-.237-.034-.358a3.3,3.3,0,0,0,.191-.987c0-.034,0-.067,0-.1l.016-.029c.028.018.054.034.081.05.091.135.182.263.269.386a5.3,5.3,0,0,1-.1.753c-.115.149-.227.268-.309.36l-.017.019a1.2,1.2,0,0,1-.1-.094m.089.107-.083.091c0-.053,0-.105,0-.16.03.026.06.048.088.069m.24.388,0-.023a5.852,5.852,0,0,1,.137-.749s0-.008,0-.011l.022-.027s0,.008,0,.012a2.157,2.157,0,0,0-.038.444c0,.017-.006.033-.008.05-.037.086-.07.172-.1.258-.005.016-.01.031-.015.046m.063.072c0,.041-.007.08-.01.119l-.038.026c.014-.048.03-.1.048-.145m.086.937a1.159,1.159,0,0,1-.061-.327l.02-.012c.023-.017.046-.037.067-.058v.4h-.026m.026,0c0,.026,0,.047,0,.066-.008-.019-.017-.038-.025-.061l0,0h.026m-.089-.36c0-.048,0-.1,0-.152.033-.058.065-.12.1-.182,0,.034,0,.074-.007.106,0,.048,0,.094,0,.138a1.067,1.067,0,0,1-.089.09m.411-1.05a.889.889,0,0,0,.062-.1,2.875,2.875,0,0,1-.07.44c.006-.109.008-.22.008-.337m.157-1.2c.011.019.023.039.034.059-.01.029-.024.058-.036.087,0-.02,0-.04,0-.061s0-.056.006-.085m-.622-.289c-.043-.067-.084-.135-.125-.205l.07-.142.049.079c.034.108.072.215.11.325-.033-.016-.068-.036-.1-.056m.112.079c.016.045.031.091.049.136v.035c-.046-.069-.091-.14-.137-.212.03.015.06.029.088.041m.185,1.557,0,.014-.014.016.018-.031m-.019-.066c.01-.07.019-.143.029-.214l.048-.088c0,.031,0,.06.007.091a2.192,2.192,0,0,1-.084.211m0,.117c-.011.038-.022.075-.035.112,0-.03.008-.06.012-.091l0,0,0,0,.016-.013m.1.372c-.012.029-.019.061-.033.089a1.032,1.032,0,0,1-.121.209c-.011-.05-.02-.1-.03-.16,0-.038.01-.078.014-.118a4.123,4.123,0,0,0,.16-.424c0-.006,0-.013.008-.02.007.15.006.29,0,.424m-.222-.2h0c-.005-.065-.007-.131-.008-.2l.037-.08c-.006.085-.011.165-.017.245,0,.01-.009.022-.012.032m.006.054a.086.086,0,0,0,0,.014s0-.006,0-.01l0,0m.044.463c-.01.012-.022.021-.032.032,0-.032,0-.064.006-.1,0-.008,0-.018,0-.026.007.032.014.062.023.091m.164-.189c0,.026,0,.056-.005.081a2.076,2.076,0,0,1-.036.259c-.008.054-.018.1-.029.144l-.021-.076c-.013-.056-.03-.125-.046-.2a1.281,1.281,0,0,0,.137-.208m-.074.5c0,.013-.006.028-.01.038l-.045.165c-.031,0-.063,0-.095,0,.005-.1.014-.245.024-.427.016-.016.03-.033.045-.05.019.068.037.131.052.183l.028.087m-.174-1.665a5.3,5.3,0,0,0,.1-.58l.03.047v.021c0,.03,0,.06-.008.092v.01c-.025.121-.059.246-.09.37l-.028.041m-.043,1.006c.008-.056.017-.113.028-.171,0,.042.01.084.016.123-.015.016-.029.034-.044.048m.041,0s0,.007,0,.009c0,.048-.008.086-.011.112s-.035.078-.054.115c0-.065.011-.131.02-.2l.045-.038m.01.011v0c0,.016.006.032.008.048s-.017.037-.026.057l.017-.1m-.307-2.148a.044.044,0,0,0,.006-.011l.018.029-.023-.018m-.3.289q.068-.186.12-.385l.006.006c.005.078.01.157.01.236-.043.086-.085.17-.126.253,0-.037-.007-.073-.01-.11m.006,1.045.007.052-.019-.024.011-.028m.049-.472c-.01-.113-.022-.229-.032-.343l.011-.026.095-.172a3.184,3.184,0,0,1-.074.541m-.011.927,0,0a2.328,2.328,0,0,1-.065.615c-.016-.038-.034-.076-.048-.115s-.022-.081-.033-.121c.015-.133.024-.267.026-.405,0-.09.008-.18.01-.271l.019-.034c.007-.016.013-.034.02-.05l.044.05c0,.021.006.044.009.065.011.09.015.178.018.265l0,.006m-.1-.557c0-.072,0-.145.006-.217,0-.02,0-.041,0-.061.008.063.016.123.025.186-.01.031-.023.061-.034.092m-.01,1.315c-.01.028-.017.059-.028.085a1.433,1.433,0,0,1-.189.331l-.006-.009c.008-.017.016-.034.023-.05l.052-.161a2.5,2.5,0,0,0,.078-.333v-.011c.022.051.045.1.069.149m-.116.754-.07.061-.174.117-.025-.046a2.422,2.422,0,0,0,.086-.338c.015-.015.03-.028.046-.045.05.085.1.168.138.25m.423-3.788.032.019.091.144c-.022.047-.044.093-.067.139-.011-.02-.023-.04-.034-.061-.005-.081-.013-.162-.022-.242m.978.479c-.008.049-.016.1-.024.146l-.011-.009-.069-.125c0-.015,0-.03,0-.046.034.013.069.023.1.034m.239,1.781-.114-.191c-.069-.12-.138-.262-.21-.41,0-.014,0-.028-.007-.043l-.008-.036a1,1,0,0,0,.012-.12c0-.042,0-.085-.006-.128.034-.063.065-.128.1-.194a3.541,3.541,0,0,1,.24,1.121m-.322,1.063a1.608,1.608,0,0,0,.113-.512,4.059,4.059,0,0,0-.077-.941c.046.078.091.155.135.221l.15.217c0,.084,0,.169,0,.253a1.2,1.2,0,0,1-.236.684.557.557,0,0,1-.085.078m-.04.036a.8.8,0,0,1-.374.132c0-.013.023-.069.055-.162a.185.185,0,0,1,.006-.019l.038.118-.035-.128a1.609,1.609,0,0,0,.047-.166,2.326,2.326,0,0,0,.053-.258c.014-.077.023-.162.031-.248a2.733,2.733,0,0,0,.17-.781c.025.111.045.221.064.327.006.192.009.3.009.3s0-.092,0-.248a3.089,3.089,0,0,1,.045.579,1.547,1.547,0,0,1-.11.55m-.42.322a1.02,1.02,0,0,1-.055-.108c0-.02,0-.045,0-.074a.883.883,0,0,0,.45-.089,1.179,1.179,0,0,1-.1.191,1.2,1.2,0,0,1-.148.169q-.068-.039-.146-.089m-.058-.054s0-.017,0-.038c.023.044.042.072.053.091l-.008-.006-.047-.047m-.212-.385a1.119,1.119,0,0,0,.1-.058,1.164,1.164,0,0,0,.076.311h0l0,.01c.012.03.024.054.035.077v.043l-.078-.079a1.667,1.667,0,0,1-.1-.169.68.68,0,0,1-.036-.137m-.008-.051c.032-.046.062-.1.092-.145,0,.04,0,.077.009.113a.927.927,0,0,1-.1.063c0-.01,0-.02,0-.031m0-.079a1.382,1.382,0,0,1,.056-.388l.041-.021c-.006.081-.008.161-.007.235,0,.007,0,.012,0,.019-.029.055-.06.105-.091.156m-.041.14,0,0h0m-.069.028c-.029.011-.059.026-.084.033l-.03.006c-.052-.119-.107-.24-.16-.362a2.349,2.349,0,0,0,.108-.76l.091-.092c.14.1.245.131.238.137s-.095-.045-.226-.15a.189.189,0,0,0,.017-.017c.078-.081.181-.183.291-.309a5.032,5.032,0,0,0-.1.7c0,.025,0,.044,0,.067-.022.072-.041.144-.056.217a.8.8,0,0,1-.162.04.854.854,0,0,0,.159-.028,1.293,1.293,0,0,0-.023.437c-.02.032-.041.058-.062.086m-.081.112c-.008-.017-.014-.033-.023-.049a.109.109,0,0,1-.006-.013l.028,0c.021-.006.045-.017.066-.024-.022.031-.043.064-.066.092m-.2.785a1.549,1.549,0,0,0-.133-.414c.057-.047.118-.1.183-.158l.1-.113a2.238,2.238,0,0,1,.176.422.507.507,0,0,1-.058.479.6.6,0,0,1-.258.158,1.465,1.465,0,0,0-.015-.373m-.3.442a.383.383,0,0,1-.143-.039l-.175-.339a.681.681,0,0,0,.062-.088,1.237,1.237,0,0,0,.065-.142l.043.032.014.018.162.25-.09-.2.09.068-.11-.112-.012-.028-.037-.066.178-.113.07-.056a1.483,1.483,0,0,1,.14.382,1.529,1.529,0,0,1,.031.375c-.033.01-.065.019-.1.027-.061.014-.119.024-.174.032h-.019m-.115.014c-.008-.014-.016-.03-.023-.045a.4.4,0,0,0,.11.036c-.03,0-.06.007-.087.009m-.2-.356.17.3a.4.4,0,0,1-.084-.054.41.41,0,0,0,.088.062l.027.047-.03,0c-.064.006-.115.009-.16.011,0-.038,0-.075,0-.12,0-.074-.007-.159-.013-.25m-.031-.373.026-.026c.032.037.063.07.091.1a1.249,1.249,0,0,1-.061.157c-.009.019-.022.034-.032.052-.007-.088-.015-.181-.024-.281m-.084-.915c.021-.024.042-.045.064-.071l.011-.014.032.075a1.823,1.823,0,0,1-.085.3c-.008-.1-.016-.193-.021-.294m-.01-.27c.013-.066.032-.135.051-.2,0,.077.006.155.017.232l.008.091c-.012.017-.024.036-.036.053s-.022.026-.034.04c0-.071-.005-.14-.006-.213m-.292.633c.031.038.061.076.09.11l.1.112,0,.012c-.016.033-.032.066-.049.1-.051-.11-.1-.221-.143-.333m.007-1.4c0,.023-.007.047-.008.071a3.894,3.894,0,0,0,.045.826c0,.064,0,.126.009.187a1.39,1.39,0,0,1-.129-.643,1.957,1.957,0,0,1,.083-.44" transform="translate(-112.59 -79.679)" fill="#7b716f"/>
        <path id="Path_4832" data-name="Path 4832" d="M181.291,154.282s-.01-.009-.011-.008,0,0,.011.008" transform="translate(-117.32 -99.842)" fill="#7b716f"/>
        <path id="Path_4833" data-name="Path 4833" d="M144.272,174.307c.042.511.355.789.6,1.221a1.881,1.881,0,0,0,1.069.72c.007,0,2.147.785,2.147.785l.76-.059-.223-1.593-.506-.411a2.538,2.538,0,0,0-.413-.792,1.867,1.867,0,0,0-.854-.98,1.7,1.7,0,0,1-.155-.107.307.307,0,0,0-.473.011.415.415,0,0,0,.052.533,1.717,1.717,0,0,0,.281.209c.069.044.133.087.192.131-.145.033-.3.066-.457.094l-.728-.517-.711-.837c-.347-.532-.172.259-.337.37a3.759,3.759,0,0,0-.246,1.221m1.169,1.014.182.1c0,.011,0,.021,0,.033a1.151,1.151,0,0,1-.186-.133" transform="translate(-93.366 -111.66)" fill="#f7dbc5"/>
        <path id="Path_4834" data-name="Path 4834" d="M160.015,161.6c.539-2.968,4.291-1.684,3.614,1.286a50.714,50.714,0,0,0-.7,8.469c-.119,2.1-.08,2.636-1.655,2.206s-5.834-3.366-6.946-4.013-.9-3.131.671-2.54,3.352,1.341,4.3,1.6c.412-.462.12-3.712.719-7.013" transform="translate(-99.424 -103.491)" fill="#e9eef5"/>
      </g>
    </g>
  </g>
</svg>
