<svg xmlns="http://www.w3.org/2000/svg" xmlns:xlink="http://www.w3.org/1999/xlink" width="200.726" height="158.531" viewBox="0 0 200.726 158.531">
  <defs>
    <clipPath id="clip-path">
      <path id="Path_5362" data-name="Path 5362" d="M252.073,166.262c0,.867-1.27,1.57-2.837,1.57s-2.836-.7-2.836-1.57,1.27-1.57,2.836-1.57,2.837.7,2.837,1.57" transform="translate(-246.4 -164.692)" fill="none"/>
    </clipPath>
    <clipPath id="clip-path-2">
      <rect id="Rectangle_458" data-name="Rectangle 458" width="123.244" height="91.992" fill="none"/>
    </clipPath>
    <clipPath id="clip-path-3">
      <path id="Path_5369" data-name="Path 5369" d="M461.87,119.567c0,.868-1.27,1.57-2.837,1.57s-2.836-.7-2.836-1.57,1.27-1.57,2.836-1.57,2.837.7,2.837,1.57" transform="translate(-456.197 -117.997)" fill="none"/>
    </clipPath>
  </defs>
  <g id="Group_2609" data-name="Group 2609" transform="translate(-982.462 -294.323)">
    <g id="Group_1337" data-name="Group 1337" transform="translate(982.462 315.724)">
      <g id="Group_1323" data-name="Group 1323" transform="translate(0)">
        <g id="Group_1338" data-name="Group 1338">
          <path id="Path_5339" data-name="Path 5339" d="M25.7,186.815a.755.755,0,0,0,.152-1.495l-16.189-3.35a.755.755,0,0,0-.306,1.479l16.189,3.35a.769.769,0,0,0,.154.016" transform="translate(95.018 -145.16)" fill="#6c3c14"/>
          <path id="Path_5414" data-name="Path 5414" d="M25.7,186.815a.755.755,0,0,0,.152-1.495l-16.189-3.35a.755.755,0,0,0-.306,1.479l16.189,3.35a.769.769,0,0,0,.154.016" transform="translate(62.439 -166.56)" fill="#6c3c14"/>
          <path id="Path_5340" data-name="Path 5340" d="M22.393,167.312a.755.755,0,0,0,.66-.387L34.59,146.27a.755.755,0,1,0-1.318-.737L21.734,166.188a.756.756,0,0,0,.659,1.124" transform="translate(84.183 -115.794)" fill="#6c3c14"/>
          <path id="Path_5415" data-name="Path 5415" d="M22.393,167.312a.755.755,0,0,0,.66-.387L34.59,146.27a.755.755,0,1,0-1.318-.737L21.734,166.188a.756.756,0,0,0,.659,1.124" transform="translate(51.604 -137.194)" fill="#6c3c14"/>
          <path id="Path_5341" data-name="Path 5341" d="M93.421,146.918a.755.755,0,0,0,.152-1.495l-16.189-3.35a.755.755,0,0,0-.306,1.479l16.189,3.35a.768.768,0,0,0,.154.016" transform="translate(13.604 -113.331)" fill="#6c3c14"/>
          <path id="Path_5418" data-name="Path 5418" d="M93.421,146.918a.755.755,0,0,0,.152-1.495l-16.189-3.35a.755.755,0,0,0-.306,1.479l16.189,3.35a.768.768,0,0,0,.154.016" transform="translate(-18.975 -134.731)" fill="#6c3c14"/>
          <path id="Path_5342" data-name="Path 5342" d="M90.113,127.415a.755.755,0,0,0,.66-.387l11.537-20.655a.755.755,0,0,0-1.319-.737L89.455,126.291a.756.756,0,0,0,.659,1.124" transform="translate(2.767 -83.965)" fill="#6c3c14"/>
          <path id="Path_5419" data-name="Path 5419" d="M90.113,127.415a.755.755,0,0,0,.66-.387l11.537-20.655a.755.755,0,0,0-1.319-.737L89.455,126.291a.756.756,0,0,0,.659,1.124" transform="translate(-29.811 -105.365)" fill="#6c3c14"/>
          <path id="Path_5343" data-name="Path 5343" d="M44.231,101.53s-6.086,6.033-9.022,7.728c-1.955,1.129-8.666,3.671-8.666,3.671l-15.93-9.2s8.006-3.29,10.393-4.668c2.5-1.446,7.3-6.731,7.3-6.731Z" transform="translate(76.867 -73.661)" fill="#fff"/>
          <path id="Path_5416" data-name="Path 5416" d="M44.231,101.53s-6.086,6.033-9.022,7.728c-1.955,1.129-8.666,3.671-8.666,3.671l-15.93-9.2s8.006-3.29,10.393-4.668c2.5-1.446,7.3-6.731,7.3-6.731Z" transform="translate(44.288 -95.061)" fill="#fff"/>
          <path id="Path_5344" data-name="Path 5344" d="M10.192,28.37c2.82,2.088,12.378,7.291,12.378,7.291L24.242,26.1s-9.576-5.224-12.41-7.311Z" transform="translate(96.941 -14.991)" fill="#d1c8bf"/>
          <path id="Path_5420" data-name="Path 5420" d="M10.192,28.37c2.82,2.088,12.378,7.291,12.378,7.291L24.242,26.1s-9.576-5.224-12.41-7.311Z" transform="translate(64.362 -36.391)" fill="#d1c8bf"/>
          <path id="Path_5345" data-name="Path 5345" d="M67.121.39c-.039.216-.484.391-1,.391S65.232.606,65.27.39s.484-.391,1-.391.894.175.855.391" transform="translate(42.922 0.001)" fill="#a2846a"/>
          <path id="Path_5424" data-name="Path 5424" d="M67.121.39c-.039.216-.484.391-1,.391S65.232.606,65.27.39s.484-.391,1-.391.894.175.855.391" transform="translate(10.343 -21.399)" fill="#a2846a"/>
          <path id="Path_5346" data-name="Path 5346" d="M65.283,22.4,68.861,1.932c-.039.216.344.391.855.391s.957-.175,1-.391L67.133,22.4c-.039.216-.484.391-1,.391s-.894-.175-.855-.391" transform="translate(39.331 -1.541)" fill="#6c3c14"/>
          <path id="Path_5421" data-name="Path 5421" d="M65.283,22.4,68.861,1.932c-.039.216.344.391.855.391s.957-.175,1-.391L67.133,22.4c-.039.216-.484.391-1,.391s-.894-.175-.855-.391" transform="translate(6.752 -22.941)" fill="#6c3c14"/>
          <path id="Path_5347" data-name="Path 5347" d="M1.853,36.087c-.039.216-.484.391-1,.391S-.036,36.3,0,36.087.487,35.7,1,35.7s.894.175.855.391" transform="translate(121.389 -28.477)" fill="#a2846a"/>
          <path id="Path_5423" data-name="Path 5423" d="M1.853,36.087c-.039.216-.484.391-1,.391S-.036,36.3,0,36.087.487,35.7,1,35.7s.894.175.855.391" transform="translate(88.81 -49.878)" fill="#a2846a"/>
          <path id="Path_5348" data-name="Path 5348" d="M.016,58.095,3.594,37.629c-.039.216.344.391.855.391s.957-.175,1-.391L1.866,58.095c-.039.216-.484.391-1,.391s-.894-.175-.855-.391" transform="translate(117.797 -30.02)" fill="#6c3c14"/>
          <path id="Path_5417" data-name="Path 5417" d="M.016,58.095,3.594,37.629c-.039.216.344.391.855.391s.957-.175,1-.391L1.866,58.095c-.039.216-.484.391-1,.391s-.894-.175-.855-.391" transform="translate(85.218 -51.42)" fill="#6c3c14"/>
          <path id="Path_5349" data-name="Path 5349" d="M20.212,26.9a2.033,2.033,0,0,1-1.157.138,2.354,2.354,0,0,1-.677-.473S8.8,21.344,5.968,19.257c-.2-.148-.722-.662-.722-.662L3.609,28.171s.518.517.719.665c2.82,2.088,12.378,7.291,12.378,7.291a2.238,2.238,0,0,0,.772.531A1.35,1.35,0,0,0,18.53,36.5Z" transform="translate(102.303 -14.835)" fill="#e9e5e0"/>
          <path id="Path_5422" data-name="Path 5422" d="M20.212,26.9a2.033,2.033,0,0,1-1.157.138,2.354,2.354,0,0,1-.677-.473S8.8,21.344,5.968,19.257c-.2-.148-.722-.662-.722-.662L3.609,28.171s.518.517.719.665c2.82,2.088,12.378,7.291,12.378,7.291a2.238,2.238,0,0,0,.772.531A1.35,1.35,0,0,0,18.53,36.5Z" transform="translate(69.724 -36.235)" fill="#e9e5e0"/>
          <path id="Path_5350" data-name="Path 5350" d="M217.955,190.34,263.089,216.4l-22.667,13.083-45.134-26.058Z" transform="translate(-179.336 -151.849)" fill="#cfcec7"/>
          <path id="Path_5351" data-name="Path 5351" d="M302.539,150.878l2.012-1.161L339.256,192.3l-2.011,1.161Z" transform="translate(-277.193 -119.441)" fill="#6c3c14"/>
          <path id="Path_5352" data-name="Path 5352" d="M347.438,246.679l2.012-1.161L313,245.561l-2.012,1.161Z" transform="translate(-289.094 -195.868)" fill="#6c3c14"/>
          <path id="Path_5353" data-name="Path 5353" d="M225.9,106.613l2.012-1.161,34.706,42.586L260.6,149.2Z" transform="translate(-185.052 -84.127)" fill="#6c3c14"/>
          <path id="Path_5354" data-name="Path 5354" d="M270.8,202.414l2.012-1.161-36.451.043-2.012,1.161Z" transform="translate(-196.953 -160.555)" fill="#6c3c14"/>
          <path id="Path_5355" data-name="Path 5355" d="M195.783,223.392l22.567-13.029v-2.371l-22.567,13.029Z" transform="translate(-134.698 -165.931)" fill="#e1d7d0"/>
          <path id="Path_5356" data-name="Path 5356" d="M217.955,78.869l45.134,26.058L240.421,118.01,195.287,91.952Z" transform="translate(-179.336 -62.92)" fill="#a2846a"/>
          <path id="Path_5357" data-name="Path 5357" d="M307.378,143.564l45.134,26.058v2.371l-45.134-26.058Z" transform="translate(-291.427 -114.532)" fill="#7b502c"/>
          <path id="Path_5358" data-name="Path 5358" d="M249.216,164.692c1.569,0,2.842.707,2.842,1.58l-.526,5.455c0,.576-1.051,1.043-2.347,1.043s-2.347-.467-2.347-1.043l-.463-5.455c0-.872,1.272-1.58,2.842-1.58" transform="translate(-178.636 -131.387)" fill="#2a424b"/>
          <path id="Path_5359" data-name="Path 5359" d="M241.281,177.581l.816.371a1.011,1.011,0,0,1,.5,1.339l-1.643,2.422.424-.765.7-1.141a1.011,1.011,0,0,0-.5-1.339l-.575-.262Z" transform="translate(-168.171 -141.67)" fill="#2a424b"/>
          <path id="Path_5360" data-name="Path 5360" d="M246.4,166.262c0,.867,1.27,1.57,2.836,1.57s2.836-.7,2.836-1.57-1.27-1.57-2.836-1.57-2.836.7-2.836,1.57" transform="translate(-178.658 -131.387)" fill="#bfd4d5"/>
        </g>
      </g>
      <g id="Group_1325" data-name="Group 1325" transform="translate(67.744 33.305)">
        <g id="Group_1324" data-name="Group 1324" clip-path="url(#clip-path)">
          <path id="Path_5361" data-name="Path 5361" d="M246.4,173.266c0,.867,1.27,1.57,2.836,1.57s2.836-.7,2.836-1.57-1.27-1.57-2.836-1.57-2.836.7-2.836,1.57" transform="translate(-246.401 -170.28)" fill="#5c2c00"/>
        </g>
      </g>
      <g id="Group_1327" data-name="Group 1327" transform="translate(0)">
        <g id="Group_1326" data-name="Group 1326" clip-path="url(#clip-path-2)">
          <path id="Path_5363" data-name="Path 5363" d="M254.939,156.005c.242.353.4.963-.442,1.654a1.391,1.391,0,0,0-.527,1.532,1.858,1.858,0,0,1,.071-1.74,2.355,2.355,0,0,0,.258-2,2.631,2.631,0,0,1,.64.55" transform="translate(-183.21 -124.018)" fill="#fff"/>
          <path id="Path_5364" data-name="Path 5364" d="M261.182,147.89c-.184.289-.3.782.4,1.312a1.115,1.115,0,0,1,.465,1.212,1.489,1.489,0,0,0-.1-1.391,1.886,1.886,0,0,1-.263-1.591,2.106,2.106,0,0,0-.5.458" transform="translate(-191.72 -117.618)" fill="#fff"/>
          <path id="Path_5365" data-name="Path 5365" d="M459.014,118c-1.569,0-2.842.707-2.842,1.58l.526,5.455c0,.576,1.051,1.043,2.347,1.043s2.347-.467,2.347-1.043l.463-5.455c0-.872-1.272-1.58-2.842-1.58" transform="translate(-430.86 -94.135)" fill="#2a424b"/>
          <path id="Path_5366" data-name="Path 5366" d="M482.527,130.886l-.816.371a1.011,1.011,0,0,0-.5,1.339l1.643,2.422-.424-.765-.7-1.141a1.011,1.011,0,0,1,.5-1.339l.575-.262Z" transform="translate(-456.903 -104.418)" fill="#2a424b"/>
          <path id="Path_5367" data-name="Path 5367" d="M461.871,119.566c0,.867-1.27,1.57-2.836,1.57s-2.836-.7-2.836-1.57,1.27-1.57,2.836-1.57,2.836.7,2.836,1.57" transform="translate(-430.881 -94.134)" fill="#bfd4d5"/>
        </g>
      </g>
      <g id="Group_1329" data-name="Group 1329" transform="translate(25.317 23.862)">
        <g id="Group_1328" data-name="Group 1328" clip-path="url(#clip-path-3)">
          <path id="Path_5368" data-name="Path 5368" d="M461.871,126.57c0,.867-1.27,1.57-2.836,1.57s-2.836-.7-2.836-1.57,1.27-1.57,2.836-1.57,2.836.7,2.836,1.57" transform="translate(-456.198 -123.584)" fill="#5c2c00"/>
        </g>
      </g>
      <g id="Group_1331" data-name="Group 1331" transform="translate(0)">
        <g id="Group_1330" data-name="Group 1330" clip-path="url(#clip-path-2)">
          <path id="Path_5370" data-name="Path 5370" d="M470.379,109.31c-.242.353-.4.963.442,1.654a1.391,1.391,0,0,1,.527,1.532,1.858,1.858,0,0,0-.071-1.74,2.355,2.355,0,0,1-.259-2,2.632,2.632,0,0,0-.64.55" transform="translate(-443.375 -86.766)" fill="#fff"/>
          <path id="Path_5371" data-name="Path 5371" d="M465,101.194c.184.289.3.782-.4,1.312a1.115,1.115,0,0,0-.465,1.212,1.489,1.489,0,0,1,.1-1.391,1.886,1.886,0,0,0,.262-1.591,2.11,2.11,0,0,1,.5.458" transform="translate(-435.73 -80.365)" fill="#fff"/>
          <path id="Path_5372" data-name="Path 5372" d="M315.206,154.748c0,2.748,4.023,4.975,8.986,4.975s8.986-2.227,8.986-4.975-4.023-4.975-8.986-4.975-8.986,2.228-8.986,4.975" transform="translate(-273.675 -119.485)" fill="#fee4ce"/>
          <path id="Path_5373" data-name="Path 5373" d="M326.93,159.927c0,2.023,2.962,3.662,6.615,3.662s6.615-1.64,6.615-3.662-2.961-3.662-6.615-3.662-6.615,1.64-6.615,3.662" transform="translate(-283.028 -124.664)" fill="#fdca9f"/>
          <path id="Path_5374" data-name="Path 5374" d="M338.654,165.106c0,1.3,1.9,2.35,4.244,2.35s4.244-1.052,4.244-2.35-1.9-2.35-4.244-2.35-4.244,1.052-4.244,2.35" transform="translate(-292.382 -129.843)" fill="#fca167"/>
          <path id="Path_5375" data-name="Path 5375" d="M365.917,114.932l1.086.627v1.02l-.681-.393a.468.468,0,0,0-.7.405l-.633,7.019a.864.864,0,0,0,.552.76l1.188.545v1.144l-1.783-.818a1.089,1.089,0,0,1-.7-.957l.785-8.841a.589.589,0,0,1,.884-.51" transform="translate(-317.419 -91.627)" fill="#617f88"/>
          <path id="Path_5376" data-name="Path 5376" d="M345.97,156.238c0,.8,1.174,1.452,2.622,1.452s2.622-.65,2.622-1.452-1.174-1.452-2.622-1.452-2.622.65-2.622,1.452" transform="translate(-297.933 -123.485)" fill="#b0bec3"/>
          <path id="Path_5377" data-name="Path 5377" d="M350.1,163.722l-.378-1.759c0,.8-1.174,1.452-2.622,1.452s-2.622-.65-2.622-1.452l-.378,1.759c0,.8,1.343,1.452,3,1.452s3-.65,3-1.452" transform="translate(-296.442 -129.21)" fill="#617f88"/>
          <path id="Path_5378" data-name="Path 5378" d="M352.413,153.758c0,.4.59.73,1.319.73s1.319-.327,1.319-.73-.591-.73-1.319-.73-1.319.327-1.319.73" transform="translate(-303.073 -122.082)" fill="#b0bec3"/>
          <path id="Path_5379" data-name="Path 5379" d="M355.051,157.524v-.885c0,.4-.591.73-1.319.73s-1.319-.327-1.319-.73v.885c0,.4.59.73,1.319.73s1.319-.327,1.319-.73" transform="translate(-303.073 -124.963)" fill="#617f88"/>
          <path id="Path_5380" data-name="Path 5380" d="M349.551,133.559a.6.6,0,0,1,0,.072c0-.03,0-.06,0-.091,0,.006,0,.013,0,.019" transform="translate(-296.993 -106.535)" fill="#3d8e82"/>
          <path id="Path_5381" data-name="Path 5381" d="M368.4,133.54c0,.031,0,.061,0,.091a.559.559,0,0,1,0-.072c0-.006,0-.013,0-.019" transform="translate(-319.66 -106.535)" fill="#3d8e82"/>
          <path id="Path_5382" data-name="Path 5382" d="M349.551,147.9a.6.6,0,0,0,0-.072c0,.03,0,.06,0,.091,0-.006,0-.013,0-.019" transform="translate(-296.993 -117.935)" fill="#3d8e82"/>
          <path id="Path_5383" data-name="Path 5383" d="M368.4,147.922c0-.03,0-.061,0-.091a.554.554,0,0,0,0,.071c0,.006,0,.013,0,.019" transform="translate(-319.66 -117.936)" fill="#3d8e82"/>
          <path id="Path_5384" data-name="Path 5384" d="M349.546,129.2v-3a.571.571,0,0,0,0,.07c0-.028,0-.057,0-.085,0-.011,0-.022,0-.033a1.91,1.91,0,0,1,3.818,0c0,.011,0,.022,0,.033,0,.029,0,.057,0,.085a.571.571,0,0,0,0-.07v3.066a.58.58,0,0,1-.008.092,1.917,1.917,0,0,1-3.8,0,.585.585,0,0,1-.008-.092V129.2h0Zm.011-2.884,0-.02,0,.02m.011.047h0m3.784-.047,0-.02,0,.02m-.011.047h0" transform="translate(-300.806 -99.184)" fill="#fee4ce"/>
          <path id="Path_5385" data-name="Path 5385" d="M353.676,120.186l-.177-1.2c0,.492-.72.891-1.609.891s-1.609-.4-1.609-.891l-.177,1.2c0,.546.8.989,1.786.989s1.786-.443,1.786-.989" transform="translate(-301.231 -94.926)" fill="#617f88"/>
          <path id="Path_5386" data-name="Path 5386" d="M350.978,115.473c0,.492.72.891,1.609.891s1.609-.4,1.609-.891-.721-.891-1.609-.891-1.609.4-1.609.891" transform="translate(-301.928 -91.411)" fill="#2a424b"/>
          <path id="Path_5387" data-name="Path 5387" d="M353.676,114.884l-.177-.24c0,.492-.72.891-1.609.891s-1.609-.4-1.609-.891l-.177.24c0,.546.8.989,1.786.989s1.786-.443,1.786-.989" transform="translate(-301.231 -91.46)" fill="#617f88"/>
          <path id="Path_5388" data-name="Path 5388" d="M350.978,111.13c0,.492.72.891,1.609.891s1.609-.4,1.609-.891-.721-.891-1.609-.891-1.609.4-1.609.891" transform="translate(-301.928 -87.946)" fill="#b0bec3"/>
          <path id="Path_5389" data-name="Path 5389" d="M348.164,138.836l.024,0a.147.147,0,0,0,.122-.169c-.111-.677-1.14-1.342-1.9-1.783l-1.385-.8a5.2,5.2,0,0,1-1.324-.962,2.426,2.426,0,0,1-.49-.845,2.805,2.805,0,0,1-.067-1l-.12.141a.609.609,0,0,0-.077.1.546.546,0,0,0-.046.134,1.4,1.4,0,0,0-.062.29,1.5,1.5,0,0,0,.148.582,2.76,2.76,0,0,0,.5.793,5.413,5.413,0,0,0,1.4,1.021l1.385.8c1.1.636,1.693,1.166,1.76,1.576a.147.147,0,0,0,.145.123" transform="translate(-294.397 -106.321)" fill="#2a424b"/>
          <path id="Path_5390" data-name="Path 5390" d="M348.434,136.956a.147.147,0,0,0,.12-.061,5.594,5.594,0,0,1,2.064-1.486c.256-.113.53-.2.8-.29a8.038,8.038,0,0,0,.91-.341,4.085,4.085,0,0,0,.815-.506,2.184,2.184,0,0,0,.414-.417.8.8,0,0,0,.128-.678.575.575,0,0,0-.255-.385c.024.2.113.579,0,.756a2.168,2.168,0,0,1-.47.493,3.8,3.8,0,0,1-.756.47,7.846,7.846,0,0,1-.877.327c-.272.089-.553.182-.822.3a5.9,5.9,0,0,0-2.184,1.582.147.147,0,0,0,.119.234" transform="translate(-300.891 -105.939)" fill="#2a424b"/>
          <path id="Path_5391" data-name="Path 5391" d="M341.005,123.25l-.926-.578v1.02l.581.362a1.864,1.864,0,0,1,.6,1.184l.655,7.019c0,.313-.179.417-.471.273l-1.013-.5v1.144l1.522.755c.367.182.593.051.593-.344l-.785-8.841a2.348,2.348,0,0,0-.754-1.491" transform="translate(-288.072 -97.865)" fill="#617f88"/>
          <path id="Path_5392" data-name="Path 5392" d="M350.413,96.83a.147.147,0,0,0,.147-.137,5.131,5.131,0,0,0-.392-2.826,8.871,8.871,0,0,0-.466-.807c-.126-.2-.257-.412-.368-.619a3.96,3.96,0,0,1-.5-1.645c0-.093,0-.183,0-.278a2.75,2.75,0,0,0-.051-.677,1.66,1.66,0,0,0-.7-1.016l-.01-.005a.6.6,0,0,0-.512-.023.6.6,0,0,0-.321.386,2.194,2.194,0,0,0-.053.638c0,.1,0,.188,0,.276a1.442,1.442,0,0,1-.462,1.071,2.427,2.427,0,0,1-.352.228,2.128,2.128,0,0,0-.491.347,3.283,3.283,0,0,0-.419,2.475.146.146,0,0,0,.157.137.147.147,0,0,0,.137-.157c-.065-.975-.085-1.817.336-2.25a1.88,1.88,0,0,1,.426-.3,2.7,2.7,0,0,0,.394-.258,1.731,1.731,0,0,0,.568-1.285c0-.1,0-.2,0-.293a1.959,1.959,0,0,1,.041-.55.313.313,0,0,1,.159-.2.316.316,0,0,1,.262.019,1.367,1.367,0,0,1,.553.821,2.481,2.481,0,0,1,.043.608c0,.1,0,.193,0,.294a4.257,4.257,0,0,0,.533,1.772c.116.215.249.429.378.635a8.681,8.681,0,0,1,.451.78,4.881,4.881,0,0,1,.363,2.676.147.147,0,0,0,.136.157h.011" transform="translate(-297.205 -70.804)" fill="#2a424b"/>
          <path id="Path_5393" data-name="Path 5393" d="M356.278,108.049a.374.374,0,0,0,.223-.058,1.417,1.417,0,0,0,.349-.6.4.4,0,0,0,.009-.217.5.5,0,0,0-.11-.195,1.433,1.433,0,0,0-.779-.482.394.394,0,0,0-.471.155.513.513,0,0,0,.023.4l.271.758a.367.367,0,0,0,.264.211.818.818,0,0,0,.221.031m.069-.269a.41.41,0,0,1-.308-.062l-.271-.757c-.016-.045-.054-.152-.035-.191.012-.024.085-.037.182-.016a1.167,1.167,0,0,1,.633.394.282.282,0,0,1,.058.092.154.154,0,0,1-.007.079,1.221,1.221,0,0,1-.252.46" transform="translate(-305.509 -84.948)" fill="#2a424b"/>
          <path id="Path_5394" data-name="Path 5394" d="M399.386,75.393c0,.977,1.43,1.769,3.195,1.769s3.195-.792,3.195-1.769-1.43-1.769-3.195-1.769-3.195.792-3.195,1.769" transform="translate(-363.297 -58.735)" fill="#08232e"/>
          <path id="Path_5395" data-name="Path 5395" d="M394.222,106.778c0,1.3,1.9,2.347,4.239,2.347s4.239-1.051,4.239-2.347-1.9-2.347-4.239-2.347-4.239,1.051-4.239,2.347" transform="translate(-359.177 -83.313)" fill="#e3dad2"/>
          <path id="Path_5396" data-name="Path 5396" d="M432.77,84.585l.925.534v.869l-.58-.335a.4.4,0,0,0-.6.345l-.333,2.792a.736.736,0,0,0,.47.647l1.012.465v.975l-1.52-.7a.928.928,0,0,1-.592-.815l.463-4.345a.5.5,0,0,1,.753-.435" transform="translate(-397.722 -67.425)" fill="#2a424b"/>
          <path id="Path_5397" data-name="Path 5397" d="M402.7,89.178l-1.044-6.808c0,.977-1.43,1.769-3.195,1.769s-3.195-.792-3.195-1.769l-1.044,6.808c0,1.3,1.9,2.347,4.239,2.347s4.239-1.051,4.239-2.347" transform="translate(-359.178 -65.713)" fill="#2a424b"/>
          <path id="Path_5398" data-name="Path 5398" d="M385.6,83.113c0,.144.211.261.471.261s.472-.117.472-.261-.211-.261-.472-.261-.471.117-.471.261" transform="translate(-341.276 -66.097)" fill="#2a424b"/>
          <path id="Path_5399" data-name="Path 5399" d="M385.6,84.232l.03-.09a.163.163,0,0,1-.03.09" transform="translate(-340.364 -67.126)" fill="#3d8e82"/>
          <path id="Path_5400" data-name="Path 5400" d="M386.179,87.734l2.04-3.591c0,.144.211.261.472.261a.541.541,0,0,0,.441-.171l-1.9,5.616-.01-.019a.676.676,0,0,1-.579.478c-.44,0-.836-.6-.886-1.333a1.406,1.406,0,0,1,.423-1.241" transform="translate(-343.895 -67.127)" fill="#475c64"/>
          <path id="Path_5401" data-name="Path 5401" d="M399.621,81.2a1,1,0,0,1-.008.118c0-.049.005-.1.006-.149,0,.011,0,.021,0,.032" transform="translate(-357.188 -64.754)" fill="#8cbcb5"/>
          <path id="Path_5402" data-name="Path 5402" d="M430.717,81.168c0,.05,0,.1.006.15a1,1,0,0,1-.008-.118c0-.011,0-.021,0-.032" transform="translate(-394.581 -64.754)" fill="#8cbcb5"/>
          <path id="Path_5403" data-name="Path 5403" d="M399.614,69.043c0,.05,0,.1.006.15.11.908,1.474,1.625,3.141,1.625s3.031-.718,3.141-1.625c0-.05.005-.1.006-.15,0-.018,0-.036,0-.055a3.152,3.152,0,0,0-6.3,0c0,.018,0,.037,0,.055" transform="translate(-363.478 -52.628)" fill="#2a424b"/>
          <path id="Path_5404" data-name="Path 5404" d="M410.967,63.419c0,.261.382.472.853.472s.853-.212.853-.472-.382-.472-.853-.472-.853.211-.853.472" transform="translate(-372.536 -50.218)" fill="#2a424b"/>
          <path id="Path_5405" data-name="Path 5405" d="M412.673,65.752v-.471c0,.261-.382.472-.853.472s-.853-.211-.853-.472v.471c0,.261.382.472.853.472s.853-.212.853-.472" transform="translate(-372.536 -52.08)" fill="#475c64"/>
        </g>
      </g>
    </g>
    <g id="Group_1761" data-name="Group 1761" transform="translate(1059.943 360.862)">
      <g id="Group_1323-2" data-name="Group 1323" transform="translate(0)">
        <g id="Group_1338-2" data-name="Group 1338">
          <path id="Path_5339-2" data-name="Path 5339" d="M25.7,186.815a.755.755,0,0,0,.152-1.495l-16.189-3.35a.755.755,0,0,0-.306,1.479l16.189,3.35a.769.769,0,0,0,.154.016" transform="translate(95.018 -145.16)" fill="#6c3c14"/>
          <path id="Path_5414-2" data-name="Path 5414" d="M25.7,186.815a.755.755,0,0,0,.152-1.495l-16.189-3.35a.755.755,0,0,0-.306,1.479l16.189,3.35a.769.769,0,0,0,.154.016" transform="translate(62.439 -166.56)" fill="#6c3c14"/>
          <path id="Path_5340-2" data-name="Path 5340" d="M22.393,167.312a.755.755,0,0,0,.66-.387L34.59,146.27a.755.755,0,1,0-1.318-.737L21.734,166.188a.756.756,0,0,0,.659,1.124" transform="translate(84.183 -115.794)" fill="#6c3c14"/>
          <path id="Path_5415-2" data-name="Path 5415" d="M22.393,167.312a.755.755,0,0,0,.66-.387L34.59,146.27a.755.755,0,1,0-1.318-.737L21.734,166.188a.756.756,0,0,0,.659,1.124" transform="translate(51.604 -137.194)" fill="#6c3c14"/>
          <path id="Path_5341-2" data-name="Path 5341" d="M93.421,146.918a.755.755,0,0,0,.152-1.495l-16.189-3.35a.755.755,0,0,0-.306,1.479l16.189,3.35a.768.768,0,0,0,.154.016" transform="translate(13.604 -113.331)" fill="#6c3c14"/>
          <path id="Path_5418-2" data-name="Path 5418" d="M93.421,146.918a.755.755,0,0,0,.152-1.495l-16.189-3.35a.755.755,0,0,0-.306,1.479l16.189,3.35a.768.768,0,0,0,.154.016" transform="translate(-18.975 -134.731)" fill="#6c3c14"/>
          <path id="Path_5342-2" data-name="Path 5342" d="M90.113,127.415a.755.755,0,0,0,.66-.387l11.537-20.655a.755.755,0,0,0-1.319-.737L89.455,126.291a.756.756,0,0,0,.659,1.124" transform="translate(2.767 -83.965)" fill="#6c3c14"/>
          <path id="Path_5419-2" data-name="Path 5419" d="M90.113,127.415a.755.755,0,0,0,.66-.387l11.537-20.655a.755.755,0,0,0-1.319-.737L89.455,126.291a.756.756,0,0,0,.659,1.124" transform="translate(-29.811 -105.365)" fill="#6c3c14"/>
          <path id="Path_5343-2" data-name="Path 5343" d="M44.231,101.53s-6.086,6.033-9.022,7.728c-1.955,1.129-8.666,3.671-8.666,3.671l-15.93-9.2s8.006-3.29,10.393-4.668c2.5-1.446,7.3-6.731,7.3-6.731Z" transform="translate(76.867 -73.661)" fill="#fff"/>
          <path id="Path_5416-2" data-name="Path 5416" d="M44.231,101.53s-6.086,6.033-9.022,7.728c-1.955,1.129-8.666,3.671-8.666,3.671l-15.93-9.2s8.006-3.29,10.393-4.668c2.5-1.446,7.3-6.731,7.3-6.731Z" transform="translate(44.288 -95.061)" fill="#fff"/>
          <path id="Path_5344-2" data-name="Path 5344" d="M10.192,28.37c2.82,2.088,12.378,7.291,12.378,7.291L24.242,26.1s-9.576-5.224-12.41-7.311Z" transform="translate(96.941 -14.991)" fill="#d1c8bf"/>
          <path id="Path_5420-2" data-name="Path 5420" d="M10.192,28.37c2.82,2.088,12.378,7.291,12.378,7.291L24.242,26.1s-9.576-5.224-12.41-7.311Z" transform="translate(64.362 -36.391)" fill="#d1c8bf"/>
          <path id="Path_5345-2" data-name="Path 5345" d="M67.121.39c-.039.216-.484.391-1,.391S65.232.606,65.27.39s.484-.391,1-.391.894.175.855.391" transform="translate(42.922 0.001)" fill="#a2846a"/>
          <path id="Path_5424-2" data-name="Path 5424" d="M67.121.39c-.039.216-.484.391-1,.391S65.232.606,65.27.39s.484-.391,1-.391.894.175.855.391" transform="translate(10.343 -21.399)" fill="#a2846a"/>
          <path id="Path_5346-2" data-name="Path 5346" d="M65.283,22.4,68.861,1.932c-.039.216.344.391.855.391s.957-.175,1-.391L67.133,22.4c-.039.216-.484.391-1,.391s-.894-.175-.855-.391" transform="translate(39.331 -1.541)" fill="#6c3c14"/>
          <path id="Path_5421-2" data-name="Path 5421" d="M65.283,22.4,68.861,1.932c-.039.216.344.391.855.391s.957-.175,1-.391L67.133,22.4c-.039.216-.484.391-1,.391s-.894-.175-.855-.391" transform="translate(6.752 -22.941)" fill="#6c3c14"/>
          <path id="Path_5347-2" data-name="Path 5347" d="M1.853,36.087c-.039.216-.484.391-1,.391S-.036,36.3,0,36.087.487,35.7,1,35.7s.894.175.855.391" transform="translate(121.389 -28.477)" fill="#a2846a"/>
          <path id="Path_5423-2" data-name="Path 5423" d="M1.853,36.087c-.039.216-.484.391-1,.391S-.036,36.3,0,36.087.487,35.7,1,35.7s.894.175.855.391" transform="translate(88.81 -49.878)" fill="#a2846a"/>
          <path id="Path_5348-2" data-name="Path 5348" d="M.016,58.095,3.594,37.629c-.039.216.344.391.855.391s.957-.175,1-.391L1.866,58.095c-.039.216-.484.391-1,.391s-.894-.175-.855-.391" transform="translate(117.797 -30.02)" fill="#6c3c14"/>
          <path id="Path_5417-2" data-name="Path 5417" d="M.016,58.095,3.594,37.629c-.039.216.344.391.855.391s.957-.175,1-.391L1.866,58.095c-.039.216-.484.391-1,.391s-.894-.175-.855-.391" transform="translate(85.218 -51.42)" fill="#6c3c14"/>
          <path id="Path_5349-2" data-name="Path 5349" d="M20.212,26.9a2.033,2.033,0,0,1-1.157.138,2.354,2.354,0,0,1-.677-.473S8.8,21.344,5.968,19.257c-.2-.148-.722-.662-.722-.662L3.609,28.171s.518.517.719.665c2.82,2.088,12.378,7.291,12.378,7.291a2.238,2.238,0,0,0,.772.531A1.35,1.35,0,0,0,18.53,36.5Z" transform="translate(102.303 -14.835)" fill="#e9e5e0"/>
          <path id="Path_5422-2" data-name="Path 5422" d="M20.212,26.9a2.033,2.033,0,0,1-1.157.138,2.354,2.354,0,0,1-.677-.473S8.8,21.344,5.968,19.257c-.2-.148-.722-.662-.722-.662L3.609,28.171s.518.517.719.665c2.82,2.088,12.378,7.291,12.378,7.291a2.238,2.238,0,0,0,.772.531A1.35,1.35,0,0,0,18.53,36.5Z" transform="translate(69.724 -36.235)" fill="#e9e5e0"/>
          <path id="Path_5350-2" data-name="Path 5350" d="M217.955,190.34,263.089,216.4l-22.667,13.083-45.134-26.058Z" transform="translate(-179.336 -151.849)" fill="#cfcec7"/>
          <path id="Path_5351-2" data-name="Path 5351" d="M302.539,150.878l2.012-1.161L339.256,192.3l-2.011,1.161Z" transform="translate(-277.193 -119.441)" fill="#6c3c14"/>
          <path id="Path_5352-2" data-name="Path 5352" d="M347.438,246.679l2.012-1.161L313,245.561l-2.012,1.161Z" transform="translate(-289.094 -195.868)" fill="#6c3c14"/>
          <path id="Path_5353-2" data-name="Path 5353" d="M225.9,106.613l2.012-1.161,34.706,42.586L260.6,149.2Z" transform="translate(-185.052 -84.127)" fill="#6c3c14"/>
          <path id="Path_5354-2" data-name="Path 5354" d="M270.8,202.414l2.012-1.161-36.451.043-2.012,1.161Z" transform="translate(-196.953 -160.555)" fill="#6c3c14"/>
          <path id="Path_5355-2" data-name="Path 5355" d="M195.783,223.392l22.567-13.029v-2.371l-22.567,13.029Z" transform="translate(-134.698 -165.931)" fill="#e1d7d0"/>
          <path id="Path_5356-2" data-name="Path 5356" d="M217.955,78.869l45.134,26.058L240.421,118.01,195.287,91.952Z" transform="translate(-179.336 -62.92)" fill="#a2846a"/>
          <path id="Path_5357-2" data-name="Path 5357" d="M307.378,143.564l45.134,26.058v2.371l-45.134-26.058Z" transform="translate(-291.427 -114.532)" fill="#7b502c"/>
          <path id="Path_5358-2" data-name="Path 5358" d="M249.216,164.692c1.569,0,2.842.707,2.842,1.58l-.526,5.455c0,.576-1.051,1.043-2.347,1.043s-2.347-.467-2.347-1.043l-.463-5.455c0-.872,1.272-1.58,2.842-1.58" transform="translate(-178.636 -131.387)" fill="#2a424b"/>
          <path id="Path_5359-2" data-name="Path 5359" d="M241.281,177.581l.816.371a1.011,1.011,0,0,1,.5,1.339l-1.643,2.422.424-.765.7-1.141a1.011,1.011,0,0,0-.5-1.339l-.575-.262Z" transform="translate(-168.171 -141.67)" fill="#2a424b"/>
          <path id="Path_5360-2" data-name="Path 5360" d="M246.4,166.262c0,.867,1.27,1.57,2.836,1.57s2.836-.7,2.836-1.57-1.27-1.57-2.836-1.57-2.836.7-2.836,1.57" transform="translate(-178.658 -131.387)" fill="#bfd4d5"/>
        </g>
      </g>
      <g id="Group_1325-2" data-name="Group 1325" transform="translate(67.744 33.305)">
        <g id="Group_1324-2" data-name="Group 1324" clip-path="url(#clip-path)">
          <path id="Path_5361-2" data-name="Path 5361" d="M246.4,173.266c0,.867,1.27,1.57,2.836,1.57s2.836-.7,2.836-1.57-1.27-1.57-2.836-1.57-2.836.7-2.836,1.57" transform="translate(-246.401 -170.28)" fill="#5c2c00"/>
        </g>
      </g>
      <g id="Group_1327-2" data-name="Group 1327" transform="translate(0)">
        <g id="Group_1326-2" data-name="Group 1326" clip-path="url(#clip-path-2)">
          <path id="Path_5363-2" data-name="Path 5363" d="M254.939,156.005c.242.353.4.963-.442,1.654a1.391,1.391,0,0,0-.527,1.532,1.858,1.858,0,0,1,.071-1.74,2.355,2.355,0,0,0,.258-2,2.631,2.631,0,0,1,.64.55" transform="translate(-183.21 -124.018)" fill="#fff"/>
          <path id="Path_5364-2" data-name="Path 5364" d="M261.182,147.89c-.184.289-.3.782.4,1.312a1.115,1.115,0,0,1,.465,1.212,1.489,1.489,0,0,0-.1-1.391,1.886,1.886,0,0,1-.263-1.591,2.106,2.106,0,0,0-.5.458" transform="translate(-191.72 -117.618)" fill="#fff"/>
          <path id="Path_5365-2" data-name="Path 5365" d="M459.014,118c-1.569,0-2.842.707-2.842,1.58l.526,5.455c0,.576,1.051,1.043,2.347,1.043s2.347-.467,2.347-1.043l.463-5.455c0-.872-1.272-1.58-2.842-1.58" transform="translate(-430.86 -94.135)" fill="#2a424b"/>
          <path id="Path_5366-2" data-name="Path 5366" d="M482.527,130.886l-.816.371a1.011,1.011,0,0,0-.5,1.339l1.643,2.422-.424-.765-.7-1.141a1.011,1.011,0,0,1,.5-1.339l.575-.262Z" transform="translate(-456.903 -104.418)" fill="#2a424b"/>
          <path id="Path_5367-2" data-name="Path 5367" d="M461.871,119.566c0,.867-1.27,1.57-2.836,1.57s-2.836-.7-2.836-1.57,1.27-1.57,2.836-1.57,2.836.7,2.836,1.57" transform="translate(-430.881 -94.134)" fill="#bfd4d5"/>
        </g>
      </g>
      <g id="Group_1329-2" data-name="Group 1329" transform="translate(25.317 23.862)">
        <g id="Group_1328-2" data-name="Group 1328" clip-path="url(#clip-path-3)">
          <path id="Path_5368-2" data-name="Path 5368" d="M461.871,126.57c0,.867-1.27,1.57-2.836,1.57s-2.836-.7-2.836-1.57,1.27-1.57,2.836-1.57,2.836.7,2.836,1.57" transform="translate(-456.198 -123.584)" fill="#5c2c00"/>
        </g>
      </g>
      <g id="Group_1331-2" data-name="Group 1331" transform="translate(0)">
        <g id="Group_1762" data-name="Group 1762">
          <path id="Path_5370-2" data-name="Path 5370" d="M470.379,109.31c-.242.353-.4.963.442,1.654a1.391,1.391,0,0,1,.527,1.532,1.858,1.858,0,0,0-.071-1.74,2.355,2.355,0,0,1-.259-2,2.632,2.632,0,0,0-.64.55" transform="translate(-443.375 -86.766)" fill="#fff"/>
          <path id="Path_5371-2" data-name="Path 5371" d="M465,101.194c.184.289.3.782-.4,1.312a1.115,1.115,0,0,0-.465,1.212,1.489,1.489,0,0,1,.1-1.391,1.886,1.886,0,0,0,.262-1.591,2.11,2.11,0,0,1,.5.458" transform="translate(-435.73 -80.365)" fill="#fff"/>
        </g>
      </g>
    </g>
  </g>
</svg>
