<svg xmlns="http://www.w3.org/2000/svg" xmlns:xlink="http://www.w3.org/1999/xlink" width="221.41" height="183.844" viewBox="0 0 221.41 183.844">
  <defs>
    <clipPath id="clip-path">
      <rect id="Rectangle_228" data-name="Rectangle 228" width="160.058" height="150.281" fill="none"/>
    </clipPath>
    <clipPath id="clip-path-3">
      <rect id="Rectangle_222" data-name="Rectangle 222" width="3.562" height="4.27" fill="none"/>
    </clipPath>
    <clipPath id="clip-path-4">
      <rect id="Rectangle_223" data-name="Rectangle 223" width="3.144" height="1.094" fill="none"/>
    </clipPath>
    <clipPath id="clip-path-5">
      <rect id="Rectangle_224" data-name="Rectangle 224" width="15.586" height="9.166" fill="none"/>
    </clipPath>
    <clipPath id="clip-path-6">
      <rect id="Rectangle_225" data-name="Rectangle 225" width="4.004" height="0.839" fill="none"/>
    </clipPath>
    <clipPath id="clip-path-7">
      <rect id="Rectangle_226" data-name="Rectangle 226" width="3.388" height="1.956" fill="none"/>
    </clipPath>
    <clipPath id="clip-path-8">
      <rect id="Rectangle_221" data-name="Rectangle 221" width="21.44" height="39.623" fill="none"/>
    </clipPath>
    <clipPath id="clip-path-9">
      <rect id="Rectangle_230" data-name="Rectangle 230" width="31.344" height="72.755" transform="translate(-2)" fill="none"/>
    </clipPath>
  </defs>
  <g id="Group_2599" data-name="Group 2599" transform="translate(-1179.539 -354.5)">
    <g id="Group_1569" data-name="Group 1569" transform="translate(153.263 92.785)">
      <g id="Group_673" data-name="Group 673" transform="translate(1087.629 261.715)">
        <g id="Group_690" data-name="Group 690" transform="translate(0)" clip-path="url(#clip-path)">
          <g id="Group_689" data-name="Group 689">
            <g id="Group_688" data-name="Group 688" clip-path="url(#clip-path)">
              <path id="Path_3408" data-name="Path 3408" d="M695.33,271.547l2.493,1.408.827.467.165.092v.07l-.406-.225.074,5.817-.018-.017c.016,1.257-.69,1.935-1.727,1.852a3.682,3.682,0,0,1-.9-.368c-.036-.02-.072-.042-.108-.064a6.412,6.412,0,0,1-3.013-4.8l-.034-.017-.073-5.751Z" transform="translate(-686.407 -212.451)" fill="#fff"/>
              <path id="Path_3409" data-name="Path 3409" d="M721.474,253.426l-.027.027,6.085,3.437.046.026.073,5.751-.022-.017c.022,1.735-1.333,2.369-3.032,1.417a6.409,6.409,0,0,1-3.118-4.865l-.031-.016-.074-5.817Z" transform="translate(-721.374 -199.357)" fill="#755126"/>
              <path id="Path_3410" data-name="Path 3410" d="M578.58,402.03c0-.013,0-.026.008-.039s.01-.049.015-.073l.011-.044c.005-.022.011-.043.017-.064l.014-.045q.009-.03.02-.059c.005-.014.01-.028.016-.042l.023-.058.017-.039.028-.059.016-.032c.015-.027.03-.054.045-.08l0-.007c.017-.028.034-.055.053-.08l.018-.025c.013-.017.026-.035.039-.051l.023-.027.039-.044.025-.026.041-.04.025-.023.046-.039.025-.02c.017-.014.036-.027.054-.039l.019-.013a1.271,1.271,0,0,1,.16-.091l.018-.008.066-.029.026-.01.061-.021.029-.009.062-.017.03-.007.065-.013.029-.005.074-.01.022,0a1.623,1.623,0,0,1,.2-.007h.027l.074,0,.039,0,.064.007.045.007.06.01.048.009.057.013.053.013.051.014.059.017.033.011.072.024a2.931,2.931,0,0,1,.314.136c.055.028.11.056.165.089l8.826,5.1a6.02,6.02,0,0,1,2.646,4.12l.935,8.648-.642-.371q.01-.206.01-.419a16.2,16.2,0,0,0-7.35-12.73c-2.1-1.213-4-1.3-5.345-.454-.031.019-.061.039-.091.059l-.03.02c-1.195.818-1.926,2.4-1.932,4.591,0,.142,0,.285.008.43l-.678-.391.981-7.542c.005-.04.011-.079.018-.117" transform="translate(-556.7 -315.304)" fill="#686860"/>
              <path id="Path_3411" data-name="Path 3411" d="M582.476,418.693l.03-.02c.03-.02.06-.04.091-.059,1.347-.843,3.245-.758,5.345.454a16.2,16.2,0,0,1,7.35,12.731q0,.214-.01.419c-.205,4.371-3.439,6.077-7.388,3.8a16.3,16.3,0,0,1-7.342-12.3c-.005-.144-.008-.287-.008-.43.006-2.194.737-3.773,1.932-4.591m.349,6.193c0,.031,0,.062,0,.092q0,.1.012.2c0,.037.006.074.01.111.006.061.012.123.019.184,0,.039.01.078.014.117s.007.06.011.09.011.071.016.107.008.055.013.083q.022.14.049.281a.087.087,0,0,1,0,.009c.018.093.039.187.06.28.007.03.014.059.021.088q.025.1.052.209l.023.087c.026.094.053.189.081.284v0c.029.1.059.19.091.285l.029.085c.012.035.023.07.036.106l.029.08c.019.052.038.1.058.157l.03.08c.01.026.021.052.032.079.022.054.043.107.065.161s.042.1.063.15.047.109.071.163c.011.025.021.051.033.076l.043.092.05.107.014.03.077.158.014.027c.029.058.059.115.089.172l.042.083.018.032q.067.126.138.25c.014.024.027.049.041.073.057.1.117.2.177.3l.01.017q.2.323.414.632l.007.01q.075.106.151.21l.019.027.006.007.121.16.035.044c.032.042.065.084.1.125l.053.068.051.062.113.136.052.062.058.066.1.108.111.122.107.116.023.025q.079.083.16.164l.054.052q.08.08.162.157l.061.057c.071.066.142.131.214.194l.123.105.108.09.021.017c.074.06.149.119.224.175l.035.027q.111.083.224.162l.037.025c.076.053.153.1.23.153l.028.018c.081.051.162.1.244.148s.176.1.263.144l.13.065a5.527,5.527,0,0,0,.511.22l.125.045.024.008.114.037.055.016.085.024.059.016.083.02.055.013.107.022.051.009.106.018.053.007.081.01.055.006.081.007.05,0,.114.005s.008-.024.012-.024c.037,0,.074-.023.111-.023h.007c.046,0,.091.022.136.019.011,0,.022.011.034.01.045,0,.089,0,.132-.006,0,0,0,0,.006,0s0-.012,0-.012.012-.014.018-.014h0v.013c.059-.007.117-.01.175-.021,0,0,0,0,0,0s0,.006,0,.006a.165.165,0,0,1,.032,0h0s0-.005,0-.006c.05-.01.1-.025.148-.038l0,0h0l.053-.015c.043-.013.087-.081.129-.1l0-.055h0a.6.6,0,0,0,.274-.062s0,.026,0,.025a2.291,2.291,0,0,0,.256-.135v.009c.036-.024.071-.047.106-.072l0,0,.08-.061,0,0c.044-.035.085-.073.126-.112l.023-.02.042-.042.031-.03v0c.043-.044.084-.091.123-.138l.029-.035c.037-.045.073-.092.108-.141l.005-.007c.024-.033.047-.068.069-.1l.02-.032q.024-.037.047-.076l.022-.037c.015-.026.038-.053.052-.079.006-.011.026-.022.026-.033v-.093h-.008c.02,0,.035-.03.054-.07s.04-.07.06-.118c.005-.012.009-.012.014-.024.019-.048.037-.089.055-.138,0,0,.018,0,.019,0s.02,0,.02,0h0a.287.287,0,0,1,.02-.1s-.02,0-.02,0v-.039s-.006-.156-.005-.156h-.208v.176c0-.052.14-.1.155-.159,0-.012.064-.025.067-.038.015-.054.054-.109.067-.165s.037-.112.048-.17c0,0,.008-.009.009-.013s.006-.055.008-.062a1.985,1.985,0,0,1,.032-.208h0a.6.6,0,0,0,.023-.149c0-.016,0-.016.005-.032.006-.059.012-.111.016-.172,0-.005,0-.006,0-.011,0-.06.007-.119.01-.181,0-.018-.01-.035-.009-.054,0-.065-.007-.129-.007-.2h0c0-.1.01-.193.006-.29,0-.027,0-.055,0-.083,0-.07,0-.139-.01-.21,0-.034,0-.068-.008-.1-.006-.064-.011-.129-.019-.193,0-.037-.009-.074-.013-.111s-.007-.062-.012-.094c-.007-.051-.015-.1-.023-.154l0-.011c-.015-.092-.032-.186-.05-.279-.005-.027-.01-.053-.016-.08q-.022-.109-.047-.22c-.006-.026-.011-.052-.018-.078-.023-.1-.046-.193-.072-.289-.014-.053-.029-.106-.044-.16-.008-.027-.017-.055-.025-.083-.015-.051-.03-.1-.046-.153-.009-.028-.016-.055-.025-.082s-.024-.072-.036-.108l-.027-.083-.008-.023q-.045-.131-.093-.263t-.111-.287c-.01-.026-.021-.052-.032-.078s-.029-.072-.044-.108-.031-.071-.046-.107l-.034-.078q-.062-.142-.129-.283t-.125-.258c0-.008-.009-.016-.012-.024l-.036-.071c-.018-.036-.037-.073-.056-.109l-.081-.152-.014-.025q-.083-.153-.171-.3l-.051-.086c-.048-.081-.1-.162-.146-.242l-.019-.032c-.042-.068-.085-.135-.128-.2q-.094-.144-.192-.285c-.065-.094-.132-.187-.2-.279l-.1-.137-.067-.086-.063-.081-.021-.027q-.082-.1-.166-.205c-.04-.048-.081-.094-.121-.141s-.065-.077-.1-.115l-.008-.009c-.053-.061-.108-.12-.162-.18l-.024-.025-.074-.078-.067-.071-.007-.007-.058-.058-.116-.116-.118-.114c-.04-.038-.08-.076-.12-.113l-.059-.056-.08-.071-.067-.059q-.107-.093-.216-.182l-.005,0,0,0c-.072-.059-.145-.115-.218-.171l-.051-.039q-.11-.082-.221-.16l-.039-.026-.1-.07-.085-.054-.073-.046c-.075-.047-.15-.093-.226-.137l-.009-.005c-.084-.049-.167-.094-.25-.137s-.182-.092-.272-.134-.157-.07-.235-.1-.127-.05-.191-.073l-.027-.01-.054-.02-.124-.04q-.123-.039-.245-.069-.082-.02-.162-.036l-.037-.008c-.054-.01-.107-.02-.159-.029l-.133-.018-.04,0-.094-.009-.043,0-.1-.005h-.035l-.129,0c-.042,0-.083,0-.124,0l-.04,0-.083.006-.046,0-.078.01-.043.006-.1.017-.016,0h0c-.066.013-.13.029-.194.046h0q-.1.027-.189.062h0c-.062.023-.124.049-.184.077h-.058a2.746,2.746,0,0,1-.4.2h0c0,.032-.036.066-.08.1-.013.01,0,.021-.009.032-.033.027-.05.054-.082.083-.013.012-.018.023-.03.035-.032.03-.06.062-.091.094l-.027.03-.025.027c-.031.034-.06.07-.089.106l-.023.029c-.029.036-.057.074-.084.112s-.054.079-.08.12l-.019.031q-.036.057-.069.116l-.006.01,0,.006q-.056.1-.106.209l-.015.036c-.024.054-.049.107-.071.164l-.011.031c-.01.027-.021.053-.031.08l0,.008c-.017.048-.034.1-.049.145,0,.013-.01.027-.014.041-.032.1-.063.214-.089.326,0,.014.038.028.035.041a.836.836,0,0,0,0,.172h0c0,.044-.052.088-.058.133,0,0-.02.007-.02.01-.008.055-.024.111-.03.168,0,.018-.009.035-.01.053-.006.058-.014.116-.018.175,0,.007,0,.013,0,.019,0,.059-.008.12-.01.181,0,.018,0,.036,0,.053,0,.065,0,.131,0,.2q0,.143.005.288" transform="translate(-558.993 -328.936)" fill="#444"/>
              <path id="Path_3412" data-name="Path 3412" d="M591.211,435.394c0-.067,0-.132,0-.2,0-.018,0-.036,0-.054,0-.061.006-.122.01-.181,0-.007,0-.013,0-.019,0-.059.01-.117.016-.175,0-.018,0-.036.006-.053.006-.057.013-.113.021-.168,0,0,.038-.007.038-.01.007-.045.058-.089.058-.133h0a.819.819,0,0,1,0-.172c0-.014-.013-.027-.01-.041.025-.112.044-.221.076-.326,0-.014,0-.027.008-.04.016-.049.029-.1.046-.145,0,0,0-.005,0-.008.01-.027.02-.054.03-.08l.011-.031c.022-.056.046-.11.071-.164.005-.012.01-.024.015-.036.034-.072.069-.142.106-.209l0-.006.006-.01q.033-.059.069-.116l.019-.031c.026-.041.052-.081.08-.12s.056-.076.084-.112l.023-.029c.029-.036.059-.072.089-.106l.026-.027.029-.03c.031-.032.062-.064.094-.094l.037-.035c.032-.029.063-.056.1-.083.013-.011-.031-.021-.019-.031.045-.035.08-.069.08-.1h0c.213-.038.168-.073.226-.106s.145-.063.205-.092h.016c.06-.028.128-.053.191-.077h.006c.062-.023.127-.043.191-.062h.006c.064-.018.129-.033.195-.047h0l.016,0,.1-.017.043-.006.078-.01.046,0,.083-.006.04,0c.041,0,.083,0,.125,0l.129,0h.035l.1.005.043,0,.094.009.04,0c.044.005.088.011.133.018s.106.018.159.029l.037.008c.054.011.107.023.162.036q.121.03.245.069l.124.04.054.02.027.01c.063.023.126.047.19.073s.156.065.235.1.181.086.272.134.166.089.25.137l.009.005c.076.044.151.09.226.137l.073.046.085.054.1.07.039.026q.111.078.221.16l.051.039c.073.056.146.112.218.171l0,0,.005,0q.109.089.216.182l.067.059.08.071.059.056.12.113.118.114.116.116.058.058.007.007.067.071.073.078.024.025c.055.059.109.119.162.18l.008.009c.034.038.066.077.1.115s.081.093.121.141q.084.1.166.206l.021.027.063.081c.022.029.045.057.067.086l.1.137c.068.091.134.185.2.279s.129.189.192.285q.066.1.128.2l.019.032q.074.12.146.242l.051.086q.087.151.171.3l.014.025.081.152c.019.036.037.072.055.109l.037.071.012.024q.064.128.125.258t.128.283l.034.078c.015.036.031.071.046.107s.03.072.044.108l.032.078q.057.144.111.287c.032.087.063.175.093.263l.008.023.027.083c.012.036.025.072.036.108s.016.055.025.082c.016.051.031.1.046.153.008.028.017.056.025.083.015.053.03.106.044.159.026.1.05.193.072.289.006.026.012.052.018.078q.025.11.047.22l.016.08c.018.093.035.187.049.279,0,0,0,0,0,.007v0c.008.051.016.1.023.154,0,.031.008.062.011.094s.01.074.014.111c.007.065.014.129.019.193,0,.034.007.068.009.1.006.07.009.14.013.21,0,.027,0,.055,0,.083,0,.1.006.194.006.29q0,.1,0,.2c0,.019,0,.037,0,.055q0,.092-.01.183s0,.01,0,.015c0,.061-.01.12-.016.18,0,.016,0,.032-.005.048-.007.061-.014.122-.023.181s-.019.118-.029.176c0,.01,0,.02-.006.03l0,.013c-.011.057-.022.114-.035.17s-.027.111-.042.165c0,.013-.114.026-.118.038-.015.054-.155.107-.155.159v-.176h.208s.005.153.005.156v.02a.363.363,0,0,1-.035.106l0,.009v0c-.018.049-.036.1-.056.145l-.015.036c-.02.048-.041.049-.062.095s-.03.07-.05.07h.008v.093c0,.011-.02.022-.026.033-.014.027-.033.053-.048.079s-.016.025-.023.037-.032.051-.048.076l-.02.032c-.022.035-.046.069-.069.1l-.006.007c-.035.049-.071.1-.108.141l-.028.035c-.039.046-.079.091-.12.134l0,0h0l-.031.03-.042.042-.023.02c-.041.039-.083.077-.126.112l0,0-.08.062,0,0c-.035.026-.07.051-.106.074h0a2.416,2.416,0,0,1-.256.148s0-.053,0-.052a.6.6,0,0,1-.274.062h0l0,.055c-.042.015-.085.056-.129.069-.017.005-.035.024-.053.029l0,.008s0,0,0,0c-.048.013-.1.026-.148.037h-.005l-.032.007h-.005c-.058.011-.116.007-.175.014l0-.013h0c-.006,0-.012.015-.018.015s0,.007,0,.007l-.006,0c-.043.005-.087.01-.132.013-.011,0-.022-.022-.034-.021-.045,0-.09-.018-.135-.018h-.007c-.037,0-.074.025-.111.024,0,0-.008.012-.012.012-.038,0-.076,0-.114,0-.016,0-.033,0-.049,0l-.081-.006-.055-.005-.081-.01-.053-.007-.106-.018-.051-.009-.107-.022-.055-.013-.083-.02-.059-.016-.085-.024-.055-.016-.114-.037-.024-.008-.125-.045a5.517,5.517,0,0,1-.51-.22l-.13-.065q-.13-.068-.262-.144c-.082-.047-.163-.1-.244-.148l-.028-.018q-.116-.074-.23-.153l-.037-.025q-.113-.079-.224-.162l-.035-.027q-.113-.085-.224-.175l-.021-.017-.109-.09-.123-.105c-.072-.063-.143-.128-.214-.194l-.061-.057q-.082-.077-.162-.157l-.054-.052q-.081-.081-.16-.164l-.023-.025-.107-.116-.111-.122-.1-.108-.058-.067-.052-.062-.113-.136-.052-.062-.053-.068-.1-.125-.035-.045-.121-.16-.005-.007-.019-.027q-.077-.1-.151-.21l-.007-.01q-.216-.309-.414-.632l-.01-.017q-.09-.149-.177-.3l-.041-.073q-.07-.124-.138-.25l-.018-.032-.043-.083q-.045-.086-.089-.172l-.014-.027-.077-.158-.014-.03-.05-.107-.043-.092-.033-.076q-.036-.081-.071-.163c-.021-.05-.042-.1-.063-.15l-.065-.161c-.01-.026-.022-.052-.032-.079l-.03-.08q-.029-.078-.058-.157l-.03-.08c-.012-.035-.024-.071-.036-.106l-.029-.085c-.031-.095-.062-.19-.09-.285v0c-.028-.095-.055-.19-.081-.284-.008-.029-.015-.059-.023-.087q-.027-.1-.052-.209l-.021-.088q-.032-.14-.06-.28l0-.009q-.027-.141-.05-.281c0-.027-.009-.055-.013-.082s-.011-.071-.016-.107-.007-.061-.011-.091-.01-.078-.015-.117c-.007-.061-.013-.123-.019-.184,0-.037-.007-.074-.009-.111-.005-.067-.009-.133-.012-.2,0-.031,0-.062,0-.092,0-.1-.006-.193-.006-.288m.866-1.946c-.02-.012-.033-.015-.037-.007a7.9,7.9,0,0,0,.848,1.2.571.571,0,0,0,.142.123c.066.038.123.041.148,0,.042-.07-.02-.237-.138-.375a9.594,9.594,0,0,0-.962-.943m1.764.25a9.567,9.567,0,0,0-.815-1.217c-.006,0-.011,0-.014,0a7.734,7.734,0,0,0,.587,1.341.594.594,0,0,0,.192.221.1.1,0,0,0,.092.015c.067-.033.048-.193-.042-.356m.54-1.487-.006,0a6.008,6.008,0,0,0,.256,1.321.56.56,0,0,0,.2.3.116.116,0,0,0,.047.016c.084.007.11-.126.058-.3a8.339,8.339,0,0,0-.555-1.343m1.882.609c-.091-.053-.169.946-.169,1.1a.46.46,0,0,0,.165.371c.091.052.165-.028.166-.18a5.467,5.467,0,0,0-.162-1.289m1.619,1.235,0,0c-.1-.055-.461.654-.506.769a.371.371,0,0,0,.073.367.194.194,0,0,0,.041.031c.076.045.159.011.2-.089a3.263,3.263,0,0,0,.2-1.074m1.433,1.742a.039.039,0,0,0-.012-.011c-.112-.065-.7.288-.78.353a.245.245,0,0,0-.026.319.248.248,0,0,0,.083.08.171.171,0,0,0,.2-.01c.085-.068.608-.624.538-.732m1.078,2.042a.067.067,0,0,0-.03-.029,3.176,3.176,0,0,0-.95-.092.157.157,0,0,0-.123.233.319.319,0,0,0,.136.154.257.257,0,0,0,.154.037c.114-.011.858-.186.812-.3m.38,1.934a8.122,8.122,0,0,0-.836-.4c-.13-.046-.222.007-.205.12a.408.408,0,0,0,.2.259.356.356,0,0,0,.064.03c.13.047,1.007.274.99.161-.005-.035-.093-.1-.215-.168m.257,2.079a6.5,6.5,0,0,0-1-.952.5.5,0,0,0-.054-.036c-.108-.062-.2-.053-.209.029a.473.473,0,0,0,.21.353c.082.062.466.32.746.482.169.1.3.16.306.124m-1.5.517a9.556,9.556,0,0,0,.955.974c.018.01.029.013.033.006a7.934,7.934,0,0,0-.828-1.221.575.575,0,0,0-.148-.132c-.063-.036-.116-.039-.142,0-.044.067.014.235.129.375m-.833.646a9.561,9.561,0,0,0,.8,1.235.016.016,0,0,0,.013,0,7.6,7.6,0,0,0-.559-1.345.589.589,0,0,0-.2-.229.1.1,0,0,0-.087-.015c-.069.03-.054.187.033.352m-1.115.093a8.188,8.188,0,0,0,.527,1.347l.006,0a5.8,5.8,0,0,0-.224-1.311.554.554,0,0,0-.2-.31.115.115,0,0,0-.044-.016c-.085-.01-.115.118-.067.288m-1.07.83c.091.049.14-.967.137-1.122a.472.472,0,0,0-.168-.367l0,0c-.091-.05-.162.035-.159.19a5.645,5.645,0,0,0,.194,1.3m-1.627-1.181,0,0c.094.054.436-.684.477-.8a.382.382,0,0,0-.082-.369.208.208,0,0,0-.037-.028c-.078-.045-.16-.007-.2.1a3.445,3.445,0,0,0-.168,1.1m1.42-.588c1.84,1.063,3.337.21,3.343-1.905a7.319,7.319,0,0,0-3.322-5.753c-1.84-1.062-3.337-.209-3.343,1.905a7.318,7.318,0,0,0,3.321,5.752m-2.877-1.115a.03.03,0,0,0,.011.01c.109.063.68-.323.759-.392a.257.257,0,0,0,.018-.326.245.245,0,0,0-.08-.075.165.165,0,0,0-.2.015c-.082.073-.581.661-.509.767m-1.116-2.025a.059.059,0,0,0,.027.027,2.979,2.979,0,0,0,.94.053.162.162,0,0,0,.115-.242.31.31,0,0,0-.131-.147.251.251,0,0,0-.16-.035c-.112.017-.84.227-.791.344m-.482-1.977a7.417,7.417,0,0,0,.89.4c.129.041.218-.018.2-.132a.423.423,0,0,0-.27-.282c-.13-.041-1-.233-.979-.119,0,.029.067.075.16.129m.755-1.146c.015.011.029.02.043.028.113.065.206.054.216-.033a.474.474,0,0,0-.217-.349c-.068-.049-.343-.225-.595-.371-.236-.136-.451-.245-.456-.2a6.289,6.289,0,0,0,1.008.922" transform="translate(-567.385 -339.733)" fill="#bcbcbc"/>
              <path id="Path_3413" data-name="Path 3413" d="M463.306,442.324l.053.2-.053-.03Z" transform="translate(-402.067 -348.031)" fill="#ead363"/>
              <path id="Path_3414" data-name="Path 3414" d="M430.305,312.926l.018.017.047.016a5.978,5.978,0,0,0,1.615,3.614l0,1.3a.673.673,0,0,0,.312.524l49.5,28.579a.248.248,0,0,0,.2.036.189.189,0,0,0,.113-.2l.012-4.269a.672.672,0,0,0-.312-.525l-1.258-.726-1.055-4.035,0-1.26,7.763,4.482-.038,13.216-60.047-34.5,60.046,34.668-.048,16.905-31.718-18.312-1.215-11.236a5.649,5.649,0,0,0-.9-2.365A5.455,5.455,0,0,0,451.6,337.1l-8.826-5.1c-.056-.032-.111-.061-.166-.089a2.944,2.944,0,0,0-.314-.136l-.073-.025-.033-.011-.059-.017-.051-.014-.053-.013-.057-.013-.048-.009-.06-.01-.044-.006-.064-.007-.039,0-.074,0h-.027a1.675,1.675,0,0,0-.2.007l-.022,0-.074.01-.029.005-.065.013-.03.007-.062.017-.029.009-.061.021-.026.01-.066.029-.018.008a1.29,1.29,0,0,0-.16.091l-.019.013-.054.039-.025.02-.046.039-.025.024-.041.04-.025.026-.039.044-.023.027c-.014.017-.026.034-.039.052l-.018.025c-.018.026-.036.053-.053.08l0,.007q-.023.039-.045.08l-.016.032c-.01.019-.019.039-.028.059l-.017.039c-.008.019-.016.038-.023.058l-.015.042c-.007.02-.014.04-.02.059l-.014.045c-.006.021-.012.043-.017.064s-.008.029-.011.044-.011.049-.016.074-.006.026-.008.039q-.011.058-.018.117l-.981,7.542-.294,2.257-7.1-4.1-4.373-2.525c-.326-.188-.308-.768-.249-1.361.036-.356.087-.717.088-1,0-.546-.027-8.925-.03-19.592l.108.063a3.246,3.246,0,0,0,1.3.435c1.037.083,1.743-.595,1.727-1.852" transform="translate(-418.246 -246.217)" fill="#40583a"/>
              <path id="Path_3415" data-name="Path 3415" d="M451.669,330.249l.692.2c.117.079.236.154.357.221,1.7.952,3,.318,2.982-1.417l-.013.016v.017a7.012,7.012,0,0,0,3.153,4.866c1.7.952,3.082.318,3.06-1.417l.027.017.051.016a6.427,6.427,0,0,0,3.134,4.865c1.7.952,3.049.318,3.027-1.417l.007.017.056.016a6.437,6.437,0,0,0,3.143,4.865c1.7.952,3.065.318,3.043-1.417l.042.016.019.017a6.393,6.393,0,0,0,3.105,4.865c1.7.952,3.063.318,3.041-1.417l.039.016.022.016a6.4,6.4,0,0,0,3.108,4.866c1.7.952,3.061.318,3.039-1.417l.015.007,11.881,6.86.054.031.343,1.311.93.272-.261-1,1.258.726a.673.673,0,0,1,.312.524l-.012,4.27a.189.189,0,0,1-.113.2.248.248,0,0,1-.2-.036l-49.5-28.579a.672.672,0,0,1-.312-.524l0-1.3q.169.19.35.365Z" transform="translate(-437.46 -259.066)" fill="#ad8c59"/>
              <path id="Path_3416" data-name="Path 3416" d="M319.428,614.924a5.022,5.022,0,0,1,2.279,3.947c0,1.45-1.031,2.036-2.294,1.307a5.023,5.023,0,0,1-2.278-3.947c0-1.451,1.031-2.036,2.293-1.307" transform="translate(-229.255 -483.59)" fill="#bcbcbc"/>
              <path id="Path_3417" data-name="Path 3417" d="M606.552,449.495a5.022,5.022,0,0,1,2.279,3.947c0,1.451-1.031,2.036-2.294,1.307a5.023,5.023,0,0,1-2.279-3.947c0-1.451,1.031-2.036,2.293-1.307" transform="translate(-577.588 -353.426)" fill="#bcbcbc"/>
              <path id="Path_3418" data-name="Path 3418" d="M304,600.393q.029-.2.073-.389c.019-.084.04-.165.064-.245a3.876,3.876,0,0,1,.174-.479c.033-.075.068-.148.106-.218a2.554,2.554,0,0,1,2.316-1.426,4.513,4.513,0,0,1,2.191.625l.132.074a7.857,7.857,0,0,1,1.027.712,9.823,9.823,0,0,1,1.042.986,11.235,11.235,0,0,1,3.014,7.106c-.006,2.275-1.141,3.6-2.793,3.614a4.617,4.617,0,0,1-2.324-.7,11.071,11.071,0,0,1-4.353-5.339q-.064-.158-.122-.316a10.514,10.514,0,0,1-.383-1.274,8.224,8.224,0,0,1-.224-1.875q0-.3.028-.584.013-.14.033-.275m.8-1.087a.088.088,0,0,0-.025-.011.012.012,0,0,0-.013,0c-.007.012.01.052.043.109l.031.051.038.058.028.042.03.045.016.023c.027.039.055.079.085.121l.018.025.056.076.019.026c.2.275.424.558.483.626a.664.664,0,0,0,.09.088l.018.013.034.022a.164.164,0,0,0,.106.028.06.06,0,0,0,.042-.029c.034-.056,0-.178-.078-.295l-.018-.027c-.013-.017-.027-.035-.042-.053a9.565,9.565,0,0,0-.962-.943m1.765.25a9.634,9.634,0,0,0-.815-1.217c-.006,0-.011,0-.014,0a7.792,7.792,0,0,0,.587,1.341.593.593,0,0,0,.193.221.1.1,0,0,0,.092.014c.067-.033.048-.193-.042-.356m1.095-.144a8.345,8.345,0,0,0-.554-1.343l-.006,0a5.966,5.966,0,0,0,.256,1.321.56.56,0,0,0,.2.3.114.114,0,0,0,.047.016c.084.007.11-.126.058-.3m1.327-.735c-.092-.053-.169.946-.169,1.1a.461.461,0,0,0,.165.371c.092.053.166-.028.167-.18a5.442,5.442,0,0,0-.162-1.289m1.619,1.235,0,0c-.1-.055-.461.654-.506.769a.371.371,0,0,0,.074.367.2.2,0,0,0,.04.031c.076.044.159.01.2-.089a3.261,3.261,0,0,0,.2-1.074m1.433,1.742a.035.035,0,0,0-.012-.011c-.112-.065-.7.288-.78.353a.26.26,0,0,0,.057.4.17.17,0,0,0,.2-.01c.085-.068.608-.624.538-.732m1.077,2.042a.063.063,0,0,0-.03-.029,3.173,3.173,0,0,0-.949-.092.157.157,0,0,0-.123.233.318.318,0,0,0,.136.154.257.257,0,0,0,.154.037c.114-.011.858-.186.812-.3m.38,1.934a8.091,8.091,0,0,0-.836-.4c-.13-.046-.222.007-.205.12a.41.41,0,0,0,.2.259.391.391,0,0,0,.064.03c.13.047,1.007.274.99.161-.005-.034-.093-.1-.215-.167m.257,2.079a6.518,6.518,0,0,0-1-.952.548.548,0,0,0-.054-.036c-.108-.062-.2-.053-.209.029a.474.474,0,0,0,.21.353c.081.062.466.32.746.482.169.1.3.16.306.124m-.55,1.49c.018.01.029.013.033.006a7.938,7.938,0,0,0-.828-1.221.578.578,0,0,0-.148-.132c-.063-.036-.117-.04-.142,0-.044.067.014.235.13.375a9.492,9.492,0,0,0,.954.974m-1.789-.328a9.577,9.577,0,0,0,.8,1.235.015.015,0,0,0,.013,0,7.64,7.64,0,0,0-.559-1.345.591.591,0,0,0-.2-.229.1.1,0,0,0-.088-.016c-.068.03-.054.188.033.352m-1.115.093a8.193,8.193,0,0,0,.527,1.347l.006,0a5.768,5.768,0,0,0-.224-1.311.555.555,0,0,0-.2-.31.115.115,0,0,0-.044-.016c-.086-.011-.115.118-.067.288m-1.07.83c.091.049.14-.967.137-1.122a.472.472,0,0,0-.168-.366l0,0c-.092-.05-.162.035-.159.19a5.68,5.68,0,0,0,.194,1.3m-1.626-1.181,0,0c.094.054.436-.684.477-.8a.382.382,0,0,0-.082-.369.221.221,0,0,0-.037-.028c-.078-.045-.16-.007-.2.1a3.416,3.416,0,0,0-.167,1.1m1.42-.589c1.84,1.062,3.337.209,3.343-1.905a7.319,7.319,0,0,0-3.322-5.753c-1.84-1.062-3.336-.209-3.343,1.905a7.32,7.32,0,0,0,3.321,5.753m-2.877-1.115a.031.031,0,0,0,.012.01c.109.063.68-.323.758-.393a.257.257,0,0,0,.017-.325.246.246,0,0,0-.079-.075.165.165,0,0,0-.2.016c-.081.073-.581.661-.509.767m-1.116-2.025a.057.057,0,0,0,.027.027,2.982,2.982,0,0,0,.941.053.163.163,0,0,0,.115-.242.314.314,0,0,0-.131-.147.25.25,0,0,0-.16-.035c-.112.017-.84.227-.791.344m-.482-1.977a7.484,7.484,0,0,0,.89.4c.129.041.218-.017.2-.132a.4.4,0,0,0-.2-.249.372.372,0,0,0-.073-.033c-.129-.041-1-.233-.979-.119,0,.029.067.075.16.129m.756-1.146a.5.5,0,0,0,.043.028c.113.065.206.054.217-.033a.473.473,0,0,0-.217-.349c-.067-.049-.343-.225-.595-.371-.235-.136-.45-.245-.457-.2a6.332,6.332,0,0,0,1.009.922" transform="translate(-218.873 -470.234)" fill="#bcbcbc"/>
              <path id="Path_3419" data-name="Path 3419" d="M293.269,589.143c.007-2.34.838-3.982,2.177-4.744l.051-.027.076-.041a4.417,4.417,0,0,1,3.316-.18,8.14,8.14,0,0,1,1.778.778,16.2,16.2,0,0,1,7.35,12.73q0,.213-.01.419c-.205,4.371-3.439,6.077-7.388,3.8a16.3,16.3,0,0,1-7.342-12.3h0q-.008-.216-.008-.43m2.5,3.188a10.584,10.584,0,0,0,.384,1.274q.058.159.122.316a11.074,11.074,0,0,0,4.353,5.339,4.614,4.614,0,0,0,2.323.7c1.652-.018,2.786-1.339,2.793-3.614a11.238,11.238,0,0,0-3.014-7.106,9.888,9.888,0,0,0-1.041-.986,7.918,7.918,0,0,0-1.027-.712l-.132-.074a4.511,4.511,0,0,0-2.191-.625,2.553,2.553,0,0,0-2.316,1.426q-.056.105-.106.218a3.867,3.867,0,0,0-.173.478q-.035.119-.064.245-.043.188-.073.389c-.013.09-.025.181-.033.275q-.027.28-.028.584a8.252,8.252,0,0,0,.224,1.875" transform="translate(-210.477 -459.439)" fill="#444"/>
              <path id="Path_3420" data-name="Path 3420" d="M272.549,475.474l1.682,6.564-.013,4.681-.01,3.751-.085.05.085.145-2.906-1.677-6.944-4.009c-.021-.012-.041-.022-.061-.031-.3-.135-.538.06-.539.463l-.015,5.17-1.508-.871a9.533,9.533,0,0,0,.165-1.019c.005-.043.01-.08.015-.123.038-.357.062-.716.078-1.136h0c0-.113.005-.224.005-.331s0-.23,0-.346c0-.027,0-.054,0-.081q-.011-.347-.043-.7c0-.029-.005-.059-.008-.088-.011-.116-.023-.232-.037-.349,0,0,0-.007,0-.01-.014-.115-.03-.23-.046-.346,0-.032-.009-.063-.014-.1q-.026-.171-.056-.343l0-.027c-.02-.112-.042-.225-.064-.338l-.021-.1q-.034-.166-.072-.332l-.012-.05q-.038-.162-.079-.324l-.029-.111c-.027-.105-.055-.211-.085-.316l-.022-.077q-.043-.153-.09-.306l-.038-.123q-.045-.147-.093-.293l-.037-.112q-.047-.141-.1-.282l-.048-.135q-.048-.133-.1-.265l-.059-.153q-.048-.126-.1-.251l-.06-.148q-.048-.117-.1-.234l-.039-.095a21.29,21.29,0,0,0-1.047-2.1l-.026-.044q-.126-.219-.256-.436l-.034-.056q-.133-.22-.272-.436l-.046-.072q-.132-.205-.269-.406l-.062-.091q-.138-.2-.28-.4l-.025-.035-.053-.071q-.079-.108-.159-.214l-.1-.131-.148-.191-.141-.177c-.048-.059-.1-.119-.143-.177l-.114-.137-.136-.161q-.086-.1-.173-.2l-.133-.15-.126-.138-.13-.139q-.1-.1-.2-.205l-.129-.132-.134-.134-.128-.125q-.1-.1-.21-.2l-.13-.12-.14-.126-.132-.115q-.107-.093-.215-.184l-.136-.113-.142-.114-.14-.109q-.106-.082-.213-.162l-.145-.107-.142-.1-.152-.1-.2-.137-.158-.1-.14-.087-.166-.1-.1-.058A10.128,10.128,0,0,0,253,471.6l-.02-.009-.2-.087-.042-.017-.177-.07-.056-.021-.163-.059-.062-.022-.084-.029-.072-.023-.065-.02-.152-.045-.065-.018-.153-.04-.06-.015-.159-.036-.051-.011-.171-.033-.037-.007-.189-.03L251,471c-.144-.02-.286-.042-.426-.051-.064,0-.127-.015-.191-.015h-.216c-.043,0-.085.006-.127.007l-.062,0-.095.007-.087.007-.015,0c-2.666.223-4.451,2.557-4.461,6.293,0,.038.029.078.029.116v-.007c0,.033-.056-.034-.055-.034h0c0,.213.026.566.041.813.01.159.012.344.027.508.041.464.1.958.179,1.4l-5.982-3.443-6.726-3.878.086-30.284,36.578,21.12Zm-20.219-7.581a9.238,9.238,0,0,0-3.264-1.189,5.921,5.921,0,0,0-2.136.062,4.822,4.822,0,0,0-1.348.515,5.329,5.329,0,0,0-2.261,2.694,9.63,9.63,0,0,0-.556,4.324s.026,0,.026,0v0a8.4,8.4,0,0,1,.989-3.867,6.092,6.092,0,0,1,1.3-1.744,5.208,5.208,0,0,1,.925-.678,5.794,5.794,0,0,1,3.237-.706,10.512,10.512,0,0,1,3.87,1.083l0,0,0,0q-.391-.267-.786-.494" transform="translate(-163.808 -348.127)" fill="#40583a"/>
              <path id="Path_3421" data-name="Path 3421" d="M338.248,555.988a9.237,9.237,0,0,1,3.265,1.189q.392.226.781.492l0,0a10.522,10.522,0,0,0-3.872-1.083,5.8,5.8,0,0,0-3.24.706,5.266,5.266,0,0,0-.931.678,6.126,6.126,0,0,0-1.318,1.744,10.367,10.367,0,0,0-1.014,3.863v0a9.618,9.618,0,0,1,.581-4.324,5.33,5.33,0,0,1,2.261-2.694,4.822,4.822,0,0,1,1.348-.515,5.941,5.941,0,0,1,2.135-.062" transform="translate(-252.992 -437.411)" fill="#ad8c59"/>
              <path id="Path_3422" data-name="Path 3422" d="M287.925,582.515V582.5c0-.038-.029-.068-.029-.106.01-3.736,1.809-6.065,4.475-6.288,0,0,0,0,.008,0l.083,0,.093,0c.02,0,.04-.006.061-.007.042,0,.084-.007.127-.007h.216a4.464,4.464,0,0,1,.617.06.14.14,0,0,0,.017.005c.062.009.125.021.189.032l.037.008.17.033.051.011.159.036.06.015.153.041.064.018.153.045.065.02.156.052.062.022.163.059.056.021.177.07.042.017.2.087.02.009a10.144,10.144,0,0,1,.928.476l.1.058.166.1.14.087.158.1.2.136.152.105.142.1.145.107c.071.053.143.107.213.162l.14.109.142.114.135.112q.108.091.215.184l.132.115.14.126.13.12q.106.1.21.2l.128.125.134.134.129.132.2.205.13.139.126.138.133.15.173.2c.046.053.091.107.136.161l.114.137.144.177.141.177.148.191.1.131q.08.106.159.214l.078.107q.142.2.279.4l.062.092q.137.2.269.406l.046.072q.138.217.272.436l.034.056q.13.216.256.436a21.433,21.433,0,0,1,1.111,2.24c.033.078.066.156.1.234l.06.148q.05.126.1.251l.058.154q.05.132.1.265l.048.135q.049.14.1.281l.037.112q.048.147.093.293c.013.041.026.082.038.123q.046.153.09.306l.022.077q.044.158.085.316l.028.111c.027.108.054.216.079.324l.012.05q.038.166.072.332c.007.034.014.068.021.1q.034.169.064.338l0,.027c.02.114.038.229.056.343l.014.095c.017.116.033.231.046.346v.01c.014.117.026.233.037.349,0,.029.006.059.008.088q.031.352.042.7c0,.027,0,.054,0,.081,0,.116.005.232,0,.346s0,.217-.006.331h0l-1.155-.667c.007-.137.01-.277.01-.419a16.2,16.2,0,0,0-7.35-12.731,8.155,8.155,0,0,0-1.778-.778,4.417,4.417,0,0,0-3.316.18l-.077.042-.05.028c-1.339.763-2.16,2.4-2.167,4.744,0,.142.018.285.018.43v-.039l-1.334-.891h0s.055.067.055.034" transform="translate(-206.385 -453.278)" fill="#686860"/>
              <path id="Path_3423" data-name="Path 3423" d="M620.705,302.417l.493.279-.377-.209-6.2-3.482-6.1-3.483-3.064-1.709v-.059l3.2,1.8,5.98,3.428Z" transform="translate(-590.209 -231.133)" fill="#c1b395"/>
              <path id="Path_3424" data-name="Path 3424" d="M467.841,323.465l-.059,20.789,0,1.259-4.562-17.443,4.622-4.656c0,.017,0,.034,0,.051" transform="translate(-406.531 -254.47)" fill="#c1b395"/>
              <path id="Path_3425" data-name="Path 3425" d="M464.038,355.982l-.483-.271,7.187-7.24,5.232,20.007v.172l-11.882-6.86.02.009Z" transform="translate(-414.735 -274.184)" fill="#c1b395"/>
              <path id="Path_3426" data-name="Path 3426" d="M12.91,565.506l2.906,1.678.085.145.083-.049.145.084L63.739,539.7a1.4,1.4,0,0,1,.6,1.122l-.017,5.935-13.24,7.694-.008-2.829c0-.689-.3-1.077-.674-.863l-14.043,8.108a2.057,2.057,0,0,0-.667,1.637l.008,2.887-.048.027-.008-2.887a2.156,2.156,0,0,1,.715-1.72L50.4,550.7l-.952-.554L35.4,558.254a2.156,2.156,0,0,0-.714,1.72l.011,3.992L16.707,574.421c0,.429-.27.623-.6.432L5.945,568.986a1.4,1.4,0,0,1-.6-1.122l0-.765.015-5.17c0-.4.237-.6.539-.463.02.009.04.019.061.031Z" transform="translate(94.582 -424.645)" fill="#f2f4e6"/>
              <path id="Path_3427" data-name="Path 3427" d="M314.992,375.8q-.177-.1-.356-.206Z" transform="translate(-222.008 -295.523)" fill="#f9f7d9"/>
              <path id="Path_3428" data-name="Path 3428" d="M307.392,186.469c0-.017,0-.034,0-.051l.934-.942-6.085-3.437-6.085-3.437-6.085-3.437-6.085-3.437L278,168.3l-6.179-3.447-6.085-3.437-6.085-3.437-4.609,4.644c0-.2,0-.4,0-.6.016-3.537.04-6.79.07-9.519,0-.093,0-.181,0-.272.012-1.061.026-2.044.041-2.926l80.166,46.283-77.9-43.6-.033.059,80.754,45.2a7.284,7.284,0,0,0,1.611.9l1.9,1.094.253-.147c.042.154.093.343.162.6.058.217.116.436.175.668.042.167.087.347.131.522s.082.331.126.506c.06.243.12.5.181.76.029.124.058.242.087.369.05.215.1.447.153.673.046.206.093.406.14.619.052.239.107.495.16.744.039.183.079.36.118.549.079.377.16.773.3,1.439.06.3.121.615.181.925.046.233.09.458.136.7.025.127.049.265.074.4.181.958.364,1.964.552,3.042.043.249.087.506.13.765l-.825,7.737c-.022-.116-.045-.234-.068-.356h0v0h0l-.027-.146-.021-.112q-.055-.294-.116-.609c-.008-.041-.016-.082-.024-.124l-.018-.094-.031-.16-.015-.079-.064-.336c-.012-.064-.022-.112-.031-.159l-.017-.089-.054-.279-.025-.129q-.033-.171-.068-.346c-.028-.142-.053-.274-.08-.406l-.012-.063-.025-.126-.014-.072-.079-.4-.038-.191-.014-.068-.018-.088-.034-.171-.03-.148-.042-.207-.037-.181-.026-.128-.03-.146-.013-.065q-.014-.069-.028-.137l-.012-.056-.087-.423-.013-.062-.03-.142c-.005-.026-.011-.053-.016-.079l-.031-.149-.012-.057c-.014-.068-.029-.136-.043-.2l-.014-.069-.026-.126-.019-.09-.031-.149-.013-.063-.027-.126-.03-.142-.033-.157-.011-.049-.026-.124-.027-.124-.052-.243-.033-.155-.048-.221-.044-.2-.022-.1-.035-.158-.018-.084-.026-.117-.022-.1q-.046-.206-.092-.41l-.046-.2-.013-.057-.034-.149-.014-.063-.044-.192-.017-.075-.028-.12c-.006-.029-.013-.057-.02-.086l-.032-.137-.014-.06-.046-.2-.046-.2-.017-.074-.027-.113-.02-.083-.09-.372-.02-.082-.025-.1-.023-.094-.026-.106-.031-.124-.031-.125-.017-.067-.033-.131-.014-.053-.033-.131c-.007-.029-.015-.059-.022-.088l-.038-.146-.045-.174-.017-.066-.037-.14-.054-.2-.045-.165-.018-.067-.027-.1c-.006-.022-.012-.043-.018-.065-.014-.052-.028-.1-.043-.154l-.015-.052-.03-.106-.018-.062-.03-.1-.015-.052-.042-.145-.045-.153-.015-.05-.033-.108-.055-.182-.044-.141-.045-.142-.056-.173c-.014-.044-.028-.084-.041-.124l-.043-.127-.055-.159-.041-.115-.043-.115-.048-.125c-.02-.052-.033-.086-.047-.119l-.04-.1-.043-.1c-.023-.054-.036-.082-.049-.11l-.039-.084c-.023-.048-.032-.066-.041-.085l-.047-.092-.038-.069-.039-.066c-.022-.037-.034-.055-.046-.073-.094-.126-.105-.139-.117-.152l-.048-.033a.477.477,0,0,0-.1-.078.364.364,0,0,0-.13-.13,1.189,1.189,0,0,0-.2-.077l-.1-.044-.02-.011-.416-.24-4.774-2.756a.767.767,0,0,1-.154-.126c-.017-.01-.035-.006-.081.017-.107.052.008.127.026.286,0,.014.045.028.045.043l.033,3.184v.01l.007-.009-.007,5.118v0l-.213,8.308h0c0,.162.016.2.012.222s.009.062,0,.095.006.026,0,.033,0,.007,0,.012c-.006.034-.007.068-.01.1a.254.254,0,0,0,0,.029l0,0c0,.008,0,.017,0,.025a.358.358,0,0,0,.045.188.563.563,0,0,1,.062.163c.014.071.026.135.039.19a.473.473,0,0,0,.049.136.221.221,0,0,0,.083.085l6.567,3.792,3.343,1.93-.165,1.546c-.165,1.543,1,2.056,2.613,1.129l.806-.465.718.415a8.145,8.145,0,0,1,3.562,4.27q.055.185.094.373a4.144,4.144,0,0,1,.092.867l.47,1.834L315.193,211.8l-.023-26.1-.074,26.047-7.763-4.482Zm12.521,27.611,1.793,1.035,3.53,2.038c.33.191.6.038.6-.342l0-.939a1.311,1.311,0,0,0-.595-1.032l-5.322-3.073c-.31-.179-.565-.055-.6.274,0,.022,0,.045,0,.068l0,.939a1.313,1.313,0,0,0,.6,1.032m-1.183-5.647,2.436,1.407L331,215.517c.33.191.6.038.6-.342l.047-16.633a1.311,1.311,0,0,0-.6-1.031l-12.27-7.085c-.021-.012-.042-.023-.062-.032l-.05-.02-.009,0c-.273-.093-.479.064-.48.4l-.047,16.633a1.315,1.315,0,0,0,.6,1.033" transform="translate(-246.082 -117.474)" fill="#f2f4e6"/>
              <path id="Path_3429" data-name="Path 3429" d="M349.967,341.855l.009,0c.016.006.033.012.05.02s.041.02.062.032l12.27,7.084a1.311,1.311,0,0,1,.6,1.031l-.047,16.633c0,.38-.269.533-.6.342l-9.834-5.678-2.437-1.406a1.316,1.316,0,0,1-.6-1.033l.047-16.634c0-.332.207-.489.48-.4" transform="translate(-277.389 -268.958)" fill="#a0e0d1"/>
              <path id="Path_3430" data-name="Path 3430" d="M376.7,442.291c.031-.329.287-.453.6-.274l5.322,3.073a1.312,1.312,0,0,1,.595,1.032l0,.939c0,.38-.269.533-.6.342l-3.529-2.038-1.793-1.035a1.313,1.313,0,0,1-.6-1.032l0-.94c0-.023,0-.046,0-.068" transform="translate(-303.458 -347.725)" fill="#f9f7d9"/>
              <path id="Path_3431" data-name="Path 3431" d="M302.48,416.15c.023.122.046.24.067.356l-.3,2.841-3.343-1.93-6.567-3.792a.22.22,0,0,1-.083-.085.515.515,0,0,1-.049-.136c-.014-.055-.025-.119-.039-.19a2.165,2.165,0,0,0-.105-.375v0a.254.254,0,0,1,0-.029c0-.018.006-.047.013-.1,0,0,0-.007,0-.012s0-.015.006-.033.009-.042.017-.085c0,0-.044-.006-.043-.01,0-.021-.012-.06-.012-.222h0l.213-8.307v0l-.035-5.118-.022.009,10.292,17.225Z" transform="translate(-204.746 -313.875)" fill="#a0e0d1"/>
              <path id="Path_3432" data-name="Path 3432" d="M211.873,621.356c.007.015.013.031.02.046-.007-.015-.013-.031-.02-.046h0" transform="translate(-97.002 -488.897)" fill="#ead363"/>
              <path id="Path_3433" data-name="Path 3433" d="M14.286,466.3l.011-3.751.013-4.681-1.682-6.564L9.576,439.4l47.61-27.668,3.052,11.906.867,3.382-3.179-1.848a3.044,3.044,0,0,0-3.069.3,9.475,9.475,0,0,0-4.3,7.446,3.019,3.019,0,0,0,1.258,2.766l4.761,2.767c-.022-.012-.042-.027-.063-.04a3,3,0,0,0,3.132-.26,8.02,8.02,0,0,0,2.258-2.039l-.008,2.717-.085-.146ZM25.8,446.987l.008,0-4.761-2.767a3.041,3.041,0,0,0-3.069.3,9.474,9.474,0,0,0-4.3,7.446,3.019,3.019,0,0,0,1.258,2.767l4.761,2.767c-.023-.013-.045-.028-.067-.043a3,3,0,0,0,3.136-.258,9.474,9.474,0,0,0,4.3-7.446,3.013,3.013,0,0,0-1.266-2.77m23.063-10.832c-.008-2.9-.869-4.952-2.167-5.694l.016.009-.952-.553a2.55,2.55,0,0,0-2.665.138l-10.16,5.865c-2.646,1.528-4.782,6.489-4.769,11.081v.333c.008,2.883.862,4.935,2.151,5.685l.809.47.1.055.048.028-.008,0a2.549,2.549,0,0,0,2.673-.133l10.16-5.866c2.647-1.528,4.782-6.488,4.769-11.08Z" transform="translate(96.113 -323.962)" fill="#40583a"/>
              <path id="Path_3434" data-name="Path 3434" d="M36.993,534.952l.022.027-.023-.027h0" transform="translate(115.157 -420.913)" fill="#ead363"/>
              <g id="Group_675" data-name="Group 675" transform="translate(101.471 108.096)" opacity="0.3" style="mix-blend-mode: screen;isolation: isolate">
                <g id="Group_674" data-name="Group 674" transform="translate(0)">
                  <g id="Group_673-2" data-name="Group 673" clip-path="url(#clip-path-3)">
                    <path id="Path_3435" data-name="Path 3435" d="M261.677,511.342a8.145,8.145,0,0,0-3.562-4.27,8.145,8.145,0,0,1,3.562,4.27" transform="translate(-258.115 -507.073)" fill="#f9f7d9"/>
                  </g>
                </g>
              </g>
              <path id="Path_3436" data-name="Path 3436" d="M292.383,383.1h0a.385.385,0,0,0,0-.043c-.017-.158-.115-.224.208-.178l4.773,2.756.416.24.021.011.1.044.005,0a4.341,4.341,0,0,1,.422.282l.048.033c.011.012.023.026.117.152.012.018.024.037.046.073l.039.066.038.069.047.092.041.085.039.084c.013.028.025.056.049.11l.043.1.04.1c.013.033.027.067.047.119.011.029.023.059.048.125l.043.115.041.115c.014.038.027.077.056.159l.043.127.041.124.056.173.045.142.044.141.056.182.033.108.015.05.045.153c.014.048.028.1.042.145l.015.052.03.1.018.062.03.106.014.052.043.154.018.065c.009.033.018.066.027.1l.018.067.045.165c.016.057.031.115.054.2l.037.14.017.066.045.174.038.146.022.088.033.131.014.053.033.131.017.067.031.125.031.124.026.106.023.094.024.1.02.082.09.372.02.083.027.113.017.074.046.2.046.2.014.06.032.137.02.086.028.12.017.075.044.191.015.063.034.149.013.057.046.2q.046.2.092.41l.022.1.026.117.019.084.035.158.022.1.044.2.048.221.033.155.052.243.027.124.027.124.01.049.033.157.03.142.027.126.013.063.031.149.019.09.026.126.014.069.043.2.012.057c.01.05.021.1.031.149l.016.079c.01.047.02.095.029.142,0,.021.009.041.013.062.029.141.058.282.087.423l.012.056.028.137.013.065.03.146.026.128c.01.05.02.1.037.181l.042.207.03.148.034.171.018.089.014.068.038.191.079.4c0,.024.009.048.014.072l.025.126.012.063.08.406.068.346.025.129.054.279.017.089.031.159.065.336.015.079.031.16.018.094.024.124q.06.315.116.609l.021.111.027.146h0v0L292.374,386.29Z" transform="translate(-204.948 -301.25)" fill="#fff"/>
              <path id="Path_3437" data-name="Path 3437" d="M168.487,321.453l27.152-15.779-26.4,15.561a3.823,3.823,0,0,1-.749.218" transform="translate(-71.498 -240.511)" fill="#f9f7d9"/>
              <path id="Path_3438" data-name="Path 3438" d="M63.694,267.994c.05.215.1.447.152.673.047.206.093.406.14.62.053.239.107.495.16.744.039.183.079.36.118.548.08.377.16.773.3,1.439.059.3.121.615.181.925.046.234.09.458.136.7.025.127.05.265.074.4.181.957.365,1.964.552,3.041.071.408.142.835.214,1.259.036.216.072.422.109.642.022.135.045.272.067.409L63.62,267.682c.025.1.049.2.074.312" transform="translate(80.602 -210.618)" fill="#f9f7d9"/>
              <path id="Path_3439" data-name="Path 3439" d="M463.773,367.734l-.944-.272-.357-1.311h0v-.2h0l-5.257-20.007.688-.685,4.57,17.443h0l1.066,4.035h0Z" transform="translate(-401.182 -271.656)" fill="#ad8c59"/>
              <path id="Path_3440" data-name="Path 3440" d="M86.69,513.527l-10.159,5.866a2.548,2.548,0,0,1-2.673.133l.008,0-.048-.028-.1-.055-.809-.47c-1.289-.749-2.143-2.8-2.151-5.685v-.333c-.013-4.592,2.122-9.553,4.769-11.081l10.16-5.865a2.55,2.55,0,0,1,2.665-.138l.952.553-.016-.009c1.3.742,2.159,2.8,2.167,5.694v.333c.013,4.592-2.122,9.552-4.769,11.08m1.786-13.386a.67.67,0,0,0-.281-.616v-.014s0-.017,0-.017h0a7.41,7.41,0,0,1-.949-.537.679.679,0,0,0-.682.074L74.678,505.9a2.109,2.109,0,0,0-.955,1.657v.221a.672.672,0,0,0,.28.615l.952.554c-.01-.006-.019-.013-.028-.02a.655.655,0,0,0,.71-.047l11.885-6.862a2.106,2.106,0,0,0,.955-1.654Zm.01,3.744a.67.67,0,0,0-.281-.615l0-.066,0-.069h0l-.949-.485a.7.7,0,0,0-.682.1L74.689,509.63a2.12,2.12,0,0,0-.955,1.663v.225a.675.675,0,0,0,.28.617l.952.554-.032-.022a.653.653,0,0,0,.714-.044l11.885-6.862a2.1,2.1,0,0,0,.955-1.654Zm.011,3.965v-.22a.671.671,0,0,0-.281-.616h0l0,0h0l-.949-.551a.676.676,0,0,0-.682.067L74.7,513.39a2.1,2.1,0,0,0-.955,1.655v.22a.671.671,0,0,0,.279.615l.952.553c-.011-.007-.021-.015-.032-.022a.653.653,0,0,0,.714-.044L87.543,509.5a2.105,2.105,0,0,0,.955-1.654" transform="translate(53.514 -389.92)" fill="#ad8c59"/>
              <path id="Path_3441" data-name="Path 3441" d="M137.32,626.75l.952.553a2.154,2.154,0,0,0-.715,1.72l-.952-.553a2.155,2.155,0,0,1,.714-1.72" transform="translate(-7.336 -493.141)" fill="#ccc"/>
              <path id="Path_3442" data-name="Path 3442" d="M84.777,588.717l.952.554-14.042,8.108-.952-.554Z" transform="translate(59.25 -463.216)" fill="#ccc"/>
              <path id="Path_3443" data-name="Path 3443" d="M140.815,635.371l.008,2.887.012,4.249-.952-.553-.009-3.144-.011-3.992Z" transform="translate(-10.593 -499.489)" fill="#ccc"/>
              <path id="Path_3444" data-name="Path 3444" d="M68.145,599.463l14.043-8.107c.37-.213.672.174.674.863l.008,2.829.012,4.307a2.057,2.057,0,0,1-.667,1.637L68.172,609.1c-.369.213-.672-.174-.674-.864l-.012-4.249-.008-2.887a2.058,2.058,0,0,1,.667-1.637" transform="translate(62.792 -465.246)" fill="#fff"/>
              <path id="Path_3445" data-name="Path 3445" d="M41.1,311.255a4.143,4.143,0,0,0-.092-.868q-.039-.187-.095-.373a8.144,8.144,0,0,0-3.562-4.27l-.718-.415-.806.465c-1.608.928-2.777.414-2.613-1.129l.165-1.546.3-2.841.825-7.737c-.043-.259-.087-.515-.13-.765-.187-1.077-.371-2.084-.552-3.042-.025-.13-.05-.268-.074-.4-.046-.241-.09-.466-.136-.7-.06-.311-.122-.628-.181-.925-.136-.666-.216-1.062-.3-1.439-.039-.188-.079-.365-.118-.549-.053-.25-.108-.505-.16-.744-.047-.214-.093-.414-.14-.62-.051-.226-.1-.457-.152-.673-.029-.127-.058-.245-.088-.369-.061-.258-.121-.516-.181-.76l-.126-.506c-.044-.175-.088-.355-.131-.522-.059-.232-.118-.45-.175-.668-.069-.257-.12-.446-.162-.6l1-.578a4.127,4.127,0,0,0,.95-.257l35.89-21.152,9.521-5.533-.033-.112v0l-.029-.1-.016-.054-.012-.039-.026-.09.258-.15c.067.236.134.479.273,1,.058.218.116.436.175.668.042.167.087.347.131.522l.014.057a1.153,1.153,0,0,1,.149.456l.157.809,2.274,11.708,1.727,8.892a2.933,2.933,0,0,1-.209,1.369q.056.418.112.842l.956.552c1.649.952,3.755,3.177,3.749,5.51l.469,1.834-47.61,27.668Zm39.349-35.639-.237-2.183-.92-8.472c-.117-1.08-1.342-1.284-2.738-.479L58.066,275.157,40.372,285.373a5.667,5.667,0,0,0-2.738,3.64L36.477,301c-.132,1.369.979,1.778,2.484.91l39-22.519c1.5-.869,2.616-2.561,2.484-3.778" transform="translate(64.12 -197.649)" fill="#f2f4e6"/>
              <path id="Path_3446" data-name="Path 3446" d="M72.619,383.07l1.157-11.99a5.667,5.667,0,0,1,2.738-3.64l17.694-10.216,22.146-1.724.237,2.182c.132,1.217-.979,2.909-2.484,3.778l-39,22.519c-1.5.868-2.616.459-2.484-.91" transform="translate(27.979 -279.716)" fill="#a0e0d1"/>
              <path id="Path_3447" data-name="Path 3447" d="M92.258,311.7c1.4-.806,2.621-.6,2.738.479l.92,8.472-22.146,1.724Z" transform="translate(48.417 -244.869)" fill="#fff"/>
              <path id="Path_3448" data-name="Path 3448" d="M85.969,549.279h0Z" transform="translate(55.762 -432.184)" fill="#775f3f"/>
              <path id="Path_3449" data-name="Path 3449" d="M87.547,546.971a.487.487,0,0,0-.048-.014l-.026-.008c-.017,0-.036,0-.054-.007l-.025,0a.581.581,0,0,0-.06,0H87.31a.635.635,0,0,0-.066.01l-.023,0c-.024.005-.048.012-.072.02l-.02.006c-.025.009-.051.019-.077.031l-.019.008c-.032.015-.065.032-.1.051l-.952-.553a.675.675,0,0,1,.682-.067l.949.551a.4.4,0,0,0-.04-.018l-.026-.013" transform="translate(54.115 -429.909)" fill="#775f3f"/>
              <path id="Path_3450" data-name="Path 3450" d="M149.039,588.65c0,.012,0,.023.005.035s.006.044.01.065.007.027.01.04.008.035.013.052.01.026.015.039.011.03.017.043.013.024.02.036.013.025.02.037.016.021.023.031.016.022.025.032.017.017.026.025.019.02.029.028l.028.019c.011.007.021.016.032.022l-.952-.553a.67.67,0,0,1-.279-.614l.952.553c0,.038,0,.074.005.109" transform="translate(-20.824 -462.642)" fill="#775f3f"/>
              <path id="Path_3451" data-name="Path 3451" d="M150.346,587.727l-.952-.553v-.22l.952.554Z" transform="translate(-22.136 -461.828)" fill="#775f3f"/>
              <path id="Path_3452" data-name="Path 3452" d="M90.117,554.417l-.952-.553L101.05,547l.952.553Z" transform="translate(39.048 -430.394)" fill="#775f3f"/>
              <path id="Path_3453" data-name="Path 3453" d="M145.867,581.4l-.952-.554a2.105,2.105,0,0,1,.955-1.655l.952.553a2.106,2.106,0,0,0-.955,1.655" transform="translate(-17.657 -455.721)" fill="#775f3f"/>
              <path id="Path_3454" data-name="Path 3454" d="M85.614,558.4a.653.653,0,0,1-.714.044l-.028-.019c-.01-.009-.02-.019-.029-.028s-.018-.016-.026-.025-.016-.021-.025-.032-.016-.02-.023-.031-.014-.025-.021-.037-.014-.023-.02-.036-.012-.029-.017-.043-.011-.025-.015-.039-.009-.034-.013-.052-.007-.026-.01-.04-.007-.043-.009-.065,0-.023-.005-.035c0-.035-.005-.071-.005-.109v-.22a2.1,2.1,0,0,1,.955-1.655l11.885-6.862c.033-.019.066-.036.1-.051l.019-.008c.026-.011.052-.022.077-.031l.02-.006c.024-.008.048-.015.072-.02l.023,0a.611.611,0,0,1,.066-.01h.024a.506.506,0,0,1,.06,0l.025,0a.431.431,0,0,1,.054.007l.026.007a.489.489,0,0,1,.048.014.288.288,0,0,1,.026.012.424.424,0,0,1,.04.018h0a.671.671,0,0,1,.281.616v.22a2.1,2.1,0,0,1-.955,1.654Z" transform="translate(43.558 -431.953)" fill="#775f3f"/>
              <path id="Path_3455" data-name="Path 3455" d="M87.6,529.408l-.039-.011-.035-.01-.039,0a.34.34,0,0,0-.04,0h-.084l-.04.006c-.016,0-.032,0-.049.007s-.028.008-.042.012l-.05.014-.05.02c-.015.006-.03.011-.046.018-.032.015-.065.032-.1.051l-.952-.553a.676.676,0,0,1,.682-.067l.949.552c-.012-.007-.024-.012-.036-.017s-.02-.01-.03-.014" transform="translate(54.055 -416.09)" fill="#775f3f"/>
              <path id="Path_3456" data-name="Path 3456" d="M86.019,531.715h0Z" transform="translate(55.702 -418.364)" fill="#775f3f"/>
              <path id="Path_3457" data-name="Path 3457" d="M149.089,571.085c0,.012,0,.023.005.034s.005.045.01.066.006.024.009.036.009.038.014.055.009.023.014.035.012.033.019.047.012.022.018.032.014.028.023.041.014.019.022.028.017.024.027.035.016.016.025.024.02.02.03.029.019.013.028.02.021.016.032.022l-.952-.553a.67.67,0,0,1-.279-.615l.952.553c0,.038,0,.074.005.11" transform="translate(-20.884 -448.821)" fill="#775f3f"/>
              <path id="Path_3458" data-name="Path 3458" d="M150.4,570.161l-.952-.553v-.22l.952.553Z" transform="translate(-22.196 -448.007)" fill="#775f3f"/>
              <path id="Path_3459" data-name="Path 3459" d="M90.167,536.854l-.952-.553,11.885-6.862.952.553Z" transform="translate(38.988 -416.575)" fill="#775f3f"/>
              <path id="Path_3460" data-name="Path 3460" d="M145.918,563.836l-.952-.553a2.105,2.105,0,0,1,.955-1.654l.952.553a2.105,2.105,0,0,0-.955,1.654" transform="translate(-17.719 -441.902)" fill="#775f3f"/>
              <path id="Path_3461" data-name="Path 3461" d="M97.549,533.712l-11.885,6.862a.653.653,0,0,1-.714.044c-.009-.006-.019-.012-.028-.019s-.02-.019-.03-.029-.017-.015-.025-.024-.018-.023-.027-.034-.015-.018-.021-.028-.015-.027-.023-.041-.012-.021-.018-.032-.012-.031-.019-.047-.01-.023-.014-.035-.01-.037-.014-.056-.007-.023-.009-.036-.007-.044-.01-.066,0-.022-.005-.034c0-.035-.005-.072-.005-.11v-.22a2.106,2.106,0,0,1,.955-1.654l11.885-6.862c.033-.019.066-.036.1-.051.015-.007.03-.012.046-.018l.05-.02.05-.014c.014,0,.029-.009.042-.012s.032-.005.049-.008l.04-.006H98a.353.353,0,0,1,.04,0l.039,0,.035.01.039.011c.01,0,.02-.057.03-.053s.025-.05.036-.05h0v.068a.733.733,0,0,1,.281.649v.237a2.135,2.135,0,0,1-.955,1.671" transform="translate(43.497 -417.871)" fill="#775f3f"/>
              <path id="Path_3462" data-name="Path 3462" d="M87.645,511.841c-.015-.006-.03-.009-.046-.013l-.028-.008c-.016,0-.034,0-.051-.006l-.029,0c-.018,0-.036,0-.055,0h-.029c-.019,0-.038.005-.058.009l-.031,0c-.02,0-.04.011-.06.017l-.032.009c-.021.007-.043.017-.064.026l-.031.013c-.032.015-.065.032-.1.051l-.952-.553a.675.675,0,0,1,.682-.067l.949.551c-.013-.007-.026-.012-.039-.018l-.027-.013" transform="translate(53.995 -402.268)" fill="#775f3f"/>
              <path id="Path_3463" data-name="Path 3463" d="M86.069,514.149h0l0,0" transform="translate(55.641 -404.543)" fill="#775f3f"/>
              <path id="Path_3464" data-name="Path 3464" d="M149.139,553.519c0,.012,0,.022,0,.033s.006.046.01.068.007.026.01.039.008.036.014.052.01.026.015.039.011.03.017.043.013.024.02.036.013.025.02.037.016.021.025.032.015.021.023.031.019.018.028.027.017.018.027.026.021.015.032.022.019.014.029.02l-.952-.553a.67.67,0,0,1-.28-.615l.952.553c0,.038,0,.074.005.109" transform="translate(-20.944 -435)" fill="#775f3f"/>
              <path id="Path_3465" data-name="Path 3465" d="M150.446,552.6l-.952-.554v-.22l.952.553Z" transform="translate(-22.256 -434.188)" fill="#775f3f"/>
              <path id="Path_3466" data-name="Path 3466" d="M90.216,519.288l-.952-.553,11.885-6.862.952.553Z" transform="translate(38.927 -402.754)" fill="#775f3f"/>
              <path id="Path_3467" data-name="Path 3467" d="M145.968,546.269l-.952-.553a2.105,2.105,0,0,1,.955-1.655l.952.553a2.106,2.106,0,0,0-.955,1.655" transform="translate(-17.78 -428.08)" fill="#775f3f"/>
              <path id="Path_3468" data-name="Path 3468" d="M97.6,516.408,85.713,523.27a.654.654,0,0,1-.71.047c-.011-.007-.022-.014-.032-.022s-.018-.017-.027-.026-.02-.017-.029-.027-.016-.021-.023-.031-.017-.021-.025-.032-.014-.024-.02-.037-.014-.023-.02-.036-.012-.029-.017-.043-.011-.025-.015-.039-.009-.035-.014-.052-.007-.025-.01-.039-.007-.045-.01-.068,0-.021,0-.033c0-.035-.005-.071-.005-.109v-.22a2.105,2.105,0,0,1,.955-1.655l11.885-6.862a1.1,1.1,0,0,1,.1-.051l.031-.013c.022-.009.043-.019.064-.026l.032-.009c.02-.006.04-.012.06-.017l.031,0,.058-.009h.029c.019,0,.037,0,.055,0l.029,0c.017,0,.034,0,.051.006l.028.008c.015,0,.031.008.046.013s.018-.006.027,0a.084.084,0,0,0,.039,0h0l0,.016a.684.684,0,0,1,.281.623v.224a2.113,2.113,0,0,1-.955,1.658" transform="translate(43.438 -404.312)" fill="#775f3f"/>
              <path id="Path_3469" data-name="Path 3469" d="M544.469,268.091,557.962,254.5l6.085,3.437-13.493,13.593Z" transform="translate(-520.057 -200.245)" fill="#755126"/>
              <path id="Path_3470" data-name="Path 3470" d="M472.809,311.907l-.68.685-7.187,7.24-5.72-3.21-.379-.213,13.439-13.538,6.084,3.437-.934.942h0Z" transform="translate(-416.122 -238.307)" fill="#fff"/>
              <path id="Path_3471" data-name="Path 3471" d="M516.419,284.495l-.493-.279,13.493-13.593,6.085,3.437L522.05,287.614Z" transform="translate(-485.43 -212.933)" fill="#fff"/>
              <path id="Path_3472" data-name="Path 3472" d="M573.012,252.01l13.494-13.593,5.99,3.428L579,255.438Z" transform="translate(-554.591 -187.592)" fill="#fff"/>
              <path id="Path_3473" data-name="Path 3473" d="M643.588,206.124l6.085,3.437L636.18,223.155l-.827-.467-2.493-1.408-2.719-1.536-.046-.026Z" transform="translate(-623.937 -162.183)" fill="#fff"/>
              <path id="Path_3474" data-name="Path 3474" d="M487.66,300.454l-.276-.153,13.454-13.553,6.084,3.437-13.438,13.538Z" transform="translate(-450.764 -225.62)" fill="#755126"/>
              <path id="Path_3475" data-name="Path 3475" d="M614.605,222.248l6.178,3.447L607.29,239.288l-3.22-1.8-2.778-1.55-.016-.009-.165-.092Z" transform="translate(-588.869 -174.87)" fill="#755126"/>
              <path id="Path_3476" data-name="Path 3476" d="M678.215,193.437l-13.493,13.593-6.085-3.437.027-.027,8.857-8.922L672.13,190Z" transform="translate(-658.564 -149.496)" fill="#755126"/>
              <path id="Path_3477" data-name="Path 3477" d="M613.075,321.865l.074,5.817-.006-.017c.022,1.735-1.326,2.369-3.025,1.417a6.422,6.422,0,0,1-3.13-4.865l-.043-.016-.074-5.817Z" transform="translate(-582.463 -250.511)" fill="#755126"/>
              <path id="Path_3478" data-name="Path 3478" d="M524.92,370.584l.483.271.074,5.817-.02-.009-.015-.007c.022,1.735-1.34,2.369-3.039,1.417a6.4,6.4,0,0,1-3.108-4.866l-.022-.016-.074-5.817Z" transform="translate(-476.101 -289.058)" fill="#fff"/>
              <path id="Path_3479" data-name="Path 3479" d="M577.775,334.923l5.631,3.119.276.153.074,5.817-.042-.016c.022,1.735-1.344,2.369-3.043,1.417a6.437,6.437,0,0,1-3.142-4.865l-.056-.016-.074-5.817Z" transform="translate(-546.786 -263.361)" fill="#fff"/>
              <path id="Path_3480" data-name="Path 3480" d="M642.235,311.344l-.01-.017c.022,1.735-1.394,2.369-3.093,1.417a7.012,7.012,0,0,1-3.153-4.866v-.017l-.007-5.817,6.156,3.483Z" transform="translate(-617.751 -237.656)" fill="#fff"/>
              <path id="Path_3481" data-name="Path 3481" d="M554.123,354.311l.379.213.074,5.817-.039-.016c.022,1.735-1.342,2.369-3.041,1.417a6.392,6.392,0,0,1-3.105-4.866l-.019-.017-.074-5.817Z" transform="translate(-511.403 -276.208)" fill="#755126"/>
              <path id="Path_3482" data-name="Path 3482" d="M667.894,287.489l3.085,1.709.073,5.817L671,295c.022,1.734-1.35,2.369-3.048,1.417-.121-.068-.24-.142-.357-.221a6.032,6.032,0,0,1-.813-.665q-.18-.175-.349-.365a5.979,5.979,0,0,1-1.615-3.614l-.047-.016-.074-5.817.406.225.036.02Z" transform="translate(-652.693 -224.809)" fill="#755126"/>
              <path id="Path_3483" data-name="Path 3483" d="M186.59,565.754c-.027-.013-.054-.023-.081-.035l-.076-.032c-.028-.01-.057-.019-.086-.028l-.078-.025c-.03-.009-.06-.015-.09-.022l-.08-.019c-.031-.006-.063-.01-.094-.016l-.081-.013c-.032,0-.066-.006-.1-.009l-.083-.007c-.034,0-.069,0-.1,0h-.083c-.035,0-.072,0-.107.006l-.084,0-.111.014c-.029,0-.057.006-.086.011s-.077.014-.115.021l-.086.016c-.039.008-.079.019-.119.03l-.087.022c-.041.012-.083.026-.124.038l-.085.027c-.043.015-.087.032-.131.049l-.083.03c-.046.019-.093.04-.139.06l-.078.033c-.051.023-.1.049-.153.075l-.067.033q-.111.057-.223.122l-4.761-2.767a3.042,3.042,0,0,1,3.069-.3l4.761,2.767-.008,0c-.025-.014-.051-.027-.077-.04s-.049-.026-.074-.038" transform="translate(-64.831 -442.807)" fill="#755126"/>
              <path id="Path_3484" data-name="Path 3484" d="M201.528,568.905c-2.217,1.4-3.978,4.254-3.978,6.5a2.433,2.433,0,0,0,.846,2.044l.02.046c.013.027.027.052.04.078s.03.062.047.091.029.049.044.074.033.058.051.085.032.046.048.069.036.053.056.078.035.043.052.064.039.049.06.072.038.039.056.059.042.045.063.066.04.036.061.054.044.041.067.06.043.032.064.049.047.036.071.053.045.029.068.043.044.029.067.043l-4.761-2.767A3.018,3.018,0,0,1,193.313,573a9.473,9.473,0,0,1,4.3-7.446l4.761,2.767a6.622,6.622,0,0,0-.845.583" transform="translate(-83.525 -444.992)" fill="#755126"/>
              <path id="Path_3485" data-name="Path 3485" d="M177.02,586.263a3,3,0,0,1-3.136.258c-.022-.014-.046-.028-.068-.043s-.048-.035-.071-.053l-.064-.049c-.023-.019-.045-.039-.067-.06s-.041-.035-.06-.054-.042-.044-.064-.066-.038-.039-.057-.059-.04-.048-.059-.072-.036-.042-.053-.064-.037-.052-.055-.078-.033-.045-.048-.069-.034-.056-.051-.085-.03-.049-.044-.074-.031-.06-.046-.091-.027-.052-.04-.078-.013-.031-.02-.046c.769.576,1.99.531,3.366-.263,2.326-1.343,4.212-4.318,4.212-6.644s-1.886-3.123-4.212-1.78c-.079.045-.157.093-.234.142a6.625,6.625,0,0,1,.845-.583q.112-.065.223-.122l.067-.033c.051-.025.1-.051.153-.075l.078-.033c.046-.02.093-.041.139-.06l.082-.031c.044-.017.087-.034.131-.049l.085-.027.124-.039.087-.021c.04-.01.08-.021.119-.03l.086-.016c.038-.007.077-.016.115-.022l.086-.01.111-.014.084,0c.036,0,.072-.005.107-.006h.083c.035,0,.069,0,.1,0l.083.007c.033,0,.066,0,.1.009l.081.013c.032.005.063.009.094.016l.08.019c.03.007.061.013.09.022l.078.026.086.028.076.032c.027.011.054.022.081.035s.049.025.074.038.052.026.077.04a3.013,3.013,0,0,1,1.266,2.77,9.474,9.474,0,0,1-4.3,7.446" transform="translate(-58.144 -453.022)" fill="#755126"/>
              <path id="Path_3486" data-name="Path 3486" d="M13.574,476.394c-.027-.013-.054-.023-.082-.035s-.05-.022-.075-.032-.056-.019-.085-.028l-.079-.026c-.029-.008-.058-.015-.088-.022l-.082-.02-.091-.015-.085-.013-.094-.008c-.029,0-.057-.006-.087-.007s-.065,0-.1,0H12.54c-.034,0-.068,0-.1.006l-.089,0-.107.013c-.03,0-.06.006-.09.011s-.075.014-.112.021l-.089.017c-.039.009-.078.019-.117.029s-.058.014-.088.022-.083.025-.124.039l-.085.026c-.044.015-.088.032-.133.049l-.08.03c-.048.019-.1.041-.144.062l-.072.031c-.054.025-.109.052-.164.08l-.056.027q-.111.058-.223.122L5.9,474.01a3.044,3.044,0,0,1,3.069-.3l3.179,1.848,1.582.919-.007,0c-.026-.015-.052-.028-.079-.042s-.047-.026-.071-.037" transform="translate(145.068 -372.496)" fill="#755126"/>
              <path id="Path_3487" data-name="Path 3487" d="M26.793,481.417a8.13,8.13,0,0,0-2.257,5.033,2.249,2.249,0,0,0,1.24,2.269l.023.027c.019.021.039.041.058.061s.041.044.062.064.042.037.062.056.043.039.065.058.045.034.067.051.045.035.068.051.048.03.072.046.042.028.063.04l-4.761-2.767a3.019,3.019,0,0,1-1.258-2.766,9.475,9.475,0,0,1,4.3-7.446l4.761,2.767a8.327,8.327,0,0,0-2.565,2.457" transform="translate(126.373 -374.68)" fill="#755126"/>
              <path id="Path_3488" data-name="Path 3488" d="M3.609,496.9a3,3,0,0,1-3.132.26l-.072-.046c-.023-.016-.045-.034-.068-.051s-.045-.033-.067-.051-.044-.038-.065-.058-.042-.036-.062-.056S.1,496.86.08,496.839s-.039-.039-.058-.061L0,496.751a3.433,3.433,0,0,0,2.971-.489c2.326-1.343,4.212-4.318,4.212-6.644S5.3,486.5,2.971,487.838a8.267,8.267,0,0,0-1.955,1.61,8.329,8.329,0,0,1,2.565-2.457q.112-.065.223-.122l.056-.027c.055-.027.109-.055.164-.08l.072-.031c.048-.021.1-.043.145-.062l.08-.03c.045-.017.089-.034.133-.049l.085-.026c.042-.013.084-.027.125-.038s.059-.015.088-.022.079-.021.117-.029l.089-.017c.038-.007.075-.015.112-.021s.06-.008.09-.011l.107-.013.089,0c.034,0,.069-.005.1-.006h.088c.033,0,.066,0,.1,0s.058,0,.087.007l.095.008.085.013.091.015.082.02c.029.007.059.013.088.022l.079.026c.028.009.057.018.084.028s.051.021.076.032.055.022.081.035.048.025.072.037.053.027.079.042a3.014,3.014,0,0,1,1.266,2.77,9.3,9.3,0,0,1-2.041,5.407A8.02,8.02,0,0,1,3.609,496.9" transform="translate(152.15 -382.711)" fill="#755126"/>
              <path id="Path_3489" data-name="Path 3489" d="M3.4,497.215a8.017,8.017,0,0,1,2.257-4.987,8.163,8.163,0,0,1,1.955-1.587c2.326-1.343,4.212-.535,4.212,1.792s-1.886,5.214-4.212,6.557a3.049,3.049,0,0,1-2.971.4h0c-.766-.213-1.24-1.01-1.24-2.176m4.212,1.124a7.634,7.634,0,0,0,2.914-3.275,5.279,5.279,0,0,0,.549-2.188c0-1.913-1.551-2.568-3.463-1.464a7.463,7.463,0,0,0-2.537,2.572,5.826,5.826,0,0,0-.926,2.891c0,1.913,1.551,2.568,3.463,1.464" transform="translate(147.509 -385.536)" fill="#e5b13e"/>
              <path id="Path_3490" data-name="Path 3490" d="M10.416,508.721l5.451,1.08a7.633,7.633,0,0,1-2.914,3.275c-1.913,1.1-3.463.449-3.463-1.464a5.826,5.826,0,0,1,.926-2.891" transform="translate(142.168 -400.273)" fill="#9ee0e5"/>
              <path id="Path_3491" data-name="Path 3491" d="M9.45,494.677c1.913-1.1,3.463-.449,3.463,1.464a5.278,5.278,0,0,1-.549,2.188l-5.451-1.08a7.462,7.462,0,0,1,2.537-2.572" transform="translate(145.671 -388.801)" fill="#fff"/>
              <path id="Path_3492" data-name="Path 3492" d="M176.418,584.84c0-2.247,1.761-5.1,3.978-6.5.078-.049.156-.1.234-.142,2.326-1.343,4.212-.546,4.212,1.78s-1.886,5.3-4.212,6.644c-1.376.794-2.6.839-3.366.263h0a2.432,2.432,0,0,1-.846-2.044m4.212,1.032a7.633,7.633,0,0,0,2.914-3.275,5.28,5.28,0,0,0,.55-2.188c0-1.913-1.551-2.568-3.464-1.464a7.465,7.465,0,0,0-2.537,2.572,5.826,5.826,0,0,0-.926,2.891c0,1.912,1.551,2.568,3.463,1.464" transform="translate(-62.393 -454.425)" fill="#e5b13e"/>
              <path id="Path_3493" data-name="Path 3493" d="M183.434,596.18l5.451,1.08a7.633,7.633,0,0,1-2.914,3.275c-1.913,1.1-3.463.449-3.463-1.464a5.826,5.826,0,0,1,.926-2.891" transform="translate(-67.734 -469.088)" fill="#9ee0e5"/>
              <path id="Path_3494" data-name="Path 3494" d="M182.467,582.136c1.913-1.1,3.464-.449,3.464,1.464a5.279,5.279,0,0,1-.55,2.188l-5.451-1.08a7.464,7.464,0,0,1,2.537-2.572" transform="translate(-64.23 -457.616)" fill="#fff"/>
              <path id="Path_3495" data-name="Path 3495" d="M79.2,253.353l-.033-.112.033.112" transform="translate(63.977 -199.256)" fill="#f9f7d9"/>
              <path id="Path_3496" data-name="Path 3496" d="M79.358,252.861l-.029-.1.029.1" transform="translate(63.789 -198.879)" fill="#f9f7d9"/>
              <path id="Path_3497" data-name="Path 3497" d="M79.55,252.363l-.012-.039.012.039" transform="translate(63.553 -198.534)" fill="#f9f7d9"/>
              <path id="Path_3498" data-name="Path 3498" d="M80.308,249.873l0-.012,0,.012" transform="translate(62.631 -196.596)" fill="#f9f7d9"/>
              <path id="Path_3499" data-name="Path 3499" d="M80.83,248.151l0-.013,0,.013" transform="translate(61.997 -195.241)" fill="#f9f7d9"/>
              <path id="Path_3500" data-name="Path 3500" d="M81,247.578l-.008-.026.008.026" transform="translate(61.795 -194.78)" fill="#f9f7d9"/>
              <path id="Path_3501" data-name="Path 3501" d="M80.488,249.289l0-.007,0,.007" transform="translate(62.412 -196.141)" fill="#f9f7d9"/>
              <path id="Path_3502" data-name="Path 3502" d="M80.662,248.669l-.008-.025.008.025" transform="translate(62.203 -195.639)" fill="#f9f7d9"/>
              <path id="Path_3503" data-name="Path 3503" d="M299.794,378.793l-1,.578-.253.147-1.9-1.094a6.042,6.042,0,0,0,2.245.44,5.643,5.643,0,0,0,.9-.072" transform="translate(-202.975 -297.753)" fill="#f9f7d9"/>
              <g id="Group_678" data-name="Group 678" transform="translate(93.675 80.672)" opacity="0.19" style="mix-blend-mode: screen;isolation: isolate">
                <g id="Group_677" data-name="Group 677" transform="translate(0)">
                  <g id="Group_676" data-name="Group 676" clip-path="url(#clip-path-4)">
                    <path id="Path_3504" data-name="Path 3504" d="M299.794,378.793l-1,.578-.253.147-1.9-1.094a6.042,6.042,0,0,0,2.245.44,5.643,5.643,0,0,0,.9-.072" transform="translate(-296.65 -378.425)" fill="#f9f7d9"/>
                  </g>
                </g>
              </g>
              <path id="Path_3505" data-name="Path 3505" d="M213.251,53.829l.016.054.029.1v0l.033.113-9.521,5.533,6.067-3.576L209.84,56l-15.552,9.166L167.137,80.941a5.938,5.938,0,0,1-4-.668l-.357-.206c-.174-.107-.35-.225-.528-.355l-2.86-1.6L79.223,31.828l-.052-.03c.019-.979.04-1.807.065-2.492.006-.171.011-.322.025-.608.007-.148.014-.281.111-1.03L126.982,0l63.045,36.4,3.6,2.077,16.956,9.79a2.894,2.894,0,0,1,.878.8c.043.071.1.167.173.313.06.116.131.261.239.5.078.171.163.373.292.69.091.227.191.494.353.945.109.308.225.653.389,1.162l.031.1.008.026.031.1,0,.013.029.095.008.025.034.111,0,.007.035.117,0,.012c.039.131.081.271.126.423l.026.09.012.039" transform="translate(-70.148)" fill="#f2f4e6"/>
              <path id="Path_3506" data-name="Path 3506" d="M110.926,262.678l.034.058-6.067,3.576-9.519,5.532Z" transform="translate(28.766 -206.681)" fill="#d3af81"/>
              <g id="Group_681" data-name="Group 681" transform="translate(124.14 55.997)" opacity="0.19" style="mix-blend-mode: screen;isolation: isolate">
                <g id="Group_680" data-name="Group 680">
                  <g id="Group_679" data-name="Group 679" clip-path="url(#clip-path-5)">
                    <path id="Path_3507" data-name="Path 3507" d="M110.926,262.678l.034.058-6.067,3.576-9.519,5.532Z" transform="translate(-95.374 -262.678)" fill="#998675"/>
                  </g>
                </g>
              </g>
              <path id="Path_3508" data-name="Path 3508" d="M393.073,207.664l.69.4a7.285,7.285,0,0,1-1.611-.9l-80.754-45.2.033-.059,77.9,43.6,3.388,1.956q.179.111.356.206" transform="translate(-300.089 -127.391)" fill="#998675"/>
              <path id="Path_3509" data-name="Path 3509" d="M124.754,300.817l26.4-15.561,9.519-5.532-35.89,21.152a4.109,4.109,0,0,1-.95.257l.17-.1a3.791,3.791,0,0,0,.749-.218" transform="translate(-27.016 -220.094)" fill="#998675"/>
              <path id="Path_3510" data-name="Path 3510" d="M299.857,377.224l-.17.1a5.639,5.639,0,0,1-.9.072,6.037,6.037,0,0,1-2.245-.44l-.69-.4a5.938,5.938,0,0,0,4,.668" transform="translate(-202.869 -296.283)" fill="#d3af81"/>
              <g id="Group_684" data-name="Group 684" transform="translate(92.985 80.273)" opacity="0.19" style="mix-blend-mode: screen;isolation: isolate">
                <g id="Group_683" data-name="Group 683" transform="translate(0)">
                  <g id="Group_682" data-name="Group 682" clip-path="url(#clip-path-6)">
                    <path id="Path_3511" data-name="Path 3511" d="M299.857,377.224l-.17.1a5.639,5.639,0,0,1-.9.072,6.037,6.037,0,0,1-2.245-.44l-.69-.4a5.938,5.938,0,0,0,4,.668" transform="translate(-295.853 -376.556)" fill="#998675"/>
                  </g>
                </g>
              </g>
              <path id="Path_3512" data-name="Path 3512" d="M319.7,368.37l-3.388-1.956,2.86,1.6c.177.13.354.248.528.355" transform="translate(-227.069 -288.303)" fill="#d3af81"/>
              <g id="Group_687" data-name="Group 687" transform="translate(89.24 78.111)" opacity="0.19" style="mix-blend-mode: screen;isolation: isolate">
                <g id="Group_686" data-name="Group 686" transform="translate(0)">
                  <g id="Group_685" data-name="Group 685" clip-path="url(#clip-path-7)">
                    <path id="Path_3513" data-name="Path 3513" d="M319.7,368.37l-3.388-1.956,2.86,1.6c.177.13.354.248.528.355" transform="translate(-316.309 -366.414)" fill="#f9f7d9"/>
                  </g>
                </g>
              </g>
              <path id="Path_3514" data-name="Path 3514" d="M9.3,565.979h0l-.089-.145.083-.049,47.524-27.619.084.146.084.146L9.462,566.076l-.079.049Z" transform="translate(101.104 -423.44)" fill="#f9f7d9"/>
            </g>
          </g>
        </g>
      </g>
      <g id="Group_672" data-name="Group 672" transform="translate(1186 405.935)">
        <g id="Group_671" data-name="Group 671" clip-path="url(#clip-path-8)">
          <path id="Path_3358" data-name="Path 3358" d="M.01,28.443l.584-3.4L2.63,1.775,5.686,0,18.829,7.587l1.746,23.5.856,6.186a.506.506,0,0,1-.175.535L18.2,39.58l.011-.008a.381.381,0,0,1-.348.016l-.023-.009a.77.77,0,0,1-.11-.052,1.4,1.4,0,0,1-.617-.954l-.465-3.357L4.095,27.968l-3,1.742,0,0a.442.442,0,0,1-.451-.04,1,1,0,0,1-.11-.075l-.023-.018A1.339,1.339,0,0,1,.01,28.443m16.116,1.374L14.862,9.828,6.348,4.912,4.974,23.378Zm-14.878-.3,0,.013,0-.013m-.037.081-.008.012.008-.012m-.051.067-.006.005.006-.005" transform="translate(0 0.001)" fill="#ad8c59"/>
          <path id="Path_3359" data-name="Path 3359" d="M20.38,128.508c.059.368-.164.558-.5.424l-.023-.009a1.3,1.3,0,0,1-.711-.909l-2.756-17.221c-.059-.368.164-.558.5-.424l.022.009a1.3,1.3,0,0,1,.712.909Z" transform="translate(-1.501 -93.144)" fill="#ad8c59"/>
          <path id="Path_3360" data-name="Path 3360" d="M105.952,83.1a1.175,1.175,0,0,0,.5,1l.023.017c.334.252.652.213.711-.087l2.756-14.039a1.175,1.175,0,0,0-.5-1l-.022-.017c-.334-.252-.653-.213-.712.087Z" transform="translate(-105.008 -58.096)" fill="#ad8c59"/>
          <path id="Path_3361" data-name="Path 3361" d="M36.4,46.822,19.577,37.11,21.57,16.753l12.836,7.411Z" transform="translate(-18.007 -14.144)" fill="#ad8c59"/>
          <path id="Path_3362" data-name="Path 3362" d="M42.386,52.054,28.275,43.907,29.8,25.442l11.061,6.386Z" transform="translate(-25.349 -21.48)" fill="#3d5637"/>
          <path id="Path_3363" data-name="Path 3363" d="M99.426,54.055l-.607-.312V52.421l.607.312Z" transform="translate(-93.376 -44.257)" fill="#fff"/>
          <path id="Path_3364" data-name="Path 3364" d="M92.188,58.287l-.607-.312V56.653l.607.312Z" transform="translate(-85.011 -47.83)" fill="#fff"/>
          <path id="Path_3365" data-name="Path 3365" d="M88.76,60.291l-.52-.312V58.657l.52.312Z" transform="translate(-81.062 -49.522)" fill="#fff"/>
          <path id="Path_3366" data-name="Path 3366" d="M79.938,65.191l-.607-.312V63.557l.607.312Z" transform="translate(-70.853 -53.659)" fill="#fff"/>
          <path id="Path_3367" data-name="Path 3367" d="M72.613,69.644l-.52-.312V68.01l.52.312Z" transform="translate(-62.401 -57.418)" fill="#fff"/>
          <path id="Path_3368" data-name="Path 3368" d="M67.6,72.54l-.52-.312V70.906l.52.312Z" transform="translate(-56.61 -59.863)" fill="#fff"/>
          <path id="Path_3369" data-name="Path 3369" d="M59.337,77.218l-.607-.312V75.584l.607.312Z" transform="translate(-47.043 -63.812)" fill="#fff"/>
          <path id="Path_3370" data-name="Path 3370" d="M55.909,79.222l-.52-.312V77.589l.52.312Z" transform="translate(-43.095 -65.505)" fill="#fff"/>
          <path id="Path_3371" data-name="Path 3371" d="M49.872,82.562l-.607-.312V80.928l.607.312Z" transform="translate(-36.104 -68.325)" fill="#fff"/>
          <path id="Path_3372" data-name="Path 3372" d="M49.265,94.433l.52.312V93.423l-.52-.312Z" transform="translate(-36.017 -78.61)" fill="#fff"/>
          <path id="Path_3373" data-name="Path 3373" d="M56.5,90.2l.607.312V89.191l-.607-.312Z" transform="translate(-44.47 -75.037)" fill="#fff"/>
          <path id="Path_3374" data-name="Path 3374" d="M60.4,88.2l.52.312V87.186l-.52-.312Z" transform="translate(-48.886 -73.344)" fill="#fff"/>
          <path id="Path_3375" data-name="Path 3375" d="M68.752,83.3l.52.312V82.288l-.52-.312Z" transform="translate(-58.54 -69.209)" fill="#fff"/>
          <path id="Path_3376" data-name="Path 3376" d="M75.991,78.842l.52.312V77.832l-.52-.312Z" transform="translate(-66.906 -65.447)" fill="#fff"/>
          <path id="Path_3377" data-name="Path 3377" d="M81,75.946l.607.312V74.937L81,74.625Z" transform="translate(-72.784 -63.003)" fill="#fff"/>
          <path id="Path_3378" data-name="Path 3378" d="M89.354,71.27l.52.312V70.26l-.52-.312Z" transform="translate(-82.35 -59.054)" fill="#fff"/>
          <path id="Path_3379" data-name="Path 3379" d="M92.694,69.265l.52.312V68.255l-.52-.312Z" transform="translate(-86.211 -57.362)" fill="#fff"/>
          <path id="Path_3380" data-name="Path 3380" d="M98.819,65.925l.52.312V64.916l-.52-.312Z" transform="translate(-93.29 -54.542)" fill="#fff"/>
          <path id="Path_3381" data-name="Path 3381" d="M99.9,106.681l-.52-.312v-1.322l.52.312Z" transform="translate(-93.933 -88.687)" fill="#fff"/>
          <path id="Path_3382" data-name="Path 3382" d="M92.658,110.913l-.52-.312v-1.322l.52.312Z" transform="translate(-85.568 -92.26)" fill="#fff"/>
          <path id="Path_3383" data-name="Path 3383" d="M89.318,112.918l-.52-.312v-1.322l.52.312Z" transform="translate(-81.707 -93.953)" fill="#fff"/>
          <path id="Path_3384" data-name="Path 3384" d="M80.965,117.817l-.52-.312v-1.322l.52.312Z" transform="translate(-72.053 -98.089)" fill="#fff"/>
          <path id="Path_3385" data-name="Path 3385" d="M73.17,122.272l-.52-.312v-1.322l.52.312Z" transform="translate(-63.044 -101.85)" fill="#fff"/>
          <path id="Path_3386" data-name="Path 3386" d="M68.158,125.167l-.52-.312v-1.322l.52.312Z" transform="translate(-57.252 -104.294)" fill="#fff"/>
          <path id="Path_3387" data-name="Path 3387" d="M59.807,129.845l-.52-.312v-1.322l.52.312Z" transform="translate(-47.6 -108.243)" fill="#fff"/>
          <path id="Path_3388" data-name="Path 3388" d="M56.466,131.848l-.52-.312v-1.322l.52.312Z" transform="translate(-43.739 -109.935)" fill="#fff"/>
          <path id="Path_3389" data-name="Path 3389" d="M50.9,135.189l-.52-.312v-1.322l.52.312Z" transform="translate(-37.304 -112.756)" fill="#fff"/>
          <path id="Path_3390" data-name="Path 3390" d="M49.265,147.059l.607.312v-1.321l-.607-.312Z" transform="translate(-36.105 -123.04)" fill="#fff"/>
          <path id="Path_3391" data-name="Path 3391" d="M57.06,142.826l.52.312v-1.322l-.52-.312Z" transform="translate(-45.026 -119.467)" fill="#fff"/>
          <path id="Path_3392" data-name="Path 3392" d="M60.4,140.822l.52.312v-1.322l-.52-.312Z" transform="translate(-48.886 -117.775)" fill="#fff"/>
          <path id="Path_3393" data-name="Path 3393" d="M68.753,135.922l.607.312v-1.322l-.607-.312Z" transform="translate(-58.627 -113.638)" fill="#fff"/>
          <path id="Path_3394" data-name="Path 3394" d="M76.548,131.469l.607.312v-1.322l-.607-.312Z" transform="translate(-67.636 -109.878)" fill="#fff"/>
          <path id="Path_3395" data-name="Path 3395" d="M81.558,128.573l.607.312v-1.322l-.607-.312Z" transform="translate(-73.427 -107.433)" fill="#fff"/>
          <path id="Path_3396" data-name="Path 3396" d="M89.91,123.9l.52.312v-1.322l-.52-.312Z" transform="translate(-82.993 -103.484)" fill="#fff"/>
          <path id="Path_3397" data-name="Path 3397" d="M93.251,121.891l.52.312v-1.322l-.52-.312Z" transform="translate(-86.854 -101.792)" fill="#fff"/>
          <path id="Path_3398" data-name="Path 3398" d="M98.82,118.55l.607.312V117.54l-.607-.312Z" transform="translate(-93.377 -98.971)" fill="#fff"/>
          <path id="Path_3399" data-name="Path 3399" d="M99.376,91.71l.52.312V90.7l-.52-.312Z" transform="translate(-93.933 -76.311)" fill="#fff"/>
          <path id="Path_3400" data-name="Path 3400" d="M53.161,118.436l.52.312v-1.322l-.52-.312Z" transform="translate(-40.521 -98.875)" fill="#fff"/>
          <path id="Path_3401" data-name="Path 3401" d="M56.5,116.432l.607.312v-1.322l-.607-.312Z" transform="translate(-44.47 -97.183)" fill="#fff"/>
          <path id="Path_3402" data-name="Path 3402" d="M65.411,111.533l.52.312v-1.322l-.52-.312Z" transform="translate(-54.678 -93.047)" fill="#fff"/>
          <path id="Path_3403" data-name="Path 3403" d="M72.649,107.078l.52.312v-1.322l-.52-.312Z" transform="translate(-63.044 -89.286)" fill="#fff"/>
          <path id="Path_3404" data-name="Path 3404" d="M77.66,104.183l.52.312v-1.322l-.52-.312Z" transform="translate(-68.835 -86.842)" fill="#fff"/>
          <path id="Path_3405" data-name="Path 3405" d="M86.013,99.505l.52.312V98.5l-.52-.312Z" transform="translate(-78.488 -82.892)" fill="#fff"/>
          <path id="Path_3406" data-name="Path 3406" d="M89.354,97.5l.52.312V96.492l-.52-.312Z" transform="translate(-82.35 -81.201)" fill="#fff"/>
          <path id="Path_3407" data-name="Path 3407" d="M95.479,94.16l.52.312V93.151l-.52-.312Z" transform="translate(-89.429 -78.38)" fill="#fff"/>
        </g>
      </g>
      <g id="Group_1400" data-name="Group 1400">
        <g id="Group_694" data-name="Group 694" transform="translate(1072.957 315.135)">
          <g id="Group_693" data-name="Group 693" clip-path="url(#clip-path-9)">
            <path id="Path_3529" data-name="Path 3529" d="M132.647,72.986l-1.662,1.134s-.5.4-.648-.3a2.825,2.825,0,0,1-.061-1.08l1.51-2.13s1.651.448,1.636,1.264Z" transform="translate(-104.077 -56.417)" fill="#fab19c"/>
            <path id="Path_3530" data-name="Path 3530" d="M79.845,80.7s2.777,4.24,3.852,3.813a1.553,1.553,0,0,0,.766-2.016L77.921,70.83s-7.108-.322,1.924,9.866" transform="translate(-60.139 -56.596)" fill="#fff"/>
            <path id="Path_3531" data-name="Path 3531" d="M112.892,93.123s-1.484,2.16-2.57.149c0,0,3.679-10.9,4.1-10.745s1.616.011,1.214,1.39c0,0-2.5,8.248-2.746,9.206" transform="translate(-88.153 -65.942)" fill="#fff"/>
            <path id="Path_3532" data-name="Path 3532" d="M34.5,334.075s2.56,2.24,2.88,2.667c0,0,.854.48.587,1.227,0,0-1.067,1.76-4.107-.48l-1.387-.747s-1.44-.907-.64-1.76a6.782,6.782,0,0,0,.427-2.027s1.333-.96,2.24,1.12" transform="translate(-25.239 -265.871)" fill="#4d4d4d"/>
            <path id="Path_3533" data-name="Path 3533" d="M61.424,314.732s2.56,2.24,2.88,2.667c0,0,.853.48.587,1.227,0,0-1.067,1.76-4.107-.48L59.4,317.4s-1.44-.906-.64-1.76a6.765,6.765,0,0,0,.427-2.027s1.333-.961,2.24,1.12" transform="translate(-46.756 -250.415)" fill="#4d4d4d"/>
            <path id="Path_3534" data-name="Path 3534" d="M31.7,177.253l-1.474,14.881L29.467,207.5a2.71,2.71,0,0,1-3.1.054l-.559-14.123-.915-16.612s3.709-5.574,6.809.433" transform="translate(-19.892 -139.408)" fill="#5a7a8c"/>
            <path id="Path_3535" data-name="Path 3535" d="M58.633,157.865l-1.474,14.881L56.4,188.114a2.711,2.711,0,0,1-3.1.054l-.559-14.123-.915-16.613s3.709-5.574,6.809.433" transform="translate(-41.41 -123.916)" fill="#5a7a8c"/>
            <path id="Path_3536" data-name="Path 3536" d="M14.274,67.83l.015-.015q-.014-.151-.015-.306a2.817,2.817,0,0,1,1.5-2.581,8.4,8.4,0,0,1,4.015-1.987,10.932,10.932,0,0,1,1.251-.606,8.345,8.345,0,0,1,5.083-.132,3.649,3.649,0,0,1,3.343,1.334l-.045.069c.3.5.781,1.832-1.042,3.7a2.4,2.4,0,0,1-.031.723s-.11,9.049-.876,11.022c.021.029.042.056.062.085,0,0,1.982,6.115.864,7.151,0,0-7.012,2.418-8.739,2.566s-3.354-.3-3.862-2.122c0,0-.127-4.733.991-6.707l.077-.552c-.527-1.7-2.015-8.434-2.311-10.547a2.347,2.347,0,0,1-.281-1.1" transform="translate(-11.405 -49.433)" fill="#fff"/>
            <path id="Path_3537" data-name="Path 3537" d="M30.607,5.06A4.942,4.942,0,0,1,35.421,0a4.872,4.872,0,0,1,4.685,3.9,4.3,4.3,0,0,1-.246,3.355l-.066-.08a4.806,4.806,0,0,1-4.373,2.946,4.6,4.6,0,0,1-1.844-.385c-.235.325-.379.516-.379.516a5.462,5.462,0,0,1-2.155-3.088,5.258,5.258,0,0,1-.436-2.1" transform="translate(-24.457)" fill="#7a6135"/>
            <path id="Path_3538" data-name="Path 3538" d="M46.993,48.964l.049,2.319s-2.023,1.974-3.849.247l-.247-5.181Z" transform="translate(-34.317 -37.035)" fill="#fab19c"/>
            <path id="Path_3539" data-name="Path 3539" d="M47.028,50.99s-3.955-2.7-3.9-2.328a3.892,3.892,0,0,0,1.961,2.961c.687.275,1.8.4,1.937-.633" transform="translate(-34.462 -38.855)" fill="#ea977f"/>
            <path id="Path_3540" data-name="Path 3540" d="M35.841,14.3a3.737,3.737,0,0,1-.158-1.078,3.521,3.521,0,0,1,3.441-3.595,3.318,3.318,0,0,1,1.785.521,3.943,3.943,0,0,1,2.639,3.1s.123,2.151-.246,2.52c0,0-.737,3.564-2.581,4.056a6.369,6.369,0,0,1-4.363-2.95s-.492,0-.676-.246c-.168-.224-1-2.847.158-2.332" transform="translate(-28.157 -7.692)" fill="#fab19c"/>
            <path id="Path_3541" data-name="Path 3541" d="M6.038,91.809s-1.2,4.923-2.361,4.879a1.552,1.552,0,0,1-1.394-1.645L5,81.693s6.16-2.5,1.041,10.116" transform="translate(-1.825 -65.116)" fill="#fff"/>
            <path id="Path_3542" data-name="Path 3542" d="M41.082,6.01s-4.468,3.546-6.174,3.616-.116-.219-.116-.219L34.07,7.673S37.684.155,41.082,6.01" transform="translate(-27.224 -3.019)" fill="#7a6135"/>
            <path id="Path_3543" data-name="Path 3543" d="M31.392,83.145,23.08,85.26s-.939,8.015-2.457,8.164l-1.3,30.873s.939,1.012,1.59.8,9.277-.626,11.88-4.386l-.169-29.085s-1.337-6.325-1.23-8.477" transform="translate(-15.438 -66.437)" fill="#5e5c53"/>
            <path id="Path_3546" data-name="Path 3546" d="M27.531,77.428l.541-.2c-.526-.12-.706-3.84-2.963-4.066l-.353.33c2.029.2,2.264,3.936,2.775,3.936" transform="translate(-19.781 -58.461)" fill="#5e5c53"/>
            <path id="Path_3547" data-name="Path 3547" d="M65.848,67.355l.613-.23c-.02-.156-.489-4.115-2.746-4.115h-.506c2.029,0,2.634,4.31,2.639,4.346" transform="translate(-50.507 -50.347)" fill="#5e5c53"/>
            <g id="Group_1399" data-name="Group 1399" transform="matrix(-0.259, 0.966, -0.966, -0.259, 919.525, -5895.174)">
              <path id="Path_5476" data-name="Path 5476" d="M352.281,736.767v-3.551h-.623a7.853,7.853,0,0,0-10.222,0h-.623v3.551a2.16,2.16,0,0,0-.013.219c0,1.923,2.573,3.482,5.746,3.482s5.747-1.559,5.747-3.482a2.143,2.143,0,0,0-.013-.219" transform="translate(5626.311 -1388.66)" fill="#c7b299"/>
              <path id="Path_5477" data-name="Path 5477" d="M352.294,719.674c0,1.923-2.573,3.482-5.746,3.482s-5.747-1.559-5.747-3.482,2.573-3.482,5.747-3.482,5.746,1.559,5.746,3.482" transform="translate(5626.311 -1375.277)" fill="#e4c4ab"/>
              <path id="Path_5478" data-name="Path 5478" d="M376.592,736.612c0,.7-.936,1.267-2.091,1.267s-2.09-.567-2.09-1.267.936-1.267,2.09-1.267,2.091.567,2.091,1.267" transform="translate(5598.357 -1392.215)" fill="#a6947f"/>
            </g>
          </g>
        </g>
        <path id="Path_5614" data-name="Path 5614" d="M30.9,192.07l-.966-1.764s-.267-.582-.716-.024a2.827,2.827,0,0,0-.545.935l.379,2.583s1.674.35,2.032-.384Z" transform="translate(1050.048 163.284)" fill="#fab19c"/>
        <path id="Path_5615" data-name="Path 5615" d="M2.649,145.285s-2.03-1.81-2.649.389c0,0,6.086,9.855,6.464,9.614s1.575-.364.88-1.622c0,0-4.241-7.5-4.7-8.381" transform="translate(1072.957 199.605)" fill="#fff"/>
      </g>
      <g id="Group_1397" data-name="Group 1397" transform="translate(-5016.477 1002.396)">
        <path id="Path_5527" data-name="Path 5527" d="M888.753,812.628l-4.4,2.538-.521.3-2.232,1.294-.554.319-4.141,2.392-17.364-10.064,4.366-2.526.554-.319,2.232-1.288.519-.3,4.183-2.411Z" transform="translate(5183.209 -1449.055)" fill="#e4c4ab" fill-rule="evenodd"/>
        <path id="Path_5528" data-name="Path 5528" d="M909.928,829.288l-.521.3-2.232,1.294-.554.319-17.139-10.2.554-.319,2.232-1.288.519-.3Z" transform="translate(5157.635 -1463.177)" fill="#c7b299"/>
        <path id="Path_5529" data-name="Path 5529" d="M876.914,859.588v8.446L859.55,857.971v-8.446Z" transform="translate(5183.204 -1489.168)" fill="#a8835e" fill-rule="evenodd"/>
        <path id="Path_5530" data-name="Path 5530" d="M990.472,871.6v8.453l-4.9,2.823-2.246,1.3-4.7,2.718v-8.446l4.672-2.7,2.246-1.3Z" transform="translate(5081.491 -1508.028)" fill="#c7b299" fill-rule="evenodd"/>
        <path id="Path_5531" data-name="Path 5531" d="M1010.365,891.713l-3.185,1.836-.012-2.727,3.185-1.836Z" transform="translate(5057.111 -1522.875)" fill="#d3ccba"/>
      </g>
      <g id="Group_1398" data-name="Group 1398" transform="translate(-5037.224 971.132)">
        <path id="Path_5532" data-name="Path 5532" d="M1056.581,964.336l-4.4,2.538-.52.3-2.232,1.294-.553.319-4.141,2.392-17.364-10.064,4.366-2.526.554-.319,2.231-1.288.519-.3,4.183-2.411Z" transform="translate(5039.854 -1578.642)" fill="#e4c4ab" fill-rule="evenodd"/>
        <path id="Path_5533" data-name="Path 5533" d="M1077.756,981l-.521.3L1075,982.591l-.554.319-17.139-10.2.554-.319,2.232-1.288.519-.3Z" transform="translate(5014.279 -1592.764)" fill="#c7b299"/>
        <path id="Path_5534" data-name="Path 5534" d="M1044.742,1011.3v8.446l-17.363-10.063v-8.446Z" transform="translate(5039.848 -1618.755)" fill="#a8835e" fill-rule="evenodd"/>
        <path id="Path_5535" data-name="Path 5535" d="M1158.3,1023.313v8.453l-4.9,2.823-2.246,1.3-4.7,2.718v-8.446l4.672-2.7,2.246-1.3Z" transform="translate(4938.134 -1637.615)" fill="#c7b299" fill-rule="evenodd"/>
        <path id="Path_5536" data-name="Path 5536" d="M1178.193,1043.421l-3.185,1.836-.012-2.727,3.184-1.836Z" transform="translate(4913.755 -1652.462)" fill="#d3ccba"/>
        <path id="Path_5537" data-name="Path 5537" d="M1118.323,1035.17l-1.219.7-.553.321-1.163.672-4.3-2.494,1.219-.705.553-.319,1.165-.672Z" transform="translate(4968.347 -1645.614)" fill="#f5f5ed" fill-rule="evenodd"/>
      </g>
    </g>
    <g id="Group_1374" data-name="Group 1374" transform="translate(-4846.207 1194.247)">
      <path id="Path_5593" data-name="Path 5593" d="M1199.833,373.958v12.971l-16.473-9.547V364.41Z" transform="translate(4904.374 -1077.785)" fill="#a8835e" fill-rule="evenodd"/>
      <path id="Path_5594" data-name="Path 5594" d="M1149.655,373.958l-5.946,5.153-16.473-9.547,5.946-5.153Z" transform="translate(4954.551 -1077.785)" fill="#c7b299" fill-rule="evenodd"/>
      <path id="Path_5595" data-name="Path 5595" d="M1310.969,298.868l-5.227,1.5-16.473-9.547,5.227-1.5Z" transform="translate(4809.685 -1010.651)" fill="#c7b299" fill-rule="evenodd"/>
      <path id="Path_5596" data-name="Path 5596" d="M1350.08,393.241v12.978l-4.646,2.678-2.131,1.229-4.461,2.579V399.734l4.433-2.564,2.131-1.229Z" transform="translate(4765.364 -1103.561)" fill="#c7b299" fill-rule="evenodd"/>
      <path id="Path_5597" data-name="Path 5597" d="M1190.143,305.818l-2.117,1.222-4.667,2.7,11.221,6.5V303.261Z" transform="translate(4904.374 -1023.114)" fill="#d3ccba"/>
      <path id="Path_5598" data-name="Path 5598" d="M1289.293,303.13l-.024.014v12.982l5.252,3.044,4.454-2.572,2.117-1.229,4.667-2.692Z" transform="translate(4809.685 -1022.997)" fill="#b0a192"/>
    </g>
  </g>
</svg>
