<svg xmlns="http://www.w3.org/2000/svg" xmlns:xlink="http://www.w3.org/1999/xlink" width="63.335" height="118.041" viewBox="0 0 63.335 118.041">
  <defs>
    <clipPath id="clip-path">
      <rect id="Rectangle_514" data-name="Rectangle 514" width="3.717" height="16.101" fill="#cecdcd"/>
    </clipPath>
    <clipPath id="clip-path-2">
      <rect id="Rectangle_515" data-name="Rectangle 515" width="3.517" height="12.704" fill="none"/>
    </clipPath>
  </defs>
  <g id="Group_2758" data-name="Group 2758" transform="translate(-25.453 22.06)">
    <g id="Group_1769" data-name="Group 1769">
      <g id="Group_1435" data-name="Group 1435" transform="translate(0)">
        <g id="Group_1770" data-name="Group 1770">
          <path id="Path_5865" data-name="Path 5865" d="M18.977,39.35c1.665-6.457,7.981-11.692,14.109-11.692s9.747,5.235,8.083,11.692S33.188,51.041,27.06,51.041s-9.747-5.234-8.083-11.691m8.469,10.194c5.344,0,10.852-4.564,12.3-10.194s-1.7-10.2-7.048-10.2-10.852,4.564-12.3,10.2,1.7,10.194,7.048,10.194" transform="translate(32.358 -27.594)" fill="#878993" fill-rule="evenodd"/>
          <path id="Path_5866" data-name="Path 5866" d="M31,42.773c-.13.532.153.88.631.777a1.641,1.641,0,0,0,1.1-1.149c.13-.532-.152-.88-.63-.777A1.642,1.642,0,0,0,31,42.773" transform="translate(31.252 -30.385)" fill="#7d7983" fill-rule="evenodd"/>
          <path id="Path_5867" data-name="Path 5867" d="M31.469,42.8c-.074.3.086.5.359.442a.936.936,0,0,0,.626-.654c.074-.3-.086-.5-.359-.442a.934.934,0,0,0-.626.654" transform="translate(31.156 -30.49)" fill="#b9baba" fill-rule="evenodd"/>
          <path id="Path_5868" data-name="Path 5868" d="M31.515,40.188l.511-10.5-.173.029-.51,10.5Z" transform="translate(31.689 -28)" fill="#cbd1cc"/>
          <path id="Path_5869" data-name="Path 5869" d="M27.107,40.229,31.141,29.77l-.159-.032L26.948,40.2Z" transform="translate(36.091 -28.01)" fill="#cbd1cc"/>
          <path id="Path_5870" data-name="Path 5870" d="M23.3,40.576l7.071-9.154-.126-.09-7.071,9.153Z" transform="translate(39.883 -28.329)" fill="#cbd1cc"/>
          <path id="Path_5871" data-name="Path 5871" d="M20.551,41.2l9.254-6.744-.078-.137L20.472,41.06Z" transform="translate(42.607 -28.926)" fill="#cbd1cc"/>
          <path id="Path_5872" data-name="Path 5872" d="M19.194,42.013,29.517,38.49l-.022-.166L19.173,41.847Z" transform="translate(43.935 -29.728)" fill="#cbd1cc"/>
          <path id="Path_5873" data-name="Path 5873" d="M29.529,43.023l.038-.177-10.145-.125-.038.177Z" transform="translate(43.715 -30.608)" fill="#cbd1cc"/>
          <path id="Path_5874" data-name="Path 5874" d="M29.845,46.651l.094-.165-8.744-3.757-.094.166Z" transform="translate(41.97 -30.609)" fill="#cbd1cc"/>
          <path id="Path_5875" data-name="Path 5875" d="M30.432,49.818l.138-.134-6.288-6.935-.138.134Z" transform="translate(38.906 -30.613)" fill="#cbd1cc"/>
          <path id="Path_5876" data-name="Path 5876" d="M31.219,52.142l.165-.086-3.074-9.278-.165.087Z" transform="translate(34.891 -30.619)" fill="#cbd1cc"/>
          <path id="Path_5877" data-name="Path 5877" d="M32.154,53.316l.511-10.5-.173.029-.51,10.5Z" transform="translate(30.539 -30.626)" fill="#cbd1cc"/>
          <path id="Path_5878" data-name="Path 5878" d="M32.15,53.3l4.034-10.458-.159-.032L31.991,53.269Z" transform="translate(27.013 -30.626)" fill="#cbd1cc"/>
          <path id="Path_5879" data-name="Path 5879" d="M32.138,52.019l7.071-9.154-.126-.09-7.071,9.153Z" transform="translate(23.973 -30.619)" fill="#cbd1cc"/>
          <path id="Path_5880" data-name="Path 5880" d="M32.12,49.628l9.254-6.744-.078-.137-9.255,6.744Z" transform="translate(21.782 -30.613)" fill="#cbd1cc"/>
          <path id="Path_5881" data-name="Path 5881" d="M32.1,46.417l10.322-3.523-.022-.166L32.077,46.251Z" transform="translate(20.708 -30.609)" fill="#cbd1cc"/>
          <path id="Path_5882" data-name="Path 5882" d="M42.211,42.867l.038-.177L32.1,42.566l-.038.177Z" transform="translate(20.888 -30.577)" fill="#cbd1cc"/>
          <path id="Path_5883" data-name="Path 5883" d="M40.776,41.954l.094-.165-8.744-3.757-.094.166Z" transform="translate(22.296 -29.67)" fill="#cbd1cc"/>
          <path id="Path_5884" data-name="Path 5884" d="M38.292,41.148l.138-.134-6.288-6.935L32,34.212Z" transform="translate(24.757 -28.878)" fill="#cbd1cc"/>
          <path id="Path_5885" data-name="Path 5885" d="M35.061,40.544l.165-.086-3.074-9.278-.165.087Z" transform="translate(27.974 -28.299)" fill="#cbd1cc"/>
          <path id="Path_5886" data-name="Path 5886" d="M18.245,39.87c1.665-6.457,7.981-11.692,14.109-11.692S42.1,33.413,40.437,39.87,32.456,51.561,26.328,51.561s-9.747-5.234-8.083-11.691m8.469,10.194c5.344,0,10.852-4.564,12.3-10.194s-1.7-10.2-7.048-10.2-10.852,4.564-12.3,10.2,1.7,10.194,7.048,10.194" transform="translate(33.675 -27.698)" fill="#737383" fill-rule="evenodd"/>
          <path id="Path_5887" data-name="Path 5887" d="M31.314,43.69c.553.156,1.782-1.535,1.34-1.977a1.5,1.5,0,0,0-.862-.361A1.517,1.517,0,0,0,30.412,42.5c-.157.606.4,1.043.9,1.185" transform="translate(31.734 -30.333)" fill="#b9baba" fill-rule="evenodd"/>
          <path id="Path_5888" data-name="Path 5888" d="M30.964,43.768a1.481,1.481,0,0,0,1.324-1.1.8.8,0,0,0-.758-1.1,1.481,1.481,0,0,0-1.324,1.1.8.8,0,0,0,.758,1.1" transform="translate(32.329 -30.378)" fill="#f5f5ed" fill-rule="evenodd"/>
          <path id="Path_5889" data-name="Path 5889" d="M26.135,55.139a.863.863,0,0,0,.432-1.61L13.865,46.2A.863.863,0,1,0,13,47.689l12.7,7.334a.851.851,0,0,0,.43.116" transform="translate(51.733 -31.28)" fill="#7d7983"/>
          <path id="Path_5890" data-name="Path 5890" d="M46.063,60.523l1.723-.09c-.106-2.038-.317-12.425-.366-14.895a4.381,4.381,0,0,0-1.738-.591c.037,1.825.269,13.428.381,15.575" transform="translate(4.46 -31.048)" fill="#878993"/>
          <path id="Path_5891" data-name="Path 5891" d="M45.27,66.281c1.106.311,3.565-3.069,2.68-3.955a3,3,0,0,0-1.725-.722c-1.137-.14-2.446,1.094-2.757,2.305s.791,2.087,1.8,2.372" transform="translate(5.922 -34.384)" fill="#cbd1cc" fill-rule="evenodd"/>
          <path id="Path_5892" data-name="Path 5892" d="M44.57,66.44a2.959,2.959,0,0,0,2.647-2.192,1.607,1.607,0,0,0-1.515-2.2,2.962,2.962,0,0,0-2.647,2.2A1.606,1.606,0,0,0,44.57,66.44" transform="translate(7.115 -34.476)" fill="#737383" fill-rule="evenodd"/>
          <path id="Path_5893" data-name="Path 5893" d="M45.383,65.231a.783.783,0,0,0,.7-.58.425.425,0,0,0-.4-.581.783.783,0,0,0-.7.581.425.425,0,0,0,.4.58" transform="translate(6.718 -34.879)" fill="#31424c" fill-rule="evenodd"/>
          <path id="Path_5894" data-name="Path 5894" d="M32.345,42.772a.479.479,0,0,1,.243-.341l-.008-.014,14.391-8.038.842,1.507-13.85,7.734a.463.463,0,0,0-.022.058c-.414,2.434-2.155,12.676-2.433,14.7L29.8,58.142c.292-2.131,2.239-13.571,2.545-15.371" transform="translate(17.137 -28.939)" fill="#878993"/>
          <path id="Path_5895" data-name="Path 5895" d="M.9,22.935c-.44-.647-.516-1.362-.17-1.6L4.067,19.07c.346-.235.984.1,1.424.745s.515,1.362.169,1.6L2.325,23.68c-.346.235-.983-.1-1.423-.746" transform="translate(82.498 -25.861)" fill="#3b172d" fill-rule="evenodd"/>
          <path id="Path_5896" data-name="Path 5896" d="M12.969,27.882,12.43,17.546a2.359,2.359,0,0,1,2.249.059l11.857,6.846a1.471,1.471,0,0,1,.736,1.274V34.39a1.862,1.862,0,0,1-1,1.65l-.12.062Z" transform="translate(51.574 -25.52)" fill="#e3decc"/>
          <path id="Path_5897" data-name="Path 5897" d="M13.488,27.7v-7.81a1.5,1.5,0,0,1,2.243-1.3l11.312,6.531a1.5,1.5,0,0,1,.747,1.3v7.81a1.5,1.5,0,0,1-2.243,1.3L14.236,29a1.5,1.5,0,0,1-.748-1.3" transform="translate(50.209 -25.741)" fill="#f5f5ed"/>
          <path id="Path_5898" data-name="Path 5898" d="M31.653,55.442l.864-2.947.109-.844a1.581,1.581,0,0,1,1.323.052l11.968,6.971a.558.558,0,0,1,.267.648l-.746,2.837a1.3,1.3,0,0,1-.81.82l-.693-.6Z" transform="translate(17.263 -32.371)" fill="#e3decc"/>
          <path id="Path_5899" data-name="Path 5899" d="M32.64,54.69l.368-1.4a1.5,1.5,0,0,1,2.2-.912l10.8,6.293a1.5,1.5,0,0,1,.694,1.673l-.368,1.4a1.5,1.5,0,0,1-2.2.912l-10.8-6.293a1.5,1.5,0,0,1-.694-1.673" transform="translate(15.965 -32.499)" fill="#f5f5ed"/>
          <path id="Path_5900" data-name="Path 5900" d="M14.157,44.448l.007-.55L27.622,36.72l13.453,7.1-.01,1.11a.834.834,0,0,1-.414.713L28.137,52.935a1.028,1.028,0,0,1-1.032,0L14.827,45.642a1.367,1.367,0,0,1-.67-1.194" transform="translate(36.388 -29.407)" fill="#e3decc"/>
          <path id="Path_5901" data-name="Path 5901" d="M16.764,41.682l10.057-5.806a2.278,2.278,0,0,1,2.281,0l10.057,5.806a2.281,2.281,0,0,1,0,3.95L29.1,51.438a2.282,2.282,0,0,1-2.281,0L16.764,45.632a2.281,2.281,0,0,1,0-3.95" transform="translate(35.992 -29.177)" fill="#f5f5ed"/>
          <path id="Path_5902" data-name="Path 5902" d="M32.582,72.455l2.894-1.237a.816.816,0,0,1,.818,0l5.544,2.825c0,.25.04.659-.118.751l-2.74,1.581a.816.816,0,0,1-.818,0L32.683,73.18c-.134-.078-.1-.466-.1-.725" transform="translate(20.885 -36.287)" fill="#737383"/>
          <path id="Path_5903" data-name="Path 5903" d="M32.684,72.143l2.793-1.613a.816.816,0,0,1,.818,0l5.426,3.164a.238.238,0,0,1,0,.412l-2.74,1.581a.816.816,0,0,1-.818,0l-5.48-3.195a.2.2,0,0,1,0-.35" transform="translate(20.884 -36.15)" fill="#878993"/>
          <path id="Path_5904" data-name="Path 5904" d="M44.746,65.463l2.894-1.237a.816.816,0,0,1,.818,0L54,67.05c0,.25.04.659-.118.751l-2.74,1.581a.82.82,0,0,1-.818,0l-5.48-3.195c-.134-.078-.1-.466-.1-.725" transform="translate(-1.009 -34.888)" fill="#737383"/>
          <path id="Path_5905" data-name="Path 5905" d="M44.849,65.151l2.793-1.613a.816.816,0,0,1,.818,0L53.886,66.7a.239.239,0,0,1,0,.412L51.147,68.7a.817.817,0,0,1-.818,0L44.849,65.5a.2.2,0,0,1,0-.35" transform="translate(-1.011 -34.751)" fill="#878993"/>
          <path id="Path_5906" data-name="Path 5906" d="M27.793,71.068l1.723-.09c-.106-2.038-.317-12.425-.366-14.895a4.382,4.382,0,0,0-1.737-.591c.036,1.825.268,13.428.38,15.575" transform="translate(37.344 -33.158)" fill="#878993"/>
          <path id="Path_5907" data-name="Path 5907" d="M27,76.826c1.106.311,3.564-3.069,2.68-3.955a3,3,0,0,0-1.725-.722c-1.137-.14-2.447,1.094-2.757,2.305s.79,2.087,1.8,2.372" transform="translate(38.807 -36.493)" fill="#cbd1cc" fill-rule="evenodd"/>
          <path id="Path_5908" data-name="Path 5908" d="M26.3,76.985a2.959,2.959,0,0,0,2.647-2.192A1.607,1.607,0,0,0,27.433,72.6a2.964,2.964,0,0,0-2.647,2.195A1.606,1.606,0,0,0,26.3,76.985" transform="translate(39.998 -36.585)" fill="#737383" fill-rule="evenodd"/>
          <path id="Path_5909" data-name="Path 5909" d="M27.113,75.775a.783.783,0,0,0,.7-.58.425.425,0,0,0-.4-.581.782.782,0,0,0-.7.581.424.424,0,0,0,.4.58" transform="translate(39.602 -36.989)" fill="#31424c" fill-rule="evenodd"/>
          <path id="Path_5910" data-name="Path 5910" d="M5.567,50.584l1.647-.2c0-2.041.55-20.06.63-22.528a.428.428,0,0,1,.148-.313c1.12-.971,4.9-3.306,4.914-3.7a1.277,1.277,0,0,0-.787-1.22c-.529.482-4.8,3.487-5.774,4.172a.481.481,0,0,0-.206.381C6.08,29,5.567,48.433,5.567,50.584" transform="translate(71.428 -26.587)" fill="#878993"/>
          <path id="Path_5911" data-name="Path 5911" d="M15.012,54.393a.479.479,0,0,1,.243-.341l-.008-.014L29.639,46l.842,1.507L16.63,55.242a.464.464,0,0,0-.022.058c-.414,2.434-2.155,12.676-2.433,14.7l-1.709-.235c.293-2.131,2.24-13.571,2.546-15.371" transform="translate(48.336 -31.264)" fill="#878993"/>
          <path id="Path_5912" data-name="Path 5912" d="M38.051,24.2c-1.233,1.689-4.837,10.685-4.439,10.852.534.224,1.642.544,2.159.782,1.368-1.871,5.122-6.565,5.833-10.134.111-.558-2.493-2.953-3.553-1.5" transform="translate(20.317 -26.81)" fill="#efefef"/>
          <path id="Path_5913" data-name="Path 5913" d="M41.144,41.843c.726.928,1.506-.153,2.751-1.126s2.482-1.471,1.757-2.4-2.324-.892-3.568.082-1.665,2.516-.939,3.444" transform="translate(10.293 -29.592)" fill="#ffb8b7"/>
          <path id="Path_5914" data-name="Path 5914" d="M36.548,17.97c-.673,2.173-2.244,7.443-2.949,8.86-1.355-.239-1.876-4-3.23-4.239a65.255,65.255,0,0,1,1.193-8.84c.4-1.953,5.656,2.054,4.986,4.219" transform="translate(27.888 -24.707)" fill="#efefef"/>
          <path id="Path_5915" data-name="Path 5915" d="M53.568,71.511c4.051-3.573,3.407-4.042,2.969-5.2-1.681-4.444-4.341.594-6.743,2-8.515,4.976.359,6.214,3.773,3.2" transform="translate(-5.038 -34.969)" fill="#604f56"/>
          <path id="Path_5916" data-name="Path 5916" d="M42.433,62.556A4.629,4.629,0,0,0,45.5,64.427c1.437.422,2.864.625,2.9-.887.332-13.564,2.186-4.668,1.866-14.559,0,0-4.5-3.231-4.607-2.1,0,0-3.459,9.3-3.225,15.674" transform="translate(4.552 -31.392)" fill="#0e362e"/>
          <path id="Path_5917" data-name="Path 5917" d="M23.7,42.627a1.794,1.794,0,0,0-.392.3,3.219,3.219,0,0,0-1.4,3.07c.167,2.094,2.214,3.8,3.317,3.307,9.278-4.122,11.57-3.112,17.045-6.57a1.816,1.816,0,0,0,.779-2.006l-1.192-4.444a1.824,1.824,0,0,0-2.28-1.273C33.5,36.79,28.3,40.045,23.7,42.627" transform="translate(28.159 -29.049)" fill="#0e362e"/>
          <path id="Path_5918" data-name="Path 5918" d="M45.442,76.577c4.051-3.573,3.407-4.042,2.969-5.2-1.681-4.444-4.341.594-6.743,2-8.515,4.976.359,6.214,3.773,3.2" transform="translate(9.588 -35.982)" fill="#604f56"/>
          <path id="Path_5919" data-name="Path 5919" d="M21.8,49.559c-.625.906-1.51,1.5-1.094,3.37.444,1.985,2.657,3.254,3.69,2.631,5.937-3.583,9.57-4.507,13.683-7.45A5.94,5.94,0,0,0,40.426,42l-1.048-4.733a25.083,25.083,0,0,0-2.325,1.3c-4.878,3.348-10.606,7.282-15.253,11" transform="translate(31.744 -29.516)" fill="#31424c"/>
          <path id="Path_5920" data-name="Path 5920" d="M37.553,69.091c.394,1.289,1.926,1.65,2.761,1.9,1.385.422,2.817-1.332,2.853-2.844.32-13.564,1.162-7.625.1-17.517,0,0-6.548,2.779-6.548,3.922,0,7.423.606,8.158.832,14.534" transform="translate(15.626 -32.191)" fill="#31424c"/>
          <path id="Path_5921" data-name="Path 5921" d="M24.165,10.352,29,12.626l.445-4.305L24.393,6.51Z" transform="translate(40.012 -23.363)" fill="#ffb8b7"/>
          <path id="Path_5922" data-name="Path 5922" d="M24.581,11.312A5.931,5.931,0,0,0,25.8,14.663c.666.187,2.483-1.161,3.732-1.248,0,0-4.488-2.084-4.948-2.1" transform="translate(39.596 -24.324)" fill="#ffb8b7"/>
          <path id="Path_5923" data-name="Path 5923" d="M18.272,27.716a41.809,41.809,0,0,1-.866-9.817c0-.91.171-5.078.642-5.832a3.97,3.97,0,0,1,2.874-1.517,3.8,3.8,0,0,1,1.752.61l1.076,2.607a.686.686,0,0,0,.878.38l2.993-1.14c5.532,2.248,5.283,3.926,5.683,5.916a2.988,2.988,0,0,1-.381,2.129l-1.984,3.294c-.806,4.19.37,8.346,1.06,12.791a16.087,16.087,0,0,1-8.3.03c-2.029-.55-3.831-2.29-5.24-3.849Z" transform="translate(41.504 -24.171)" fill="#fff"/>
          <g id="Group_1430" data-name="Group 1430" transform="translate(70.121 -2.633)" opacity="0.26">
            <g id="Group_1429" data-name="Group 1429" transform="translate(0)">
              <g id="Group_1428" data-name="Group 1428" clip-path="url(#clip-path)">
                <path id="Path_5924" data-name="Path 5924" d="M19.541,25.258c1.022,1.3,2.9-2.178,2.865-.508l-1.394,2.344c-.791,4.174.558,8.334,1.06,12.791-.856.18-.835.282-1.651.5-.136-.9-1.249-5.933-1.311-6.844-.2-2.9-1.04-6.441.432-8.286" transform="translate(-18.689 -24.286)" fill="#cecdcd"/>
              </g>
            </g>
          </g>
          <path id="Path_5925" data-name="Path 5925" d="M12.511,25.316a69.371,69.371,0,0,0,4.455,6.729c1.225-.389,2.349-2.122,3.574-2.512-.523-2.841-3.432-6.308-4.475-10.908-.39-1.717-4.447,4.89-3.554,6.691" transform="translate(58.343 -25.73)" fill="#fff"/>
          <path id="Path_5926" data-name="Path 5926" d="M29.483,23.931c-.327,1.2-1.46.486-2.985.071s-2.864-.374-2.537-1.575,1.828-1.837,3.352-1.421,2.5,1.725,2.169,2.925" transform="translate(40.114 -26.238)" fill="#ffb8b7"/>
          <path id="Path_5927" data-name="Path 5927" d="M23.077,30.506c-1.29-1.645-9.259-7.427-9.672-7.3a1.753,1.753,0,0,0-1.341,1.865c1.429,1.825,4.6,7.629,8.166,8.37,1.246.259,3.956-1.517,2.847-2.933" transform="translate(55.805 -26.702)" fill="#fff"/>
          <path id="Path_5928" data-name="Path 5928" d="M21.381,2.064A3.668,3.668,0,0,1,26.5.658h0c2.245.71,2.521,3.315,2.521,3.776,0,3.146-4.695,5.656-6.537,3.725a4.172,4.172,0,0,1-1.323-3.1,3.965,3.965,0,0,1,.223-3" transform="translate(43.009 -22.079)" fill="#3b172d"/>
          <path id="Path_5929" data-name="Path 5929" d="M23.215,6.474c-.226,2.364,1.646,4.42,2.834,4.592C27.83,11.324,29.477,9.46,29.7,7.1s-1.042-4.42-2.833-4.592-3.428,1.605-3.655,3.969" transform="translate(40.503 -22.559)" fill="#ffc9b7"/>
          <path id="Path_5930" data-name="Path 5930" d="M22.375,8.84a.954.954,0,0,0,.6.975c.378.055.728-.341.776-.843a.827.827,0,0,0-.6-.975c-.379-.037-.728.341-.776.843" transform="translate(47.134 -23.66)" fill="#ffc9b7"/>
          <path id="Path_5931" data-name="Path 5931" d="M21.241,3.593c.842-1.6,2.4-4.1,4.442-3.5a.329.329,0,0,1,.363-.018c4.26,2.292,2.19,3.993,1.06,5.907-.068.115-.3-1.794-.486-2.041-.434.571-.024,1.718-.12,1.629a4.436,4.436,0,0,1-1.169-1.8,2.477,2.477,0,0,1-1.77.6c-.094-.01.012-.156.221-.41a4.83,4.83,0,0,1-1.871-.072c-.106-.077,1.065-.286,1.325-.955-.309-.03-2.056.774-1.993.655" transform="translate(43.184 -22.06)" fill="#3b172d"/>
          <path id="Path_5932" data-name="Path 5932" d="M1.136,53.981C2.8,47.524,9.117,42.289,15.245,42.289s9.747,5.235,8.083,11.692S15.347,65.672,9.219,65.672-.528,60.437,1.136,53.981M9.6,64.175c5.344,0,10.852-4.564,12.3-10.194s-1.7-10.2-7.048-10.2-10.852,4.564-12.3,10.2S4.261,64.175,9.6,64.175" transform="translate(64.47 -30.521)" fill="#878993" fill-rule="evenodd"/>
          <path id="Path_5933" data-name="Path 5933" d="M13.159,57.4c-.13.532.153.88.631.777a1.641,1.641,0,0,0,1.1-1.149c.13-.532-.152-.88-.63-.777a1.642,1.642,0,0,0-1.1,1.149" transform="translate(63.365 -33.312)" fill="#7d7983" fill-rule="evenodd"/>
          <path id="Path_5934" data-name="Path 5934" d="M13.629,57.43c-.074.3.086.5.359.442a.936.936,0,0,0,.626-.654c.074-.3-.086-.5-.359-.442a.934.934,0,0,0-.626.654" transform="translate(63.267 -33.418)" fill="#b9baba" fill-rule="evenodd"/>
          <path id="Path_5935" data-name="Path 5935" d="M13.675,54.819l.511-10.5-.173.029-.51,10.5Z" transform="translate(63.801 -30.927)" fill="#cbd1cc"/>
          <path id="Path_5936" data-name="Path 5936" d="M9.266,54.86,13.3,44.4l-.159-.032L9.107,54.827Z" transform="translate(68.203 -30.938)" fill="#cbd1cc"/>
          <path id="Path_5937" data-name="Path 5937" d="M5.458,55.207l7.071-9.154-.126-.09L5.331,55.117Z" transform="translate(71.995 -31.257)" fill="#cbd1cc"/>
          <path id="Path_5938" data-name="Path 5938" d="M2.71,55.827l9.254-6.744-.078-.137L2.631,55.691Z" transform="translate(74.719 -31.853)" fill="#cbd1cc"/>
          <path id="Path_5939" data-name="Path 5939" d="M1.353,56.644l10.322-3.523-.022-.166L1.332,56.478Z" transform="translate(76.047 -32.655)" fill="#cbd1cc"/>
          <path id="Path_5940" data-name="Path 5940" d="M11.688,57.654l.038-.177L1.582,57.352l-.038.177Z" transform="translate(75.827 -33.535)" fill="#cbd1cc"/>
          <path id="Path_5941" data-name="Path 5941" d="M12,61.282l.094-.165L3.354,57.36l-.094.166Z" transform="translate(74.082 -33.537)" fill="#cbd1cc"/>
          <path id="Path_5942" data-name="Path 5942" d="M12.591,64.449l.138-.134L6.44,57.379l-.138.134Z" transform="translate(71.018 -33.54)" fill="#cbd1cc"/>
          <path id="Path_5943" data-name="Path 5943" d="M13.378,66.773l.165-.086-3.074-9.278L10.3,57.5Z" transform="translate(67.003 -33.546)" fill="#cbd1cc"/>
          <path id="Path_5944" data-name="Path 5944" d="M14.313,67.947l.511-10.5-.173.029-.51,10.5Z" transform="translate(62.651 -33.554)" fill="#cbd1cc"/>
          <path id="Path_5945" data-name="Path 5945" d="M14.309,67.933l4.034-10.458-.159-.032L14.15,67.9Z" transform="translate(59.126 -33.553)" fill="#cbd1cc"/>
          <path id="Path_5946" data-name="Path 5946" d="M14.3,66.65,21.367,57.5l-.127-.09L14.17,66.56Z" transform="translate(56.086 -33.546)" fill="#cbd1cc"/>
          <path id="Path_5947" data-name="Path 5947" d="M14.28,64.259l9.254-6.744-.078-.137L14.2,64.122Z" transform="translate(53.895 -33.54)" fill="#cbd1cc"/>
          <path id="Path_5948" data-name="Path 5948" d="M14.257,61.048,24.58,57.525l-.022-.166L14.236,60.881Z" transform="translate(52.821 -33.536)" fill="#cbd1cc"/>
          <path id="Path_5949" data-name="Path 5949" d="M24.37,57.5l.038-.177L14.264,57.2l-.038.177Z" transform="translate(53 -33.504)" fill="#cbd1cc"/>
          <path id="Path_5950" data-name="Path 5950" d="M22.935,56.585l.094-.165-8.744-3.757-.094.166Z" transform="translate(54.408 -32.597)" fill="#cbd1cc"/>
          <path id="Path_5951" data-name="Path 5951" d="M20.452,55.779l.138-.134L14.3,48.709l-.138.134Z" transform="translate(56.869 -31.806)" fill="#cbd1cc"/>
          <path id="Path_5952" data-name="Path 5952" d="M17.221,55.175l.165-.086L14.311,45.81l-.165.087Z" transform="translate(60.087 -31.226)" fill="#cbd1cc"/>
          <path id="Path_5953" data-name="Path 5953" d="M.4,54.5c1.665-6.457,7.981-11.692,14.109-11.692S24.261,48.044,22.6,54.5,14.616,66.192,8.488,66.192-1.259,60.957.4,54.5M8.874,64.695c5.344,0,10.852-4.564,12.3-10.194s-1.7-10.2-7.048-10.2S3.277,48.87,1.825,54.5s1.7,10.194,7.048,10.194" transform="translate(65.786 -30.625)" fill="#737383" fill-rule="evenodd"/>
          <path id="Path_5954" data-name="Path 5954" d="M13.473,58.321c.553.156,1.782-1.535,1.34-1.977a1.5,1.5,0,0,0-.862-.361,1.517,1.517,0,0,0-1.379,1.153c-.157.606.4,1.043.9,1.185" transform="translate(63.847 -33.26)" fill="#b9baba" fill-rule="evenodd"/>
          <path id="Path_5955" data-name="Path 5955" d="M13.123,58.4a1.481,1.481,0,0,0,1.324-1.1.8.8,0,0,0-.758-1.1,1.481,1.481,0,0,0-1.324,1.1.8.8,0,0,0,.758,1.1" transform="translate(64.442 -33.306)" fill="#f5f5ed" fill-rule="evenodd"/>
          <path id="Path_5956" data-name="Path 5956" d="M83.972,105.43c-1.917.655-3.248-.315-3.169-1.492.257-3.832,2.541-1.338,4.327-2.115,4.3-1.871,4.084.146,3.27,1.073a11.288,11.288,0,0,1-4.428,2.534" transform="translate(-48.575 -13.279)" fill="#7d7983"/>
          <path id="Path_5957" data-name="Path 5957" d="M78.927,109.954c-1.917.655-3.248-.315-3.169-1.492.257-3.832,2.541-1.338,4.327-2.114,4.3-1.872,4.084.145,3.27,1.072a11.287,11.287,0,0,1-4.428,2.534" transform="translate(-39.494 -14.184)" fill="#7d7983"/>
          <path id="Path_5958" data-name="Path 5958" d="M89.838,79.379c-.69,5.612-1.669,13.189-1.669,17.424,0,.313,1.612-.307,1.612-.1,0,1.077-.525,1.329-2.117,1.681-1.136.251-2.229.4-2.488-2.343-.365-3.988-2.119-11.866.042-18.369.243-.813,4.966-1.093,4.621,1.712" transform="translate(-52.244 -8.489)" fill="#cbadae"/>
          <path id="Path_5959" data-name="Path 5959" d="M84.324,83.936c-.69,5.612-1.669,13.189-1.669,17.424,0,.313,1.612-.307,1.612-.1,0,1.077-.525,1.329-2.117,1.681-1.136.251-2.229.4-2.488-2.342-.365-3.989-2.119-11.867.042-18.37.243-.813,4.966-1.093,4.621,1.712" transform="translate(-42.319 -9.4)" fill="#cbadae"/>
          <path id="Path_5960" data-name="Path 5960" d="M77.765,106.714l-.268.894a.977.977,0,0,0,1.4.778l.238-.067a1.428,1.428,0,0,0,.99-1.761l-.183-.654c0,.161-1.014.148-1.769-.2-.582-.3-1.118-.09-.756.442.169.25.433.285.346.574" transform="translate(-37.084 -14.182)" fill="#7d7983"/>
          <path id="Path_5961" data-name="Path 5961" d="M83.332,102.294l-.268.894a.977.977,0,0,0,1.4.778l.238-.067a1.428,1.428,0,0,0,.99-1.761l-.183-.654c0,.161-1.014.148-1.769-.2-.582-.3-1.118-.09-.756.442.169.25.433.285.346.574" transform="translate(-47.104 -13.297)" fill="#7d7983"/>
          <path id="Path_5962" data-name="Path 5962" d="M97.7,55.388c1.239.066.778,1.392.689,3.053s.229,3.029-1.01,2.962-2.171-1.466-2.082-3.128,1.165-2.954,2.4-2.888" transform="translate(-69.834 -4.142)" fill="#ffb8b7"/>
          <path id="Path_5963" data-name="Path 5963" d="M96.121,40.223c-.006,2.2-3.028,11.688-3.452,11.852-.923.357-1.511.452-2.017-.322.9-4.765.267-9.881,1.919-13.712.238-.551,3.556.289,3.55,2.182" transform="translate(-63.705 -0.639)" fill="#cb6a6e"/>
          <path id="Path_5964" data-name="Path 5964" d="M87.7,74.489c1.149-3.7,1.512-15.964.492-17.4-.43-.6-5.132,1.747-5.729,1.793-.566,4.311.569,12.048,1.242,15.6.19.886,3.145,2.74,3.995,0" transform="translate(-49.696 -4.464)" fill="#ffc9b7"/>
          <path id="Path_5965" data-name="Path 5965" d="M89.965,69.531c-.473,1.233-.511,2.536-2.466,3.318-2.079.833-4.588-.63-4.54-2.1.218-6.578-2.8-13.635-1.515-19.625l9.7-7.731c.058,1.056.19,2.133.148,3.243-.269,7.212-.585,15.682-1.327,22.895" transform="translate(-51.262 -1.743)" fill="#f8f7f4"/>
          <path id="Path_5966" data-name="Path 5966" d="M87.848,94.056A2.592,2.592,0,0,1,86.5,95.446c-1.457.573-3.037-.952-3.021-2.423.145-13.194-.746-8.237-.054-17.833,0,0,6.592-.125,6.551.986-.267,7.212-1.653,11.7-2.129,17.881" transform="translate(-51.568 -8.104)" fill="#f8f7f4"/>
          <path id="Path_5967" data-name="Path 5967" d="M93.369,32.838c-.837,1.952-2.807,6.691-3.613,7.94-1.31-.338-1.473-4.36-2.785-4.7a51.77,51.77,0,0,1,1.844-7.573c.55-1.771,5.388,2.386,4.554,4.331" transform="translate(-58.105 1.321)" fill="#cb6a6e"/>
          <path id="Path_5968" data-name="Path 5968" d="M83.493,79.083c1.149-3.7,1.512-15.963.492-17.4-.43-.6-5.132,1.747-5.729,1.793-.566,4.311.569,12.049,1.242,15.6.19.886,3.145,2.74,3.995,0" transform="translate(-42.129 -5.383)" fill="#ffc9b7"/>
          <path id="Path_5969" data-name="Path 5969" d="M86.445,75.191c-.473,1.233-.219,2.251-2.174,3.033-2.079.833-4.556-.628-4.54-2.1C79.875,62.93,76.224,61.087,77.8,51.9h8.413c.058,1.055.4,4.7.4,5.815,0,5.5-.159,12.612-.159,17.478" transform="translate(-43.588 -3.444)" fill="#fff"/>
          <path id="Path_5970" data-name="Path 5970" d="M82.4,98.8a2.589,2.589,0,0,1-1.346,1.389,2.243,2.243,0,0,1-2.868-2.269c.144-13.195-1.059-6.861-.367-16.456,0,0,6.752-1.655,6.711-.545-.268,7.212-1.653,11.7-2.129,17.881" transform="translate(-41.671 -9.175)" fill="#fff"/>
          <path id="Path_5971" data-name="Path 5971" d="M89.983,18.209c-.266,1.7-1.066,4.9-1.609,5.444-1.94,1.94-5.7-.766-6.986-2.989-.574-.993-1.109-5.41,3.864-5.94,4.164-.443,4.934,2.183,4.73,3.485" transform="translate(-49.898 4.003)" fill="#b9baba"/>
          <path id="Path_5972" data-name="Path 5972" d="M87.51,28.936l-3.522-.776-.4-4.432,4.373,1.226Z" transform="translate(-49.897 2.192)" fill="#ffc9b7"/>
          <path id="Path_5973" data-name="Path 5973" d="M87.627,19.966a9.385,9.385,0,0,1-.134,3.262c-.478,1.067-2.114,1.367-2.783,1.464-1.834.266-3.528-1.653-3.761-4.085s1.072-4.55,2.916-4.727,3.529,1.653,3.763,4.086" transform="translate(-47.497 3.764)" fill="#ffc9b7"/>
          <path id="Path_5974" data-name="Path 5974" d="M88.61,17.055c.862,5.016-1.457,6.3-3.321,6.556-2.727.373-7.152-5.987.774-8.074a2.984,2.984,0,0,1,3.412,1.979c.085.187.227.747.11.592a5.2,5.2,0,0,0-.977-1.053" transform="translate(-49.951 3.849)" fill="#b9baba"/>
          <path id="Path_5975" data-name="Path 5975" d="M78.246,40.7c-.265-1.245-.472-6.674-.811-8.778-.235-1.463.8-5.581,3.124-5.581a13.735,13.735,0,0,1,1.981.47l3.421,1.5C89.377,29.85,90.4,31.467,90.4,34.1l.414,7.59c-.722,4.313-.269,4.355.092,7.293-.929.209-5.348,2.98-8.961,1.457-3.68-1.551-4.19-2.573-4.192-2.729Z" transform="translate(-47.893 1.669)" fill="#cb8689"/>
          <g id="Group_1433" data-name="Group 1433" transform="translate(39.498 39.113)" opacity="0.26">
            <g id="Group_1432" data-name="Group 1432">
              <g id="Group_1431" data-name="Group 1431" clip-path="url(#clip-path-2)">
                <path id="Path_5976" data-name="Path 5976" d="M78.16,42.393c1.051,1.337,2.716-3.518,2.678-1.8l-.248,5.454c-.468,2.977.1,2.888.33,5.713-1.812.678-1.813,1.014-2.923,1.164-.14-.93.108-2.729.044-3.667-.2-2.987-1.4-4.966.119-6.865" transform="translate(-77.402 -40.221)" fill="#112232"/>
              </g>
            </g>
          </g>
          <path id="Path_5977" data-name="Path 5977" d="M90.169,20.272c0,.609.632,1,.514,2.052-.051.462-.337,1.725-.994,1.725a3.784,3.784,0,0,0-2.072.562c-1.217,1.31-1.435,1.233-3.074.49a1.4,1.4,0,0,1-.921-1.067c-1.078-.261-1.849-1.086-1-3.506.146-.414-.677-4.116,3.156-4.619,3.388-.445,4.389,2.716,4.389,4.362" transform="translate(-51.57 3.764)" fill="#b9baba"/>
          <path id="Path_5978" data-name="Path 5978" d="M83.319,21.687c.05.517-.243.955-.435.986-.287.046-.565-.369-.614-.886s.146-.958.435-.986.565.369.614.886" transform="translate(-44.197 2.777)" fill="#ffc9b7"/>
          <path id="Path_5979" data-name="Path 5979" d="M67.287,58.187c.978-.717,1.456.6,2.425,1.953s2.062,2.219,1.085,2.936-2.556.2-3.525-1.147-.962-3.025.016-3.742" transform="translate(-19.481 -4.662)" fill="#ffb8b7"/>
          <path id="Path_5980" data-name="Path 5980" d="M79.525,33.6c.941,5.233,2.117,7.153,2.377,9.572-1.193.566-3.178-.211-4.372.355-.9-3.584-1.108-5.821-2.273-8.5-.857-1.974,3.84-3.805,4.268-1.423" transform="translate(-37.087 0.443)" fill="#cb8689"/>
          <path id="Path_5981" data-name="Path 5981" d="M73.784,44.937c1.368,1.72,5,10.989,4.784,11.379a1.767,1.767,0,0,1-2.178.907c-1.518-1.9-6-8.391-6.941-12.1-.147-.582,3.159-1.663,4.336-.184" transform="translate(-29.195 -1.903)" fill="#cb8689"/>
        </g>
      </g>
    </g>
  </g>
</svg>
