<svg xmlns="http://www.w3.org/2000/svg" xmlns:xlink="http://www.w3.org/1999/xlink" width="381.726" height="71.054" viewBox="0 0 381.726 71.054">
  <defs>
    <clipPath id="clip-path">
      <rect id="Rectangle_932" data-name="Rectangle 932" width="381.726" height="71.054" transform="translate(0 0)" fill="#fff"/>
    </clipPath>
  </defs>
  <g id="Group_3126" data-name="Group 3126" transform="translate(0 0)">
    <path id="Path_11584" data-name="Path 11584" d="M109.234,25.353h51.052V13.311h12.031v-6H160.286V.143h-6.029V7.311h-16.5V.143h-6V7.311h-16.5V.143h-6.029V7.311H97.2v6h12.031Zm45.023-6.03h-16.5V13.31h16.5Zm-22.5,0h-16.5V13.31h16.5Z" fill="#fff"/>
    <path id="Path_11585" data-name="Path 11585" d="M96.492,31.4V49.862h5.961v-12.5h29.308v6.988H109.234V62.731h6.029V50.383h16.5V70.952h6V50.383h16.5V62.731h6.029V44.353H137.761V37.365h29.307v12.5h5.961V31.4Z" fill="#fff"/>
    <path id="Path_11586" data-name="Path 11586" d="M6,20.75V16.837l17.727,4.65V25.4ZM6,10.635V6H23.727v9.285ZM0,0V38H6V26.951L23.727,31.6v5.043L7.962,49.9l3.861,4.592,17.9-15.052V0Z" fill="#fff"/>
    <rect id="Rectangle_927" data-name="Rectangle 927" width="6" height="8.012" transform="translate(0 63.042)" fill="#fff"/>
    <rect id="Rectangle_928" data-name="Rectangle 928" width="6" height="8.012" transform="translate(23.576 63.042)" fill="#fff"/>
    <rect id="Rectangle_929" data-name="Rectangle 929" width="6" height="8.012" transform="translate(47.152 63.042)" fill="#fff"/>
    <rect id="Rectangle_930" data-name="Rectangle 930" width="6" height="8.012" transform="translate(70.728 63.042)" fill="#fff"/>
    <rect id="Rectangle_931" data-name="Rectangle 931" width="7.937" height="7.937" transform="translate(68.852 0.143)" fill="#fff"/>
    <path id="Path_11587" data-name="Path 11587" d="M76.7,49.9,57.937,34.122V25.366H76.651v-6H57.937V.142h-6V19.366H33.223v6H51.937v8.756L33.172,49.9l3.861,4.592,17.9-15.051,17.9,15.051Z" fill="#fff"/>
    <g id="Group_3125" data-name="Group 3125">
      <g id="Group_3124" data-name="Group 3124" clip-path="url(#clip-path)">
        <path id="Path_11588" data-name="Path 11588" d="M211.161,11.508a4.269,4.269,0,0,0-1.41-1.091,3.845,3.845,0,0,0-1.678-.386,2.551,2.551,0,0,0-1.628.572,2.258,2.258,0,0,0-.721,1.882,2.137,2.137,0,0,0,.738,1.733,12.1,12.1,0,0,0,2.181,1.361c.54.269,1.111.588,1.707.958a7.874,7.874,0,0,1,1.639,1.361,6.858,6.858,0,0,1,1.233,1.934,6.644,6.644,0,0,1,.492,2.673,8.75,8.75,0,0,1-.61,3.381,6.792,6.792,0,0,1-1.639,2.419,6.9,6.9,0,0,1-2.378,1.447,8.209,8.209,0,0,1-2.793.487,9.3,9.3,0,0,1-3.91-.806,9.593,9.593,0,0,1-2.836-1.88l2.751-4.028a6.129,6.129,0,0,0,1.779,1.292,4.643,4.643,0,0,0,2.048.487,2.3,2.3,0,0,0,1.645-.638,2.332,2.332,0,0,0,.671-1.779,2.321,2.321,0,0,0-.806-1.862,11.864,11.864,0,0,0-2.349-1.462,15.138,15.138,0,0,1-1.83-1.04,6.784,6.784,0,0,1-1.51-1.377,6.057,6.057,0,0,1-1.025-1.879,7.916,7.916,0,0,1-.369-2.55,8.113,8.113,0,0,1,.656-3.408,6.739,6.739,0,0,1,1.711-2.334,7.06,7.06,0,0,1,2.349-1.341,8.1,8.1,0,0,1,2.6-.437,9.145,9.145,0,0,1,3.49.633,7.331,7.331,0,0,1,2.585,1.733Z" fill="#fff"/>
        <path id="Path_11589" data-name="Path 11589" d="M233.385,29.6l-.975-4.33h-5.337L226.1,29.6h-5.372L226.5,5.835h6.746L238.99,29.6Zm-3.558-18.6h-.135l-2.013,10.1h4.06Z" fill="#fff"/>
        <path id="Path_11590" data-name="Path 11590" d="M260.607,20.84a13.441,13.441,0,0,1-.5,3.776,9.237,9.237,0,0,1-1.428,2.97,6.461,6.461,0,0,1-5.354,2.653,6.463,6.463,0,0,1-3.053-.706,6.966,6.966,0,0,1-2.3-1.947,8.9,8.9,0,0,1-1.46-2.97,13.515,13.515,0,0,1-.5-3.776,13.722,13.722,0,0,1,.5-3.794,9.076,9.076,0,0,1,1.445-2.988,6.75,6.75,0,0,1,2.3-1.947,6.659,6.659,0,0,1,8.424,1.947,9.276,9.276,0,0,1,1.428,2.988,13.647,13.647,0,0,1,.5,3.794m-5.035-.033a12.112,12.112,0,0,0-.133-1.864,6.87,6.87,0,0,0-.4-1.51,2.692,2.692,0,0,0-.689-1.023,1.491,1.491,0,0,0-1.025-.369,1.447,1.447,0,0,0-.99.369,2.69,2.69,0,0,0-.688,1.023,6.707,6.707,0,0,0-.4,1.51,13.017,13.017,0,0,0,0,3.726,6.693,6.693,0,0,0,.4,1.51,2.714,2.714,0,0,0,.688,1.025,1.447,1.447,0,0,0,.99.369,1.491,1.491,0,0,0,1.025-.369,2.716,2.716,0,0,0,.689-1.025,6.855,6.855,0,0,0,.4-1.51,12.1,12.1,0,0,0,.133-1.862" fill="#fff"/>
        <path id="Path_11591" data-name="Path 11591" d="M284.707,22.82a7.389,7.389,0,0,1-.621,3.206,5.766,5.766,0,0,1-1.628,2.081,6.475,6.475,0,0,1-2.265,1.143,9.446,9.446,0,0,1-2.535.351h-7.887V5.835h7.114a12.662,12.662,0,0,1,2.351.236,6.309,6.309,0,0,1,2.265.89,5.2,5.2,0,0,1,1.711,1.862,6.262,6.262,0,0,1,.689,3.123,5.912,5.912,0,0,1-.855,3.372,5.127,5.127,0,0,1-2.1,1.829v.068a4.487,4.487,0,0,1,1.342.6,4.956,4.956,0,0,1,1.209,1.123,5.684,5.684,0,0,1,.871,1.663,6.744,6.744,0,0,1,.337,2.214m-5.54-10.02a2.289,2.289,0,0,0-.771-1.96,2.947,2.947,0,0,0-1.811-.573H274.77v5.169h1.847a2.826,2.826,0,0,0,1.763-.608,2.408,2.408,0,0,0,.787-2.028m.437,9.535a3.314,3.314,0,0,0-.251-1.368,2.551,2.551,0,0,0-.671-.911,2.822,2.822,0,0,0-.94-.525,3.346,3.346,0,0,0-1.025-.168H274.77v5.806h2.015a2.96,2.96,0,0,0,2-.708,2.654,2.654,0,0,0,.821-2.126" fill="#fff"/>
        <path id="Path_11592" data-name="Path 11592" d="M299.161,7.28a3.1,3.1,0,0,1-.806,2.163,2.88,2.88,0,0,1-4.164,0,3.111,3.111,0,0,1-.8-2.163,3.2,3.2,0,0,1,.219-1.193,3.277,3.277,0,0,1,.585-.973,2.8,2.8,0,0,1,4.164,0,3.256,3.256,0,0,1,.806,2.166m-5.54,4.766h5.3V29.6h-5.3Z" fill="#fff"/>
        <path id="Path_11593" data-name="Path 11593" d="M208.04,64.045a3.453,3.453,0,0,1-1.324,1.9,4.244,4.244,0,0,1-2.568.723,4.972,4.972,0,0,1-1.578-.268,4.074,4.074,0,0,1-1.477-.89,4.706,4.706,0,0,1-1.108-1.646,6.468,6.468,0,0,1-.437-2.535,6.085,6.085,0,0,1,.655-2.987,5.359,5.359,0,0,1,1.711-1.879,6.857,6.857,0,0,1,2.4-.99,13.014,13.014,0,0,1,2.721-.285h.671v-.268a2.491,2.491,0,0,0-.588-1.847,2.143,2.143,0,0,0-1.56-.57,3.594,3.594,0,0,0-1.764.434,4.932,4.932,0,0,0-1.359,1.108l-2.317-3.221a7.285,7.285,0,0,1,2.671-1.98,7.753,7.753,0,0,1,3.171-.706,7.6,7.6,0,0,1,3.022.538,4.862,4.862,0,0,1,2.013,1.578,6.6,6.6,0,0,1,1.108,2.533,15.854,15.854,0,0,1,.336,3.442v10h-4.331V64.045Zm-.166-5.472h-.94a5.908,5.908,0,0,0-1.108.1,2.336,2.336,0,0,0-.939.386,2.018,2.018,0,0,0-.639.739,2.494,2.494,0,0,0-.236,1.156,2.176,2.176,0,0,0,.455,1.528,1.433,1.433,0,0,0,1.091.487,1.869,1.869,0,0,0,1.057-.3,2.224,2.224,0,0,0,.721-.789,4,4,0,0,0,.4-1.108,5.8,5.8,0,0,0,.135-1.225Z" fill="#fff"/>
        <path id="Path_11594" data-name="Path 11594" d="M221.736,48.671h5.1v2.952h.035q.938-3.488,3.523-3.49c.179,0,.325.007.437.018a2.422,2.422,0,0,1,.4.083l-.334,5.271q-.27-.069-.521-.118a3.131,3.131,0,0,0-.622-.05,2,2,0,0,0-1.174.352,3.1,3.1,0,0,0-.857.922,4.59,4.59,0,0,0-.537,1.344,6.769,6.769,0,0,0-.184,1.578v8.693h-5.271Z" fill="#fff"/>
        <path id="Path_11595" data-name="Path 11595" d="M247.686,66.259a6.686,6.686,0,0,1-5.505-.184,6.2,6.2,0,0,1-2.148-1.929,9.142,9.142,0,0,1-1.327-2.955,14.722,14.722,0,0,1-.452-3.759,13.911,13.911,0,0,1,.47-3.743,9.439,9.439,0,0,1,1.342-2.938,6.013,6.013,0,0,1,5.135-2.618,5.66,5.66,0,0,1,4.231,1.746l-2.115,4.1a2.307,2.307,0,0,0-.739-.739,1.822,1.822,0,0,0-.973-.269,1.894,1.894,0,0,0-1.628,1.174,6.831,6.831,0,0,0-.655,3.291,6.858,6.858,0,0,0,.638,3.272,1.936,1.936,0,0,0,1.746,1.158,1.72,1.72,0,0,0,.99-.284,2.231,2.231,0,0,0,.688-.756l2.114,4.062a4.854,4.854,0,0,1-1.812,1.375" fill="#fff"/>
        <path id="Path_11596" data-name="Path 11596" d="M263.044,66.226h-5.269V40.849h5.269V51.02h.1a4.771,4.771,0,0,1,1.459-2.08,3.952,3.952,0,0,1,2.669-.907,4.3,4.3,0,0,1,2.434.62,4.127,4.127,0,0,1,1.427,1.661A7.609,7.609,0,0,1,271.8,52.7a22.459,22.459,0,0,1,.169,2.787V66.226H266.7V55.45a5.426,5.426,0,0,0-.319-1.945,1.249,1.249,0,0,0-1.291-.839,1.675,1.675,0,0,0-1.51.889,4.458,4.458,0,0,0-.538,2.332Z" fill="#fff"/>
        <path id="Path_11597" data-name="Path 11597" d="M286.71,43.9a3.1,3.1,0,0,1-.807,2.163,2.879,2.879,0,0,1-4.163,0,3.111,3.111,0,0,1-.8-2.163,3.223,3.223,0,0,1,.218-1.194,3.287,3.287,0,0,1,.586-.972,2.795,2.795,0,0,1,4.163,0,3.258,3.258,0,0,1,.807,2.166m-5.54,4.766h5.3V66.226h-5.3Z" fill="#fff"/>
        <path id="Path_11598" data-name="Path 11598" d="M304.516,66.5a7.92,7.92,0,0,1-1.611.168,4.786,4.786,0,0,1-3.859-1.427,6.486,6.486,0,0,1-1.209-4.281V52.766h-2.115V48.671h2.08V44.44h5.1v4.231h3.023v4.095H302.9v7.007a3.363,3.363,0,0,0,.4,1.868,1.427,1.427,0,0,0,1.274.59,2.339,2.339,0,0,0,1.176-.269v4.131a4.781,4.781,0,0,1-1.244.4" fill="#fff"/>
        <path id="Path_11599" data-name="Path 11599" d="M318.247,58.774a5.131,5.131,0,0,0,.184,1.394,4.458,4.458,0,0,0,.487,1.141,2.428,2.428,0,0,0,.739.771,1.736,1.736,0,0,0,.972.286,1.845,1.845,0,0,0,1.41-.572,4.116,4.116,0,0,0,.839-1.342l3.862,2.181a7.589,7.589,0,0,1-2.435,3.09,6.392,6.392,0,0,1-3.877,1.141,6.814,6.814,0,0,1-2.869-.6,6.49,6.49,0,0,1-2.317-1.8,8.625,8.625,0,0,1-1.545-2.937,13.351,13.351,0,0,1-.553-4.03,13.772,13.772,0,0,1,.52-3.909,8.9,8.9,0,0,1,1.478-2.988,6.781,6.781,0,0,1,2.266-1.9,6.217,6.217,0,0,1,2.885-.671,6.314,6.314,0,0,1,3.09.7,5.991,5.991,0,0,1,2.1,1.932,8.45,8.45,0,0,1,1.191,2.92,17.5,17.5,0,0,1,.369,3.708v1.478Zm3.96-3.425A5.572,5.572,0,0,0,321.77,53a1.488,1.488,0,0,0-1.442-.94,1.411,1.411,0,0,0-.925.319,2.761,2.761,0,0,0-.653.806,4.011,4.011,0,0,0-.4,1.073,4.911,4.911,0,0,0-.136,1.091Z" fill="#fff"/>
        <path id="Path_11600" data-name="Path 11600" d="M343.508,66.259A6.686,6.686,0,0,1,338,66.075a6.2,6.2,0,0,1-2.148-1.929,9.141,9.141,0,0,1-1.327-2.955,14.721,14.721,0,0,1-.452-3.759,13.911,13.911,0,0,1,.47-3.743,9.439,9.439,0,0,1,1.342-2.938,6.155,6.155,0,0,1,2.165-1.929,6.217,6.217,0,0,1,2.97-.689,5.66,5.66,0,0,1,4.231,1.746l-2.115,4.1a2.307,2.307,0,0,0-.739-.739,1.822,1.822,0,0,0-.973-.269,1.894,1.894,0,0,0-1.628,1.174,6.831,6.831,0,0,0-.655,3.291,6.858,6.858,0,0,0,.638,3.272,1.936,1.936,0,0,0,1.746,1.158,1.72,1.72,0,0,0,.99-.284,2.231,2.231,0,0,0,.688-.756l2.114,4.062a4.854,4.854,0,0,1-1.812,1.375" fill="#fff"/>
        <path id="Path_11601" data-name="Path 11601" d="M360.895,66.5a7.92,7.92,0,0,1-1.611.168,4.786,4.786,0,0,1-3.859-1.427,6.486,6.486,0,0,1-1.209-4.281V52.766H352.1V48.671h2.08V44.44h5.1v4.231h3.023v4.095h-3.023v7.007a3.363,3.363,0,0,0,.4,1.868,1.427,1.427,0,0,0,1.274.59,2.332,2.332,0,0,0,1.175-.269v4.131a4.758,4.758,0,0,1-1.243.4" fill="#fff"/>
        <path id="Path_11602" data-name="Path 11602" d="M379.176,53.6a5.371,5.371,0,0,0-1.311-.975,3.3,3.3,0,0,0-1.543-.369,1.583,1.583,0,0,0-1.091.4,1.4,1.4,0,0,0-.454,1.106,1.107,1.107,0,0,0,.487.992,7.879,7.879,0,0,0,1.829.721,9.066,9.066,0,0,1,1.545.639,5.109,5.109,0,0,1,2.367,2.567,5.263,5.263,0,0,1,.385,2.1,6.093,6.093,0,0,1-.571,2.752,5.476,5.476,0,0,1-1.442,1.846,5.814,5.814,0,0,1-1.965,1.041,7.153,7.153,0,0,1-2.1.336,9.205,9.205,0,0,1-3.374-.638,8.317,8.317,0,0,1-2.8-1.779l2.619-3.357a6.711,6.711,0,0,0,1.527,1.209,3.568,3.568,0,0,0,1.8.47,1.54,1.54,0,0,0,1.158-.437,1.588,1.588,0,0,0,.419-1.141,1.313,1.313,0,0,0-.673-1.226,11.364,11.364,0,0,0-2.012-.822,10.681,10.681,0,0,1-1.41-.588A4.263,4.263,0,0,1,371.3,57.5a4.865,4.865,0,0,1-.907-1.46,5.494,5.494,0,0,1-.352-2.1,5.739,5.739,0,0,1,.536-2.567,5.546,5.546,0,0,1,1.394-1.812,5.816,5.816,0,0,1,1.912-1.075,6.739,6.739,0,0,1,2.133-.352,8.508,8.508,0,0,1,3.088.57,8.6,8.6,0,0,1,2.618,1.578Z" fill="#fff"/>
      </g>
    </g>
  </g>
</svg>
