<svg xmlns="http://www.w3.org/2000/svg" xmlns:xlink="http://www.w3.org/1999/xlink" width="511.995" height="93.712" viewBox="0 0 511.995 93.712">
  <defs>
    <clipPath id="clip-path">
      <rect id="Rectangle_960" data-name="Rectangle 960" width="511.995" height="93.712" transform="translate(0 0)" fill="none"/>
    </clipPath>
    <clipPath id="clip-path-2">
      <rect id="Rectangle_961" data-name="Rectangle 961" width="475.516" height="71.054" transform="translate(28.618 22.658)" fill="none"/>
    </clipPath>
  </defs>
  <g id="Group_3224" data-name="Group 3224" transform="translate(0 0)">
    <g id="Group_3229" data-name="Group 3229">
      <g id="Group_3228" data-name="Group 3228">
        <g id="Group_3225" data-name="Group 3225">
          <g id="Group_3224-2" data-name="Group 3224" clip-path="url(#clip-path)">
            <path id="Path_12792" data-name="Path 12792" d="M218.96,50.4c-3.131-1.4-6.353-1.008-7.2.883s1.011,4.554,4.14,5.954c4.864,2.174,10.129.426,10.129.426A15.223,15.223,0,0,0,218.96,50.4" fill="#fff"/>
            <path id="Path_12793" data-name="Path 12793" d="M202.16,46.334c.589,2.713,2.393,4.629,4.029,4.269s2.485-2.842,1.9-5.559a12.589,12.589,0,0,0-4.581-6.806,12.33,12.33,0,0,0-1.345,8.1" fill="#fff"/>
            <path id="Path_12794" data-name="Path 12794" d="M200.093,54.481a58.051,58.051,0,0,0,9.368-3.812A.61.61,0,0,1,210,51.761a59.364,59.364,0,0,1-9.295,3.745Z" fill="#fff"/>
            <path id="Path_12795" data-name="Path 12795" d="M211.348,38.967c-2.027,3.565-1.925,7.448.221,8.67s5.537-.677,7.566-4.242c3.148-5.537,1.676-12.007,1.676-12.007s-6.256,1.945-9.459,7.579" fill="#fff"/>
            <path id="Path_12796" data-name="Path 12796" d="M15.521,29.293c.375-2.686,1.991-4.682,3.61-4.456s2.632,2.582,2.26,5.272a12.293,12.293,0,0,1-3.96,6.971,12.047,12.047,0,0,1-1.91-7.787" fill="#fff"/>
            <path id="Path_12797" data-name="Path 12797" d="M6.09,25.473c3.033-2.052,6.494-2.233,7.732-.4s-.22,4.976-3.251,7.027C5.86,35.284,0,34.421,0,34.421a16.26,16.26,0,0,1,6.09-8.948" fill="#fff"/>
            <path id="Path_12798" data-name="Path 12798" d="M33.011,15.494c-2.219,3.383-5.668,5.038-7.708,3.706s-1.9-5.162.317-8.543C29.064,5.4,35.4,3.779,35.4,3.779s1.107,6.37-2.4,11.714" fill="#fff"/>
            <path id="Path_12799" data-name="Path 12799" d="M24.868,7.342c-.1,2.633-1.472,4.717-3.06,4.655s-2.79-2.245-2.689-4.877A11.951,11.951,0,0,1,22.275,0a11.7,11.7,0,0,1,2.59,7.343" fill="#fff"/>
            <path id="Path_12800" data-name="Path 12800" d="M207.128,59.609c-.935-2.464-.489-4.918,1-5.481s3.446.976,4.382,3.439a11.95,11.95,0,0,1-.122,7.787,11.7,11.7,0,0,1-5.255-5.747" fill="#fff"/>
            <path id="Path_12801" data-name="Path 12801" d="M30.05,22.666a49.192,49.192,0,0,1-8.707-3.274.609.609,0,0,0-.524,1.1,50.256,50.256,0,0,0,8.634,3.214Z" fill="#fff"/>
            <path id="Path_12802" data-name="Path 12802" d="M22.771,20.414a38.292,38.292,0,0,1-7.761,2.68.609.609,0,0,0,.307,1.179,50.159,50.159,0,0,0,8.677-3.088Z" fill="#fff"/>
            <path id="Path_12803" data-name="Path 12803" d="M16.729,10.172c3.276,2.594,4.665,6.3,3.1,8.277s-5.489,1.473-8.767-1.12C5.974,13.3,4.895,6.623,4.895,6.623s6.656-.551,11.834,3.549" fill="#fff"/>
            <path id="Path_12804" data-name="Path 12804" d="M505.4,48.047c-1.224,2.551-.969,5.218.569,5.956s3.778-.732,5.005-3.283a12.837,12.837,0,0,0,.575-8.344,12.565,12.565,0,0,0-6.147,5.671" fill="#fff"/>
            <path id="Path_12805" data-name="Path 12805" d="M501.668,55.472a46.392,46.392,0,0,0,7.035-5.228.575.575,0,1,1,.761.861,47.352,47.352,0,0,1-6.985,5.152Z" fill="#fff"/>
            <path id="Path_12806" data-name="Path 12806" d="M329.193,51.742c-1.972-1.478-4.292-1.712-5.183-.524s-.016,3.349,1.954,4.828a11.172,11.172,0,0,0,7.028,1.908,10.94,10.94,0,0,0-3.8-6.212" fill="#fff"/>
            <path id="Path_12807" data-name="Path 12807" d="M325.311,41.883c-1.941,2.587-2.247,5.632-.688,6.806s4.4.02,6.336-2.565a14.667,14.667,0,0,0,2.5-9.222,14.354,14.354,0,0,0-8.152,4.986" fill="#fff"/>
            <path id="Path_12808" data-name="Path 12808" d="M137.852,48.011H188.9V35.969h12.03v-6H188.9V22.8h-6.029v7.168h-16.5V22.8h-6v7.168h-16.5V22.8h-6.029v7.168H125.818v6h12.03Zm45.024-6.03h-16.5V35.968h16.5Zm-22.5,0h-16.5V35.968h16.5Z" fill="#fff"/>
            <path id="Path_12809" data-name="Path 12809" d="M125.11,54.058V72.52h5.961V60.02h29.308v6.988H137.852V85.389h6.029V73.041h16.5V93.61h6V73.041h16.5V85.389h6.029V67.011H166.379V60.023h29.307v12.5h5.961V54.058Z" fill="#fff"/>
            <path id="Path_12810" data-name="Path 12810" d="M34.618,43.408V39.495l17.727,4.65v3.913Zm0-10.115V28.658H52.345v9.285Zm-6-10.635v38h6V49.609l17.727,4.649V59.3L36.58,72.558l3.861,4.592L58.341,62.1V22.658Z" fill="#fff"/>
            <rect id="Rectangle_955" data-name="Rectangle 955" width="5.999" height="8.012" transform="translate(28.619 85.7)" fill="#fff"/>
            <rect id="Rectangle_956" data-name="Rectangle 956" width="6" height="8.012" transform="translate(52.194 85.7)" fill="#fff"/>
            <rect id="Rectangle_957" data-name="Rectangle 957" width="6" height="8.012" transform="translate(75.771 85.7)" fill="#fff"/>
            <rect id="Rectangle_958" data-name="Rectangle 958" width="6" height="8.012" transform="translate(99.346 85.7)" fill="#fff"/>
            <rect id="Rectangle_959" data-name="Rectangle 959" width="7.937" height="7.937" transform="translate(97.471 22.801)" fill="#fff"/>
            <path id="Path_12811" data-name="Path 12811" d="M105.318,72.558,86.555,56.78V48.024h18.714v-6H86.555V22.8h-6V42.024H61.841v6H80.555V56.78L61.79,72.558l3.861,4.592L83.551,62.1l17.9,15.051Z" fill="#fff"/>
          </g>
        </g>
      </g>
    </g>
    <g id="Group_3227" data-name="Group 3227">
      <g id="Group_3230" data-name="Group 3230">
        <g id="Group_3226" data-name="Group 3226" clip-path="url(#clip-path-2)">
          <path id="Path_12812" data-name="Path 12812" d="M242.051,53.085a3.822,3.822,0,0,0-1.26-.975,3.431,3.431,0,0,0-1.5-.345,2.279,2.279,0,0,0-1.455.511,2.018,2.018,0,0,0-.644,1.682,1.908,1.908,0,0,0,.66,1.549,10.8,10.8,0,0,0,1.949,1.217c.482.24.992.525,1.525.855a7.038,7.038,0,0,1,1.465,1.217,6.118,6.118,0,0,1,1.1,1.728,5.944,5.944,0,0,1,.439,2.389,7.81,7.81,0,0,1-.545,3.022A6.05,6.05,0,0,1,242.32,68.1,6.159,6.159,0,0,1,240.2,69.39a7.325,7.325,0,0,1-2.5.435,8.309,8.309,0,0,1-3.494-.72,8.6,8.6,0,0,1-2.535-1.68l2.459-3.6a5.494,5.494,0,0,0,1.59,1.155,4.154,4.154,0,0,0,1.83.435,2.056,2.056,0,0,0,1.471-.57,2.342,2.342,0,0,0-.121-3.254,10.625,10.625,0,0,0-2.1-1.307,13.651,13.651,0,0,1-1.635-.929,6.075,6.075,0,0,1-1.349-1.231,5.4,5.4,0,0,1-.916-1.68,7.041,7.041,0,0,1-.33-2.279,7.254,7.254,0,0,1,.585-3.045,6.022,6.022,0,0,1,1.53-2.086,6.322,6.322,0,0,1,2.1-1.2,7.225,7.225,0,0,1,2.327-.391,8.156,8.156,0,0,1,3.119.567,6.544,6.544,0,0,1,2.31,1.549Z" fill="#fff"/>
          <path id="Path_12813" data-name="Path 12813" d="M261.912,69.258l-.871-3.869h-4.77l-.869,3.869h-4.8l5.16-21.24h6.03l5.126,21.24Zm-3.18-16.619h-.121l-1.8,9.029h3.629Z" fill="#fff"/>
          <path id="Path_12814" data-name="Path 12814" d="M286.241,61.425a11.991,11.991,0,0,1-.449,3.375,8.283,8.283,0,0,1-1.274,2.658,6.077,6.077,0,0,1-7.513,1.74,6.219,6.219,0,0,1-2.057-1.74,7.957,7.957,0,0,1-1.3-2.655,12.1,12.1,0,0,1-.449-3.375,12.292,12.292,0,0,1,.449-3.39,8.112,8.112,0,0,1,1.291-2.67,5.979,5.979,0,0,1,9.584,0,8.3,8.3,0,0,1,1.276,2.67,12.171,12.171,0,0,1,.449,3.39m-4.5-.029a10.718,10.718,0,0,0-.125-1.669,6.133,6.133,0,0,0-.36-1.35,2.4,2.4,0,0,0-.615-.914,1.338,1.338,0,0,0-.916-.33,1.3,1.3,0,0,0-.885.33,2.4,2.4,0,0,0-.615.914,6.02,6.02,0,0,0-.359,1.35,11.683,11.683,0,0,0,0,3.33,6.006,6.006,0,0,0,.359,1.35,2.419,2.419,0,0,0,.615.916,1.3,1.3,0,0,0,.885.33,1.338,1.338,0,0,0,.916-.33,2.419,2.419,0,0,0,.615-.916,6.026,6.026,0,0,0,.36-1.352,10.781,10.781,0,0,0,.119-1.664" fill="#fff"/>
          <path id="Path_12815" data-name="Path 12815" d="M307.781,63.195a6.61,6.61,0,0,1-.555,2.865,5.162,5.162,0,0,1-1.455,1.859,5.793,5.793,0,0,1-2.026,1.022,8.417,8.417,0,0,1-2.265.314h-7.049V48.015h6.359a11.22,11.22,0,0,1,2.1.211,5.641,5.641,0,0,1,2.025.8,4.663,4.663,0,0,1,1.53,1.664,5.6,5.6,0,0,1,.615,2.791,5.271,5.271,0,0,1-.764,3.014,4.6,4.6,0,0,1-1.875,1.634v.061a4.022,4.022,0,0,1,1.2.541,4.448,4.448,0,0,1,1.08,1,5.044,5.044,0,0,1,.78,1.486,6.014,6.014,0,0,1,.3,1.979m-4.952-8.955a2.044,2.044,0,0,0-.689-1.752,2.637,2.637,0,0,0-1.619-.512H298.9V56.6h1.65a2.524,2.524,0,0,0,1.576-.543,2.152,2.152,0,0,0,.7-1.812m.392,8.517a2.947,2.947,0,0,0-.225-1.223,2.265,2.265,0,0,0-.6-.814,2.511,2.511,0,0,0-.84-.469,3,3,0,0,0-.916-.15H298.9v5.189h1.8a2.649,2.649,0,0,0,1.789-.633,2.37,2.37,0,0,0,.734-1.9" fill="#fff"/>
          <path id="Path_12816" data-name="Path 12816" d="M320.7,49.306a2.776,2.776,0,0,1-.72,1.934,2.574,2.574,0,0,1-3.639.082l-.082-.082a2.782,2.782,0,0,1-.719-1.934,2.881,2.881,0,0,1,.2-1.066,2.931,2.931,0,0,1,.524-.869,2.5,2.5,0,0,1,3.53-.191,2.456,2.456,0,0,1,.191.191,2.934,2.934,0,0,1,.525.869,2.9,2.9,0,0,1,.2,1.066m-4.951,4.26h4.74V69.258h-4.74Z" fill="#fff"/>
          <path id="Path_12817" data-name="Path 12817" d="M348.909,67.306A3.088,3.088,0,0,1,347.726,69a3.79,3.79,0,0,1-2.3.646,4.423,4.423,0,0,1-1.41-.24,3.635,3.635,0,0,1-1.321-.8,4.214,4.214,0,0,1-.99-1.47,5.79,5.79,0,0,1-.39-2.266,5.436,5.436,0,0,1,.586-2.67,4.778,4.778,0,0,1,1.529-1.68,6.15,6.15,0,0,1,2.144-.884,11.7,11.7,0,0,1,2.432-.254h.6V59.14a2.223,2.223,0,0,0-.526-1.65,1.91,1.91,0,0,0-1.394-.51,3.2,3.2,0,0,0-1.576.389,4.415,4.415,0,0,0-1.215.99l-2.071-2.879a6.527,6.527,0,0,1,2.387-1.769,6.934,6.934,0,0,1,2.834-.631,6.8,6.8,0,0,1,2.7.48,4.341,4.341,0,0,1,1.8,1.411,5.9,5.9,0,0,1,.99,2.263,14.126,14.126,0,0,1,.3,3.076v8.948h-3.871V67.306Zm-.148-4.891h-.84a5.3,5.3,0,0,0-.99.09,2.091,2.091,0,0,0-.84.346,1.772,1.772,0,0,0-.57.66,2.218,2.218,0,0,0-.211,1.033,1.945,1.945,0,0,0,.406,1.365,1.281,1.281,0,0,0,.975.436,1.667,1.667,0,0,0,.945-.27,2,2,0,0,0,.645-.7,3.572,3.572,0,0,0,.359-.99,5.148,5.148,0,0,0,.121-1.1Z" fill="#fff"/>
          <path id="Path_12818" data-name="Path 12818" d="M361.149,53.566h4.561v2.639h.031q.837-3.117,3.148-3.119c.16,0,.291.005.391.015a2.178,2.178,0,0,1,.359.074l-.3,4.711c-.16-.041-.316-.076-.464-.1a2.888,2.888,0,0,0-.557-.045,1.783,1.783,0,0,0-1.049.314,2.78,2.78,0,0,0-.766.825,4.067,4.067,0,0,0-.48,1.2,6.139,6.139,0,0,0-.164,1.41v7.768h-4.711Z" fill="#fff"/>
          <path id="Path_12819" data-name="Path 12819" d="M384.341,69.284a5.982,5.982,0,0,1-4.92-.164,5.54,5.54,0,0,1-1.92-1.725,8.164,8.164,0,0,1-1.183-2.637,13.121,13.121,0,0,1-.4-3.36,12.463,12.463,0,0,1,.42-3.345,8.481,8.481,0,0,1,1.2-2.625,5.5,5.5,0,0,1,1.936-1.725,5.562,5.562,0,0,1,2.654-.615,5.054,5.054,0,0,1,3.782,1.56l-1.891,3.66a2.08,2.08,0,0,0-.66-.66,1.631,1.631,0,0,0-.869-.24,1.69,1.69,0,0,0-1.455,1.049,6.1,6.1,0,0,0-.586,2.941,6.116,6.116,0,0,0,.57,2.924,1.728,1.728,0,0,0,1.56,1.035,1.536,1.536,0,0,0,.885-.254,1.981,1.981,0,0,0,.615-.675l1.889,3.63a4.348,4.348,0,0,1-1.619,1.229" fill="#fff"/>
          <path id="Path_12820" data-name="Path 12820" d="M398.067,69.258h-4.709V46.575h4.709v9.09h.09a4.269,4.269,0,0,1,1.3-1.859,3.532,3.532,0,0,1,2.384-.811,3.846,3.846,0,0,1,2.176.555,3.693,3.693,0,0,1,1.275,1.484,6.853,6.853,0,0,1,.6,2.131,19.93,19.93,0,0,1,.15,2.49v9.6h-4.71V59.624a4.831,4.831,0,0,0-.286-1.738,1.116,1.116,0,0,0-1.154-.75,1.5,1.5,0,0,0-1.35.795,3.984,3.984,0,0,0-.48,2.084Z" fill="#fff"/>
          <path id="Path_12821" data-name="Path 12821" d="M419.218,49.306a2.773,2.773,0,0,1-.721,1.934,2.575,2.575,0,0,1-3.641.08l-.08-.08a2.785,2.785,0,0,1-.718-1.934,2.858,2.858,0,0,1,.2-1.066,2.95,2.95,0,0,1,.523-.869,2.5,2.5,0,0,1,3.53-.191,2.467,2.467,0,0,1,.191.191,2.9,2.9,0,0,1,.721,1.935m-4.951,4.26h4.74V69.258h-4.74Z" fill="#fff"/>
          <path id="Path_12822" data-name="Path 12822" d="M435.131,69.5a7.024,7.024,0,0,1-1.439.15,4.279,4.279,0,0,1-3.45-1.275,5.8,5.8,0,0,1-1.08-3.826V57.225h-1.89v-3.66h1.859V49.784h4.561v3.781h2.7v3.66h-2.7v6.262a3.015,3.015,0,0,0,.361,1.67,1.276,1.276,0,0,0,1.139.527,2.1,2.1,0,0,0,1.05-.24v3.692a4.335,4.335,0,0,1-1.111.359" fill="#fff"/>
          <path id="Path_12823" data-name="Path 12823" d="M447.4,62.6a4.64,4.64,0,0,0,.164,1.246A3.993,3.993,0,0,0,448,64.86a2.165,2.165,0,0,0,.66.69,1.55,1.55,0,0,0,.869.255,1.647,1.647,0,0,0,1.26-.511,3.684,3.684,0,0,0,.75-1.2l3.451,1.949a6.773,6.773,0,0,1-2.176,2.761,5.709,5.709,0,0,1-3.465,1.02,6.09,6.09,0,0,1-2.564-.541,5.8,5.8,0,0,1-2.071-1.6,7.728,7.728,0,0,1-1.38-2.625,11.89,11.89,0,0,1-.495-3.6,12.315,12.315,0,0,1,.465-3.494,7.945,7.945,0,0,1,1.321-2.67,6.049,6.049,0,0,1,2.025-1.695,5.547,5.547,0,0,1,2.578-.6,5.64,5.64,0,0,1,2.762.629,5.352,5.352,0,0,1,1.875,1.726,7.56,7.56,0,0,1,1.064,2.61,15.637,15.637,0,0,1,.33,3.314V62.6Zm3.539-3.061a4.994,4.994,0,0,0-.391-2.1,1.329,1.329,0,0,0-1.289-.839,1.255,1.255,0,0,0-.826.285,2.465,2.465,0,0,0-.584.72,3.583,3.583,0,0,0-.359.959,4.387,4.387,0,0,0-.121.975Z" fill="#fff"/>
          <path id="Path_12824" data-name="Path 12824" d="M469.979,69.284a5.982,5.982,0,0,1-4.92-.164,5.54,5.54,0,0,1-1.92-1.725,8.164,8.164,0,0,1-1.185-2.64,13.12,13.12,0,0,1-.4-3.36,12.464,12.464,0,0,1,.42-3.345,8.482,8.482,0,0,1,1.2-2.625A5.5,5.5,0,0,1,465.11,53.7a5.562,5.562,0,0,1,2.654-.615,5.054,5.054,0,0,1,3.782,1.56l-1.891,3.66a2.08,2.08,0,0,0-.66-.66,1.631,1.631,0,0,0-.869-.24,1.69,1.69,0,0,0-1.455,1.049,6.1,6.1,0,0,0-.586,2.941,6.116,6.116,0,0,0,.57,2.924,1.728,1.728,0,0,0,1.56,1.035,1.536,1.536,0,0,0,.885-.254,1.98,1.98,0,0,0,.615-.675l1.889,3.63a4.348,4.348,0,0,1-1.619,1.229" fill="#fff"/>
          <path id="Path_12825" data-name="Path 12825" d="M485.518,69.5a7.024,7.024,0,0,1-1.439.15,4.279,4.279,0,0,1-3.45-1.275,5.8,5.8,0,0,1-1.08-3.826V57.225h-1.89v-3.66h1.859V49.784h4.561v3.781h2.7v3.66h-2.7v6.262a3.015,3.015,0,0,0,.361,1.67,1.276,1.276,0,0,0,1.139.527,2.1,2.1,0,0,0,1.05-.24v3.692a4.335,4.335,0,0,1-1.111.359" fill="#fff"/>
          <path id="Path_12826" data-name="Path 12826" d="M501.855,57.976a4.811,4.811,0,0,0-1.172-.871,2.94,2.94,0,0,0-1.379-.33,1.409,1.409,0,0,0-.974.361,1.244,1.244,0,0,0-.407.988.991.991,0,0,0,.436.887,7.065,7.065,0,0,0,1.635.645,8.11,8.11,0,0,1,1.381.57,4.574,4.574,0,0,1,2.115,2.295,4.721,4.721,0,0,1,.344,1.875,5.449,5.449,0,0,1-.51,2.459,4.9,4.9,0,0,1-1.289,1.65,5.191,5.191,0,0,1-1.756.93,6.42,6.42,0,0,1-1.875.3,8.218,8.218,0,0,1-3.016-.571,7.442,7.442,0,0,1-2.5-1.589l2.34-3a6.011,6.011,0,0,0,1.361,1.083,3.2,3.2,0,0,0,1.606.42,1.37,1.37,0,0,0,1.035-.391,1.423,1.423,0,0,0,.375-1.02,1.172,1.172,0,0,0-.6-1.1,10.166,10.166,0,0,0-1.8-.735,9.567,9.567,0,0,1-1.26-.525,3.842,3.842,0,0,1-1.127-.849,4.35,4.35,0,0,1-.811-1.305,4.919,4.919,0,0,1-.314-1.875,5.144,5.144,0,0,1,.478-2.3,4.962,4.962,0,0,1,1.247-1.62,5.2,5.2,0,0,1,1.709-.961,6.036,6.036,0,0,1,1.907-.315,7.59,7.59,0,0,1,2.759.51,7.72,7.72,0,0,1,2.34,1.41Z" fill="#fff"/>
        </g>
      </g>
    </g>
  </g>
</svg>
