<svg xmlns="http://www.w3.org/2000/svg" width="202.291" height="158.015" viewBox="0 0 202.291 158.015" style="display: inline-block;margin: auto;height: 100%;">
  <g id="Group_3223" data-name="Group 3223" transform="translate(12.954 3.843)">
    <path id="Path_11674" data-name="Path 11674" d="M124.137,40.843h45V30.228h10.6V24.939h-10.6V18.621h-5.314v6.318H149.282V18.621h-5.289v6.318H129.451V18.621h-5.314v6.318h-10.6v5.289h10.6Zm39.687-5.314H149.282v-5.3h14.541Zm-19.83,0H129.452v-5.3h14.541Z" transform="translate(-13.458 -2.207)" fill="#377474"/>
    <rect id="Rectangle_948" data-name="Rectangle 948" width="5.289" height="7.062" transform="translate(14.394 71.857)" fill="#377474"/>
    <rect id="Rectangle_949" data-name="Rectangle 949" width="5.289" height="7.062" transform="translate(35.176 71.857)" fill="#377474"/>
    <rect id="Rectangle_950" data-name="Rectangle 950" width="5.289" height="7.062" transform="translate(55.957 71.857)" fill="#377474"/>
    <rect id="Rectangle_951" data-name="Rectangle 951" width="5.289" height="7.062" transform="translate(76.738 71.857)" fill="#377474"/>
    <rect id="Rectangle_952" data-name="Rectangle 952" width="6.996" height="6.996" transform="translate(75.085 16.415)" fill="#377474"/>
    <path id="Path_11677" data-name="Path 11677" d="M87.871,62.478,71.331,48.573V40.855h16.5V35.566h-16.5V18.621H66.042V35.566h-16.5v5.289h16.5v7.718L49.5,62.478l3.4,4.048L68.686,53.259,84.468,66.526Z" transform="translate(-5.868 -2.207)" fill="#377474"/>
    <g id="Group_3179" data-name="Group 3179">
      <g id="Group_3181" data-name="Group 3181">
        <path id="Path_11710" data-name="Path 11710" d="M190.2,151.045c-1.143,2.383-.905,4.875.532,5.565s3.529-.684,4.673-3.067a11.993,11.993,0,0,0,.538-7.8,11.739,11.739,0,0,0-5.744,5.3" transform="translate(-22.461 -17.277)" fill="#377474"/>
        <path id="Path_11711" data-name="Path 11711" d="M186.341,158.946a43.283,43.283,0,0,0,6.573-4.885.537.537,0,0,1,.71.8,44.205,44.205,0,0,1-6.526,4.813Z" transform="translate(-22.088 -18.246)" fill="#377474"/>
        <path id="Path_11695" data-name="Path 11695" d="M5.942.113C2.961-.363.312.708.025,2.5S1.922,6.146,4.9,6.622a13.686,13.686,0,0,0,8.707-1.946A13.4,13.4,0,0,0,5.942.113" transform="matrix(0.966, 0.259, -0.259, 0.966, 176.192, 39.103)" fill="#377474"/>
        <path id="Path_11696" data-name="Path 11696" d="M.4,7.2c.725,2.335,2.453,3.874,3.861,3.437S6.218,7.957,5.494,5.622A11.088,11.088,0,0,0,.955,0,10.856,10.856,0,0,0,.4,7.2" transform="matrix(0.996, 0.087, -0.087, 0.996, 167.347, 29.968)" fill="#377474"/>
        <path id="Path_11704" data-name="Path 11704" d="M186.6,50.19a51.14,51.14,0,0,0,7.1-5.376.537.537,0,0,1,.71.8,52.347,52.347,0,0,1-7.049,5.3Z" transform="matrix(0.966, 0.259, -0.259, 0.966, -1.951, -52.426)" fill="#377474"/>
        <path id="Path_11705" data-name="Path 11705" d="M.988,7.236c-1.561,3.255-1.236,6.658.727,7.6S6.535,13.9,8.1,10.647C10.522,5.591,8.832,0,8.832,0A16.032,16.032,0,0,0,.988,7.236" transform="translate(174.722 23.405) rotate(4)" fill="#377474"/>
        <path id="Path_11706" data-name="Path 11706" d="M6.067,16.675c2.359-.377,4.455.47,4.682,1.893s-1.5,2.881-3.859,3.258A10.83,10.83,0,0,1,0,20.286a10.6,10.6,0,0,1,6.067-3.611" transform="matrix(0.292, -0.956, 0.956, 0.292, -14.897, 23.102)" fill="#377474"/>
        <path id="Path_11715" data-name="Path 11715" d="M8.187,16.706c3.183-.509,6.012.635,6.319,2.554s-2.025,3.888-5.207,4.4A14.615,14.615,0,0,1,0,21.579a14.311,14.311,0,0,1,8.187-4.873" transform="translate(-19.963 7.134) rotate(-25)" fill="#377474"/>
        <path id="Path_11707" data-name="Path 11707" d="M22.334,14.5c-1.055,3.4-3.573,5.642-5.623,5.006s-2.858-3.907-1.8-7.308c1.639-5.282,6.612-8.191,6.612-8.191A15.814,15.814,0,0,1,22.334,14.5" transform="translate(0.743 -10.062) rotate(16)" fill="#377474"/>
        <path id="Path_11714" data-name="Path 11714" d="M19.582,10.838c-.687,2.215-2.327,3.674-3.662,3.26s-1.861-2.544-1.175-4.759a10.522,10.522,0,0,1,4.306-5.334,10.3,10.3,0,0,1,.531,6.833" transform="matrix(0.966, -0.259, 0.259, 0.966, -10.675, -2.546)" fill="#377474"/>
        <path id="Path_11718" data-name="Path 11718" d="M19.582,10.838c-.687,2.215-2.327,3.674-3.662,3.26s-1.861-2.544-1.175-4.759a10.522,10.522,0,0,1,4.306-5.334,10.3,10.3,0,0,1,.531,6.833" transform="matrix(-0.788, 0.616, -0.616, -0.788, 193.594, 45.346)" fill="#377474"/>
        <path id="Path_11708" data-name="Path 11708" d="M16.569,18.1A43.284,43.284,0,0,1,10,13.216a.537.537,0,0,0-.71.8,44.206,44.206,0,0,0,6.526,4.813Z" transform="translate(-5.307 3.512) rotate(-16)" fill="#377474"/>
        <path id="Path_11717" data-name="Path 11717" d="M15.772,17.562A33.743,33.743,0,0,1,10,13.216a.537.537,0,0,0-.71.8,44.206,44.206,0,0,0,6.526,4.813Z" transform="matrix(0.559, -0.829, 0.829, 0.559, -14.177, 17.616)" fill="#377474"/>
        <path id="Path_11709" data-name="Path 11709" d="M13.892,7.374c1.591,3.317,1.26,6.785-.741,7.745s-4.912-.952-6.5-4.269C4.176,5.7,5.9,0,5.9,0a16.337,16.337,0,0,1,7.994,7.374" transform="translate(-11.835 4.806) rotate(-26)" fill="#377474"/>
        <path id="Path_11678" data-name="Path 11678" d="M26.364,121.835a3.569,3.569,0,0,0-1.175-.91,3.211,3.211,0,0,0-1.4-.322,2.123,2.123,0,0,0-1.357.477,1.883,1.883,0,0,0-.6,1.569,1.779,1.779,0,0,0,.616,1.445,10.012,10.012,0,0,0,1.818,1.135c.45.224.926.49,1.423.8a6.577,6.577,0,0,1,1.366,1.135,5.686,5.686,0,0,1,1.028,1.612A5.541,5.541,0,0,1,28.493,131a7.292,7.292,0,0,1-.509,2.819,5.662,5.662,0,0,1-1.367,2.018,5.743,5.743,0,0,1-1.982,1.206,6.834,6.834,0,0,1-2.329.406,7.732,7.732,0,0,1-3.26-.673,7.989,7.989,0,0,1-2.365-1.567l2.294-3.357a5.138,5.138,0,0,0,1.483,1.076,3.877,3.877,0,0,0,1.707.406,1.916,1.916,0,0,0,1.372-.532,2.185,2.185,0,0,0-.113-3.036,9.914,9.914,0,0,0-1.959-1.219,12.754,12.754,0,0,1-1.525-.867,5.663,5.663,0,0,1-1.259-1.149,5.046,5.046,0,0,1-.855-1.566,6.594,6.594,0,0,1-.308-2.127A6.77,6.77,0,0,1,18.066,120a5.6,5.6,0,0,1,1.427-1.945,5.879,5.879,0,0,1,1.959-1.119,6.759,6.759,0,0,1,2.17-.364,7.609,7.609,0,0,1,2.91.528,6.115,6.115,0,0,1,2.156,1.446Z" transform="translate(-1.977 -13.818)" fill="#377474"/>
        <path id="Path_11679" data-name="Path 11679" d="M47.268,136.992l-.813-3.61h-4.45l-.811,3.61H36.716l4.815-19.816h5.625l4.787,19.816Zm-2.966-15.5h-.113l-1.678,8.424H45.9Z" transform="translate(-4.352 -13.89)" fill="#377474"/>
        <path id="Path_11680" data-name="Path 11680" d="M72.8,130.312a11.168,11.168,0,0,1-.42,3.149,7.706,7.706,0,0,1-1.189,2.476,5.391,5.391,0,0,1-4.465,2.212,5.384,5.384,0,0,1-2.546-.589,5.8,5.8,0,0,1-1.919-1.624,7.43,7.43,0,0,1-1.217-2.476,11.265,11.265,0,0,1-.419-3.149,11.441,11.441,0,0,1,.419-3.164,7.578,7.578,0,0,1,1.2-2.491,5.628,5.628,0,0,1,1.916-1.623,5.556,5.556,0,0,1,7.025,1.623,7.754,7.754,0,0,1,1.189,2.491,11.342,11.342,0,0,1,.42,3.164m-4.2-.027a10,10,0,0,0-.111-1.554,5.759,5.759,0,0,0-.335-1.26,2.235,2.235,0,0,0-.575-.852,1.241,1.241,0,0,0-.854-.309,1.206,1.206,0,0,0-.826.309,2.244,2.244,0,0,0-.574.852,5.662,5.662,0,0,0-.335,1.26,10.915,10.915,0,0,0,0,3.106,5.636,5.636,0,0,0,.335,1.26,2.265,2.265,0,0,0,.574.854,1.206,1.206,0,0,0,.826.309,1.241,1.241,0,0,0,.854-.309,2.257,2.257,0,0,0,.575-.854,5.733,5.733,0,0,0,.335-1.26,9.995,9.995,0,0,0,.111-1.552" transform="translate(-7.187 -14.515)" fill="#377474"/>
        <path id="Path_11681" data-name="Path 11681" d="M95.56,131.339a6.159,6.159,0,0,1-.517,2.673,4.823,4.823,0,0,1-1.357,1.735,5.409,5.409,0,0,1-1.89.953,7.853,7.853,0,0,1-2.114.293H83.106V117.177h5.932a10.5,10.5,0,0,1,1.959.2,5.274,5.274,0,0,1,1.889.741,4.361,4.361,0,0,1,1.427,1.552,5.226,5.226,0,0,1,.574,2.6,4.928,4.928,0,0,1-.712,2.812,4.272,4.272,0,0,1-1.75,1.525v.057a3.761,3.761,0,0,1,1.119.5,4.149,4.149,0,0,1,1.008.937,4.73,4.73,0,0,1,.727,1.387,5.643,5.643,0,0,1,.28,1.846m-4.619-8.354a1.909,1.909,0,0,0-.643-1.635,2.466,2.466,0,0,0-1.511-.477H87.274v4.309h1.54a2.353,2.353,0,0,0,1.47-.507,2.006,2.006,0,0,0,.657-1.691m.364,7.95a2.761,2.761,0,0,0-.21-1.141,2.114,2.114,0,0,0-.559-.76,2.345,2.345,0,0,0-.784-.437,2.773,2.773,0,0,0-.855-.14H87.274V133.3h1.68a2.467,2.467,0,0,0,1.666-.591,2.211,2.211,0,0,0,.685-1.773" transform="translate(-9.851 -13.89)" fill="#377474"/>
        <path id="Path_11682" data-name="Path 11682" d="M110.26,118.2a2.59,2.59,0,0,1-.672,1.8,2.4,2.4,0,0,1-3.472,0,2.6,2.6,0,0,1-.67-1.8,2.679,2.679,0,0,1,.182-.994,2.733,2.733,0,0,1,.488-.811,2.331,2.331,0,0,1,3.472,0,2.712,2.712,0,0,1,.672,1.805m-4.619,3.975h4.422v14.638h-4.422Z" transform="translate(-12.499 -13.705)" fill="#377474"/>
        <path id="Path_11683" data-name="Path 11683" d="M23.762,170.454a2.88,2.88,0,0,1-1.1,1.58,3.542,3.542,0,0,1-2.141.6,4.151,4.151,0,0,1-1.315-.224,3.394,3.394,0,0,1-1.232-.742,3.941,3.941,0,0,1-.924-1.372,5.4,5.4,0,0,1-.364-2.114,5.075,5.075,0,0,1,.547-2.491,4.469,4.469,0,0,1,1.427-1.567,5.723,5.723,0,0,1,2-.826,10.941,10.941,0,0,1,2.268-.236h.56v-.224a2.075,2.075,0,0,0-.49-1.54,1.786,1.786,0,0,0-1.3-.476,2.99,2.99,0,0,0-1.47.363,4.084,4.084,0,0,0-1.134.924l-1.932-2.686a6.069,6.069,0,0,1,2.227-1.651,6.457,6.457,0,0,1,2.644-.589,6.334,6.334,0,0,1,2.52.448,4.068,4.068,0,0,1,1.678,1.316,5.506,5.506,0,0,1,.924,2.112,13.221,13.221,0,0,1,.28,2.87v8.34H23.818v-1.818Zm-.138-4.562H22.84a4.94,4.94,0,0,0-.924.084,1.956,1.956,0,0,0-.784.323,1.679,1.679,0,0,0-.532.616,2.083,2.083,0,0,0-.2.963,1.814,1.814,0,0,0,.379,1.274,1.194,1.194,0,0,0,.91.406,1.559,1.559,0,0,0,.881-.251,1.851,1.851,0,0,0,.6-.658,3.357,3.357,0,0,0,.336-.924,4.806,4.806,0,0,0,.113-1.023Z" transform="translate(-1.977 -18.633)" fill="#377474"/>
        <path id="Path_11684" data-name="Path 11684" d="M37.669,157.636h4.255V160.1h.029q.781-2.909,2.937-2.911c.15,0,.271.006.365.015a1.963,1.963,0,0,1,.335.07l-.279,4.395c-.15-.039-.3-.071-.434-.1a2.622,2.622,0,0,0-.519-.042,1.665,1.665,0,0,0-.978.294,2.6,2.6,0,0,0-.715.77,3.823,3.823,0,0,0-.448,1.12,5.662,5.662,0,0,0-.153,1.316v7.248H37.669Z" transform="translate(-4.465 -18.633)" fill="#377474"/>
        <path id="Path_11685" data-name="Path 11685" d="M61.157,172.3a5.571,5.571,0,0,1-4.59-.153,5.175,5.175,0,0,1-1.791-1.609,7.609,7.609,0,0,1-1.106-2.464,12.263,12.263,0,0,1-.377-3.134,11.648,11.648,0,0,1,.391-3.122,7.9,7.9,0,0,1,1.119-2.449,5.01,5.01,0,0,1,4.282-2.182,4.717,4.717,0,0,1,3.528,1.455l-1.764,3.415a1.936,1.936,0,0,0-.616-.615,1.514,1.514,0,0,0-.811-.225,1.577,1.577,0,0,0-1.357.978,7.214,7.214,0,0,0-.015,5.472,1.614,1.614,0,0,0,1.456.966,1.433,1.433,0,0,0,.826-.237,1.877,1.877,0,0,0,.574-.63l1.762,3.387a4.054,4.054,0,0,1-1.511,1.146" transform="translate(-6.317 -18.633)" fill="#377474"/>
        <path id="Path_11686" data-name="Path 11686" d="M76.152,171.456H71.759V150.3h4.393v8.48h.085a3.969,3.969,0,0,1,1.216-1.735,3.3,3.3,0,0,1,2.225-.756,3.585,3.585,0,0,1,2.031.518,3.445,3.445,0,0,1,1.189,1.385,6.359,6.359,0,0,1,.56,1.988,18.891,18.891,0,0,1,.14,2.324v8.956H79.2v-8.985a4.534,4.534,0,0,0-.266-1.622,1.042,1.042,0,0,0-1.077-.7,1.394,1.394,0,0,0-1.258.741,3.707,3.707,0,0,0-.45,1.944Z" transform="translate(-8.506 -17.816)" fill="#377474"/>
        <path id="Path_11687" data-name="Path 11687" d="M98.482,152.84a2.588,2.588,0,0,1-.672,1.8,2.4,2.4,0,0,1-3.471,0,2.592,2.592,0,0,1-.671-1.8,2.662,2.662,0,0,1,.182-.994,2.7,2.7,0,0,1,.488-.811,2.254,2.254,0,0,1,.755-.56,2.331,2.331,0,0,1,2.716.56,2.712,2.712,0,0,1,.672,1.805m-4.619,3.975h4.422v14.638H93.863Z" transform="translate(-11.103 -17.812)" fill="#377474"/>
        <path id="Path_11688" data-name="Path 11688" d="M114.987,172.083a6.6,6.6,0,0,1-1.343.14,3.99,3.99,0,0,1-3.217-1.19,5.4,5.4,0,0,1-1.008-3.569v-6.828h-1.764v-3.415h1.735v-3.528h4.254v3.528h2.52v3.415h-2.52v5.841a2.809,2.809,0,0,0,.338,1.558,1.192,1.192,0,0,0,1.062.492,1.957,1.957,0,0,0,.98-.224v3.444a4,4,0,0,1-1.037.335" transform="translate(-12.761 -18.219)" fill="#377474"/>
        <path id="Path_11689" data-name="Path 11689" d="M128.389,166.048a4.288,4.288,0,0,0,.153,1.163,3.726,3.726,0,0,0,.406.951,2.025,2.025,0,0,0,.616.643,1.444,1.444,0,0,0,.81.239,1.536,1.536,0,0,0,1.176-.478,3.436,3.436,0,0,0,.7-1.119l3.219,1.818a6.315,6.315,0,0,1-2.03,2.577,5.331,5.331,0,0,1-3.232.951,5.672,5.672,0,0,1-2.392-.505,5.394,5.394,0,0,1-1.931-1.5,7.211,7.211,0,0,1-1.289-2.449,11.132,11.132,0,0,1-.461-3.36,11.494,11.494,0,0,1,.434-3.26,7.413,7.413,0,0,1,1.232-2.491,5.644,5.644,0,0,1,1.889-1.581,5.184,5.184,0,0,1,2.406-.56,5.258,5.258,0,0,1,2.577.587,4.986,4.986,0,0,1,1.75,1.61,7.042,7.042,0,0,1,.993,2.435,14.587,14.587,0,0,1,.309,3.092v1.231Zm3.3-2.855a4.664,4.664,0,0,0-.364-1.959,1.241,1.241,0,0,0-1.2-.784,1.173,1.173,0,0,0-.77.266,2.287,2.287,0,0,0-.545.672,3.338,3.338,0,0,0-.336.895,4.146,4.146,0,0,0-.113.91Z" transform="translate(-14.715 -18.621)" fill="#377474"/>
        <path id="Path_11690" data-name="Path 11690" d="M151.8,172.3a5.571,5.571,0,0,1-4.59-.153,5.172,5.172,0,0,1-1.79-1.609,7.591,7.591,0,0,1-1.107-2.464,12.265,12.265,0,0,1-.376-3.134,11.648,11.648,0,0,1,.391-3.122,7.9,7.9,0,0,1,1.119-2.449,5.01,5.01,0,0,1,4.282-2.182,4.717,4.717,0,0,1,3.528,1.455l-1.763,3.415a1.93,1.93,0,0,0-.617-.615,1.51,1.51,0,0,0-.811-.225,1.575,1.575,0,0,0-1.357.978,7.2,7.2,0,0,0-.015,5.472,1.613,1.613,0,0,0,1.455.966,1.433,1.433,0,0,0,.826-.237,1.868,1.868,0,0,0,.574-.63l1.763,3.387A4.058,4.058,0,0,1,151.8,172.3" transform="translate(-17.062 -18.633)" fill="#377474"/>
        <path id="Path_11691" data-name="Path 11691" d="M168.316,172.083a6.6,6.6,0,0,1-1.343.14,3.99,3.99,0,0,1-3.217-1.19,5.4,5.4,0,0,1-1.008-3.569v-6.828h-1.764v-3.415h1.735v-3.528h4.254v3.528h2.52v3.415h-2.52v5.841a2.809,2.809,0,0,0,.338,1.558,1.192,1.192,0,0,0,1.062.492,1.957,1.957,0,0,0,.98-.224v3.444a4,4,0,0,1-1.037.335" transform="translate(-19.083 -18.219)" fill="#377474"/>
        <path id="Path_11692" data-name="Path 11692" d="M185.468,161.749a4.494,4.494,0,0,0-1.093-.813,2.741,2.741,0,0,0-1.287-.308,1.318,1.318,0,0,0-.909.337,1.161,1.161,0,0,0-.379.922.924.924,0,0,0,.406.828,6.6,6.6,0,0,0,1.525.6,7.546,7.546,0,0,1,1.288.532,4.229,4.229,0,0,1,2.294,3.891,5.1,5.1,0,0,1-.475,2.294,4.571,4.571,0,0,1-1.2,1.539,4.847,4.847,0,0,1-1.638.867,5.972,5.972,0,0,1-1.75.281,7.679,7.679,0,0,1-2.814-.532,6.928,6.928,0,0,1-2.336-1.483l2.183-2.8a5.573,5.573,0,0,0,1.274,1.008,2.966,2.966,0,0,0,1.5.392,1.283,1.283,0,0,0,.966-.365,1.323,1.323,0,0,0,.35-.951,1.1,1.1,0,0,0-.561-1.022,9.55,9.55,0,0,0-1.678-.685,8.981,8.981,0,0,1-1.175-.49,3.559,3.559,0,0,1-1.05-.8,4.071,4.071,0,0,1-.756-1.217,4.591,4.591,0,0,1-.293-1.75,4.8,4.8,0,0,1,.447-2.141,4.613,4.613,0,0,1,1.163-1.51,4.833,4.833,0,0,1,1.594-.9,5.606,5.606,0,0,1,1.779-.294,7.1,7.1,0,0,1,2.575.475,7.187,7.187,0,0,1,2.182,1.316Z" transform="translate(-20.993 -18.633)" fill="#377474"/>
        <path id="Path_11693" data-name="Path 11693" d="M116.992,120.943c-1.842-1.381-4.01-1.6-4.843-.49s-.015,3.13,1.827,4.511a10.44,10.44,0,0,0,6.566,1.783,10.22,10.22,0,0,0-3.55-5.8" transform="translate(-11.255 -14.217)" fill="#377474"/>
        <path id="Path_11694" data-name="Path 11694" d="M113.362,110.114c-1.813,2.417-2.1,5.262-.643,6.354s4.107.019,5.919-2.4a13.7,13.7,0,0,0,2.339-8.616,13.411,13.411,0,0,0-7.616,4.659" transform="translate(-11.251 -12.599)" fill="#377474"/>
        <path id="Path_11697" data-name="Path 11697" d="M161.942,120.983c-1.126.729-1.683,1.87-1.243,2.548s1.708.639,2.834-.09a6.079,6.079,0,0,0,2.3-3.231,5.956,5.956,0,0,0-3.888.772" transform="translate(-19.031 -14.242)" fill="#377474"/>
        <path id="Path_11698" data-name="Path 11698" d="M155.346,120.4c.729,1.126,1.87,1.683,2.548,1.243s.639-1.708-.09-2.834a6.079,6.079,0,0,0-3.231-2.3,5.956,5.956,0,0,0,.772,3.888" transform="translate(-18.316 -13.812)" fill="#377474"/>
        <path id="Path_11699" data-name="Path 11699" d="M160.985,127.291c-1.748.859-2.746,2.411-2.227,3.465s2.355,1.212,4.1.353a8.835,8.835,0,0,0,3.863-4.269,8.651,8.651,0,0,0-5.74.451" transform="translate(-18.803 -15)" fill="#377474"/>
        <path id="Path_11700" data-name="Path 11700" d="M151.881,126.051c.859,1.748,2.411,2.746,3.465,2.227s1.212-2.355.353-4.1a8.835,8.835,0,0,0-4.269-3.863,8.652,8.652,0,0,0,.451,5.74" transform="translate(-17.915 -14.261)" fill="#377474"/>
        <path id="Path_11701" data-name="Path 11701" d="M158.091,135.514c-2.475.93-4.026,2.894-3.466,4.386s3.022,1.948,5.5,1.018a11.991,11.991,0,0,0,5.782-5.256,11.739,11.739,0,0,0-7.813-.148" transform="translate(-18.315 -15.99)" fill="#377474"/>
        <path id="Path_11702" data-name="Path 11702" d="M146.194,133.186c.93,2.475,2.894,4.027,4.386,3.466s1.948-3.022,1.018-5.5a11.991,11.991,0,0,0-5.256-5.782,11.739,11.739,0,0,0-.148,7.813" transform="translate(-17.256 -14.861)" fill="#377474"/>
        <path id="Path_11703" data-name="Path 11703" d="M138.028,145.768c10.088-1.586,18.89-14.445,20.144-29.479.008-.086-.032-.16-.089-.165s-.11.06-.118.145a45.541,45.541,0,0,1-2.27,10.489c-3.411,9.977-10.391,17.226-17.683,18.29-.309.051-.316.762.016.719" transform="translate(-16.332 -13.765)" fill="#377474"/>
      </g>
    </g>
    <path id="Path_11676" data-name="Path 11676" d="M16.329,18.478v33.5h5.289V42.234l15.626,4.1v4.446L23.347,62.46l3.4,4.048L42.532,53.241V18.478Zm5.289,18.289V33.319l15.626,4.1v3.448ZM37.243,31.95l-15.626-4.1V23.767H37.243Z" transform="translate(-1.936 -2.19)" fill="#377474"/>
    <path id="Path_11675" data-name="Path 11675" d="M112.821,49.883v16.27h5.254V55.137h25.834V61.3H124.052V77.5h5.314V66.612h14.542V84.743H149.2V66.612h14.541V77.5h5.314V61.3H149.2v-6.16h25.833V66.153h5.254V49.883Z" transform="translate(-13.374 -5.913)" fill="#377474"/>
  </g>
</svg>
