<svg id="Component_19_2" data-name="Component 19 – 2" xmlns="http://www.w3.org/2000/svg" xmlns:xlink="http://www.w3.org/1999/xlink" width="508.002" height="326.141" viewBox="0 0 508.002 326.141">
  <defs>
    <clipPath id="clip-path">
      <path id="Path_9970" data-name="Path 9970" d="M155.152,0,0,79.719l161.994,106.8,154-101.317Z" fill="none"/>
    </clipPath>
    <clipPath id="clip-path-2">
      <rect id="Rectangle_832" data-name="Rectangle 832" width="133.366" height="89.378" transform="translate(0 0)" fill="none"/>
    </clipPath>
  </defs>
  <g id="Union_11" data-name="Union 11" transform="translate(4486 63.141)" fill="#fff" stroke-miterlimit="10">
    <path d="M -4232 256.5324401855469 L -4409.77001953125 146.5359039306641 L -4409.77001953125 146.5358581542969 L -4417.07470703125 141.6795654296875 L -4475.54736328125 105.5000534057617 L -4417.072265625 69.31935882568359 L -4409.5107421875 64.64071655273438 L -4409.78564453125 64.47069549560547 L -4232 -45.53245162963867 L -4054.207763671875 64.47411346435547 L -4046.92626953125 69.31928253173828 L -3988.45166015625 105.5000076293945 L -4046.92431640625 141.6795654296875 L -4054.470947265625 146.3489990234375 L -4054.200439453125 146.516845703125 L -4232 256.5324401855469 Z" stroke="none"/>
    <path d="M -4232 250.0647277832031 L -4064.64306640625 146.5105895996094 L -4064.91357421875 146.3427276611328 L -3998.904541015625 105.5000228881836 L -4049.8203125 73.99636077880859 L -4064.6552734375 64.47751617431641 L -4232 -39.06485366821289 L -4399.3310546875 64.46949005126953 L -4399.05615234375 64.63954925537109 L -4465.0947265625 105.5000381469727 L -4414.18115234375 137.0024566650391 L -4399.296875 146.548095703125 L -4399.29736328125 146.5482482910156 L -4232 250.0647277832031 M -4232 263.0001831054688 L -4420.2412109375 146.5243682861328 L -4419.96875 146.3566436767578 L -4486.00048828125 105.5 L -4419.96630859375 64.64218139648438 L -4420.2412109375 64.47218322753906 L -4232 -52.00018310546875 L -4043.7578125 64.47218322753906 L -4044.032470703125 64.64218139648438 L -3977.998779296875 105.5 L -4044.0302734375 146.3566436767578 L -4043.760009765625 146.5243682861328 L -4232 263.0001831054688 Z" stroke="none" fill="#377474"/>
  </g>
  <g id="Group_621" data-name="Group 621" transform="translate(-1274.533 -690.336)">
    <line id="Line_6" data-name="Line 6" y2="168.641" transform="translate(1331.776 690.336)" fill="none" stroke="#9d8769" stroke-miterlimit="10" stroke-width="3"/>
    <path id="Path_2313" data-name="Path 2313" d="M5.782,60.424,85.171,30.355,5.782.286Z" transform="translate(1330.343 690.209)" fill="#e34640"/>
  </g>
  <g id="Group_2593" data-name="Group 2593" transform="matrix(1, -0.017, 0.017, 1, 65.734, 84.638)">
    <g id="Group_2592" data-name="Group 2592" clip-path="url(#clip-path)">
      <path id="Path_9941" data-name="Path 9941" d="M85.781,92.33q-.293-.206-.861-.581t-1.412-.915q-.843-.545-1.96-1.261l-2.5-1.609-.5-.32L58.507,99.3l9.6,6.331,4.3-2.538-5.675-3.718,11.539-6.754q2.02,1.338,3.728,2.6t3.1,2.445q1.388,1.184,2.459,2.283a19.653,19.653,0,0,1,1.8,2.111,14.235,14.235,0,0,1,1.644,2.9,11.128,11.128,0,0,1,.784,2.979,10.714,10.714,0,0,1-.087,3.051,12.81,12.81,0,0,1-.971,3.109l-.205.458,5.686.979.2-.459a14.834,14.834,0,0,0,1.22-4.6,13.132,13.132,0,0,0-.374-4.526,16.137,16.137,0,0,0-1.942-4.438,24.6,24.6,0,0,0-3.478-4.337q-.555-.555-1.207-1.14t-1.409-1.184q-.753-.6-1.613-1.233t-1.831-1.291" transform="translate(22.638 33.912)" fill="#377474"/>
      <path id="Path_9942" data-name="Path 9942" d="M88.256,80.3l-4.642,1.963.406.354a35.729,35.729,0,0,1,3.132,3.051,20.938,20.938,0,0,1,2.219,2.913,11.95,11.95,0,0,1,1.3,2.761,7.489,7.489,0,0,1,.352,2.6L91,94.382l5.7.119.025-.445a9.653,9.653,0,0,0-.2-2.51A11.8,11.8,0,0,0,95.664,89a16.367,16.367,0,0,0-1.513-2.581,23.758,23.758,0,0,0-2.157-2.6l6.326-3.7q1.723,1.138,3.232,2.291t2.8,2.327a32.581,32.581,0,0,1,2.358,2.358,25.081,25.081,0,0,1,1.907,2.376,16.211,16.211,0,0,1,1.664,2.965,11.309,11.309,0,0,1,.809,2.913,9.351,9.351,0,0,1-.054,2.836,9.9,9.9,0,0,1-.926,2.753l-.218.431,5.526,1.1.216-.433a11.539,11.539,0,0,0,1.248-6.348,14.723,14.723,0,0,0-2.43-6.538,31.969,31.969,0,0,0-6-6.7,71.5,71.5,0,0,0-9.487-6.825l-.5-.307L88.9,80.876Z" transform="translate(32.353 29.141)" fill="#377474"/>
      <path id="Path_9943" data-name="Path 9943" d="M111.857,79.386l3.931-2.322-5.671-3.412,10.564-6.177q2.02,1.227,3.745,2.386t3.129,2.245q1.411,1.088,2.5,2.1a19.992,19.992,0,0,1,1.86,1.942,14.249,14.249,0,0,1,1.764,2.662,10.529,10.529,0,0,1,.947,2.731,9.428,9.428,0,0,1,.121,2.792,10.732,10.732,0,0,1-.716,2.846l-.166.416,5.488.9.16-.416a12.489,12.489,0,0,0,.86-4.211A11.851,11.851,0,0,0,139.7,79.7a15.812,15.812,0,0,0-2.148-4.068,25.37,25.37,0,0,0-3.606-3.979q-.568-.514-1.229-1.047T131.3,69.525q-.759-.555-1.623-1.132t-1.834-1.184q-.291-.189-.86-.533t-1.412-.846l-1.956-1.161L121.1,63.192l-.5-.294L102.254,73.577Z" transform="translate(39.565 24.337)" fill="#377474"/>
      <path id="Path_9944" data-name="Path 9944" d="M129.489,56.164l-4.308,1.8.416.326a37.426,37.426,0,0,1,3.2,2.8,21.529,21.529,0,0,1,2.319,2.678,11.773,11.773,0,0,1,1.422,2.537,6.891,6.891,0,0,1,.509,2.383l.01.408,5.452.115v-.409a8.656,8.656,0,0,0-.355-2.305,11.372,11.372,0,0,0-.993-2.341,16.53,16.53,0,0,0-1.619-2.372,24.546,24.546,0,0,0-2.239-2.4L139.1,56q1.723,1.046,3.241,2.11t2.833,2.14q1.313,1.078,2.412,2.165a25.746,25.746,0,0,1,1.985,2.184,16.207,16.207,0,0,1,1.782,2.724,10.7,10.7,0,0,1,.963,2.668,8.112,8.112,0,0,1-.57,5.132l-.18.4,5.351,1.015.179-.4a9.87,9.87,0,0,0,.782-5.825,14.219,14.219,0,0,0-2.749-6,33.221,33.221,0,0,0-6.182-6.164,75.625,75.625,0,0,0-9.53-6.276l-.5-.277-8.772,5.1Z" transform="translate(48.436 19.963)" fill="#377474"/>
      <path id="Path_9945" data-name="Path 9945" d="M37.869,48.945l.65-.147-1.73-2.774-.645.139q-1.3.291-2.566.614t-2.52.685q-1.248.36-2.5.76t-2.481.84l-.6.212L28.117,51.8l.6-.214q1.109-.4,2.219-.759t2.257-.693q1.138-.329,2.305-.627t2.372-.569" transform="translate(9.86 17.808)" fill="#377474"/>
      <path id="Path_9946" data-name="Path 9946" d="M36.522,41.863q2.033,1.417,3.7,2.774a38.962,38.962,0,0,1,2.954,2.643,22.869,22.869,0,0,1,2.193,2.5,12.772,12.772,0,0,1,1.415,2.358,8.337,8.337,0,0,1,.774,2.946,7.647,7.647,0,0,1-.393,2.942,10.541,10.541,0,0,1-1.57,2.928,18.089,18.089,0,0,1-2.757,2.9l-.4.341,4.53,1.671.393-.34a21.685,21.685,0,0,0,3.229-3.4,12.9,12.9,0,0,0,1.877-3.444A9.426,9.426,0,0,0,53,55.209a9.981,9.981,0,0,0-.789-3.484,14.509,14.509,0,0,0-1.58-2.774,24.57,24.57,0,0,0-2.459-2.9,41.131,41.131,0,0,0-3.316-3.017q-1.866-1.525-4.151-3.115l-.416-.288-4.18,1.95Z" transform="translate(13.972 15.333)" fill="#377474"/>
      <path id="Path_9947" data-name="Path 9947" d="M79.176,27.247l.613-.139-1.854-2.562-.607.139q-1.223.268-2.415.566t-2.367.619q-1.175.331-2.336.693t-2.324.784l-.555.2,2.7,2.337.555-.2q1.032-.366,2.08-.693t2.112-.635q1.067-.3,2.165-.577t2.232-.523" transform="translate(26.052 9.498)" fill="#377474"/>
      <path id="Path_9948" data-name="Path 9948" d="M77.411,20.708q2.049,1.311,3.745,2.562t3.017,2.442a23.992,23.992,0,0,1,2.269,2.315A12.946,12.946,0,0,1,87.967,30.2a7.93,7.93,0,0,1,.949,2.718,6.665,6.665,0,0,1-.171,2.714,8.764,8.764,0,0,1-1.3,2.7,15.155,15.155,0,0,1-2.441,2.677l-.355.315L89.1,42.87l.352-.313a18.072,18.072,0,0,0,2.854-3.136,10.706,10.706,0,0,0,1.558-3.175,8.159,8.159,0,0,0,.277-3.2,9.5,9.5,0,0,0-1-3.215,14.639,14.639,0,0,0-1.713-2.566,25.845,25.845,0,0,0-2.559-2.684,43.264,43.264,0,0,0-3.391-2.789q-1.9-1.417-4.2-2.882l-.416-.266-3.872,1.8Z" transform="translate(29.792 7.214)" fill="#377474"/>
      <path id="Path_9949" data-name="Path 9949" d="M20.578,63.23l10.7-2.2-1.512-2.9L16.78,60.756l-8.555-5.57-4.33,2.219,27.23,17.861,4.342-2.327Z" transform="translate(1.507 21.353)" fill="#377474"/>
      <path id="Path_9950" data-name="Path 9950" d="M19,53.792l.662.053.914-2.262-.682-.058q-.876-.075-1.716-.139l-1.646-.125q-.807-.056-1.588-.1T13.4,51.074l-.682-.036-.657,2.293.68.036c.455.024.925.051,1.409.08s.986.062,1.5.1,1.057.074,1.613.115S18.4,53.747,19,53.8" transform="translate(4.667 19.748)" fill="#377474"/>
      <path id="Path_9951" data-name="Path 9951" d="M18.269,55.963l.671.065.971-2.3-.671-.071q-.8-.081-1.6-.151t-1.612-.126q-.813-.056-1.638-.1T12.7,53.2l-.682-.026-.609,2.334.693.026q.764.031,1.526.072t1.526.094c.512.035,1.028.075,1.545.118s1.042.09,1.57.139" transform="translate(4.413 20.576)" fill="#377474"/>
      <path id="Path_9952" data-name="Path 9952" d="M63.65,40.407l10.1-2.018-1.664-2.674L59.834,38.123l-8.6-5.146-3.979,2.054L74.6,51.5l3.989-2.143Z" transform="translate(18.285 12.76)" fill="#377474"/>
      <path id="Path_9953" data-name="Path 9953" d="M61.463,31.705l.642.054.713-2.08-.659-.055q-.847-.069-1.653-.13t-1.591-.122c-.519-.035-1.028-.068-1.526-.1s-.993-.057-1.485-.08l-.656-.033-.466,2.112.653.033q.655.035,1.355.076t1.449.092q.751.05,1.553.107l1.664.123" transform="translate(21.197 11.283)" fill="#377474"/>
      <path id="Path_9954" data-name="Path 9954" d="M60.914,33.706l.648.061.77-2.119-.646-.064q-.772-.077-1.548-.139t-1.559-.119q-.784-.052-1.582-.1t-1.616-.074l-.655-.025-.416,2.151.663.025q.734.029,1.467.068t1.473.089q.739.05,1.488.11t1.515.139" transform="translate(21.014 12.046)" fill="#377474"/>
      <path id="Path_9955" data-name="Path 9955" d="M83.88,51.508,28.827,81.385a4.058,4.058,0,0,0-1.212.961,2.212,2.212,0,0,0-.509,1.11,1.808,1.808,0,0,0,.215,1.11,2.852,2.852,0,0,0,.96.99L58.9,105.735a5.5,5.5,0,0,0,1.617.693,7.757,7.757,0,0,0,1.89.246,8.15,8.15,0,0,0,1.931-.211,6.462,6.462,0,0,0,1.736-.669l55.122-31.653a3.355,3.355,0,0,0,1.086-.94,1.913,1.913,0,0,0,.373-1.073,1.871,1.871,0,0,0-.337-1.078,3.268,3.268,0,0,0-1.049-.953L90.584,51.576a5.558,5.558,0,0,0-1.526-.613,7.823,7.823,0,0,0-1.777-.216,8.044,8.044,0,0,0-1.795.18,6.136,6.136,0,0,0-1.606.581m-14.4,27.116L59.892,83.96q1.013.647,1.978,1.248t1.892,1.15q.926.555,1.815,1.062t1.75.981q.383.225.7.4t.573.3c.169.086.316.158.44.218s.226.105.305.139c.184.085.37.164.555.239s.368.144.548.207.366.122.545.175.359.1.542.139a7.361,7.361,0,0,0,1.194.151,9.4,9.4,0,0,0,1.311-.033,12.58,12.58,0,0,0,1.42-.218q.734-.156,1.526-.4c.277-.083.583-.187.929-.315s.731-.277,1.158-.451.9-.373,1.412-.6,1.076-.474,1.687-.752l.574-.261,3.367,2.652-.588.268q-1.764.813-3.329,1.438t-2.94,1.058q-1.375.439-2.566.693a16,16,0,0,1-2.207.326,15.827,15.827,0,0,1-2.664-.042,18.2,18.2,0,0,1-2.742-.488,21.881,21.881,0,0,1-2.806-.932,26.75,26.75,0,0,1-2.854-1.361q-.872-.481-1.786-1.008t-1.877-1.11q-.963-.578-1.978-1.212T55.688,86.3l-6.36,3.535L45.7,87.471l6.366-3.523-1.1-.745q-.566-.383-1.161-.791t-1.218-.84q-.622-.435-1.273-.895L43,83.049l-3.585-2.33,14.147-7.728,3.588,2.286-5.639,3.1q.649.46,1.273.889T54,80.1q.595.406,1.162.786l1.1.741,9.58-5.3ZM84.062,57.745a48.5,48.5,0,0,1,8.026,5.974,22.419,22.419,0,0,1,4.767,6.141,12.7,12.7,0,0,1,1.431,6.3,14.016,14.016,0,0,1-2.006,6.431l-.232.4L90.72,81.929l.225-.4a11.626,11.626,0,0,0,1.664-5.489A11.038,11.038,0,0,0,91.3,70.6a20.259,20.259,0,0,0-4.219-5.367,44.243,44.243,0,0,0-7.062-5.283l-.456-.283L83.6,57.459Z" transform="translate(10.483 19.635)" fill="#377474"/>
      <path id="Path_9956" data-name="Path 9956" d="M124.885,44.118l-2.5-.269-2.161-.236-1.822-.2-1.488-.168h-.049a.975.975,0,0,1-.128-.018,1.206,1.206,0,0,1-.139-.037c-.046-.015-.092-.033-.139-.054a1.455,1.455,0,0,1-.139-.071,1.647,1.647,0,0,1-.2-.128.937.937,0,0,1-.139-.139.7.7,0,0,1-.158-.308l-.219-1.055-.189-.915-.16-.775-.129-.637c-.065-.376-.129-.757-.194-1.144s-.129-.777-.191-1.172-.128-.793-.193-1.2l-.2-1.219-.5-3.085-5.205.153.051.366c.11.778.214,1.506.315,2.194s.2,1.336.293,1.95.187,1.2.277,1.754.182,1.092.277,1.61.161.949.23,1.344.139.738.187,1.026.1.523.139.7.068.3.089.368a3.374,3.374,0,0,0,.288.693,3.572,3.572,0,0,0,.441.624,4.5,4.5,0,0,0,.6.563,6.3,6.3,0,0,0,.753.5,7.211,7.211,0,0,0,.732.366,8.4,8.4,0,0,0,.806.3,7.719,7.719,0,0,0,.888.237c.315.065.638.125.971.176l1.706.194,1.551.171,1.387.15,1.234.13,1.585.169q1.837.212,3.691.433t3.745.452q1.9.231,3.836.474t3.95.5l.663.085.971-2.962-.657-.087q-1.664-.218-3.4-.438t-3.58-.445q-1.822-.221-3.764-.451t-4.012-.467" transform="translate(42.04 12.107)" fill="#377474"/>
      <path id="Path_9957" data-name="Path 9957" d="M129.083,21.343l-.971,2.635.631.085a11.9,11.9,0,0,1,1.811.416q1.015.308,2.25.814t2.685,1.212q1.452.705,3.118,1.61,1.371.745,2.541,1.462t2.136,1.408q.972.693,1.723,1.348a13.332,13.332,0,0,1,1.3,1.282,9.437,9.437,0,0,1,1,1.416,10.076,10.076,0,0,1,.746,1.6,11.508,11.508,0,0,1,.485,1.785,13.758,13.758,0,0,1,.222,1.964l.017.372,5.071.082-.015-.365a14.668,14.668,0,0,0-.262-2.255,12.618,12.618,0,0,0-.594-2.068A11.578,11.578,0,0,0,150.82,32.6a15.205,15.205,0,0,0-1.5-1.515q-.872-.772-1.978-1.57t-2.441-1.62q-1.334-.822-2.892-1.664-1.941-1.053-3.678-1.874t-3.254-1.415q-1.525-.595-2.858-.971a18.852,18.852,0,0,0-2.49-.535Z" transform="translate(49.571 8.258)" fill="#377474"/>
      <path id="Path_9958" data-name="Path 9958" d="M137.319,35.078l1.452-2.616-.638-.119c-.47-.087-.925-.19-1.366-.305s-.87-.245-1.284-.39-.818-.3-1.211-.477-.774-.363-1.147-.567-.734-.415-1.11-.646-.759-.477-1.151-.736-.784-.534-1.182-.822-.8-.589-1.207-.9l-4.494-3.689-4.044,1.463.362.3,1.032.85.893.735.753.619.613.5.416.34.309.254.208.171.107.09q.639.506,1.273.971t1.266.892q.63.426,1.255.809t1.24.723q.761.416,1.584.784t1.7.67q.88.306,1.817.555t1.922.433Z" transform="translate(46.408 9.211)" fill="#377474"/>
      <path id="Path_9959" data-name="Path 9959" d="M163.336,26.422l-1.821-.139-1.86-.139c-.624-.047-1.248-.085-1.878-.123s-1.248-.075-1.874-.107l-.66-.032-.071,2.409.648.035,1.642.09q.855.05,1.766.107c.606.039,1.229.082,1.864.129s1.282.1,1.942.155l.659.057.3-2.391Z" transform="translate(60.041 10.015)" fill="#377474"/>
      <path id="Path_9960" data-name="Path 9960" d="M100.408,43.115a16.984,16.984,0,0,0-3.79.657,17.647,17.647,0,0,0-1.839.65,18.749,18.749,0,0,0-1.8.865q-1.034.566-2.128,1.248t-2.248,1.469q-1.155.793-2.358,1.695t-2.477,1.918l-.393.315,4.25,1.775.4-.318q1.286-1.011,2.462-1.882T92.739,49.9q1.071-.739,2.05-1.351t1.872-1.11a13.87,13.87,0,0,1,1.331-.648,10.628,10.628,0,0,1,1.272-.445,8.169,8.169,0,0,1,1.208-.241,6.4,6.4,0,0,1,1.141-.036,7.019,7.019,0,0,1,1.087.161,9.987,9.987,0,0,1,1.179.348,13.646,13.646,0,0,1,1.268.534q.655.314,1.352.72a15.919,15.919,0,0,1,3.845,2.972,6.83,6.83,0,0,1,1.73,3.238,6.129,6.129,0,0,1-.4,3.524,13.224,13.224,0,0,1-2.563,3.849l-.316.348,4.716,1.5.323-.356a15.665,15.665,0,0,0,3.132-4.814,7.759,7.759,0,0,0,.416-4.466,8.956,8.956,0,0,0-2.251-4.114,20.217,20.217,0,0,0-4.878-3.759c-.18-.105-.362-.207-.54-.305s-.352-.193-.523-.277l-.49-.257-.451-.23a15.075,15.075,0,0,0-1.863-.792,14.569,14.569,0,0,0-1.932-.526,14.886,14.886,0,0,0-2-.261,15.84,15.84,0,0,0-2.053,0" transform="translate(32.262 16.667)" fill="#377474"/>
      <path id="Path_9961" data-name="Path 9961" d="M92.988,40.851l-.666-.026-.277,2.219.675.026q.751.029,1.5.069t1.5.09q.753.052,1.516.112c.509.04,1.022.087,1.542.139l.662.062.634-2.191-.663-.067q-.793-.079-1.587-.139l-1.582-.119q-.8-.054-1.61-.1t-1.644-.079" transform="translate(35.615 15.796)" fill="#377474"/>
      <path id="Path_9962" data-name="Path 9962" d="M93.467,38.675l-.678-.042-.326,2.191.666.035q.672.035,1.358.079t1.387.094l1.424.105,1.462.112,1.123.087.577-2.157-.673-.055c-.5-.042-1-.082-1.509-.121s-1.017-.078-1.538-.114l-1.595-.11Z" transform="translate(35.777 14.948)" fill="#377474"/>
      <path id="Path_9963" data-name="Path 9963" d="M144.579,88.374,89.493,122.359a3.786,3.786,0,0,0-1.183,1.1,2.376,2.376,0,0,0-.416,1.258,2.312,2.312,0,0,0,.351,1.268,3.626,3.626,0,0,0,1.129,1.125L124.2,150.064a6.3,6.3,0,0,0,1.8.8,8,8,0,0,0,2.042.277,7.844,7.844,0,0,0,2.032-.243,5.958,5.958,0,0,0,1.772-.766l54.942-36.153a3.145,3.145,0,0,0,1.042-1.068,2.1,2.1,0,0,0,.269-1.221,2.453,2.453,0,0,0-.485-1.223,4.153,4.153,0,0,0-1.225-1.08l-34.7-20.943A6.3,6.3,0,0,0,150,87.748a8.049,8.049,0,0,0-1.9-.24,7.745,7.745,0,0,0-1.882.207,5.63,5.63,0,0,0-1.637.659m5.33,43.378-4.189,2.735-1.183-.756-13.926,9.076-4.438-2.89L140.1,130.9l-20.072-12.815-13.818,8.677-4.286-2.791,18.016-11.234Zm10.263-24.425-10.917,2.548L167.206,121l-4.119,2.688-32.834-20.461,4.129-2.566,10.3,6.384,13.258-3.036Z" transform="translate(34.009 33.859)" fill="#377474"/>
      <path id="Path_9964" data-name="Path 9964" d="M187.463,80.779l-2.689-.3-2.318-.264-1.954-.226-1.6-.187h-.051a1.15,1.15,0,0,1-.139-.021,1.36,1.36,0,0,1-.147-.042c-.05-.017-.1-.037-.154-.061a1.505,1.505,0,0,1-.155-.08,2.084,2.084,0,0,1-.225-.139,1.253,1.253,0,0,1-.169-.151.92.92,0,0,1-.2-.348l-.356-1.193-.311-1.047-.259-.878-.211-.72q-.171-.647-.343-1.312t-.345-1.343q-.173-.678-.351-1.37l-.355-1.4-.868-3.416-5.5.182.1.416c.207.879.4,1.7.589,2.478s.366,1.509.538,2.2.338,1.354.5,1.985.322,1.236.479,1.821.277,1.078.4,1.526.227.832.319,1.162.169.591.23.792.107.338.139.416a4.475,4.475,0,0,0,.388.778,4.762,4.762,0,0,0,.542.7,5.647,5.647,0,0,0,.7.637,7.458,7.458,0,0,0,.864.573,9.088,9.088,0,0,0,.82.416c.284.125.58.237.889.338s.632.19.971.268.689.144,1.057.2l1.832.218,1.664.191,1.5.168,1.325.147,1.7.189q1.953.235,3.937.48t4.022.5q2.037.26,4.133.533t4.275.564l.713.1.675-3.358-.707-.1q-1.785-.243-3.657-.491t-3.847-.5q-1.976-.252-4.066-.509t-4.313-.524" transform="translate(65.299 25.647)" fill="#377474"/>
      <path id="Path_9965" data-name="Path 9965" d="M189.112,55.033,188.4,58l.678.094a12.774,12.774,0,0,1,1.965.467q1.109.345,2.477.915t2.986,1.363q1.621.795,3.492,1.811,1.54.832,2.865,1.646t2.43,1.587q1.109.776,1.986,1.526a16.871,16.871,0,0,1,1.526,1.445,12.518,12.518,0,0,1,1.234,1.6,13.269,13.269,0,0,1,.985,1.8,14.819,14.819,0,0,1,.731,2.017,17.545,17.545,0,0,1,.473,2.219l.062.416,5.381.083-.061-.416a18.619,18.619,0,0,0-.555-2.551,16.278,16.278,0,0,0-.879-2.336,15.3,15.3,0,0,0-2.714-4.011,19.672,19.672,0,0,0-1.777-1.707q-1.015-.87-2.283-1.77t-2.774-1.824q-1.508-.924-3.261-1.872-2.191-1.186-4.119-2.108t-3.606-1.591q-1.685-.668-3.14-1.089a20.214,20.214,0,0,0-2.7-.588Z" transform="translate(72.897 21.294)" fill="#377474"/>
      <path id="Path_9966" data-name="Path 9966" d="M200.044,67.432q-.761-.148-1.483-.341t-1.406-.438q-.684-.243-1.34-.537t-1.281-.638q-.614-.337-1.257-.728t-1.306-.832q-.664-.439-1.35-.926t-1.387-1.019l-5.182-4.154-4.111,1.664.416.336,1.187.954,1.029.825.87.693.709.566.483.386.361.288.241.194.125.1q.734.568,1.463,1.094t1.447,1.006q.718.481,1.426.911t1.4.814q.855.472,1.771.882t1.883.753q.972.343,1.99.621t2.089.487l.677.139,1.223-2.957Z" transform="translate(69.625 22.372)" fill="#377474"/>
      <path id="Path_9967" data-name="Path 9967" d="M161.114,79.693a16.48,16.48,0,0,0-2,.252,15.882,15.882,0,0,0-1.942.5,16.256,16.256,0,0,0-1.875.741,17.181,17.181,0,0,0-1.8.983q-1.03.643-2.114,1.416t-2.219,1.673q-1.134.9-2.312,1.926t-2.4,2.179l-.38.358,4.716,2.007.391-.361q1.248-1.148,2.394-2.139t2.2-1.831q1.051-.838,2.019-1.535T157.64,84.6a12.674,12.674,0,0,1,1.338-.736,9.715,9.715,0,0,1,1.3-.506,7.548,7.548,0,0,1,1.248-.277,6.379,6.379,0,0,1,1.207-.043,7.451,7.451,0,0,1,1.173.182,10.736,10.736,0,0,1,1.291.393q.676.25,1.406.6t1.526.814a19.812,19.812,0,0,1,4.426,3.365,8.99,8.99,0,0,1,2.219,3.666,7.3,7.3,0,0,1-.017,4,13.323,13.323,0,0,1-2.272,4.376l-.3.4,5.179,1.7.3-.4a15.851,15.851,0,0,0,2.76-5.476,9.292,9.292,0,0,0-.085-5.071,11.83,11.83,0,0,0-2.872-4.663,25.207,25.207,0,0,0-5.614-4.254c-.2-.118-.408-.233-.607-.344s-.4-.218-.587-.32-.374-.2-.555-.29l-.5-.254a17.161,17.161,0,0,0-2.068-.895,16.1,16.1,0,0,0-2.111-.594,15.449,15.449,0,0,0-2.14-.3,15.608,15.608,0,0,0-2.176.011" transform="translate(55.744 30.817)" fill="#377474"/>
      <path id="Path_9968" data-name="Path 9968" d="M153.2,77.135l-.709-.028-.026,2.52.718.029c.533.021,1.065.047,1.6.076s1.067.062,1.6.1,1.078.079,1.621.125,1.094.1,1.65.151l.709.069.413-2.477-.71-.074q-.851-.089-1.7-.162t-1.7-.139q-.855-.06-1.718-.108t-1.746-.083" transform="translate(58.992 29.835)" fill="#377474"/>
      <path id="Path_9969" data-name="Path 9969" d="M153.455,74.666l-.724-.047-.093,2.483.71.039q.716.04,1.448.087c.488.032.983.068,1.484.105l1.526.118,1.563.125,1.2.1.361-2.442-.72-.061-1.613-.139c-.541-.047-1.087-.086-1.643-.126s-1.122-.082-1.7-.122-1.18-.075-1.8-.116" transform="translate(59.06 28.872)" fill="#377474"/>
    </g>
  </g>
  <g id="Group_2594" data-name="Group 2594" transform="translate(321 156.141)">
    <g id="Group_2594-2" data-name="Group 2594" clip-path="url(#clip-path-2)">
      <path id="Path_9971" data-name="Path 9971" d="M7.662,89.378,0,84.314l3.879-2.35a5.374,5.374,0,0,1,2.374-.809,3.762,3.762,0,0,1,2.38.682q1.191.777,1.014,1.535a2.68,2.68,0,0,1-1.36,1.483L5.8,86.372,9.06,88.518ZM4.623,85.593l2.289-1.4a1.449,1.449,0,0,0,.713-.739q.1-.363-.46-.727a1.747,1.747,0,0,0-1.123-.309,2.7,2.7,0,0,0-1.189.424l-2.289,1.39Zm10.543-.833-5.28-3.438,1.222-.744.827.432a.908.908,0,0,1,.041-.823,1.874,1.874,0,0,1,.732-.748,3.785,3.785,0,0,1,.391-.211,3.57,3.57,0,0,1,.34-.139l1.192.77a4,4,0,0,0-.434.176,5.592,5.592,0,0,0-.51.277,1.192,1.192,0,0,0-.647.835q-.062.479.574.892l2.9,1.886ZM22.338,80.5a5.253,5.253,0,0,1-2.715.789,5.018,5.018,0,0,1-2.846-.864,2.89,2.89,0,0,1-1.13-1.162,1.36,1.36,0,0,1,.01-1.2,2.675,2.675,0,0,1,1.076-1.072,4.216,4.216,0,0,1,1.7-.592,5.223,5.223,0,0,1,1.816.1,5.325,5.325,0,0,1,1.676.7l.286.182-3.887,2.38a2.93,2.93,0,0,0,1.578.449,2.828,2.828,0,0,0,1.378-.424,1.365,1.365,0,0,0,.662-.718,1.181,1.181,0,0,0-.129-.852l1.616-.192a1.566,1.566,0,0,1,.031,1.356A2.889,2.889,0,0,1,22.338,80.5ZM17.43,79.114l2.519-1.54a2.79,2.79,0,0,0-1.2-.26,2.119,2.119,0,0,0-1.077.308,1.162,1.162,0,0,0-.6.692.894.894,0,0,0,.358.8m10.588-2.126a6.042,6.042,0,0,1-1.538.663,6.254,6.254,0,0,1-1.826.218V76.838a4.181,4.181,0,0,0,2.356-.58,1.407,1.407,0,0,0,.568-.507q.089-.213-.252-.429a.748.748,0,0,0-.375-.106,1.825,1.825,0,0,0-.584.118q-.374.12-1.023.394a6.457,6.457,0,0,1-1.817.482,2.462,2.462,0,0,1-1.6-.4,1.124,1.124,0,0,1-.567-.712,1.081,1.081,0,0,1,.21-.816,2.766,2.766,0,0,1,.868-.773,5.706,5.706,0,0,1,1.371-.611,5.31,5.31,0,0,1,1.5-.212l.131,1a3.445,3.445,0,0,0-1.891.5q-.433.264-.472.465a.3.3,0,0,0,.158.327.653.653,0,0,0,.329.1,1.738,1.738,0,0,0,.532-.093q.345-.1.946-.332a7.139,7.139,0,0,1,2.05-.5,2.642,2.642,0,0,1,1.623.388q.8.508.572,1.167a2.726,2.726,0,0,1-1.269,1.284m5.8-3.556a5.148,5.148,0,0,1-2.669.77,5.1,5.1,0,0,1-2.829-.844,2.923,2.923,0,0,1-1.138-1.136,1.314,1.314,0,0,1-.012-1.172A2.563,2.563,0,0,1,28.214,70a4.109,4.109,0,0,1,1.671-.579,5.182,5.182,0,0,1,1.8.1,5.478,5.478,0,0,1,1.669.687l.286.178-3.8,2.326a2.966,2.966,0,0,0,1.568.439,2.778,2.778,0,0,0,1.354-.414,1.3,1.3,0,0,0,.641-.7,1.157,1.157,0,0,0-.144-.833l1.594-.187a1.516,1.516,0,0,1,.055,1.325,2.734,2.734,0,0,1-1.091,1.088Zm-4.877-1.354,2.462-1.5a2.815,2.815,0,0,0-1.192-.254,2.084,2.084,0,0,0-1.059.3,1.088,1.088,0,0,0-.576.677.887.887,0,0,0,.365.777m8.336-.926-5.283-3.29,1.157-.7.692.345a1.133,1.133,0,0,1,.076-.7,1.533,1.533,0,0,1,.667-.681,3.65,3.65,0,0,1,1.92-.525,3.891,3.891,0,0,1,2.084.623l3.345,2.064-1.286.791L37.6,67.193a2.576,2.576,0,0,0-1.2-.42,1.718,1.718,0,0,0-1.019.238.8.8,0,0,0-.477.688q.013.389.651.784l3.016,1.873Zm8.176-4.883a3.758,3.758,0,0,1-1.513.578,2.474,2.474,0,0,1-1.571-.444l-2.91-1.789-1.043.636L37.353,64.6l1.043-.635L36.553,62.83l1.267-.768,1.843,1.13,1.5-.913,1.061.648-1.5.915,2.59,1.588a1.131,1.131,0,0,0,.693.2,1.55,1.55,0,0,0,.668-.248,1.607,1.607,0,0,0,.368-.307,1.425,1.425,0,0,0,.211-.292l1.136.694a2.366,2.366,0,0,1-.38.39,4.376,4.376,0,0,1-.557.4m4.47-2.752a5.01,5.01,0,0,1-2.6.745,5.153,5.153,0,0,1-2.8-.817,2.957,2.957,0,0,1-1.149-1.1,1.256,1.256,0,0,1-.042-1.134,2.4,2.4,0,0,1,1-1.014,3.946,3.946,0,0,1,1.626-.555,5.3,5.3,0,0,1,1.77.1,5.519,5.519,0,0,1,1.66.665l.286.173-3.678,2.242a3.011,3.011,0,0,0,1.553.425,2.7,2.7,0,0,0,1.321-.4,1.222,1.222,0,0,0,.612-.679,1.113,1.113,0,0,0-.163-.806l1.563-.181a1.455,1.455,0,0,1,.089,1.283,2.558,2.558,0,0,1-1.043,1.053m-4.831-1.31,2.382-1.456a2.819,2.819,0,0,0-1.179-.246,2.016,2.016,0,0,0-1.033.291,1.018,1.018,0,0,0-.549.655.883.883,0,0,0,.379.755ZM55.68,59.973a4.623,4.623,0,0,1-1.642.608,5.414,5.414,0,0,1-1.874-.009,5.263,5.263,0,0,1-1.829-.691,2.84,2.84,0,0,1-1.147-1.1,1.263,1.263,0,0,1-.025-1.131,2.429,2.429,0,0,1,.984-1,3.534,3.534,0,0,1,1.98-.48l-3-1.794,1.244-.753,7.807,4.662-1.078.663-.662-.329a1.092,1.092,0,0,1-.121.724,1.737,1.737,0,0,1-.637.63m-1.07-.709a.914.914,0,0,0,.542-.854q-.043-.495-.834-.967a3.246,3.246,0,0,0-1.6-.493,2.53,2.53,0,0,0-1.4.337.915.915,0,0,0-.546.85q.041.493.83.969a3.28,3.28,0,0,0,1.608.5,2.443,2.443,0,0,0,1.4-.342Zm10.673-5.2a3.064,3.064,0,0,1-1.006.387,4.548,4.548,0,0,1-1.175.078l.541.4-1.066.656-7.806-4.62L56,50.22l3,1.769a1.04,1.04,0,0,1,.166-.631,1.742,1.742,0,0,1,.59-.549,4.581,4.581,0,0,1,1.62-.595,5.3,5.3,0,0,1,1.836.012,5.4,5.4,0,0,1,1.808.672,2.965,2.965,0,0,1,1.166,1.071,1.214,1.214,0,0,1,.063,1.106,2.3,2.3,0,0,1-.965.986Zm-1.167-.635a.878.878,0,0,0,.523-.837q-.051-.484-.841-.95a3.282,3.282,0,0,0-1.6-.483,2.48,2.48,0,0,0-1.379.33.881.881,0,0,0-.527.834q.046.484.837.95a3.281,3.281,0,0,0,1.6.487,2.462,2.462,0,0,0,1.382-.334Zm7.225-.6q-.258.159-.5.289a4.024,4.024,0,0,1-.469.217l-1.139-.667c.151-.058.3-.122.454-.193a4.053,4.053,0,0,0,.409-.219,1.156,1.156,0,0,0,.368-.307.27.27,0,0,0,.01-.271,2.654,2.654,0,0,0-.226-.364L70,51l-7.309-1.831,1.261-.766,5.088,1.4-2.549-2.95,1.227-.747,3.923,4.775a1.7,1.7,0,0,1,.468,1.024q0,.441-.769.917Z" fill="#1d1d1d"/>
      <path id="Path_9972" data-name="Path 9972" d="M105.361,14.345l15.291-9.163-4.029-2.066,3.532-2.1-2-1.016-3.529,2.092L112.252.874l-1.784,1.049,2.377,1.223-4.91,2.905-2.383-1.236-1.8,1.06,2.379,1.241-4.979,2.948L98.772,8.81,96.936,9.892l2.382,1.259-3.683,2.18,2,1.067,3.682-2.188Zm11.491-9.138-4.907,2.928-2.011-1.043,4.908-2.919Zm-6.7,4-4.98,2.971-2.02-1.06,4.982-2.96Z" fill="#4e4e4e"/>
      <path id="Path_9973" data-name="Path 9973" d="M103.506,17.771l6.282,3.348,1.826-1.113-4.26-2.262,8.877-5.365,2.375,1.24L111.8,17.751l6.306,3.328,1.829-1.125-4.242-2.235,4.972-3.032,7.079,3.692,1.79-1.1L122.458,13.6l4.9-2.986,4.233,2.178,1.775-1.092-6.288-3.219-6.677,4.05L118.027,11.3,126.7,6.056l4.246,2.168,1.742-1.061-6.258-3.184Z" fill="#4e4e4e"/>
      <path id="Path_9974" data-name="Path 9974" d="M71.233,32.984,69.92,32.24l7.32-2.557,1.32.737Zm-3.4-1.919-1.548-.875,5.761-3.406,3.108,1.735Zm-5.513-.846,12.8,7.255,1.964-1.187-3.754-2.12,7.33-2.574,1.714.957L81.793,38.2l2.838.122.628-6.406L82.593,30.43l-10.611-5.9Z" fill="#4e4e4e"/>
      <path id="Path_9975" data-name="Path 9975" d="M83.727,42.355l1.963-1.207,2.785,1.573-1.962,1.214Z" fill="#4e4e4e"/>
      <path id="Path_9976" data-name="Path 9976" d="M91.391,37.64l1.931-1.188L96.1,38l-1.93,1.194Z" fill="#4e4e4e"/>
      <path id="Path_9977" data-name="Path 9977" d="M98.931,33l1.9-1.168,2.78,1.522-1.9,1.178Z" fill="#4e4e4e"/>
      <path id="Path_9978" data-name="Path 9978" d="M106.349,28.438l1.869-1.15,2.776,1.5-1.868,1.154Z" fill="#4e4e4e"/>
      <path id="Path_9979" data-name="Path 9979" d="M84.452,17.242l2.48-1.461,2.641,1.425-2.479,1.468Z" fill="#4e4e4e"/>
      <path id="Path_9980" data-name="Path 9980" d="M103.685,24.852,92.428,25.5l-2.964-1.623,5.865-3.514-2.02-1.09-5.866,3.5-6.424-3.507-1.9,1.117L85.546,23.9l-5.965,3.559L81.6,28.583l5.964-3.573,2.968,1.625-.591,6.593,2.814.121.533-6.3,10.77-.615Z" fill="#4e4e4e"/>
    </g>
  </g>
</svg>
