<svg id="Component_11_6" data-name="Component 11 – 6" xmlns="http://www.w3.org/2000/svg" xmlns:xlink="http://www.w3.org/1999/xlink" width="387.195" height="265.5" viewBox="0 0 387.195 265.5">
  <defs>
    <clipPath id="clip-path">
      <rect id="Rectangle_40" data-name="Rectangle 40" width="141.307" height="87" fill="none"/>
    </clipPath>
    <clipPath id="clip-path-2">
      <rect id="Rectangle_785" data-name="Rectangle 785" width="39.773" height="43.196" fill="none"/>
    </clipPath>
    <clipPath id="clip-path-4">
      <rect id="Rectangle_783" data-name="Rectangle 783" width="17.505" height="11.417" fill="none"/>
    </clipPath>
    <clipPath id="clip-path-5">
      <rect id="Rectangle_612" data-name="Rectangle 612" width="47.387" height="108.767" fill="none"/>
    </clipPath>
    <clipPath id="clip-path-7">
      <rect id="Rectangle_607" data-name="Rectangle 607" width="5.437" height="46.718" fill="none"/>
    </clipPath>
    <clipPath id="clip-path-8">
      <rect id="Rectangle_608" data-name="Rectangle 608" width="10.281" height="5.134" fill="none"/>
    </clipPath>
    <clipPath id="clip-path-9">
      <rect id="Rectangle_609" data-name="Rectangle 609" width="6.574" height="8.585" fill="none"/>
    </clipPath>
    <clipPath id="clip-path-10">
      <rect id="Rectangle_610" data-name="Rectangle 610" width="14.462" height="6.616" fill="none"/>
    </clipPath>
  </defs>
  <g id="Group_1567" data-name="Group 1567" transform="translate(0 0)">
    <g id="Group_2346" data-name="Group 2346" transform="translate(144.007 35.317) rotate(3)">
      <g id="Group_87" data-name="Group 87" transform="translate(0 0)" clip-path="url(#clip-path)">
        <path id="Path_1271" data-name="Path 1271" d="M36.943,14.682A8.5,8.5,0,0,0,30.468,6.44,8.479,8.479,0,0,0,15.056,3.972,8.45,8.45,0,0,0,3.028,10.02,8.464,8.464,0,0,0,6.564,24.755,8.494,8.494,0,0,0,13.5,28.649a8.413,8.413,0,0,0,12.866-.059,8.47,8.47,0,0,0,7.624-7.5,8.46,8.46,0,0,0,2.958-6.408" transform="translate(0 0)" fill="#a5b775"/>
        <path id="Path_1272" data-name="Path 1272" d="M30.882,1.1c.014.2.061.4.061.6a8.52,8.52,0,0,1-8.52,8.52,8.5,8.5,0,0,1-6.97-3.641A8.451,8.451,0,0,1,9.9,8.684,8.5,8.5,0,0,1,1.646,2.171,9.764,9.764,0,0,1,0,2.521,8.516,8.516,0,0,0,6.339,8.953a8.491,8.491,0,0,0,6.93,3.894,8.416,8.416,0,0,0,12.868-.059,8.465,8.465,0,0,0,7.62-7.5A8.5,8.5,0,0,0,36.636,0a8.412,8.412,0,0,1-4.363,1.238A8.628,8.628,0,0,1,30.882,1.1" transform="translate(0.153 15.802)" fill="#889a58"/>
        <path id="Path_1273" data-name="Path 1273" d="M36.943,14.682a8.5,8.5,0,0,0-6.476-8.245A8.481,8.481,0,0,0,15.054,3.97,8.451,8.451,0,0,0,3.025,10.016,8.467,8.467,0,0,0,6.564,24.753a8.488,8.488,0,0,0,6.928,3.894,8.416,8.416,0,0,0,12.871-.059,8.464,8.464,0,0,0,7.62-7.5,8.47,8.47,0,0,0,2.959-6.408" transform="translate(28.501 14.004)" fill="#a5b775"/>
        <path id="Path_1274" data-name="Path 1274" d="M30.88,1.1c.016.2.061.4.061.6a8.519,8.519,0,0,1-8.518,8.521,8.5,8.5,0,0,1-6.97-3.643,8.434,8.434,0,0,1-5.55,2.1A8.508,8.508,0,0,1,1.644,2.171,9.4,9.4,0,0,1,0,2.52,8.512,8.512,0,0,0,6.338,8.953a8.493,8.493,0,0,0,6.932,3.894,8.409,8.409,0,0,0,12.865-.059,8.466,8.466,0,0,0,7.624-7.5A8.5,8.5,0,0,0,36.633,0a8.418,8.418,0,0,1-4.361,1.238A8.669,8.669,0,0,1,30.88,1.1" transform="translate(28.655 29.804)" fill="#889a58"/>
        <path id="Path_1275" data-name="Path 1275" d="M36.942,14.682a8.5,8.5,0,0,0-6.476-8.245A8.48,8.48,0,0,0,15.053,3.972a8.41,8.41,0,0,0-3.672-.863,8.515,8.515,0,0,0-8.357,6.909A8.468,8.468,0,0,0,6.562,24.755a8.494,8.494,0,0,0,6.93,3.893,8.416,8.416,0,0,0,12.869-.061,8.461,8.461,0,0,0,7.62-7.5,8.466,8.466,0,0,0,2.961-6.408" transform="translate(56.305 29.81)" fill="#a5b775"/>
        <path id="Path_1276" data-name="Path 1276" d="M30.88,1.1c.016.206.061.4.061.606a8.517,8.517,0,0,1-8.518,8.518,8.5,8.5,0,0,1-6.97-3.639,8.453,8.453,0,0,1-5.55,2.1A8.51,8.51,0,0,1,1.644,2.171,9.24,9.24,0,0,1,0,2.521,8.514,8.514,0,0,0,6.338,8.957a8.5,8.5,0,0,0,6.932,3.893,8.411,8.411,0,0,0,12.865-.061,8.464,8.464,0,0,0,7.624-7.5A8.505,8.505,0,0,0,36.633,0a8.4,8.4,0,0,1-4.361,1.24A8.469,8.469,0,0,1,30.88,1.1" transform="translate(56.458 45.609)" fill="#889a58"/>
        <path id="Path_1277" data-name="Path 1277" d="M36.943,14.684a8.5,8.5,0,0,0-6.474-8.245A8.481,8.481,0,0,0,15.054,3.972a8.415,8.415,0,0,0-3.67-.863,8.515,8.515,0,0,0-8.357,6.909A8.466,8.466,0,0,0,6.564,24.755,8.5,8.5,0,0,0,13.5,28.647a8.412,8.412,0,0,0,12.867-.059,8.466,8.466,0,0,0,7.622-7.5,8.462,8.462,0,0,0,2.958-6.407" transform="translate(81.239 42.389)" fill="#a5b775"/>
        <path id="Path_1278" data-name="Path 1278" d="M30.884,1.1c.014.2.059.4.059.6a8.52,8.52,0,0,1-8.52,8.52,8.5,8.5,0,0,1-6.97-3.641,8.436,8.436,0,0,1-5.548,2.1A8.5,8.5,0,0,1,1.648,2.171,9.442,9.442,0,0,1,0,2.521,8.522,8.522,0,0,0,6.34,8.955a8.492,8.492,0,0,0,6.929,3.892,8.413,8.413,0,0,0,12.868-.059,8.462,8.462,0,0,0,7.621-7.5A8.5,8.5,0,0,0,36.636,0a8.412,8.412,0,0,1-4.361,1.24A8.39,8.39,0,0,1,30.884,1.1" transform="translate(81.392 58.189)" fill="#889a58"/>
        <path id="Path_1279" data-name="Path 1279" d="M36.941,14.684a8.5,8.5,0,0,0-6.472-8.245A8.48,8.48,0,0,0,15.056,3.97,8.454,8.454,0,0,0,3.027,10.018,8.466,8.466,0,0,0,6.564,24.755a8.5,8.5,0,0,0,6.93,3.894,8.416,8.416,0,0,0,12.869-.061,8.464,8.464,0,0,0,7.62-7.5,8.462,8.462,0,0,0,2.958-6.407" transform="translate(104.367 55.389)" fill="#a5b775"/>
        <path id="Path_1280" data-name="Path 1280" d="M30.884,1.1c.013.2.058.4.058.6a8.52,8.52,0,0,1-8.516,8.52,8.494,8.494,0,0,1-6.972-3.643A8.433,8.433,0,0,1,9.9,8.687,8.5,8.5,0,0,1,1.646,2.173,9.57,9.57,0,0,1,0,2.523,8.521,8.521,0,0,0,6.339,8.957a8.5,8.5,0,0,0,6.931,3.894,8.412,8.412,0,0,0,12.866-.061,8.466,8.466,0,0,0,7.623-7.5A8.5,8.5,0,0,0,36.634,0a8.415,8.415,0,0,1-4.361,1.24A8.574,8.574,0,0,1,30.884,1.1" transform="translate(104.521 71.187)" fill="#889a58"/>
      </g>
    </g>
    <path id="Path_1281" data-name="Path 1281" d="M104.875,122.785l-3.884-4.457-.166,58.114-3.555-2.053-14.608-8.432-1.447-.836-6.41-3.7-2.553-1.473-6.921-4-2.23-1.289,0,.952,3.079,1.777,31.943,18.442,3.555,2.052,84.334-49.008.15-53.325Zm29.774,15.526-9.026,5.245L113.5,150.6l.056-20.179,9.028-5.245,12.123-7.046ZM167.882,119l-9.026,5.245-12.125,7.047.058-20.179,9.028-5.246,12.125-7.046Z" transform="translate(3.644 4.364)" fill="#f2f7e8"/>
    <path id="Path_1282" data-name="Path 1282" d="M128.727,134.3l.041-14.361-6.512,3.784-.039,14.362Z" transform="translate(7.059 6.927)" fill="#8ad1f5"/>
    <path id="Path_1283" data-name="Path 1283" d="M122.431,121.051l-.008,2.909,6.512-3.784-.041,14.361-6.509,3.785-.008,2.909,9.026-5.245.058-20.18-12.123,7.046Z" transform="translate(6.893 6.689)" fill="#fff"/>
    <path id="Path_1284" data-name="Path 1284" d="M113.131,143.381l7.094-4.123.041-14.362-7.094,4.123Z" transform="translate(6.534 7.214)" fill="#8ad1f5"/>
    <path id="Path_1285" data-name="Path 1285" d="M122.919,123.674l.008-2.909-3.1,1.8-9.028,5.245-.056,20.179,12.123-7.045.008-2.909ZM120.363,139.5l-7.094,4.123.041-14.362,7.094-4.122Z" transform="translate(6.397 6.975)" fill="#fff"/>
    <path id="Path_1286" data-name="Path 1286" d="M160.147,116.04l.041-14.361-6.512,3.785-.041,14.361Z" transform="translate(8.874 5.873)" fill="#8ad1f5"/>
    <path id="Path_1287" data-name="Path 1287" d="M153.851,102.793l-.008,2.909,6.512-3.785-.041,14.361-6.512,3.785-.008,2.908,9.027-5.245.059-20.179-12.125,7.046Z" transform="translate(8.707 5.634)" fill="#fff"/>
    <path id="Path_1288" data-name="Path 1288" d="M144.553,125.122l7.088-4.12.039-14.361-7.088,4.12Z" transform="translate(8.349 6.159)" fill="#8ad1f5"/>
    <path id="Path_1289" data-name="Path 1289" d="M154.339,105.416l.008-2.909-3.1,1.8-9.028,5.246-.058,20.179,12.125-7.047.008-2.908Zm-2.56,15.825-7.088,4.12L144.73,111l7.088-4.119Z" transform="translate(8.211 5.92)" fill="#fff"/>
    <path id="Path_1290" data-name="Path 1290" d="M38.157,113.411l.13-46.992-18.81-3.085v-.141L12.184,62l0,1.437,7.3,1.194-.108,38,.06-.034ZM20.6,71.169l6.7,3.87,8.824,5.093L36.068,99.35l-6.691-3.864-8.832-5.1Z" transform="translate(0.703 3.581)" fill="#cad0c3"/>
    <path id="Path_1291" data-name="Path 1291" d="M102.619,113.817v0l-.093-.092Z" transform="translate(5.922 6.568)" fill="#fcece4"/>
    <path id="Path_1292" data-name="Path 1292" d="M37.682,60.12l.572.094L38.26,56.9l-.568-.547Z" transform="translate(2.176 3.255)" fill="#fcece4"/>
    <path id="Path_1293" data-name="Path 1293" d="M92.483,170.784l-3.365-1.942.178-62.51L83.7,100.788l-.184,64.821L81.594,164.5,96.2,172.932l3.555,2.051.166-58.113-7.266-7.205Zm-7.311-58.573,2.607,1.507-.033,11.733-2.607-1.5Zm8.965,5.176,2.605,1.506-.031,11.734-2.609-1.5Z" transform="translate(4.713 5.821)" fill="#e0e7d7"/>
    <path id="Path_1294" data-name="Path 1294" d="M75.178,92.392l-.193,68.526-.82-.471,6.411,3.7.189-66.217Zm1.454,15.127,2.607,1.505-.033,11.734L76.6,119.252Z" transform="translate(4.284 5.336)" fill="#e0e7d7"/>
    <path id="Path_1295" data-name="Path 1295" d="M38.314,56.871l-.006,3.313.346.056-.011,3.376-.011,3.389-1.764-.29-.13,46.993,32.334,18.669-.006,2.078-4.39,2.55-.052,18.733,2.23,1.289,6.921,4,.2-69.92Zm22.354,57.8-9.08-5.242-11.373-6.567.056-19.219,9.084,5.246,11.371,6.562Z" transform="translate(2.122 3.285)" fill="#e0e7d7"/>
    <path id="Path_1296" data-name="Path 1296" d="M19.477,63.624l18.81,3.085,1.764.29.011-3.389.011-3.376-.346-.056-.572-.094,0,1.3L12.2,56.965l-.011,3.382-.008,1.945h0l7.293,1.192Z" transform="translate(0.703 3.29)" fill="#5992a0"/>
    <path id="Path_1297" data-name="Path 1297" d="M75.318,92.575,71.95,89.236l-.2,69.92,2.553,1.475.82.471Z" transform="translate(4.144 5.154)" fill="#4e4e4e"/>
    <path id="Path_1298" data-name="Path 1298" d="M83.782,100.97l-3.366-3.34-.189,66.216,1.446.835,1.925,1.112Z" transform="translate(4.634 5.639)" fill="#4e4e4e"/>
    <path id="Path_1299" data-name="Path 1299" d="M92.072,170.481l.173-61.118-3.362-3.334-.178,62.509Z" transform="translate(5.123 6.124)" fill="#4e4e4e"/>
    <path id="Path_1300" data-name="Path 1300" d="M74.1,91.713l3.368,3.339,5.588,5.541,3.365,3.34,5.593,5.544,3.36,3.333,7.266,7.205,3.884,4.457.011-3.383.011-3.382-.093-.094L34.568,46.332l-.011,3.377-.008,3.381L37.875,56.4l0,.537.568.547Z" transform="translate(1.995 2.676)" fill="#5992a0"/>
    <path id="Path_1301" data-name="Path 1301" d="M41.635,100.269l7.387,4.266.045-15.314-7.389-4.267Z" transform="translate(2.405 4.907)" fill="#8ad1f5"/>
    <path id="Path_1302" data-name="Path 1302" d="M49.116,104.7l-7.387-4.266.043-15.315,7.389,4.266,0-1.954L40.081,82.18,40.025,101.4,51.4,107.966l-2.285-1.321Z" transform="translate(2.312 4.746)" fill="#fff"/>
    <path id="Path_1303" data-name="Path 1303" d="M58.245,94.518l-7.977-4.605-.041,15.315,7.974,4.605Z" transform="translate(2.901 5.193)" fill="#8ad1f5"/>
    <path id="Path_1304" data-name="Path 1304" d="M48.666,89.094l-.045,15.315,0,1.948L50.9,107.68l9.08,5.242L60.04,93.7,48.669,87.14Zm1.7.979,7.977,4.605-.043,15.315-7.974-4.605Z" transform="translate(2.808 5.033)" fill="#fff"/>
    <path id="Path_1305" data-name="Path 1305" d="M21.745,73.445,21.7,88.761l5,2.887.043-15.314Z" transform="translate(1.253 4.242)" fill="#8ad1f5"/>
    <path id="Path_1306" data-name="Path 1306" d="M26.79,93.757l0-1.949-5-2.887.045-15.315,5,2.888.006-1.955-6.7-3.87-.054,19.219,8.832,5.1Z" transform="translate(1.16 4.082)" fill="#fff"/>
    <path id="Path_1307" data-name="Path 1307" d="M33.5,80.233,28.075,77.1l-.041,15.315,5.421,3.132Z" transform="translate(1.619 4.453)" fill="#8ad1f5"/>
    <path id="Path_1308" data-name="Path 1308" d="M26.427,91.6l0,1.948,2.129,1.23,6.691,3.863L35.3,79.42l-8.824-5.092-.006,1.954Zm1.74-14.336,5.423,3.132-.043,15.314-5.421-3.131Z" transform="translate(1.526 4.293)" fill="#fff"/>
    <path id="Path_1309" data-name="Path 1309" d="M79.107,108.2,76.5,106.693l-.035,11.733,2.609,1.506Z" transform="translate(4.416 6.162)" fill="#8ad1f5"/>
    <path id="Path_1310" data-name="Path 1310" d="M79.041,131.9l-2.609-1.506L76.4,140.437l2.609,1.505Z" transform="translate(4.413 7.531)" fill="#8ad1f5"/>
    <path id="Path_1311" data-name="Path 1311" d="M87.586,113.094l-2.607-1.506-.033,11.735,2.607,1.505Z" transform="translate(4.906 6.445)" fill="#8ad1f5"/>
    <path id="Path_1312" data-name="Path 1312" d="M87.519,136.8l-2.609-1.505-.026,10.041,2.607,1.506Z" transform="translate(4.903 7.814)" fill="#8ad1f5"/>
    <path id="Path_1313" data-name="Path 1313" d="M96.058,117.987l-2.605-1.506-.035,11.735,2.609,1.505Z" transform="translate(5.396 6.728)" fill="#8ad1f5"/>
    <path id="Path_1314" data-name="Path 1314" d="M95.994,141.689l-2.609-1.506-.029,10.042,2.609,1.506Z" transform="translate(5.392 8.096)" fill="#8ad1f5"/>
    <path id="Path_1315" data-name="Path 1315" d="M50.936,140.086l-.015,4.74,11.185,6.457.05-17.715Z" transform="translate(2.941 7.714)" fill="#fff"/>
    <path id="Path_1316" data-name="Path 1316" d="M31.782,131.757l0,1.481,6.017,3.474.3.171,10.047,5.8.006-1.482Z" transform="translate(1.835 7.61)" fill="#fff"/>
    <path id="Path_1317" data-name="Path 1317" d="M63.246,132.631l-1.7.991-.05,17.715,1.693.978,0-.952Z" transform="translate(3.552 7.66)" fill="#464747"/>
    <path id="Path_1318" data-name="Path 1318" d="M24.39,127.49l-1.695-.978-.967-.559,0,1.482.967.558,1.695.977,7.972,4.6,0-1.481Z" transform="translate(1.255 7.275)" fill="#cad0c3"/>
    <path id="Path_1319" data-name="Path 1319" d="M120.19,0l-20.3,11.8-3.358-.551L12.2,60.255l26.952,4.422,0-1.3.01-3.766,0-.536L35.84,55.767l.008-3.382.01-3.377,71.884,71.282.094.093h0l-.011,3.383-.011,3.382L189.1,79.915l3.05-1.775.011-3.381.008-3.384Z" transform="translate(0.705 0)" fill="#79b1bf"/>
    <path id="Path_1320" data-name="Path 1320" d="M21.558,125.851,1.777,114.431l-.089,31.388,19.781,11.42Z" transform="translate(0.097 6.609)" fill="#3f595a"/>
    <path id="Path_1321" data-name="Path 1321" d="M20.478,125.228l-.089,31.387,1.335-.775.078-28.362,0-1.483Z" transform="translate(1.178 7.233)" fill="#527276"/>
    <g id="Group_90" data-name="Group 90" transform="translate(0)">
      <g id="Group_1776" data-name="Group 1776">
        <path id="Path_1322" data-name="Path 1322" d="M50.929,139.737l-.093,32.913a.434.434,0,0,0,.015-.072l.076-28.108.015-4.741Z" transform="translate(2.936 8.07)" fill="#4e4e4e"/>
        <path id="Path_1323" data-name="Path 1323" d="M50.931,139.737l-.031.019-.093,33.05s.006-.007.006-.012l0-.007a.557.557,0,0,0,.022-.136Z" transform="translate(2.935 8.071)" fill="#4e4e4e"/>
        <path id="Path_1324" data-name="Path 1324" d="M50.9,139.755l-.054.03-.093,33.124a.748.748,0,0,0,.054-.1Z" transform="translate(2.932 8.072)" fill="#4e4e4e"/>
        <path id="Path_1325" data-name="Path 1325" d="M50.853,139.783l-.076.045-.093,33.2c0-.008.015-.016.02-.024a.249.249,0,0,1,.021-.029c.015-.024.022-.049.035-.073Z" transform="translate(2.927 8.073)" fill="#4e4e4e"/>
        <path id="Path_1326" data-name="Path 1326" d="M50.783,139.826l-.118.071-.1,33.264a1.268,1.268,0,0,0,.121-.132Z" transform="translate(2.921 8.076)" fill="#4e4e4e"/>
        <path id="Path_1327" data-name="Path 1327" d="M50.677,139.894l-.245.143-.1,33.308c.035-.022.063-.044.1-.067.048-.035.1-.068.138-.1l.015-.018Z" transform="translate(2.907 8.08)" fill="#4e4e4e"/>
        <path id="Path_1328" data-name="Path 1328" d="M50.456,140.028l-.455.263-.1,33.226a2.423,2.423,0,0,0,.431-.165c.008-.005.012-.013.022-.017Z" transform="translate(2.882 8.088)" fill="#4e4e4e"/>
        <path id="Path_1329" data-name="Path 1329" d="M50.021,140.277l-.371.217L49.557,173.6c.035-.007.072-.005.109-.013l.093-.023c.06-.017.11-.046.167-.066Z" transform="translate(2.862 8.102)" fill="#4e4e4e"/>
        <path id="Path_1330" data-name="Path 1330" d="M49.664,140.482l-.25.145-.093,32.994c.085-.007.167-.013.25-.027Z" transform="translate(2.849 8.114)" fill="#4e4e4e"/>
        <path id="Path_1331" data-name="Path 1331" d="M49.425,140.619l-.217.125-.093,32.894c.072,0,.145-.017.217-.025Z" transform="translate(2.837 8.122)" fill="#4e4e4e"/>
        <path id="Path_1332" data-name="Path 1332" d="M49.219,140.737l-.2.115-.09,32.782c.024,0,.049.007.074.007h.026c.033,0,.065-.008.1-.011Z" transform="translate(2.826 8.128)" fill="#4e4e4e"/>
        <path id="Path_1333" data-name="Path 1333" d="M49.029,140.847l-.19.112-.093,32.648c.067.006.129.02.193.021Z" transform="translate(2.815 8.135)" fill="#4e4e4e"/>
        <path id="Path_1334" data-name="Path 1334" d="M48.849,140.953l-.19.11-.093,32.517c.065.01.127.015.19.02Z" transform="translate(2.805 8.141)" fill="#4e4e4e"/>
        <path id="Path_1335" data-name="Path 1335" d="M48.67,141.057l-.193.112-.093,32.384c.062.012.131.012.193.02Z" transform="translate(2.795 8.147)" fill="#4e4e4e"/>
        <path id="Path_1336" data-name="Path 1336" d="M48.489,141.163l-.2.117-.091,32.208c.041.012.074.035.117.045l.026.005c.021,0,.042,0,.058.007Z" transform="translate(2.784 8.153)" fill="#4e4e4e"/>
        <path id="Path_1337" data-name="Path 1337" d="M48.3,141.281l-.006,0-.23-.131L47.97,173.4c.081.032.153.067.236.09Z" transform="translate(2.771 8.153)" fill="#4e4e4e"/>
        <path id="Path_1338" data-name="Path 1338" d="M48.109,141.181l-.856-.5-.005,1.483-.085,30.343a.979.979,0,0,0,.575.806,2.244,2.244,0,0,0,.279.107Z" transform="translate(2.724 8.126)" fill="#4e4e4e"/>
        <path id="Path_1339" data-name="Path 1339" d="M51.066,141.562l20.128-11.7L38.86,111.195,20.132,100.383l-.06.035L0,112.081Z" transform="translate(0 5.798)" fill="#5a7d80"/>
        <path id="Path_1340" data-name="Path 1340" d="M68.406,128.255l-20.128,11.7,0,2.077.006,0,.2-.118.193-.112.189-.11.19-.112.2-.116.217-.125.25-.145.371-.217.455-.263.246-.142.12-.072.076-.045.054-.03.031-.019.013-.006,11.22-6.52,1.7-.99,4.39-2.55Z" transform="translate(2.788 7.408)" fill="#527276"/>
        <path id="Path_1341" data-name="Path 1341" d="M21.655,126.024l1.329.767.967.56,1.695.978,7.972,4.6,16.359,9.446.856.5.23.131,0-2.078L0,111.443l0,2.077L1.874,114.6Z" transform="translate(0 6.437)" fill="#3f595a"/>
      </g>
    </g>
    <g id="Group_2327" data-name="Group 2327" transform="translate(88.119 3.294)">
      <g id="Group_2332" data-name="Group 2332" clip-path="url(#clip-path-2)">
        <g id="Group_2331" data-name="Group 2331">
          <g id="Group_2330" data-name="Group 2330" clip-path="url(#clip-path-2)">
            <path id="Path_9167" data-name="Path 9167" d="M47.772,132.385a4.778,4.778,0,0,1,.679,3.815,3.229,3.229,0,0,1-2.83.591c-2.244.285-3.431.807-4.632.7a3.681,3.681,0,0,1-3.016-1.386,1.307,1.307,0,0,1,.766-1.873,13.108,13.108,0,0,0,4.278-1.487l1.048-3.112,3.271,1.673Z" transform="translate(-19.106 -94.311)" fill="#4e4e4e"/>
            <path id="Path_9168" data-name="Path 9168" d="M3.216,101.53l-2.028,1.954s-1.926.736-.873,1.9a4.166,4.166,0,0,0,1.968.722c1.4-.032.954.076,3.788-2.188l1.8-.63a2.1,2.1,0,0,0,1.656-2.038l-.134-.71L7.862,97.914l-1.393.032-3.249.932Z" transform="translate(30.248 -71.234)" fill="#4e4e4e"/>
            <path id="Path_9169" data-name="Path 9169" d="M30.451,81.866,28.122,84.44a38.637,38.637,0,0,1-3.8,1.806,24.008,24.008,0,0,1-3.311,1.087c-6.116,1.475-7.97-1.352-7.97-1.352-.326-1.014.264-2.332,1.29-3.724a23.025,23.025,0,0,1,2.241-2.532,52.384,52.384,0,0,1,4.647-4.042C22.276,74.859,23,74.346,23,74.346l.416.535c.169.222,1.43,1.481,2.838,2.873.353.348.724.71,1.086,1.065.689.683,1.359,1.338,1.9,1.868.72.7,1.212,1.179,1.212,1.179" transform="translate(5.793 -54.088)" fill="#618598"/>
            <path id="Path_9170" data-name="Path 9170" d="M20.355,93.009a16.306,16.306,0,0,1-4.821-.29,36.767,36.767,0,0,1-6.394-1.884.7.7,0,0,0,.141.068,8.655,8.655,0,0,1,2.942,2.9A11.351,11.351,0,0,1,14.2,98.683a4.514,4.514,0,0,1-4.561.452L5.043,93.683a4.447,4.447,0,0,1-1.737-3.967,4.423,4.423,0,0,1,.78-1.2,9.778,9.778,0,0,1,3.7-2.317,34.932,34.932,0,0,1,8.823-1.9c.334-.033.623-.06.854-.074.424-.035.67-.046.67-.046l6.019-.938s1.293,9.16-3.8,9.766" transform="translate(14.584 -60.561)" fill="#618598"/>
            <path id="Path_9171" data-name="Path 9171" d="M80.141,35.329l-1.8,1.289c-2.881.014-10.051,2.661-10.051,2.661l-.043,1.686c4.183.216,11.991-1.192,11.991-1.192.469-.151,1.009-.361,1.591-.607a4.68,4.68,0,0,1-1.692-3.836" transform="translate(-60.656 -25.702)" fill="#f4c6b4"/>
            <path id="Path_9172" data-name="Path 9172" d="M54.783,27.79l-2.8,2.005a4.853,4.853,0,0,0,1.754,3.978c1.316-.555,2.864-1.3,4.47-2.1Z" transform="translate(-32.602 -20.218)" fill="#fff"/>
            <path id="Path_9173" data-name="Path 9173" d="M78.136,4.007a3.7,3.7,0,0,0-1.489,4.63,3.835,3.835,0,0,1,2.739-1.6Z" transform="translate(-60.424 -2.915)" fill="#4e4e4e"/>
            <path id="Path_9174" data-name="Path 9174" d="M18.8,41.072a5.092,5.092,0,0,1-2.695.934c-2.737.208-5.747-1.208-7.008-1.886-.393-.2-.613-.345-.613-.345L4.809,33.552a5.249,5.249,0,0,1-.773-.981c-1.814-2.927-.964-7.389-.47-9.3.149-.583.268-.928.268-.928C10.8,19.59,13.608,25,16.606,29.626S18.8,41.072,18.8,41.072" transform="translate(20.081 -15.71)" fill="#618598"/>
            <path id="Path_9175" data-name="Path 9175" d="M36.187,31.209s-2.826-2.832-5.652-1.589c-2.148.952-2.623,3.326-2.731,4.409-1.814-2.927-.964-7.389-.47-9.3a5.809,5.809,0,0,1,5.18-.836,11.287,11.287,0,0,1,3.672,7.321" transform="translate(-3.689 -17.168)" fill="#fff"/>
            <path id="Path_9176" data-name="Path 9176" d="M23.6,55.462s-1.04-5.2,1.861-6.286,5.429,1.294,5.8,4.326l.372,3.032-7.784,1.078Z" transform="translate(1.759 -35.583)" fill="#fff"/>
            <path id="Path_9177" data-name="Path 9177" d="M29.783,67.613l-.618,1.865S39.989,74.191,42.59,72.14c0,0,1.249-.87,1.385-5.315l.657-7.9c.342-5.273-6.132-5.025-5.671-.029l.429,9.342Z" transform="translate(-12.819 -40.055)" fill="#f4c6b4"/>
            <path id="Path_9178" data-name="Path 9178" d="M52.9,24.209c.072.107,3.147,3.859,3.147,3.859a7.107,7.107,0,0,0,2.278-5.612c-.436-.81-.15-1.319-1.267-2.465Z" transform="translate(-32.971 -14.544)" fill="#f4c6b4"/>
            <path id="Path_9179" data-name="Path 9179" d="M61.345,7.593s1.7-3.627-1.472-5.958c0,0-4.029-1.975-6.158,1.337,0,0-1.091,2.259-.34,3.6l-.356.814a.552.552,0,0,0,.1.6l.3.326.311,1.331A1.653,1.653,0,0,0,54.7,10.8a3.275,3.275,0,0,0,1.977.133c1.884-.4,4.671-3.342,4.671-3.342" transform="translate(-36.463 -0.764)" fill="#f4c6b4"/>
            <path id="Path_9180" data-name="Path 9180" d="M51.946,3.792c.447,1.175,3.093,1.373,3.3,3.19a2.258,2.258,0,0,0,2.641,1.551c1.985-.474,2.352-1.218,2.352-1.218s1.61-3.853-.305-5.759A5.037,5.037,0,0,0,54.736.223c-1.615.416-3.476,1.765-2.79,3.569" transform="translate(-35.208 0)" fill="#4e4e4e"/>
            <path id="Path_9181" data-name="Path 9181" d="M68.75,23.311a.959.959,0,0,1,.378.35A1.483,1.483,0,0,1,69.266,25a.683.683,0,0,1-.465.457.552.552,0,0,1-.453-.152,1.122,1.122,0,0,1-.266-.412,2.009,2.009,0,0,1-.164-1.143.6.6,0,0,1,.832-.438" transform="translate(-48.09 -16.919)" fill="#f4c6b4"/>
            <path id="Path_9182" data-name="Path 9182" d="M121.359,44.833l-1.544-.017L117.666,43.7l-2-.671-1.823-.092-1.13.183a.327.327,0,0,0-.269.381l.037.2-.111.021a.235.235,0,0,0-.183.292.438.438,0,0,0,.368.32l.241.03.063.179a.6.6,0,0,0,.626.394L114.8,44.8l1.476.693-1.248-.18-.319.035a.464.464,0,0,0-.406.542.187.187,0,0,0,.171.154l.687.049,1.711.427,1.206.2,1.69-.224,1.613-.511Z" transform="translate(-112.178 -31.24)" fill="#f4c6b4"/>
            <g id="Group_2329" data-name="Group 2329" transform="translate(18.67 17.6)" opacity="0.5" style="mix-blend-mode: multiply;isolation: isolate">
              <g id="Group_2328" data-name="Group 2328">
                <g id="Group_2327-2" data-name="Group 2327" clip-path="url(#clip-path-4)">
                  <path id="Path_9183" data-name="Path 9183" d="M26.284,64.591,23.9,66.99l-.121,2.74-2.228-1.144A52.365,52.365,0,0,0,16.9,72.628a9.779,9.779,0,0,0-3.7,2.317l1.458.214,5.8.848,9.1-2.418,1.144-.3c-3.546-2.01-4.427-8.694-4.427-8.694" transform="translate(-13.205 -64.591)" fill="#618598"/>
                </g>
              </g>
            </g>
            <path id="Path_9184" data-name="Path 9184" d="M45.835,88.341a5,5,0,0,1-5,.035l.187,4.076-9.606-.624L30.8,93.692s10.824,4.714,13.425,2.663c0,0,1.249-.87,1.385-5.315Z" transform="translate(-14.454 -64.269)" fill="#f4c6b4"/>
            <path id="Path_9185" data-name="Path 9185" d="M34.158,63.667l.455-5.47c.359-5.543-6.446-5.283-5.962-.031l.254,5.537a5.258,5.258,0,0,0,5.253-.037" transform="translate(-2.653 -39.383)" fill="#fff"/>
            <path id="Path_9186" data-name="Path 9186" d="M83.563,101.319l-1.146-.485-1.872-.113-2.634.265-1.1.723-.136.685-.321.365-.071.356.414,1.4A.4.4,0,0,0,77,104.8l.145.029.057.222a.24.24,0,0,0,.225.18l.083,0a.145.145,0,0,0,.149-.164l-.024-.186.11-.082a.464.464,0,0,0,.152-.55l-.156-.376.3-.407,1.846,0L81.8,102.7l2.642.172Z" transform="translate(-65.453 -73.275)" fill="#f4c6b4"/>
          </g>
        </g>
      </g>
    </g>
  </g>
  <g id="Group_1777" data-name="Group 1777" transform="translate(-1179.034 -1022.339)">
    <g id="Group_2377" data-name="Group 2377" transform="translate(525.912 -581.655)">
      <path id="Path_9131" data-name="Path 9131" d="M63.581,158.47c3.261-8.43.975-18.421.306-27.2l11.463-.911s.509,11.027-1.657,12.656c-1.014.764-1.218,3.053-1.085,5.471l.033-.005c2.036-.113,5.1-3.849,5.505-5.77a1.474,1.474,0,1,1,2.884.611c-.572,2.695-4.292,7.79-8.125,8.088a25.966,25.966,0,0,0,.787,3.786c.656,1.964,2.917,4.306,1.658,6.551-2.155,3.848-9.345,4.774-12.022.815-1.32-1.954-.525-2.076.253-4.089" transform="translate(911.996 1656.427)" fill="#675841"/>
      <path id="Path_9132" data-name="Path 9132" d="M46.857,114.981a4.814,4.814,0,0,1-.218-1.367c0-.05.012-.093.014-.141a6.357,6.357,0,0,1,.98-8.581,4.841,4.841,0,0,1-.734-2.549,4.89,4.89,0,0,1,2.789-4.406,4.9,4.9,0,0,1,4.791-3.874c.059,0,.115.015.173.017a9.7,9.7,0,0,1,6.726-8.207,4.9,4.9,0,0,1,4.565-3.142,4.832,4.832,0,0,1,1.512.261,4.84,4.84,0,0,1,1.511-.261,4.894,4.894,0,0,1,4.565,3.142,9.7,9.7,0,0,1,6.728,8.207c.059,0,.113-.017.173-.017a4.9,4.9,0,0,1,4.791,3.874,4.848,4.848,0,0,1,2.055,6.954,6.357,6.357,0,0,1,.98,8.581c0,.048.014.092.014.141a4.86,4.86,0,0,1-.218,1.367,4.894,4.894,0,0,1-3.385,8.438,4.949,4.949,0,0,1-1.2-.163,4.864,4.864,0,0,1-7.151,5.545,4.758,4.758,0,0,1-4.9,0,4.656,4.656,0,0,1-3.964.418,4.656,4.656,0,0,1-3.964-.418,4.758,4.758,0,0,1-4.9,0,4.851,4.851,0,0,1-2.451.68,4.9,4.9,0,0,1-4.9-4.9,4.831,4.831,0,0,1,.2-1.322,4.851,4.851,0,0,1-6.1-4.74,4.879,4.879,0,0,1,1.518-3.535" transform="translate(914.625 1673.353)" fill="#a5b775"/>
      <path id="Path_9133" data-name="Path 9133" d="M45.34,125.708a4.888,4.888,0,0,1,1.518-3.535,4.859,4.859,0,0,1-.216-1.367c0-.05.01-.093.012-.141a6.359,6.359,0,0,1,.981-8.581,4.851,4.851,0,0,1,2.056-6.954,4.894,4.894,0,0,1,1.076-2.161c-1.874,6.749,1.823,11.367,4,10.33-.982,5.628,6.552,10.213,9.5,9.559-1.965,5.9,13.276,6.644,14.172,2.667-.9,3.978,11.8-.1,9.621-3.351a4.894,4.894,0,0,1-3.385,8.438,4.956,4.956,0,0,1-1.2-.162,4.855,4.855,0,0,1,.2,1.321,4.872,4.872,0,0,1-7.355,4.223,4.757,4.757,0,0,1-4.9,0,4.656,4.656,0,0,1-3.964.418,4.655,4.655,0,0,1-3.964-.418,4.759,4.759,0,0,1-4.9,0,4.872,4.872,0,0,1-7.355-4.223,4.806,4.806,0,0,1,.2-1.321,4.854,4.854,0,0,1-6.1-4.74" transform="translate(914.624 1666.161)" fill="#889a58"/>
    </g>
    <path id="Path_8306" data-name="Path 8306" d="M186.7,118.007l.017-6.424-3.3-3.7.01-3.688-23.481,13.645,26.754,1Z" transform="translate(1168.997 1030.518)" fill="#9d8769"/>
    <path id="Path_8307" data-name="Path 8307" d="M319.967,208.053l3.161-1.836.188-65.759-3.163,1.837Z" transform="translate(1178.239 1032.612)" fill="#b7c3cc"/>
    <path id="Path_8308" data-name="Path 8308" d="M245.264,178.3l-1.818-2.035-.124,43.648-.1,33.241,1.829-1.062Z" transform="translate(1173.807 1034.681)" fill="#b7c3cc"/>
    <path id="Path_8309" data-name="Path 8309" d="M249.881,185.55l-3.921-4.388-.8-.891-.209,73.791,79.345-46.11.186-65.758Zm26.247,11.729-9.026,5.246-12.125,7.046.058-20.18,9.026-5.244,12.123-7.045Zm24.207-14.066-12.125,7.044.058-20.178,9.028-5.245,12.121-7.046-.056,20.179Z" transform="translate(1173.907 1032.713)" fill="#f5f4f4"/>
    <path id="Path_8310" data-name="Path 8310" d="M272.41,193.687l.041-14.36-6.512,3.784-.039,14.362Z" transform="translate(1175.117 1034.857)" fill="#8ad1f5"/>
    <path id="Path_8311" data-name="Path 8311" d="M266.115,180.441l-.008,2.909,6.512-3.784-.041,14.36-6.509,3.786-.008,2.908,9.026-5.246.056-20.177-12.123,7.045Z" transform="translate(1174.95 1034.619)" fill="#fff"/>
    <path id="Path_8312" data-name="Path 8312" d="M256.815,202.771l7.094-4.123.039-14.362-7.092,4.124Z" transform="translate(1174.592 1035.144)" fill="#8ad1f5"/>
    <path id="Path_8313" data-name="Path 8313" d="M266.6,183.063l.008-2.909-3.1,1.8-9.026,5.244-.058,20.18,12.125-7.046.008-2.908Zm-2.556,15.823-7.094,4.123.041-14.361,7.092-4.123Z" transform="translate(1174.454 1034.905)" fill="#fff"/>
    <path id="Path_8314" data-name="Path 8314" d="M303.83,175.43l.041-14.362-6.512,3.786-.041,14.361Z" transform="translate(1176.931 1033.803)" fill="#8ad1f5"/>
    <path id="Path_8315" data-name="Path 8315" d="M294.438,163.982l3.1-1.8-.008,2.909,6.512-3.786L304,175.669l-6.512,3.785-.009,2.909,9.026-5.246.056-20.179Z" transform="translate(1176.765 1033.564)" fill="#fff"/>
    <path id="Path_8316" data-name="Path 8316" d="M288.234,184.512l7.088-4.121.041-14.362-7.088,4.121Z" transform="translate(1176.406 1034.089)" fill="#8ad1f5"/>
    <path id="Path_8317" data-name="Path 8317" d="M298.023,164.8l.008-2.909-3.1,1.8-9.028,5.245-.058,20.178,12.125-7.044.008-2.909Zm-2.562,15.825-7.088,4.121.041-14.363,7.088-4.12Z" transform="translate(1176.269 1033.851)" fill="#fff"/>
    <path id="Path_8318" data-name="Path 8318" d="M249.624,181.715l-.013,4.383,74.606-43.355,3.163-1.837,6.565-3.815.013-4.383Z" transform="translate(1174.176 1032.165)" fill="#77654b"/>
    <path id="Path_8319" data-name="Path 8319" d="M212.481,234.207l-.494-.286-2.653-1.531,0,.169-9.015-5.206L189.839,221.3v-.17l-3.81-2.2.29.169-19.776-11.42,0,.831,19.772,11.414,26.167,15.107.273-96.7Z" transform="translate(1169.378 1032.49)" fill="#868f96"/>
    <path id="Path_8320" data-name="Path 8320" d="M244.877,217.533l-.093,32.41-12.9-7.451L224,237.945l-7.7-4.449,0,.831,28.485,16.447Z" transform="translate(1172.251 1037.064)" fill="#868f96"/>
    <path id="Path_8321" data-name="Path 8321" d="M185.432,111.86l-.017,6.424h0l.021-7.255-3.3-3.7.013-4.384.01-3.545,0-.005-.012,4.376,0,.7-.011,3.688Z" transform="translate(1170.278 1030.241)" fill="#9d6e38"/>
    <path id="Path_8322" data-name="Path 8322" d="M249.84,178.448l-.013,4.384-3.921-4.389,0,.829,3.921,4.389.013-4.383.013-4.382h0Z" transform="translate(1173.961 1034.601)" fill="#868f96"/>
    <path id="Path_8323" data-name="Path 8323" d="M186.029,219.713l.267-94.138-19.517-.73,0,.832-.234,82.785,19.775,11.42Z" transform="translate(1169.378 1031.711)" fill="#f5f4f4"/>
    <path id="Path_8324" data-name="Path 8324" d="M186.7,117.262h0l0,.832-26.754-1-.011,3.547,26.758,1.008Z" transform="translate(1168.996 1031.263)" fill="#463b39"/>
    <path id="Path_8325" data-name="Path 8325" d="M186.678,125.829l.011-4.377-26.758-1.007v.837l-.013,3.547,7.244.272Z" transform="translate(1168.995 1031.457)" fill="#77654b"/>
    <path id="Path_8326" data-name="Path 8326" d="M238.2,214.578l-5.142-2.97-5.145-2.969-5.15-2.972-5.144-2.97-1.233-.711-.091,32.408,7.7,4.449.089-31.072,1.74,1.007,2.328,1.342,8.436,4.871L236.5,246.06l-4.622-2.671,12.9,7.451.093-32.409-1.523-.879Z" transform="translate(1172.252 1036.166)" fill="#e4f4fd"/>
    <path id="Path_8327" data-name="Path 8327" d="M195.4,147.779l5.148,2.973,5.148,2.971.06-20.405-5.142-5.751-5.141-5.752-5.138-5.747-.08,28.739Z" transform="translate(1170.748 1031.204)" fill="#675643"/>
    <path id="Path_8328" data-name="Path 8328" d="M187.262,192.086l.019-6.009,3.158,1.821.039-13.916-2.391-1.379.067-22.835-.771-.444.019-6.009,3.156,1.821.08-28.74-5.365-6-.02,7.255-.013,4.383-.011,4.377-.267,94.138,3.81,2.2.083-29.741Z" transform="translate(1170.442 1030.876)" fill="#675643"/>
    <path id="Path_8329" data-name="Path 8329" d="M199.923,176.135l-4.6-2.655-5.144-2.97-.039,13.916,5.142,2.97,5.149,2.974,5.15,2.973.041-13.919-5.15-2.971Z" transform="translate(1170.741 1034.348)" fill="#675643"/>
    <path id="Path_8330" data-name="Path 8330" d="M204.918,132.377l-.06,20.405,4.087,2.358-.017,6.01-.771-.444-.063,22.836-3.314-1.915-.041,13.919,4.084,2.357-.016,6.01-1.6-.92-.083,29.742,2.653,1.531.493.286.271-95.874-.492-.552Z" transform="translate(1171.584 1032.146)" fill="#675643"/>
    <path id="Path_8331" data-name="Path 8331" d="M190.38,149.435l-.056,19.469,6.479,3.739.056-19.469Z" transform="translate(1170.751 1033.131)" fill="#8ad1f5"/>
    <path id="Path_8332" data-name="Path 8332" d="M205.961,158.43l-7.064-4.078-.055,19.469L205.9,177.9Z" transform="translate(1171.244 1033.415)" fill="#8ad1f5"/>
    <path id="Path_8333" data-name="Path 8333" d="M196.505,152.995l-.055,19.469-.008,2.91,3.117,1.8.55.317,5.15,2.972,3.314,1.915.063-22.836-12.131-7Zm2.531,1.462,7.064,4.078-.056,19.471-7.064-4.08Z" transform="translate(1171.105 1033.31)" fill="#fff"/>
    <path id="Path_8334" data-name="Path 8334" d="M197.614,193.672l-8.126-4.693-.082,28.9,8.13,4.692Z" transform="translate(1170.698 1035.415)" fill="#8ad1f5"/>
    <path id="Path_8335" data-name="Path 8335" d="M197.928,222.8l8.707,5.029.084-28.9-8.709-5.03Z" transform="translate(1171.19 1035.699)" fill="#8ad1f5"/>
    <path id="Path_8336" data-name="Path 8336" d="M236.172,214.674l-8.436-4.871-.089,31.07-2.326-1.342.031-10.693-.722-.417.026-10.02.723.42.029-10.36-1.739-1.006-.089,31.072,7.879,4.547,4.621,2.67Z" transform="translate(1172.672 1036.482)" fill="#675643"/>
    <path id="Path_8337" data-name="Path 8337" d="M209.823,201.05l.016-6.009-4.084-2.358-5.15-2.973-5.148-2.974-5.143-2.97-3.158-1.82-.018,6.008,1.594.92-.083,29.742v.17l10.478,6.05,9.016,5.205,0-.169.083-29.742Zm-20.2-11.665,8.126,4.693-.078,28.9-8.13-4.693Zm17.639,39.132-8.707-5.029.083-28.9,8.707,5.03Z" transform="translate(1170.567 1035.009)" fill="#fff"/>
    <path id="Path_8338" data-name="Path 8338" d="M195.571,146.31l-5.144-2.971-3.157-1.821-.018,6.009.77.444-.066,22.835,2.391,1.379,5.144,2.97,4.6,2.655-3.117-1.8.008-2.91-6.479-3.739.056-19.469,6.479,3.739v-.457l12.13,7,.771.444.017-6.009-4.087-2.359-5.148-2.971Z" transform="translate(1170.574 1032.673)" fill="#fff"/>
    <path id="Path_8339" data-name="Path 8339" d="M225.725,219.018l-.029,10.018-.438-.254-.032,10.694,2.327,1.342.088-31.07-2.328-1.342-.029,10.36Z" transform="translate(1172.768 1036.537)" fill="#dbdcdc"/>
    <path id="Path_8340" data-name="Path 8340" d="M225.762,218.475l-.44-.252-.724-.42-.026,10.02.724.416.438.254Z" transform="translate(1172.729 1037.08)" fill="#a0a1a2"/>
    <path id="Path_8341" data-name="Path 8341" d="M222.762,208.935l0-.5.045-16.759-1.173-.68v.281l-.854-.491-.845-.488,0-1.088-.388-.223,0-.979,0-.971.386.223.018-6.811-.384-.224,0-.976,0-.971.388.223v-.767l.9.517.037-13,1.975,1.14.039-13.863-5.135-5.748-1.229-1.375-.171,59.852,1.233.71Z" transform="translate(1172.257 1032.898)" fill="#675643"/>
    <path id="Path_8342" data-name="Path 8342" d="M229.982,191.253l.019-6.811-.665-.386-.021,6.812Z" transform="translate(1173.003 1035.13)" fill="#675643"/>
    <path id="Path_8343" data-name="Path 8343" d="M227.709,157.888l-5.142-5.752L222.528,166l5.15,2.973,2.094,1.208-.039,13.771.665.386.039-13.772,2.384,1.376,5.144,2.97.015-5.531-5.136-5.747Z" transform="translate(1172.611 1033.287)" fill="#675643"/>
    <path id="Path_8344" data-name="Path 8344" d="M237.171,197.922l-.849-.491-.847-.489,0-.28-2.276-1.316v.282l-.444-.256-.409-.235-.842-.489v-.28l-1.133-.655,0-.806-.665-.387,0,.809-.479-.277,0,.282-.845-.49-.768-.444-.083-.047,0-.28-2.273-1.312v.28l-.85-.49-.852-.492,0-.279-1.1-.634-.045,16.76,0,.5,5.15,2.972,5.144,2.97,5.143,2.969.049-17.257-.729-.422Z" transform="translate(1172.605 1035.425)" fill="#675643"/>
    <path id="Path_8345" data-name="Path 8345" d="M242.286,174.192l-5.142-5.752-.015,5.53,1.7.979-.038,13,1.548.893,0,.768.494.286-.006,1.947-.492-.283-.018,6.811.494.285-.008,1.949-.494-.286,0,1.088-.849-.49-.85-.491v-.28l-1.543-.893-.05,17.258,5.15,2.973,1.522.879.125-43.647,1.817,2.034.8.891,0-.829Z" transform="translate(1173.448 1034.229)" fill="#675643"/>
    <path id="Path_8346" data-name="Path 8346" d="M227.027,189.395l.019-6.66-1.913-1.105-.021,6.66Z" transform="translate(1172.761 1034.99)" fill="#8ad1f5"/>
    <path id="Path_8347" data-name="Path 8347" d="M223.047,168.295l-.031,10.862.541.311,0-.766,1.7.982,0,.767,1.915,1.105.032-10.861Z" transform="translate(1172.64 1034.22)" fill="#8ad1f5"/>
    <path id="Path_8348" data-name="Path 8348" d="M223.534,187.379l.019-6.661-.539-.311-.021,6.659Z" transform="translate(1172.638 1034.92)" fill="#8ad1f5"/>
    <path id="Path_8349" data-name="Path 8349" d="M223.622,189.055l-2.27-1.313,0,.808,1.173.68,1.1.634Z" transform="translate(1172.543 1035.343)" fill="#fff"/>
    <path id="Path_8350" data-name="Path 8350" d="M227.376,192.031l0-.808-2.272-1.312,0,.809Z" transform="translate(1172.76 1035.469)" fill="#fff"/>
    <path id="Path_8351" data-name="Path 8351" d="M223.628,187.584v-.151l-.542-.312.021-6.659-1.732-1-.02,6.813Z" transform="translate(1172.544 1034.865)" fill="#fff"/>
    <path id="Path_8352" data-name="Path 8352" d="M225.111,188.229v.152l2.272,1.311.019-6.812-.358-.205-.018,6.66Z" transform="translate(1172.761 1035.051)" fill="#fff"/>
    <path id="Path_8353" data-name="Path 8353" d="M221.423,178.4l1.732,1,.031-10.861,4.157,2.4-.032,10.862.358.205v-.766l1.7.978,0,.767.481.277.039-13.771-2.094-1.207-5.151-2.974-1.975-1.14-.037,13,.8.46Z" transform="translate(1172.501 1033.982)" fill="#fff"/>
    <path id="Path_8354" data-name="Path 8354" d="M229.341,190.883l.021-6.811-.48-.276-.02,6.811Z" transform="translate(1172.978 1035.115)" fill="#fff"/>
    <path id="Path_8355" data-name="Path 8355" d="M229.335,193.162l0-.809-.479-.275,0,.807Z" transform="translate(1172.977 1035.594)" fill="#fff"/>
    <path id="Path_8356" data-name="Path 8356" d="M234.9,193.937l.019-6.66-2.277-1.314-.018,6.66Z" transform="translate(1173.194 1035.241)" fill="#8ad1f5"/>
    <path id="Path_8357" data-name="Path 8357" d="M232.657,184.723l2.276,1.316,0-.766,1.582.914.03-10.1-4.157-2.4-.026,10.1.293.17Z" transform="translate(1173.18 1034.532)" fill="#8ad1f5"/>
    <path id="Path_8358" data-name="Path 8358" d="M231.07,194.164l0-.809-1.132-.652,0,.807Z" transform="translate(1173.04 1035.63)" fill="#fff"/>
    <path id="Path_8359" data-name="Path 8359" d="M236.369,196.415l0,.806.729.421,1.543.893,0-.809Z" transform="translate(1173.411 1035.844)" fill="#fff"/>
    <path id="Path_8360" data-name="Path 8360" d="M232.619,192.26v.153l2.274,1.313,0-.152Z" transform="translate(1173.194 1035.604)" fill="#fff"/>
    <path id="Path_8361" data-name="Path 8361" d="M234.888,196.369v-.808l-2.274-1.315,0,.807Z" transform="translate(1173.194 1035.719)" fill="#fff"/>
    <path id="Path_8362" data-name="Path 8362" d="M238.646,196.255l.019-6.812-2.271-1.312-.02,6.813Z" transform="translate(1173.411 1035.366)" fill="#fff"/>
    <path id="Path_8363" data-name="Path 8363" d="M230.008,169.56l-.039,13.772,1.132.652v-.768l1.4.809.027-10.1,4.156,2.4-.029,10.1.112.065v.768l2.27,1.309,0-.767.153.089.037-13-1.7-.979-5.144-2.969Z" transform="translate(1173.041 1034.293)" fill="#fff"/>
    <path id="Path_8364" data-name="Path 8364" d="M231.075,191.885l.021-6.813-1.133-.652-.018,6.812Z" transform="translate(1173.04 1035.151)" fill="#fff"/>
    <path id="Path_8365" data-name="Path 8365" d="M216.755,205.662l.171-59.852-6.683-7.476-.273,96.7,6.691,3.865,0-.831Z" transform="translate(1171.886 1032.49)" fill="#dbdcdc"/>
    <path id="Path_8366" data-name="Path 8366" d="M224.9,154.988l5.142,5.752,5.136,5.746,5.135,5.748,5.143,5.752,4.134,4.624L253.511,187l.013-4.384-71.376-79.862-.013,4.384,3.3,3.7,5.366,6,5.138,5.747,5.14,5.752,5.143,5.751,5.135,5.748.492.552,6.683,7.477,1.23,1.375Z" transform="translate(1170.278 1030.435)" fill="#77654b"/>
    <path id="Path_8367" data-name="Path 8367" d="M253.522,182.808l.011-3.553L182.157,99.4l-.011,3.545Z" transform="translate(1170.279 1030.241)" fill="#463b39"/>
    <path id="Path_8368" data-name="Path 8368" d="M219.748,186.818l0,1.088.845.488.854.491V188.6l0-.808Z" transform="translate(1172.451 1035.29)" fill="#6a6a6a"/>
    <path id="Path_8369" data-name="Path 8369" d="M221.469,179.514l-1.7-.978-.019,6.811,1.7.979Z" transform="translate(1172.451 1034.812)" fill="#6a6a6a"/>
    <path id="Path_8370" data-name="Path 8370" d="M221.476,176.947l-.8-.461-.9-.517v.767l1.693.979Z" transform="translate(1172.453 1034.663)" fill="#6a6a6a"/>
    <path id="Path_8371" data-name="Path 8371" d="M223.529,178.134l0,.767,1.7.982,0-.767Z" transform="translate(1172.669 1034.788)" fill="#6a6a6a"/>
    <path id="Path_8372" data-name="Path 8372" d="M223.5,187.512l1.7.983v-.152l.021-6.66-1.7-.982-.019,6.66Z" transform="translate(1172.668 1034.937)" fill="#6a6a6a"/>
    <path id="Path_8373" data-name="Path 8373" d="M223.494,190.072l.851.492.85.49v-.28l0-.809-1.7-.981,0,.808Z" transform="translate(1172.667 1035.415)" fill="#6a6a6a"/>
    <path id="Path_8374" data-name="Path 8374" d="M227.25,192.24l.083.047.769.444.845.49v-.282l0-.808-1.7-.978,0,.807Z" transform="translate(1172.884 1035.54)" fill="#6a6a6a"/>
    <path id="Path_8375" data-name="Path 8375" d="M227.283,180.3v.767l1.695.978,0-.766Z" transform="translate(1172.886 1034.914)" fill="#6a6a6a"/>
    <path id="Path_8376" data-name="Path 8376" d="M228.954,190.661l.021-6.811-1.7-.981-.019,6.811Z" transform="translate(1172.885 1035.062)" fill="#6a6a6a"/>
    <path id="Path_8377" data-name="Path 8377" d="M232.712,192.83v-.153l.019-6.659-1.7-.981-.021,6.812Z" transform="translate(1173.102 1035.187)" fill="#6a6a6a"/>
    <path id="Path_8378" data-name="Path 8378" d="M231.008,194.409l.843.489.409.235.444.256V194.3l-1.7-.979,0,.808Z" transform="translate(1173.102 1035.666)" fill="#6a6a6a"/>
    <path id="Path_8379" data-name="Path 8379" d="M232.735,183.449l-.293-.17-1.4-.809v.768l1.695.978Z" transform="translate(1173.103 1035.039)" fill="#6a6a6a"/>
    <path id="Path_8380" data-name="Path 8380" d="M234.793,185.406l1.7.979v-.768l-.111-.063-1.582-.915Z" transform="translate(1173.32 1035.164)" fill="#6a6a6a"/>
    <path id="Path_8381" data-name="Path 8381" d="M234.77,194.017l1.7.981.02-6.813-1.7-.978-.019,6.66Z" transform="translate(1173.318 1035.312)" fill="#6a6a6a"/>
    <path id="Path_8382" data-name="Path 8382" d="M234.762,196.577l.847.489.849.491v-.282l0-.8-1.7-.979v.807Z" transform="translate(1173.318 1035.791)" fill="#6a6a6a"/>
    <path id="Path_8383" data-name="Path 8383" d="M238.521,196.183l1.7.983.019-6.812-1.7-.983Z" transform="translate(1173.535 1035.438)" fill="#6a6a6a"/>
    <path id="Path_8384" data-name="Path 8384" d="M238.545,187.57l1.7.984,0-.768-1.548-.894-.152-.089Z" transform="translate(1173.537 1035.289)" fill="#6a6a6a"/>
    <path id="Path_8385" data-name="Path 8385" d="M238.514,198.463v.28l.851.491.848.49,0-1.088-1.7-.982Z" transform="translate(1173.535 1035.916)" fill="#6a6a6a"/>
    <path id="Path_8386" data-name="Path 8386" d="M237.38,186.857l-1.7-.979-2.277-1.316-1.693-.978-1.133-.652-.665-.386-.481-.277-1.693-.979-.358-.205-1.916-1.105-1.7-.983-.542-.312-1.732-1-1.693-.979-.388-.223,0,.971,0,.977.384.224,1.7.978,1.73,1,.539.311,1.7.983,1.913,1.105.358.205,1.7.981.48.276.664.385,1.133.652,1.7.981,2.277,1.314,1.7.979,2.271,1.311,1.7.984.492.283.006-1.947-.494-.286-1.7-.984Z" transform="translate(1172.431 1034.693)" fill="#6a6a6a"/>
    <path id="Path_8387" data-name="Path 8387" d="M237.355,195.139l-1.7-.981-2.274-1.313-1.7-.981-1.131-.653-.667-.385-.479-.276-1.693-.981-2.273-1.311-1.7-.983-2.273-1.311-1.7-.981-.386-.223,0,.971,0,.979.388.223,1.7.977,2.27,1.313,1.7.982,2.273,1.312,1.7.979.48.276.664.386,1.133.652,1.7.981,2.275,1.315,1.7.979,2.273,1.311,1.7.982.494.285.008-1.948-.494-.285-1.7-.983Z" transform="translate(1172.43 1035.171)" fill="#6a6a6a"/>
    <path id="Path_8388" data-name="Path 8388" d="M253.532,181.931h0l84.334-49.009L266.484,53.064l-84.331,49.008,0,.005Z" transform="translate(1170.279 1027.565)" fill="#9d8769"/>
    <path id="Path_8389" data-name="Path 8389" d="M249.635,177.572l-.013,4.383,84.334-49.008.013-4.384Z" transform="translate(1174.176 1031.925)" fill="#463b39"/>
    <g id="Group_2378" data-name="Group 2378" transform="translate(562.03 -564.971)">
      <path id="Path_9131-2" data-name="Path 9131" d="M63.581,158.47c3.261-8.43.975-18.421.306-27.2l11.463-.911s.509,11.027-1.657,12.656c-1.014.764-1.218,3.053-1.085,5.471l.033-.005c2.036-.113,5.1-3.849,5.505-5.77a1.474,1.474,0,1,1,2.884.611c-.572,2.695-4.292,7.79-8.125,8.088a25.966,25.966,0,0,0,.787,3.786c.656,1.964,2.917,4.306,1.658,6.551-2.155,3.848-9.345,4.774-12.022.815-1.32-1.954-.525-2.076.253-4.089" transform="translate(911.996 1656.427)" fill="#675841"/>
      <path id="Path_9132-2" data-name="Path 9132" d="M46.857,114.981a4.814,4.814,0,0,1-.218-1.367c0-.05.012-.093.014-.141a6.357,6.357,0,0,1,.98-8.581,4.841,4.841,0,0,1-.734-2.549,4.89,4.89,0,0,1,2.789-4.406,4.9,4.9,0,0,1,4.791-3.874c.059,0,.115.015.173.017a9.7,9.7,0,0,1,6.726-8.207,4.9,4.9,0,0,1,4.565-3.142,4.832,4.832,0,0,1,1.512.261,4.84,4.84,0,0,1,1.511-.261,4.894,4.894,0,0,1,4.565,3.142,9.7,9.7,0,0,1,6.728,8.207c.059,0,.113-.017.173-.017a4.9,4.9,0,0,1,4.791,3.874,4.848,4.848,0,0,1,2.055,6.954,6.357,6.357,0,0,1,.98,8.581c0,.048.014.092.014.141a4.86,4.86,0,0,1-.218,1.367,4.894,4.894,0,0,1-3.385,8.438,4.949,4.949,0,0,1-1.2-.163,4.864,4.864,0,0,1-7.151,5.545,4.758,4.758,0,0,1-4.9,0,4.656,4.656,0,0,1-3.964.418,4.656,4.656,0,0,1-3.964-.418,4.758,4.758,0,0,1-4.9,0,4.851,4.851,0,0,1-2.451.68,4.9,4.9,0,0,1-4.9-4.9,4.831,4.831,0,0,1,.2-1.322,4.851,4.851,0,0,1-6.1-4.74,4.879,4.879,0,0,1,1.518-3.535" transform="translate(914.625 1673.353)" fill="#a5b775"/>
      <path id="Path_9133-2" data-name="Path 9133" d="M45.34,125.708a4.888,4.888,0,0,1,1.518-3.535,4.859,4.859,0,0,1-.216-1.367c0-.05.01-.093.012-.141a6.359,6.359,0,0,1,.981-8.581,4.851,4.851,0,0,1,2.056-6.954,4.894,4.894,0,0,1,1.076-2.161c-1.874,6.749,1.823,11.367,4,10.33-.982,5.628,6.552,10.213,9.5,9.559-1.965,5.9,13.276,6.644,14.172,2.667-.9,3.978,11.8-.1,9.621-3.351a4.894,4.894,0,0,1-3.385,8.438,4.956,4.956,0,0,1-1.2-.162,4.855,4.855,0,0,1,.2,1.321,4.872,4.872,0,0,1-7.355,4.223,4.757,4.757,0,0,1-4.9,0,4.656,4.656,0,0,1-3.964.418,4.655,4.655,0,0,1-3.964-.418,4.759,4.759,0,0,1-4.9,0,4.872,4.872,0,0,1-7.355-4.223,4.806,4.806,0,0,1,.2-1.321,4.854,4.854,0,0,1-6.1-4.74" transform="translate(914.624 1666.161)" fill="#889a58"/>
    </g>
    <g id="Group_2379" data-name="Group 2379" transform="translate(535.388 -546.981)">
      <path id="Path_9131-3" data-name="Path 9131" d="M63.581,158.47c3.261-8.43.975-18.421.306-27.2l11.463-.911s.509,11.027-1.657,12.656c-1.014.764-1.218,3.053-1.085,5.471l.033-.005c2.036-.113,5.1-3.849,5.505-5.77a1.474,1.474,0,1,1,2.884.611c-.572,2.695-4.292,7.79-8.125,8.088a25.966,25.966,0,0,0,.787,3.786c.656,1.964,2.917,4.306,1.658,6.551-2.155,3.848-9.345,4.774-12.022.815-1.32-1.954-.525-2.076.253-4.089" transform="translate(911.996 1656.427)" fill="#675841"/>
      <path id="Path_9132-3" data-name="Path 9132" d="M46.857,114.981a4.814,4.814,0,0,1-.218-1.367c0-.05.012-.093.014-.141a6.357,6.357,0,0,1,.98-8.581,4.841,4.841,0,0,1-.734-2.549,4.89,4.89,0,0,1,2.789-4.406,4.9,4.9,0,0,1,4.791-3.874c.059,0,.115.015.173.017a9.7,9.7,0,0,1,6.726-8.207,4.9,4.9,0,0,1,4.565-3.142,4.832,4.832,0,0,1,1.512.261,4.84,4.84,0,0,1,1.511-.261,4.894,4.894,0,0,1,4.565,3.142,9.7,9.7,0,0,1,6.728,8.207c.059,0,.113-.017.173-.017a4.9,4.9,0,0,1,4.791,3.874,4.848,4.848,0,0,1,2.055,6.954,6.357,6.357,0,0,1,.98,8.581c0,.048.014.092.014.141a4.86,4.86,0,0,1-.218,1.367,4.894,4.894,0,0,1-3.385,8.438,4.949,4.949,0,0,1-1.2-.163,4.864,4.864,0,0,1-7.151,5.545,4.758,4.758,0,0,1-4.9,0,4.656,4.656,0,0,1-3.964.418,4.656,4.656,0,0,1-3.964-.418,4.758,4.758,0,0,1-4.9,0,4.851,4.851,0,0,1-2.451.68,4.9,4.9,0,0,1-4.9-4.9,4.831,4.831,0,0,1,.2-1.322,4.851,4.851,0,0,1-6.1-4.74,4.879,4.879,0,0,1,1.518-3.535" transform="translate(914.625 1673.353)" fill="#a5b775"/>
      <path id="Path_9133-3" data-name="Path 9133" d="M45.34,125.708a4.888,4.888,0,0,1,1.518-3.535,4.859,4.859,0,0,1-.216-1.367c0-.05.01-.093.012-.141a6.359,6.359,0,0,1,.981-8.581,4.851,4.851,0,0,1,2.056-6.954,4.894,4.894,0,0,1,1.076-2.161c-1.874,6.749,1.823,11.367,4,10.33-.982,5.628,6.552,10.213,9.5,9.559-1.965,5.9,13.276,6.644,14.172,2.667-.9,3.978,11.8-.1,9.621-3.351a4.894,4.894,0,0,1-3.385,8.438,4.956,4.956,0,0,1-1.2-.162,4.855,4.855,0,0,1,.2,1.321,4.872,4.872,0,0,1-7.355,4.223,4.757,4.757,0,0,1-4.9,0,4.656,4.656,0,0,1-3.964.418,4.655,4.655,0,0,1-3.964-.418,4.759,4.759,0,0,1-4.9,0,4.872,4.872,0,0,1-7.355-4.223,4.806,4.806,0,0,1,.2-1.321,4.854,4.854,0,0,1-6.1-4.74" transform="translate(914.624 1666.161)" fill="#889a58"/>
    </g>
  </g>
  <g id="Group_1799" data-name="Group 1799" transform="translate(130.569 134.817)">
    <g id="Group_1798" data-name="Group 1798" clip-path="url(#clip-path-5)">
      <g id="Group_1797" data-name="Group 1797">
        <g id="Group_1796" data-name="Group 1796" clip-path="url(#clip-path-5)">
          <path id="Path_8391" data-name="Path 8391" d="M89.892,79.281a.392.392,0,0,0,0,.743,1.423,1.423,0,0,0,1.287,0,.392.392,0,0,0,0-.743,1.423,1.423,0,0,0-1.287,0" transform="translate(-62.181 -54.897)" fill="#f45157"/>
          <path id="Path_8392" data-name="Path 8392" d="M91.445,80.844v6.238a.451.451,0,0,1-.266.371,1.419,1.419,0,0,1-1.287,0,.451.451,0,0,1-.267-.371V80.844Z" transform="translate(-62.18 -56.088)" fill="#f45157"/>
          <path id="Path_8393" data-name="Path 8393" d="M82.395,59.8c-.006.22.584.22.578,0V57.791a.289.289,0,0,0-.084-.2l-4.006-4.052V51.57a.321.321,0,0,1,.481-.278L85.9,55.068l.289-.5-6.54-3.776a.9.9,0,0,0-1.348.778v2.084a.289.289,0,0,0,.084.2l4.006,4.052Z" transform="translate(-54.327 -35.154)" fill="#4e4e4e"/>
          <rect id="Rectangle_606" data-name="Rectangle 606" width="3.149" height="8.787" transform="translate(24.594 17.814) rotate(-60.001)" fill="gray"/>
          <path id="Path_8394" data-name="Path 8394" d="M81.476,49.821c0-.71-.5-1-1.113-.643a2.462,2.462,0,0,0-1.113,1.928c0,.71.5,1,1.113.643a2.461,2.461,0,0,0,1.113-1.929" transform="translate(-54.982 -34.013)" fill="gray"/>
          <path id="Path_8395" data-name="Path 8395" d="M106.329,64.169c0-.71-.5-1-1.113-.643a2.461,2.461,0,0,0-1.113,1.928c0,.71.5,1,1.113.643a2.461,2.461,0,0,0,1.113-1.929" transform="translate(-72.224 -43.968)" fill="#fff"/>
          <path id="Path_8396" data-name="Path 8396" d="M107.209,66.606c0-.266-.187-.375-.418-.241a.924.924,0,0,0-.418.724c0,.266.187.374.418.241a.924.924,0,0,0,.418-.724" transform="translate(-73.8 -46.003)" fill="#4e4e4e"/>
          <path id="Path_8397" data-name="Path 8397" d="M86.815,89.818c.009-.077.27-1.809.27-1.809l-.724-1.068-.148-1.656.52-1.064s.269-.408.525-.4v.4l.356.46.491.286.6.341.214-.168s.076-.362.155-.785l.325.574.162.917-.172,1.1-.314,2.063-.246.981H86.851Z" transform="translate(-59.813 -58.151)" fill="#f4c6b4"/>
          <path id="Path_8398" data-name="Path 8398" d="M69.066,114.643l2.628-6.264s2.919-10.419,3.4-11.21c.362-.6,2.091-.074,2.091,1.066l-.01,9.236-3.972,12.5Z" transform="translate(-47.917 -67.241)" fill="#fff"/>
          <path id="Path_8399" data-name="Path 8399" d="M91.96,316.51c1.9.387,2.207,1.838,1.482,3.1L91.3,322.575a3.068,3.068,0,0,1-3.294,1.778,1.6,1.6,0,0,1-1.087-2.294l.527-1.581.823-4.291Z" transform="translate(-60.193 -219.365)" fill="#4e4e4e"/>
          <path id="Path_8400" data-name="Path 8400" d="M83.943,250.468c.593,1.974,4.487,1.9,4.744-.736l1.061-9.5c0-.006.224-3.078.224-3.078l2.152-8.565.466-3.572-1.52-9.173-7.977-.36s1.117,18.5,1.123,19.128c-1.115,3.455-.527,11.346-.272,15.86" transform="translate(-57.648 -149.497)" fill="#25435c"/>
          <path id="Path_8401" data-name="Path 8401" d="M83.943,250.468c.593,1.974,4.487,1.9,4.744-.736l1.061-9.5c0-.006.224-3.078.224-3.078l2.152-8.565.466-3.572-1.52-9.173-7.977-.36s1.117,18.5,1.123,19.128c-1.115,3.455-.527,11.346-.272,15.86" transform="translate(-57.648 -149.497)" fill="#466677"/>
          <path id="Path_8402" data-name="Path 8402" d="M102.858,330.993a5.369,5.369,0,0,0,.038,4.354c1.342.494,2.467.593,3.248.069,2.537-.149,3.956.183,5.262-.18a4.137,4.137,0,0,0,3.045-2.154,1.468,1.468,0,0,0-1.233-1.911,14.726,14.726,0,0,1-5.032-.76l-1.8-3.221-3.268,2.523Z" transform="translate(-71.048 -226.999)" fill="#4e4e4e"/>
          <path id="Path_8403" data-name="Path 8403" d="M89.976,229.185a47.748,47.748,0,0,1,.174,4.891c-1.738,5.241-1.805,13.465-1.692,18.4,1.364,2.133,6.1,1.357,6.452-.628l.133-1.3.755-7.307c0-.006.007-.047.013-.12l.027-.214.314-2.353.929-5.763c.615-4.58-.247-15.564-.595-20.364-.027-.374-.054-.709-.073-1l-3.283-.374-4.579-.528a.189.189,0,0,1-.007.107c-.147,1.056-5.034,1.437-5.088,2.52-.114,2.507.6,7.244,5.23,7.685,1.288,1.921,1.075,3.215,1.288,6.351" transform="translate(-57.894 -147.444)" fill="#618598"/>
          <path id="Path_8404" data-name="Path 8404" d="M68.052,155.942s.776,1.531,1.6,3.276a34.719,34.719,0,0,1,1.972,4.666c.274,1.371.8,6.86.8,6.86,2.908,2.774,7.053,2.968,10.67,1.371a5.005,5.005,0,0,0,.809-.448c.836-.542,1.137-.595,1.551-1.645a45.364,45.364,0,0,0-.869-10.443c-.06-.261-.127-.515-.194-.755-.074-.281-.16-.548-.254-.809-.187-.535-.381-1.27-.575-2.039a11.779,11.779,0,0,0-1.331-3.724l-1.778-.749-1.511-.642-.7-.294c-.976-.375-2.728-.776-5.462-1.511-.441-.12-.9-.241-1.391-.381-.174-.047-.354-.094-.535-.147-2.848-.227-4.1,3.563-2.808,7.414" transform="translate(-46.861 -103.04)" fill="#618598"/>
          <g id="Group_1786" data-name="Group 1786" transform="translate(33.967 56.386)" opacity="0.5" style="mix-blend-mode: multiply;isolation: isolate">
            <g id="Group_1785" data-name="Group 1785">
              <g id="Group_1784" data-name="Group 1784" clip-path="url(#clip-path-7)">
                <path id="Path_8405" data-name="Path 8405" d="M110.926,188.925l1.27,4.432,1,3.47c1.651,3.866,1.679,10.644,1.658,17.509l-.742,16.52.755-7.307c0-.007.007-.047.013-.12l.027-.214.314-2.353.929-5.763c.615-4.579-.247-15.564-.595-20.364a45.363,45.363,0,0,0-.869-10.443l-.354-.154-.528,2a2.991,2.991,0,0,1-2.875,2.788" transform="translate(-110.926 -184.138)" fill="#618598"/>
              </g>
            </g>
          </g>
          <path id="Path_8406" data-name="Path 8406" d="M104.2,176.344l2.059,7.174a2.991,2.991,0,0,0,2.875-2.788l.528-2Z" transform="translate(-72.293 -122.345)" fill="#b3b3b3"/>
          <path id="Path_8407" data-name="Path 8407" d="M136.813,163.729a26.549,26.549,0,0,0-.131-2.661l.386-1.635c.188-.73.605-.3.542.157l-.027.805.247,1.116Z" transform="translate(-94.828 -110.341)" fill="#f4c6b4"/>
          <path id="Path_8408" data-name="Path 8408" d="M135.372,162.847a14.854,14.854,0,0,0,1.252-1.149l1.506-1.276,1.229-1.454.776-.8.815-.466c.471-.329.264-.694-.1-.568l-.936.362-.742.442.778-.941,1.131-.777c.35-.246.29-.732-.175-.546l-1.932,1.078.511-.707,1.2-.835c.342-.227.281-.772-.283-.493l-.951.5-1.064.854.277-.442.872-.954c.332-.459.046-.769-.44-.367l-.826.785a4.419,4.419,0,0,0-.867,1.028l-.428.822-.431.673a6.623,6.623,0,0,0-.642,2.7Z" transform="translate(-93.919 -106.928)" fill="#f4c6b4"/>
          <path id="Path_8409" data-name="Path 8409" d="M100.852,170.567a3.859,3.859,0,0,0,2.22.408,2.991,2.991,0,0,0,2.875-2.788l.528-2,.16-.6c-.073-.28-.16-.548-.254-.809-.187-.535-.381-1.27-.575-2.039a11.768,11.768,0,0,0-1.331-3.724l-1.778-.749a3.6,3.6,0,0,0-3.055,3.1c-.287,2.307,1.21,9.206,1.21,9.206" transform="translate(-69.105 -109.802)" fill="#fff"/>
          <path id="Path_8410" data-name="Path 8410" d="M104.2,176.344l2.059,7.174a2.991,2.991,0,0,0,2.875-2.788l.528-2Z" transform="translate(-72.293 -122.345)" fill="#b3b3b3"/>
          <path id="Path_8411" data-name="Path 8411" d="M79.165,150.275A2.365,2.365,0,0,0,77,151.986c-.763,2.406.378,8.19.378,8.19a11.319,11.319,0,0,0,5.846,2.746,46.988,46.988,0,0,1-.661-7.107c.256-3.427,2.757-3.735,2.757-3.735l-.7-.294c-.976-.374-2.727-.775-5.462-1.511" transform="translate(-53.24 -104.258)" fill="#fff"/>
          <path id="Path_8412" data-name="Path 8412" d="M68.052,155.942s.776,1.531,1.6,3.276c0,0-1.127-7.058.026-9.186a3.08,3.08,0,0,1,1.712-1.357c-.174-.047-.354-.094-.535-.147-2.848-.227-4.1,3.563-2.808,7.414" transform="translate(-46.861 -103.04)" fill="#fff"/>
          <path id="Path_8413" data-name="Path 8413" d="M73.547,124.027a4.115,4.115,0,0,0,3.47,4.4c4.2.681,5.085-1.154,5.482-3.076.328-1.587-1.967-6.209-4.29-6.281s-4.541,2.793-4.662,4.96" transform="translate(-51.021 -82.606)" fill="#f4c6b4"/>
          <path id="Path_8414" data-name="Path 8414" d="M86.585,137.134l1.479,5.287c-2.386,2.759-6.139.609-5.333-.731l-.6-4.806Z" transform="translate(-56.983 -94.969)" fill="#f4c6b4"/>
          <path id="Path_8415" data-name="Path 8415" d="M82.044,125.508l-.519-.917s.795-1.209.122-3.682-3.43-1.629-4.55-1.112c-1.351.625-1.733.908-2.109,3.3s-.162,3.305.405,4.045a24.184,24.184,0,0,0,1.757,1.94s1.221,1.639,3.848-.363a1.566,1.566,0,0,0,.616-1.352,3.333,3.333,0,0,1,.429-1.855" transform="translate(-51.896 -82.72)" fill="#4e4e4e"/>
          <path id="Path_8416" data-name="Path 8416" d="M110.191,166.33l3.2-2.5c.976-.965,3.014.176,2.506,2.556l-4.145,5.093a3.42,3.42,0,0,1-2.3,1.328c-2.7-.176-4.123-4.135-5.607-7.917-.386-2.02-.036-3.49.733-4.335a2.353,2.353,0,0,1,3.761.545Z" transform="translate(-71.935 -110.9)" fill="#fff"/>
          <path id="Path_8417" data-name="Path 8417" d="M87.4,117.178s3.252-3.333-.156-5.01c-2.633-1.3-4.946,2.545-4.946,2.545Z" transform="translate(-57.099 -77.635)" fill="#466677"/>
          <path id="Path_8418" data-name="Path 8418" d="M80.293,121.685s-.657,6.415-5.655,6.474a6.256,6.256,0,0,1-2.56-5.35,4.366,4.366,0,0,1,3.227-4.237c1.566-.652,4.357.552,4.988,3.113" transform="translate(-49.989 -82.143)" fill="#618598"/>
          <path id="Path_8419" data-name="Path 8419" d="M95.162,137.035c-.926,1.185.39,3.028.825,1.969.247-.6-.258-2.7-.825-1.969" transform="translate(-65.798 -94.968)" fill="#f4c6b4"/>
          <path id="Path_8420" data-name="Path 8420" d="M16.494,282.783l-.146,1.553-.058.63-.025.276-.058.634-.664,7.067a.91.91,0,0,1-.5.647L8.17,297.555a2.705,2.705,0,0,1-2.442,0L1.471,295.1a.875.875,0,0,1-.5-.651c-.008,0-.96-9.955-.96-9.955Z" transform="translate(-0.01 -196.19)" fill="#f45157"/>
          <path id="Path_8421" data-name="Path 8421" d="M15.916,274.529l-7.767,4.484a3.051,3.051,0,0,1-2.759,0L.571,276.232a.841.841,0,0,1,0-1.593l7.767-4.484a3.049,3.049,0,0,1,2.759,0l4.819,2.782a.841.841,0,0,1,0,1.593" transform="translate(0 -187.2)" fill="#f45157"/>
          <path id="Path_8422" data-name="Path 8422" d="M17.016,274.676c0,.142-.138.3-.363.434l-1.4.81s-.923.53-.923.53l-5.259,3.035s-.184.109-.184.109a2.4,2.4,0,0,1-1.169.276,2.425,2.425,0,0,1-1.173-.276l-2.5-1.44-2.321-1.34c-.225-.134-.363-.3-.363-.434s.138-.305.363-.439l7.768-4.483a2.4,2.4,0,0,1,1.169-.276,2.425,2.425,0,0,1,1.173.276l4.817,2.784c.225.13.363.292.363.434" transform="translate(-0.946 -188.142)" fill="#b03a3f"/>
          <g id="Group_1789" data-name="Group 1789" transform="translate(3.101 86.593)" style="mix-blend-mode: multiply;isolation: isolate">
            <g id="Group_1788" data-name="Group 1788">
              <g id="Group_1787" data-name="Group 1787" clip-path="url(#clip-path-8)">
                <path id="Path_8423" data-name="Path 8423" d="M20.409,284.5l-5.443,3.143a2.4,2.4,0,0,1-1.169.275,2.426,2.426,0,0,1-1.173-.275l-2.5-1.44,5.447-3.143a2.4,2.4,0,0,1,1.169-.275,2.424,2.424,0,0,1,1.173.275Z" transform="translate(-10.128 -282.783)" fill="#961b20"/>
              </g>
            </g>
          </g>
          <g id="Group_1792" data-name="Group 1792" transform="translate(8.123 87.778)" opacity="0.5" style="mix-blend-mode: multiply;isolation: isolate">
            <g id="Group_1791" data-name="Group 1791">
              <g id="Group_1790" data-name="Group 1790" clip-path="url(#clip-path-9)">
                <path id="Path_8424" data-name="Path 8424" d="M32.522,288.358l-.306.17a1.011,1.011,0,0,0-.518.949l.041.644a1.179,1.179,0,0,1-.591,1.1l-.6.343a1.048,1.048,0,0,0-.528.909v1.672a1.018,1.018,0,0,1-.509.882l-.254.147a.5.5,0,0,1-.748-.432v-.578a.466.466,0,0,0-.7-.4.466.466,0,0,1-.7-.379l-.132-2.933-.442-.225s5.259-3.039,5.259-3.039l.918-.53s.4.254.4.254v.465a1.125,1.125,0,0,1-.579.984" transform="translate(-26.527 -286.655)" fill="#b03a3f"/>
              </g>
            </g>
          </g>
          <g id="Group_1795" data-name="Group 1795" transform="translate(2.245 88.145)" style="mix-blend-mode: multiply;isolation: isolate">
            <g id="Group_1794" data-name="Group 1794">
              <g id="Group_1793" data-name="Group 1793" clip-path="url(#clip-path-10)">
                <path id="Path_8425" data-name="Path 8425" d="M21.5,287.921l-.075-.067-.058.63a.446.446,0,0,1,.008.15.386.386,0,0,1-.033.125.463.463,0,0,1-.2.234l-8.549,4.876a1.328,1.328,0,0,1-1.616-.217l-3.285-3.331a.21.21,0,0,0-.3.3l3.281,3.327a1.739,1.739,0,0,0,2.125.288l8.486-4.838.063-.038a.893.893,0,0,0,.154-1.436" transform="translate(-7.33 -287.854)" fill="#4e4e4e"/>
              </g>
            </g>
          </g>
        </g>
      </g>
    </g>
  </g>
</svg>
